<svg width="311" height="217" viewBox="0 0 311 217" fill="none" xmlns="http://www.w3.org/2000/svg">
<path d="M221.063 56.5479C220.845 55.9001 220.548 55.2714 220.263 54.6508C219.977 54.0269 219.69 53.4039 219.404 52.78C218.832 51.5331 218.259 50.2855 217.684 49.0402C216.529 46.5392 215.371 44.0382 214.211 41.5388C213.888 40.8407 213.564 40.1434 213.24 39.4452C212.912 38.7367 212.552 38.0442 212.202 37.3468C212.162 37.2678 212.04 37.3205 212.075 37.4028C213.13 39.9365 214.287 42.4255 215.421 44.9257C216.558 47.4346 217.702 49.9412 218.85 52.4454C219.17 53.1451 219.491 53.844 219.812 54.5437C220.135 55.2499 220.449 55.9752 220.845 56.6437C220.924 56.7731 221.111 56.6941 221.063 56.5479Z" fill="#C49362" fill-opacity="0.3"/>
<path d="M234.661 81.5377C234.399 80.8851 234.07 80.2556 233.745 79.6334L232.779 77.7842C232.13 76.5421 231.48 75.3016 230.828 74.0611C229.526 71.5801 228.224 69.0983 226.915 66.6205C226.178 65.2234 225.441 63.828 224.66 62.4548C224.612 62.3702 224.476 62.4261 224.52 62.5172C225.729 65.0533 227.052 67.5367 228.348 70.0297C229.645 72.5243 230.935 75.0228 232.237 77.515C232.597 78.2052 232.957 78.8945 233.317 79.5847C233.682 80.2828 234.043 80.9913 234.476 81.6503C234.546 81.7573 234.706 81.6487 234.661 81.5377Z" fill="#C49362" fill-opacity="0.3"/>
<path d="M275.649 14.8357C275.546 14.1479 275.439 13.461 275.332 12.7732C275.224 12.0863 275.117 11.3993 275.006 10.7124C274.911 10.1237 274.873 9.45509 274.554 8.93429C274.309 8.5333 273.838 8.24975 273.387 8.35439C273.376 8.35439 273.367 8.35119 273.357 8.35358C270.883 8.76815 268.417 9.23143 265.962 9.74265C263.506 10.2547 261.061 10.8146 258.627 11.4233C256.204 12.0288 253.792 12.679 251.396 13.3835C248.996 14.0896 246.609 14.8413 244.238 15.6401C241.862 16.4412 239.502 17.2911 237.166 18.2009C236.958 18.2816 236.754 18.3703 236.551 18.4605C236.546 18.4533 236.541 18.4454 236.534 18.4382C236.275 18.1993 235.892 18.3455 235.698 18.5947C235.421 18.9494 235.563 19.4366 235.68 19.8225C235.978 20.8057 236.286 21.7859 236.591 22.7668C237.195 24.7086 237.797 26.6512 238.402 28.5922C238.74 29.6786 239.081 30.7665 239.521 31.8161C239.552 31.8904 239.675 31.8568 239.658 31.7754C239.463 30.8488 239.192 29.9454 238.918 29.0396C238.644 28.1361 238.361 27.2351 238.08 26.3341C237.518 24.5313 236.956 22.7284 236.394 20.9264C236.239 20.4255 236.048 19.9263 235.924 19.4167C235.872 19.205 235.824 18.935 235.977 18.7513C236.051 18.6618 236.159 18.6019 236.27 18.5971C236.212 18.665 236.285 18.7808 236.387 18.7497C237.58 18.3822 238.746 17.915 239.92 17.494C241.096 17.073 242.277 16.6641 243.459 16.2639C245.832 15.4627 248.219 14.7071 250.622 14.001C253.018 13.2964 255.425 12.6326 257.845 12.0184C260.266 11.4041 262.698 10.837 265.141 10.3178C267.583 9.79856 270.036 9.3281 272.498 8.90555C272.805 8.85283 273.113 8.8009 273.421 8.74978C273.494 8.7378 273.538 8.69466 273.562 8.64194C273.928 8.67309 274.232 9.01018 274.363 9.34567C274.459 9.5877 274.5 9.8473 274.54 10.1029C274.589 10.4176 274.637 10.7316 274.685 11.0463C274.879 12.3083 275.084 13.5688 275.292 14.8285C275.41 15.5442 275.511 16.2703 275.701 16.9708C275.737 17.1042 275.919 17.0762 275.912 16.9373C275.876 16.2335 275.755 15.5322 275.649 14.8357Z" fill="#C49362" fill-opacity="0.3"/>
<path d="M282.082 59.0878C282.044 58.4376 282.033 57.7595 281.9 57.1205C281.866 56.9591 281.593 56.9439 281.592 57.1276C281.59 57.6884 281.67 58.2507 281.707 58.8099C281.746 59.3866 281.774 59.9641 281.791 60.5416C281.826 61.6911 281.822 62.8437 281.778 63.9931C281.755 64.6354 281.723 65.2776 281.685 65.919C281.648 65.8215 281.543 65.7425 281.415 65.7856C278.837 66.6603 276.264 67.5477 273.683 68.4152C271.113 69.2787 268.538 70.1286 265.955 70.9529C263.357 71.782 260.75 72.5776 258.129 73.3285C256.841 73.6975 255.55 74.0921 254.245 74.3996C253.656 74.5378 253.004 74.6417 252.429 74.394C251.961 74.192 251.642 73.7766 251.422 73.3301C251.18 72.8396 251.033 72.31 250.874 71.7884C250.674 71.1334 250.474 70.4792 250.273 69.825C249.867 68.507 249.471 67.1859 249.049 65.8735C248.942 65.5436 248.824 65.2193 248.699 64.8957C248.656 64.7815 248.464 64.8359 248.492 64.9573C248.803 66.324 249.248 67.6619 249.651 69.0039C249.854 69.6804 250.056 70.3578 250.261 71.0336C250.446 71.6422 250.614 72.2581 250.826 72.858C250.994 73.3357 251.21 73.8181 251.552 74.1991C251.929 74.6193 252.437 74.8653 253.001 74.9077C253.631 74.9548 254.253 74.7894 254.856 74.6273C255.526 74.4468 256.194 74.263 256.862 74.0761C259.53 73.3301 262.184 72.5345 264.828 71.7109C267.468 70.8898 270.098 70.0343 272.721 69.1588C275.355 68.2802 277.982 67.3847 280.608 66.4869C280.932 66.3767 281.255 66.2657 281.578 66.1546C281.659 66.1267 281.692 66.0684 281.696 66.0053C281.747 66.1131 281.934 66.1147 281.95 65.9677C282.2 63.6864 282.218 61.3795 282.082 59.0878Z" fill="#C49362" fill-opacity="0.3"/>
<path d="M301.643 9.54137C300.973 9.56294 300.303 9.63723 299.636 9.69395C298.978 9.75066 298.32 9.81057 297.663 9.87287C296.338 9.99988 295.014 10.1396 293.692 10.2938C291.048 10.6005 288.409 10.9576 285.78 11.3786C285.038 11.4976 284.296 11.6206 283.555 11.7484C282.814 11.8762 282.069 11.9976 281.341 12.1861C281.2 12.2229 281.228 12.4266 281.377 12.4114C282.699 12.2764 284.01 12.0048 285.323 11.8011C286.638 11.5966 287.955 11.4033 289.274 11.222C291.912 10.8594 294.557 10.5494 297.207 10.2938C297.955 10.2219 298.705 10.154 299.454 10.0901C300.202 10.027 300.956 9.99109 301.702 9.90322C301.94 9.87526 301.872 9.53418 301.643 9.54137Z" fill="#C49362" fill-opacity="0.3"/>
<path d="M302.464 64.88C302.58 63.6994 302.674 62.5164 302.737 61.331C302.772 60.6616 302.8 59.9915 302.819 59.3205C302.829 58.9802 302.837 58.6399 302.842 58.2989C302.846 58.1335 302.848 57.9682 302.846 57.8028C302.843 57.6295 302.814 57.4665 302.799 57.2948C302.785 57.1326 302.531 57.1422 302.515 57.3012C302.501 57.445 302.468 57.5847 302.463 57.7293C302.457 57.8739 302.455 58.0177 302.453 58.1623C302.448 58.4514 302.442 58.7398 302.434 59.029C302.419 59.6065 302.398 60.184 302.371 60.7615C302.318 61.9053 302.244 63.0492 302.147 64.1906C302.1 64.749 302.053 65.3089 301.984 65.8657C301.919 66.3825 301.82 66.9009 301.591 67.373C301.238 68.1007 300.579 68.6015 299.858 68.9322C299.009 69.3212 298.074 69.5401 297.161 69.7174C297.024 69.7438 297.056 69.9522 297.196 69.9331C298.808 69.7102 300.69 69.3747 301.684 67.9305C302.298 67.0391 302.362 65.9224 302.464 64.88Z" fill="#C49362" fill-opacity="0.3"/>
<path d="M304.222 20.7147C304.25 18.6834 304.278 16.6529 304.3 14.6216C304.306 14.0616 304.313 13.5025 304.318 12.9425C304.325 12.3746 304.346 11.7979 304.287 11.2331C304.276 11.1269 304.117 11.1365 304.103 11.2371C304.034 11.7484 304.036 12.27 304.025 12.7852C304.014 13.282 304.006 13.7797 303.996 14.2765C303.977 15.2918 303.957 16.3062 303.941 17.3214C303.907 19.3519 303.869 21.3824 303.845 23.4129C303.831 24.54 303.825 25.6751 303.878 26.8013C303.883 26.8964 304.037 26.8908 304.044 26.7974C304.203 24.7772 304.195 22.7396 304.222 20.7147Z" fill="#C49362" fill-opacity="0.3"/>
<path d="M277.888 37.5179C277.436 37.4373 276.986 37.4213 276.527 37.4037C276.071 37.3869 275.615 37.3702 275.16 37.3526C274.248 37.3167 273.336 37.2831 272.424 37.252C270.61 37.1889 268.797 37.1202 266.982 37.0651C266.694 37.0563 266.406 37.0475 266.118 37.0387C266.531 36.9788 266.945 36.9189 267.358 36.8518C267.83 36.7759 268.301 36.6968 268.773 36.6161C269.219 36.5402 269.723 36.5019 270.135 36.307C270.211 36.2711 270.197 36.1496 270.109 36.1417C269.655 36.0977 269.171 36.2319 268.724 36.3118C268.254 36.3957 267.783 36.4819 267.313 36.5698C266.715 36.6824 266.118 36.8054 265.522 36.9269C267.643 36.1369 269.751 35.3117 271.861 34.493C272.597 34.207 273.369 33.9482 274.055 33.5528C274.137 33.5065 274.113 33.3587 274.005 33.3819C273.321 33.5329 272.662 33.8116 272.01 34.0648C271.345 34.3228 270.679 34.5808 270.013 34.8388C268.702 35.3469 267.392 35.8613 266.083 36.3757C265.572 36.577 265.064 36.7831 264.557 36.9916C264.681 36.8837 264.804 36.7735 264.926 36.6649C265.232 36.3901 265.537 36.1137 265.846 35.8429C266.148 35.5793 266.45 35.3165 266.753 35.0529C267.054 34.7909 267.408 34.5449 267.64 34.2158C267.67 34.1727 267.625 34.1056 267.573 34.1319C267.224 34.3101 266.94 34.6136 266.646 34.8684C266.328 35.144 266.009 35.4204 265.689 35.6951C265.378 35.9635 265.061 36.2239 264.748 36.4899C264.676 36.5506 264.604 36.6113 264.531 36.6729C264.677 36.4188 264.822 36.1648 264.968 35.9108C265.35 35.2438 265.73 34.5768 266.11 33.9091C266.86 32.5919 267.61 31.2747 268.359 29.9583C268.79 29.2003 269.222 28.443 269.653 27.685C269.72 27.5676 269.641 27.4438 269.544 27.411C269.564 27.3855 269.585 27.3607 269.604 27.3351C269.636 27.2944 269.576 27.2329 269.538 27.2704C268.493 28.2937 267.515 29.3768 266.544 30.4703C265.566 31.5726 264.584 32.6718 263.609 33.7765C263.358 34.06 263.108 34.3444 262.857 34.628C263.161 34.1727 263.459 33.715 263.752 33.2525C263.952 32.9378 264.148 32.6206 264.348 32.3059C264.447 32.1486 264.55 31.9928 264.645 31.8323C264.725 31.6981 264.852 31.5359 264.865 31.3778C264.869 31.3346 264.82 31.2875 264.776 31.313C264.643 31.3913 264.565 31.5447 264.479 31.6709C264.375 31.8251 264.278 31.984 264.179 32.1422C263.975 32.4665 263.768 32.7884 263.564 33.1119C263.3 33.5312 263.042 33.953 262.788 34.3771C262.818 34.3084 262.848 34.239 262.879 34.1711C263.131 33.6143 263.383 33.0584 263.634 32.5024C264.133 31.3993 264.632 30.2962 265.127 29.1915C265.408 28.5653 265.686 27.9462 265.887 27.2904C265.907 27.2257 265.816 27.1618 265.776 27.2281C265.153 28.2457 264.707 29.3768 264.219 30.4647C263.724 31.5695 263.228 32.6742 262.732 33.7789C262.64 33.9849 262.543 34.191 262.448 34.3979C262.573 33.9841 262.696 33.5696 262.811 33.1518C262.908 32.802 262.994 32.4489 263.09 32.0982C263.184 31.7556 263.315 31.3993 263.323 31.0407C263.324 30.9824 263.238 30.9288 263.202 30.9927C263.027 31.3026 262.954 31.6653 262.859 32.0056C262.758 32.3642 262.649 32.7205 262.549 33.0791C262.502 33.2485 262.459 33.4186 262.414 33.588C262.41 30.1716 262.487 26.7536 262.674 23.342C262.724 22.4179 262.788 21.4952 262.824 20.5711C262.855 20.4049 262.883 20.2388 262.899 20.0718C262.903 20.0223 262.879 19.9848 262.846 19.9632C262.846 19.9544 262.847 19.9456 262.847 19.9368C262.85 19.8098 262.664 19.7843 262.647 19.9145C262.636 19.9999 262.627 20.0854 262.617 20.1709C262.462 20.6038 262.366 21.0615 262.254 21.5056C262.131 21.9929 262.014 22.4825 261.895 22.9706C261.652 23.9675 261.41 24.9651 261.169 25.9628C260.691 27.9374 260.212 29.912 259.734 31.8866C259.602 32.4305 259.469 32.9745 259.339 33.5185C259.272 33.8004 259.204 34.0832 259.138 34.3652C259.08 34.6128 259.014 34.862 258.996 35.116C258.949 35.1312 258.901 35.1432 258.854 35.1608C258.85 35.1624 258.846 35.1656 258.842 35.168C258.798 35.1136 258.734 35.0913 258.666 35.0945C258.661 35.0745 258.651 35.0537 258.637 35.0338C258.664 35.0465 258.695 35.0441 258.723 35.0338C258.729 35.14 258.889 35.1496 258.912 35.037C258.997 34.6112 259.079 34.1894 259.147 33.7597C259.213 33.3427 259.28 32.9266 259.342 32.5096C259.405 32.0927 259.469 31.6757 259.533 31.2587C259.564 31.0558 259.59 30.8514 259.62 30.6477C259.649 30.4464 259.719 30.2123 259.691 30.0102C259.679 29.9136 259.55 29.9104 259.512 29.9903C259.428 30.166 259.424 30.4 259.392 30.5917C259.356 30.805 259.316 31.0175 259.282 31.2308C259.216 31.6477 259.15 32.0639 259.082 32.4808C259.014 32.897 258.951 33.314 258.887 33.7309C258.841 34.0297 258.803 34.3284 258.767 34.6272C258.763 34.6168 258.758 34.6064 258.754 34.596C258.521 32.631 258.238 30.6724 257.956 28.713C257.915 28.4255 257.872 28.1379 257.822 27.8511C257.772 27.566 257.737 27.2792 257.637 27.006C257.607 26.9261 257.479 26.9477 257.473 27.0316C257.456 27.2816 257.492 27.5244 257.52 27.7729C257.548 28.0309 257.58 28.2889 257.615 28.5461C257.683 29.0605 257.76 29.5749 257.833 30.0885C257.98 31.1269 258.135 32.1645 258.289 33.2022C258.31 33.3443 258.334 33.4849 258.357 33.6263C258.019 32.8044 257.676 31.9856 257.307 31.1764C257.252 31.055 257.076 31.1365 257.12 31.2595C257.543 32.4561 258.016 33.6319 258.484 34.8109C258.502 34.858 258.534 34.8844 258.57 34.898C258.573 34.9163 258.576 34.9347 258.58 34.9539C258.581 34.9611 258.584 34.9651 258.586 34.9714C256.425 32.5895 254.214 30.2523 252.023 27.8991C251.712 27.5652 251.399 27.2329 251.086 26.8998C250.781 26.5747 250.482 26.2376 250.144 25.9452C250.051 25.8646 249.934 25.9772 249.962 26.077C249.931 26.1018 249.911 26.1394 249.922 26.1825C250.02 26.5955 250.197 26.9861 250.364 27.3751C250.531 27.7641 250.7 28.1515 250.874 28.5381C251.224 29.3193 251.584 30.0965 251.952 30.8697C252.681 32.397 253.437 33.9131 254.246 35.3996C254.472 35.815 254.701 36.2279 254.932 36.6401C255.024 36.8038 255.118 36.966 255.213 37.1281C255.202 37.1186 255.192 37.1082 255.182 37.0986C255.077 36.9892 254.97 36.8813 254.864 36.7735C254.638 36.545 254.414 36.3142 254.19 36.0842C253.973 35.8597 253.757 35.6344 253.534 35.4148C253.432 35.3133 253.331 35.2095 253.225 35.1112C253.118 35.0114 253.001 34.878 252.857 34.8356C252.827 34.8269 252.786 34.8484 252.795 34.8852C252.826 35.0146 252.926 35.1208 253.009 35.2207C253.111 35.3437 253.219 35.4619 253.326 35.5809C253.54 35.8198 253.761 36.0522 253.979 36.287C254.191 36.5147 254.403 36.7431 254.614 36.9732C254.708 37.0754 254.801 37.1777 254.896 37.2791C254.4 37.0307 253.888 36.8062 253.387 36.5738C252.64 36.2279 251.891 35.8877 251.138 35.5538C249.652 34.8932 248.153 34.2645 246.643 33.6639C246.208 33.4913 245.774 33.3204 245.337 33.1518C245.129 33.0711 244.921 32.9889 244.71 32.9138C244.494 32.8363 244.268 32.7285 244.037 32.7205C243.938 32.7173 243.888 32.8339 243.967 32.8994C244.117 33.0256 244.302 33.0831 244.481 33.159C244.668 33.2381 244.857 33.3124 245.047 33.3875C245.424 33.5368 245.801 33.6878 246.179 33.8404C246.941 34.1487 247.7 34.4666 248.46 34.7829C249.97 35.4116 251.47 36.0626 252.96 36.7375C253.368 36.9221 253.773 37.1082 254.179 37.2959C254.198 37.3047 254.217 37.3135 254.236 37.3223C254.078 37.3191 253.922 37.3143 253.765 37.3143C253.507 37.3143 253.249 37.3183 252.992 37.3254C252.715 37.3334 252.453 37.367 252.18 37.4053C252.085 37.4189 252.085 37.5715 252.184 37.5771C252.447 37.5938 252.705 37.6154 252.969 37.6186C253.233 37.6218 253.496 37.6298 253.759 37.641C254.023 37.6522 254.285 37.6673 254.548 37.6873C254.74 37.7017 254.956 37.7432 255.158 37.7416C255.182 37.752 255.206 37.7632 255.231 37.7736C253.488 38.2073 251.756 38.6818 250.006 39.086C248.157 39.5133 246.298 39.9007 244.431 40.2386C243.9 40.3344 243.368 40.4271 242.836 40.515C242.317 40.6012 241.777 40.6516 241.274 40.8089C241.231 40.8225 241.209 40.8601 241.205 40.9016C241.084 40.9383 241.086 41.1444 241.236 41.1764C243.161 41.5877 245.119 41.8625 247.068 42.1277C248.998 42.3897 250.934 42.6118 252.873 42.7923C253.951 42.8929 255.03 42.98 256.11 43.0559C256.028 43.0631 255.948 43.0822 255.863 43.099C255.706 43.1294 255.548 43.1589 255.391 43.1869C255.086 43.242 254.781 43.2923 254.474 43.3387C253.852 43.4313 253.228 43.5136 252.604 43.5919C252.47 43.6086 252.508 43.7979 252.636 43.7939C253.269 43.774 253.893 43.7205 254.521 43.6366C254.765 43.6038 255.007 43.5663 255.249 43.5272C254.999 43.659 254.749 43.7924 254.499 43.9202C253.834 44.2605 253.167 44.5959 252.498 44.9274C251.177 45.5816 249.854 46.2294 248.521 46.8573C247.768 47.2119 246.988 47.545 246.283 47.9875C246.197 48.0419 246.287 48.1505 246.368 48.1265C247.082 47.9149 247.762 47.581 248.44 47.2718C249.119 46.9611 249.792 46.6376 250.466 46.3133C251.794 45.6743 253.11 45.0113 254.418 44.3315C254.971 44.044 255.539 43.7644 256.083 43.4537C255.985 43.5607 255.887 43.6686 255.788 43.7764C255.573 44.0104 255.366 44.2517 255.153 44.4873C254.946 44.7157 254.738 44.9442 254.531 45.1726C254.317 45.4083 254.128 45.6607 253.919 45.9003C253.852 45.977 253.976 46.0992 254.048 46.0257C254.257 45.8109 254.483 45.616 254.688 45.3979C254.906 45.1663 255.125 44.9338 255.344 44.7022C255.514 44.5217 255.686 44.3443 255.857 44.1654C255.67 44.4609 255.483 44.7573 255.297 45.0544C254.87 45.739 254.449 46.4283 254.035 47.1209C253.199 48.5187 252.382 49.9286 251.595 51.3552C251.371 51.761 251.141 52.1644 250.931 52.5781C250.831 52.7754 250.732 52.9735 250.633 53.1716C250.529 53.3801 250.41 53.5886 250.347 53.813C250.34 53.8202 250.333 53.8274 250.327 53.8346C250.245 53.9281 250.39 54.0646 250.483 53.9856C251.138 53.4304 251.74 52.809 252.345 52.1995C252.941 51.5988 253.53 50.9925 254.118 50.3839C255.308 49.1498 256.476 47.8965 257.625 46.624C257.7 46.5409 257.774 46.4555 257.849 46.3724C257.724 46.5753 257.6 46.7798 257.478 46.9859C257.301 47.2846 257.126 47.5842 256.952 47.8853C256.864 48.0379 256.776 48.1912 256.694 48.347C256.616 48.4924 256.515 48.6521 256.503 48.8183C256.497 48.8942 256.581 48.9389 256.642 48.895C256.769 48.8031 256.849 48.6465 256.931 48.5147C257.028 48.3582 257.118 48.1984 257.21 48.0395C257.389 47.7295 257.569 47.4212 257.751 47.1137C257.988 46.7135 258.227 46.3157 258.457 45.9115C258.364 46.2039 258.274 46.497 258.181 46.7862C257.961 47.4659 257.746 48.1481 257.53 48.8287C257.094 50.2002 256.643 51.5693 256.23 52.9487C256.117 53.3266 256.013 53.7076 255.907 54.0878C255.801 54.4672 255.652 54.8595 255.608 55.2517C255.601 55.3148 255.682 55.3267 255.71 55.2772C255.882 54.9641 255.979 54.6006 256.099 54.2651C256.222 53.9249 256.346 53.5846 256.464 53.2427C256.695 52.5669 256.907 51.884 257.126 51.2042C257.567 49.8343 258.008 48.4636 258.44 47.0905C258.562 46.7015 258.696 46.3109 258.818 45.9171C258.778 46.2502 258.741 46.5841 258.704 46.9196C258.667 47.2695 258.631 47.6201 258.596 47.9708C258.578 48.1457 258.559 48.3206 258.544 48.4964C258.53 48.6569 258.51 48.8255 258.564 48.9804C258.584 49.0387 258.68 49.0515 258.713 48.9972C258.791 48.8654 258.81 48.7104 258.829 48.5595C258.851 48.3845 258.868 48.2096 258.886 48.0347C258.925 47.6744 258.963 47.3134 258.999 46.9531C259.034 46.6017 259.068 46.251 259.098 45.8995C259.118 46.0473 259.138 46.1951 259.158 46.3421C259.235 46.9092 259.318 47.4747 259.401 48.0403C259.57 49.1817 259.739 50.3232 259.91 51.4646C260.255 53.7571 260.6 56.0496 260.945 58.3421C261.101 59.3813 261.229 60.4333 261.444 61.4637C261.429 61.665 261.422 61.8679 261.446 62.066C261.455 62.1371 261.551 62.1515 261.589 62.0988C261.596 62.1267 261.602 62.1555 261.609 62.1842C261.641 62.3065 261.807 62.2793 261.802 62.1539C261.79 61.8927 261.768 61.6315 261.743 61.3711C261.747 61.3391 261.751 61.3064 261.754 61.2744C261.787 60.9789 261.818 60.6825 261.847 60.387C261.906 59.8055 261.958 59.2224 262.005 58.6393C262.099 57.4834 262.169 56.326 262.223 55.1686C262.33 52.8425 262.367 50.5125 262.323 48.184C262.307 47.323 262.275 46.4627 262.239 45.6024C262.3 45.8756 262.361 46.1487 262.424 46.4211C262.501 46.755 262.573 47.0897 262.655 47.4228C262.732 47.7407 262.792 48.1178 262.957 48.4029C262.994 48.4676 263.107 48.4676 263.113 48.379C263.137 48.0523 263.032 47.6912 262.964 47.3733C262.891 47.0282 262.807 46.6847 262.729 46.3405C262.653 46.0066 262.575 45.6727 262.497 45.3388C262.478 45.2597 262.46 45.1806 262.442 45.1016C262.649 45.469 262.863 45.8324 263.072 46.1959C263.443 46.8429 263.82 47.4875 264.196 48.1321C264.942 49.4134 265.687 50.6946 266.433 51.9758C266.851 52.6931 267.247 53.4312 267.749 54.0942C267.825 54.1941 267.983 54.095 267.934 53.9816C267.638 53.297 267.245 52.6612 266.87 52.019C266.494 51.3744 266.118 50.7297 265.741 50.0843C264.995 48.8039 264.252 47.5195 263.498 46.243C263.272 45.8604 263.05 45.4722 262.822 45.088C262.859 45.1239 262.898 45.1599 262.934 45.1966C263.163 45.4227 263.39 45.6503 263.616 45.8788C263.836 46.1008 264.053 46.3253 264.268 46.5514C264.468 46.7614 264.678 47.0266 264.947 47.1456C265.011 47.1736 265.063 47.1041 265.042 47.0466C264.944 46.7694 264.692 46.5442 264.492 46.3365C264.27 46.104 264.045 45.874 263.818 45.6463C263.669 45.4969 263.518 45.3508 263.367 45.2038C263.482 45.2797 263.597 45.3564 263.713 45.4323C264.405 45.89 265.098 46.3461 265.791 46.803C267.194 47.728 268.607 48.6402 270.015 49.5572C270.415 49.8176 270.815 50.078 271.215 50.3376C271.606 50.5908 271.993 50.8927 272.415 51.09C272.559 51.1571 272.664 51.0197 272.644 50.8951C272.796 50.9191 272.955 50.7489 272.824 50.6123C270.465 48.1441 268.3 45.493 266.348 42.6908C266.027 42.2292 265.714 41.7603 265.4 41.2938C265.476 41.3633 265.553 41.4328 265.629 41.5023C265.872 41.7267 266.12 41.948 266.366 42.17C266.612 42.3921 266.855 42.6182 267.105 42.8354C267.23 42.9441 267.355 43.0519 267.482 43.1573C267.596 43.2516 267.712 43.3698 267.856 43.4153C267.92 43.4361 267.988 43.3762 267.959 43.3091C267.9 43.1709 267.773 43.0703 267.668 42.9656C267.557 42.8554 267.442 42.7476 267.328 42.6397C267.087 42.4121 266.837 42.1932 266.591 41.9711C266.345 41.7491 266.101 41.5254 265.853 41.305C265.812 41.2682 265.77 41.2299 265.729 41.1923C266.059 41.3441 266.389 41.4943 266.721 41.6428C267.408 41.952 268.099 42.2507 268.791 42.5463C270.176 43.1366 271.569 43.7117 272.974 44.2533C273.373 44.4066 273.772 44.5592 274.173 44.707C274.565 44.8515 274.956 45.0057 275.367 45.0824C275.46 45.1 275.522 44.953 275.437 44.9035C275.12 44.7197 274.78 44.5895 274.438 44.4561C274.087 44.3188 273.736 44.1814 273.387 44.044C272.686 43.7684 271.985 43.4912 271.287 43.2085C269.91 42.6509 268.544 42.0678 267.182 41.4743C266.789 41.3042 266.399 41.1324 266.008 40.9591C265.804 40.868 265.598 40.769 265.389 40.6787C265.514 40.6683 265.636 40.6516 265.744 40.6444C266.029 40.6244 266.315 40.61 266.6 40.5924C266.885 40.5749 267.17 40.5661 267.456 40.5453C267.733 40.5254 268.057 40.5413 268.321 40.4503C268.381 40.4295 268.378 40.3296 268.318 40.3097C268.054 40.2242 267.724 40.2514 267.449 40.2482C267.17 40.245 266.89 40.2578 266.611 40.2681C266.364 40.2777 266.116 40.2953 265.868 40.3129C268.838 39.5421 271.834 38.8607 274.857 38.3327C275.8 38.1674 276.746 38.0164 277.694 37.8782C277.794 37.8638 277.842 37.7919 277.85 37.7144C277.863 37.7129 277.876 37.7129 277.889 37.7121C278.01 37.7041 277.995 37.5363 277.888 37.5179ZM262.902 35.0282C263.144 34.7574 263.387 34.4866 263.629 34.2158C264.121 33.667 264.61 33.1159 265.101 32.5655C266.081 31.4648 267.07 30.3721 268.032 29.2562C268.394 28.8368 268.746 28.4103 269.092 27.9797C267.67 30.4839 266.242 32.9865 264.826 35.4955C264.611 35.8749 264.397 36.2551 264.183 36.6353C264.105 36.7727 264.034 36.9117 263.961 37.0507C263.55 36.4556 262.996 35.9619 262.364 35.6049C262.554 35.4252 262.728 35.2223 262.902 35.0282ZM259.409 34.5625C259.475 34.3077 259.536 34.0521 259.6 33.7972C259.723 33.3044 259.843 32.8108 259.964 32.3171C260.207 31.3202 260.452 30.3226 260.696 29.3257C261.179 27.3519 261.663 25.3781 262.144 23.4035C262.234 23.0329 262.324 22.6631 262.414 22.2924C262.327 23.5162 262.276 24.7439 262.219 25.9668C262.125 27.967 262.064 29.9679 262.045 31.9696C262.036 32.9921 262.037 34.0137 262.045 35.0361C262.03 35.0969 262.015 35.1568 262.001 35.2175C261.99 35.259 262.014 35.2909 262.047 35.3069C262.047 35.3165 262.047 35.3253 262.047 35.3341C262.035 35.3661 262.024 35.3988 262.012 35.4307C261.239 35.0705 260.378 34.9027 259.528 34.9946C259.44 35.0042 259.356 35.0226 259.271 35.0409C259.327 34.8852 259.367 34.7238 259.409 34.5625ZM255.292 36.6153C255.094 36.2527 254.899 35.8885 254.705 35.5234C254.309 34.7758 253.915 34.0265 253.531 33.2724C252.764 31.7635 252.031 30.2371 251.335 28.6946C251.141 28.2641 250.949 27.8328 250.758 27.3998C250.649 27.153 250.545 26.903 250.43 26.6578C250.552 26.792 250.675 26.9245 250.796 27.0579C251.061 27.3487 251.327 27.6411 251.593 27.9302C252.14 28.5253 252.688 29.1204 253.236 29.7147C254.317 30.8897 255.4 32.0631 256.484 33.2349C257.094 33.8939 257.7 34.5561 258.317 35.2087C257.228 35.6193 256.313 36.4508 255.757 37.4756C255.706 37.3782 255.652 37.2823 255.599 37.1857C255.496 36.9964 255.395 36.8054 255.292 36.6153ZM244.525 41.4016C243.652 41.269 242.78 41.1284 241.907 40.9982C242.177 40.9623 242.445 40.9128 242.712 40.8696C243.185 40.793 243.658 40.7123 244.13 40.6292C245.075 40.4631 246.017 40.2841 246.957 40.094C248.817 39.717 250.669 39.2944 252.505 38.812C253.521 38.5444 254.538 38.2736 255.536 37.9477C255.334 38.4349 255.206 38.9518 255.18 39.4805C255.123 40.6436 255.526 41.7986 256.238 42.71C256.226 42.7068 256.216 42.7012 256.202 42.6996C252.294 42.4248 248.398 41.9919 244.525 41.4016ZM252.311 51.7762C251.869 52.2291 251.417 52.6748 250.979 53.1333C251.029 53.0422 251.077 52.952 251.129 52.8657C251.335 52.5142 251.528 52.1564 251.727 51.8009C252.123 51.0908 252.524 50.3839 252.93 49.6786C253.745 48.2615 254.584 46.8581 255.44 45.465C255.682 45.0696 255.927 44.675 256.174 44.2812C256.375 43.9601 256.603 43.6398 256.782 43.3027C257.152 43.6454 257.573 43.9329 258.035 44.143C258.357 44.29 258.697 44.3938 259.044 44.4593C256.873 46.9651 254.626 49.4054 252.311 51.7762ZM258.775 44.036C257.032 43.5511 255.716 41.9152 255.55 40.122C255.382 38.304 256.503 36.5059 258.134 35.7319C258.339 35.6344 258.552 35.5545 258.77 35.4898C258.839 35.4691 258.876 35.4004 258.885 35.3293C258.892 35.3301 258.898 35.3317 258.905 35.3309C258.956 35.3261 259.006 35.3221 259.056 35.3181C259.083 35.3277 259.11 35.3261 259.135 35.3117C259.959 35.2462 260.767 35.287 261.552 35.5889C261.689 35.6416 261.823 35.7023 261.954 35.7678C261.975 35.7934 262.006 35.8094 262.037 35.8102C262.646 36.1257 263.188 36.5698 263.597 37.1242C263.621 37.1441 263.641 37.1673 263.657 37.1969C263.66 37.2032 263.663 37.2104 263.666 37.2176C263.703 37.2719 263.738 37.327 263.772 37.3829C263.772 37.3917 263.772 37.4005 263.774 37.4093C263.772 37.4133 263.77 37.4173 263.768 37.4205C263.82 37.5116 263.865 37.6066 263.903 37.7041C263.913 37.6897 263.922 37.6753 263.931 37.6601C264.701 39.1411 264.558 41.0677 263.564 42.4105C262.5 43.8475 260.494 44.5145 258.775 44.036ZM261.964 51.2825C261.947 53.5926 261.851 55.8994 261.7 58.2039C261.662 58.7974 261.616 59.3901 261.569 59.9836C261.505 59.5618 261.44 59.1401 261.377 58.7183C261.206 57.5769 261.035 56.4354 260.864 55.2948C260.521 53.0023 260.178 50.709 259.829 48.4173C259.732 47.7799 259.639 47.1425 259.533 46.5066C259.441 45.9451 259.358 45.3787 259.231 44.8228C259.32 44.7213 259.41 44.6223 259.499 44.5208C260.293 44.5903 261.107 44.4633 261.847 44.1598C261.85 44.163 261.854 44.1654 261.858 44.1686C261.823 44.2053 261.8 44.2556 261.803 44.318C261.929 46.6368 261.981 48.9597 261.964 51.2825ZM265.888 42.5942C266.372 43.3083 266.872 44.012 267.384 44.7062C268.399 46.0785 269.471 47.4092 270.591 48.6977C271.136 49.3247 271.696 49.939 272.265 50.5452C272.025 50.3823 271.769 50.2345 271.531 50.0796C271.183 49.8535 270.834 49.6275 270.486 49.4022C269.78 48.9461 269.074 48.49 268.368 48.0331C266.972 47.1313 265.575 46.2334 264.174 45.3412C263.772 45.0848 263.368 44.8284 262.966 44.572C262.684 44.393 262.405 44.1997 262.109 44.044C262.581 43.8179 263.017 43.5176 263.388 43.1485C264.06 42.4808 264.491 41.6125 264.671 40.6931C265.044 41.3465 265.464 41.9719 265.888 42.5942ZM267.608 39.5341C266.687 39.7737 265.777 40.0397 264.865 40.3153C264.821 40.3289 264.8 40.3632 264.793 40.4016C264.772 40.3712 264.751 40.3408 264.729 40.3105C264.836 39.4015 264.7 38.4621 264.299 37.6314C264.264 37.5595 264.225 37.49 264.185 37.4205C264.28 37.3862 264.375 37.3502 264.469 37.3159C264.516 37.3191 264.563 37.323 264.61 37.3254C264.838 37.3366 265.066 37.343 265.294 37.3518C265.75 37.3694 266.205 37.3869 266.662 37.4045C267.574 37.4397 268.486 37.47 269.397 37.502C271.211 37.5651 273.025 37.6362 274.839 37.6865C275.288 37.6993 275.737 37.7136 276.185 37.728C273.302 38.2017 270.437 38.7984 267.608 39.5341Z" fill="#C49362" fill-opacity="0.3"/>
<path d="M272.531 14.9098C272.503 14.7477 272.474 14.5847 272.446 14.4226C272.391 14.1079 272.337 13.7931 272.282 13.4784C272.227 13.1637 272.17 12.849 272.114 12.5343C272.057 12.218 272.021 11.8888 271.913 11.5853C271.864 11.4479 271.635 11.4727 271.612 11.6109C271.351 11.6628 271.105 11.793 270.866 11.9048C270.6 12.0286 270.333 12.1524 270.068 12.2779L268.582 12.9832C268.556 12.984 268.533 12.9936 268.517 13.0135L268.476 13.0335C268.365 13.0862 268.362 13.2076 268.415 13.2867C268.375 13.476 268.371 13.6853 268.349 13.8634C268.313 14.1717 268.283 14.4809 268.254 14.7892L268.079 16.5809C268.021 17.1784 267.965 17.7759 267.909 18.3733L267.821 19.3007C267.808 19.4453 267.794 19.5891 267.781 19.7337C267.77 19.8415 267.755 19.9557 267.758 20.0668L267.758 20.0683C267.737 20.1067 267.746 20.1434 267.77 20.1698C267.772 20.1834 267.772 20.1969 267.775 20.2105C267.809 20.3527 267.998 20.3815 268.061 20.2425C268.079 20.2017 268.092 20.1594 268.103 20.1155C268.88 19.4461 269.603 18.7192 270.315 17.9803C270.685 17.5969 271.051 17.2087 271.41 16.8157C271.596 16.6112 271.782 16.4059 271.965 16.1999C272.146 15.9954 272.349 15.7957 272.493 15.5632C272.507 15.5409 272.512 15.5169 272.513 15.4937C272.545 15.4658 272.572 15.429 272.581 15.3883C272.616 15.2341 272.557 15.0616 272.531 14.9098ZM270.199 12.5742C270.463 12.4464 270.726 12.3154 270.989 12.1852C271.2 12.0814 271.426 11.9815 271.618 11.8409C271.64 12.0933 271.693 12.3442 271.735 12.5926C271.789 12.9177 271.843 13.2436 271.899 13.5687C271.955 13.8938 272.011 14.2189 272.067 14.544C272.095 14.7061 272.123 14.8691 272.151 15.032C272.155 15.0536 272.158 15.0744 272.161 15.0952C272.094 15.0784 272.027 15.0632 271.963 15.0488C271.809 15.0137 271.653 14.9873 271.497 14.9682C271.346 14.949 271.192 14.9338 271.04 14.9346C270.945 14.9354 270.788 14.9218 270.68 14.9673C270.608 14.8923 270.517 14.8355 270.433 14.7732C270.342 14.7053 270.253 14.6358 270.165 14.564C269.994 14.425 269.829 14.2788 269.671 14.1254C269.381 13.8427 269.099 13.5447 268.839 13.2324C269.293 13.0135 269.746 12.7939 270.199 12.5742ZM268.19 19.2887L268.272 18.4141C268.328 17.8166 268.384 17.2191 268.437 16.6208L268.599 14.8275C268.627 14.5184 268.656 14.2093 268.678 13.8994C268.687 13.7708 268.695 13.643 268.702 13.5144C268.917 13.8251 269.151 14.1166 269.422 14.3842C269.581 14.5416 269.746 14.6942 269.917 14.8387C270.003 14.9114 270.091 14.9833 270.18 15.0528C270.248 15.1055 270.318 15.1654 270.393 15.2126C270.385 15.2294 270.377 15.2453 270.369 15.2629C270.315 15.3707 270.262 15.4786 270.208 15.5864C270.1 15.8013 269.992 16.0161 269.881 16.2302C269.656 16.6671 269.426 17.1009 269.19 17.5322C268.865 18.1233 268.523 18.7032 268.19 19.2887ZM271.741 15.9586C271.558 16.1655 271.374 16.3716 271.188 16.5761C270.83 16.9707 270.468 17.3613 270.1 17.7471C269.544 18.3326 268.972 18.9037 268.407 19.4796C268.783 18.8925 269.129 18.2855 269.469 17.6768C269.704 17.2558 269.934 16.8325 270.159 16.4059C270.27 16.1927 270.382 15.9786 270.49 15.7637C270.566 15.6136 270.687 15.4394 270.738 15.2653C270.83 15.286 270.941 15.2821 271.016 15.2885C271.163 15.3012 271.309 15.3124 271.454 15.3332C271.6 15.354 271.745 15.3811 271.888 15.4147C271.981 15.4362 272.073 15.4634 272.165 15.4882C272.017 15.6375 271.881 15.8013 271.741 15.9586Z" fill="#C49362" fill-opacity="0.3"/>
<path d="M254.013 68.9954C254.045 69.1575 254.078 69.3189 254.11 69.481C254.172 69.7942 254.234 70.1081 254.297 70.4212C254.359 70.7343 254.424 71.0474 254.487 71.3606C254.551 71.6753 254.596 72.0036 254.711 72.3047C254.763 72.4405 254.991 72.4109 255.011 72.272C255.272 72.2137 255.515 72.0779 255.751 71.9605C256.014 71.8302 256.277 71.7001 256.54 71.5683L258.008 70.8278C258.034 70.8262 258.057 70.8166 258.072 70.7958L258.113 70.7751C258.223 70.7199 258.223 70.5985 258.168 70.5202C258.204 70.3293 258.203 70.1209 258.22 69.9419C258.25 69.6328 258.271 69.3237 258.294 69.0138L258.425 67.2181C258.469 66.6198 258.511 66.0207 258.552 65.4224L258.617 64.4934C258.627 64.3489 258.637 64.2043 258.647 64.0597C258.655 63.9511 258.668 63.8369 258.663 63.7266L258.663 63.725C258.683 63.6859 258.673 63.6499 258.649 63.6236C258.647 63.61 258.646 63.5964 258.643 63.5829C258.604 63.4415 258.416 63.4167 258.356 63.5581C258.338 63.5988 258.326 63.642 258.318 63.6859C257.556 64.3736 256.851 65.1181 256.157 65.8738C255.796 66.266 255.44 66.6622 255.09 67.0647C254.908 67.2732 254.729 67.4833 254.55 67.6942C254.373 67.9027 254.175 68.1071 254.037 68.3436C254.023 68.3667 254.019 68.3907 254.019 68.4139C253.987 68.4426 253.962 68.4802 253.953 68.5209C253.92 68.6735 253.983 68.8444 254.013 68.9954ZM256.401 71.2743C256.14 71.4085 255.88 71.5459 255.619 71.6817C255.411 71.7903 255.187 71.8957 254.999 72.0403C254.971 71.7887 254.912 71.5395 254.864 71.2911C254.801 70.9668 254.74 70.6432 254.676 70.3189C254.612 69.9954 254.548 69.672 254.485 69.3476C254.453 69.1855 254.421 69.0241 254.389 68.862C254.385 68.8412 254.381 68.8204 254.377 68.7989C254.444 68.8141 254.512 68.8276 254.576 68.8404C254.731 68.8716 254.888 68.8939 255.045 68.9099C255.196 68.9251 255.35 68.9371 255.502 68.9323C255.596 68.9299 255.754 68.9387 255.861 68.8915C255.935 68.965 256.027 69.0193 256.112 69.08C256.204 69.1455 256.295 69.2134 256.385 69.2829C256.558 69.4179 256.727 69.5601 256.889 69.7095C257.186 69.9851 257.475 70.2758 257.742 70.5826C257.296 70.8142 256.849 71.0442 256.401 71.2743ZM258.249 64.5142L258.187 65.3913C258.146 65.9904 258.104 66.5887 258.064 67.1877L257.945 68.9842C257.925 69.2941 257.903 69.604 257.889 69.914C257.884 70.0426 257.878 70.1712 257.875 70.2998C257.652 69.9946 257.412 69.7087 257.135 69.4467C256.972 69.2933 256.804 69.1447 256.629 69.0042C256.541 68.9331 256.451 68.8644 256.361 68.7965C256.291 68.7454 256.22 68.6871 256.144 68.6415C256.151 68.6248 256.159 68.608 256.167 68.5912C256.218 68.4818 256.269 68.3731 256.32 68.2637C256.423 68.0464 256.527 67.8292 256.631 67.6119C256.845 67.1694 257.066 66.73 257.292 66.2939C257.602 65.6956 257.93 65.1077 258.249 64.5142ZM254.778 67.9282C254.956 67.7173 255.136 67.5073 255.317 67.298C255.666 66.8954 256.017 66.496 256.376 66.1014C256.918 65.5031 257.476 64.9184 258.027 64.3289C257.664 64.9248 257.333 65.5398 257.008 66.1565C256.782 66.5823 256.563 67.0112 256.349 67.4434C256.242 67.659 256.136 67.8755 256.032 68.0936C255.96 68.2453 255.844 68.4226 255.797 68.5976C255.703 68.5784 255.593 68.5856 255.518 68.5808C255.371 68.5712 255.225 68.564 255.078 68.5465C254.932 68.5289 254.786 68.5049 254.642 68.4754C254.549 68.4562 254.456 68.4314 254.364 68.4083C254.51 68.2565 254.642 68.0896 254.778 67.9282Z" fill="#C49362" fill-opacity="0.3"/>
<path d="M261.641 69.6647C261.735 69.7246 261.83 69.7845 261.925 69.8444C262.108 69.961 262.291 70.0768 262.474 70.1935C262.657 70.3101 262.842 70.4243 263.025 70.5401C263.21 70.6559 263.392 70.7878 263.594 70.8724C263.685 70.9108 263.778 70.7846 263.719 70.7095C263.812 70.5545 263.859 70.3716 263.912 70.1998C263.971 70.0097 264.031 69.8196 264.089 69.6287L264.413 68.5607C264.424 68.5472 264.43 68.5312 264.427 68.5144L264.436 68.4849C264.46 68.405 264.401 68.3483 264.337 68.3387C264.26 68.2317 264.157 68.1342 264.077 68.0424C263.939 67.8834 263.798 67.7276 263.657 67.5711L262.836 66.6653C262.563 66.3633 262.288 66.0622 262.014 65.761L261.588 65.2937C261.522 65.2211 261.456 65.1484 261.39 65.0757C261.34 65.0214 261.29 64.9615 261.233 64.9119V64.9111C261.223 64.8832 261.2 64.8712 261.176 64.8704C261.168 64.8656 261.161 64.8592 261.153 64.8544C261.066 64.8073 260.965 64.888 261.006 64.983C261.018 65.011 261.033 65.0365 261.051 65.0621C261.033 65.7586 261.068 66.4536 261.113 67.1485C261.137 67.5096 261.164 67.8706 261.198 68.2309C261.215 68.4178 261.234 68.6039 261.254 68.7908C261.274 68.9753 261.281 69.1686 261.333 69.3468C261.338 69.3643 261.347 69.3771 261.358 69.3891C261.358 69.4186 261.364 69.4482 261.38 69.4714C261.44 69.5592 261.553 69.6087 261.641 69.6647ZM263.879 69.5592C263.823 69.7509 263.768 69.9426 263.713 70.1343C263.669 70.2877 263.616 70.4467 263.599 70.6072C263.462 70.5034 263.312 70.4155 263.168 70.3228C262.979 70.2014 262.791 70.08 262.603 69.9594C262.414 69.8388 262.225 69.719 262.037 69.5984C261.942 69.5385 261.848 69.4777 261.753 69.4178C261.741 69.4098 261.728 69.4019 261.716 69.3939C261.755 69.3683 261.794 69.3412 261.83 69.3156C261.918 69.2541 262.002 69.1878 262.084 69.1183C262.162 69.0512 262.239 68.9809 262.309 68.9042C262.351 68.8571 262.43 68.7836 262.457 68.7093C262.528 68.7069 262.597 68.687 262.668 68.6742C262.743 68.6598 262.819 68.647 262.894 68.635C263.042 68.6127 263.191 68.5967 263.34 68.5871C263.615 68.5695 263.893 68.5647 264.169 68.5767C264.073 68.9042 263.976 69.2317 263.879 69.5592ZM261.425 65.4846L261.826 65.9256C262.101 66.2267 262.376 66.527 262.652 66.8274L263.478 67.7276C263.621 67.8826 263.763 68.0383 263.909 68.1909C263.97 68.254 264.03 68.3171 264.092 68.3786C263.838 68.3451 263.585 68.3291 263.326 68.3427C263.174 68.3507 263.022 68.3635 262.871 68.3834C262.795 68.3938 262.72 68.405 262.644 68.4186C262.586 68.4289 262.524 68.4361 262.466 68.4521C262.462 68.4409 262.457 68.429 262.452 68.417C262.422 68.3411 262.392 68.2644 262.363 68.1885C262.304 68.0359 262.247 67.8834 262.189 67.73C262.073 67.4177 261.96 67.1038 261.851 66.7883C261.702 66.3561 261.566 65.9192 261.425 65.4846ZM261.475 68.7892C261.454 68.6031 261.436 68.4162 261.418 68.2292C261.383 67.869 261.352 67.5096 261.326 67.1485C261.286 66.6013 261.26 66.0542 261.228 65.507C261.351 65.9639 261.498 66.4152 261.648 66.8641C261.752 67.1741 261.86 67.4832 261.972 67.7907C262.028 67.9441 262.085 68.0975 262.143 68.25C262.184 68.3571 262.216 68.4968 262.28 68.6023C262.227 68.639 262.18 68.6965 262.141 68.7317C262.068 68.7996 261.995 68.8675 261.918 68.9314C261.842 68.9953 261.762 69.0552 261.68 69.1119C261.626 69.1487 261.571 69.183 261.516 69.2173C261.511 69.0744 261.491 68.9306 261.475 68.7892Z" fill="#C49362" fill-opacity="0.3"/>
<path d="M266.409 14.1719C266.322 14.1016 266.234 14.0321 266.147 13.9618C265.978 13.826 265.808 13.691 265.639 13.5552C265.47 13.4195 265.3 13.2853 265.129 13.1511C264.958 13.0153 264.792 12.8651 264.601 12.7589C264.514 12.7109 264.409 12.826 264.459 12.9074C264.35 13.0512 264.283 13.2285 264.212 13.3931C264.132 13.576 264.052 13.7581 263.974 13.9419L263.535 14.9683C263.522 14.9803 263.515 14.9955 263.516 15.013L263.504 15.0418C263.471 15.1185 263.524 15.1816 263.587 15.1983C263.652 15.3126 263.744 15.4212 263.813 15.521C263.933 15.6944 264.057 15.8645 264.18 16.0355L264.898 17.0251C265.137 17.355 265.377 17.6841 265.617 18.0132L265.99 18.5237C266.047 18.6035 266.106 18.6826 266.164 18.7617C266.208 18.8216 266.251 18.8863 266.302 18.9414C266.308 18.9702 266.33 18.9853 266.354 18.9885C266.361 18.9941 266.368 19.0013 266.376 19.0061C266.457 19.0628 266.566 18.9933 266.535 18.8943C266.526 18.8655 266.514 18.8376 266.499 18.8112C266.594 18.1211 266.634 17.4269 266.665 16.7304C266.681 16.3693 266.692 16.0075 266.697 15.6457C266.701 15.4579 266.702 15.2702 266.702 15.0833C266.703 14.898 266.716 14.7055 266.685 14.5218C266.681 14.5042 266.673 14.4898 266.663 14.477C266.667 14.4483 266.664 14.4179 266.65 14.3932C266.598 14.2989 266.491 14.2374 266.409 14.1719ZM264.172 14.0329C264.249 13.8492 264.324 13.6639 264.4 13.4794C264.461 13.3316 264.53 13.1798 264.565 13.0217C264.69 13.1399 264.83 13.2437 264.963 13.3516C265.137 13.4921 265.311 13.6335 265.486 13.7741C265.661 13.9147 265.835 14.0545 266.01 14.1951C266.097 14.2654 266.185 14.3349 266.272 14.4051C266.283 14.4139 266.294 14.4235 266.305 14.4323C266.264 14.4539 266.223 14.4762 266.184 14.4978C266.09 14.5489 265.999 14.6064 265.911 14.6663C265.825 14.7247 265.74 14.7854 265.664 14.8549C265.616 14.8972 265.53 14.9619 265.496 15.033C265.425 15.0274 265.354 15.0394 265.283 15.045C265.206 15.0514 265.129 15.0561 265.053 15.0585C264.903 15.0641 264.754 15.0649 264.605 15.0578C264.33 15.045 264.052 15.0202 263.779 14.9779C263.91 14.6632 264.041 14.3484 264.172 14.0329ZM266.169 18.3511L265.818 17.8695C265.578 17.5404 265.337 17.2113 265.096 16.883L264.372 15.8981C264.248 15.7279 264.123 15.5578 263.994 15.3908C263.941 15.3214 263.888 15.2527 263.833 15.184C264.082 15.2447 264.332 15.2886 264.59 15.303C264.742 15.3118 264.895 15.315 265.046 15.3118C265.123 15.3102 265.2 15.307 265.276 15.3022C265.335 15.2982 265.397 15.2974 265.456 15.2878C265.459 15.2998 265.463 15.3118 265.467 15.3237C265.488 15.4028 265.509 15.4819 265.53 15.5602C265.572 15.7183 265.613 15.8765 265.653 16.0347C265.736 16.3582 265.813 16.6825 265.887 17.0076C265.989 17.4541 266.076 17.903 266.169 18.3511ZM266.479 15.0601C266.479 15.2479 266.477 15.4356 266.475 15.6225C266.47 15.9843 266.462 16.3454 266.448 16.7072C266.428 17.2552 266.395 17.8024 266.366 18.3495C266.293 17.8814 266.197 17.4174 266.096 16.9549C266.026 16.6353 265.953 16.3166 265.875 15.9987C265.836 15.8397 265.796 15.6816 265.756 15.5234C265.727 15.4132 265.709 15.2702 265.657 15.1584C265.714 15.1272 265.768 15.0753 265.809 15.045C265.889 14.9859 265.969 14.9252 266.053 14.8708C266.136 14.8157 266.222 14.7646 266.31 14.7175C266.367 14.6863 266.426 14.6592 266.484 14.6304C266.475 14.7734 266.479 14.918 266.479 15.0601Z" fill="#C49362" fill-opacity="0.3"/>
<path d="M307.038 62.2703C307.425 56.698 307.819 48.9602 308.15 40.4828C308.734 25.4945 309.105 8.49969 308.64 6.5275C308.378 5.4172 306.587 4.13116 294.108 5.77984C287.594 6.64092 281.099 7.93176 280.629 8.02601C280.221 4.80694 279.897 2.64385 279.716 2.1534C279.473 1.49281 278.969 0.11891 254.304 6.84942C242.253 10.138 230.173 13.8148 230.053 13.8515L230.044 13.8547C229.756 13.9522 229.53 14.171 229.373 14.5057C228.969 15.3684 229.047 17.216 229.483 19.7601C229.423 19.7769 229.362 19.7952 229.296 19.8136C218.747 22.829 205.789 27.1751 203.966 30.7624C203.704 31.2769 203.659 31.7769 203.832 32.2466C204.741 34.722 211.863 49.3644 218.879 62.9245C233.008 90.2355 234.746 90.4304 235.317 90.4943C238.617 90.8642 261.322 83.9955 262.326 82.8876C262.47 82.7294 262.462 82.5704 262.445 82.4898C262.28 81.7197 261.159 77.3057 261.111 77.118L260.744 77.2114C262.951 76.6363 265.32 76.0093 267.686 75.3631C270.047 74.7192 272.104 74.1401 273.902 73.6177C274.013 74.9557 274.287 77.5725 274.8 78.4432C274.914 78.6365 275.132 78.6972 275.286 78.7259C275.322 78.7323 275.361 78.7379 275.404 78.7427C278.739 79.1165 303.914 74.2687 305.631 72.898C305.878 72.6999 306.34 72.3309 307.038 62.2703ZM261.67 82.4586C259.676 83.7287 238.326 90.0782 235.402 89.7499C234.429 89.5582 229.736 82.2885 219.482 62.4612C212.504 48.9698 205.431 34.4288 204.535 31.9878C204.436 31.717 204.468 31.427 204.634 31.1003C205.402 29.5882 209.655 26.2046 229.502 20.5325C229.544 20.5205 229.579 20.5101 229.617 20.4997C229.859 21.7874 230.183 23.2316 230.572 24.7988C230.073 24.9026 229.579 25.0568 229.088 25.1902C228.569 25.3316 228.052 25.4769 227.534 25.6239C226.513 25.9139 225.495 26.2126 224.479 26.5193C222.419 27.14 220.367 27.7862 218.326 28.4668C217.758 28.6561 217.192 28.8478 216.626 29.0459C216.349 29.1433 216.072 29.2416 215.796 29.3438C215.503 29.4524 215.199 29.5467 214.921 29.6905C214.802 29.752 214.846 29.9541 214.991 29.9261C215.243 29.8774 215.483 29.7888 215.727 29.7113C215.989 29.6282 216.251 29.5451 216.511 29.4597C217.022 29.2911 217.533 29.1226 218.044 28.9532C219.055 28.6185 220.069 28.2894 221.084 27.9651C223.138 27.3101 225.201 26.6863 227.27 26.0816C227.845 25.9139 228.421 25.7493 228.996 25.5832C229.545 25.425 230.107 25.2892 230.649 25.1055C235.24 43.3911 248.576 77.9327 249.301 79.8035L249.406 80.0759L249.69 80.0072C249.74 79.9944 252.597 79.2986 256.674 78.2594C256.875 78.5853 256.829 78.9959 256.652 79.3322C256.424 79.7651 255.968 80.0176 255.531 80.1925C255.007 80.4018 254.458 80.5503 253.921 80.7181C253.316 80.9074 252.711 81.0967 252.105 81.2868C249.705 82.0385 247.304 82.7893 244.908 83.5545C243.554 83.9867 242.184 84.3853 240.859 84.8973C240.748 84.9404 240.8 85.1281 240.919 85.0994C242.203 84.7894 243.463 84.3717 244.726 83.9859C245.98 83.6033 247.232 83.2159 248.484 82.8269C249.755 82.4323 251.026 82.0385 252.297 81.6423C252.923 81.4474 253.548 81.2524 254.173 81.0575C254.736 80.8826 255.319 80.7349 255.856 80.4912C256.368 80.2596 256.839 79.9105 257.064 79.3809C257.228 78.9959 257.25 78.5334 257.056 78.162C258.101 77.8952 259.218 77.6076 260.386 77.3041C260.405 77.3808 261.41 81.3363 261.67 82.4586ZM273.847 72.8525C273.847 72.8733 273.85 72.9028 273.852 72.9372C266.465 75.0859 257.031 77.5325 249.816 79.2915C243.332 62.5219 232.617 32.9575 230.228 20.3216C230.258 20.312 230.279 20.3048 230.293 20.2992L230.157 19.9414C229.698 17.3973 229.6 15.5897 229.976 14.7861C230.053 14.6215 230.143 14.5233 230.252 14.4849C230.559 14.3915 242.257 10.8337 254.056 7.60586C276.21 1.54472 278.826 2.08628 279.091 2.38103C280.133 5.21909 286.254 66.491 285.708 68.5982C285.396 69.3299 280.617 70.9594 274.22 72.8285L273.847 72.8525ZM286.562 34.0366C286.566 34.1197 286.703 34.1349 286.726 34.055C286.813 33.7515 286.86 33.4376 286.954 33.134C287.047 32.8281 287.144 32.5246 287.268 32.2282C287.512 31.6411 287.839 31.0923 288.239 30.5979C289.016 29.6362 290.065 28.9269 291.233 28.5251C291.557 28.4132 291.889 28.3294 292.226 28.2695C292.389 28.2407 292.553 28.2135 292.718 28.1936C292.897 28.172 293.082 28.1704 293.258 28.1313C293.264 28.1305 293.268 28.1273 293.274 28.1249C293.268 28.1305 293.262 28.1353 293.258 28.1409L293.256 28.1433C292.664 28.3597 292.107 28.7192 291.615 29.101C291.051 29.5379 290.547 30.0547 290.118 30.6251C289.257 31.7681 288.683 33.134 288.491 34.5535C288.297 35.9889 288.517 37.461 289.146 38.7678C289.779 40.0834 290.783 41.2264 291.994 42.0412C293.35 42.9542 294.989 43.4966 296.633 43.4295C296.607 43.4582 296.581 43.4878 296.556 43.5166C296.527 43.495 296.49 43.483 296.448 43.4902C296.223 43.5293 296.022 43.6108 295.806 43.6859C295.591 43.7602 295.373 43.8225 295.152 43.8736C294.701 43.9782 294.24 44.039 293.778 44.0565C292.856 44.0909 291.94 43.9303 291.055 43.6819C290.904 43.6396 290.817 43.8417 290.964 43.9119C291.839 44.3321 292.822 44.4775 293.787 44.4503C294.267 44.4368 294.746 44.376 295.214 44.2682C295.504 44.2019 295.822 44.1292 296.111 44.0102C296.038 44.0885 295.968 44.1684 295.891 44.2434C295.581 44.5446 295.252 44.8234 294.902 45.0766C294.197 45.5854 293.403 45.9776 292.568 46.2236C290.825 46.7388 288.943 46.5695 287.293 45.8202C286.823 45.607 286.375 45.3466 285.958 45.043C285.537 44.7379 285.164 44.3832 284.778 44.0389C284.727 43.9742 284.674 43.9111 284.628 43.8424C284.569 43.7546 284.507 43.6723 284.437 43.5964C284.18 40.9237 283.915 38.2342 283.655 35.6374C283.561 34.6948 283.465 33.7443 283.367 32.7922C283.535 32.4615 283.677 32.118 283.85 31.7897C284.03 31.447 284.239 31.1195 284.467 30.808C284.933 30.173 285.49 29.6082 286.121 29.1353C287.448 28.1385 289.088 27.6001 290.747 27.5929C291.218 27.5905 291.689 27.6296 292.153 27.7087C292.402 27.7511 292.647 27.811 292.893 27.8717C292.683 27.8765 292.469 27.9052 292.273 27.9332C291.964 27.9771 291.658 28.0514 291.359 28.1409C290.739 28.3254 290.153 28.5962 289.607 28.9428C288.5 29.6482 287.624 30.681 287.078 31.8728C286.921 32.2146 286.788 32.5709 286.699 32.9367C286.613 33.2874 286.539 33.6748 286.562 34.0366ZM305.143 72.3277C304.378 72.8725 298.034 74.3862 290.298 75.8671C281.501 77.5509 276.213 78.2027 275.405 77.9895C275.012 77.1955 274.749 74.7951 274.637 73.4036C275.574 73.1289 276.434 72.8709 277.225 72.6288C277.408 73.2263 277.272 73.8742 277.48 74.47C277.585 74.7688 277.789 75.0132 278.076 75.1498C278.352 75.2808 278.667 75.26 278.884 75.0356C278.986 74.9285 278.833 74.7991 278.724 74.8351C278.518 74.903 278.283 74.8574 278.109 74.7312C277.888 74.5723 277.796 74.3071 277.753 74.0475C277.67 73.5514 277.752 72.9963 277.541 72.5322C286.056 69.9066 286.255 69.1462 286.351 68.7739C286.62 67.7379 285.648 56.2603 284.5 44.2642C284.526 44.301 284.553 44.3385 284.581 44.3744C284.672 44.4879 284.772 44.5909 284.879 44.6876C284.992 44.789 285.108 44.8801 285.253 44.9296C285.26 44.932 285.266 44.932 285.271 44.9328C285.74 45.3522 286.288 45.6996 286.827 45.9824C287.678 46.4297 288.611 46.7237 289.567 46.8395C291.423 47.0647 293.306 46.5831 294.862 45.5558C295.288 45.2755 295.688 44.9527 296.046 44.5893C296.402 44.2267 296.751 43.8353 296.973 43.3736C297.026 43.2625 296.891 43.1962 296.806 43.2466C296.814 43.1387 296.757 43.0245 296.633 43.0261C295.226 43.0485 293.851 42.6962 292.635 41.9845C291.428 41.2776 290.382 40.2695 289.686 39.0522C288.991 37.8388 288.658 36.4546 288.758 35.0575C288.856 33.698 289.322 32.3712 290.071 31.2345C290.496 30.5875 291.011 29.9988 291.603 29.4996C291.899 29.2504 292.214 29.0219 292.545 28.8222C292.836 28.6473 293.14 28.5019 293.444 28.3525C293.48 28.3509 293.516 28.3461 293.552 28.3421C293.624 28.3342 293.695 28.315 293.767 28.2998C293.836 28.2847 293.89 28.2391 293.907 28.1696C293.915 28.1385 293.914 28.1089 293.905 28.0786C293.896 28.045 293.874 28.0059 293.844 27.9875C293.793 27.9563 293.741 27.9252 293.69 27.894C293.685 27.8709 293.672 27.8501 293.648 27.8373C293.263 27.6201 292.854 27.509 292.421 27.4228C291.976 27.3333 291.525 27.283 291.071 27.2694C290.185 27.243 289.3 27.3573 288.45 27.6105C286.846 28.0881 285.425 29.081 284.396 30.3974C284.112 30.7608 283.861 31.1483 283.641 31.5533C283.517 31.7809 283.404 32.0141 283.312 32.2554C282.402 23.345 281.412 14.2477 280.677 8.39825L280.751 8.76488C280.818 8.7513 287.503 7.40776 294.207 6.52192C306.502 4.8972 307.805 6.24635 307.912 6.69845C308.295 8.32397 308.078 22.9664 307.419 40.0339C306.602 61.1584 305.69 71.4514 305.143 72.3277Z" fill="#C49362" fill-opacity="0.3"/>
<path d="M294.477 46.8442C294.279 46.9217 294.106 47.123 293.933 47.2476C293.746 47.3834 293.551 47.508 293.348 47.6207C292.946 47.8427 292.52 48.0192 292.079 48.1494C291.201 48.4098 290.238 48.4897 289.332 48.3491C289.21 48.33 289.194 48.5121 289.312 48.5369C290.273 48.7414 291.247 48.7166 292.194 48.449C292.657 48.318 293.105 48.1343 293.526 47.901C293.739 47.7828 293.946 47.6526 294.144 47.5112C294.328 47.3794 294.564 47.2365 294.672 47.0328C294.735 46.9114 294.584 46.8019 294.477 46.8442Z" fill="#C49362" fill-opacity="0.3"/>
<path d="M293.852 48.5289C293.752 48.5129 293.648 48.5768 293.557 48.6152C293.477 48.6495 293.396 48.6846 293.315 48.719C293.235 48.7533 293.152 48.7845 293.073 48.8236C292.989 48.8652 292.92 48.9251 292.841 48.9722C292.801 48.9962 292.775 49.0361 292.79 49.084C292.803 49.1248 292.847 49.1615 292.894 49.1503C292.98 49.1288 293.068 49.1192 293.153 49.0944C293.246 49.0681 293.336 49.0257 293.426 48.9898C293.51 48.9562 293.595 48.9227 293.68 48.8891C293.772 48.8524 293.884 48.8252 293.945 48.7422C294.006 48.6575 293.952 48.5441 293.852 48.5289Z" fill="#C49362" fill-opacity="0.3"/>
<path d="M293.114 26.4435C292.72 26.2462 292.292 26.1527 291.858 26.0864C291.414 26.0177 290.965 25.9874 290.516 25.9938C290.078 26.0001 289.642 26.0417 289.211 26.1184C288.775 26.1966 288.354 26.3436 287.942 26.501C287.805 26.5529 287.899 26.7446 288.032 26.7039C288.837 26.4586 289.719 26.3436 290.559 26.3444C290.981 26.3444 291.402 26.378 291.819 26.4443C292.233 26.5106 292.639 26.6168 293.053 26.6847C293.201 26.7095 293.234 26.5042 293.114 26.4435Z" fill="#C49362" fill-opacity="0.3"/>
<path d="M291.684 25.426C291.656 25.4092 291.624 25.3884 291.591 25.378C291.557 25.3676 291.523 25.3677 291.488 25.3653C291.428 25.3613 291.369 25.3605 291.309 25.3597C291.189 25.3581 291.069 25.3573 290.949 25.3565C290.894 25.3557 290.837 25.3884 290.833 25.4491C290.829 25.5067 290.867 25.5586 290.925 25.5658C291.044 25.5801 291.162 25.5953 291.28 25.6097C291.339 25.6169 291.398 25.6233 291.458 25.6273C291.492 25.6297 291.529 25.6353 291.562 25.6313C291.596 25.6273 291.632 25.6113 291.664 25.5977C291.728 25.5705 291.751 25.4643 291.684 25.426Z" fill="#C49362" fill-opacity="0.3"/>
<path d="M289.807 36.8588C289.771 36.7087 289.733 36.5601 289.704 36.4083C289.646 36.1104 289.615 35.8076 289.609 35.5041C289.596 34.8994 289.72 34.3243 289.804 33.73C289.817 33.6373 289.694 33.6214 289.656 33.6925C289.363 34.238 289.291 34.9122 289.302 35.5241C289.308 35.8284 289.338 36.1311 289.394 36.4299C289.423 36.5848 289.457 36.7406 289.504 36.8916C289.55 37.0354 289.589 37.1975 289.7 37.3053C289.757 37.3613 289.863 37.3469 289.873 37.255C289.888 37.1176 289.839 36.9914 289.807 36.8588Z" fill="#C49362" fill-opacity="0.3"/>
<path d="M290.322 35.3379C290.312 35.3027 290.303 35.2676 290.296 35.2316C290.282 35.1549 290.27 35.0767 290.266 34.9992C290.258 34.8482 290.27 34.6965 290.314 34.5519C290.343 34.4576 290.211 34.4025 290.171 34.4944C290.1 34.6573 290.059 34.837 290.064 35.0152C290.066 35.099 290.075 35.1821 290.096 35.2636C290.109 35.3099 290.123 35.3554 290.139 35.4002C290.156 35.4457 290.188 35.4793 290.223 35.5104C290.261 35.5432 290.328 35.5128 290.33 35.4641C290.334 35.4202 290.334 35.3794 290.322 35.3379Z" fill="#C49362" fill-opacity="0.3"/>
<path d="M299.751 56.3834C299.738 56.3394 299.701 56.3155 299.659 56.3019C299.682 56.262 299.69 56.2124 299.673 56.1669C299.618 56.0199 299.461 55.9321 299.343 55.8362C299.219 55.7356 299.095 55.6333 298.972 55.5311C298.711 55.3138 298.451 55.0949 298.192 54.8745C297.683 54.4407 297.196 53.9822 296.662 53.5788L296.661 53.5781C296.639 53.4894 296.53 53.4215 296.452 53.4982C296.197 53.7482 296.02 54.0845 295.832 54.3856C295.637 54.7003 295.443 55.0167 295.258 55.337C294.918 55.9233 294.583 56.5128 294.314 57.1342C294.314 57.1342 294.312 57.1342 294.311 57.1342C294.2 57.1366 294.164 57.254 294.243 57.3187C294.239 57.3539 294.25 57.3866 294.275 57.4098C294.267 57.4242 294.262 57.4393 294.262 57.4577C294.259 57.7037 294.332 57.9218 294.411 58.1527C294.494 58.3979 294.581 58.6423 294.668 58.8867C294.841 59.3652 295.022 59.8413 295.214 60.3118C295.599 61.2535 296.014 62.1841 296.476 63.0899C296.736 63.6003 297.017 64.0852 297.324 64.5676C297.348 64.6036 297.382 64.614 297.415 64.6092C297.438 64.618 297.462 64.6244 297.487 64.6228C297.631 64.6172 297.772 64.6052 297.915 64.59C297.983 64.5828 298.05 64.5756 298.119 64.5676C298.201 64.5581 298.282 64.5533 298.361 64.5261C298.415 64.5077 298.444 64.4518 298.453 64.4007C298.458 64.3735 298.452 64.3448 298.44 64.32C298.433 64.3041 298.42 64.2921 298.408 64.2793C298.685 63.2936 298.853 62.272 299.035 61.2647C299.222 60.2303 299.396 59.1935 299.554 58.1535C299.599 57.8579 299.642 57.5623 299.685 57.2668C299.707 57.1142 299.729 56.9609 299.75 56.8075C299.772 56.6581 299.796 56.5295 299.751 56.3834ZM295.546 55.5151C295.731 55.2052 295.915 54.896 296.106 54.5901C296.262 54.3401 296.449 54.0877 296.582 53.8193C297.003 54.2978 297.481 54.7187 297.959 55.1405C298.206 55.3593 298.456 55.5742 298.71 55.7851C298.841 55.8937 298.972 56.0015 299.104 56.1086C299.118 56.1206 299.133 56.1325 299.147 56.1445C299.107 56.1709 299.067 56.1988 299.028 56.2244C298.914 56.2987 298.801 56.3746 298.689 56.4521C298.459 56.611 298.233 56.7748 298.011 56.9433C297.61 57.2468 297.208 57.5592 296.85 57.913C296.765 57.8411 296.65 57.8068 296.548 57.7668C296.44 57.7245 296.331 57.683 296.222 57.643C296.019 57.5687 295.815 57.4984 295.61 57.4321C295.285 57.3275 294.938 57.1981 294.591 57.1526C294.921 56.6142 295.223 56.0583 295.546 55.5151ZM296.249 61.7424C295.836 60.823 295.457 59.8884 295.108 58.9434C295.011 58.6822 294.918 58.4203 294.827 58.1575C294.744 57.917 294.672 57.675 294.536 57.4617C294.849 57.5831 295.188 57.6574 295.503 57.7653C295.707 57.8348 295.91 57.909 296.111 57.9873C296.212 58.0264 296.312 58.0664 296.411 58.1079C296.49 58.1407 296.57 58.1814 296.653 58.2038C296.794 59.2534 296.998 60.2934 297.152 61.3414C297.228 61.8582 297.296 62.3758 297.359 62.8942C297.39 63.153 297.419 63.4134 297.446 63.673C297.46 63.8128 297.475 63.9526 297.488 64.0932C297.496 64.1794 297.5 64.2689 297.516 64.3536C297.5 64.3568 297.484 64.3592 297.468 64.3632C297.067 63.4877 296.644 62.6218 296.249 61.7424ZM299.321 57.1015C299.288 57.3571 299.253 57.6119 299.217 57.8667C299.146 58.3867 299.069 58.9067 298.991 59.4267C298.837 60.4659 298.671 61.5027 298.495 62.5387C298.4 63.1019 298.296 63.6634 298.232 64.2313C298.18 64.2361 298.128 64.2433 298.077 64.2521C298.009 64.2633 297.941 64.2745 297.872 64.2849C297.876 64.0836 297.824 63.8663 297.803 63.6778C297.772 63.4182 297.741 63.1594 297.708 62.9006C297.64 62.3726 297.566 61.8462 297.483 61.3198C297.318 60.2702 297.145 59.2198 296.856 58.1958C296.882 58.1966 296.907 58.1926 296.931 58.1766C297.368 57.8643 297.78 57.5176 298.219 57.2061C298.435 57.0527 298.655 56.9026 298.877 56.758C298.986 56.6877 299.094 56.6182 299.204 56.5487C299.285 56.4968 299.377 56.4497 299.457 56.3897C299.348 56.5966 299.352 56.8754 299.321 57.1015Z" fill="#C49362" fill-opacity="0.3"/>
<path d="M293.448 18.3471C293.437 18.391 293.456 18.431 293.485 18.4637C293.445 18.4861 293.412 18.5244 293.403 18.5724C293.375 18.7265 293.464 18.8831 293.515 19.0261C293.569 19.177 293.622 19.3272 293.675 19.4782C293.787 19.7993 293.896 20.1212 294.004 20.4431C294.216 21.0774 294.396 21.7212 294.645 22.3418L294.646 22.3434C294.619 22.4305 294.677 22.5447 294.784 22.5191C295.131 22.4369 295.457 22.2404 295.772 22.079C296.102 21.9105 296.431 21.7395 296.756 21.5606C297.348 21.2339 297.94 20.9024 298.492 20.5086L298.495 20.5102C298.591 20.5653 298.682 20.4831 298.649 20.3872C298.67 20.3584 298.678 20.3249 298.669 20.2929C298.682 20.285 298.695 20.2746 298.705 20.2586C298.833 20.0485 298.884 19.8248 298.936 19.586C298.991 19.3328 299.043 19.0788 299.095 18.8248C299.194 18.3256 299.285 17.8255 299.363 17.3223C299.52 16.3174 299.643 15.3054 299.716 14.2909C299.757 13.7198 299.766 13.159 299.752 12.5871C299.751 12.5448 299.726 12.5184 299.695 12.5048C299.681 12.4857 299.663 12.4681 299.641 12.4561C299.516 12.3866 299.389 12.3243 299.258 12.2636C299.195 12.2349 299.134 12.2061 299.071 12.1773C298.996 12.143 298.924 12.1055 298.843 12.0887C298.788 12.0775 298.734 12.1095 298.699 12.1486C298.681 12.1694 298.671 12.1973 298.668 12.2245C298.666 12.2421 298.671 12.2588 298.675 12.2764C297.929 12.9777 297.257 13.7653 296.582 14.5338C295.887 15.3229 295.204 16.1217 294.532 16.9309C294.341 17.1609 294.151 17.3918 293.962 17.6226C293.864 17.7424 293.766 17.8623 293.668 17.9821C293.573 18.1011 293.486 18.1993 293.448 18.3471ZM296.602 21.2611C296.284 21.4312 295.966 21.6005 295.645 21.7643C295.383 21.8985 295.092 22.0175 294.839 22.1788C294.726 21.5518 294.534 20.9447 294.343 20.3369C294.244 20.0221 294.14 19.709 294.032 19.3967C293.976 19.2361 293.919 19.0764 293.862 18.9158C293.855 18.8983 293.85 18.8799 293.843 18.8623C293.891 18.8599 293.939 18.8575 293.986 18.8559C294.122 18.8511 294.258 18.8439 294.394 18.836C294.673 18.8184 294.951 18.7952 295.228 18.7657C295.729 18.713 296.233 18.653 296.723 18.534C296.759 18.6395 296.84 18.7273 296.907 18.8152C296.977 18.9079 297.049 18.9989 297.122 19.09C297.257 19.2585 297.395 19.4239 297.537 19.5868C297.761 19.844 297.992 20.134 298.265 20.3521C297.705 20.6428 297.159 20.9631 296.602 21.2611ZM299.214 15.5642C299.093 16.5651 298.936 17.5611 298.747 18.5508C298.695 18.824 298.64 19.0972 298.583 19.3695C298.53 19.6188 298.465 19.8624 298.472 20.1156C298.267 19.8496 298.015 19.6116 297.801 19.356C297.662 19.1906 297.527 19.0229 297.395 18.852C297.329 18.7665 297.264 18.6802 297.2 18.5939C297.149 18.5253 297.102 18.4494 297.043 18.3871C297.463 17.4149 297.825 16.4189 298.234 15.442C298.436 14.9603 298.644 14.481 298.859 14.0049C298.966 13.7669 299.075 13.5297 299.186 13.2932C299.246 13.1662 299.306 13.0384 299.367 12.9122C299.405 12.834 299.448 12.7557 299.477 12.6742C299.492 12.679 299.508 12.6854 299.523 12.691C299.413 13.6479 299.329 14.608 299.214 15.5642ZM294.187 17.9541C294.347 17.7528 294.509 17.5523 294.671 17.3518C295.002 16.9437 295.336 16.5379 295.669 16.1321C296.337 15.3214 297.015 14.5194 297.701 13.723C298.073 13.29 298.452 12.8619 298.8 12.4098C298.847 12.433 298.895 12.4529 298.944 12.4721C299.008 12.4977 299.071 12.5232 299.135 12.5496C299.029 12.7205 298.96 12.9322 298.882 13.1055C298.774 13.3428 298.667 13.5816 298.563 13.8204C298.349 14.3077 298.14 14.7973 297.94 15.2902C297.539 16.2743 297.146 17.264 296.864 18.2896C296.843 18.2752 296.819 18.2656 296.791 18.268C296.255 18.3096 295.723 18.3934 295.186 18.4342C294.922 18.4542 294.657 18.4685 294.391 18.4781C294.261 18.4829 294.133 18.4853 294.003 18.4885C293.907 18.4909 293.803 18.4837 293.704 18.4941C293.903 18.3727 294.044 18.1322 294.187 17.9541Z" fill="#C49362" fill-opacity="0.3"/>
<path d="M239.097 64.9862C238.627 64.9726 238.158 64.9702 237.692 64.8919C237.245 64.8168 236.81 64.6874 236.39 64.5165C235.56 64.1786 234.808 63.677 234.137 63.0859C234.124 63.0675 234.107 63.0523 234.086 63.0419C234.071 63.0284 234.055 63.0156 234.041 63.0028C234.365 62.764 234.644 62.4548 234.888 62.1377C235.175 61.7631 235.417 61.3477 235.612 60.918C236.002 60.0617 236.206 59.1183 236.204 58.1774C236.203 57.913 236.191 57.647 236.155 57.385C236.12 57.1366 236.098 56.8171 235.955 56.6062C235.929 56.5686 235.891 56.5519 235.851 56.5487C235.836 56.5199 235.802 56.5015 235.769 56.5159C235.564 56.6046 235.397 56.8186 235.244 56.9776C235.076 57.1525 234.926 57.3442 234.786 57.5423C234.507 57.9377 234.274 58.3667 234.085 58.8116C233.702 59.7118 233.485 60.6871 233.471 61.6657C233.467 61.9324 233.472 62.2032 233.499 62.4708C232.29 61.1936 231.451 59.6303 230.834 57.9825C230.804 57.901 230.777 57.8187 230.747 57.7373C230.89 57.5831 231.01 57.4034 231.123 57.2308C231.271 57.0064 231.407 56.7747 231.534 56.5375C231.793 56.0518 232.002 55.5406 232.161 55.0142C232.479 53.9582 232.607 52.8543 232.527 51.7536C232.491 51.2464 232.417 50.7232 232.229 50.2479C232.28 50.1297 232.21 50.0146 232.111 49.9843C232.106 49.9739 232.102 49.9635 232.096 49.9531C232.05 49.8669 231.924 49.9028 231.933 50.0011C231.934 50.0123 231.936 50.0243 231.937 50.0354C231.932 50.0418 231.924 50.0442 231.919 50.0514C231.603 50.454 231.357 50.9333 231.138 51.3941C230.915 51.8638 230.73 52.3511 230.585 52.8495C230.291 53.856 230.155 54.8968 230.182 55.9448C230.183 55.9687 230.185 55.9927 230.185 56.0159C229.76 54.5901 229.401 53.1435 228.958 51.7232C228.372 49.8421 227.603 48.0193 226.4 46.4433C225.323 45.0327 223.837 43.7379 222.074 43.3137C221.849 43.2594 221.624 43.2187 221.394 43.1939C221.291 43.1827 221.241 43.3504 221.348 43.3776C222.233 43.6045 223.086 43.9543 223.848 44.4623C224.614 44.9728 225.283 45.6158 225.862 46.3291C226.547 47.1734 227.094 48.1008 227.55 49.0753C227.461 49.021 227.369 48.9715 227.279 48.9235C227.06 48.8053 226.835 48.6975 226.604 48.6016C226.128 48.4027 225.629 48.2566 225.124 48.1551C224.616 48.0537 224.1 48.0065 223.583 48.0137C223.334 48.0169 223.085 48.0289 222.839 48.0632C222.596 48.0976 222.324 48.1264 222.112 48.259C222.056 48.2941 222.061 48.358 222.094 48.4027C222.014 48.4123 221.96 48.5162 222.016 48.5888C222.166 48.7806 222.392 48.9315 222.595 49.0625C222.808 49.2015 223.029 49.3277 223.257 49.4403C223.718 49.6672 224.203 49.8381 224.703 49.9587C225.701 50.2 226.753 50.2239 227.757 50.0035C227.831 49.9875 227.875 49.9412 227.899 49.8869C228.117 50.4196 228.317 50.9604 228.493 51.5108C229.161 53.606 229.611 55.7651 230.344 57.8403C230.875 59.346 231.578 60.7822 232.561 62.0291C232.555 62.0259 232.548 62.0227 232.542 62.0195C232.083 61.8166 231.601 61.668 231.11 61.5658C230.618 61.4636 230.118 61.4188 229.615 61.4276C229.127 61.4356 228.567 61.4755 228.133 61.7176C228.041 61.712 227.945 61.791 228.003 61.8901C228.442 62.6433 229.19 63.2057 229.983 63.5468C230.82 63.907 231.765 64.0061 232.662 63.8519C232.91 63.8088 233.155 63.7457 233.394 63.6658C233.557 63.6115 233.754 63.55 233.918 63.4589C235.17 64.5452 236.706 65.3352 238.386 65.3959C238.631 65.4047 238.863 65.3928 239.104 65.3496C239.302 65.3161 239.312 64.9926 239.097 64.9862ZM227.694 49.6001C227.683 49.6025 227.672 49.6041 227.66 49.6065C227.644 49.5849 227.625 49.5649 227.594 49.5514C227.284 49.414 226.963 49.3101 226.634 49.2295C226.303 49.148 225.977 49.116 225.637 49.1049C225.494 49.1001 225.468 49.3069 225.612 49.3277C226.108 49.3988 226.601 49.5282 227.073 49.7023C226.315 49.7926 225.546 49.7575 224.797 49.5913C224.33 49.4875 223.873 49.3309 223.438 49.1304C223.219 49.0298 223.004 48.9195 222.796 48.7965C222.615 48.6895 222.436 48.5601 222.249 48.4618C222.461 48.4818 222.686 48.4371 222.897 48.4251C223.13 48.4123 223.361 48.4003 223.594 48.4019C224.083 48.4051 224.574 48.4546 225.054 48.5457C225.528 48.636 225.989 48.7741 226.438 48.9523C226.661 49.0409 226.88 49.14 227.094 49.2494C227.311 49.3605 227.523 49.5122 227.761 49.5729C227.766 49.5737 227.771 49.5737 227.775 49.5745C227.779 49.5841 227.783 49.5937 227.787 49.6033C227.76 49.5945 227.729 49.5921 227.694 49.6001ZM230.619 57.2803C230.632 57.1981 230.642 57.115 230.657 57.0415C230.7 56.8354 230.747 56.6301 230.8 56.4264C230.851 56.2291 230.907 56.0327 230.967 55.837C231.029 55.6357 231.114 55.436 231.14 55.2259C231.149 55.1524 231.044 55.1061 231.002 55.1716C230.886 55.3489 230.83 55.5574 230.767 55.7579C230.703 55.96 230.646 56.1637 230.593 56.3697C230.578 56.4281 230.566 56.4872 230.552 56.5455C230.541 56.4073 230.528 56.2699 230.522 56.1309C230.503 55.6269 230.528 55.1213 230.589 54.6212C230.709 53.6299 230.975 52.6618 231.388 51.752C231.567 51.3558 231.785 50.99 232.007 50.6225C232.053 50.9341 232.104 51.2456 232.135 51.5603C232.187 52.0915 232.186 52.6259 232.14 53.1579C232.049 54.2075 231.765 55.2275 231.316 56.1804C231.189 56.4496 231.049 56.7132 230.892 56.9664C230.808 57.1022 230.716 57.2348 230.626 57.369C230.626 57.3395 230.622 57.3099 230.619 57.2803ZM233.964 60.4571C234.148 59.5409 234.5 58.6734 234.984 57.8746C235.115 57.6558 235.262 57.4481 235.407 57.2372C235.481 57.1286 235.56 57.0239 235.638 56.9185C235.651 56.9001 235.667 56.8817 235.681 56.8634C235.702 57.0263 235.756 57.1941 235.78 57.3506C235.814 57.5735 235.838 57.798 235.848 58.0224C235.868 58.4649 235.831 58.9099 235.751 59.3452C235.588 60.2255 235.232 61.0738 234.712 61.803C234.542 62.0419 234.352 62.2599 234.156 62.474C234.25 62.2392 234.343 62.0035 234.429 61.7639C234.489 61.5922 234.549 61.4196 234.604 61.2463C234.658 61.0785 234.742 60.8956 234.746 60.7183C234.749 60.6504 234.666 60.6113 234.62 60.6688C234.515 60.8038 234.464 60.9859 234.401 61.1432C234.329 61.3182 234.262 61.4947 234.197 61.6728C234.07 62.0179 233.958 62.367 233.849 62.7184C233.828 62.4309 233.807 62.1433 233.812 61.8542C233.821 61.3845 233.872 60.9164 233.964 60.4571ZM233.212 63.3191C232.963 63.4006 232.706 63.4573 232.446 63.4933C231.902 63.5691 231.345 63.5444 230.811 63.4174C229.825 63.1825 229.034 62.605 228.347 61.8885C228.753 61.8869 229.165 61.8246 229.571 61.8198C230.054 61.8142 230.54 61.8614 231.014 61.9548C231.488 62.0483 231.952 62.196 232.395 62.3885C232.617 62.4852 232.835 62.5914 233.046 62.7112C233.122 62.7544 233.2 62.8039 233.279 62.8526C233.325 62.9006 233.369 62.9517 233.416 62.9988C233.472 63.0539 233.53 63.1082 233.587 63.1626C233.463 63.2177 233.337 63.2784 233.212 63.3191Z" fill="#C49362" fill-opacity="0.3"/>
<path d="M233.163 63.0243C233.101 62.9884 233.057 62.9612 232.983 62.9508C232.928 62.9436 232.873 62.9413 232.818 62.9389C232.699 62.9333 232.579 62.9277 232.46 62.9245C232.221 62.9181 231.981 62.9213 231.741 62.9229C231.61 62.9237 231.581 63.1146 231.718 63.1306C231.955 63.1585 232.191 63.1881 232.429 63.2088C232.548 63.2192 232.667 63.2272 232.786 63.2352C232.841 63.2384 232.896 63.2424 232.952 63.2416C233.028 63.2408 233.075 63.2256 233.146 63.1945C233.206 63.1665 233.229 63.0627 233.163 63.0243Z" fill="#C49362" fill-opacity="0.3"/>
<path d="M241.479 76.0565C241.479 76.0294 241.473 76.0054 241.464 75.9838C241.466 75.9375 241.453 75.8896 241.426 75.8472C241.206 75.5046 240.998 75.1547 240.808 74.7952C240.635 74.4669 240.472 74.1346 240.294 73.8103C240.391 73.6618 240.178 73.4565 240.04 73.5875C239.853 73.7648 239.684 73.9629 239.507 74.1506C239.324 74.3463 239.14 74.5412 238.959 74.7377L238.431 75.3097C238.258 75.4982 238.05 75.6835 237.934 75.9151C237.921 75.9407 237.925 75.9671 237.933 75.9926C237.883 75.9822 237.832 75.9758 237.778 75.979C237.694 75.9838 237.685 76.0941 237.738 76.1396C237.795 76.1891 237.854 76.2378 237.912 76.2874C237.905 76.4247 237.914 76.5645 237.92 76.7003C237.931 76.9479 237.941 77.1964 237.953 77.444C237.975 77.9504 238.001 78.456 238.027 78.9617C238.079 79.9617 238.163 80.9586 238.23 81.9571C238.235 82.0362 238.345 82.049 238.388 82.0002C238.395 82.0026 238.402 82.0066 238.41 82.009C238.459 82.0234 238.508 82.037 238.558 82.0457C238.651 82.0625 238.743 82.0793 238.835 82.0961C238.928 82.1121 239.021 82.1256 239.113 82.14L239.242 82.16C239.3 82.1688 239.361 82.1855 239.419 82.1704C239.489 82.152 239.544 82.1121 239.562 82.0378V82.0346C240.018 81.096 240.349 80.0911 240.661 79.0967C240.818 78.5982 240.965 78.0966 241.103 77.5926C241.172 77.341 241.24 77.0877 241.303 76.8345C241.335 76.7123 241.365 76.5893 241.395 76.4671C241.428 76.3361 241.479 76.1931 241.479 76.0565ZM238.171 76.0286C238.353 75.9015 238.501 75.7242 238.652 75.5653C238.837 75.3712 239.021 75.1763 239.206 74.9822C239.385 74.7936 239.562 74.6043 239.739 74.4142C239.852 74.2936 239.968 74.1738 240.081 74.0524C240.286 74.6626 240.601 75.241 240.942 75.7881C240.836 75.8337 240.734 75.8968 240.636 75.9471C240.466 76.0349 240.297 76.122 240.127 76.2099C239.833 76.3608 239.508 76.5885 239.175 76.6356C238.765 76.6931 238.513 76.3121 238.193 76.106C238.186 76.0797 238.181 76.0533 238.171 76.0286ZM238.402 81.6991C238.386 80.7909 238.38 79.8826 238.348 78.9744C238.33 78.4784 238.313 77.9816 238.291 77.4847C238.28 77.2371 238.27 76.9887 238.259 76.7411C238.256 76.6875 238.255 76.6324 238.253 76.5773C238.303 76.6197 238.353 76.6636 238.404 76.7059C238.632 76.8928 238.892 77.0158 239.189 76.9927C239.095 77.7244 239.012 78.4568 238.914 79.1885C238.862 79.5855 238.809 79.9825 238.75 80.3795C238.688 80.7957 238.604 81.2102 238.554 81.628C238.551 81.656 238.555 81.6791 238.563 81.6999C238.531 81.6975 238.499 81.6943 238.467 81.6943C238.445 81.6935 238.424 81.6959 238.402 81.6991ZM241.059 76.3704C241.029 76.4918 240.999 76.6133 240.969 76.7347C240.905 76.9879 240.839 77.2411 240.771 77.4935C240.635 77.9984 240.49 78.5008 240.335 79C240.045 79.9442 239.703 80.8732 239.414 81.8173C239.338 81.7933 239.255 81.7885 239.176 81.7774C239.08 81.763 238.984 81.7478 238.887 81.7358C238.862 81.7326 238.837 81.7294 238.811 81.7262C238.826 81.7079 238.839 81.6871 238.845 81.6592C238.933 81.259 238.981 80.8468 239.04 80.4418C239.099 80.0352 239.155 79.6278 239.201 79.2197C239.287 78.4664 239.353 77.7164 239.377 76.9599C239.674 76.8833 239.95 76.6979 240.214 76.5566C240.4 76.4567 240.587 76.3569 240.773 76.257C240.885 76.1971 241.01 76.1428 241.117 76.0701C241.12 76.0741 241.123 76.0789 241.125 76.0829C241.097 76.1763 241.081 76.2778 241.059 76.3704Z" fill="#C49362" fill-opacity="0.3"/>
<path d="M215.192 31.6125C215.166 31.6061 215.141 31.6069 215.118 31.6101C215.074 31.5965 215.024 31.5989 214.977 31.6157C214.592 31.7491 214.203 31.8697 213.81 31.9704C213.45 32.0622 213.089 32.1429 212.731 32.2403C212.61 32.1109 212.36 32.2699 212.456 32.4352C212.584 32.6581 212.737 32.8698 212.879 33.0846C213.026 33.3083 213.173 33.532 213.322 33.7548L213.755 34.4018C213.897 34.6151 214.029 34.8595 214.227 35.0265C214.249 35.0449 214.275 35.048 214.303 35.0456C214.281 35.0912 214.263 35.1391 214.253 35.1926C214.238 35.2749 214.343 35.3093 214.4 35.2685C214.461 35.2246 214.523 35.1782 214.584 35.1335C214.716 35.1719 214.854 35.1966 214.988 35.2222C215.231 35.2693 215.475 35.3172 215.719 35.3644C216.216 35.461 216.714 35.5545 217.212 35.6471C218.197 35.8309 219.185 35.9818 220.172 36.1503C220.25 36.1639 220.289 36.0601 220.251 36.0074C220.256 36.001 220.26 35.9954 220.265 35.9882C220.29 35.9435 220.315 35.8995 220.336 35.8524C220.374 35.7669 220.412 35.6807 220.449 35.5944C220.487 35.5081 220.521 35.4211 220.557 35.3348L220.606 35.215C220.629 35.1607 220.659 35.1047 220.658 35.0456C220.656 34.973 220.63 34.9115 220.563 34.8755L220.559 34.8739C219.754 34.2109 218.854 33.6542 217.96 33.1182C217.512 32.8498 217.059 32.5894 216.601 32.337C216.373 32.2108 216.143 32.0862 215.911 31.9648C215.799 31.9064 215.688 31.8473 215.575 31.7898C215.452 31.7275 215.326 31.6444 215.192 31.6125ZM214.392 34.822C214.311 34.6159 214.173 34.4298 214.054 34.2461C213.908 34.0208 213.763 33.7964 213.616 33.5711C213.475 33.353 213.332 33.1366 213.189 32.9193C213.098 32.7811 213.008 32.6405 212.917 32.5023C213.557 32.4464 214.193 32.2747 214.805 32.0718C214.825 32.1852 214.862 32.2986 214.888 32.4057C214.934 32.5918 214.979 32.7771 215.025 32.9632C215.103 33.2843 215.247 33.6542 215.216 33.9889C215.176 34.401 214.746 34.5568 214.471 34.8188C214.445 34.8196 214.418 34.8188 214.392 34.822ZM219.959 35.9235C219.073 35.727 218.189 35.5201 217.298 35.3396C216.811 35.2406 216.324 35.1415 215.837 35.0464C215.593 34.9993 215.35 34.9514 215.106 34.9043C215.053 34.8939 215 34.8827 214.946 34.8707C214.999 34.8316 215.053 34.794 215.105 34.7541C215.341 34.576 215.521 34.3523 215.568 34.0575C216.257 34.3203 216.95 34.572 217.638 34.838C218.012 34.9826 218.386 35.1263 218.757 35.2757C219.147 35.4322 219.531 35.6112 219.925 35.7581C219.951 35.7677 219.975 35.7693 219.997 35.7661C219.987 35.7965 219.977 35.8268 219.969 35.858C219.964 35.8804 219.961 35.9011 219.959 35.9235ZM215.4 32.095C215.511 32.1517 215.622 32.21 215.732 32.2675C215.964 32.3889 216.194 32.5119 216.424 32.6373C216.883 32.8874 217.338 33.1462 217.788 33.413C218.637 33.917 219.46 34.4665 220.311 34.9682C220.27 35.0361 220.245 35.116 220.217 35.1894C220.181 35.2797 220.143 35.37 220.108 35.461C220.099 35.485 220.09 35.5089 220.081 35.5329C220.066 35.5137 220.049 35.497 220.023 35.4842C219.655 35.3053 219.265 35.1623 218.886 35.0097C218.504 34.8571 218.121 34.7078 217.736 34.5672C217.023 34.3084 216.31 34.068 215.58 33.8675C215.574 33.5607 215.459 33.2492 215.383 32.9592C215.33 32.7547 215.276 32.5495 215.223 32.345C215.191 32.222 215.167 32.0886 215.121 31.9664C215.126 31.9648 215.131 31.9632 215.136 31.9616C215.22 32.0119 215.315 32.051 215.4 32.095Z" fill="#C49362" fill-opacity="0.3"/>
<path d="M0.0649409 188.117C0.0562778 188.052 0.0835505 187.984 0.158952 187.971C0.385157 187.933 0.624519 187.963 0.854253 187.944C1.07725 187.926 1.298 187.89 1.51586 187.838C1.95993 187.733 2.38892 187.565 2.78614 187.335C3.53438 186.902 4.15139 186.254 4.56851 185.484C4.80145 185.053 4.98851 184.576 5.09984 184.097C5.11332 184.039 5.15792 184.022 5.19931 184.031C5.26027 183.965 5.37225 184.01 5.37771 184.105C5.39054 184.327 5.32156 184.559 5.29011 184.779C5.25835 185.001 5.2391 185.224 5.22915 185.448C5.20926 185.898 5.22851 186.351 5.29108 186.797C5.4175 187.698 5.7037 188.574 6.13782 189.368C6.25846 189.589 6.39066 189.804 6.53344 190.01C6.67879 190.22 6.83857 190.419 6.98071 190.631C7.04713 190.73 6.92777 190.823 6.83857 190.784C6.83119 190.788 6.82285 190.791 6.81355 190.792C6.80617 190.792 6.79879 190.791 6.79141 190.792C6.46927 190.906 6.14423 191.008 5.82851 191.141C5.50509 191.278 5.19225 191.443 4.89257 191.629C4.28647 192.004 3.73491 192.463 3.25972 193.002C3.12945 193.15 3.004 193.302 2.88657 193.461C2.82721 193.542 2.76945 193.623 2.71362 193.706C2.65427 193.794 2.60389 193.893 2.5256 193.965C2.44667 194.037 2.31833 193.991 2.30132 193.895C2.28849 193.885 2.27854 193.87 2.27501 193.851C2.23619 193.655 2.28271 193.441 2.29074 193.241C2.29876 193.04 2.29555 192.838 2.28335 192.636C2.25865 192.229 2.18998 191.826 2.08282 191.434C1.87009 190.655 1.50431 189.915 1.00602 189.288C0.865802 189.112 0.715642 188.944 0.556176 188.786C0.392218 188.623 0.212215 188.483 0.0408773 188.33C-0.0303531 188.266 0.000448704 188.165 0.0649409 188.117ZM5.96584 189.64C5.73386 189.24 5.54038 188.817 5.38477 188.379C5.13353 187.672 4.98754 186.923 4.94936 186.17C4.91022 186.263 4.86979 186.355 4.82808 186.446C4.80145 186.551 4.77931 186.658 4.76198 186.766C4.69621 187.174 4.70037 187.598 4.77546 188.004C4.91599 188.763 5.30359 189.441 5.85643 189.961C6.0053 190.101 6.16509 190.228 6.33547 190.339C6.39001 190.374 6.44648 190.407 6.50231 190.441C6.29857 190.193 6.12402 189.913 5.96584 189.64ZM4.46358 187.144C4.3131 187.394 4.14433 187.633 3.95053 187.856C3.47277 188.407 2.84614 188.832 2.13961 188.989C2.27982 189.196 2.37416 189.455 2.46432 189.681C2.57822 189.966 2.66774 190.262 2.73897 190.561C2.84132 190.992 2.90325 191.435 2.92154 191.879C3.02453 191.683 3.14421 191.496 3.27833 191.32C3.63513 190.851 4.09331 190.462 4.61343 190.199C4.88391 190.062 5.15856 189.966 5.45407 189.92C5.29685 189.748 5.15503 189.561 5.03086 189.363C4.6192 188.707 4.42347 187.922 4.46358 187.144ZM2.94849 192.907C3.18881 192.622 3.45224 192.357 3.73267 192.115C4.2993 191.625 4.93107 191.23 5.6145 190.937C5.86766 190.828 6.12883 190.731 6.39643 190.662C6.35472 190.639 6.31525 190.615 6.27867 190.593C6.10798 190.491 5.94659 190.374 5.79354 190.246C5.72391 190.187 5.65653 190.126 5.5914 190.062C5.58402 190.068 5.57632 190.073 5.56669 190.076C5.0469 190.242 4.54861 190.472 4.12155 190.823C3.69737 191.172 3.34604 191.612 3.10154 192.111C3.02871 192.26 2.97224 192.417 2.91288 192.572C2.90614 192.679 2.8978 192.785 2.8856 192.891C2.88143 192.928 2.87598 192.965 2.87116 193.001C2.89747 192.97 2.9225 192.938 2.94849 192.907ZM1.81843 190.032C2.21405 190.782 2.45694 191.616 2.52721 192.466C2.54678 192.703 2.55127 192.942 2.541 193.179C2.53748 193.264 2.53555 193.355 2.52913 193.448C2.55512 193.413 2.58079 193.379 2.60485 193.347L2.60582 193.345C2.59491 193.216 2.60999 193.089 2.62603 192.961C2.6225 192.954 2.61993 192.945 2.61929 192.937C2.60646 192.793 2.62732 192.646 2.66614 192.503C2.67063 192.408 2.67352 192.312 2.67384 192.217C2.67609 191.843 2.65009 191.469 2.59041 191.1C2.53073 190.732 2.44057 190.368 2.32154 190.016C2.26057 189.836 2.19383 189.657 2.11875 189.483C2.05362 189.333 1.97116 189.185 1.91629 189.03C1.66827 189.065 1.4026 189.072 1.15201 189.026C1.40516 189.338 1.62977 189.675 1.81843 190.032ZM0.829226 188.656C0.846552 188.654 0.865804 188.655 0.88666 188.66C1.05351 188.703 1.2149 188.749 1.38752 188.762C1.55693 188.775 1.72891 188.77 1.89704 188.746C2.23747 188.697 2.56763 188.576 2.86828 188.406C3.50775 188.045 3.98647 187.469 4.36572 186.839C4.42604 186.739 4.48444 186.637 4.54123 186.535C4.56722 186.407 4.5993 186.281 4.63845 186.157C4.7023 185.955 4.77417 185.686 4.94134 185.545C4.94391 185.465 4.94712 185.385 4.95225 185.305C4.92915 185.358 4.90509 185.411 4.88038 185.463C4.68369 185.878 4.42444 186.264 4.1254 186.608C3.5039 187.321 2.67384 187.836 1.77608 188.088C1.51265 188.162 1.24346 188.212 0.97201 188.241C0.83757 188.256 0.702166 188.265 0.567084 188.268C0.518314 188.269 0.469223 188.27 0.419811 188.27C0.564517 188.387 0.700241 188.519 0.829226 188.656Z" fill="#C49362" fill-opacity="0.4"/>
<path d="M263.171 143.066C263.335 143.01 263.501 142.955 263.667 142.902C263.682 142.882 263.701 142.864 263.725 142.851C263.791 142.699 263.9 142.555 263.98 142.411C264.16 142.087 264.326 141.754 264.452 141.403C264.568 141.076 264.647 140.728 264.662 140.379C264.669 140.206 264.657 140.032 264.63 139.86C264.602 139.685 264.545 139.509 264.527 139.334C264.524 139.299 264.532 139.272 264.547 139.249C264.528 139.156 264.512 139.063 264.525 138.969C264.539 138.86 264.688 138.83 264.752 138.918C264.835 139.034 264.864 139.178 264.902 139.313C264.981 139.418 265.028 139.565 265.085 139.674C265.158 139.815 265.241 139.953 265.327 140.087C265.508 140.364 265.712 140.627 265.94 140.865C266.165 141.098 266.41 141.314 266.669 141.506C266.805 141.607 266.945 141.704 267.088 141.793C267.193 141.858 267.306 141.918 267.394 142.005C267.623 141.976 267.852 141.955 268.081 141.945C268.218 141.94 268.285 142.156 268.139 142.196C267.93 142.254 267.719 142.306 267.508 142.356C267.507 142.359 267.505 142.361 267.504 142.363C267.324 142.584 267.126 142.787 266.969 143.026C266.809 143.268 266.68 143.531 266.585 143.807C266.405 144.331 266.366 144.899 266.461 145.449C266.494 145.58 266.527 145.711 266.56 145.841C266.585 145.943 266.554 146.049 266.449 146.088C266.362 146.121 266.228 146.074 266.202 145.972C266.177 145.871 266.152 145.77 266.127 145.669C266.11 145.649 266.095 145.627 266.087 145.598C266.079 145.572 266.07 145.546 266.062 145.519C266.049 145.514 266.036 145.508 266.024 145.499C265.968 145.478 265.915 145.435 265.898 145.376C265.881 145.319 265.869 145.261 265.857 145.202C265.786 145.085 265.721 144.965 265.65 144.847C265.484 144.573 265.3 144.31 265.09 144.068C264.918 143.868 264.721 143.69 264.503 143.541C264.324 143.418 264.136 143.34 263.937 143.272C263.733 143.338 263.528 143.405 263.324 143.474C263.063 143.564 262.908 143.157 263.171 143.066Z" fill="#C49362" fill-opacity="0.4"/>
<path d="M263.171 83.0661C263.335 83.0096 263.501 82.9551 263.667 82.9021C263.682 82.8817 263.701 82.8635 263.725 82.8508C263.791 82.699 263.9 82.5546 263.98 82.4115C264.16 82.0872 264.326 81.7537 264.452 81.403C264.568 81.0755 264.647 80.7283 264.662 80.3786C264.669 80.2061 264.657 80.0318 264.63 79.8602C264.602 79.6851 264.545 79.5094 264.527 79.3339C264.524 79.299 264.532 79.2722 264.547 79.2492C264.528 79.156 264.512 79.0627 264.525 78.969C264.539 78.8598 264.688 78.8296 264.752 78.918C264.835 79.0344 264.864 79.1779 264.902 79.3133C264.981 79.4181 265.028 79.565 265.085 79.6738C265.158 79.8151 265.241 79.9532 265.327 80.087C265.508 80.3636 265.712 80.6265 265.94 80.8648C266.165 81.0982 266.41 81.3137 266.669 81.5062C266.805 81.6071 266.945 81.7045 267.088 81.7934C267.193 81.858 267.306 81.9177 267.394 82.005C267.623 81.9759 267.852 81.9546 268.081 81.9448C268.218 81.9398 268.285 82.1558 268.139 82.196C267.93 82.2537 267.719 82.3063 267.508 82.3563C267.507 82.3586 267.505 82.3608 267.504 82.3631C267.324 82.5837 267.126 82.7867 266.969 83.0259C266.809 83.268 266.68 83.5312 266.585 83.8069C266.405 84.3307 266.366 84.8988 266.461 85.4488C266.494 85.5797 266.527 85.7106 266.56 85.8415C266.585 85.9433 266.554 86.0491 266.449 86.0881C266.362 86.1212 266.228 86.0743 266.202 85.9724C266.177 85.8715 266.152 85.7696 266.127 85.6687C266.11 85.6494 266.095 85.6266 266.087 85.5982C266.079 85.5724 266.07 85.5456 266.062 85.5189C266.049 85.5138 266.036 85.5081 266.024 85.4991C265.968 85.4781 265.915 85.4352 265.898 85.3759C265.881 85.3191 265.869 85.2608 265.857 85.2024C265.786 85.085 265.721 84.9646 265.65 84.8471C265.484 84.5734 265.3 84.3103 265.09 84.0681C264.918 83.8683 264.721 83.6896 264.503 83.541C264.324 83.4184 264.136 83.3401 263.937 83.2722C263.733 83.3376 263.528 83.4047 263.324 83.4737C263.063 83.564 262.908 83.1571 263.171 83.0661Z" fill="#C49362" fill-opacity="0.4"/>
<path d="M130.07 153.587C130.104 153.469 130.162 153.367 130.242 153.28C130.318 153.186 130.408 153.121 130.511 153.083C130.61 153.023 130.718 152.996 130.833 153.001C130.984 153.001 131.125 153.045 131.255 153.131C131.297 153.157 131.34 153.183 131.382 153.208C131.476 153.267 131.557 153.357 131.639 153.438C131.674 153.473 131.708 153.505 131.739 153.543C131.753 153.56 131.768 153.577 131.782 153.596C131.826 153.649 131.866 153.708 131.902 153.77C131.925 153.835 131.95 153.901 131.974 153.966C131.99 154.04 131.999 154.113 132 154.188C132.003 154.299 131.984 154.402 131.939 154.498C131.911 154.598 131.862 154.684 131.794 154.758C131.77 154.782 131.745 154.804 131.719 154.824C131.65 154.897 131.569 154.945 131.476 154.97C131.41 154.991 131.342 155.001 131.275 155C131.255 155 131.235 155 131.214 154.999C131.171 154.997 131.129 154.991 131.086 154.985C130.975 154.969 130.853 154.97 130.749 154.93C130.704 154.911 130.659 154.893 130.614 154.874C130.473 154.829 130.349 154.748 130.246 154.629C130.203 154.565 130.158 154.499 130.115 154.436C130.04 154.287 130.002 154.126 130.001 153.954C129.994 153.823 130.018 153.701 130.07 153.587Z" fill="#C49362" fill-opacity="0.4"/>
<path d="M200.07 134.587C200.104 134.469 200.162 134.367 200.242 134.28C200.318 134.186 200.408 134.121 200.511 134.083C200.61 134.023 200.718 133.996 200.833 134.001C200.984 134.001 201.125 134.045 201.255 134.131C201.297 134.157 201.34 134.183 201.382 134.208C201.476 134.267 201.557 134.357 201.639 134.438C201.674 134.473 201.708 134.505 201.739 134.543C201.753 134.56 201.768 134.577 201.782 134.596C201.826 134.649 201.866 134.708 201.902 134.77C201.925 134.835 201.95 134.901 201.974 134.966C201.99 135.04 201.999 135.113 202 135.188C202.003 135.299 201.984 135.402 201.939 135.498C201.911 135.598 201.862 135.684 201.794 135.758C201.77 135.782 201.745 135.804 201.719 135.824C201.65 135.897 201.569 135.945 201.476 135.97C201.41 135.991 201.342 136.001 201.275 136C201.255 136 201.235 136 201.214 135.999C201.171 135.997 201.129 135.991 201.086 135.985C200.975 135.969 200.853 135.97 200.749 135.93C200.704 135.911 200.659 135.893 200.614 135.874C200.473 135.829 200.349 135.748 200.246 135.629C200.203 135.565 200.158 135.499 200.115 135.436C200.04 135.287 200.002 135.126 200.001 134.954C199.994 134.823 200.018 134.701 200.07 134.587Z" fill="#C49362" fill-opacity="0.4"/>
<path d="M200.07 64.5871C200.104 64.4691 200.162 64.367 200.242 64.2797C200.318 64.1863 200.408 64.1211 200.511 64.083C200.61 64.0227 200.718 63.9956 200.833 64.0006C200.984 64.0006 201.125 64.0449 201.255 64.1309C201.297 64.1567 201.34 64.1826 201.382 64.2084C201.476 64.2674 201.557 64.3572 201.639 64.4383C201.674 64.4728 201.708 64.5047 201.739 64.5428C201.753 64.56 201.768 64.5773 201.782 64.5957C201.826 64.6486 201.866 64.7076 201.902 64.7703C201.925 64.8355 201.95 64.9006 201.974 64.9658C201.99 65.0396 201.999 65.1134 202 65.1884C202.003 65.299 201.984 65.4023 201.939 65.4982C201.911 65.5978 201.862 65.6839 201.794 65.7577C201.77 65.7823 201.745 65.8044 201.719 65.8241C201.65 65.8966 201.569 65.9446 201.476 65.9704C201.41 65.9913 201.342 66.0011 201.275 65.9999C201.255 65.9999 201.235 65.9999 201.214 65.9987C201.171 65.9974 201.129 65.9913 201.086 65.9852C200.975 65.9692 200.853 65.9704 200.749 65.9298C200.704 65.9114 200.659 65.8929 200.614 65.8745C200.473 65.829 200.349 65.7478 200.246 65.6286C200.203 65.5646 200.158 65.4995 200.115 65.4355C200.04 65.2868 200.002 65.1257 200.001 64.9535C199.994 64.8232 200.018 64.7015 200.07 64.5871Z" fill="#C49362" fill-opacity="0.4"/>
<path d="M80.0702 143.587C80.1036 143.469 80.1617 143.367 80.2424 143.28C80.3177 143.186 80.4081 143.121 80.5114 143.083C80.6104 143.023 80.718 142.996 80.8332 143.001C80.9838 143.001 81.1248 143.045 81.255 143.131C81.297 143.157 81.34 143.183 81.382 143.208C81.4756 143.267 81.5574 143.357 81.6392 143.438C81.6736 143.473 81.708 143.505 81.7392 143.543C81.7532 143.56 81.7683 143.577 81.7823 143.596C81.8264 143.649 81.8662 143.708 81.9017 143.77C81.9254 143.835 81.9502 143.901 81.9738 143.966C81.99 144.04 81.9986 144.113 81.9997 144.188C82.0029 144.299 81.9835 144.402 81.9394 144.498C81.9114 144.598 81.8619 144.684 81.7941 144.758C81.7705 144.782 81.7446 144.804 81.7188 144.824C81.6499 144.897 81.5692 144.945 81.4756 144.97C81.41 144.991 81.3422 145.001 81.2754 145C81.255 145 81.2346 145 81.2141 144.999C81.1711 144.997 81.1291 144.991 81.0861 144.985C80.9752 144.969 80.8525 144.97 80.7492 144.93C80.704 144.911 80.6589 144.893 80.6137 144.874C80.4727 144.829 80.3489 144.748 80.2456 144.629C80.2026 144.565 80.1585 144.499 80.1154 144.436C80.0401 144.287 80.0024 144.126 80.0014 143.954C79.9938 143.823 80.0175 143.701 80.0702 143.587Z" fill="#C49362" fill-opacity="0.4"/>
<path d="M120.07 76.5871C120.104 76.4691 120.162 76.367 120.242 76.2797C120.318 76.1863 120.408 76.1211 120.511 76.083C120.61 76.0227 120.718 75.9956 120.833 76.0006C120.984 76.0006 121.125 76.0449 121.255 76.1309C121.297 76.1567 121.34 76.1826 121.382 76.2084C121.476 76.2674 121.557 76.3572 121.639 76.4383C121.674 76.4728 121.708 76.5047 121.739 76.5428C121.753 76.56 121.768 76.5773 121.782 76.5957C121.826 76.6486 121.866 76.7076 121.902 76.7703C121.925 76.8355 121.95 76.9006 121.974 76.9658C121.99 77.0396 121.999 77.1134 122 77.1884C122.003 77.299 121.984 77.4023 121.939 77.4982C121.911 77.5978 121.862 77.6839 121.794 77.7577C121.77 77.7823 121.745 77.8044 121.719 77.8241C121.65 77.8966 121.569 77.9446 121.476 77.9704C121.41 77.9913 121.342 78.0011 121.275 77.9999C121.255 77.9999 121.235 77.9999 121.214 77.9987C121.171 77.9974 121.129 77.9913 121.086 77.9852C120.975 77.9692 120.853 77.9704 120.749 77.9298C120.704 77.9114 120.659 77.8929 120.614 77.8745C120.473 77.829 120.349 77.7478 120.246 77.6286C120.203 77.5646 120.158 77.4995 120.115 77.4355C120.04 77.2868 120.002 77.1257 120.001 76.9535C119.994 76.8232 120.018 76.7015 120.07 76.5871Z" fill="#C49362" fill-opacity="0.4"/>
<path d="M60.0702 59.5871C60.1036 59.4691 60.1617 59.367 60.2424 59.2797C60.3177 59.1863 60.4081 59.1211 60.5114 59.083C60.6104 59.0227 60.718 58.9956 60.8332 59.0006C60.9838 59.0006 61.1248 59.0449 61.255 59.1309C61.297 59.1567 61.34 59.1826 61.382 59.2084C61.4756 59.2674 61.5574 59.3572 61.6392 59.4383C61.6736 59.4728 61.708 59.5047 61.7392 59.5428C61.7532 59.56 61.7683 59.5773 61.7823 59.5957C61.8264 59.6486 61.8662 59.7076 61.9017 59.7703C61.9254 59.8355 61.9502 59.9006 61.9738 59.9658C61.99 60.0396 61.9986 60.1134 61.9997 60.1884C62.0029 60.299 61.9835 60.4023 61.9394 60.4982C61.9114 60.5978 61.8619 60.6839 61.7941 60.7577C61.7705 60.7823 61.7446 60.8044 61.7188 60.8241C61.6499 60.8966 61.5692 60.9446 61.4756 60.9704C61.41 60.9913 61.3422 61.0011 61.2754 60.9999C61.255 60.9999 61.2346 60.9999 61.2141 60.9987C61.1711 60.9974 61.1291 60.9913 61.0861 60.9852C60.9752 60.9692 60.8525 60.9704 60.7492 60.9298C60.704 60.9114 60.6589 60.8929 60.6137 60.8745C60.4727 60.829 60.3489 60.7478 60.2456 60.6286C60.2026 60.5646 60.1585 60.4995 60.1154 60.4355C60.0401 60.2868 60.0024 60.1257 60.0014 59.9535C59.9938 59.8232 60.0175 59.7015 60.0702 59.5871Z" fill="#C49362" fill-opacity="0.4"/>
<path d="M100.07 192.587C100.104 192.469 100.162 192.367 100.242 192.28C100.318 192.186 100.408 192.121 100.511 192.083C100.61 192.023 100.718 191.996 100.833 192.001C100.984 192.001 101.125 192.045 101.255 192.131C101.297 192.157 101.34 192.183 101.382 192.208C101.476 192.267 101.557 192.357 101.639 192.438C101.674 192.473 101.708 192.505 101.739 192.543C101.753 192.56 101.768 192.577 101.782 192.596C101.826 192.649 101.866 192.708 101.902 192.77C101.925 192.835 101.95 192.901 101.974 192.966C101.99 193.04 101.999 193.113 102 193.188C102.003 193.299 101.984 193.402 101.939 193.498C101.911 193.598 101.862 193.684 101.794 193.758C101.77 193.782 101.745 193.804 101.719 193.824C101.65 193.897 101.569 193.945 101.476 193.97C101.41 193.991 101.342 194.001 101.275 194C101.255 194 101.235 194 101.214 193.999C101.171 193.997 101.129 193.991 101.086 193.985C100.975 193.969 100.853 193.97 100.749 193.93C100.704 193.911 100.659 193.893 100.614 193.874C100.473 193.829 100.349 193.748 100.246 193.629C100.203 193.565 100.158 193.499 100.115 193.436C100.04 193.287 100.002 193.126 100.001 192.954C99.9938 192.823 100.018 192.701 100.07 192.587Z" fill="#C49362" fill-opacity="0.4"/>
<path d="M170.07 215.587C170.104 215.469 170.162 215.367 170.242 215.28C170.318 215.186 170.408 215.121 170.511 215.083C170.61 215.023 170.718 214.996 170.833 215.001C170.984 215.001 171.125 215.045 171.255 215.131C171.297 215.157 171.34 215.183 171.382 215.208C171.476 215.267 171.557 215.357 171.639 215.438C171.674 215.473 171.708 215.505 171.739 215.543C171.753 215.56 171.768 215.577 171.782 215.596C171.826 215.649 171.866 215.708 171.902 215.77C171.925 215.835 171.95 215.901 171.974 215.966C171.99 216.04 171.999 216.113 172 216.188C172.003 216.299 171.984 216.402 171.939 216.498C171.911 216.598 171.862 216.684 171.794 216.758C171.77 216.782 171.745 216.804 171.719 216.824C171.65 216.897 171.569 216.945 171.476 216.97C171.41 216.991 171.342 217.001 171.275 217C171.255 217 171.235 217 171.214 216.999C171.171 216.997 171.129 216.991 171.086 216.985C170.975 216.969 170.853 216.97 170.749 216.93C170.704 216.911 170.659 216.893 170.614 216.874C170.473 216.829 170.349 216.748 170.246 216.629C170.203 216.565 170.158 216.499 170.115 216.436C170.04 216.287 170.002 216.126 170.001 215.954C169.994 215.823 170.018 215.701 170.07 215.587Z" fill="#C49362" fill-opacity="0.4"/>
<path d="M240.07 188.587C240.104 188.469 240.162 188.367 240.242 188.28C240.318 188.186 240.408 188.121 240.511 188.083C240.61 188.023 240.718 187.996 240.833 188.001C240.984 188.001 241.125 188.045 241.255 188.131C241.297 188.157 241.34 188.183 241.382 188.208C241.476 188.267 241.557 188.357 241.639 188.438C241.674 188.473 241.708 188.505 241.739 188.543C241.753 188.56 241.768 188.577 241.782 188.596C241.826 188.649 241.866 188.708 241.902 188.77C241.925 188.835 241.95 188.901 241.974 188.966C241.99 189.04 241.999 189.113 242 189.188C242.003 189.299 241.984 189.402 241.939 189.498C241.911 189.598 241.862 189.684 241.794 189.758C241.77 189.782 241.745 189.804 241.719 189.824C241.65 189.897 241.569 189.945 241.476 189.97C241.41 189.991 241.342 190.001 241.275 190C241.255 190 241.235 190 241.214 189.999C241.171 189.997 241.129 189.991 241.086 189.985C240.975 189.969 240.853 189.97 240.749 189.93C240.704 189.911 240.659 189.893 240.614 189.874C240.473 189.829 240.349 189.748 240.246 189.629C240.203 189.565 240.158 189.499 240.115 189.436C240.04 189.287 240.002 189.126 240.001 188.954C239.994 188.823 240.018 188.701 240.07 188.587Z" fill="#C49362" fill-opacity="0.4"/>
<path d="M4.07023 155.587C4.10359 155.469 4.1617 155.367 4.24241 155.28C4.31774 155.186 4.40813 155.121 4.51143 155.083C4.61043 155.023 4.71804 154.996 4.83318 155.001C4.98383 155.001 5.12479 155.045 5.255 155.131C5.29697 155.157 5.34001 155.183 5.38198 155.208C5.4756 155.267 5.55739 155.357 5.63918 155.438C5.67361 155.473 5.70803 155.505 5.73924 155.543C5.75323 155.56 5.7683 155.577 5.78229 155.596C5.82641 155.649 5.86622 155.708 5.90173 155.77C5.9254 155.835 5.95015 155.901 5.97383 155.966C5.98997 156.04 5.99858 156.113 5.99965 156.188C6.00288 156.299 5.98351 156.402 5.93939 156.498C5.91142 156.598 5.86192 156.684 5.79413 156.758C5.77045 156.782 5.74462 156.804 5.71879 156.824C5.64993 156.897 5.56922 156.945 5.4756 156.97C5.40996 156.991 5.34216 157.001 5.27544 157C5.255 157 5.23456 157 5.21412 156.999C5.17107 156.997 5.1291 156.991 5.08606 156.985C4.97522 156.969 4.85254 156.97 4.74924 156.93C4.70404 156.911 4.65886 156.893 4.61366 156.874C4.47269 156.829 4.34893 156.748 4.24563 156.629C4.20258 156.565 4.15848 156.499 4.11544 156.436C4.04011 156.287 4.00244 156.126 4.00137 155.954C3.99384 155.823 4.0175 155.701 4.07023 155.587Z" fill="#C49362" fill-opacity="0.4"/>
</svg>
