<svg width="100" height="32" viewBox="0 0 100 32" fill="none" xmlns="http://www.w3.org/2000/svg">
<path d="M69.0687 9.28784C75.8517 11.199 82.6139 14.4759 86.5796 20.5173C86.7437 20.7674 86.826 21.0656 86.8052 21.3643C86.8047 21.3721 86.8042 21.3795 86.8033 21.3874C86.746 22.1581 86.0447 22.7604 85.2786 22.6569C82.5603 22.2903 79.6607 20.5599 75.234 18.5525" stroke="#CC9A63" stroke-opacity="0.8" stroke-miterlimit="10" stroke-linecap="round" stroke-linejoin="round"/>
<path d="M74.855 18.6606C76.1425 20.8982 81.7595 24.4418 80.2963 27.9004C79.5825 29.5878 77.7573 28.4177 76.7389 27.7441C73.5966 25.2994 72.5947 23.5884 68.6036 20.4632" stroke="#CC9A63" stroke-opacity="0.8" stroke-miterlimit="10" stroke-linecap="round" stroke-linejoin="round"/>
<path d="M66.6651 20.9783C68.3299 22.6652 70.7778 24.4733 71.493 26.8237C72.6538 30.6391 66.0673 26.8413 65.0003 26.2074C62.7724 24.8838 60.6486 23.2611 58.0869 22.6366" stroke="#CC9A63" stroke-opacity="0.8" stroke-miterlimit="10" stroke-linecap="round" stroke-linejoin="round"/>
<path d="M59.5063 12.6913C62.9232 10.8056 67.7802 9.73762 71.9253 8.45194C74.4643 7.93462 76.9173 9.19626 79.7148 9.94844C80.2242 10.2855 91.359 14.8374 96.6797 15.3062C97.1873 15.351 97.7564 15.3473 98.2228 15.2058C98.8775 15.0075 99.1932 14.2558 98.8752 13.6506C98.5784 13.0852 98.0685 12.5637 97.3454 12.0857C89.1954 6.69519 80.6301 3.59309 71.7284 0.999999C55.8134 2.92136 40.4162 7.3817 24.5016 9.30305C16.3756 10.5185 8.40634 8.17641 0.494384 4.93146L0.504541 26.6845C3.94597 26.4857 7.34396 26.5754 10.7567 26.893C13.1862 27.1191 15.5643 27.7732 17.7385 28.8814C25.2668 32.7181 35.8772 31.481 43.3865 28.9161C47.4313 27.5342 50.7192 24.593 54.788 23.2597C58.8096 21.9421 63.1317 21.7942 67.2329 20.803C69.7159 20.2029 72.1833 19.5317 74.6113 18.736C75.5114 18.4411 80.7873 17.1471 81.0162 16.296C81.1835 15.6723 80.9584 15.0029 80.4351 14.6247C78.7513 13.4079 76.4476 13.1282 74.1439 12.849C65.7595 12.7949 57.7116 12.2313 49.5856 13.4467C46.9606 13.541 44.3356 13.6354 42.0546 12.9696" stroke="#CC9A63" stroke-opacity="0.8" stroke-miterlimit="10" stroke-linecap="round" stroke-linejoin="round"/>
</svg>
