<svg width="68" height="69" viewBox="0 0 68 69" fill="none" xmlns="http://www.w3.org/2000/svg">
<path d="M40.5969 52.1554C33.5969 57.0472 24.3119 58.3395 15.8675 54.7645C6.91064 50.9737 1.2275 42.6937 0.32551 33.6523C0.00128638 46.9855 7.71044 59.7831 20.7378 65.2972C37.7603 72.5024 57.4005 64.5435 64.6049 47.521C71.81 30.4985 63.8512 10.8591 46.8286 3.65393C33.8013 -1.86018 19.2473 1.51498 9.90087 11.0296C17.0192 5.38339 26.9203 3.69926 35.8764 7.49007C45.4856 11.5575 51.2586 20.6204 51.4699 30.4178" stroke="#C49362" stroke-width="0.4" stroke-miterlimit="10" stroke-linecap="round" stroke-linejoin="round"/>
<path d="M51.4599 30.0498C51.4599 30.0498 51.8663 39.3401 43.1545 41.0365C43.1545 41.0365 44.1818 43.5005 47.0614 45.6218C49.941 47.7431 50.5326 45.3828 50.5326 45.3828C50.5326 45.3828 50.8729 44.3848 49.8357 43.9461" stroke="#C49362" stroke-width="0.4" stroke-miterlimit="10" stroke-linecap="round" stroke-linejoin="round"/>
<path d="M47.0614 45.6218C47.0614 45.6218 44.7081 48.4699 43.6079 48.1288C42.5077 47.7877 42.5392 50.6542 42.5392 50.6542C42.5392 50.6542 41.8162 50.2393 41.2031 50.7218C40.8781 50.9777 40.4694 51.4248 40.5969 52.1547C40.5969 52.1547 42.3125 55.0904 49.5546 54.6125" stroke="#C49362" stroke-width="0.4" stroke-miterlimit="10" stroke-linecap="round" stroke-linejoin="round"/>
<path d="M52.3242 37.6213C52.3242 37.6213 54.2542 35.7467 57.5402 36.1393C60.8263 36.5319 63.0651 39.0265 63.0651 39.0265C63.0651 39.0265 58.0581 39.6228 52.3242 37.6213Z" fill="#C49362"/>
<path d="M51.9894 37.1625C54.6923 35.0204 58.2887 34.0447 61.703 34.5287" stroke="#C49362" stroke-width="0.4" stroke-miterlimit="10" stroke-linecap="round" stroke-linejoin="round"/>
<path d="M52.5055 38.0432C53.2454 38.7162 54.0844 39.281 54.9863 39.7143" stroke="#C49362" stroke-width="0.4" stroke-miterlimit="10" stroke-linecap="round" stroke-linejoin="round"/>
<path d="M51.0389 44.4456C51.1326 45.001 51.0235 45.588 50.7385 46.0736C50.4527 46.5592 49.9924 46.9395 49.4615 47.1285" stroke="#C49362" stroke-width="0.4" stroke-miterlimit="10" stroke-linecap="round" stroke-linejoin="round"/>
<path d="M46.532 47.0591C46.1218 47.5907 45.6815 48.1455 45.0569 48.3921" stroke="#C49362" stroke-width="0.4" stroke-miterlimit="10" stroke-linecap="round" stroke-linejoin="round"/>
<path d="M50.5018 54.8476C48.5042 54.3259 47.6553 52.3237 47.0975 50.9577C47.076 50.8693 47.0391 50.7848 46.9922 50.7041C46.8808 50.4337 46.7779 50.1886 46.6772 49.998C46.2178 49.1306 45.3588 49.1598 44.7319 49.1798C44.4799 49.1882 44.2425 49.1959 44.1057 49.1398C44.1042 49.1391 44.1026 49.1383 44.1011 49.1383C43.6862 48.9624 43.8706 48.1895 43.8729 48.1818C43.8883 48.1211 43.8514 48.0573 43.7892 48.0435C43.7277 48.0281 43.6662 48.0658 43.6509 48.1264C43.6493 48.1334 43.6401 48.1764 43.6309 48.2325C43.6201 48.2156 43.6063 48.2002 43.5833 48.1941C43.1154 48.0627 42.8972 48.5214 42.7427 48.9017C42.6636 49.0961 42.6144 49.2966 42.5783 49.4979C42.4838 49.8305 42.4877 50.2032 42.5253 50.5497C42.5076 50.552 42.493 50.5535 42.4784 50.5635C41.8277 50.4029 41.1485 50.4928 40.7889 51.0921C40.6768 51.2788 40.6384 51.4617 40.6491 51.6399C40.6161 51.6537 40.5877 51.6806 40.5792 51.7244C40.4824 52.1985 40.9342 52.6279 41.3006 52.8469C41.4658 52.946 41.6541 53.0613 41.8523 53.1704C41.8569 53.2049 41.8715 53.238 41.9107 53.2579C42.0474 53.3279 42.1926 53.4224 42.3401 53.5046C42.3448 53.5084 42.344 53.5146 42.3494 53.5176C42.7189 53.7443 42.6014 53.6867 43.0017 53.8549C43.0262 53.8657 43.047 53.8595 43.067 53.8549C43.0962 53.868 43.12 53.8772 43.1569 53.8941C43.206 53.9164 43.2429 53.8987 43.2706 53.8695C43.2829 53.8703 43.2951 53.8726 43.3051 53.8695C43.4196 53.9156 43.5349 53.9602 43.6478 54.0109C43.6516 54.0124 43.6539 54.0101 43.6578 54.0109C44.9201 54.5756 46.5051 54.6916 47.782 54.7077C47.8781 54.7093 47.9234 54.6102 47.9004 54.5426C47.9134 54.5426 47.9265 54.5426 47.9396 54.5426C48.1224 54.6086 48.3076 54.6371 48.5058 54.6086C48.5342 54.6048 48.5511 54.5879 48.5672 54.571C48.7109 54.6048 48.8523 54.644 48.9929 54.6931C49.052 54.7139 49.0974 54.6839 49.125 54.6424C49.3655 54.7346 49.6129 54.813 49.8741 54.8668C49.8887 54.8729 49.9018 54.8806 49.9164 54.8868C50.0839 54.9574 50.2606 55.0181 50.4465 55.0673C50.508 55.0834 50.5702 55.0466 50.5856 54.9859C50.5994 54.9267 50.5664 54.8668 50.5018 54.8476ZM43.9605 52.22C44.8525 52.5734 46.0979 53.1166 46.9408 53.868C45.7729 53.7942 44.4684 53.2603 43.561 52.85C43.319 52.7409 43.0478 52.6064 42.8449 52.4067C42.8219 52.3521 42.8119 52.2991 42.815 52.2461C42.8449 52.1977 42.8826 52.1516 42.9341 52.1116C43.2437 51.978 43.6248 52.0871 43.9605 52.22ZM42.636 51.1298C42.629 51.1274 42.6221 51.1236 42.6152 51.1205C42.6244 51.1236 42.6336 51.1259 42.6429 51.129C42.6406 51.129 42.6383 51.1298 42.636 51.1298ZM48.0417 54.2905C48.0486 54.2998 48.0571 54.3059 48.0648 54.3144C48.0586 54.3144 48.0517 54.3144 48.0456 54.3151C48.0463 54.3067 48.0425 54.299 48.0417 54.2905ZM43.3966 48.6105C43.405 48.6043 43.4142 48.5974 43.4219 48.592C43.4227 48.599 43.4235 48.6059 43.4242 48.6128C43.415 48.6105 43.4058 48.6105 43.3966 48.6105ZM42.9917 49.199C43.0962 49.1468 43.1784 49.1398 43.2468 49.1598C43.2521 49.169 43.2498 49.1806 43.259 49.189C43.5387 49.471 43.6586 49.9934 44.0273 50.2047C44.5836 50.5236 44.8379 50.1079 45.5079 50.6511C46.1056 51.1367 46.4229 52.0817 46.7494 52.9468C46.363 52.671 45.9627 52.3867 45.5079 52.0878C44.2309 51.2496 43.2421 50.8094 42.8111 50.6365C42.7566 50.3515 42.7374 50.0656 42.7627 49.7791C42.7981 49.5793 42.8772 49.3504 42.9917 49.199Z" fill="#C49362"/>
<path d="M50.8022 54.2781C51.0312 54.4402 51.1111 54.7805 50.9782 55.0279" stroke="#C49362" stroke-width="0.4" stroke-miterlimit="10" stroke-linecap="round" stroke-linejoin="round"/>
<path d="M52.2013 38.2214C52.5785 38.7931 53.0326 39.314 53.5481 39.765" stroke="#C49362" stroke-width="0.4" stroke-miterlimit="10" stroke-linecap="round" stroke-linejoin="round"/>
<path d="M55.7947 38.8828C58.1764 39.5021 60.6811 39.6488 63.1189 39.3108" stroke="#C49362" stroke-width="0.4" stroke-miterlimit="10" stroke-linecap="round" stroke-linejoin="round"/>
<path d="M52.7876 31.2567C53.0242 31.8529 53.3085 32.4291 53.6373 32.98C53.6873 33.0637 53.7441 33.1529 53.8348 33.1905C53.9377 33.2335 54.0553 33.1997 54.1613 33.1644C55.9799 32.5536 57.6771 31.5633 59.5617 31.2045C59.8245 31.1545 60.0942 31.1169 60.3577 31.1614C60.5866 31.1998 60.8002 31.2974 61.01 31.3958C62.3991 32.0457 63.759 32.7595 65.0827 33.534" stroke="#C49362" stroke-width="0.4" stroke-miterlimit="10" stroke-linecap="round" stroke-linejoin="round"/>
<path d="M53.3031 30.931C53.4337 31.2075 53.6043 31.5164 53.9032 31.5771C54.0906 31.6147 54.2804 31.5425 54.4579 31.4718C55.8769 30.9025 57.3067 30.3248 58.8118 30.0551C59.1875 29.9875 59.5725 29.9398 59.9489 30.0005C60.3277 30.062 60.6796 30.2295 61.0215 30.4031C62.472 31.1399 63.8511 32.0173 65.1327 33.02" stroke="#C49362" stroke-width="0.4" stroke-miterlimit="10" stroke-linecap="round" stroke-linejoin="round"/>
<path d="M46.8248 39.9546C47.1683 40.2266 47.4418 40.5861 47.6123 40.9895" stroke="#C49362" stroke-width="0.4" stroke-miterlimit="10" stroke-linecap="round" stroke-linejoin="round"/>
<path d="M47.3817 39.6665C47.6168 39.864 47.8181 40.1014 47.9733 40.3657" stroke="#C49362" stroke-width="0.4" stroke-miterlimit="10" stroke-linecap="round" stroke-linejoin="round"/>
<path d="M47.885 39.4568C48.0225 39.5498 48.1393 39.6734 48.2254 39.8148" stroke="#C49362" stroke-width="0.4" stroke-miterlimit="10" stroke-linecap="round" stroke-linejoin="round"/>
<path d="M39.0342 53.1948C40.6138 53.3224 42.1527 53.9163 43.4081 54.8828" stroke="#C49362" stroke-width="0.4" stroke-miterlimit="10" stroke-linecap="round" stroke-linejoin="round"/>
<path d="M53.1556 33.2833C52.7761 32.9368 52.4672 32.5135 52.2513 32.0471" stroke="#C49362" stroke-width="0.4" stroke-miterlimit="10" stroke-linecap="round" stroke-linejoin="round"/>
<path d="M52.4241 33.4417C52.1952 33.1589 52.0492 32.8101 52.0077 32.4482" stroke="#C49362" stroke-width="0.4" stroke-miterlimit="10" stroke-linecap="round" stroke-linejoin="round"/>
<path d="M56.2288 40.7998C56.1996 42.2949 56.4048 43.7939 56.8342 45.226" stroke="#C49362" stroke-width="0.4" stroke-miterlimit="10" stroke-linecap="round" stroke-linejoin="round"/>
<path d="M57.1454 41.8184C57.1577 43.2658 57.3836 44.7118 57.8146 46.094" stroke="#C49362" stroke-width="0.4" stroke-miterlimit="10" stroke-linecap="round" stroke-linejoin="round"/>
<path d="M57.8945 41.6418C57.8461 42.9664 58.0658 44.3009 58.5376 45.5394" stroke="#C49362" stroke-width="0.4" stroke-miterlimit="10" stroke-linecap="round" stroke-linejoin="round"/>
<path d="M58.6974 42.105C58.732 43.083 58.9502 44.0549 59.3366 44.9538" stroke="#C49362" stroke-width="0.4" stroke-miterlimit="10" stroke-linecap="round" stroke-linejoin="round"/>
<path d="M59.4242 42.4199C59.554 43.5071 59.8414 44.5742 60.2739 45.58" stroke="#C49362" stroke-width="0.4" stroke-miterlimit="10" stroke-linecap="round" stroke-linejoin="round"/>
<path d="M59.9666 41.9768C60.0856 42.8581 60.3407 43.7209 60.7195 44.5253" stroke="#C49362" stroke-width="0.4" stroke-miterlimit="10" stroke-linecap="round" stroke-linejoin="round"/>
<path d="M60.6196 42.501C60.6842 42.8943 60.7848 43.2816 60.9185 43.6573" stroke="#C49362" stroke-width="0.4" stroke-miterlimit="10" stroke-linecap="round" stroke-linejoin="round"/>
</svg>
