<svg width="88" height="90" viewBox="0 0 88 90" fill="none" xmlns="http://www.w3.org/2000/svg">
<path d="M47.2261 22.6177C47.1823 21.6666 47.0202 20.6071 46.6099 19.6629C45.5312 17.182 45.6387 14.9163 46.0705 11.4643C46.5023 8.0123 44.7759 4.56033 44.129 3.91265C43.4821 3.26574 42.8352 1 42.8352 1C41.7573 2.18703 44.4532 8.65921 42.9881 11.4643C41.5229 14.2694 42.1875 17.182 42.8352 19.8787C43.0473 20.7623 43.0142 21.6151 42.8759 22.3665C43.1533 22.3565 43.4306 22.3458 43.7111 22.3458C44.9065 22.3458 46.0805 22.4395 47.2261 22.6177Z" stroke="#C49362" stroke-width="0.4" stroke-miterlimit="10" stroke-linecap="round" stroke-linejoin="round"/>
<path d="M41.8879 67.5756C41.944 68.4761 42.1084 69.4564 42.4918 70.3369C43.5705 72.8178 43.463 75.0835 43.0312 78.5355C42.5994 81.9875 44.3258 85.4395 44.9727 86.0871C45.6196 86.734 46.2665 88.9998 46.2665 88.9998C47.3444 87.8127 44.6485 81.3405 46.1136 78.5355C47.5788 75.7304 46.9142 72.8178 46.2665 70.121C46.0422 69.1883 46.0929 68.2894 46.2504 67.5088C45.416 67.6018 44.5693 67.654 43.7104 67.654C43.0965 67.6548 42.4895 67.6233 41.8879 67.5756Z" stroke="#C49362" stroke-width="0.4" stroke-miterlimit="10" stroke-linecap="round" stroke-linejoin="round"/>
<path d="M66.3147 47.3156C68.1087 46.7962 69.9134 46.9053 72.4435 47.2219C75.4775 47.6014 78.5107 46.084 79.0793 45.5155C79.6478 44.9469 81.6393 44.3784 81.6393 44.3784C80.5967 43.4311 74.9082 45.7998 72.4435 44.5128C71.5891 44.0665 70.7225 43.8483 69.8573 43.7737C69.8573 43.7737 67.063 43.5555 66.3331 43.7737" stroke="#C49362" stroke-width="0.4" stroke-miterlimit="10" stroke-linecap="round" stroke-linejoin="round"/>
<path d="M21.1039 43.5947C19.3107 44.1126 17.5067 44.0035 14.979 43.6877C11.945 43.3082 8.91174 44.8256 8.34319 45.3941C7.77465 45.9626 5.7832 46.5312 5.7832 46.5312C6.82579 47.4785 12.5143 45.1098 14.979 46.3967C17.0204 47.4624 19.1256 47.2449 21.1354 46.8154C21.0878 46.2154 21.0563 45.6115 21.0563 44.9992C21.0563 44.5282 21.0755 44.0603 21.1039 43.5947Z" stroke="#C49362" stroke-width="0.4" stroke-miterlimit="10" stroke-linecap="round" stroke-linejoin="round"/>
<path d="M52.5021 16.8184C53.5685 13.9534 52.7894 10.652 52.3669 9.96744C51.9443 9.28288 51.8482 7.2146 51.8482 7.2146C50.6866 8.0121 51.6846 14.0925 49.8653 16.1953C48.1942 18.1268 48.0413 20.4994 48.0352 22.762C49.1438 22.9764 50.2241 23.2714 51.269 23.6409C50.9447 21.4351 51.4825 19.5597 52.5021 16.8184Z" stroke="#C49362" stroke-width="0.4" stroke-miterlimit="10" stroke-linecap="round" stroke-linejoin="round"/>
<path d="M36.3561 73.5686C35.2897 76.4336 36.0688 79.735 36.4921 80.4195C36.9147 81.1041 37.0107 83.1724 37.0107 83.1724C38.1724 82.3749 37.1744 76.2945 38.9937 74.1917C40.704 72.2148 40.8246 69.7762 40.8246 67.4667C39.7228 67.3261 38.6464 67.1079 37.6 66.8152C37.9012 68.9903 37.3657 70.8557 36.3561 73.5686Z" stroke="#C49362" stroke-width="0.4" stroke-miterlimit="10" stroke-linecap="round" stroke-linejoin="round"/>
<path d="M75.8907 50.9936C73.4974 48.923 70.5103 48.9008 67.7367 48.9107C67.1397 48.913 66.5812 48.8124 66.0679 48.658C65.8421 50.0478 65.4925 51.3954 65.0261 52.6877C65.6984 52.753 66.4006 52.7568 67.079 52.6339C69.742 52.1545 71.9216 52.7799 75.1823 53.9931C78.443 55.2062 82.1992 54.3196 82.9783 53.8386C83.7574 53.3577 86.1107 53.2486 86.1107 53.2486C85.2025 51.9271 78.284 53.0634 75.8907 50.9936Z" stroke="#C49362" stroke-width="0.4" stroke-miterlimit="10" stroke-linecap="round" stroke-linejoin="round"/>
<path d="M20.3432 37.366C17.6802 37.8454 15.5005 37.22 12.2399 36.0069C8.97919 34.7937 5.22296 35.6804 4.4439 36.1613C3.66484 36.6423 1.31152 36.7514 1.31152 36.7514C2.21889 38.0736 9.13746 36.9373 11.5307 39.0079C13.924 41.0785 16.9112 41.1015 19.6847 41.0907C20.2817 41.0884 20.841 41.1868 21.3543 41.3405C21.5801 39.9506 21.9305 38.603 22.3968 37.3099C21.7246 37.2439 21.0216 37.2439 20.3432 37.366Z" stroke="#C49362" stroke-width="0.4" stroke-miterlimit="10" stroke-linecap="round" stroke-linejoin="round"/>
<path d="M57.6383 23.6365C57.7835 20.9351 58.8937 18.9567 60.8237 16.0625C62.7537 13.1683 62.7545 9.30837 62.4648 8.44018C62.1752 7.572 62.6108 5.25635 62.6108 5.25635C61.1157 5.83565 60.6309 12.8303 58.0663 14.6834C55.5017 16.5366 54.7925 19.4392 54.1656 22.1406C53.9605 23.0241 53.5502 23.7709 53.0923 24.3802C54.4238 24.9871 55.6861 25.7186 56.8647 26.5606C57.2527 25.6894 57.583 24.6668 57.6383 23.6365Z" stroke="#C49362" stroke-width="0.4" stroke-miterlimit="10" stroke-linecap="round" stroke-linejoin="round"/>
<path d="M31.2862 67.1156C31.141 69.817 30.0308 71.7954 28.1008 74.6896C26.1708 77.5838 26.17 81.4437 26.4597 82.3119C26.7494 83.1801 26.3137 85.4958 26.3137 85.4958C27.8088 84.9165 28.2936 77.9218 30.8582 76.0687C33.4228 74.2155 34.132 71.3129 34.7589 68.6115C34.9748 67.6804 35.4197 66.9013 35.9075 66.2751C34.53 65.7696 33.2154 65.1342 31.9777 64.3835C31.6265 65.2125 31.3377 66.1599 31.2862 67.1156Z" stroke="#C49362" stroke-width="0.4" stroke-miterlimit="10" stroke-linecap="round" stroke-linejoin="round"/>
<path d="M68.8108 59.0713C71.3547 60.7678 74.746 60.7677 75.5096 60.5134C76.2726 60.2591 78.3078 60.6417 78.3078 60.6417C77.7992 59.3279 71.652 58.9023 70.0232 56.6481C68.674 54.7819 66.6934 54.0343 64.7042 53.5188C64.297 54.5207 63.8199 55.4864 63.2798 56.4115C65.1191 56.7495 66.6857 57.6546 68.8108 59.0713Z" stroke="#C49362" stroke-width="0.4" stroke-miterlimit="10" stroke-linecap="round" stroke-linejoin="round"/>
<path d="M18.6108 30.9762C16.0669 29.2797 12.6756 29.2798 11.9119 29.5341C11.149 29.7884 9.11377 29.4058 9.11377 29.4058C9.62239 30.7196 15.7696 31.1452 17.3984 33.3994C18.7437 35.261 20.7167 36.0093 22.7012 36.5241C23.1061 35.5214 23.5802 34.5557 24.1187 33.6307C22.2886 33.2895 20.7267 32.3868 18.6108 30.9762Z" stroke="#C49362" stroke-width="0.4" stroke-miterlimit="10" stroke-linecap="round" stroke-linejoin="round"/>
<path d="M60.0307 29.2958C60.7268 27.1699 62.0482 25.7308 64.1918 23.731C66.4276 21.645 67.2074 18.3444 67.1352 17.543C67.063 16.7417 67.9027 14.8494 67.9027 14.8494C66.5067 15.0422 64.6797 20.9274 62.112 21.9946C59.7502 22.9757 58.5525 25.0332 57.5337 27.0562C58.4203 27.7407 59.2547 28.4891 60.0307 29.2958Z" stroke="#C49362" stroke-width="0.4" stroke-miterlimit="10" stroke-linecap="round" stroke-linejoin="round"/>
<path d="M24.3637 67.2632C22.128 69.3491 21.3481 72.6498 21.4204 73.4511C21.4926 74.2524 20.6528 76.1448 20.6528 76.1448C22.0488 75.9519 23.8759 70.0668 26.4435 68.9996C28.8537 67.9977 30.0523 65.8757 31.0856 63.8128C30.1729 63.1989 29.307 62.5212 28.4949 61.7844C27.7911 63.8627 26.4781 65.291 24.3637 67.2632Z" stroke="#C49362" stroke-width="0.4" stroke-miterlimit="10" stroke-linecap="round" stroke-linejoin="round"/>
<path d="M59.3262 61.4055C59.9009 61.7666 60.5301 62.0862 61.1955 62.2813C63.7915 63.0435 65.4611 64.5785 67.8344 67.1224C70.2077 69.6662 73.9639 70.5536 74.8759 70.4714C75.7878 70.3892 77.9414 71.345 77.9414 71.345C77.7217 69.7569 71.0251 67.6779 69.8112 64.7553C68.5973 61.8334 65.9351 60.4758 63.4497 59.245C62.9134 58.9791 62.4585 58.6388 62.0675 58.27C61.2508 59.3987 60.3319 60.4474 59.3262 61.4055Z" stroke="#C49362" stroke-width="0.4" stroke-miterlimit="10" stroke-linecap="round" stroke-linejoin="round"/>
<path d="M28.0985 28.5927C27.5238 28.2316 26.8922 27.9143 26.2269 27.7192C23.6308 26.957 21.9613 25.4219 19.588 22.8788C17.2147 20.335 13.4585 19.4476 12.5465 19.5298C11.6345 19.612 9.48096 18.6562 9.48096 18.6562C9.70069 20.2443 16.3972 22.3234 17.6111 25.246C18.8251 28.1679 21.4872 29.5255 23.9727 30.7563C24.509 31.0221 24.9653 31.3617 25.3556 31.7297C26.1723 30.6003 27.0912 29.5516 28.0985 28.5927Z" stroke="#C49362" stroke-width="0.4" stroke-miterlimit="10" stroke-linecap="round" stroke-linejoin="round"/>
<path d="M65.7238 32.1239C67.0622 29.7721 68.94 28.4998 71.9609 26.775C74.9819 25.0501 76.709 21.5982 76.8389 20.6923C76.9687 19.7865 78.3932 17.9095 78.3932 17.9095C76.7966 17.7582 73.2348 23.7978 70.1116 24.308C66.9885 24.8181 65.0562 27.0969 63.2868 29.2328C62.7075 29.932 62.006 30.4168 61.323 30.7563C62.2357 31.8834 63.0417 33.0997 63.7278 34.3904C64.4631 33.7842 65.2145 33.019 65.7238 32.1239Z" stroke="#C49362" stroke-width="0.4" stroke-miterlimit="10" stroke-linecap="round" stroke-linejoin="round"/>
<path d="M22.7057 59.2214C21.3673 61.5724 19.4896 62.8455 16.4686 64.5704C13.4476 66.2952 11.7205 69.7472 11.5907 70.653C11.4608 71.5588 10.0364 73.4358 10.0364 73.4358C11.6329 73.5872 15.1948 67.5475 18.3179 67.0374C21.4411 66.5272 23.3734 64.2484 25.1428 62.1126C25.7559 61.3727 26.5065 60.8733 27.2264 60.5314C26.2284 59.4727 25.3325 58.3187 24.5512 57.0833C23.8651 57.6687 23.1797 58.3871 22.7057 59.2214Z" stroke="#C49362" stroke-width="0.4" stroke-miterlimit="10" stroke-linecap="round" stroke-linejoin="round"/>
<path d="M59.8748 68.8157C61.3907 71.471 64.4239 72.9884 65.2207 73.1021C66.0166 73.2158 67.6662 74.4681 67.6662 74.4681C67.7991 73.0652 62.4916 69.9351 62.0429 67.1908C61.6711 64.9127 60.2274 63.3562 58.6739 62.0032C57.868 62.7131 57.0113 63.3661 56.1101 63.957C57.6098 65.0825 58.6063 66.5946 59.8748 68.8157Z" stroke="#C49362" stroke-width="0.4" stroke-miterlimit="10" stroke-linecap="round" stroke-linejoin="round"/>
<path d="M27.5467 21.2317C26.0309 18.5765 22.9976 17.0591 22.2009 16.9454C21.4049 16.8317 19.7554 15.5793 19.7554 15.5793C19.6225 16.9823 24.9299 20.1123 25.3786 22.8567C25.7489 25.1217 27.1772 26.6736 28.7199 28.0213C29.5244 27.3106 30.3779 26.6567 31.2776 26.0651C29.7979 24.9411 28.8052 23.436 27.5467 21.2317Z" stroke="#C49362" stroke-width="0.4" stroke-miterlimit="10" stroke-linecap="round" stroke-linejoin="round"/>
<path d="M71.5531 35.1418C74.4858 34.2767 76.6593 31.673 76.9536 30.9246C77.2478 30.1755 78.8451 28.8587 78.8451 28.8587C77.5106 28.4069 73.2442 32.8531 70.4698 32.6587C67.9183 32.4797 65.9269 33.7835 64.1106 35.1372C64.5954 36.1376 65.0095 37.1794 65.3445 38.255C66.918 36.6669 68.7427 35.9708 71.5531 35.1418Z" stroke="#C49362" stroke-width="0.4" stroke-miterlimit="10" stroke-linecap="round" stroke-linejoin="round"/>
<path d="M16.4594 56.2587C13.5268 57.1238 11.3533 59.7276 11.059 60.4759C10.7648 61.225 9.16748 62.5419 9.16748 62.5419C10.502 62.9936 14.7684 58.5475 17.5428 58.7418C20.145 58.9239 22.1656 57.564 24.0111 56.1818C23.471 55.233 22.9985 54.2411 22.5982 53.2131C21.0401 54.7528 19.2284 55.442 16.4594 56.2587Z" stroke="#C49362" stroke-width="0.4" stroke-miterlimit="10" stroke-linecap="round" stroke-linejoin="round"/>
<path d="M51.6177 68.2771C53.5984 70.1203 54.4051 72.24 55.39 75.5767C56.375 78.9135 59.3368 81.3874 60.1889 81.7224C61.0409 82.0566 62.5399 83.8752 62.5399 83.8752C63.0539 82.3563 57.9946 77.5014 58.2159 74.3444C58.4371 71.1882 56.6639 68.7834 54.9913 66.5707C54.631 66.0943 54.3766 65.5865 54.1922 65.0833C52.9699 65.7225 51.6837 66.2565 50.3423 66.6667C50.6942 67.2437 51.1121 67.8077 51.6177 68.2771Z" stroke="#C49362" stroke-width="0.4" stroke-miterlimit="10" stroke-linecap="round" stroke-linejoin="round"/>
<path d="M35.8039 21.7233C33.8232 19.8802 33.0165 17.7604 32.0315 14.4237C31.0465 11.087 28.0847 8.61301 27.2327 8.27803C26.3806 7.94382 24.8817 6.12524 24.8817 6.12524C24.3677 7.64418 29.4269 12.4991 29.2057 15.656C28.9844 18.813 30.7576 21.217 32.4302 23.4297C32.7898 23.9061 33.0472 24.4132 33.2316 24.9156C34.4532 24.2772 35.7386 23.7432 37.0785 23.3337C36.7266 22.7567 36.3094 22.1935 35.8039 21.7233Z" stroke="#C49362" stroke-width="0.4" stroke-miterlimit="10" stroke-linecap="round" stroke-linejoin="round"/>
<path d="M68.8292 42.885C69.4969 42.8634 70.153 42.7259 70.7661 42.4616C72.5363 41.6987 74.4747 41.4843 77.1292 41.3384C80.6027 41.1471 83.6913 38.8322 84.2129 38.08C84.7346 37.3278 86.8482 36.2868 86.8482 36.2868C85.4883 35.4378 79.6001 39.2455 76.5791 38.3043C73.5581 37.3639 70.8107 38.5371 68.2722 39.6558C67.4424 40.0215 66.5988 40.1413 65.8367 40.1398C66.0572 41.1463 66.2078 42.1781 66.2892 43.2307C67.1236 43.0525 67.9741 42.9126 68.8292 42.885Z" stroke="#C49362" stroke-width="0.4" stroke-miterlimit="10" stroke-linecap="round" stroke-linejoin="round"/>
<path d="M18.563 48.3221C16.3142 49.8265 14.0661 50.1246 10.5918 50.3159C7.11834 50.5072 4.02976 52.8221 3.50808 53.5743C2.98641 54.3264 0.872803 55.3675 0.872803 55.3675C2.2327 56.2165 8.12098 52.4087 11.1419 53.3499C14.1629 54.2903 16.9104 53.1171 19.4488 51.9985C20.3255 51.612 21.2167 51.5006 22.0119 51.5168C21.5993 50.14 21.3112 48.7101 21.1668 47.2373C20.2924 47.4532 19.3597 47.7897 18.563 48.3221Z" stroke="#C49362" stroke-width="0.4" stroke-miterlimit="10" stroke-linecap="round" stroke-linejoin="round"/>
<path d="M47.5243 73.5332C47.6926 76.5856 49.7263 79.3 50.3878 79.7579C51.0493 80.2158 51.9636 82.0736 51.9636 82.0736C52.7096 80.8781 49.3637 75.7044 50.1903 73.0491C50.8764 70.8464 50.2825 68.8096 49.4989 66.9058C48.4694 67.177 47.4099 67.3752 46.3289 67.4996C47.1678 69.1784 47.383 70.9778 47.5243 73.5332Z" stroke="#C49362" stroke-width="0.4" stroke-miterlimit="10" stroke-linecap="round" stroke-linejoin="round"/>
<path d="M39.8975 16.5143C39.7292 13.4619 37.6955 10.7475 37.034 10.2895C36.3725 9.83164 35.4582 7.97388 35.4582 7.97388C34.7122 9.16936 38.0582 14.3431 37.2315 16.9984C36.5507 19.185 37.13 21.2087 37.9053 23.1002C38.934 22.8283 39.9912 22.6293 41.0722 22.504C40.2509 20.8376 40.0373 19.0474 39.8975 16.5143Z" stroke="#C49362" stroke-width="0.4" stroke-miterlimit="10" stroke-linecap="round" stroke-linejoin="round"/>
<path d="M46.2512 67.5096C46.2773 67.5065 46.3027 67.5027 46.3288 67.4996C46.3104 67.4627 46.295 67.4243 46.2758 67.3875C46.2666 67.4274 46.2589 67.4689 46.2512 67.5096Z" stroke="#C49362" stroke-width="0.4" stroke-miterlimit="10" stroke-linecap="round" stroke-linejoin="round"/>
<path d="M48.5483 40.9079C48.5483 40.9079 49.7868 37.9768 53.5469 36.8889C57.307 35.8017 60.8957 37.4866 60.8957 37.4866C60.8957 37.4866 55.7158 40.4446 48.5483 40.9079Z" fill="#C49362"/>
<path d="M43.7111 67.6549C56.2231 67.6549 66.3661 57.5119 66.3661 44.9999C66.3661 32.4879 56.2231 22.345 43.7111 22.345C31.1991 22.345 21.0562 32.4879 21.0562 44.9999C21.0562 57.5119 31.1991 67.6549 43.7111 67.6549Z" stroke="#C49362" stroke-width="0.4" stroke-miterlimit="10" stroke-linecap="round" stroke-linejoin="round"/>
<path d="M48.2703 40.6989C49.6716 38.0782 52.353 36.1821 55.291 35.7341" stroke="#C49362" stroke-width="0.4" stroke-miterlimit="10" stroke-linecap="round" stroke-linejoin="round"/>
<path d="M48.5891 41.1968C49.4896 41.7415 50.5375 42.0411 51.5901 42.0534" stroke="#C49362" stroke-width="0.4" stroke-miterlimit="10" stroke-linecap="round" stroke-linejoin="round"/>
<path d="M48.3911 41.5793C48.8867 41.9643 49.4445 42.2685 50.0368 42.4775" stroke="#C49362" stroke-width="0.4" stroke-miterlimit="10" stroke-linecap="round" stroke-linejoin="round"/>
<path d="M53.438 40.5929C56.0717 40.1542 58.6271 39.2476 60.9489 37.9285" stroke="#C49362" stroke-width="0.4" stroke-miterlimit="10" stroke-linecap="round" stroke-linejoin="round"/>
<path d="M47.9814 40.4455C48.5239 38.2043 50.2426 36.2836 52.4099 35.4968" stroke="#C49362" stroke-width="0.4" stroke-miterlimit="10" stroke-linecap="round" stroke-linejoin="round"/>
<path d="M46.2705 35.5099C46.5118 35.8088 46.753 36.1077 46.9943 36.4058C47.0765 36.5072 47.1687 36.6155 47.297 36.6409C47.4107 36.6632 47.5259 36.6148 47.6312 36.5656C48.7168 36.0647 49.7609 35.4746 50.865 35.0152C51.969 34.5557 53.1522 34.2276 54.3461 34.286C55.2259 34.3291 56.0802 34.5795 56.9177 34.853C58.0079 35.2088 59.085 35.6044 60.1453 36.0408" stroke="#C49362" stroke-width="0.4" stroke-miterlimit="10" stroke-linecap="round" stroke-linejoin="round"/>
<path d="M46.8142 34.6041C46.9633 34.82 47.1123 35.0366 47.2614 35.2525C47.2998 35.3078 47.342 35.3662 47.4058 35.387C47.4842 35.4123 47.5671 35.3708 47.6394 35.3309C49.1598 34.4896 50.6911 33.6183 52.376 33.195C52.7624 33.0982 53.1589 33.0252 53.5568 33.0475C53.9548 33.0705 54.3413 33.1889 54.7201 33.3126C56.5332 33.9065 58.2965 34.6525 59.9852 35.5414" stroke="#C49362" stroke-width="0.4" stroke-miterlimit="10" stroke-linecap="round" stroke-linejoin="round"/>
<path d="M45.7073 37.3477C45.5436 38.6469 45.3792 39.9453 45.2156 41.2445C45.0089 42.8818 44.8176 44.6235 45.5252 46.114C45.6059 46.2846 45.7011 46.4536 45.8448 46.575C46.053 46.7517 46.3342 46.8062 46.5954 46.8854C47.1517 47.0544 47.681 47.3748 47.9937 47.865C48.3064 48.3551 48.3618 49.0289 48.0391 49.5122C47.7479 49.9486 47.1947 50.1645 46.6715 50.1384C46.1475 50.1115 45.6535 49.8695 45.2386 49.5491C44.9566 50.1991 44.2298 50.6086 43.5222 50.6385" stroke="#C49362" stroke-width="0.4" stroke-miterlimit="10" stroke-linecap="round" stroke-linejoin="round"/>
<path d="M49.9761 55.0562C50.3395 55.0815 50.6614 55.3919 50.7014 55.7538" stroke="#C49362" stroke-width="0.4" stroke-miterlimit="10" stroke-linecap="round" stroke-linejoin="round"/>
<path d="M44.2874 51.5735C44.4157 52.003 44.5141 52.4417 44.5801 52.885C44.6216 53.1631 44.6508 53.4489 44.5955 53.7247C44.5394 54.0005 44.3873 54.2687 44.1399 54.4039" stroke="#C49362" stroke-width="0.4" stroke-miterlimit="10" stroke-linecap="round" stroke-linejoin="round"/>
<path d="M38.7048 40.9079C38.7048 40.9079 37.4663 37.9768 33.7062 36.8889C29.9462 35.8017 26.3574 37.4866 26.3574 37.4866C26.3574 37.4866 31.5373 40.4446 38.7048 40.9079Z" fill="#C49362"/>
<path d="M38.9832 40.6989C37.5818 38.0782 34.9004 36.1821 31.9624 35.7341" stroke="#C49362" stroke-width="0.4" stroke-miterlimit="10" stroke-linecap="round" stroke-linejoin="round"/>
<path d="M38.6651 41.1968C37.7646 41.7415 36.7166 42.0411 35.6641 42.0534" stroke="#C49362" stroke-width="0.4" stroke-miterlimit="10" stroke-linecap="round" stroke-linejoin="round"/>
<path d="M38.8632 41.5793C38.3677 41.9643 37.8099 42.2685 37.2175 42.4775" stroke="#C49362" stroke-width="0.4" stroke-miterlimit="10" stroke-linecap="round" stroke-linejoin="round"/>
<path d="M33.8154 40.5929C31.1816 40.1542 28.6263 39.2476 26.3044 37.9285" stroke="#C49362" stroke-width="0.4" stroke-miterlimit="10" stroke-linecap="round" stroke-linejoin="round"/>
<path d="M39.272 40.4455C38.7296 38.2043 37.0109 36.2836 34.8435 35.4968" stroke="#C49362" stroke-width="0.4" stroke-miterlimit="10" stroke-linecap="round" stroke-linejoin="round"/>
<path d="M40.9829 35.5099C40.7417 35.8088 40.5005 36.1077 40.2592 36.4058C40.177 36.5072 40.0848 36.6155 39.9565 36.6409C39.8428 36.6632 39.7275 36.6148 39.6223 36.5656C38.5367 36.0647 37.4925 35.4746 36.3885 35.0152C35.2844 34.5557 34.1013 34.2276 32.9073 34.286C32.0276 34.3291 31.1733 34.5795 30.3358 34.853C29.2456 35.2088 28.1684 35.6044 27.1082 36.0408" stroke="#C49362" stroke-width="0.4" stroke-miterlimit="10" stroke-linecap="round" stroke-linejoin="round"/>
<path d="M40.4398 34.6041C40.2908 34.82 40.1417 35.0366 39.9927 35.2525C39.9543 35.3078 39.912 35.3662 39.8482 35.387C39.7699 35.4123 39.6869 35.3708 39.6147 35.3309C38.0942 34.4896 36.563 33.6183 34.8781 33.195C34.4916 33.0982 34.0952 33.0252 33.6972 33.0475C33.2992 33.0705 32.9128 33.1889 32.534 33.3126C30.7208 33.9065 28.9575 34.6525 27.2688 35.5414" stroke="#C49362" stroke-width="0.4" stroke-miterlimit="10" stroke-linecap="round" stroke-linejoin="round"/>
<path d="M41.3363 37.3477C41.4999 38.6469 41.6643 39.9453 41.828 41.2445C42.0346 42.8818 42.2259 44.6235 41.5183 46.114C41.4377 46.2846 41.3424 46.4536 41.1987 46.575C40.9905 46.7517 40.7093 46.8062 40.4481 46.8854C39.8918 47.0544 39.3625 47.3748 39.0498 47.865C38.7371 48.3551 38.6818 49.0289 39.0044 49.5122C39.2956 49.9486 39.8488 50.1645 40.372 50.1384C40.8952 50.1123 41.39 49.8695 41.8049 49.5491C42.0869 50.1991 42.8137 50.6086 43.5213 50.6385" stroke="#C49362" stroke-width="0.4" stroke-miterlimit="10" stroke-linecap="round" stroke-linejoin="round"/>
<path d="M37.0676 55.0562C36.7042 55.0815 36.3822 55.3919 36.3423 55.7538" stroke="#C49362" stroke-width="0.4" stroke-miterlimit="10" stroke-linecap="round" stroke-linejoin="round"/>
<path d="M42.7563 51.5735C42.628 52.003 42.5296 52.4417 42.4635 52.885C42.422 53.1631 42.3929 53.4489 42.4482 53.7247C42.5043 54.0005 42.6564 54.2687 42.9038 54.4039" stroke="#C49362" stroke-width="0.4" stroke-miterlimit="10" stroke-linecap="round" stroke-linejoin="round"/>
<path d="M37.2183 63.1903C38.8279 61.6682 40.9561 60.7056 43.1626 60.5027C45.3684 60.2999 47.6372 60.8585 49.4973 62.0616" stroke="#C49362" stroke-width="0.4" stroke-miterlimit="10" stroke-linecap="round" stroke-linejoin="round"/>
<path d="M25.3357 45.3256C26.3598 44.2538 27.732 43.5201 29.191 43.262" stroke="#C49362" stroke-width="0.4" stroke-miterlimit="10" stroke-linecap="round" stroke-linejoin="round"/>
<path d="M26.6572 45.2142C28.3736 44.0971 30.3159 43.3288 32.3319 42.9692" stroke="#C49362" stroke-width="0.4" stroke-miterlimit="10" stroke-linecap="round" stroke-linejoin="round"/>
<path d="M26.8137 46.3814C28.4702 45.1536 30.3909 44.2824 32.4062 43.8452" stroke="#C49362" stroke-width="0.4" stroke-miterlimit="10" stroke-linecap="round" stroke-linejoin="round"/>
<path d="M28.9897 46.3382C30.4096 45.4547 31.9231 44.7217 33.4974 44.1562" stroke="#C49362" stroke-width="0.4" stroke-miterlimit="10" stroke-linecap="round" stroke-linejoin="round"/>
<path d="M29.3518 47.3071C30.4413 46.6133 31.6083 46.0425 32.8253 45.6091" stroke="#C49362" stroke-width="0.4" stroke-miterlimit="10" stroke-linecap="round" stroke-linejoin="round"/>
<path d="M31.4468 47.2726C32.57 46.5604 33.7778 45.9819 35.0371 45.5547" stroke="#C49362" stroke-width="0.4" stroke-miterlimit="10" stroke-linecap="round" stroke-linejoin="round"/>
<path d="M62.0438 45.3256C61.0197 44.2538 59.6475 43.5201 58.1885 43.262" stroke="#C49362" stroke-width="0.4" stroke-miterlimit="10" stroke-linecap="round" stroke-linejoin="round"/>
<path d="M60.722 45.2142C59.0057 44.0971 57.0634 43.3288 55.0474 42.9692" stroke="#C49362" stroke-width="0.4" stroke-miterlimit="10" stroke-linecap="round" stroke-linejoin="round"/>
<path d="M60.5654 46.3814C58.9089 45.1536 56.9882 44.2824 54.9729 43.8452" stroke="#C49362" stroke-width="0.4" stroke-miterlimit="10" stroke-linecap="round" stroke-linejoin="round"/>
<path d="M58.3897 46.3382C56.9699 45.4547 55.4563 44.7217 53.8821 44.1562" stroke="#C49362" stroke-width="0.4" stroke-miterlimit="10" stroke-linecap="round" stroke-linejoin="round"/>
<path d="M58.0279 47.3071C56.9385 46.6133 55.7714 46.0425 54.5544 45.6091" stroke="#C49362" stroke-width="0.4" stroke-miterlimit="10" stroke-linecap="round" stroke-linejoin="round"/>
<path d="M55.9333 47.2726C54.81 46.5604 53.6023 45.9819 52.343 45.5547" stroke="#C49362" stroke-width="0.4" stroke-miterlimit="10" stroke-linecap="round" stroke-linejoin="round"/>
<path d="M38.2801 47.729C38.234 48.3306 38.2471 48.9521 38.4668 49.5138C38.6866 50.0754 39.146 50.5717 39.7353 50.7023" stroke="#C49362" stroke-width="0.4" stroke-miterlimit="10" stroke-linecap="round" stroke-linejoin="round"/>
<path d="M47.0378 50.6247C47.3467 50.5663 47.6594 50.5064 47.9421 50.3681C48.3977 50.1461 48.7473 49.7181 48.8756 49.2279C49.0039 48.7378 48.9079 48.1938 48.6198 47.7766" stroke="#C49362" stroke-width="0.4" stroke-miterlimit="10" stroke-linecap="round" stroke-linejoin="round"/>
<path d="M50.2972 55.6584C50.3018 55.6323 50.2979 55.6085 50.288 55.5839C50.2857 55.5778 50.2887 55.5708 50.2857 55.5655C50.2849 55.5639 50.2826 55.5639 50.2818 55.5624C50.2803 55.5601 50.281 55.557 50.2795 55.5555C50.2611 55.5286 50.2334 55.5117 50.2034 55.5025C50.195 55.4994 50.1873 55.5025 50.1781 55.5017C50.1589 55.4994 50.1404 55.494 50.1212 55.4994C49.5035 55.6807 48.8451 55.6892 48.2205 55.547C48.2097 55.5424 48.2074 55.5309 48.1936 55.5286C48.109 55.514 48.0291 55.4902 47.9454 55.4733C47.5974 55.3665 47.2624 55.2151 46.9581 55.0123C46.8644 54.9493 46.7737 54.8824 46.6831 54.8164C46.5048 54.685 46.3204 54.5498 46.1161 54.4453C45.894 54.33 45.4592 54.1641 45.0351 54.3331C44.9214 54.3784 44.8023 54.4799 44.6655 54.5982C44.4819 54.7564 44.2645 54.9408 44.004 55.043C43.9902 55.0484 43.9763 55.053 43.9625 55.0584C43.878 55.0883 43.7904 55.1114 43.6967 55.1191C43.6844 55.1199 43.6721 55.1229 43.6606 55.1268C43.4516 55.2059 42.8423 54.9524 42.7486 54.8924C42.6695 54.8333 42.5965 54.7664 42.5227 54.6996C42.3698 54.5605 42.2116 54.4161 42.0049 54.3339C41.5815 54.1649 41.1467 54.3316 40.9246 54.446C40.7195 54.5513 40.5351 54.6865 40.3569 54.8171C40.267 54.8832 40.1763 54.9493 40.0834 55.0123C39.1645 55.6254 37.982 55.809 36.9202 55.4986C36.9103 55.4955 36.9003 55.5002 36.8895 55.5002C36.8772 55.4994 36.868 55.4994 36.8565 55.5017C36.8327 55.5063 36.8127 55.5163 36.7935 55.5317C36.7873 55.5363 36.7789 55.5355 36.7735 55.5409C36.7712 55.5432 36.7727 55.5463 36.7704 55.5486C36.7681 55.5516 36.7635 55.5524 36.7612 55.5555C36.7435 55.5816 36.7359 55.6116 36.7366 55.6423C36.7366 55.6461 36.7397 55.6492 36.7405 55.6538C36.7435 55.6784 36.7497 55.703 36.765 55.7237C38.42 57.8819 40.8878 59.1957 43.3686 59.2387H43.6706C46.1499 59.1965 48.6169 57.8827 50.2711 55.7237C50.2787 55.7137 50.278 55.7015 50.2826 55.6907C50.291 55.6784 50.2956 55.67 50.2972 55.6584ZM45.503 58.6748L45.5007 58.6733C45.503 58.6733 45.506 58.6733 45.5083 58.6725C45.5068 58.674 45.5045 58.6748 45.503 58.6748ZM41.4893 57.7774C41.4502 57.7098 41.4471 57.6207 41.454 57.5323C41.4917 57.3994 41.5354 57.265 41.6115 57.1559C41.673 57.0675 41.7306 56.9861 41.8481 56.9607C42.0149 56.9254 42.071 56.9807 42.1255 57.1351C42.1947 57.3295 42.1539 57.6245 41.9987 57.7851C41.8989 57.8881 41.5677 57.9134 41.4893 57.7774ZM43.2611 57.623C43.3002 57.4202 43.3863 57.3456 43.5123 57.3134C43.6053 57.3134 43.6982 57.3134 43.7912 57.3134C43.8027 57.3134 43.8073 57.3041 43.8181 57.3018L43.8204 57.3026C44.0294 57.3065 44.0255 57.928 44.0301 58.0471C44.0347 58.157 44.0632 58.4236 43.9948 58.5204C43.9141 58.6341 43.6744 58.6325 43.5492 58.6133C43.2695 58.5711 43.2534 58.1862 43.2495 57.9541C43.248 57.8473 43.2403 57.7275 43.2611 57.623ZM47.7026 56.6104C47.7011 56.6081 47.7003 56.6065 47.6988 56.6042C47.7026 56.6042 47.7057 56.6035 47.7095 56.6035C47.708 56.6065 47.7049 56.6081 47.7026 56.6104ZM47.1118 56.2969C45.9447 56.0748 44.9721 56.0403 44.5718 56.2032C44.5065 56.2301 44.4381 56.2685 44.3636 56.3107C44.067 56.4805 43.6959 56.6903 42.9691 56.3107C42.3038 55.965 41.3895 56.144 40.5466 56.3422C41.1859 56.1302 41.822 55.9166 42.5135 55.9465C42.5173 55.9465 42.5189 55.9427 42.5227 55.9427C42.9322 56.0272 43.3072 56.27 43.7343 56.2469C44.1769 56.2231 44.5595 55.9419 44.9882 55.8505C44.9913 55.8505 44.992 55.8536 44.9959 55.8536C45.9409 55.8505 46.9497 56.2815 47.9131 56.293C47.6342 56.3338 47.36 56.343 47.1118 56.2969ZM45.1664 56.9745C45.1787 56.973 45.1833 56.963 45.1933 56.9599C45.3124 56.9223 45.4307 56.8962 45.5514 56.8892C45.7918 56.9238 45.9125 57.1005 46.0085 57.4171C46.1092 57.7482 46.2159 58.1708 45.8003 58.3068C45.4453 58.4228 45.1933 58.3583 45.0888 57.9703C45.0258 57.7344 44.7762 57.0137 45.1664 56.9745ZM45.1419 54.5974C45.4607 54.4729 45.808 54.6082 45.987 54.6988C46.1714 54.7933 46.3381 54.9163 46.5156 55.0461C46.5171 55.0469 46.5179 55.0476 46.5194 55.0484C46.5148 55.0461 46.5094 55.0453 46.5048 55.043C46.1583 54.8917 45.8372 54.6681 45.4476 54.6374C45.3017 54.6258 45.1618 54.6443 45.0235 54.6735C45.0689 54.6389 45.1096 54.6105 45.1419 54.5974ZM40.2439 55.2482C40.3407 55.1836 40.4345 55.1152 40.5282 55.0461C40.7049 54.9155 40.8724 54.7933 41.0576 54.6981C41.2366 54.6074 41.5846 54.4722 41.9019 54.5966C42.0602 54.6604 42.1931 54.7803 42.3337 54.9086C42.3522 54.9247 42.3714 54.9393 42.3898 54.9562C41.9665 54.8517 41.5585 54.7895 41.0706 54.9931C40.6619 55.1636 40.3123 55.4571 39.9097 55.6438C39.3197 55.9181 38.7127 55.9719 38.0904 55.9243C38.8518 55.9028 39.6062 55.6746 40.2439 55.2482Z" fill="#C49362"/>
</svg>
