<svg width="92" height="125" viewBox="0 0 92 125" fill="none" xmlns="http://www.w3.org/2000/svg">
<path d="M65.4653 101.504C65.6368 101.531 65.8083 101.558 65.9805 101.585C68.2649 101.926 70.2984 102.874 72.1613 104.198C75.5078 106.577 77.8986 109.703 79.343 113.547C79.7365 114.595 79.9994 115.68 80.1165 116.795C80.1482 117.096 80.115 117.402 80.1112 117.711C79.5756 118.022 79.0854 118.323 78.58 118.598C76.2413 119.87 73.7915 120.884 71.2669 121.724C67.3826 123.017 63.3978 123.853 59.3397 124.363C55.0263 124.905 50.6955 125.071 46.3557 124.864C38.2403 124.477 30.3372 123.014 22.7468 120.049C21.4709 119.551 20.2321 118.956 18.9804 118.395C18.762 118.298 18.5671 118.149 18.3299 118.005C18.3473 117.643 18.3443 117.297 18.3828 116.958C18.6525 114.568 19.5137 112.385 20.7442 110.341C22.5474 107.346 24.9338 104.937 28.0037 103.236C29.4866 102.414 31.0579 101.843 32.7507 101.637C32.8202 101.629 32.8867 101.599 33.0484 101.552C32.8248 101.46 32.6903 101.398 32.5513 101.347C31.116 100.818 29.7246 100.196 28.4124 99.4048C27.4198 98.8065 26.4914 98.1229 25.6831 97.2874C24.7185 96.2895 24.0152 95.1398 23.7304 93.7687C23.4985 92.6537 23.6133 91.5961 24.3732 90.6806C24.3959 90.6534 24.4027 90.6133 24.4246 90.562C15.7638 84.4061 9.95471 76.2401 7.22239 65.956C5.2349 58.4766 5.31951 50.9815 7.3984 43.5278C9.47653 36.0742 13.2815 29.6162 18.8338 24.2241C35.925 7.62768 62.9868 7.95855 79.6754 24.9251C88.5945 33.993 93.0235 46.5193 91.7997 58.9541C90.5087 72.0688 84.3393 82.4534 73.7726 90.3097C73.8202 90.3671 73.8715 90.4351 73.9297 90.497C74.386 90.9827 74.6269 91.5667 74.7055 92.2208C74.806 93.0563 74.6488 93.854 74.3444 94.6306C73.895 95.7766 73.1841 96.7367 72.2867 97.5684C71.0607 98.7045 69.6541 99.5695 68.1493 100.278C67.3962 100.632 66.6166 100.932 65.8491 101.257C65.7207 101.311 65.5922 101.364 65.4631 101.417C65.4646 101.446 65.4653 101.475 65.4653 101.504ZM91.249 54.9647C91.184 31.6006 72.2648 12.6889 48.8357 12.738C25.2442 12.7879 6.52967 31.9693 6.58557 55.1589C6.64148 78.5623 25.6499 97.4203 48.9354 97.3962C72.3041 97.372 91.2928 78.4882 91.249 54.9647ZM79.6164 117.329C79.5885 117.137 79.5734 116.984 79.5432 116.834C79.4578 116.406 79.3823 115.976 79.2735 115.554C78.3632 112.033 76.5419 109.045 73.9327 106.533C72.048 104.719 69.8988 103.331 67.3659 102.588C65.8921 102.156 64.3987 101.995 62.8788 102.289C62.2004 102.42 61.5289 102.592 60.8535 102.738C60.6163 102.79 60.3761 102.843 60.1351 102.855C59.8783 102.868 59.8216 102.795 59.7302 102.439C59.9282 102.357 60.1291 102.25 60.3436 102.191C61.1474 101.97 61.9587 101.777 62.7609 101.552C64.8655 100.961 66.9112 100.215 68.8382 99.1714C70.062 98.5081 71.2049 97.7308 72.1824 96.7299C73.0602 95.8302 73.6902 94.7877 73.9803 93.5557C74.1367 92.8917 74.1337 92.2314 73.8768 91.5893C73.7325 91.229 73.5369 90.9034 73.163 90.6783C65.9042 95.5832 57.8833 98.1138 49.1341 98.1629C40.3842 98.212 32.3428 95.7456 24.9791 90.92C24.8295 91.1421 24.6739 91.3302 24.5659 91.5417C24.2833 92.097 24.2252 92.6945 24.3158 93.3041C24.4729 94.3571 24.9254 95.2833 25.563 96.1248C26.15 96.8991 26.8744 97.5306 27.6563 98.0979C28.8354 98.9553 30.1174 99.6277 31.4597 100.187C35.2919 101.784 39.31 102.642 43.4119 103.142C44.9008 103.323 46.4018 103.405 47.8967 103.538C48.0939 103.555 48.288 103.601 48.4474 103.628C48.5366 103.849 48.4671 103.95 48.325 103.988C48.1664 104.03 47.9995 104.067 47.8363 104.067C47.272 104.066 46.707 104.064 46.1434 104.035C42.8649 103.869 39.6408 103.347 36.4613 102.542C34.7549 102.111 33.0597 102.136 31.3661 102.6C29.0039 103.248 26.9537 104.462 25.1445 106.087C22.0277 108.887 19.936 112.297 19.0672 116.422C18.9728 116.87 18.9146 117.325 18.8368 117.789C19.0597 117.9 19.2387 117.996 19.4238 118.078C21.9121 119.178 24.451 120.145 27.0549 120.94C36.0859 123.698 45.32 124.71 54.7347 124.158C58.6236 123.931 62.4671 123.384 66.2608 122.493C70.8303 121.421 75.2086 119.845 79.3022 117.523C79.4026 117.469 79.4963 117.405 79.6164 117.329Z" fill="#CCB47F"/>
<path d="M14.6601 38.4991C14.8021 38.7574 14.6805 38.9327 14.6224 39.1034C14.2545 40.1829 13.8473 41.2495 13.5059 42.3373C12.0698 46.9045 11.5267 51.5851 11.8455 56.3578C12.4007 64.6748 15.2327 72.1338 20.4209 78.665C24.1337 83.3395 28.71 86.9232 34.2207 89.2725C36.209 90.1201 38.2622 90.7607 40.3879 91.1618C40.4635 91.1761 40.5398 91.1913 40.61 91.22C40.7875 91.291 40.8706 91.4254 40.8313 91.6166C40.7943 91.7979 40.6553 91.8659 40.4907 91.8681C40.3773 91.8696 40.2625 91.8379 40.15 91.8137C33.2493 90.3354 27.3752 86.9927 22.456 81.9692C17.3547 76.7599 14.0165 70.558 12.273 63.4919C11.3643 59.807 10.9813 56.0639 11.1596 52.2717C11.3613 47.9818 12.2081 43.8293 13.904 39.8679C14.0603 39.503 14.2424 39.1487 14.4237 38.796C14.4758 38.694 14.5672 38.6132 14.6601 38.4991Z" fill="#CCB47F"/>
<path d="M24.2078 74.9605C24.5447 74.9726 24.6232 75.1728 24.7373 75.314C25.3809 76.1125 25.986 76.945 26.6628 77.7147C29.7993 81.281 33.636 83.8532 38.0272 85.6148C42.525 87.4187 47.2032 88.1787 52.0401 87.94C54.2248 87.8319 56.3762 87.4882 58.4823 86.8831C58.4944 86.8793 58.5072 86.8763 58.5193 86.8726C58.8456 86.7819 59.0405 86.8431 59.0964 87.0546C59.1508 87.2593 59.0171 87.4006 58.6749 87.495C55.9501 88.2459 53.1732 88.613 50.3472 88.6138C44.4346 88.6153 38.8945 87.1808 33.7524 84.2588C30.3991 82.3529 27.5082 79.9054 25.2261 76.7735C24.9095 76.3391 24.6331 75.8753 24.3528 75.4152C24.2803 75.2982 24.2644 75.1456 24.2078 74.9605Z" fill="#CCB47F"/>
<path d="M50.4389 17.9194C50.658 17.9134 50.8846 17.893 51.1097 17.902C52.6001 17.9617 54.0724 18.1747 55.5311 18.4777C62.9485 20.0164 69.2925 23.5548 74.6906 28.8268C78.2607 32.313 81.0882 36.3326 83.2094 40.8492C83.291 41.0229 83.3711 41.1982 83.439 41.3779C83.5146 41.5766 83.464 41.7292 83.2494 41.804C82.9858 41.7964 82.9284 41.5796 82.8355 41.4021C82.21 40.2101 81.6351 38.9893 80.9537 37.8305C76.9387 31.0024 71.4514 25.7137 64.3694 22.1233C60.4897 20.1562 56.3787 18.9301 52.0563 18.4202C51.6106 18.3674 51.1634 18.322 50.7199 18.2563C50.5749 18.2329 50.3581 18.2337 50.4389 17.9194Z" fill="#CCB47F"/>
<path d="M35.9365 73.5177C36.0868 73.5622 36.2447 73.5909 36.3875 73.6536C37.1384 73.9822 37.8772 74.3411 38.6363 74.6508C41.1617 75.6797 43.7988 76.2455 46.5055 76.5061C48.4242 76.6911 50.3452 76.7138 52.2685 76.5718C54.1147 76.4358 55.9345 76.1457 57.7233 75.6653C57.8835 75.6222 58.0459 75.5777 58.2106 75.5595C58.3616 75.5429 58.4946 75.6071 58.5437 75.7628C58.5973 75.9342 58.5271 76.0725 58.3692 76.1442C58.2189 76.2122 58.058 76.2613 57.8978 76.3051C56.0614 76.8075 54.1887 77.0998 52.2927 77.2449C49.3224 77.4722 46.3725 77.3091 43.4483 76.7387C41.4654 76.3527 39.5353 75.7922 37.7231 74.885C37.2094 74.6274 36.7274 74.3048 36.2402 73.9974C36.0982 73.9075 35.9894 73.7654 35.8647 73.6476C35.8882 73.6045 35.9123 73.5615 35.9365 73.5177Z" fill="#CCB47F"/>
<path d="M60.04 75.1365C60.1307 75.0564 60.2161 74.9409 60.3309 74.885C60.8582 74.6274 61.3922 74.3841 61.9271 74.1416C62.1907 74.0223 62.3962 74.057 62.4725 74.2172C62.551 74.3826 62.4717 74.5684 62.2262 74.7157C61.7095 75.0262 61.1633 75.2755 60.5734 75.4115C60.2629 75.4832 60.213 75.4553 60.04 75.1365Z" fill="#CCB47F"/>
<path d="M32.2991 119.206C32.3105 119.805 31.7371 120.404 31.1411 120.416C30.5519 120.428 30.0609 119.979 30.0473 119.416C30.0306 118.752 30.5602 118.172 31.1872 118.164C31.7817 118.158 32.2878 118.633 32.2991 119.206Z" fill="white"/>
<path d="M25.6174 116.135C25.0682 116.133 24.6444 115.701 24.6497 115.151C24.655 114.604 25.0894 114.186 25.6431 114.196C26.1802 114.205 26.5881 114.62 26.5896 115.157C26.5911 115.71 26.1658 116.137 25.6174 116.135Z" fill="white"/>
<path d="M56.2718 106.454C56.2643 105.916 56.6986 105.438 57.2055 105.425C57.6875 105.413 58.081 105.795 58.0969 106.29C58.1143 106.818 57.6686 107.312 57.164 107.324C56.6971 107.335 56.2786 106.927 56.2718 106.454Z" fill="white"/>
<path d="M35.5286 105.445C35.5293 104.947 35.9131 104.557 36.3958 104.563C36.914 104.569 37.3703 105.008 37.374 105.505C37.3778 105.984 36.9797 106.382 36.4932 106.385C35.969 106.389 35.5278 105.96 35.5286 105.445Z" fill="white"/>
<path d="M44.2316 107.535C44.7309 107.529 45.1358 107.912 45.1305 108.387C45.1253 108.864 44.7226 109.277 44.2528 109.285C43.7557 109.294 43.2851 108.851 43.2881 108.377C43.2919 107.872 43.6628 107.541 44.2316 107.535Z" fill="white"/>
<path d="M61.7813 117.291C62.2564 117.297 62.6787 117.77 62.6636 118.278C62.65 118.746 62.2791 119.101 61.8138 119.091C61.288 119.08 60.8514 118.675 60.871 118.218C60.8914 117.73 61.328 117.285 61.7813 117.291Z" fill="white"/>
<path d="M44.6108 121.113C45.0852 121.112 45.4893 121.514 45.4961 121.995C45.5021 122.468 45.1479 122.866 44.7143 122.872C44.2172 122.88 43.7617 122.474 43.7571 122.019C43.7511 121.531 44.1432 121.115 44.6108 121.113Z" fill="white"/>
<path d="M66.0908 118.902C66.1066 118.434 66.4859 118.04 66.9134 118.049C67.3591 118.058 67.7497 118.461 67.7398 118.9C67.7293 119.364 67.3425 119.761 66.9127 119.748C66.4511 119.734 66.0757 119.348 66.0908 118.902Z" fill="white"/>
<path d="M72.7634 108.784C73.2408 108.793 73.6298 109.209 73.611 109.691C73.5943 110.114 73.2506 110.442 72.8359 110.433C72.36 110.422 71.9151 109.965 71.9347 109.508C71.9536 109.077 72.2988 108.776 72.7634 108.784Z" fill="white"/>
<path d="M56.6301 121.129C56.6294 121.579 56.3332 121.887 55.8966 121.892C55.398 121.898 55.0158 121.51 55.0294 121.014C55.0422 120.573 55.398 120.216 55.8135 120.229C56.2668 120.244 56.6309 120.644 56.6301 121.129Z" fill="white"/>
<path d="M54.4469 112.128C54.4537 112.587 54.1402 112.952 53.7262 112.97C53.2896 112.988 52.9081 112.575 52.9043 112.08C52.9013 111.667 53.2435 111.315 53.6552 111.308C54.0896 111.3 54.4401 111.664 54.4469 112.128Z" fill="white"/>
<path d="M38.6762 113.327C38.6822 113.77 38.3544 114.115 37.9177 114.122C37.4441 114.129 37.0543 113.776 37.0513 113.334C37.0483 112.894 37.4048 112.545 37.8618 112.541C38.3204 112.538 38.6694 112.875 38.6762 113.327Z" fill="white"/>
<path d="M28.395 107.374C28.3981 106.949 28.7108 106.633 29.118 106.643C29.5478 106.654 29.9255 107.049 29.9134 107.473C29.9013 107.886 29.5931 108.196 29.2079 108.183C28.7561 108.168 28.392 107.805 28.395 107.374Z" fill="white"/>
<path d="M43.1973 118.646C43.1988 119.052 42.871 119.37 42.454 119.368C42.0272 119.366 41.688 119.033 41.6873 118.616C41.6865 118.184 41.9864 117.849 42.3792 117.844C42.8158 117.838 43.1966 118.212 43.1973 118.646Z" fill="white"/>
<path d="M75.1195 116.074C74.701 116.06 74.3656 115.707 74.3875 115.305C74.4086 114.928 74.7614 114.609 75.1308 114.633C75.5055 114.658 75.8371 115.036 75.8198 115.418C75.8031 115.803 75.4995 116.087 75.1195 116.074Z" fill="white"/>
<path d="M73.5431 117.458C73.9087 117.464 74.2487 117.81 74.2509 118.179C74.2532 118.545 73.9616 118.841 73.5998 118.839C73.2213 118.837 72.8942 118.505 72.8965 118.123C72.8988 117.747 73.1866 117.452 73.5431 117.458Z" fill="white"/>
<path d="M62.748 114.191C62.7555 114.556 62.4639 114.87 62.1149 114.873C61.7863 114.876 61.5469 114.628 61.5469 114.283C61.5469 113.894 61.7871 113.609 62.1248 113.597C62.4587 113.585 62.7412 113.854 62.748 114.191Z" fill="white"/>
<path d="M64.1231 106.386C63.8043 106.38 63.5656 106.132 63.5792 105.82C63.5935 105.493 63.8949 105.206 64.2069 105.221C64.5091 105.236 64.7244 105.466 64.7266 105.774C64.7289 106.118 64.4585 106.392 64.1231 106.386Z" fill="white"/>
<path d="M51.7842 108.153C52.1158 108.162 52.3605 108.424 52.3439 108.752C52.3281 109.066 52.081 109.291 51.76 109.285C51.4284 109.278 51.1829 109.018 51.1987 108.69C51.2123 108.384 51.4752 108.143 51.7842 108.153Z" fill="white"/>
<path d="M44.4172 113.22C44.4217 113.533 44.1785 113.77 43.8529 113.769C43.522 113.767 43.2833 113.545 43.2743 113.23C43.2644 112.905 43.4744 112.704 43.837 112.693C44.1724 112.682 44.4127 112.899 44.4172 113.22Z" fill="white"/>
<path d="M60.9889 109.528C60.9836 109.828 60.7471 110.073 60.4571 110.078C60.1398 110.083 59.8905 109.808 59.9041 109.468C59.9169 109.148 60.1353 108.94 60.448 108.949C60.763 108.959 60.9942 109.206 60.9889 109.528Z" fill="white"/>
<path d="M30.6658 112.998C30.3621 112.987 30.1143 112.717 30.1264 112.411C30.1392 112.093 30.3915 111.862 30.7073 111.879C31.0133 111.896 31.2497 112.167 31.2278 112.476C31.2074 112.768 30.949 113.008 30.6658 112.998Z" fill="white"/>
<path d="M68.9289 112.56C69.2333 112.551 69.4818 112.785 69.4781 113.076C69.475 113.351 69.2356 113.589 68.9598 113.592C68.6788 113.595 68.4499 113.37 68.4424 113.085C68.4341 112.785 68.6358 112.567 68.9289 112.56Z" fill="white"/>
<path d="M50.9245 112.926C50.9155 113.205 50.6775 113.437 50.4048 113.433C50.123 113.429 49.8964 113.19 49.91 112.912C49.9236 112.628 50.1472 112.433 50.4509 112.441C50.7394 112.449 50.9336 112.647 50.9245 112.926Z" fill="white"/>
<path d="M37.2735 119.62C37.5598 119.617 37.7789 119.838 37.7758 120.127C37.7728 120.417 37.556 120.634 37.2712 120.633C36.9842 120.633 36.7674 120.414 36.7666 120.127C36.7658 119.845 36.9879 119.622 37.2735 119.62Z" fill="white"/>
<path d="M66.7231 109.619C66.7148 109.891 66.4995 110.093 66.2223 110.09C65.9262 110.086 65.7275 109.867 65.7441 109.564C65.7592 109.286 65.9768 109.091 66.2548 109.108C66.5222 109.124 66.7307 109.351 66.7231 109.619Z" fill="white"/>
<path d="M56.6203 119.169C56.6271 118.902 56.8545 118.688 57.1211 118.698C57.3893 118.708 57.6016 118.933 57.5955 119.2C57.5895 119.47 57.3712 119.671 57.0939 119.663C56.8182 119.655 56.6135 119.441 56.6203 119.169Z" fill="white"/>
<path d="M48.3637 118.707C48.3607 118.976 48.1703 119.181 47.9173 119.187C47.6612 119.192 47.4587 118.992 47.4542 118.728C47.4489 118.446 47.6506 118.233 47.9233 118.234C48.1832 118.236 48.3667 118.433 48.3637 118.707Z" fill="white"/>
<path d="M35.3402 116.492C35.0788 116.497 34.8991 116.328 34.896 116.074C34.893 115.815 35.066 115.605 35.2919 115.592C35.5374 115.577 35.7791 115.787 35.7912 116.024C35.804 116.277 35.6008 116.487 35.3402 116.492Z" fill="white"/>
<path d="M57.0645 115.565C57.063 115.309 57.239 115.129 57.4898 115.129C57.7458 115.129 57.9581 115.342 57.9498 115.588C57.9423 115.822 57.73 116.018 57.4935 116.01C57.2518 116.003 57.0652 115.81 57.0645 115.565Z" fill="white"/>
<path d="M71.6017 116.228C71.6047 116.469 71.4083 116.674 71.1711 116.677C70.9414 116.68 70.7669 116.501 70.7647 116.26C70.7624 116.01 70.952 115.809 71.1885 115.809C71.4128 115.81 71.5994 115.998 71.6017 116.228Z" fill="white"/>
<path d="M37.6505 108.337C37.8982 108.327 38.0878 108.507 38.0916 108.755C38.0954 109 37.9111 109.188 37.6641 109.19C37.4254 109.193 37.2576 109.032 37.2463 108.792C37.2357 108.539 37.4057 108.347 37.6505 108.337Z" fill="white"/>
<path d="M33.284 108.643C33.0483 108.641 32.8776 108.468 32.8746 108.23C32.8708 107.989 33.0408 107.807 33.2696 107.805C33.4812 107.804 33.6912 108.038 33.6866 108.269C33.6829 108.481 33.5053 108.646 33.284 108.643Z" fill="white"/>
<path d="M50.9146 122.227C50.9184 122.462 50.7409 122.65 50.5135 122.653C50.3042 122.655 50.1161 122.475 50.1094 122.267C50.1018 122.044 50.2899 121.853 50.5211 121.85C50.7537 121.847 50.9116 121.998 50.9146 122.227Z" fill="white"/>
<path d="M67.3758 107.844C67.1469 107.835 66.9701 107.635 66.9898 107.408C67.0079 107.197 67.1983 107.029 67.4068 107.038C67.6311 107.048 67.8124 107.255 67.7935 107.479C67.7754 107.69 67.5896 107.853 67.3758 107.844Z" fill="white"/>
<path d="M66.2541 115.256C66.035 115.25 65.8658 115.083 65.8635 114.871C65.8613 114.642 66.0433 114.468 66.2798 114.475C66.514 114.48 66.6801 114.663 66.665 114.899C66.6529 115.113 66.4792 115.264 66.2541 115.256Z" fill="white"/>
<path d="M52.2351 116.596C52.01 116.593 51.8461 116.433 51.8431 116.213C51.84 115.977 52.0206 115.804 52.2585 115.816C52.4799 115.827 52.6393 115.998 52.6332 116.219C52.6264 116.436 52.4564 116.598 52.2351 116.596Z" fill="white"/>
<path d="M52.2781 119.403C52.4587 119.413 52.5984 119.573 52.5939 119.765C52.5894 119.973 52.4277 120.137 52.2351 120.129C52.0417 120.12 51.905 119.944 51.9239 119.728C51.9405 119.537 52.0984 119.393 52.2781 119.403Z" fill="white"/>
<path d="M46.8761 115.481C47.1632 115.65 47.241 115.771 47.1843 115.957C47.133 116.124 47.0098 116.213 46.8399 116.199C46.6744 116.186 46.5581 116.09 46.5279 115.914C46.4916 115.707 46.5634 115.616 46.8761 115.481Z" fill="white"/>
<path d="M44.2534 48.0165C44.0305 47.1629 43.8046 46.3221 43.5909 45.4783C42.6322 41.6869 41.6767 37.8948 40.7211 34.1026C40.6772 33.9288 40.6319 33.7536 40.6108 33.5761C40.5941 33.434 40.6145 33.2875 40.6191 33.1243C40.8706 33.1545 40.9024 33.323 40.9454 33.4567C41.1139 33.981 41.2838 34.506 41.4274 35.0378C42.5476 39.185 43.6611 43.3329 44.7776 47.4809C44.8169 47.6259 44.8592 47.7702 44.8909 47.8828C46.3949 47.7355 47.8574 47.5927 49.3758 47.4439C49.375 47.2603 49.3788 47.0473 49.3735 46.835C49.2481 41.9098 49.1197 36.9852 48.9989 32.0599C48.9792 31.2524 48.989 30.4434 48.9951 29.6351C48.9966 29.4629 49.0404 29.2906 49.06 29.1516C49.2851 29.0398 49.3909 29.1086 49.4317 29.2748C49.4657 29.4107 49.4838 29.5527 49.4906 29.6925C49.545 30.8588 49.6115 32.0244 49.644 33.1916C49.7527 37.0645 49.8487 40.9383 49.9492 44.8113C49.9696 45.5939 49.9877 46.3757 50.0096 47.1583C50.0126 47.2588 50.027 47.3593 50.0413 47.5104C51.7523 47.5799 53.4422 47.7604 55.1456 48.1555C55.1978 47.9931 55.2491 47.8533 55.2869 47.7106C56.2946 43.8784 57.2985 40.0462 58.3108 36.2155C58.4944 35.522 58.7104 34.8368 58.9159 34.1494C58.962 33.9961 58.9982 33.8269 59.1931 33.7559C59.3533 33.9568 59.286 34.1592 59.2415 34.3519C58.9431 35.6512 58.6545 36.9535 58.3327 38.2475C57.532 41.4709 56.7146 44.6897 55.9048 47.9107C55.8769 48.0218 55.8542 48.1343 55.8195 48.2892C56.5076 48.5083 57.1913 48.7077 57.8621 48.9441C58.5261 49.1783 59.1773 49.4495 59.8768 49.7215C59.9508 49.6021 60.0331 49.4782 60.1064 49.349C61.905 46.1673 63.7007 42.9832 65.5016 39.8029C65.7101 39.435 65.9367 39.077 66.1678 38.7227C66.2373 38.6162 66.3499 38.5368 66.4594 38.4288C66.6022 38.6706 66.4896 38.8307 66.4148 38.9818C66.0946 39.6246 65.7765 40.2683 65.4343 40.8998C63.8585 43.8096 62.2752 46.7149 60.6956 49.6225C60.6292 49.7441 60.568 49.8688 60.5158 49.9692C61.8295 50.7715 63.1175 51.5579 64.4546 52.3737C64.5127 52.3057 64.6124 52.1969 64.7031 52.0814C67.585 48.3904 70.4639 44.6972 73.3495 41.0101C73.8473 40.374 74.3693 39.7561 74.889 39.1374C75.0031 39.0022 75.1104 38.8096 75.365 38.8821C75.4095 39.0928 75.2819 39.2333 75.1837 39.3716C74.7455 39.9887 74.3104 40.6082 73.8511 41.2095C70.9934 44.951 68.1289 48.6881 65.2666 52.4266C65.1669 52.5573 65.0695 52.6895 64.9803 52.8073C65.9344 53.71 66.8628 54.5886 67.8139 55.489C67.9385 55.3946 68.0813 55.2903 68.221 55.1816C70.7517 53.2115 73.2808 51.2398 75.8137 49.272C76.0871 49.0597 76.3749 48.8656 76.6612 48.6714C76.8372 48.5521 76.8418 48.5596 77.088 48.5959C77.1213 48.7983 76.9619 48.8935 76.8433 48.9955C76.3092 49.4563 75.7774 49.9209 75.226 50.3605C72.9983 52.135 70.7637 53.9004 68.5315 55.6696C68.422 55.7564 68.3147 55.8456 68.1742 55.9596C68.2769 56.0964 68.3638 56.2172 68.4567 56.3336C69.6669 57.8429 70.6822 59.4685 71.4346 61.2566C71.5864 61.6169 71.56 61.8941 71.3205 62.2099C69.997 63.9549 68.4144 65.4219 66.6211 66.6684C63.7195 68.6853 60.5166 70.0231 57.0916 70.8435C53.8765 71.6133 50.6147 71.9101 47.3143 71.7266C42.2205 71.4433 37.3935 70.1923 32.9124 67.7093C31.017 66.6593 29.2947 65.3751 27.694 63.9171C27.2339 63.4979 27.1191 63.1036 27.339 62.5C28.2628 59.9633 29.5901 57.6699 31.3479 55.6235C31.4469 55.5087 31.5436 55.3908 31.6622 55.2496C31.5224 55.1362 31.4068 55.0388 31.2875 54.9451C28.9472 53.1065 26.6047 51.27 24.2675 49.4276C23.8648 49.1103 23.478 48.7719 23.0935 48.432C22.9885 48.3391 22.9175 48.2061 22.8276 48.0868C23.0573 47.9342 23.1948 48.0596 23.3255 48.1502C23.7983 48.4803 24.275 48.8074 24.732 49.1594C27.061 50.9498 29.3854 52.7469 31.7113 54.541C31.8216 54.6256 31.9341 54.7072 32.0323 54.7805C33.0234 53.9064 33.9903 53.0536 34.986 52.1758C34.8923 52.0534 34.7941 51.9227 34.6944 51.7936C31.672 47.8866 28.6488 43.9811 25.6295 40.0726C25.3084 39.6564 25.0055 39.2258 24.7056 38.7937C24.6172 38.666 24.5681 38.5112 24.4956 38.3571C24.7328 38.2581 24.837 38.3873 24.936 38.4961C25.1596 38.7431 25.3832 38.9916 25.5902 39.253C28.4638 42.8684 31.3358 46.4853 34.2064 50.1029C34.5811 50.5751 34.9482 51.054 35.3199 51.5284C35.3901 51.6175 35.4672 51.7014 35.5231 51.7671C36.8707 51.0147 38.1965 50.2744 39.557 49.5152C39.4912 49.3944 39.415 49.2508 39.3364 49.1081C37.5166 45.7911 35.6953 42.4748 33.8778 39.157C33.7237 38.876 33.5832 38.5875 33.4517 38.2959C33.3989 38.1773 33.3883 38.0398 33.3581 37.9114C33.3868 37.8917 33.4147 37.8721 33.4434 37.8524C33.5227 37.9151 33.6225 37.9642 33.6791 38.0436C33.8423 38.2732 33.9979 38.5097 34.1384 38.7537C36.0745 42.1228 38.0069 45.4942 39.9407 48.8648C40.0223 49.0076 40.1084 49.1473 40.1802 49.2682C41.5475 48.8482 42.8785 48.4395 44.2534 48.0165ZM70.5613 61.0269C70.5847 61.0081 70.6081 60.9884 70.6316 60.9695C70.559 60.8245 70.4888 60.6779 70.4132 60.5344C67.8947 55.7693 64.1259 52.3533 59.2037 50.2049C55.4493 48.5657 51.5159 47.9614 47.4367 48.3036C43.5818 48.6269 40.0049 49.7993 36.7415 51.8804C32.935 54.3076 30.1053 57.5762 28.361 61.7589C28.2945 61.9183 28.2394 62.083 28.1556 62.3081C28.2802 62.256 28.3293 62.2439 28.3686 62.2182C28.7108 61.9916 29.0454 61.7536 29.3929 61.5353C31.5821 60.162 33.9496 59.189 36.4167 58.4487C40.261 57.2952 44.202 56.7317 48.2049 56.5829C52.6883 56.4167 57.1278 56.7853 61.5085 57.7689C64.5981 58.4631 67.594 59.4292 70.3891 60.9529C70.4435 60.9831 70.5039 61.002 70.5613 61.0269ZM60.4108 58.1942C60.509 60.199 60.1472 62.0528 59.2505 63.7887C58.3584 65.5148 57.0984 66.9078 55.4553 67.9442C53.8033 68.9875 51.9963 69.5586 50.0413 69.6099C47.5266 69.6764 45.2445 68.9504 43.2607 67.4087C40.3592 65.153 39.0123 62.1283 39.035 58.4555C38.8831 58.4812 38.7691 58.4933 38.6595 58.5205C36.6501 59.0115 34.6846 59.637 32.79 60.4725C31.2361 61.1576 29.754 61.9704 28.395 62.9963C28.2877 63.0771 28.1895 63.17 28.0883 63.2562C28.1352 63.3272 28.151 63.3634 28.1775 63.3899C28.3142 63.5251 28.4509 63.6611 28.5929 63.7902C29.8137 64.8977 31.1356 65.8684 32.5528 66.7069C37.0384 69.3591 41.9154 70.7075 47.0929 71.0256C49.6372 71.1819 52.1708 71.0565 54.6871 70.6335C58.0283 70.0715 61.2116 69.0449 64.1819 67.3966C66.606 66.0512 68.7506 64.3606 70.5175 62.2107C70.6119 62.0958 70.6973 61.9735 70.8076 61.8262C67.5185 60.0781 64.0784 58.9201 60.4108 58.1942ZM39.8221 58.2614C39.5124 61.0927 40.78 65.2565 44.7308 67.5514C48.3522 69.6552 52.9209 69.2692 56.1405 66.5868C57.7118 65.2776 58.7829 63.6339 59.3404 61.6638C59.6736 60.4861 59.8262 59.2895 59.6811 58.0491C58.3342 57.7983 57.0221 57.6019 55.657 57.4765C55.6729 57.6231 55.6737 57.722 55.6963 57.8157C55.889 58.6142 55.8844 59.4172 55.7492 60.2217C55.3103 62.8384 52.9957 64.9702 50.3518 65.1394C46.1336 65.4091 43.2305 61.6282 44.0305 57.9668C44.0562 57.8489 44.0622 57.7266 44.0826 57.5611C42.6194 57.7266 41.2204 57.9547 39.8221 58.2614ZM44.8894 57.469C44.27 58.8378 44.4392 61.5875 46.5543 63.2788C48.492 64.8282 51.3255 64.8289 53.245 63.2622C55.1283 61.7249 55.6004 59.1815 54.8488 57.3927C51.534 57.12 48.2011 57.12 44.8894 57.469Z" fill="#CCB47F"/>
<path d="M70.5615 61.027C70.5849 61.0081 70.6083 60.9884 70.6318 60.9695C70.5592 60.8245 70.489 60.678 70.4134 60.5344C67.8949 55.7693 64.1262 52.3533 59.2039 50.2049C55.4495 48.5657 51.5161 47.9614 47.4369 48.3036C43.582 48.6269 40.0051 49.7993 36.7418 51.8804C32.9352 54.3076 30.1055 57.5762 28.3612 61.759C28.2948 61.9183 28.2396 62.083 28.1558 62.3081C28.2804 62.256 28.3295 62.2439 28.3688 62.2182C28.711 61.9916 29.0456 61.7537 29.3931 61.5353C31.5823 60.162 33.9498 59.189 36.4169 58.4487C40.2612 57.2952 44.2022 56.7317 48.2051 56.5829C52.6885 56.4167 57.128 56.7853 61.5087 57.7689C64.5983 58.4631 67.5943 59.4293 70.3893 60.9529C70.4437 60.9831 70.5041 61.002 70.5615 61.027Z" fill="white"/>
<path d="M83.3452 59.5894C84.1762 59.6846 84.9724 59.5463 85.7693 59.7042C85.7588 59.8371 85.752 59.921 85.7429 60.0373C84.9595 60.1658 84.1784 60.0184 83.3709 60.1061C83.3717 60.3856 83.3649 60.6507 83.3747 60.9151C83.4359 62.6193 83.5008 64.3228 83.5635 66.027C83.5696 66.1909 83.5651 66.3548 83.5658 66.558C83.4162 66.5822 83.3029 66.6011 83.133 66.6283C83.105 66.4107 83.0688 66.24 83.0627 66.0678C83 64.1974 82.9426 62.3262 82.8822 60.4558C82.8784 60.3433 82.8648 60.2307 82.8527 60.0842C82.6729 60.0743 82.5105 60.0623 82.3481 60.0585C81.7203 60.0434 81.0926 60.0343 80.4648 60.0162C80.3175 60.0117 80.1438 60.0283 80.1038 59.8145C80.1785 59.606 80.3614 59.6309 80.5223 59.6287C81.1372 59.6211 81.7528 59.6211 82.3685 59.6181C82.5075 59.6173 82.6465 59.6173 82.8293 59.6166C82.8361 59.4353 82.8497 59.288 82.8467 59.1407C82.8179 57.5641 82.7847 55.9876 82.7583 54.411C82.756 54.2675 82.7855 54.1225 82.7991 53.9888C83.0197 53.9616 83.0446 54.0749 83.0559 54.1942C83.0808 54.4624 83.1103 54.7298 83.1224 54.9987C83.1866 56.3947 83.2463 57.7907 83.309 59.186C83.3135 59.3114 83.3309 59.436 83.3452 59.5894Z" fill="white"/>
<path d="M11.6477 96.7866C12.4787 96.8818 13.2749 96.7435 14.0718 96.9006C14.0613 97.0344 14.0545 97.1175 14.0454 97.2338C13.262 97.3622 12.4809 97.2142 11.6734 97.3025C11.6742 97.5828 11.6674 97.8472 11.6772 98.1116C11.7384 99.815 11.8033 101.519 11.866 103.223C11.8721 103.387 11.8675 103.551 11.8683 103.754C11.7187 103.779 11.6054 103.798 11.4354 103.825C11.4075 103.607 11.3712 103.436 11.3652 103.264C11.3025 101.394 11.2451 99.5227 11.1847 97.6523C11.1809 97.5397 11.1673 97.4272 11.1552 97.2806C10.9754 97.2715 10.813 97.2587 10.6506 97.2549C10.0228 97.2398 9.39508 97.2308 8.76734 97.2126C8.62003 97.2081 8.44629 97.2247 8.40625 97.0109C8.48104 96.8024 8.66385 96.8274 8.82475 96.8251C9.44041 96.8175 10.0553 96.8168 10.671 96.8145C10.81 96.8138 10.949 96.8138 11.1318 96.813C11.1386 96.6325 11.1522 96.4844 11.1491 96.3379C11.1204 94.7613 11.0872 93.1848 11.0608 91.6082C11.0585 91.4639 11.088 91.3197 11.1016 91.186C11.3221 91.1588 11.3471 91.2721 11.3584 91.3914C11.3833 91.6596 11.4128 91.927 11.4249 92.196C11.4891 93.592 11.5488 94.9872 11.6115 96.3832C11.616 96.5086 11.6334 96.6332 11.6477 96.7866Z" fill="white"/>
<path d="M72.2293 4.85005C73.0602 4.94523 73.8564 4.80698 74.6534 4.96486C74.6428 5.09782 74.636 5.18166 74.6269 5.298C73.8436 5.42641 73.0625 5.27911 72.2549 5.36674C72.2557 5.64624 72.2489 5.91139 72.2587 6.17578C72.3199 7.87999 72.3849 9.58344 72.4476 11.2876C72.4536 11.4516 72.4491 11.6155 72.4498 11.8187C72.3003 11.8429 72.187 11.8618 72.017 11.889C71.989 11.6714 71.9528 11.5007 71.9467 11.3284C71.884 9.45804 71.8266 7.58689 71.7662 5.71649C71.7624 5.60394 71.7488 5.49138 71.7367 5.34408C71.5569 5.33501 71.3945 5.32217 71.2321 5.3184C70.6044 5.30329 69.9766 5.29422 69.3489 5.27609C69.2016 5.27156 69.0278 5.28818 68.9878 5.0744C69.0626 4.86591 69.2454 4.89083 69.4063 4.88857C70.022 4.88101 70.6369 4.88101 71.2525 4.87799C71.3915 4.87723 71.5305 4.87723 71.7133 4.87648C71.7201 4.69518 71.7337 4.54788 71.7307 4.40058C71.702 2.82403 71.671 2.0029 71.6438 0.426358C71.6416 0.28283 71.671 0.137787 71.6846 0.00407877C71.9059 -0.023116 71.9301 0.090198 71.9414 0.209553C71.9664 0.477724 71.9958 0.745141 72.0079 1.01407C72.0721 2.41007 72.1295 3.05065 72.1922 4.4459C72.1975 4.57205 72.2149 4.6967 72.2293 4.85005Z" fill="white"/>
<path d="M32.2441 26.5961C32.2916 25.2091 32.1103 23.9038 32.2493 22.5977C32.5341 22.5705 32.51 22.7699 32.5235 22.9006C32.5628 23.27 32.5855 23.6417 32.6044 24.0133C32.6414 24.731 32.6701 25.4486 32.7049 26.1662C32.7101 26.2788 32.7283 26.3914 32.7441 26.5387C32.8846 26.5485 33.0078 26.5666 33.1309 26.5651C33.6567 26.559 34.1824 26.5424 34.709 26.5409C34.8532 26.5402 34.9983 26.5772 35.1388 26.5961C35.1146 26.9352 35.1063 26.9519 34.8374 26.9556C34.2988 26.9632 33.7594 26.9617 33.2208 26.967C33.0826 26.9685 32.9451 26.9821 32.7608 26.9919C32.7615 27.1588 32.7577 27.2956 32.7623 27.4323C32.7947 28.4196 32.8318 29.4069 32.859 30.3943C32.8635 30.5499 32.8212 30.7078 32.8046 30.8369C32.5439 30.9231 32.4397 30.8324 32.4163 30.6488C32.3898 30.4456 32.3785 30.2402 32.3717 30.0355C32.34 29.1252 32.3128 28.2149 32.2826 27.3039C32.2796 27.2155 32.2652 27.1279 32.2516 26.9979C32.1096 26.9904 31.9736 26.9783 31.8369 26.9768C31.2597 26.9708 30.6819 26.9677 30.1047 26.9617C29.9423 26.9602 29.7761 26.9632 29.6077 26.7713C30.0534 26.5825 30.4824 26.6112 30.9032 26.6013C31.3368 26.5923 31.7697 26.5976 32.2441 26.5961Z" fill="white"/>
<path d="M2.63563 88.9877C2.68322 87.6008 2.50192 86.2954 2.64092 84.9893C2.92571 84.9621 2.90078 85.1616 2.91513 85.2923C2.95441 85.6616 2.97707 86.0333 2.99596 86.405C3.03297 87.1226 3.06168 87.8403 3.09643 88.5579C3.10172 88.6704 3.11985 88.783 3.13571 88.9303C3.27622 88.9401 3.39935 88.9583 3.52248 88.9568C4.04825 88.9507 4.57401 88.9341 5.10053 88.9326C5.24482 88.9318 5.38986 88.9688 5.53036 88.9877C5.50694 89.3269 5.49788 89.3435 5.22895 89.3473C4.69035 89.3549 4.15098 89.3533 3.61237 89.3586C3.47413 89.3601 3.33665 89.3737 3.15233 89.3836C3.15309 89.5505 3.15006 89.6872 3.15384 89.824C3.18632 90.8113 3.22334 91.7986 3.25053 92.7859C3.25431 92.9423 3.21276 93.0994 3.19614 93.2286C2.93553 93.3147 2.83128 93.2241 2.80786 93.0405C2.78142 92.8373 2.77009 92.6318 2.76329 92.4271C2.73157 91.5168 2.70437 90.6066 2.67415 89.6955C2.67113 89.6072 2.65678 89.5195 2.64318 89.3896C2.50116 89.3821 2.36519 89.37 2.22846 89.3684C1.65133 89.3624 1.07344 89.3594 0.496305 89.3533C0.333891 89.3518 0.167701 89.3548 0 89.163C0.445692 88.9741 0.874766 89.0028 1.29553 88.993C1.72838 88.9832 2.16199 88.9885 2.63563 88.9877Z" fill="white"/>
<path d="M75.2985 77.7124C75.0688 77.7464 75.0016 77.618 74.9858 77.4473C74.9669 77.2433 74.9555 77.0379 74.948 76.8331C74.9178 75.9357 74.8906 75.0383 74.8596 74.1401C74.8566 74.0517 74.8415 73.9641 74.8279 73.8387C74.6836 73.8311 74.5469 73.8198 74.4094 73.8183C73.8322 73.8123 73.2543 73.8138 72.6772 73.8009C72.5314 73.7979 72.3856 73.7518 72.2451 73.7261C72.2459 73.5086 72.3796 73.5154 72.4884 73.5093C73.1025 73.4784 73.7174 73.4534 74.3323 73.4262C74.4834 73.4194 74.6345 73.4119 74.8347 73.4021C74.8339 73.2261 74.8362 73.0772 74.8332 72.9284C74.8135 72.0302 74.7871 71.1328 74.7757 70.2346C74.7727 69.9695 74.8113 69.7043 74.8309 69.4331C75.1111 69.4203 75.0877 69.6144 75.1013 69.7466C75.1399 70.1032 75.1625 70.462 75.1806 70.8208C75.2177 71.5513 75.2471 72.2818 75.2819 73.0123C75.2872 73.1248 75.3068 73.2359 75.3234 73.3809C75.4654 73.3907 75.5893 73.4066 75.7132 73.4051C76.239 73.399 76.7647 73.3817 77.2913 73.3802C77.4355 73.3794 77.5798 73.4187 77.7135 73.4383C77.7672 73.7496 77.6168 73.7979 77.4091 73.7979C76.8705 73.7979 76.3311 73.8017 75.7925 73.807C75.655 73.8085 75.5176 73.8221 75.3378 73.8326C75.3385 74.0026 75.3347 74.1401 75.3393 74.2776C75.3718 75.2521 75.4065 76.2265 75.4367 77.201C75.4443 77.3778 75.4828 77.5666 75.2985 77.7124Z" fill="white"/>
</svg>
