<svg width="97" height="92" viewBox="0 0 97 92" fill="none" xmlns="http://www.w3.org/2000/svg">
<path d="M66.7468 86.8463C66.6786 87.1272 66.4318 87.1899 66.2319 87.2884C64.4922 88.1486 62.6999 88.8826 60.8635 89.5107C58.0443 90.4741 55.157 91.1501 52.2071 91.5618C49.3014 91.967 46.3791 92.1089 43.4558 91.9127C31.727 91.1262 21.6274 86.652 13.3265 78.3106C6.79579 71.7476 2.69647 63.8501 0.876593 54.7719C0.125064 51.0253 -0.148473 47.24 0.0762485 43.429C1.14736 25.2919 12.4746 10.0615 28.5312 3.46441C32.3855 1.88031 36.3808 0.842355 40.5188 0.340415C43.7303 -0.0491638 46.9445 -0.112716 50.1643 0.193053C55.8091 0.728149 61.184 2.23028 66.278 4.72801C66.4032 4.78972 66.5257 4.86063 66.6436 4.93615C66.6795 4.95918 66.6961 5.00983 66.7329 5.06509C66.6574 5.33494 66.4309 5.33034 66.2144 5.34139C65.3091 5.38652 64.4019 5.41231 63.4975 5.48046C59.8587 5.75676 56.3276 6.54144 52.9052 7.80227C40.388 12.4137 30.9939 22.7214 27.566 35.6217C26.5105 39.593 26.1044 43.6362 26.2665 47.7466C26.9333 64.6624 38.1832 79.5714 54.5998 84.7953C58.258 85.9594 62.0064 86.6023 65.8497 86.6723C66.1463 86.6769 66.4778 86.5958 66.7468 86.8463ZM64.2951 4.63131C51.0568 -1.75116 28.3175 -1.77511 12.4746 15.639C-3.55062 33.2539 -2.98237 60.6598 13.7115 77.6198C16.9166 80.8764 20.5222 83.5998 24.5424 85.7715C28.5607 87.9423 32.811 89.4711 37.2917 90.3507C41.7741 91.2311 46.2879 91.385 50.8339 90.954C54.6035 90.5966 62.7184 88.4553 63.9092 87.409C56.6978 86.8325 50.0759 84.6249 44.0674 80.6637C38.0376 76.6887 33.3599 71.4796 30.0471 65.063C26.7435 58.6649 25.1438 51.8477 25.4366 44.6567C25.8686 34.0367 29.7386 24.8038 37.1526 17.1669C44.5647 9.53097 53.7 5.48507 64.2951 4.63131Z" fill="#CCB47F"/>
<path d="M27.0253 16.0645C27.5825 16.0543 28.1185 16.5627 28.1424 17.1245C28.1654 17.667 27.6617 18.1468 27.0731 18.1422C26.5095 18.1376 26.038 17.6919 26.0232 17.1503C26.0076 16.5673 26.4625 16.0755 27.0253 16.0645Z" fill="#CCB47F"/>
<path d="M6.75339 47.8166C6.75615 48.3453 6.30579 48.8214 5.78911 48.8362C5.27428 48.85 4.84878 48.395 4.84141 47.8231C4.83404 47.2806 5.23376 46.8551 5.76149 46.8431C6.2975 46.8312 6.75063 47.276 6.75339 47.8166Z" fill="#CCB47F"/>
<path d="M24.5453 61.4518C24.5517 61.9722 24.1318 62.3728 23.5792 62.3737C23.0192 62.3737 22.556 61.9556 22.5495 61.4444C22.5431 60.9324 23.0017 60.5189 23.5746 60.5198C24.1014 60.5198 24.5388 60.9407 24.5453 61.4518Z" fill="#CCB47F"/>
<path d="M13.1028 19.6591C13.6434 19.6499 14.0781 20.0496 14.091 20.5681C14.1039 21.0756 13.6766 21.5214 13.1553 21.5435C12.6331 21.5656 12.1882 21.1502 12.1753 20.6271C12.1624 20.0975 12.5741 19.6674 13.1028 19.6591Z" fill="#CCB47F"/>
<path d="M15.6761 54.2193C16.1946 54.2166 16.6228 54.619 16.6302 55.1154C16.6376 55.6183 16.1688 56.0779 15.6622 56.064C15.1833 56.0512 14.779 55.6358 14.7726 55.1505C14.7652 54.6264 15.1575 54.2221 15.6761 54.2193Z" fill="#CCB47F"/>
<path d="M40.9037 3.38522C41.3679 3.38798 41.7566 3.76926 41.7474 4.21318C41.7382 4.69854 41.2841 5.12956 40.7951 5.11851C40.3364 5.10838 39.9606 4.73539 39.9542 4.28226C39.9468 3.79874 40.388 3.38153 40.9037 3.38522Z" fill="#CCB47F"/>
<path d="M29.7626 74.5198C30.3373 74.5124 30.7582 74.8532 30.7693 75.3358C30.7803 75.8 30.3907 76.1849 29.9054 76.1868C29.4126 76.1895 28.9881 75.7972 28.9761 75.3284C28.965 74.8845 29.3132 74.5253 29.7626 74.5198Z" fill="#CCB47F"/>
<path d="M19.4014 34.8969C18.916 34.9034 18.4592 34.4871 18.4629 34.0413C18.4666 33.6278 18.8912 33.2041 19.3084 33.1977C19.7845 33.1912 20.1999 33.6075 20.198 34.091C20.1971 34.5405 19.849 34.8914 19.4014 34.8969Z" fill="#CCB47F"/>
<path d="M22.2971 46.5097C22.7724 46.518 23.1223 46.8772 23.1177 47.3496C23.1122 47.811 22.7429 48.1785 22.2787 48.1822C21.7934 48.1859 21.4204 47.8 21.4369 47.3119C21.4517 46.8477 21.8228 46.5014 22.2971 46.5097Z" fill="#CCB47F"/>
<path d="M17.0364 75.4546C16.5925 75.4546 16.2664 75.1276 16.2738 74.6901C16.2821 74.2324 16.7011 73.7876 17.1202 73.7931C17.5365 73.7986 17.8736 74.1495 17.8791 74.5824C17.8846 75.0678 17.5107 75.4536 17.0364 75.4546Z" fill="#CCB47F"/>
<path d="M30.8687 86.6962C30.4165 86.6907 30.0729 86.3324 30.084 85.8802C30.0951 85.428 30.4542 85.0937 30.9129 85.1112C31.3513 85.1268 31.6699 85.4603 31.6709 85.9023C31.6718 86.3601 31.3264 86.7027 30.8687 86.6962Z" fill="#CCB47F"/>
<path d="M57 88.1965C57.0074 88.6404 56.615 89.0291 56.1665 89.0236C55.741 89.018 55.3818 88.6736 55.3726 88.2628C55.3634 87.8207 55.7401 87.4818 56.2393 87.4837C56.674 87.4837 56.9926 87.7839 57 88.1965Z" fill="#CCB47F"/>
<path d="M8.51724 62.977C8.52001 63.3961 8.17188 63.7387 7.73441 63.747C7.26378 63.7553 6.87604 63.3869 6.8834 62.9384C6.89077 62.5184 7.203 62.2393 7.65889 62.2448C8.17372 62.2513 8.51448 62.5423 8.51724 62.977Z" fill="#CCB47F"/>
<path d="M46.5523 85.4713C46.9778 85.4768 47.3757 85.8682 47.3729 86.2771C47.3701 86.675 47.0128 86.9918 46.5873 86.9734C46.1563 86.954 45.8321 86.6087 45.8376 86.174C45.844 85.7605 46.1443 85.4657 46.5523 85.4713Z" fill="#CCB47F"/>
<path d="M33.8168 76.0007C33.8094 75.5927 34.1014 75.2814 34.5029 75.2685C34.9072 75.2556 35.2222 75.5476 35.2388 75.9501C35.2563 76.3682 34.9367 76.7117 34.5278 76.7154C34.1364 76.7182 33.8232 76.4032 33.8168 76.0007Z" fill="#CCB47F"/>
<path d="M17.9545 21.7129C17.9471 22.1191 17.6367 22.4175 17.2352 22.4055C16.8741 22.3944 16.5942 22.1071 16.5905 21.7424C16.5868 21.3574 16.9156 21.0194 17.2969 21.0185C17.6745 21.0157 17.9618 21.3206 17.9545 21.7129Z" fill="#CCB47F"/>
<path d="M6.35563 38.6748C6.35194 39.0653 6.01302 39.3886 5.62712 39.3701C5.28083 39.3536 4.96216 39.0423 4.95203 38.7098C4.94098 38.3524 5.29557 38.0052 5.67962 37.9978C6.06828 37.9923 6.35931 38.2834 6.35563 38.6748Z" fill="#CCB47F"/>
<path d="M25.4449 68.5425C25.444 68.9137 25.1143 69.2286 24.7422 69.213C24.3867 69.1983 24.0864 68.8897 24.0883 68.5398C24.0901 68.1704 24.4207 67.8564 24.7928 67.8711C25.1492 67.884 25.4458 68.1888 25.4449 68.5425Z" fill="#CCB47F"/>
<path d="M22.1589 67.3002C22.1626 67.6446 21.867 67.9375 21.5013 67.9522C21.1108 67.9679 20.7922 67.6768 20.7949 67.3084C20.7977 66.9548 21.0795 66.7006 21.4746 66.6942C21.866 66.6895 22.1552 66.9456 22.1589 67.3002Z" fill="#CCB47F"/>
<path d="M47.9015 4.49316C48.2874 4.50053 48.583 4.8063 48.5683 5.18206C48.5545 5.53112 48.2846 5.78715 47.9291 5.78715C47.5469 5.78715 47.2467 5.47678 47.2642 5.09918C47.2798 4.74644 47.5533 4.48763 47.9015 4.49316Z" fill="#CCB47F"/>
<path d="M26.9471 78.457C26.9581 78.7969 26.6818 79.0833 26.3346 79.0897C25.9948 79.0953 25.7038 78.8282 25.6798 78.4874C25.6549 78.142 25.9257 77.8317 26.2591 77.8225C26.6054 77.8123 26.9351 78.1172 26.9471 78.457Z" fill="#CCB47F"/>
<path d="M8.92064 41.1569C8.91327 41.5069 8.5983 41.7924 8.23819 41.7758C7.88084 41.7592 7.63125 41.494 7.6377 41.1385C7.64506 40.7645 7.92321 40.5094 8.30635 40.526C8.65632 40.5417 8.92709 40.8198 8.92064 41.1569Z" fill="#CCB47F"/>
<path d="M36.1368 13.4885C36.1257 13.8246 35.8595 14.0733 35.5262 14.0595C35.1881 14.0457 34.9247 13.7592 34.9275 13.4074C34.9303 13.0648 35.1854 12.8254 35.5308 12.841C35.8752 12.8567 36.1487 13.1486 36.1368 13.4885Z" fill="#CCB47F"/>
<path d="M41.2879 87.8438C41.2852 88.1652 41.0089 88.4424 40.6865 88.448C40.3697 88.4526 40.1183 88.2103 40.1118 87.8926C40.1045 87.5408 40.378 87.2654 40.7307 87.27C41.0457 87.2746 41.2907 87.527 41.2879 87.8438Z" fill="#CCB47F"/>
<path d="M8.38 58.1713C8.04016 58.1759 7.81728 57.9595 7.82097 57.6297C7.82465 57.3148 8.06779 57.067 8.37632 57.0633C8.69499 57.0606 9.00353 57.3323 9.01089 57.6242C9.01826 57.9226 8.73735 58.1658 8.38 58.1713Z" fill="#CCB47F"/>
<path d="M32.6168 12.2672C32.2972 12.2617 32.0559 12.0167 32.0605 11.7018C32.0651 11.3711 32.3349 11.1289 32.6785 11.1473C32.9787 11.163 33.2071 11.3932 33.2136 11.687C33.2219 12.013 32.9539 12.2737 32.6168 12.2672Z" fill="#CCB47F"/>
<path d="M16.1346 43.5431C16.4505 43.5348 16.7221 43.8084 16.7221 44.1363C16.7221 44.4494 16.4707 44.7045 16.164 44.7018C15.8573 44.699 15.616 44.4512 15.6087 44.1307C15.6022 43.8001 15.8242 43.5514 16.1346 43.5431Z" fill="#CCB47F"/>
<path d="M24.5055 28.7769C24.185 28.7732 23.9161 28.5062 23.9078 28.1829C23.8995 27.8596 24.1353 27.6358 24.4724 27.6478C24.8168 27.6607 25.0765 27.9103 25.0747 28.2271C25.0729 28.5366 24.8205 28.7797 24.5055 28.7769Z" fill="#CCB47F"/>
<path d="M21.2656 11.419C21.6082 11.4273 21.8246 11.6529 21.8071 11.9836C21.7905 12.2893 21.5299 12.5297 21.2167 12.527C20.9045 12.5242 20.6411 12.2691 20.6411 11.9688C20.6411 11.6446 20.9073 11.4107 21.2656 11.419Z" fill="#CCB47F"/>
<path d="M14.0386 65.1846C14.0349 65.5015 13.7862 65.7474 13.4713 65.7474C13.1839 65.7474 12.9279 65.5015 12.9187 65.2196C12.9095 64.8954 13.1839 64.632 13.5201 64.644C13.8332 64.6551 14.0423 64.8733 14.0386 65.1846Z" fill="#CCB47F"/>
<path d="M29.5655 24.8719C29.2431 24.8737 29.0101 24.637 29.0101 24.3083C29.0101 23.9785 29.2413 23.7354 29.5563 23.7336C29.8519 23.7317 30.1098 23.9933 30.1199 24.3027C30.1301 24.614 29.8814 24.8691 29.5655 24.8719Z" fill="#CCB47F"/>
<path d="M15.3849 26.154C15.0801 26.1595 14.8673 25.9467 14.86 25.6281C14.8517 25.3002 15.0764 25.0524 15.3895 25.0451C15.6935 25.0377 15.9145 25.256 15.9191 25.5682C15.9237 25.8887 15.687 26.1475 15.3849 26.154Z" fill="#CCB47F"/>
<path d="M13.822 35.7986C13.8248 36.1016 13.5964 36.3226 13.2842 36.3199C12.9858 36.3171 12.7454 36.0878 12.7343 35.793C12.7224 35.4919 12.9517 35.246 13.2482 35.2414C13.5595 35.2377 13.8183 35.4891 13.822 35.7986Z" fill="#CCB47F"/>
<path d="M41.0447 82.6613C41.0364 82.9413 40.8108 83.1476 40.5262 83.1356C40.2462 83.1246 40.0316 82.9045 40.0316 82.6273C40.0316 82.3464 40.249 82.1271 40.528 82.1253C40.8209 82.1244 41.0539 82.3657 41.0447 82.6613Z" fill="#CCB47F"/>
<path d="M26.5833 85.113C26.5925 84.8211 26.7942 84.6369 27.0991 84.6396C27.3975 84.6424 27.6139 84.845 27.6121 85.1195C27.6093 85.4022 27.3514 85.6426 27.0622 85.6306C26.7767 85.6195 26.5741 85.3994 26.5833 85.113Z" fill="#CCB47F"/>
<path d="M52.3075 88.5004C52.5727 88.5105 52.779 88.7353 52.7579 88.9904C52.7385 89.2271 52.5239 89.415 52.2808 89.4094C52.0091 89.403 51.8258 89.1957 51.8451 88.9148C51.8626 88.6496 52.0404 88.4894 52.3075 88.5004Z" fill="#CCB47F"/>
<path d="M33.3518 81.1307C33.3444 80.8627 33.5424 80.6499 33.8049 80.6462C34.0434 80.6425 34.2543 80.8424 34.2617 81.08C34.27 81.337 34.0591 81.5534 33.7975 81.558C33.535 81.5617 33.3591 81.3932 33.3518 81.1307Z" fill="#CCB47F"/>
<path d="M67.934 35.6558C73.6791 35.7323 78.2831 40.4173 78.2049 46.1081C78.1257 51.8579 73.4221 56.4684 67.6945 56.3661C61.9834 56.2639 57.4614 51.6608 57.4991 45.9405C57.5378 40.1899 62.2496 35.5803 67.934 35.6558ZM77.3981 46.0354C77.4699 40.9828 73.3936 36.4626 67.8971 36.434C62.5821 36.4064 58.3124 40.6853 58.2801 45.9295C58.2479 51.0787 62.3721 55.5253 67.7691 55.5492C73.12 55.5741 77.4082 51.3127 77.3981 46.0354Z" fill="white"/>
<path d="M66.9826 13.0611C67.3234 13.051 67.3805 13.2149 67.4054 13.3917C67.4385 13.6238 67.468 13.8578 67.4753 14.0917C67.5389 16.0774 67.6117 18.0621 67.6531 20.0478C67.7351 24.0043 67.7977 27.9609 67.8668 31.9175C67.8695 32.0888 67.8742 32.2647 67.8401 32.4305C67.8032 32.6082 67.6881 32.7427 67.4818 32.7408C67.2801 32.7399 67.1595 32.6211 67.1199 32.436C67.0876 32.285 67.0775 32.1266 67.0747 31.9718C67.0268 29.4538 66.9743 26.9368 66.9366 24.4188C66.8914 21.4007 66.8564 18.3817 66.8242 15.3636C66.8178 14.7852 66.8316 14.2059 66.8574 13.6284C66.8647 13.4369 66.9394 13.249 66.9826 13.0611Z" fill="white"/>
<path d="M67.2507 79.2684C67.212 79.0824 67.1466 78.8917 67.1365 78.6983C67.1116 78.2305 67.0987 77.7598 67.1052 77.291C67.1853 71.661 67.27 66.031 67.3547 60.401C67.3575 60.2453 67.363 60.0869 67.3934 59.935C67.4339 59.7314 67.5574 59.5951 67.783 59.6052C67.9884 59.6144 68.0878 59.7554 68.1274 59.9341C68.1542 60.0538 68.1514 60.1827 68.1486 60.3071C68.0759 64.3732 68.0096 68.4394 67.9258 72.5046C67.8862 74.4277 67.8162 76.3507 67.7554 78.2737C67.748 78.5077 67.7185 78.7416 67.6826 78.9728C67.6559 79.1505 67.5896 79.3108 67.2507 79.2684Z" fill="white"/>
<path d="M38.908 33.0494C39.269 32.8486 39.5066 32.9711 39.7295 33.065C40.9397 33.5744 42.1526 34.0763 43.3481 34.6169C47.3498 36.4257 51.345 38.2502 55.3421 40.0701C55.4701 40.1281 55.5982 40.1898 55.7124 40.269C55.8726 40.3805 55.9417 40.5647 55.833 40.7176C55.7593 40.8207 55.5834 40.8741 55.4453 40.8972C55.3504 40.9128 55.2362 40.8465 55.1377 40.8014C50.2122 38.5311 45.2867 36.2609 40.3641 33.986C39.9957 33.8157 39.6392 33.6186 39.2893 33.4132C39.1585 33.334 39.0618 33.1986 38.908 33.0494Z" fill="white"/>
<path d="M96.3392 33.1728C96.2296 33.2833 96.1375 33.4243 96.0076 33.4998C95.6014 33.7328 95.1888 33.9584 94.7652 34.1564C91.3363 35.7525 87.9056 37.3449 84.4722 38.9308C83.0677 39.5801 81.6549 40.2119 80.2448 40.8483C80.1039 40.9119 79.952 40.9884 79.8055 40.9893C79.6867 40.9902 79.497 40.9101 79.4648 40.8216C79.4224 40.7028 79.4657 40.5159 79.5412 40.4044C79.6121 40.2994 79.7659 40.2433 79.893 40.1852C84.6914 38.0135 89.4898 35.8418 94.2909 33.6757C94.7459 33.4703 95.2137 33.2898 95.6834 33.1194C95.863 33.054 96.0638 33.0466 96.2544 33.0135C96.2821 33.0669 96.3106 33.1203 96.3392 33.1728Z" fill="white"/>
<path d="M96.564 59.2552C96.331 59.3962 96.1099 59.293 95.8981 59.2064C94.9734 58.8252 94.0432 58.4567 93.1323 58.0451C88.8175 56.0944 84.5073 54.1308 80.197 52.1691C80.0561 52.1056 79.8977 52.0384 79.8047 51.9251C79.7301 51.8348 79.6905 51.6479 79.7347 51.5475C79.7771 51.4499 79.9428 51.3651 80.0617 51.3541C80.1906 51.3421 80.3352 51.4066 80.4604 51.4646C85.2744 53.6787 90.0866 55.8936 94.897 58.1151C95.3648 58.3306 95.8161 58.582 96.2683 58.8288C96.5069 58.9587 96.5004 58.9697 96.564 59.2552Z" fill="white"/>
<path d="M39.2682 59.4303C39.2737 59.0315 39.5058 58.9551 39.6882 58.862C40.5649 58.4154 41.4399 57.9613 42.3332 57.5487C46.6628 55.5538 50.9979 53.5709 55.3321 51.5862C55.4721 51.5217 55.625 51.4471 55.7723 51.448C55.8902 51.449 56.0781 51.5328 56.1085 51.6221C56.1481 51.7418 56.1011 51.9279 56.0247 52.0384C55.9519 52.1425 55.7981 52.1977 55.671 52.2548C50.9307 54.4026 46.1894 56.5503 41.4463 58.6916C40.9343 58.9228 40.4084 59.1245 39.8806 59.3197C39.702 59.387 39.5012 59.3907 39.2682 59.4303Z" fill="white"/>
<path d="M56.6094 18.5116C56.8452 18.4425 56.964 18.5908 57.0515 18.7639C57.1924 19.043 57.3268 19.3248 57.4484 19.6131C59.3153 24.032 61.1812 28.4518 63.0444 32.8726C63.1171 33.0448 63.1834 33.2225 63.2258 33.404C63.2691 33.5882 63.2009 33.7512 63.0213 33.8322C62.838 33.9151 62.6796 33.8424 62.571 33.6886C62.4908 33.5753 62.4264 33.4464 62.373 33.3174C60.4748 28.7254 58.5785 24.1324 56.6831 19.5385C56.6057 19.3506 56.5412 19.1581 56.4786 18.9647C56.4224 18.7869 56.4326 18.623 56.6094 18.5116Z" fill="white"/>
<path d="M78.6894 18.6092C78.9021 18.7648 78.8487 18.9619 78.775 19.159C78.6047 19.6121 78.4426 20.0689 78.2584 20.5165C76.5149 24.7338 74.7678 28.9482 73.0207 33.1636C72.9433 33.3505 72.8614 33.5384 72.7628 33.7153C72.6532 33.9105 72.4828 34.0275 72.2563 33.9188C72.061 33.8249 72.0131 33.6425 72.0758 33.4399C72.1264 33.2759 72.1826 33.1129 72.2498 32.9554C74.1084 28.5494 75.9669 24.1443 77.8292 19.7401C77.9507 19.4528 78.0852 19.17 78.2234 18.8901C78.3145 18.7003 78.4297 18.5281 78.6894 18.6092Z" fill="white"/>
<path d="M78.9767 73.7333C78.7354 73.8134 78.612 73.6697 78.5226 73.4956C78.3808 73.2175 78.2463 72.9348 78.1247 72.6474C76.257 68.2285 74.3929 63.8087 72.5279 59.3888C72.4671 59.2452 72.4174 59.0969 72.3667 58.9486C72.293 58.7322 72.3253 58.5406 72.538 58.4236C72.7231 58.3214 72.9193 58.4181 73.0703 58.6714C73.1182 58.7515 73.1569 58.8381 73.1928 58.9247C75.0965 63.5315 76.9993 68.1392 78.9002 72.7469C78.972 72.92 79.0273 73.0996 79.0872 73.2774C79.147 73.4542 79.1369 73.6163 78.9767 73.7333Z" fill="white"/>
<path d="M56.8949 73.8419C56.6647 73.6642 56.7245 73.4662 56.7982 73.2709C56.9677 72.8178 57.1307 72.361 57.3158 71.9134C59.0593 67.6962 60.8064 63.4817 62.5544 59.2663C62.6382 59.0646 62.7303 58.8648 62.8399 58.6769C62.9348 58.5148 63.096 58.4328 63.2811 58.5038C63.4855 58.582 63.5528 58.757 63.504 58.9633C63.468 59.1144 63.4137 59.2626 63.3529 59.4063C61.4575 63.898 59.5612 68.3897 57.663 72.8804C57.5654 73.1107 57.4567 73.3354 57.3444 73.5592C57.2587 73.7323 57.1491 73.8843 56.8949 73.8419Z" fill="white"/>
<path d="M39.9303 45.0195C40.1311 44.8086 40.3797 44.8565 40.6054 44.8629C41.7925 44.8979 42.9806 44.9292 44.1668 44.9937C47.2881 45.1623 50.4093 45.3464 53.5296 45.5279C53.7313 45.5398 53.934 45.5666 54.131 45.6089C54.3198 45.6495 54.458 45.7913 54.4036 45.9783C54.3687 46.0998 54.2222 46.2195 54.0979 46.2748C53.9791 46.3273 53.8216 46.308 53.6834 46.2988C49.5813 46.0307 45.4793 45.7618 41.3781 45.4874C41.0042 45.4625 40.6321 45.4091 40.2618 45.3529C40.0979 45.3271 39.9017 45.305 39.9303 45.0195Z" fill="white"/>
<path d="M95.3567 45.0573C95.3797 45.4054 95.1807 45.4229 95.0196 45.4478C94.665 45.5031 94.3077 45.5528 93.9494 45.5776C91.0179 45.7812 88.0864 45.982 85.1548 46.1781C83.9852 46.2564 82.8146 46.3218 81.6449 46.3909C81.5206 46.3982 81.3944 46.4047 81.271 46.3927C81.0702 46.3743 80.8943 46.2951 80.8759 46.0676C80.8575 45.842 81.0076 45.7296 81.2111 45.6854C81.3327 45.6596 81.4571 45.6384 81.5814 45.632C85.6393 45.41 89.6972 45.1881 93.7551 44.9707C94.129 44.9505 94.5057 44.9504 94.8796 44.9615C95.0398 44.9661 95.1992 45.0241 95.3567 45.0573Z" fill="white"/>
<path d="M49.6376 26.1438C49.8476 26.0186 49.9977 26.1383 50.1359 26.2682C50.4094 26.5251 50.6839 26.7812 50.9445 27.0501C53.597 29.791 56.2467 32.5346 58.8945 35.2791C59.0124 35.4016 59.1524 35.5306 59.2021 35.6835C59.2417 35.8032 59.1994 36.0012 59.1155 36.0933C59.0538 36.1615 58.8512 36.1513 58.7379 36.108C58.6154 36.0611 58.5141 35.9432 58.4174 35.8419C55.6572 32.9444 52.8979 30.0461 50.1405 27.1468C49.9793 26.9773 49.832 26.7941 49.6828 26.6126C49.5667 26.4699 49.5179 26.3142 49.6376 26.1438Z" fill="white"/>
<path d="M85.5985 26.1696C85.7846 26.4183 85.7118 26.584 85.5838 26.736C85.4024 26.9515 85.2219 27.1679 85.0284 27.3715C82.3244 30.2146 79.6185 33.0558 76.9117 35.8952C76.8049 36.0076 76.6889 36.1154 76.5618 36.2047C76.42 36.3042 76.2413 36.3152 76.14 36.1715C76.0709 36.0739 76.0488 35.9045 76.0801 35.7866C76.1142 35.6613 76.2256 35.5499 76.3223 35.4504C79.1369 32.5401 81.9523 29.6316 84.7696 26.724C84.9004 26.5895 85.0294 26.4477 85.1822 26.3436C85.3084 26.2571 85.4687 26.2212 85.5985 26.1696Z" fill="white"/>
<path d="M85.9337 66.1194C85.6344 66.2272 85.4861 66.0393 85.3342 65.891C84.7972 65.367 84.2603 64.8429 83.739 64.3032C81.3932 61.8755 79.0521 59.4422 76.7109 57.009C76.5921 56.8855 76.4705 56.7594 76.3812 56.6148C76.2854 56.4591 76.2781 56.2823 76.4374 56.1488C76.5783 56.0309 76.7339 56.0567 76.8703 56.1552C76.9826 56.2372 77.0858 56.3366 77.1815 56.438C79.9095 59.3013 82.6366 62.1647 85.3618 65.0308C85.534 65.2122 85.6924 65.4066 85.8554 65.5954C85.9853 65.7473 86.0553 65.9103 85.9337 66.1194Z" fill="white"/>
<path d="M49.971 66.2824C49.7601 65.9582 49.9074 65.7832 50.0539 65.6202C50.4913 65.1312 50.926 64.6384 51.3782 64.1623C53.7608 61.6609 56.149 59.1641 58.5362 56.6673C58.6762 56.5208 58.8125 56.356 58.9838 56.2593C59.0952 56.1966 59.2951 56.1911 59.4074 56.251C59.587 56.3458 59.5585 56.5439 59.4737 56.7069C59.424 56.8017 59.3485 56.8856 59.2721 56.9638C56.4013 59.9285 53.5297 62.8913 50.6571 65.8542C50.5705 65.9435 50.484 66.0411 50.379 66.1047C50.2565 66.1802 50.1137 66.2225 49.971 66.2824Z" fill="white"/>
<path d="M72.5648 46.0225C72.5509 48.5322 70.5174 50.5786 68.0409 50.5749C65.5173 50.5712 63.4543 48.5137 63.4691 46.016C63.4838 43.4879 65.5413 41.447 68.0482 41.4728C70.5671 41.4995 72.5786 43.5247 72.5648 46.0225ZM64.2731 45.9571C64.2657 48.068 65.8959 49.7469 67.9672 49.7635C70.0947 49.781 71.7911 48.1352 71.8022 46.0418C71.8132 43.93 70.1389 42.2298 68.051 42.2326C65.9428 42.2354 64.2805 43.8747 64.2731 45.9571Z" fill="#CCB47F"/>
</svg>
