<svg width="1439" height="96" viewBox="0 0 1439 96" fill="none" xmlns="http://www.w3.org/2000/svg">
<g clip-path="url(#clip0_2301_294)">
<path d="M973.26 65.6456C973.225 65.3977 973.334 65.1385 973.636 65.0897C974.541 64.9444 975.498 65.0584 976.417 64.987C977.309 64.9181 978.192 64.7804 979.063 64.585C980.84 64.1856 982.556 63.547 984.145 62.6742C987.138 61.0275 989.606 58.5657 991.274 55.6381C992.206 54.0027 992.954 52.1895 993.399 50.3676C993.453 50.1484 993.632 50.0833 993.797 50.1196C994.041 49.868 994.489 50.0382 994.511 50.3989C994.562 51.2441 994.286 52.1257 994.16 52.9609C994.033 53.8036 993.956 54.6526 993.917 55.5029C993.837 57.2121 993.914 58.9339 994.164 60.6281C994.67 64.0516 995.815 67.3824 997.551 70.4002C998.034 71.2392 998.563 72.0544 999.134 72.8383C999.715 73.6359 1000.35 74.391 1000.92 75.1974C1001.19 75.5743 1000.71 75.9275 1000.35 75.7797C1000.32 75.7935 1000.29 75.8047 1000.25 75.8085C1000.22 75.811 1000.2 75.8072 1000.17 75.8085C998.877 76.2417 997.577 76.6299 996.314 77.1371C995.02 77.658 993.769 78.2828 992.57 78.9891C990.146 80.4166 987.94 82.1584 986.039 84.2082C985.518 84.7692 985.016 85.349 984.546 85.9526C984.309 86.2581 984.078 86.5686 983.854 86.8829C983.617 87.2173 983.416 87.5942 983.102 87.8659C982.787 88.1389 982.273 87.9674 982.205 87.6005C982.154 87.5616 982.114 87.5065 982.1 87.4351C981.945 86.6876 982.131 85.8762 982.163 85.1173C982.195 84.351 982.182 83.5847 982.133 82.8183C982.035 81.2718 981.76 79.7404 981.331 78.2478C980.48 75.2901 979.017 72.4776 977.024 70.0947C976.463 69.4248 975.863 68.7874 975.225 68.1864C974.569 67.569 973.849 67.0369 973.164 66.4546C972.879 66.2117 973.002 65.826 973.26 65.6456ZM996.863 71.432C995.935 69.9106 995.162 68.3028 994.539 66.6411C993.534 63.9539 992.95 61.1077 992.797 58.2464C992.641 58.5983 992.479 58.9476 992.312 59.2932C992.206 59.6952 992.117 60.1022 992.048 60.5117C991.785 62.0594 991.801 63.6734 992.102 65.2149C992.664 68.0987 994.214 70.6757 996.426 72.6529C997.021 73.1851 997.66 73.6647 998.342 74.0867C998.56 74.2219 998.786 74.3472 999.009 74.4749C998.194 73.532 997.496 72.4689 996.863 71.432ZM990.854 61.9479C990.252 62.8971 989.577 63.8049 988.802 64.6539C986.891 66.7463 984.385 68.3617 981.558 68.9577C982.119 69.7466 982.497 70.7283 982.857 71.5886C983.313 72.6717 983.671 73.7962 983.956 74.9332C984.365 76.5698 984.613 78.2528 984.686 79.9408C985.098 79.1944 985.577 78.4845 986.113 77.8158C987.541 76.0352 989.373 74.5538 991.454 73.5545C992.536 73.0349 993.634 72.6705 994.816 72.4952C994.187 71.8428 993.62 71.1328 993.123 70.3802C991.477 67.8858 990.694 64.9018 990.854 61.9479ZM984.794 83.8451C985.755 82.7632 986.809 81.7577 987.931 80.8361C990.197 78.9741 992.724 77.4727 995.458 76.3594C996.471 75.9475 997.515 75.5781 998.586 75.3164C998.419 75.2275 998.261 75.1373 998.115 75.0534C997.432 74.6652 996.786 74.2207 996.174 73.7336C995.896 73.512 995.626 73.279 995.366 73.0361C995.336 73.0587 995.305 73.0774 995.267 73.0887C993.188 73.7186 991.194 74.5926 989.486 75.9274C987.789 77.2535 986.384 78.9265 985.406 80.8223C985.115 81.3871 984.889 81.9831 984.652 82.5754C984.625 82.9798 984.591 83.3831 984.542 83.785C984.526 83.9253 984.504 84.0655 984.485 84.2045C984.59 84.0855 984.69 83.9628 984.794 83.8451ZM980.274 72.9234C981.856 75.7734 982.828 78.9403 983.109 82.1709C983.187 83.0725 983.205 83.9778 983.164 84.8807C983.15 85.2025 983.142 85.5506 983.117 85.9012C983.22 85.7697 983.323 85.6408 983.419 85.5168L983.423 85.5118C983.38 85.0197 983.44 84.5376 983.504 84.0517C983.49 84.0242 983.48 83.9929 983.477 83.9603C983.426 83.4118 983.509 82.8546 983.665 82.3112C983.683 81.9493 983.694 81.5874 983.695 81.2242C983.704 79.8043 983.6 78.383 983.362 76.9805C983.123 75.5806 982.762 74.1994 982.286 72.8596C982.042 72.1759 981.775 71.4984 981.475 70.836C981.214 70.2638 980.885 69.704 980.665 69.1143C979.673 69.2482 978.61 69.2733 977.608 69.1005C978.621 70.285 979.519 71.5648 980.274 72.9234ZM976.317 67.693C976.386 67.6842 976.463 67.688 976.547 67.708C977.214 67.8695 977.86 68.0449 978.55 68.095C979.228 68.1438 979.916 68.1263 980.588 68.0349C981.95 67.8483 983.271 67.3887 984.473 66.7438C987.031 65.3727 988.946 63.1826 990.463 60.7884C990.704 60.4077 990.938 60.0208 991.165 59.6314C991.269 59.148 991.397 58.6696 991.554 58.1976C991.809 57.43 992.097 56.4082 992.765 55.871C992.776 55.5679 992.788 55.2637 992.809 54.9606C992.717 55.1622 992.62 55.3626 992.522 55.5604C991.735 57.1357 990.698 58.6033 989.502 59.9093C987.016 62.6203 983.695 64.5775 980.104 65.5342C979.051 65.8147 977.974 66.005 976.888 66.1165C976.35 66.1716 975.809 66.2054 975.268 66.2167C975.073 66.2204 974.877 66.2242 974.679 66.2242C975.258 66.6699 975.801 67.1721 976.317 67.693Z" fill="#F8B6D4" fill-opacity="0.3"/>
<path d="M468.142 22.5092C468.066 22.4361 468.036 22.3213 468.125 22.2255C468.393 21.9386 468.746 21.7239 469.038 21.4578C469.321 21.1997 469.584 20.9211 469.828 20.6264C470.324 20.0253 470.738 19.3608 471.049 18.652C471.633 17.3161 471.829 15.8481 471.634 14.4365C471.525 13.648 471.308 12.8489 470.986 12.1268C470.947 12.0399 470.991 11.9712 471.056 11.9396C471.073 11.7917 471.269 11.7301 471.369 11.844C471.606 12.111 471.741 12.4763 471.915 12.7867C472.09 13.0999 472.284 13.4019 472.491 13.6946C472.907 14.2828 473.38 14.8338 473.903 15.3301C474.961 16.3328 476.211 17.1362 477.58 17.6797C477.96 17.8308 478.35 17.9619 478.746 18.0713C479.149 18.1827 479.561 18.2647 479.962 18.3823C480.149 18.4373 480.079 18.6805 479.921 18.7255C479.914 18.7379 479.906 18.7504 479.894 18.7615C479.885 18.7701 479.874 18.7766 479.864 18.7848C479.541 19.2685 479.203 19.7403 478.908 20.2417C478.606 20.7558 478.345 21.2932 478.123 21.8438C477.674 22.957 477.38 24.117 477.269 25.2986C477.239 25.6222 477.219 25.947 477.217 26.2712C477.216 26.4352 477.218 26.5992 477.224 26.7624C477.231 26.936 477.261 27.1142 477.225 27.287C477.189 27.4609 476.971 27.5393 476.853 27.4355C476.826 27.4362 476.798 27.4284 476.775 27.4084C476.529 27.2013 476.381 26.8829 476.196 26.6227C476.008 26.3599 475.805 26.1089 475.59 25.8675C475.156 25.3804 474.666 24.9446 474.134 24.5623C473.081 23.8052 471.858 23.2578 470.567 22.9928C470.204 22.9184 469.836 22.8653 469.464 22.8341C469.083 22.8022 468.702 22.8155 468.319 22.8031C468.16 22.7976 468.102 22.6371 468.142 22.5092ZM477.615 18.2035C476.907 17.9434 476.229 17.614 475.588 17.2267C474.552 16.6 473.617 15.8095 472.824 14.9002C472.863 15.0583 472.899 15.2169 472.932 15.3756C473 15.5371 473.075 15.6955 473.158 15.8497C473.47 16.4327 473.894 16.9639 474.395 17.3963C475.332 18.205 476.524 18.6513 477.783 18.7241C478.122 18.7437 478.462 18.7342 478.802 18.6945C478.911 18.6818 479.02 18.6638 479.128 18.6473C478.608 18.5494 478.097 18.3807 477.615 18.2035ZM473.127 16.6411C473.17 17.1149 473.177 17.5943 473.135 18.0805C473.032 19.2789 472.604 20.4762 471.804 21.4194C472.198 21.5333 472.579 21.7595 472.924 21.9499C473.359 22.1891 473.771 22.4679 474.162 22.77C474.724 23.2052 475.244 23.6983 475.706 24.2392C475.652 23.8829 475.63 23.521 475.638 23.1576C475.658 22.1902 475.894 21.2152 476.337 20.3348C476.568 19.877 476.845 19.4663 477.199 19.0963C476.817 19.0457 476.442 18.9597 476.079 18.841C474.876 18.4475 473.838 17.6637 473.127 16.6411ZM476.755 25.5065C476.799 24.8939 476.894 24.2822 477.034 23.6805C477.317 22.4647 477.782 21.2999 478.417 20.2094C478.652 19.8056 478.909 19.4075 479.203 19.0383C479.124 19.0528 479.047 19.0645 478.976 19.0752C478.645 19.1265 478.311 19.1493 477.978 19.1491C477.827 19.149 477.675 19.1428 477.524 19.1309C477.52 19.1462 477.515 19.1605 477.505 19.1744C476.966 19.9319 476.519 20.7477 476.288 21.6412C476.058 22.5289 476.017 23.4547 476.178 24.3418C476.226 24.6061 476.304 24.8635 476.377 25.1227C476.473 25.264 476.566 25.4066 476.654 25.5529C476.685 25.6038 476.714 25.6561 476.743 25.7073C476.748 25.6401 476.75 25.5729 476.755 25.5065ZM472.397 23.0743C473.671 23.6027 474.819 24.3974 475.752 25.3954C476.012 25.6739 476.252 25.9696 476.472 26.2801C476.551 26.3906 476.639 26.5081 476.721 26.6313C476.722 26.5602 476.723 26.4903 476.723 26.4238L476.724 26.4211C476.581 26.2693 476.477 26.0934 476.372 25.9153C476.361 25.9098 476.349 25.9022 476.34 25.892C476.18 25.7236 476.064 25.5166 475.976 25.2953C475.888 25.1705 475.798 25.0473 475.704 24.9265C475.339 24.4529 474.936 24.0087 474.492 23.6062C474.048 23.2046 473.569 22.8414 473.061 22.5223C472.801 22.3597 472.535 22.2053 472.262 22.0647C472.026 21.9435 471.77 21.8448 471.543 21.707C471.242 22.0131 470.89 22.3017 470.506 22.5088C471.155 22.6348 471.79 22.8225 472.397 23.0743ZM469.705 22.3823C469.727 22.3611 469.754 22.342 469.787 22.3266C470.054 22.2042 470.318 22.0921 470.564 21.9266C470.806 21.7641 471.033 21.5768 471.237 21.3691C471.648 20.948 471.975 20.4471 472.215 19.9159C472.723 18.7862 472.802 17.5543 472.694 16.3596C472.677 16.1696 472.656 15.9796 472.632 15.7905C472.542 15.6026 472.461 15.41 472.392 15.2121C472.279 14.89 472.111 14.475 472.198 14.1204C472.123 14.0171 472.048 13.9128 471.977 13.8068C471.998 13.8981 472.017 13.9899 472.035 14.0817C472.178 14.8119 472.208 15.5725 472.142 16.3214C472.005 17.8768 471.39 19.4021 470.425 20.6668C470.142 21.0379 469.828 21.385 469.49 21.7084C469.322 21.8686 469.148 22.0226 468.969 22.1689C468.904 22.2216 468.838 22.2746 468.772 22.3268C469.083 22.322 469.396 22.3455 469.705 22.3823Z" fill="#F8B6D4" fill-opacity="0.3"/>
<path d="M989.26 12.6461C989.428 12.6929 989.596 12.7421 989.762 12.7925C989.786 12.7843 989.812 12.7796 989.839 12.7831C989.979 12.6953 990.151 12.6379 990.298 12.5653C990.63 12.4002 990.956 12.2198 991.258 12.002C991.54 11.7983 991.802 11.557 992.012 11.2772C992.115 11.139 992.205 10.9891 992.28 10.8322C992.355 10.6717 992.408 10.4949 992.493 10.3403C992.511 10.3099 992.532 10.2923 992.558 10.2818C992.594 10.194 992.635 10.1085 992.698 10.0382C992.771 9.95623 992.912 10.016 992.914 10.1249C992.916 10.2677 992.859 10.4024 992.814 10.5359C992.82 10.6671 992.775 10.8146 992.76 10.9364C992.74 11.0945 992.73 11.2549 992.725 11.4142C992.717 11.7444 992.737 12.077 992.79 12.4025C992.843 12.7222 992.922 13.0384 993.026 13.344C993.082 13.5045 993.141 13.6637 993.209 13.8183C993.259 13.9307 993.318 14.0443 993.341 14.1661C993.546 14.2715 993.747 14.3839 993.941 14.5057C994.057 14.5795 993.989 14.7949 993.847 14.7457C993.641 14.6743 993.438 14.5982 993.236 14.5197C993.233 14.5209 993.231 14.5221 993.229 14.5233C992.955 14.6029 992.677 14.6579 992.412 14.7657C992.143 14.8746 991.888 15.0186 991.653 15.1919C991.208 15.521 990.854 15.9671 990.62 16.4742C990.573 16.6007 990.526 16.7271 990.479 16.8536C990.442 16.952 990.356 17.0211 990.248 16.9941C990.157 16.9719 990.074 16.8571 990.11 16.7588C990.147 16.6616 990.184 16.5632 990.221 16.466C990.217 16.4402 990.218 16.4133 990.227 16.3852C990.236 16.3594 990.244 16.3325 990.252 16.3056C990.244 16.2938 990.237 16.2822 990.232 16.2681C990.198 16.2189 990.178 16.1533 990.198 16.0948C990.216 16.0386 990.239 15.9835 990.262 15.9285C990.27 15.7915 990.285 15.6556 990.293 15.5186C990.311 15.1989 990.309 14.8781 990.273 14.5595C990.245 14.2972 990.184 14.0384 990.088 13.7925C990.01 13.5899 989.9 13.419 989.775 13.2504C989.569 13.1883 989.362 13.1274 989.155 13.0688C988.889 12.9951 988.992 12.5723 989.26 12.6461Z" fill="#F8B6D4" fill-opacity="0.3"/>
<path d="M854.171 71.0662C854.335 71.0097 854.501 70.9551 854.667 70.9022C854.682 70.8817 854.701 70.8636 854.725 70.8508C854.791 70.699 854.9 70.5547 854.98 70.4115C855.16 70.0873 855.326 69.7538 855.452 69.403C855.568 69.0756 855.647 68.7284 855.662 68.3786C855.669 68.2062 855.657 68.0319 855.63 67.8603C855.602 67.6851 855.545 67.5095 855.527 67.3339C855.524 67.2991 855.532 67.2722 855.547 67.2492C855.528 67.156 855.512 67.0628 855.525 66.9691C855.539 66.8599 855.688 66.8296 855.752 66.9181C855.835 67.0345 855.864 67.178 855.902 67.3134C855.981 67.4182 856.028 67.5651 856.085 67.6739C856.158 67.8152 856.241 67.9532 856.327 68.0871C856.508 68.3637 856.712 68.6266 856.94 68.8648C857.165 69.0982 857.41 69.3138 857.669 69.5063C857.805 69.6072 857.945 69.7045 858.088 69.7935C858.193 69.8581 858.306 69.9178 858.394 70.0051C858.623 69.976 858.852 69.9546 859.081 69.9449C859.218 69.9399 859.285 70.1558 859.139 70.1961C858.93 70.2538 858.719 70.3064 858.508 70.3564C858.507 70.3586 858.505 70.3609 858.504 70.3632C858.324 70.5838 858.126 70.7867 857.969 71.0259C857.809 71.2681 857.68 71.5313 857.585 71.8069C857.405 72.3307 857.366 72.8989 857.461 73.4488C857.494 73.5797 857.527 73.7106 857.56 73.8415C857.585 73.9434 857.554 74.0492 857.449 74.0882C857.362 74.1213 857.228 74.0743 857.202 73.9724C857.177 73.8715 857.152 73.7696 857.127 73.6687C857.11 73.6495 857.095 73.6266 857.087 73.5983C857.079 73.5725 857.07 73.5457 857.062 73.519C857.049 73.5139 857.036 73.5081 857.024 73.4992C856.968 73.4782 856.915 73.4352 856.898 73.3759C856.881 73.3192 856.869 73.2608 856.857 73.2025C856.786 73.085 856.721 72.9646 856.65 72.8472C856.484 72.5734 856.3 72.3104 856.09 72.0682C855.918 71.8683 855.721 71.6896 855.503 71.5411C855.324 71.4185 855.136 71.3402 854.937 71.2723C854.733 71.3377 854.528 71.4048 854.324 71.4738C854.063 71.5641 853.908 71.1572 854.171 71.0662Z" fill="#F8B6D4" fill-opacity="0.3"/>
<path d="M464.115 80.2549C464.29 80.2568 464.464 80.2608 464.638 80.2664C464.66 80.2522 464.683 80.2411 464.71 80.2374C464.823 80.1163 464.973 80.0165 465.097 79.9084C465.375 79.6629 465.643 79.4043 465.879 79.1157C466.098 78.846 466.289 78.5452 466.419 78.2204C466.483 78.0602 466.531 77.8922 466.563 77.7213C466.594 77.5467 466.6 77.3622 466.642 77.1909C466.651 77.157 466.667 77.1344 466.689 77.1177C466.702 77.0234 466.718 76.9304 466.761 76.8462C466.811 76.7479 466.962 76.7694 466.992 76.874C467.031 77.0114 467.011 77.1563 467.002 77.2969C467.042 77.4221 467.036 77.5762 467.054 77.6977C467.076 77.8554 467.107 78.0131 467.144 78.1681C467.222 78.4892 467.327 78.8054 467.462 79.1061C467.596 79.4012 467.754 79.6861 467.934 79.9543C468.029 80.095 468.128 80.2333 468.233 80.3651C468.31 80.4609 468.397 80.5552 468.451 80.6669C468.676 80.7157 468.899 80.7723 469.118 80.8397C469.249 80.8809 469.24 81.1065 469.089 81.0959C468.872 81.0801 468.656 81.0593 468.44 81.0358C468.439 81.0375 468.437 81.0393 468.435 81.041C468.191 81.1887 467.937 81.3138 467.708 81.4866C467.477 81.6614 467.268 81.8665 467.086 82.0946C466.741 82.5278 466.514 83.0504 466.42 83.6005C466.408 83.7349 466.395 83.8692 466.382 84.0036C466.372 84.1081 466.307 84.1972 466.195 84.1991C466.102 84.2011 465.991 84.112 466.001 84.0074C466.012 83.904 466.022 83.7995 466.032 83.6961C466.022 83.6721 466.016 83.6458 466.018 83.6163C466.019 83.5893 466.02 83.5612 466.02 83.5331C466.01 83.5238 466 83.5143 465.992 83.502C465.946 83.4634 465.91 83.4051 465.914 83.3435C465.917 83.2844 465.925 83.2253 465.933 83.1662C465.905 83.0318 465.884 82.8967 465.857 82.7623C465.792 82.4487 465.706 82.1394 465.59 81.8409C465.494 81.595 465.368 81.3608 465.212 81.1479C465.084 80.9724 464.934 80.8359 464.769 80.7054C464.554 80.6987 464.339 80.6934 464.124 80.6904C463.847 80.6881 463.838 80.253 464.115 80.2549Z" fill="#F8B6D4" fill-opacity="0.3"/>
<path d="M543.778 47.9264C543.951 47.9117 544.126 47.8992 544.299 47.8882C544.319 47.8721 544.341 47.8589 544.368 47.8526C544.469 47.7213 544.609 47.6077 544.722 47.4884C544.975 47.2177 545.218 46.9348 545.425 46.6251C545.618 46.3359 545.779 46.0184 545.878 45.6827C545.927 45.5171 545.959 45.3454 545.974 45.1722C545.989 44.9954 545.977 44.8113 546.002 44.6367C546.008 44.6022 546.022 44.5781 546.042 44.5594C546.046 44.4643 546.054 44.3701 546.089 44.2822C546.129 44.1797 546.281 44.1867 546.321 44.288C546.373 44.421 546.366 44.5673 546.371 44.7081C546.422 44.8289 546.432 44.9828 546.46 45.1022C546.497 45.2571 546.544 45.4111 546.595 45.5619C546.703 45.8742 546.837 46.179 547 46.4656C547.161 46.7467 547.346 47.0153 547.551 47.2652C547.659 47.3962 547.77 47.5246 547.888 47.6458C547.973 47.7339 548.069 47.8194 548.133 47.9255C548.361 47.9529 548.589 47.988 548.814 48.0343C548.948 48.0629 548.96 48.2885 548.809 48.2922C548.591 48.2971 548.374 48.2967 548.157 48.2938C548.156 48.2957 548.154 48.2977 548.152 48.2996C547.924 48.4697 547.682 48.6183 547.471 48.812C547.257 49.0079 547.069 49.2319 546.91 49.4762C546.607 49.9402 546.431 50.4819 546.389 51.0385C546.389 51.1734 546.389 51.3084 546.389 51.4433C546.389 51.5484 546.333 51.6432 546.222 51.6557C546.129 51.6665 546.011 51.5883 546.011 51.4833C546.011 51.3793 546.011 51.2743 546.012 51.1704C546 51.1475 545.991 51.1218 545.99 51.0923C545.989 51.0653 545.987 51.0373 545.985 51.0092C545.973 51.0011 545.963 50.9925 545.954 50.981C545.904 50.9469 545.863 50.8923 545.861 50.8306C545.858 50.7715 545.861 50.7119 545.863 50.6523C545.823 50.5211 545.789 50.3886 545.749 50.2574C545.654 49.9514 545.54 49.6515 545.396 49.3655C545.277 49.1297 545.13 48.9085 544.954 48.7114C544.81 48.5488 544.647 48.4271 544.471 48.3129C544.257 48.3265 544.042 48.3417 543.828 48.359C543.552 48.383 543.501 47.9507 543.778 47.9264Z" fill="#F8B6D4" fill-opacity="0.3"/>
<path d="M1081.26 72.6461C1081.43 72.6929 1081.6 72.7421 1081.76 72.7925C1081.79 72.7843 1081.81 72.7796 1081.84 72.7831C1081.98 72.6953 1082.15 72.6379 1082.3 72.5653C1082.63 72.4002 1082.96 72.2198 1083.26 72.002C1083.54 71.7983 1083.8 71.557 1084.01 71.2772C1084.12 71.139 1084.2 70.9891 1084.28 70.8322C1084.36 70.6717 1084.41 70.4949 1084.49 70.3403C1084.51 70.3099 1084.53 70.2923 1084.56 70.2818C1084.59 70.194 1084.63 70.1085 1084.7 70.0382C1084.77 69.9562 1084.91 70.016 1084.91 70.1249C1084.92 70.2677 1084.86 70.4024 1084.81 70.5359C1084.82 70.6671 1084.77 70.8146 1084.76 70.9364C1084.74 71.0945 1084.73 71.2549 1084.73 71.4142C1084.72 71.7444 1084.74 72.077 1084.79 72.4025C1084.84 72.7222 1084.92 73.0384 1085.03 73.344C1085.08 73.5045 1085.14 73.6637 1085.21 73.8183C1085.26 73.9307 1085.32 74.0443 1085.34 74.1661C1085.55 74.2715 1085.75 74.3839 1085.94 74.5057C1086.06 74.5795 1085.99 74.7949 1085.85 74.7457C1085.64 74.6743 1085.44 74.5982 1085.24 74.5197C1085.23 74.5209 1085.23 74.5221 1085.23 74.5233C1084.96 74.6029 1084.68 74.6579 1084.41 74.7657C1084.14 74.8746 1083.89 75.0186 1083.65 75.1919C1083.21 75.521 1082.85 75.9671 1082.62 76.4742C1082.57 76.6007 1082.53 76.7271 1082.48 76.8536C1082.44 76.952 1082.36 77.0211 1082.25 76.9941C1082.16 76.9719 1082.07 76.8571 1082.11 76.7588C1082.15 76.6616 1082.18 76.5632 1082.22 76.466C1082.22 76.4402 1082.22 76.4133 1082.23 76.3852C1082.24 76.3594 1082.24 76.3325 1082.25 76.3056C1082.24 76.2938 1082.24 76.2822 1082.23 76.2681C1082.2 76.2189 1082.18 76.1533 1082.2 76.0948C1082.22 76.0386 1082.24 75.9835 1082.26 75.9285C1082.27 75.7915 1082.28 75.6556 1082.29 75.5186C1082.31 75.1989 1082.31 74.8781 1082.27 74.5595C1082.24 74.2972 1082.18 74.0384 1082.09 73.7925C1082.01 73.5899 1081.9 73.419 1081.77 73.2504C1081.57 73.1883 1081.36 73.1274 1081.16 73.0688C1080.89 72.9951 1080.99 72.5723 1081.26 72.6461Z" fill="#F8B6D4" fill-opacity="0.3"/>
<path d="M971.07 2.58711C971.104 2.46907 971.162 2.36701 971.242 2.27971C971.318 2.18626 971.408 2.12109 971.511 2.08297C971.61 2.02272 971.718 1.99565 971.833 2.00057C971.984 2.00057 972.125 2.04485 972.255 2.13093C972.297 2.15675 972.34 2.18255 972.382 2.20838C972.476 2.2674 972.557 2.35717 972.639 2.43832C972.674 2.47275 972.708 2.50471 972.739 2.54283C972.753 2.56004 972.768 2.57726 972.782 2.5957C972.826 2.64857 972.866 2.70759 972.902 2.7703C972.925 2.83547 972.95 2.90063 972.974 2.9658C972.99 3.03958 972.999 3.11335 973 3.18836C973.003 3.29902 972.984 3.40233 972.939 3.49824C972.911 3.59783 972.862 3.6839 972.794 3.75768C972.77 3.78227 972.745 3.80439 972.719 3.82406C972.65 3.8966 972.569 3.94458 972.476 3.9704C972.41 3.99131 972.342 4.00113 972.275 3.9999C972.255 3.9999 972.235 3.99989 972.214 3.99866C972.171 3.99743 972.129 3.9913 972.086 3.98515C971.975 3.96917 971.853 3.97038 971.749 3.9298C971.704 3.91136 971.659 3.89294 971.614 3.87449C971.473 3.829 971.349 3.74783 971.246 3.62856C971.203 3.56462 971.158 3.49947 971.115 3.43553C971.04 3.28675 971.002 3.12568 971.001 2.95353C970.994 2.8232 971.018 2.70146 971.07 2.58711Z" fill="#F8B6D4" fill-opacity="0.3"/>
<path d="M871.07 22.5871C871.104 22.4691 871.162 22.367 871.242 22.2797C871.318 22.1863 871.408 22.1211 871.511 22.083C871.61 22.0227 871.718 21.9956 871.833 22.0006C871.984 22.0006 872.125 22.0449 872.255 22.1309C872.297 22.1567 872.34 22.1826 872.382 22.2084C872.476 22.2674 872.557 22.3572 872.639 22.4383C872.674 22.4728 872.708 22.5047 872.739 22.5428C872.753 22.56 872.768 22.5773 872.782 22.5957C872.826 22.6486 872.866 22.7076 872.902 22.7703C872.925 22.8355 872.95 22.9006 872.974 22.9658C872.99 23.0396 872.999 23.1134 873 23.1884C873.003 23.299 872.984 23.4023 872.939 23.4982C872.911 23.5978 872.862 23.6839 872.794 23.7577C872.77 23.7823 872.745 23.8044 872.719 23.8241C872.65 23.8966 872.569 23.9446 872.476 23.9704C872.41 23.9913 872.342 24.0011 872.275 23.9999C872.255 23.9999 872.235 23.9999 872.214 23.9987C872.171 23.9974 872.129 23.9913 872.086 23.9852C871.975 23.9692 871.853 23.9704 871.749 23.9298C871.704 23.9114 871.659 23.8929 871.614 23.8745C871.473 23.829 871.349 23.7478 871.246 23.6286C871.203 23.5646 871.158 23.4995 871.115 23.4355C871.04 23.2868 871.002 23.1257 871.001 22.9535C870.994 22.8232 871.018 22.7015 871.07 22.5871Z" fill="#F8B6D4" fill-opacity="0.3"/>
<path d="M751.07 21.5871C751.104 21.4691 751.162 21.367 751.242 21.2797C751.318 21.1863 751.408 21.1211 751.511 21.083C751.61 21.0227 751.718 20.9956 751.833 21.0006C751.984 21.0006 752.125 21.0449 752.255 21.1309C752.297 21.1567 752.34 21.1826 752.382 21.2084C752.476 21.2674 752.557 21.3572 752.639 21.4383C752.674 21.4728 752.708 21.5047 752.739 21.5428C752.753 21.56 752.768 21.5773 752.782 21.5957C752.826 21.6486 752.866 21.7076 752.902 21.7703C752.925 21.8355 752.95 21.9006 752.974 21.9658C752.99 22.0396 752.999 22.1134 753 22.1884C753.003 22.299 752.984 22.4023 752.939 22.4982C752.911 22.5978 752.862 22.6839 752.794 22.7577C752.77 22.7823 752.745 22.8044 752.719 22.8241C752.65 22.8966 752.569 22.9446 752.476 22.9704C752.41 22.9913 752.342 23.0011 752.275 22.9999C752.255 22.9999 752.235 22.9999 752.214 22.9987C752.171 22.9974 752.129 22.9913 752.086 22.9852C751.975 22.9692 751.853 22.9704 751.749 22.9298C751.704 22.9114 751.659 22.8929 751.614 22.8745C751.473 22.829 751.349 22.7478 751.246 22.6286C751.203 22.5646 751.158 22.4995 751.115 22.4355C751.04 22.2868 751.002 22.1257 751.001 21.9535C750.994 21.8232 751.018 21.7015 751.07 21.5871Z" fill="#F8B6D4" fill-opacity="0.3"/>
<path d="M721.07 81.5871C721.104 81.4691 721.162 81.367 721.242 81.2797C721.318 81.1863 721.408 81.1211 721.511 81.083C721.61 81.0227 721.718 80.9956 721.833 81.0006C721.984 81.0006 722.125 81.0449 722.255 81.1309C722.297 81.1567 722.34 81.1826 722.382 81.2084C722.476 81.2674 722.557 81.3572 722.639 81.4383C722.674 81.4728 722.708 81.5047 722.739 81.5428C722.753 81.56 722.768 81.5773 722.782 81.5957C722.826 81.6486 722.866 81.7076 722.902 81.7703C722.925 81.8355 722.95 81.9006 722.974 81.9658C722.99 82.0396 722.999 82.1134 723 82.1884C723.003 82.299 722.984 82.4023 722.939 82.4982C722.911 82.5978 722.862 82.6839 722.794 82.7577C722.77 82.7823 722.745 82.8044 722.719 82.8241C722.65 82.8966 722.569 82.9446 722.476 82.9704C722.41 82.9913 722.342 83.0011 722.275 82.9999C722.255 82.9999 722.235 82.9999 722.214 82.9987C722.171 82.9974 722.129 82.9913 722.086 82.9852C721.975 82.9692 721.853 82.9704 721.749 82.9298C721.704 82.9114 721.659 82.8929 721.614 82.8745C721.473 82.829 721.349 82.7478 721.246 82.6286C721.203 82.5646 721.158 82.4995 721.115 82.4355C721.04 82.2868 721.002 82.1257 721.001 81.9535C720.994 81.8232 721.018 81.7015 721.07 81.5871Z" fill="#F8B6D4" fill-opacity="0.3"/>
<path d="M396.07 81.5871C396.104 81.4691 396.162 81.367 396.242 81.2797C396.318 81.1863 396.408 81.1211 396.511 81.083C396.61 81.0227 396.718 80.9956 396.833 81.0006C396.984 81.0006 397.125 81.0449 397.255 81.1309C397.297 81.1567 397.34 81.1826 397.382 81.2084C397.476 81.2674 397.557 81.3572 397.639 81.4383C397.674 81.4728 397.708 81.5047 397.739 81.5428C397.753 81.56 397.768 81.5773 397.782 81.5957C397.826 81.6486 397.866 81.7076 397.902 81.7703C397.925 81.8355 397.95 81.9006 397.974 81.9658C397.99 82.0396 397.999 82.1134 398 82.1884C398.003 82.299 397.984 82.4023 397.939 82.4982C397.911 82.5978 397.862 82.6839 397.794 82.7577C397.77 82.7823 397.745 82.8044 397.719 82.8241C397.65 82.8966 397.569 82.9446 397.476 82.9704C397.41 82.9913 397.342 83.0011 397.275 82.9999C397.255 82.9999 397.235 82.9999 397.214 82.9987C397.171 82.9974 397.129 82.9913 397.086 82.9852C396.975 82.9692 396.853 82.9704 396.749 82.9298C396.704 82.9114 396.659 82.8929 396.614 82.8745C396.473 82.829 396.349 82.7478 396.246 82.6286C396.203 82.5646 396.158 82.4995 396.115 82.4355C396.04 82.2868 396.002 82.1257 396.001 81.9535C395.994 81.8232 396.018 81.7015 396.07 81.5871Z" fill="#F8B6D4" fill-opacity="0.3"/>
<path d="M231.07 81.5871C231.104 81.4691 231.162 81.367 231.242 81.2797C231.318 81.1863 231.408 81.1211 231.511 81.083C231.61 81.0227 231.718 80.9956 231.833 81.0006C231.984 81.0006 232.125 81.0449 232.255 81.1309C232.297 81.1567 232.34 81.1826 232.382 81.2084C232.476 81.2674 232.557 81.3572 232.639 81.4383C232.674 81.4728 232.708 81.5047 232.739 81.5428C232.753 81.56 232.768 81.5773 232.782 81.5957C232.826 81.6486 232.866 81.7076 232.902 81.7703C232.925 81.8355 232.95 81.9006 232.974 81.9658C232.99 82.0396 232.999 82.1134 233 82.1884C233.003 82.299 232.984 82.4023 232.939 82.4982C232.911 82.5978 232.862 82.6839 232.794 82.7577C232.77 82.7823 232.745 82.8044 232.719 82.8241C232.65 82.8966 232.569 82.9446 232.476 82.9704C232.41 82.9913 232.342 83.0011 232.275 82.9999C232.255 82.9999 232.235 82.9999 232.214 82.9987C232.171 82.9974 232.129 82.9913 232.086 82.9852C231.975 82.9692 231.853 82.9704 231.749 82.9298C231.704 82.9114 231.659 82.8929 231.614 82.8745C231.473 82.829 231.349 82.7478 231.246 82.6286C231.203 82.5646 231.158 82.4995 231.115 82.4355C231.04 82.2868 231.002 82.1257 231.001 81.9535C230.994 81.8232 231.018 81.7015 231.07 81.5871Z" fill="#F8B6D4" fill-opacity="0.3"/>
<path d="M236.07 84.5871C236.104 84.4691 236.162 84.367 236.242 84.2797C236.318 84.1863 236.408 84.1211 236.511 84.083C236.61 84.0227 236.718 83.9956 236.833 84.0006C236.984 84.0006 237.125 84.0449 237.255 84.1309C237.297 84.1567 237.34 84.1826 237.382 84.2084C237.476 84.2674 237.557 84.3572 237.639 84.4383C237.674 84.4728 237.708 84.5047 237.739 84.5428C237.753 84.56 237.768 84.5773 237.782 84.5957C237.826 84.6486 237.866 84.7076 237.902 84.7703C237.925 84.8355 237.95 84.9006 237.974 84.9658C237.99 85.0396 237.999 85.1134 238 85.1884C238.003 85.299 237.984 85.4023 237.939 85.4982C237.911 85.5978 237.862 85.6839 237.794 85.7577C237.77 85.7823 237.745 85.8044 237.719 85.8241C237.65 85.8966 237.569 85.9446 237.476 85.9704C237.41 85.9913 237.342 86.0011 237.275 85.9999C237.255 85.9999 237.235 85.9999 237.214 85.9987C237.171 85.9974 237.129 85.9913 237.086 85.9852C236.975 85.9692 236.853 85.9704 236.749 85.9298C236.704 85.9114 236.659 85.8929 236.614 85.8745C236.473 85.829 236.349 85.7478 236.246 85.6286C236.203 85.5646 236.158 85.4995 236.115 85.4355C236.04 85.2868 236.002 85.1257 236.001 84.9535C235.994 84.8232 236.018 84.7015 236.07 84.5871Z" fill="#F8B6D4" fill-opacity="0.3"/>
<path d="M416.07 21.5871C416.104 21.4691 416.162 21.367 416.242 21.2797C416.318 21.1863 416.408 21.1211 416.511 21.083C416.61 21.0227 416.718 20.9956 416.833 21.0006C416.984 21.0006 417.125 21.0449 417.255 21.1309C417.297 21.1567 417.34 21.1826 417.382 21.2084C417.476 21.2674 417.557 21.3572 417.639 21.4383C417.674 21.4728 417.708 21.5047 417.739 21.5428C417.753 21.56 417.768 21.5773 417.782 21.5957C417.826 21.6486 417.866 21.7076 417.902 21.7703C417.925 21.8355 417.95 21.9006 417.974 21.9658C417.99 22.0396 417.999 22.1134 418 22.1884C418.003 22.299 417.984 22.4023 417.939 22.4982C417.911 22.5978 417.862 22.6839 417.794 22.7577C417.77 22.7823 417.745 22.8044 417.719 22.8241C417.65 22.8966 417.569 22.9446 417.476 22.9704C417.41 22.9913 417.342 23.0011 417.275 22.9999C417.255 22.9999 417.235 22.9999 417.214 22.9987C417.171 22.9974 417.129 22.9913 417.086 22.9852C416.975 22.9692 416.853 22.9704 416.749 22.9298C416.704 22.9114 416.659 22.8929 416.614 22.8745C416.473 22.829 416.349 22.7478 416.246 22.6286C416.203 22.5646 416.158 22.4995 416.115 22.4355C416.04 22.2868 416.002 22.1257 416.001 21.9535C415.994 21.8232 416.018 21.7015 416.07 21.5871Z" fill="#F8B6D4" fill-opacity="0.3"/>
<path d="M791.07 62.5871C791.104 62.4691 791.162 62.367 791.242 62.2797C791.318 62.1863 791.408 62.1211 791.511 62.083C791.61 62.0227 791.718 61.9956 791.833 62.0006C791.984 62.0006 792.125 62.0449 792.255 62.1309C792.297 62.1567 792.34 62.1826 792.382 62.2084C792.476 62.2674 792.557 62.3572 792.639 62.4383C792.674 62.4728 792.708 62.5047 792.739 62.5428C792.753 62.56 792.768 62.5773 792.782 62.5957C792.826 62.6486 792.866 62.7076 792.902 62.7703C792.925 62.8355 792.95 62.9006 792.974 62.9658C792.99 63.0396 792.999 63.1134 793 63.1884C793.003 63.299 792.984 63.4023 792.939 63.4982C792.911 63.5978 792.862 63.6839 792.794 63.7577C792.77 63.7823 792.745 63.8044 792.719 63.8241C792.65 63.8966 792.569 63.9446 792.476 63.9704C792.41 63.9913 792.342 64.0011 792.275 63.9999C792.255 63.9999 792.235 63.9999 792.214 63.9987C792.171 63.9974 792.129 63.9913 792.086 63.9852C791.975 63.9692 791.853 63.9704 791.749 63.9298C791.704 63.9114 791.659 63.8929 791.614 63.8745C791.473 63.829 791.349 63.7478 791.246 63.6286C791.203 63.5646 791.158 63.4995 791.115 63.4355C791.04 63.2868 791.002 63.1257 791.001 62.9535C790.994 62.8232 791.018 62.7015 791.07 62.5871Z" fill="#F8B6D4" fill-opacity="0.3"/>
<path d="M671.07 71.5871C671.104 71.4691 671.162 71.367 671.242 71.2797C671.318 71.1863 671.408 71.1211 671.511 71.083C671.61 71.0227 671.718 70.9956 671.833 71.0006C671.984 71.0006 672.125 71.0449 672.255 71.1309C672.297 71.1567 672.34 71.1826 672.382 71.2084C672.476 71.2674 672.557 71.3572 672.639 71.4383C672.674 71.4728 672.708 71.5047 672.739 71.5428C672.753 71.56 672.768 71.5773 672.782 71.5957C672.826 71.6486 672.866 71.7076 672.902 71.7703C672.925 71.8355 672.95 71.9006 672.974 71.9658C672.99 72.0396 672.999 72.1134 673 72.1884C673.003 72.299 672.984 72.4023 672.939 72.4982C672.911 72.5978 672.862 72.6839 672.794 72.7577C672.77 72.7823 672.745 72.8044 672.719 72.8241C672.65 72.8966 672.569 72.9446 672.476 72.9704C672.41 72.9913 672.342 73.0011 672.275 72.9999C672.255 72.9999 672.235 72.9999 672.214 72.9987C672.171 72.9974 672.129 72.9913 672.086 72.9852C671.975 72.9692 671.853 72.9704 671.749 72.9298C671.704 72.9114 671.659 72.8929 671.614 72.8745C671.473 72.829 671.349 72.7478 671.246 72.6286C671.203 72.5646 671.158 72.4995 671.115 72.4355C671.04 72.2868 671.002 72.1257 671.001 71.9535C670.994 71.8232 671.018 71.7015 671.07 71.5871Z" fill="#F8B6D4" fill-opacity="0.3"/>
<path d="M346.07 71.5871C346.104 71.4691 346.162 71.367 346.242 71.2797C346.318 71.1863 346.408 71.1211 346.511 71.083C346.61 71.0227 346.718 70.9956 346.833 71.0006C346.984 71.0006 347.125 71.0449 347.255 71.1309C347.297 71.1567 347.34 71.1826 347.382 71.2084C347.476 71.2674 347.557 71.3572 347.639 71.4383C347.674 71.4728 347.708 71.5047 347.739 71.5428C347.753 71.56 347.768 71.5773 347.782 71.5957C347.826 71.6486 347.866 71.7076 347.902 71.7703C347.925 71.8355 347.95 71.9006 347.974 71.9658C347.99 72.0396 347.999 72.1134 348 72.1884C348.003 72.299 347.984 72.4023 347.939 72.4982C347.911 72.5978 347.862 72.6839 347.794 72.7577C347.77 72.7823 347.745 72.8044 347.719 72.8241C347.65 72.8966 347.569 72.9446 347.476 72.9704C347.41 72.9913 347.342 73.0011 347.275 72.9999C347.255 72.9999 347.235 72.9999 347.214 72.9987C347.171 72.9974 347.129 72.9913 347.086 72.9852C346.975 72.9692 346.853 72.9704 346.749 72.9298C346.704 72.9114 346.659 72.8929 346.614 72.8745C346.473 72.829 346.349 72.7478 346.246 72.6286C346.203 72.5646 346.158 72.4995 346.115 72.4355C346.04 72.2868 346.002 72.1257 346.001 71.9535C345.994 71.8232 346.018 71.7015 346.07 71.5871Z" fill="#F8B6D4" fill-opacity="0.3"/>
<path d="M181.07 71.5871C181.104 71.4691 181.162 71.367 181.242 71.2797C181.318 71.1863 181.408 71.1211 181.511 71.083C181.61 71.0227 181.718 70.9956 181.833 71.0006C181.984 71.0006 182.125 71.0449 182.255 71.1309C182.297 71.1567 182.34 71.1826 182.382 71.2084C182.476 71.2674 182.557 71.3572 182.639 71.4383C182.674 71.4728 182.708 71.5047 182.739 71.5428C182.753 71.56 182.768 71.5773 182.782 71.5957C182.826 71.6486 182.866 71.7076 182.902 71.7703C182.925 71.8355 182.95 71.9006 182.974 71.9658C182.99 72.0396 182.999 72.1134 183 72.1884C183.003 72.299 182.984 72.4023 182.939 72.4982C182.911 72.5978 182.862 72.6839 182.794 72.7577C182.77 72.7823 182.745 72.8044 182.719 72.8241C182.65 72.8966 182.569 72.9446 182.476 72.9704C182.41 72.9913 182.342 73.0011 182.275 72.9999C182.255 72.9999 182.235 72.9999 182.214 72.9987C182.171 72.9974 182.129 72.9913 182.086 72.9852C181.975 72.9692 181.853 72.9704 181.749 72.9298C181.704 72.9114 181.659 72.8929 181.614 72.8745C181.473 72.829 181.349 72.7478 181.246 72.6286C181.203 72.5646 181.158 72.4995 181.115 72.4355C181.04 72.2868 181.002 72.1257 181.001 71.9535C180.994 71.8232 181.018 71.7015 181.07 71.5871Z" fill="#F8B6D4" fill-opacity="0.3"/>
<path d="M366.07 11.5871C366.104 11.4691 366.162 11.367 366.242 11.2797C366.318 11.1863 366.408 11.1211 366.511 11.083C366.61 11.0227 366.718 10.9956 366.833 11.0006C366.984 11.0006 367.125 11.0449 367.255 11.1309C367.297 11.1567 367.34 11.1826 367.382 11.2084C367.476 11.2674 367.557 11.3572 367.639 11.4383C367.674 11.4728 367.708 11.5047 367.739 11.5428C367.753 11.56 367.768 11.5773 367.782 11.5957C367.826 11.6486 367.866 11.7076 367.902 11.7703C367.925 11.8355 367.95 11.9006 367.974 11.9658C367.99 12.0396 367.999 12.1134 368 12.1884C368.003 12.299 367.984 12.4023 367.939 12.4982C367.911 12.5978 367.862 12.6839 367.794 12.7577C367.77 12.7823 367.745 12.8044 367.719 12.8241C367.65 12.8966 367.569 12.9446 367.476 12.9704C367.41 12.9913 367.342 13.0011 367.275 12.9999C367.255 12.9999 367.235 12.9999 367.214 12.9987C367.171 12.9974 367.129 12.9913 367.086 12.9852C366.975 12.9692 366.853 12.9704 366.749 12.9298C366.704 12.9114 366.659 12.8929 366.614 12.8745C366.473 12.829 366.349 12.7478 366.246 12.6286C366.203 12.5646 366.158 12.4995 366.115 12.4355C366.04 12.2868 366.002 12.1257 366.001 11.9535C365.994 11.8232 366.018 11.7015 366.07 11.5871Z" fill="#F8B6D4" fill-opacity="0.3"/>
<path d="M638.07 22.5871C638.104 22.4691 638.162 22.367 638.242 22.2797C638.318 22.1863 638.408 22.1211 638.511 22.083C638.61 22.0227 638.718 21.9956 638.833 22.0006C638.984 22.0006 639.125 22.0449 639.255 22.1309C639.297 22.1567 639.34 22.1826 639.382 22.2084C639.476 22.2674 639.557 22.3572 639.639 22.4383C639.674 22.4728 639.708 22.5047 639.739 22.5428C639.753 22.56 639.768 22.5773 639.782 22.5957C639.826 22.6486 639.866 22.7076 639.902 22.7703C639.925 22.8355 639.95 22.9006 639.974 22.9658C639.99 23.0396 639.999 23.1134 640 23.1884C640.003 23.299 639.984 23.4023 639.939 23.4982C639.911 23.5978 639.862 23.6839 639.794 23.7577C639.77 23.7823 639.745 23.8044 639.719 23.8241C639.65 23.8966 639.569 23.9446 639.476 23.9704C639.41 23.9913 639.342 24.0011 639.275 23.9999C639.255 23.9999 639.235 23.9999 639.214 23.9987C639.171 23.9974 639.129 23.9913 639.086 23.9852C638.975 23.9692 638.853 23.9704 638.749 23.9298C638.704 23.9114 638.659 23.8929 638.614 23.8745C638.473 23.829 638.349 23.7478 638.246 23.6286C638.203 23.5646 638.158 23.4995 638.115 23.4355C638.04 23.2868 638.002 23.1257 638.001 22.9535C637.994 22.8232 638.018 22.7015 638.07 22.5871Z" fill="#F8B6D4" fill-opacity="0.3"/>
<path d="M595.07 83.5871C595.104 83.4691 595.162 83.367 595.242 83.2797C595.318 83.1863 595.408 83.1211 595.511 83.083C595.61 83.0227 595.718 82.9956 595.833 83.0006C595.984 83.0006 596.125 83.0449 596.255 83.1309C596.297 83.1567 596.34 83.1826 596.382 83.2084C596.476 83.2674 596.557 83.3572 596.639 83.4383C596.674 83.4728 596.708 83.5047 596.739 83.5428C596.753 83.56 596.768 83.5773 596.782 83.5957C596.826 83.6486 596.866 83.7076 596.902 83.7703C596.925 83.8355 596.95 83.9006 596.974 83.9658C596.99 84.0396 596.999 84.1134 597 84.1884C597.003 84.299 596.984 84.4023 596.939 84.4982C596.911 84.5978 596.862 84.6839 596.794 84.7577C596.77 84.7823 596.745 84.8044 596.719 84.8241C596.65 84.8966 596.569 84.9446 596.476 84.9704C596.41 84.9913 596.342 85.0011 596.275 84.9999C596.255 84.9999 596.235 84.9999 596.214 84.9987C596.171 84.9974 596.129 84.9913 596.086 84.9852C595.975 84.9692 595.853 84.9704 595.749 84.9298C595.704 84.9114 595.659 84.8929 595.614 84.8745C595.473 84.829 595.349 84.7478 595.246 84.6286C595.203 84.5646 595.158 84.4995 595.115 84.4355C595.04 84.2868 595.002 84.1257 595.001 83.9535C594.994 83.8232 595.018 83.7015 595.07 83.5871Z" fill="#F8B6D4" fill-opacity="0.3"/>
<path d="M270.07 73.5871C270.104 73.4691 270.162 73.367 270.242 73.2797C270.318 73.1863 270.408 73.1211 270.511 73.083C270.61 73.0227 270.718 72.9956 270.833 73.0006C270.984 73.0006 271.125 73.0449 271.255 73.1309C271.297 73.1567 271.34 73.1826 271.382 73.2084C271.476 73.2674 271.557 73.3572 271.639 73.4383C271.674 73.4728 271.708 73.5047 271.739 73.5428C271.753 73.56 271.768 73.5773 271.782 73.5957C271.826 73.6486 271.866 73.7076 271.902 73.7703C271.925 73.8355 271.95 73.9006 271.974 73.9658C271.99 74.0396 271.999 74.1134 272 74.1884C272.003 74.299 271.984 74.4023 271.939 74.4982C271.911 74.5978 271.862 74.6839 271.794 74.7577C271.77 74.7823 271.745 74.8044 271.719 74.8241C271.65 74.8966 271.569 74.9446 271.476 74.9704C271.41 74.9913 271.342 75.0011 271.275 74.9999C271.255 74.9999 271.235 74.9999 271.214 74.9987C271.171 74.9974 271.129 74.9913 271.086 74.9852C270.975 74.9692 270.853 74.9704 270.749 74.9298C270.704 74.9114 270.659 74.8929 270.614 74.8745C270.473 74.829 270.349 74.7478 270.246 74.6286C270.203 74.5646 270.158 74.4995 270.115 74.4355C270.04 74.2868 270.002 74.1257 270.001 73.9535C269.994 73.8232 270.018 73.7015 270.07 73.5871Z" fill="#F8B6D4" fill-opacity="0.3"/>
<path d="M105.07 83.5871C105.104 83.4691 105.162 83.367 105.242 83.2797C105.318 83.1863 105.408 83.1211 105.511 83.083C105.61 83.0227 105.718 82.9956 105.833 83.0006C105.984 83.0006 106.125 83.0449 106.255 83.1309C106.297 83.1567 106.34 83.1826 106.382 83.2084C106.476 83.2674 106.557 83.3572 106.639 83.4383C106.674 83.4728 106.708 83.5047 106.739 83.5428C106.753 83.56 106.768 83.5773 106.782 83.5957C106.826 83.6486 106.866 83.7076 106.902 83.7703C106.925 83.8355 106.95 83.9006 106.974 83.9658C106.99 84.0396 106.999 84.1134 107 84.1884C107.003 84.299 106.984 84.4023 106.939 84.4982C106.911 84.5978 106.862 84.6839 106.794 84.7577C106.77 84.7823 106.745 84.8044 106.719 84.8241C106.65 84.8966 106.569 84.9446 106.476 84.9704C106.41 84.9913 106.342 85.0011 106.275 84.9999C106.255 84.9999 106.235 84.9999 106.214 84.9987C106.171 84.9974 106.129 84.9913 106.086 84.9852C105.975 84.9692 105.853 84.9704 105.749 84.9298C105.704 84.9114 105.659 84.8929 105.614 84.8745C105.473 84.829 105.349 84.7478 105.246 84.6286C105.203 84.5646 105.158 84.4995 105.115 84.4355C105.04 84.2868 105.002 84.1257 105.001 83.9535C104.994 83.8232 105.018 83.7015 105.07 83.5871Z" fill="#F8B6D4" fill-opacity="0.3"/>
<path d="M290.07 23.5871C290.104 23.4691 290.162 23.367 290.242 23.2797C290.318 23.1863 290.408 23.1211 290.511 23.083C290.61 23.0227 290.718 22.9956 290.833 23.0006C290.984 23.0006 291.125 23.0449 291.255 23.1309C291.297 23.1567 291.34 23.1826 291.382 23.2084C291.476 23.2674 291.557 23.3572 291.639 23.4383C291.674 23.4728 291.708 23.5047 291.739 23.5428C291.753 23.56 291.768 23.5773 291.782 23.5957C291.826 23.6486 291.866 23.7076 291.902 23.7703C291.925 23.8355 291.95 23.9006 291.974 23.9658C291.99 24.0396 291.999 24.1134 292 24.1884C292.003 24.299 291.984 24.4023 291.939 24.4982C291.911 24.5978 291.862 24.6839 291.794 24.7577C291.77 24.7823 291.745 24.8044 291.719 24.8241C291.65 24.8966 291.569 24.9446 291.476 24.9704C291.41 24.9913 291.342 25.0011 291.275 24.9999C291.255 24.9999 291.235 24.9999 291.214 24.9987C291.171 24.9974 291.129 24.9913 291.086 24.9852C290.975 24.9692 290.853 24.9704 290.749 24.9298C290.704 24.9114 290.659 24.8929 290.614 24.8745C290.473 24.829 290.349 24.7478 290.246 24.6286C290.203 24.5646 290.158 24.4995 290.115 24.4355C290.04 24.2868 290.002 24.1257 290.001 23.9535C289.994 23.8232 290.018 23.7015 290.07 23.5871Z" fill="#F8B6D4" fill-opacity="0.3"/>
<path d="M551.07 13.5871C551.104 13.4691 551.162 13.367 551.242 13.2797C551.318 13.1863 551.408 13.1211 551.511 13.083C551.61 13.0227 551.718 12.9956 551.833 13.0006C551.984 13.0006 552.125 13.0449 552.255 13.1309C552.297 13.1567 552.34 13.1826 552.382 13.2084C552.476 13.2674 552.557 13.3572 552.639 13.4383C552.674 13.4728 552.708 13.5047 552.739 13.5428C552.753 13.56 552.768 13.5773 552.782 13.5957C552.826 13.6486 552.866 13.7076 552.902 13.7703C552.925 13.8355 552.95 13.9006 552.974 13.9658C552.99 14.0396 552.999 14.1134 553 14.1884C553.003 14.299 552.984 14.4023 552.939 14.4982C552.911 14.5978 552.862 14.6839 552.794 14.7577C552.77 14.7823 552.745 14.8044 552.719 14.8241C552.65 14.8966 552.569 14.9446 552.476 14.9704C552.41 14.9913 552.342 15.0011 552.275 14.9999C552.255 14.9999 552.235 14.9999 552.214 14.9987C552.171 14.9974 552.129 14.9913 552.086 14.9852C551.975 14.9692 551.853 14.9704 551.749 14.9298C551.704 14.9114 551.659 14.8929 551.614 14.8745C551.473 14.829 551.349 14.7478 551.246 14.6286C551.203 14.5646 551.158 14.4995 551.115 14.4355C551.04 14.2868 551.002 14.1257 551.001 13.9535C550.994 13.8232 551.018 13.7015 551.07 13.5871Z" fill="#F8B6D4" fill-opacity="0.3"/>
<path d="M826.316 27.7725C819.594 33.0789 810.373 34.915 801.71 31.8291C792.521 28.557 786.348 20.5992 784.917 11.6C785.371 24.9676 793.837 37.3299 807.201 42.0896C824.665 48.309 843.863 39.1937 850.081 21.7305C856.301 4.26722 847.186 -14.9303 829.722 -21.1496C816.358 -25.9093 801.984 -21.6801 793.182 -11.6084C799.979 -17.6771 809.793 -19.9414 818.981 -16.6693C828.839 -13.1584 835.148 -4.42207 835.932 5.37445" stroke="#F8B6D4" stroke-opacity="0.3" stroke-width="0.4" stroke-miterlimit="10" stroke-linecap="round" stroke-linejoin="round"/>
<path d="M835.901 5.00661C835.901 5.00661 836.85 14.2841 828.227 16.4913C828.227 16.4913 829.399 18.8981 832.406 20.8537C835.413 22.8093 835.868 20.4117 835.868 20.4117C835.868 20.4117 836.15 19.3927 835.086 19.014" stroke="#F8B6D4" stroke-opacity="0.3" stroke-width="0.4" stroke-miterlimit="10" stroke-linecap="round" stroke-linejoin="round"/>
<path d="M832.406 20.8537C832.406 20.8537 830.217 23.8426 829.095 23.5653C827.974 23.288 828.173 26.1561 828.173 26.1561C828.173 26.1561 827.425 25.783 826.839 26.3018C826.529 26.5769 826.146 27.0485 826.316 27.7718C826.316 27.7718 828.205 30.6107 835.428 29.7093" stroke="#F8B6D4" stroke-opacity="0.3" stroke-width="0.4" stroke-miterlimit="10" stroke-linecap="round" stroke-linejoin="round"/>
<path d="M837.208 12.5366C837.208 12.5366 839.031 10.5471 842.344 10.7482C845.656 10.9493 848.044 13.3162 848.044 13.3162C848.044 13.3162 843.066 14.2055 837.208 12.5366Z" fill="#F8B6D4" fill-opacity="0.3"/>
<path d="M836.846 12.097C839.427 9.79456 842.971 8.60762 846.417 8.8928" stroke="#F8B6D4" stroke-opacity="0.3" stroke-width="0.4" stroke-miterlimit="10" stroke-linecap="round" stroke-linejoin="round"/>
<path d="M837.414 12.9483C838.194 13.5789 839.067 14.0953 839.996 14.4764" stroke="#F8B6D4" stroke-opacity="0.3" stroke-width="0.4" stroke-miterlimit="10" stroke-linecap="round" stroke-linejoin="round"/>
<path d="M836.32 19.4437C836.446 19.9944 836.371 20.5884 836.114 21.0912C835.856 21.594 835.418 22.0017 834.897 22.2219" stroke="#F8B6D4" stroke-opacity="0.3" stroke-width="0.4" stroke-miterlimit="10" stroke-linecap="round" stroke-linejoin="round"/>
<path d="M831.96 22.3238C831.581 22.88 831.172 23.4611 830.561 23.7445" stroke="#F8B6D4" stroke-opacity="0.3" stroke-width="0.4" stroke-miterlimit="10" stroke-linecap="round" stroke-linejoin="round"/>
<path d="M836.39 29.8893C834.359 29.4837 833.393 27.5288 832.754 26.1937C832.728 26.1065 832.686 26.024 832.634 25.946C832.507 25.6818 832.389 25.4424 832.277 25.2575C831.767 24.4159 830.909 24.4953 830.282 24.5519C830.03 24.5751 829.793 24.5967 829.653 24.5485C829.651 24.5478 829.65 24.5472 829.648 24.5472C829.222 24.3953 829.362 23.6107 829.364 23.6029C829.376 23.5413 829.335 23.4796 829.272 23.4694C829.209 23.4576 829.15 23.4988 829.138 23.5605C829.137 23.5675 829.13 23.6111 829.124 23.6678C829.113 23.6515 829.098 23.637 829.075 23.6321C828.598 23.5279 828.407 23.9999 828.274 24.3897C828.206 24.5889 828.169 24.7925 828.145 24.9962C828.069 25.3348 828.095 25.7076 828.153 26.0523C828.135 26.0556 828.121 26.058 828.107 26.0689C827.446 25.9461 826.771 26.0758 826.446 26.6968C826.345 26.8902 826.317 27.0756 826.338 27.2534C826.306 27.2692 826.279 27.2977 826.273 27.3421C826.204 27.8223 826.681 28.2259 827.061 28.4238C827.232 28.5133 827.427 28.6177 827.632 28.7154C827.639 28.7497 827.655 28.7819 827.696 28.7996C827.837 28.8617 827.988 28.9478 828.14 29.0215C828.145 29.025 828.145 29.0312 828.15 29.034C828.533 29.2393 828.412 29.1885 828.823 29.3336C828.848 29.3429 828.869 29.3356 828.888 29.3298C828.918 29.3411 828.943 29.349 828.981 29.3638C829.031 29.3832 829.067 29.3633 829.093 29.3325C829.105 29.3326 829.118 29.3341 829.128 29.3305C829.245 29.3699 829.363 29.4078 829.479 29.452C829.483 29.4533 829.485 29.4509 829.489 29.4514C830.786 29.9431 832.379 29.9666 833.659 29.9082C833.755 29.9041 833.795 29.8023 833.767 29.7359C833.781 29.7351 833.794 29.7344 833.807 29.7336C833.994 29.7891 834.181 29.8067 834.377 29.7667C834.406 29.7612 834.422 29.7433 834.437 29.7254C834.583 29.7509 834.726 29.7818 834.87 29.8229C834.931 29.8402 834.974 29.8075 834.999 29.7644C835.246 29.8426 835.498 29.9066 835.763 29.9452C835.777 29.9505 835.791 29.9575 835.806 29.9628C835.978 30.0237 836.158 30.0742 836.347 30.1126C836.41 30.1251 836.47 30.0846 836.482 30.0229C836.492 29.9629 836.456 29.9048 836.39 29.8893ZM829.687 27.6407C830.601 27.9425 831.88 28.4135 832.767 29.1166C831.594 29.111 830.257 28.6526 829.324 28.2948C829.076 28.1997 828.796 28.0809 828.581 27.8928C828.555 27.8395 828.542 27.787 828.542 27.7338C828.569 27.6836 828.604 27.6352 828.653 27.5922C828.956 27.4403 829.343 27.5273 829.687 27.6407ZM828.298 26.6266C828.291 26.6247 828.283 26.6212 828.276 26.6186C828.286 26.6211 828.295 26.6229 828.304 26.6254C828.302 26.6256 828.3 26.6265 828.298 26.6266ZM833.894 29.4754C833.902 29.4842 833.911 29.4898 833.919 29.4979C833.913 29.4982 833.906 29.4986 833.9 29.4997C833.9 29.4912 833.896 29.4838 833.894 29.4754ZM828.912 24.06C828.92 24.0533 828.929 24.0458 828.936 24.04C828.937 24.0469 828.939 24.0538 828.94 24.0606C828.93 24.0589 828.921 24.0594 828.912 24.06ZM828.541 24.6728C828.643 24.6144 828.724 24.6027 828.794 24.6187C828.8 24.6276 828.798 24.6393 828.808 24.6472C829.105 24.9132 829.255 25.4292 829.637 25.6192C830.212 25.9059 830.442 25.4749 831.145 25.9796C831.772 26.4309 832.145 27.3584 832.522 28.2055C832.119 27.9519 831.702 27.6907 831.229 27.4181C829.901 26.6534 828.886 26.2704 828.444 26.1225C828.373 25.8403 828.337 25.5553 828.346 25.2669C828.369 25.0649 828.435 24.831 828.541 24.6728Z" fill="#F8B6D4" fill-opacity="0.3"/>
<path d="M836.657 29.3018C836.896 29.4509 836.996 29.7873 836.878 30.0429" stroke="#F8B6D4" stroke-opacity="0.3" stroke-width="0.4" stroke-miterlimit="10" stroke-linecap="round" stroke-linejoin="round"/>
<path d="M837.12 13.1446C837.531 13.6948 838.016 14.1898 838.559 14.6112" stroke="#F8B6D4" stroke-opacity="0.3" stroke-width="0.4" stroke-miterlimit="10" stroke-linecap="round" stroke-linejoin="round"/>
<path d="M840.756 13.597C843.177 14.0778 845.693 14.0784 848.114 13.5976" stroke="#F8B6D4" stroke-opacity="0.3" stroke-width="0.4" stroke-miterlimit="10" stroke-linecap="round" stroke-linejoin="round"/>
<path d="M837.3 6.13751C837.572 6.72059 837.89 7.28089 838.252 7.8132C838.306 7.89412 838.369 7.98003 838.462 8.01243C838.567 8.04949 838.683 8.00878 838.787 7.9672C840.572 7.24947 842.213 6.15884 844.079 5.68955C844.339 5.62421 844.607 5.57076 844.874 5.59998C845.105 5.62507 845.325 5.71028 845.54 5.79649C846.969 6.3661 848.372 7.00127 849.743 7.6993" stroke="#F8B6D4" stroke-opacity="0.3" stroke-width="0.4" stroke-miterlimit="10" stroke-linecap="round" stroke-linejoin="round"/>
<path d="M837.797 5.78126C837.944 6.05054 838.133 6.3498 838.436 6.39311C838.626 6.41985 838.812 6.33646 838.985 6.25533C840.373 5.60247 841.77 4.94052 843.261 4.58262C843.634 4.49299 844.016 4.42282 844.397 4.46159C844.779 4.50101 845.142 4.64814 845.494 4.80201C846.989 5.45495 848.421 6.25283 849.763 7.18179" stroke="#F8B6D4" stroke-opacity="0.3" stroke-width="0.4" stroke-miterlimit="10" stroke-linecap="round" stroke-linejoin="round"/>
<path d="M831.838 15.1939C832.198 15.4464 832.493 15.7907 832.688 16.1849" stroke="#F8B6D4" stroke-opacity="0.3" stroke-width="0.4" stroke-miterlimit="10" stroke-linecap="round" stroke-linejoin="round"/>
<path d="M832.379 14.8729C832.627 15.057 832.842 15.2832 833.013 15.5389" stroke="#F8B6D4" stroke-opacity="0.3" stroke-width="0.4" stroke-miterlimit="10" stroke-linecap="round" stroke-linejoin="round"/>
<path d="M832.871 14.6335C833.014 14.7186 833.139 14.8357 833.233 14.9724" stroke="#F8B6D4" stroke-opacity="0.3" stroke-width="0.4" stroke-miterlimit="10" stroke-linecap="round" stroke-linejoin="round"/>
<path d="M824.812 28.9046C826.401 28.94 827.976 29.4447 829.29 30.339" stroke="#F8B6D4" stroke-opacity="0.3" stroke-width="0.4" stroke-miterlimit="10" stroke-linecap="round" stroke-linejoin="round"/>
<path d="M837.787 8.14515C837.387 7.82041 837.053 7.41462 836.81 6.96033" stroke="#F8B6D4" stroke-opacity="0.3" stroke-width="0.4" stroke-miterlimit="10" stroke-linecap="round" stroke-linejoin="round"/>
<path d="M837.064 8.3472C836.818 8.07727 836.652 7.73628 836.589 7.3761" stroke="#F8B6D4" stroke-opacity="0.3" stroke-width="0.4" stroke-miterlimit="10" stroke-linecap="round" stroke-linejoin="round"/>
<path d="M841.303 15.4907C841.361 16.9893 841.654 18.478 842.167 19.8868" stroke="#F8B6D4" stroke-opacity="0.3" stroke-width="0.4" stroke-miterlimit="10" stroke-linecap="round" stroke-linejoin="round"/>
<path d="M842.28 16.4572C842.377 17.9056 842.687 19.3401 843.2 20.6987" stroke="#F8B6D4" stroke-opacity="0.3" stroke-width="0.4" stroke-miterlimit="10" stroke-linecap="round" stroke-linejoin="round"/>
<path d="M843.02 16.2365C843.049 17.5654 843.347 18.8887 843.891 20.1011" stroke="#F8B6D4" stroke-opacity="0.3" stroke-width="0.4" stroke-miterlimit="10" stroke-linecap="round" stroke-linejoin="round"/>
<path d="M843.851 16.6534C843.942 17.6306 844.218 18.5909 844.657 19.4683" stroke="#F8B6D4" stroke-opacity="0.3" stroke-width="0.4" stroke-miterlimit="10" stroke-linecap="round" stroke-linejoin="round"/>
<path d="M844.597 16.9264C844.79 18.0072 845.14 19.0588 845.632 20.0405" stroke="#F8B6D4" stroke-opacity="0.3" stroke-width="0.4" stroke-miterlimit="10" stroke-linecap="round" stroke-linejoin="round"/>
<path d="M845.114 16.4509C845.284 17.3262 845.59 18.1751 846.016 18.9583" stroke="#F8B6D4" stroke-opacity="0.3" stroke-width="0.4" stroke-miterlimit="10" stroke-linecap="round" stroke-linejoin="round"/>
<path d="M845.798 16.9373C845.886 17.3274 846.009 17.7092 846.165 18.0775" stroke="#F8B6D4" stroke-opacity="0.3" stroke-width="0.4" stroke-miterlimit="10" stroke-linecap="round" stroke-linejoin="round"/>
<path d="M20.0644 86.009C28.0935 86.009 34.6024 79.5001 34.6024 71.471C34.6024 63.4419 28.0935 56.933 20.0644 56.933C12.0352 56.933 5.52637 63.4419 5.52637 71.471C5.52637 79.5001 12.0352 86.009 20.0644 86.009Z" stroke="#F8B6D4" stroke-opacity="0.3" stroke-width="0.5" stroke-miterlimit="10" stroke-linecap="round" stroke-linejoin="round"/>
<path d="M6.52138 66.181C0.921381 65.983 -2.79262 66.499 -2.99162 67.726C-3.33162 69.821 6.71538 73.196 19.4484 75.265C32.1824 77.333 42.7804 77.311 43.1214 75.216C43.3204 73.989 39.9604 72.324 34.5854 70.739" stroke="#F8B6D4" stroke-opacity="0.3" stroke-width="0.5" stroke-miterlimit="10" stroke-linecap="round" stroke-linejoin="round"/>
<path d="M7.83429 63.741C2.37229 62.491 -1.37271 62.297 -1.79971 63.464C-2.52871 65.458 6.70129 70.667 18.8163 75.099C30.9313 79.531 41.3443 81.508 42.0733 79.514C42.5003 78.347 39.5143 76.078 34.5343 73.508" stroke="#F8B6D4" stroke-opacity="0.3" stroke-width="0.5" stroke-miterlimit="10" stroke-linecap="round" stroke-linejoin="round"/>
<path d="M42.0025 34.701C43.5305 36.262 45.8805 36.521 47.6885 35.477C47.4885 35.807 47.2505 36.119 46.9625 36.401C45.1135 38.211 42.1475 38.18 40.3375 36.332C38.5275 34.483 38.5585 31.517 40.4065 29.707C40.6945 29.425 41.0125 29.193 41.3455 29C40.2635 30.786 40.4745 33.141 42.0025 34.701Z" stroke="#F8B6D4" stroke-opacity="0.3" stroke-width="0.5" stroke-miterlimit="10" stroke-linecap="round" stroke-linejoin="round"/>
<path d="M95.261 28.149C97.379 28.149 99.096 26.432 99.096 24.314C99.096 22.196 97.379 20.479 95.261 20.479C93.143 20.479 91.426 22.196 91.426 24.314C91.426 26.432 93.143 28.149 95.261 28.149Z" stroke="#F8B6D4" stroke-opacity="0.3" stroke-width="0.5" stroke-miterlimit="10" stroke-linecap="round" stroke-linejoin="round"/>
<path d="M93.944 19.622L93.199 17" stroke="#F8B6D4" stroke-opacity="0.3" stroke-width="0.5" stroke-miterlimit="10" stroke-linecap="round" stroke-linejoin="round"/>
<path d="M97.3241 31.523L96.5801 28.901" stroke="#F8B6D4" stroke-opacity="0.3" stroke-width="0.5" stroke-miterlimit="10" stroke-linecap="round" stroke-linejoin="round"/>
<path d="M90.622 25.58L88 26.325" stroke="#F8B6D4" stroke-opacity="0.3" stroke-width="0.5" stroke-miterlimit="10" stroke-linecap="round" stroke-linejoin="round"/>
<path d="M102.523 22.199L99.9009 22.944" stroke="#F8B6D4" stroke-opacity="0.3" stroke-width="0.5" stroke-miterlimit="10" stroke-linecap="round" stroke-linejoin="round"/>
<path d="M92.8271 20.098L91.8201 18.378" stroke="#F8B6D4" stroke-opacity="0.3" stroke-width="0.5" stroke-miterlimit="10" stroke-linecap="round" stroke-linejoin="round"/>
<path d="M98.553 29.889L97.697 28.425" stroke="#F8B6D4" stroke-opacity="0.3" stroke-width="0.5" stroke-miterlimit="10" stroke-linecap="round" stroke-linejoin="round"/>
<path d="M91.0979 26.697L89.8789 27.41" stroke="#F8B6D4" stroke-opacity="0.3" stroke-width="0.5" stroke-miterlimit="10" stroke-linecap="round" stroke-linejoin="round"/>
<path d="M100.847 20.995L99.4248 21.827" stroke="#F8B6D4" stroke-opacity="0.3" stroke-width="0.5" stroke-miterlimit="10" stroke-linecap="round" stroke-linejoin="round"/>
<path d="M91.8639 20.839L89.9429 18.904" stroke="#F8B6D4" stroke-opacity="0.3" stroke-width="0.5" stroke-miterlimit="10" stroke-linecap="round" stroke-linejoin="round"/>
<path d="M100.58 29.619L98.6589 27.685" stroke="#F8B6D4" stroke-opacity="0.3" stroke-width="0.5" stroke-miterlimit="10" stroke-linecap="round" stroke-linejoin="round"/>
<path d="M91.8391 27.659L89.9041 29.58" stroke="#F8B6D4" stroke-opacity="0.3" stroke-width="0.5" stroke-miterlimit="10" stroke-linecap="round" stroke-linejoin="round"/>
<path d="M100.619 18.944L98.6851 20.864" stroke="#F8B6D4" stroke-opacity="0.3" stroke-width="0.5" stroke-miterlimit="10" stroke-linecap="round" stroke-linejoin="round"/>
<path d="M91.117 21.796L89.342 20.74" stroke="#F8B6D4" stroke-opacity="0.3" stroke-width="0.5" stroke-miterlimit="10" stroke-linecap="round" stroke-linejoin="round"/>
<path d="M100.672 27.48L99.406 26.727" stroke="#F8B6D4" stroke-opacity="0.3" stroke-width="0.5" stroke-miterlimit="10" stroke-linecap="round" stroke-linejoin="round"/>
<path d="M92.796 28.407L91.886 29.935" stroke="#F8B6D4" stroke-opacity="0.3" stroke-width="0.5" stroke-miterlimit="10" stroke-linecap="round" stroke-linejoin="round"/>
<path d="M98.4971 18.822L97.7271 20.117" stroke="#F8B6D4" stroke-opacity="0.3" stroke-width="0.5" stroke-miterlimit="10" stroke-linecap="round" stroke-linejoin="round"/>
<path d="M90.6319 22.909L88.0149 22.145" stroke="#F8B6D4" stroke-opacity="0.3" stroke-width="0.5" stroke-miterlimit="10" stroke-linecap="round" stroke-linejoin="round"/>
<path d="M102.508 26.378L99.8909 25.614" stroke="#F8B6D4" stroke-opacity="0.3" stroke-width="0.5" stroke-miterlimit="10" stroke-linecap="round" stroke-linejoin="round"/>
<path d="M93.909 28.891L93.145 31.508" stroke="#F8B6D4" stroke-opacity="0.3" stroke-width="0.5" stroke-miterlimit="10" stroke-linecap="round" stroke-linejoin="round"/>
<path d="M97.378 17.015L96.614 19.632" stroke="#F8B6D4" stroke-opacity="0.3" stroke-width="0.5" stroke-miterlimit="10" stroke-linecap="round" stroke-linejoin="round"/>
<path d="M90.441 24.108L88.885 24.059" stroke="#F8B6D4" stroke-opacity="0.3" stroke-width="0.5" stroke-miterlimit="10" stroke-linecap="round" stroke-linejoin="round"/>
<path d="M101.563 24.462L100.082 24.415" stroke="#F8B6D4" stroke-opacity="0.3" stroke-width="0.5" stroke-miterlimit="10" stroke-linecap="round" stroke-linejoin="round"/>
<path d="M95.1081 29.082L95.0491 30.624" stroke="#F8B6D4" stroke-opacity="0.3" stroke-width="0.5" stroke-miterlimit="10" stroke-linecap="round" stroke-linejoin="round"/>
<path d="M95.483 17.695L95.415 19.441" stroke="#F8B6D4" stroke-opacity="0.3" stroke-width="0.5" stroke-miterlimit="10" stroke-linecap="round" stroke-linejoin="round"/>
<path d="M1359.16 54.4033C1359.19 54.2053 1359.1 53.9983 1358.87 53.9593C1358.16 53.8433 1357.41 53.9343 1356.7 53.8773C1356 53.8223 1355.32 53.7123 1354.64 53.5563C1353.25 53.2373 1351.92 52.7273 1350.68 52.0303C1348.35 50.7153 1346.42 48.7493 1345.12 46.4113C1344.4 45.1053 1343.81 43.6573 1343.47 42.2023C1343.42 42.0273 1343.29 41.9753 1343.16 42.0043C1342.97 41.8033 1342.62 41.9393 1342.6 42.2273C1342.56 42.9023 1342.78 43.6063 1342.87 44.2733C1342.97 44.9463 1343.03 45.6243 1343.06 46.3033C1343.13 47.6683 1343.07 49.0433 1342.87 50.3963C1342.48 53.1303 1341.58 55.7903 1340.23 58.2003C1339.86 58.8703 1339.44 59.5213 1339 60.1473C1338.55 60.7843 1338.05 61.3873 1337.6 62.0313C1337.4 62.3323 1337.77 62.6143 1338.05 62.4963C1338.07 62.5073 1338.1 62.5163 1338.13 62.5193C1338.15 62.5213 1338.17 62.5183 1338.19 62.5193C1339.2 62.8653 1340.21 63.1753 1341.2 63.5803C1342.2 63.9963 1343.18 64.4953 1344.11 65.0593C1346 66.1993 1347.72 67.5903 1349.2 69.2273C1349.61 69.6753 1350 70.1383 1350.36 70.6203C1350.55 70.8643 1350.73 71.1123 1350.9 71.3633C1351.09 71.6303 1351.25 71.9313 1351.49 72.1483C1351.74 72.3663 1352.14 72.2293 1352.19 71.9363C1352.23 71.9053 1352.26 71.8613 1352.27 71.8043C1352.39 71.2073 1352.25 70.5593 1352.22 69.9533C1352.2 69.3413 1352.21 68.7293 1352.24 68.1173C1352.32 66.8823 1352.54 65.6593 1352.87 64.4673C1353.53 62.1053 1354.67 59.8593 1356.23 57.9563C1356.66 57.4213 1357.13 56.9123 1357.63 56.4323C1358.14 55.9393 1358.7 55.5143 1359.23 55.0493C1359.46 54.8553 1359.36 54.5473 1359.16 54.4033ZM1340.77 59.0243C1341.49 57.8093 1342.09 56.5253 1342.58 55.1983C1343.36 53.0523 1343.82 50.7793 1343.94 48.4943C1344.06 48.7753 1344.18 49.0543 1344.31 49.3303C1344.4 49.6513 1344.47 49.9763 1344.52 50.3033C1344.72 51.5393 1344.71 52.8283 1344.48 54.0593C1344.04 56.3623 1342.83 58.4203 1341.11 59.9993C1340.64 60.4243 1340.15 60.8073 1339.62 61.1443C1339.45 61.2523 1339.27 61.3523 1339.1 61.4543C1339.73 60.7013 1340.27 59.8523 1340.77 59.0243ZM1345.45 51.4503C1345.92 52.2083 1346.44 52.9333 1347.05 53.6113C1348.54 55.2823 1350.49 56.5723 1352.69 57.0483C1352.26 57.6783 1351.96 58.4623 1351.68 59.1493C1351.33 60.0143 1351.05 60.9123 1350.82 61.8203C1350.51 63.1273 1350.31 64.4713 1350.26 65.8193C1349.93 65.2233 1349.56 64.6563 1349.14 64.1223C1348.03 62.7003 1346.6 61.5173 1344.98 60.7193C1344.14 60.3043 1343.28 60.0133 1342.36 59.8733C1342.85 59.3523 1343.29 58.7853 1343.68 58.1843C1344.96 56.1923 1345.57 53.8093 1345.45 51.4503ZM1350.17 68.9373C1349.42 68.0733 1348.6 67.2703 1347.73 66.5343C1345.96 65.0473 1343.99 63.8483 1341.86 62.9593C1341.07 62.6303 1340.26 62.3353 1339.43 62.1263C1339.56 62.0553 1339.68 61.9833 1339.79 61.9163C1340.32 61.6063 1340.83 61.2513 1341.3 60.8623C1341.52 60.6853 1341.73 60.4993 1341.93 60.3053C1341.96 60.3233 1341.98 60.3383 1342.01 60.3473C1343.63 60.8503 1345.18 61.5483 1346.52 62.6143C1347.84 63.6733 1348.93 65.0093 1349.69 66.5233C1349.92 66.9743 1350.1 67.4503 1350.28 67.9233C1350.3 68.2463 1350.33 68.5683 1350.37 68.8893C1350.38 69.0013 1350.4 69.1133 1350.41 69.2243C1350.33 69.1293 1350.25 69.0313 1350.17 68.9373ZM1353.69 60.2153C1352.46 62.4913 1351.7 65.0203 1351.48 67.6003C1351.42 68.3203 1351.41 69.0433 1351.44 69.7643C1351.45 70.0213 1351.46 70.2993 1351.48 70.5793C1351.4 70.4743 1351.32 70.3713 1351.24 70.2723L1351.24 70.2683C1351.27 69.8753 1351.23 69.4903 1351.18 69.1023C1351.19 69.0803 1351.2 69.0553 1351.2 69.0293C1351.24 68.5913 1351.17 68.1463 1351.05 67.7123C1351.04 67.4233 1351.03 67.1343 1351.03 66.8443C1351.02 65.7103 1351.1 64.5753 1351.29 63.4553C1351.47 62.3373 1351.75 61.2343 1352.13 60.1643C1352.32 59.6183 1352.52 59.0773 1352.76 58.5483C1352.96 58.0913 1353.22 57.6443 1353.39 57.1733C1354.16 57.2803 1354.99 57.3003 1355.77 57.1623C1354.98 58.1083 1354.28 59.1303 1353.69 60.2153ZM1356.78 56.0383C1356.72 56.0313 1356.66 56.0343 1356.6 56.0503C1356.08 56.1793 1355.57 56.3193 1355.04 56.3593C1354.51 56.3983 1353.97 56.3843 1353.45 56.3113C1352.39 56.1623 1351.36 55.7953 1350.42 55.2803C1348.43 54.1853 1346.94 52.4363 1345.75 50.5243C1345.57 50.2203 1345.38 49.9113 1345.21 49.6003C1345.13 49.2143 1345.03 48.8323 1344.9 48.4553C1344.71 47.8423 1344.48 47.0263 1343.96 46.5973C1343.95 46.3553 1343.94 46.1123 1343.93 45.8703C1344 46.0313 1344.07 46.1913 1344.15 46.3493C1344.76 47.6073 1345.57 48.7793 1346.5 49.8223C1348.44 51.9873 1351.03 53.5503 1353.83 54.3143C1354.65 54.5383 1355.49 54.6903 1356.33 54.7793C1356.75 54.8233 1357.17 54.8503 1357.59 54.8593C1357.75 54.8623 1357.9 54.8653 1358.05 54.8653C1357.6 55.2213 1357.18 55.6223 1356.78 56.0383Z" fill="#F8B6D4" fill-opacity="0.3"/>
<path d="M1346.89 11.6573C1346.75 11.6973 1346.6 11.7393 1346.46 11.7823C1346.43 11.7753 1346.41 11.7713 1346.39 11.7743C1346.27 11.6993 1346.12 11.6503 1345.99 11.5883C1345.7 11.4473 1345.42 11.2933 1345.15 11.1073C1344.91 10.9333 1344.68 10.7273 1344.5 10.4883C1344.41 10.3703 1344.33 10.2423 1344.26 10.1083C1344.2 9.97133 1344.15 9.82032 1344.08 9.68832C1344.06 9.66232 1344.04 9.64733 1344.02 9.63833C1343.99 9.56333 1343.96 9.49032 1343.9 9.43032C1343.84 9.36032 1343.71 9.41133 1343.71 9.50433C1343.71 9.62633 1343.76 9.74134 1343.8 9.85534C1343.79 9.96734 1343.83 10.0933 1343.85 10.1973C1343.86 10.3323 1343.87 10.4693 1343.88 10.6053C1343.88 10.8873 1343.87 11.1713 1343.82 11.4493C1343.77 11.7223 1343.71 11.9923 1343.61 12.2533C1343.57 12.3903 1343.51 12.5263 1343.46 12.6583C1343.41 12.7543 1343.36 12.8513 1343.34 12.9553C1343.16 13.0453 1342.99 13.1413 1342.82 13.2453C1342.72 13.3083 1342.78 13.4923 1342.9 13.4503C1343.08 13.3893 1343.26 13.3243 1343.43 13.2573C1343.43 13.2583 1343.44 13.2593 1343.44 13.2603C1343.68 13.3283 1343.92 13.3753 1344.15 13.4673C1344.38 13.5603 1344.61 13.6833 1344.81 13.8313C1345.2 14.1123 1345.51 14.4933 1345.71 14.9263C1345.75 15.0343 1345.79 15.1423 1345.83 15.2503C1345.86 15.3343 1345.94 15.3933 1346.03 15.3703C1346.11 15.3513 1346.18 15.2533 1346.15 15.1693C1346.12 15.0863 1346.09 15.0023 1346.06 14.9193C1346.06 14.8973 1346.06 14.8743 1346.05 14.8503C1346.04 14.8283 1346.04 14.8053 1346.03 14.7823C1346.04 14.7723 1346.04 14.7623 1346.05 14.7503C1346.08 14.7083 1346.09 14.6523 1346.08 14.6023C1346.06 14.5543 1346.04 14.5073 1346.02 14.4603C1346.01 14.3433 1346 14.2273 1345.99 14.1103C1345.98 13.8373 1345.98 13.5633 1346.01 13.2913C1346.04 13.0673 1346.09 12.8463 1346.17 12.6363C1346.24 12.4633 1346.34 12.3173 1346.44 12.1733C1346.62 12.1203 1346.8 12.0683 1346.98 12.0183C1347.22 11.9553 1347.13 11.5943 1346.89 11.6573Z" fill="#F8B6D4" fill-opacity="0.3"/>
<path d="M1289.16 88.3213C1289.33 88.0933 1289.49 87.8623 1289.65 87.6313C1289.68 87.6173 1289.72 87.5973 1289.75 87.5653C1290.01 87.5293 1290.28 87.4263 1290.54 87.3663C1291.12 87.2303 1291.71 87.1203 1292.3 87.0793C1292.86 87.0413 1293.42 87.0713 1293.96 87.2003C1294.23 87.2643 1294.49 87.3563 1294.74 87.4723C1295 87.5913 1295.24 87.7543 1295.5 87.8563C1295.55 87.8763 1295.6 87.8753 1295.64 87.8633C1295.77 87.9333 1295.91 87.9973 1296.06 88.0193C1296.23 88.0443 1296.35 87.8283 1296.24 87.6933C1296.1 87.5163 1295.9 87.4103 1295.71 87.2923C1295.58 87.1253 1295.38 86.9903 1295.24 86.8563C1295.06 86.6823 1294.88 86.4973 1294.72 86.3063C1294.38 85.9113 1294.07 85.4843 1293.81 85.0313C1293.56 84.5873 1293.34 84.1183 1293.17 83.6373C1293.08 83.3853 1292.99 83.1303 1292.92 82.8713C1292.87 82.6833 1292.83 82.4843 1292.74 82.3113C1292.89 81.9743 1293.03 81.6333 1293.15 81.2853C1293.22 81.0763 1292.92 80.8813 1292.8 81.0873C1292.61 81.3833 1292.43 81.6833 1292.26 81.9863C1292.25 81.9883 1292.25 81.9873 1292.25 81.9893C1291.83 82.1703 1291.42 82.3853 1290.98 82.5233C1290.54 82.6633 1290.08 82.7463 1289.61 82.7723C1288.73 82.8223 1287.84 82.6363 1287.04 82.2523C1286.86 82.1453 1286.67 82.0383 1286.49 81.9313C1286.34 81.8473 1286.17 81.8503 1286.06 81.9933C1285.97 82.1133 1285.98 82.3403 1286.12 82.4223C1286.26 82.5043 1286.41 82.5863 1286.55 82.6683C1286.57 82.7033 1286.6 82.7343 1286.64 82.7593C1286.67 82.7823 1286.71 82.8073 1286.75 82.8313C1286.75 82.8533 1286.75 82.8753 1286.76 82.8963C1286.77 82.9923 1286.81 83.0923 1286.89 83.1433C1286.97 83.1923 1287.05 83.2373 1287.14 83.2803C1287.28 83.4393 1287.44 83.5923 1287.58 83.7513C1287.93 84.1243 1288.24 84.5183 1288.52 84.9453C1288.74 85.2963 1288.93 85.6753 1289.05 86.0723C1289.16 86.3993 1289.19 86.7223 1289.2 87.0553C1289.01 87.3413 1288.81 87.6253 1288.61 87.9073C1288.35 88.2693 1288.9 88.6833 1289.16 88.3213Z" fill="#F8B6D4" fill-opacity="0.3"/>
<path d="M1361.28 3.24231C1361.24 3.14631 1361.19 3.06331 1361.12 2.99231C1361.05 2.91631 1360.96 2.86331 1360.87 2.83231C1360.77 2.78331 1360.67 2.76129 1360.57 2.76529C1360.43 2.76529 1360.3 2.80131 1360.17 2.87131C1360.14 2.89231 1360.1 2.9133 1360.06 2.9343C1359.97 2.9823 1359.89 3.05531 1359.82 3.12131C1359.79 3.14931 1359.75 3.1753 1359.72 3.2063C1359.71 3.2203 1359.7 3.2343 1359.68 3.2493C1359.64 3.2923 1359.61 3.3403 1359.57 3.3913C1359.55 3.4443 1359.53 3.4973 1359.51 3.5503C1359.49 3.6103 1359.48 3.6703 1359.48 3.7313C1359.48 3.8213 1359.5 3.90531 1359.54 3.98331C1359.56 4.06431 1359.61 4.13431 1359.67 4.19431C1359.7 4.21431 1359.72 4.23229 1359.74 4.24829C1359.81 4.30729 1359.88 4.34631 1359.97 4.36731C1360.03 4.38431 1360.09 4.3923 1360.16 4.3913C1360.17 4.3913 1360.19 4.39129 1360.21 4.39029C1360.25 4.38929 1360.29 4.38431 1360.33 4.37931C1360.43 4.36631 1360.55 4.36729 1360.64 4.33429C1360.69 4.31929 1360.73 4.30431 1360.77 4.28931C1360.9 4.25231 1361.02 4.1863 1361.11 4.0893C1361.15 4.0373 1361.19 3.98432 1361.23 3.93232C1361.3 3.81132 1361.34 3.68032 1361.34 3.54032C1361.35 3.43432 1361.32 3.33531 1361.28 3.24231Z" fill="#F8B6D4" fill-opacity="0.3"/>
<path d="M1271.28 23.2423C1271.24 23.1463 1271.19 23.0633 1271.12 22.9923C1271.05 22.9163 1270.96 22.8633 1270.87 22.8323C1270.77 22.7833 1270.67 22.7613 1270.57 22.7653C1270.43 22.7653 1270.3 22.8013 1270.17 22.8713C1270.14 22.8923 1270.1 22.9133 1270.06 22.9343C1269.97 22.9823 1269.89 23.0553 1269.82 23.1213C1269.79 23.1493 1269.75 23.1753 1269.72 23.2063C1269.71 23.2203 1269.7 23.2343 1269.68 23.2493C1269.64 23.2923 1269.61 23.3403 1269.57 23.3913C1269.55 23.4443 1269.53 23.4973 1269.51 23.5503C1269.49 23.6103 1269.48 23.6703 1269.48 23.7313C1269.48 23.8213 1269.5 23.9053 1269.54 23.9833C1269.56 24.0643 1269.61 24.1343 1269.67 24.1943C1269.7 24.2143 1269.72 24.2323 1269.74 24.2483C1269.81 24.3073 1269.88 24.3463 1269.97 24.3673C1270.03 24.3843 1270.09 24.3923 1270.16 24.3913C1270.17 24.3913 1270.19 24.3913 1270.21 24.3903C1270.25 24.3893 1270.29 24.3843 1270.33 24.3793C1270.43 24.3663 1270.55 24.3673 1270.64 24.3343C1270.69 24.3193 1270.73 24.3043 1270.77 24.2893C1270.9 24.2523 1271.02 24.1863 1271.11 24.0893C1271.15 24.0373 1271.19 23.9843 1271.23 23.9323C1271.3 23.8113 1271.34 23.6803 1271.34 23.5403C1271.35 23.4343 1271.32 23.3353 1271.28 23.2423Z" fill="#F8B6D4" fill-opacity="0.3"/>
<path d="M1391.28 43.2423C1391.24 43.1463 1391.19 43.0633 1391.12 42.9923C1391.05 42.9163 1390.96 42.8633 1390.87 42.8323C1390.77 42.7833 1390.67 42.7613 1390.57 42.7653C1390.43 42.7653 1390.3 42.8013 1390.17 42.8713C1390.14 42.8923 1390.1 42.9133 1390.06 42.9343C1389.97 42.9823 1389.89 43.0553 1389.82 43.1213C1389.79 43.1493 1389.75 43.1753 1389.72 43.2063C1389.71 43.2203 1389.7 43.2343 1389.68 43.2493C1389.64 43.2923 1389.61 43.3403 1389.57 43.3913C1389.55 43.4443 1389.53 43.4973 1389.51 43.5503C1389.49 43.6103 1389.48 43.6703 1389.48 43.7313C1389.48 43.8213 1389.5 43.9053 1389.54 43.9833C1389.56 44.0643 1389.61 44.1343 1389.67 44.1943C1389.7 44.2143 1389.72 44.2323 1389.74 44.2483C1389.81 44.3073 1389.88 44.3463 1389.97 44.3673C1390.03 44.3843 1390.09 44.3923 1390.16 44.3913C1390.17 44.3913 1390.19 44.3913 1390.21 44.3903C1390.25 44.3893 1390.29 44.3843 1390.33 44.3793C1390.43 44.3663 1390.55 44.3673 1390.64 44.3343C1390.69 44.3193 1390.73 44.3043 1390.77 44.2893C1390.9 44.2523 1391.02 44.1863 1391.11 44.0893C1391.15 44.0373 1391.19 43.9843 1391.23 43.9323C1391.3 43.8113 1391.34 43.6803 1391.34 43.5403C1391.35 43.4343 1391.32 43.3353 1391.28 43.2423Z" fill="#F8B6D4" fill-opacity="0.3"/>
<path d="M1421.28 83.2423C1421.24 83.1463 1421.19 83.0633 1421.12 82.9923C1421.05 82.9163 1420.96 82.8633 1420.87 82.8323C1420.77 82.7833 1420.67 82.7613 1420.57 82.7653C1420.43 82.7653 1420.3 82.8013 1420.17 82.8713C1420.14 82.8923 1420.1 82.9133 1420.06 82.9343C1419.97 82.9823 1419.89 83.0553 1419.82 83.1213C1419.79 83.1493 1419.75 83.1753 1419.72 83.2063C1419.71 83.2203 1419.7 83.2343 1419.68 83.2493C1419.64 83.2923 1419.61 83.3403 1419.57 83.3913C1419.55 83.4443 1419.53 83.4973 1419.51 83.5503C1419.49 83.6103 1419.48 83.6703 1419.48 83.7313C1419.48 83.8213 1419.5 83.9053 1419.54 83.9833C1419.56 84.0643 1419.61 84.1343 1419.67 84.1943C1419.7 84.2143 1419.72 84.2323 1419.74 84.2483C1419.81 84.3073 1419.88 84.3463 1419.97 84.3673C1420.03 84.3843 1420.09 84.3923 1420.16 84.3913C1420.17 84.3913 1420.19 84.3913 1420.21 84.3903C1420.25 84.3893 1420.29 84.3843 1420.33 84.3793C1420.43 84.3663 1420.55 84.3673 1420.64 84.3343C1420.69 84.3193 1420.73 84.3043 1420.77 84.2893C1420.9 84.2523 1421.02 84.1863 1421.11 84.0893C1421.15 84.0373 1421.19 83.9843 1421.23 83.9323C1421.3 83.8113 1421.34 83.6803 1421.34 83.5403C1421.35 83.4343 1421.32 83.3353 1421.28 83.2423Z" fill="#F8B6D4" fill-opacity="0.3"/>
<path d="M1175 25.8126C1174.79 25.507 1174.59 25.1974 1174.39 24.8878C1174.34 24.8691 1174.3 24.8423 1174.26 24.7994C1173.93 24.7512 1173.58 24.6131 1173.26 24.5327C1172.53 24.3504 1171.78 24.203 1171.03 24.1481C1170.33 24.0971 1169.62 24.1373 1168.93 24.3102C1168.59 24.396 1168.26 24.5193 1167.95 24.6747C1167.62 24.8342 1167.32 25.0527 1166.99 25.1894C1166.92 25.2162 1166.87 25.2149 1166.81 25.1988C1166.64 25.2926 1166.47 25.3784 1166.28 25.4079C1166.06 25.4414 1165.92 25.1519 1166.05 24.971C1166.23 24.7337 1166.49 24.5917 1166.73 24.4335C1166.88 24.2097 1167.14 24.0288 1167.32 23.8492C1167.55 23.616 1167.77 23.368 1167.98 23.1121C1168.41 22.5827 1168.79 22.0104 1169.12 21.4033C1169.44 20.8082 1169.72 20.1796 1169.94 19.535C1170.05 19.1972 1170.16 18.8555 1170.25 18.5084C1170.31 18.2564 1170.36 17.9897 1170.47 17.7578C1170.28 17.3062 1170.11 16.8491 1169.96 16.3827C1169.87 16.1026 1170.25 15.8413 1170.41 16.1174C1170.64 16.5141 1170.87 16.9161 1171.09 17.3222C1171.09 17.3249 1171.1 17.3236 1171.1 17.3262C1171.63 17.5688 1172.15 17.857 1172.7 18.042C1173.26 18.2296 1173.85 18.3408 1174.43 18.3757C1175.55 18.4427 1176.68 18.1934 1177.68 17.6787C1177.92 17.5353 1178.15 17.3919 1178.38 17.2485C1178.57 17.1359 1178.79 17.1399 1178.93 17.3316C1179.04 17.4924 1179.03 17.7967 1178.85 17.9066C1178.67 18.0165 1178.49 18.1264 1178.3 18.2363C1178.28 18.2832 1178.24 18.3247 1178.19 18.3582C1178.15 18.3891 1178.1 18.4226 1178.05 18.4547C1178.05 18.4842 1178.05 18.5137 1178.04 18.5418C1178.03 18.6705 1177.98 18.8045 1177.87 18.8729C1177.77 18.9386 1177.67 18.9989 1177.56 19.0565C1177.38 19.2696 1177.18 19.4747 1177 19.6878C1176.56 20.1877 1176.16 20.7157 1175.82 21.288C1175.53 21.7584 1175.3 22.2664 1175.14 22.7984C1175.01 23.2367 1174.97 23.6696 1174.95 24.1159C1175.2 24.4992 1175.45 24.8798 1175.7 25.2577C1176.02 25.7429 1175.33 26.2978 1175 25.8126Z" fill="#F8B6D4" fill-opacity="0.3"/>
<path d="M236.094 9.694L236.866 1.554L247.019 -17L252.695 9.373" stroke="#F8B6D4" stroke-opacity="0.4" stroke-width="0.5" stroke-miterlimit="10" stroke-linecap="round" stroke-linejoin="round"/>
<path d="M232.997 12.753L226.277 13.982L217 27.285L247.894 19.977L249.907 16.958L232.997 12.753Z" stroke="#F8B6D4" stroke-opacity="0.4" stroke-width="0.5" stroke-miterlimit="10" stroke-linecap="round" stroke-linejoin="round"/>
<path d="M232.997 12.753L240.26 5.57703L249.907 16.958L232.997 12.753Z" stroke="#F8B6D4" stroke-opacity="0.4" stroke-width="0.5" stroke-miterlimit="10" stroke-linecap="round" stroke-linejoin="round"/>
<path d="M240.26 5.57703L251.309 11.043" stroke="#F8B6D4" stroke-opacity="0.4" stroke-width="0.5" stroke-miterlimit="10" stroke-linecap="round" stroke-linejoin="round"/>
<path d="M248.198 14.942L257.178 3.82101L260.151 2.55402L269.213 7.81601L258.706 6.20802L251.575 23.116L240.26 21.783" stroke="#F8B6D4" stroke-opacity="0.4" stroke-width="0.5" stroke-miterlimit="10" stroke-linecap="round" stroke-linejoin="round"/>
<path d="M258.706 6.20802L260.151 2.55402" stroke="#F8B6D4" stroke-opacity="0.4" stroke-width="0.5" stroke-miterlimit="10" stroke-linecap="round" stroke-linejoin="round"/>
<path d="M249.907 16.958L251.575 23.116" stroke="#F8B6D4" stroke-opacity="0.4" stroke-width="0.5" stroke-miterlimit="10" stroke-linecap="round" stroke-linejoin="round"/>
<path d="M235.621 10.16L220.491 -1.98503L218.538 -2.31104L228.905 13.501" stroke="#F8B6D4" stroke-opacity="0.4" stroke-width="0.5" stroke-miterlimit="10" stroke-linecap="round" stroke-linejoin="round"/>
<path d="M249.9 12.835L240.26 5.57703" stroke="#F8B6D4" stroke-opacity="0.4" stroke-width="0.5" stroke-miterlimit="10" stroke-linecap="round" stroke-linejoin="round"/>
<path d="M247.019 -17L243.982 7.418" stroke="#F8B6D4" stroke-opacity="0.4" stroke-width="0.5" stroke-miterlimit="10" stroke-linecap="round" stroke-linejoin="round"/>
<path d="M217 27.285L240.599 14.643" stroke="#F8B6D4" stroke-opacity="0.4" stroke-width="0.5" stroke-miterlimit="10" stroke-linecap="round" stroke-linejoin="round"/>
<path d="M232.997 12.753L218.851 -2.25903" stroke="#F8B6D4" stroke-opacity="0.4" stroke-width="0.5" stroke-miterlimit="10" stroke-linecap="round" stroke-linejoin="round"/>
<path d="M259.695 3.70502L269.213 7.81601" stroke="#F8B6D4" stroke-opacity="0.4" stroke-width="0.5" stroke-miterlimit="10" stroke-linecap="round" stroke-linejoin="round"/>
<circle cx="1429" cy="8" r="22.85" stroke="#F8B6D4" stroke-opacity="0.3" stroke-width="0.3"/>
<circle cx="1429" cy="8" r="19.85" stroke="#F8B6D4" stroke-opacity="0.3" stroke-width="0.3" stroke-dasharray="2 2"/>
<circle cx="1424.5" cy="30.5" r="1.5" fill="#51475E"/>
<circle cx="1410" cy="13" r="1" fill="#51475E"/>
<path d="M1426.77 5L1428.07 8.644L1431.56 6.984L1429.9 10.477L1433.54 11.773L1429.9 13.069L1431.56 16.562L1428.07 14.902L1426.77 18.546L1425.48 14.902L1421.98 16.562L1423.64 13.069L1420 11.773L1423.64 10.477L1421.98 6.984L1425.48 8.644L1426.77 5Z" stroke="#F8B6D4" stroke-opacity="0.3" stroke-width="0.3" stroke-miterlimit="10"/>
<path d="M482.5 44L483.17 45.8831L484.975 45.0252L484.117 46.8303L486 47.5L484.117 48.1697L484.975 49.9748L483.17 49.1169L482.5 51L481.83 49.1169L480.025 49.9748L480.883 48.1697L479 47.5L480.883 46.8303L480.025 45.0252L481.83 45.8831L482.5 44Z" stroke="#F8B6D4" stroke-opacity="0.3" stroke-width="0.3" stroke-miterlimit="10"/>
</g>
<defs>
<clipPath id="clip0_2301_294">
<rect width="1439" height="96" fill="white"/>
</clipPath>
</defs>
</svg>
