<svg width="192" height="193" viewBox="0 0 192 193" fill="none" xmlns="http://www.w3.org/2000/svg">
<path d="M173.067 115.282C183.421 72.6681 157.27 29.7288 114.655 19.3746C72.0414 9.02038 29.1021 35.1722 18.7479 77.7862C8.39374 120.4 34.5455 163.34 77.1596 173.694C119.774 184.048 162.713 157.896 173.067 115.282Z" fill="#282130" stroke="#D6BA6F" stroke-miterlimit="10" stroke-linecap="round" stroke-linejoin="round"/>
<path d="M169.72 114.427C179.613 73.6577 154.582 32.5883 113.813 22.696C73.0436 12.8036 31.9742 37.8343 22.0819 78.6036C12.1895 119.373 37.2202 160.442 77.9895 170.335C118.759 180.227 159.828 155.196 169.72 114.427Z" fill="#282130" stroke="#D6BA6F" stroke-miterlimit="10" stroke-linecap="round" stroke-linejoin="round" stroke-dasharray="6 7"/>
<path d="M167.522 113.904C177.114 74.3409 152.817 34.4931 113.254 24.9015C73.6907 15.3099 33.8429 39.6067 24.2514 79.1699C14.6598 118.733 38.9566 158.581 78.5198 168.173C118.083 177.764 157.931 153.467 167.522 113.904Z" fill="#282130" stroke="#D6BA6F" stroke-miterlimit="10"/>
<path d="M127.866 144.17C127.879 144.167 127.899 144.185 127.984 144.229C127.221 144.649 126.51 145.076 125.768 145.444C122.885 146.869 120.03 148.36 117.092 149.664C112.933 151.506 108.537 152.583 104.045 153.258C99.7238 153.909 95.3789 154.024 91.0275 153.715C87.8744 153.492 84.7505 153.065 81.7429 152.002C79.1617 151.087 76.5489 150.258 73.974 149.322C69.9327 147.854 66.2355 145.708 62.7383 143.245C57.3494 139.452 52.7248 134.861 48.8682 129.51C48.5317 129.045 48.1926 128.571 47.9269 128.062C46.4832 125.277 45.037 122.492 43.6413 119.683C41.8649 116.106 40.7312 112.306 39.8518 108.423C39.1736 105.432 38.7384 102.409 38.6612 99.3459C38.6042 97.0646 38.5676 94.7757 38.6523 92.4956C38.7903 88.6884 39.3988 84.9571 40.6983 81.351C41.5118 79.0937 42.2432 76.8023 43.0656 74.5476C44.5384 70.5075 46.6755 66.8078 49.1365 63.3068C52.9361 57.8989 57.5392 53.2579 62.9078 49.3924C63.3912 49.0445 63.8834 48.6965 64.4085 48.4232C67.0491 47.0453 69.6898 45.6661 72.357 44.3389C76.039 42.508 79.9399 41.2958 83.9407 40.395C86.9508 39.7142 89.9938 39.2727 93.0786 39.198C95.3599 39.1436 97.6462 39.1044 99.9263 39.1917C103.711 39.3334 107.428 39.9293 111.011 41.2263C113.7 42.198 116.413 43.0964 119.095 44.0833C121.073 44.8121 122.882 45.8876 124.707 46.9466C122.733 46.748 120.776 46.6708 118.807 46.7543C114.075 46.9529 109.522 47.9639 105.168 49.8239C98.642 52.6138 93.2393 56.8842 88.7361 62.3426C82.4704 69.9444 78.3772 78.5686 76.5261 88.2493C75.7214 92.4564 75.3342 96.7027 75.4848 100.986C75.791 109.717 77.8787 117.967 82.3894 125.493C88.3451 135.429 96.9073 142.004 108.176 144.87C114.592 146.499 121.01 146.232 127.354 144.327C127.525 144.277 127.695 144.22 127.866 144.17ZM103.506 48.117C106.801 47.3553 109.898 46.1609 112.959 44.8576C111.44 44.9664 104.208 47.4692 103.506 48.117ZM101.27 48.8762C101.128 48.8407 100.99 48.8167 100.865 48.8458C98.8837 49.2785 96.9845 49.9289 95.1941 50.8981C92.0018 52.624 89.0664 54.718 86.2903 57.0436C85.5527 57.6611 84.8707 58.3405 84.1621 58.9934C84.1988 59.0288 84.2393 59.063 84.276 59.0959C85.2806 58.3253 86.2903 57.5624 87.2886 56.7817C89.8268 54.8002 92.4447 52.9403 95.2827 51.4042C97.1945 50.3705 99.1545 49.4468 101.27 48.8762ZM100.418 50.4957C100.343 50.4995 100.277 50.4844 100.226 50.5071C98.7078 51.1828 97.1262 51.7496 95.6825 52.562C91.416 54.9571 87.6796 58.0179 84.5974 61.8403C81.977 65.0933 79.8133 68.6184 78.2899 72.518C78.0761 73.0672 77.9204 73.6365 77.7357 74.1958C77.7724 74.2085 77.8104 74.2236 77.8496 74.2376C77.9103 74.1389 77.9723 74.0427 78.0331 73.944C79.6501 71.3249 81.2228 68.6779 82.8968 66.0967C86.1701 61.0432 90.3 56.8247 95.4067 53.602C97.0655 52.5556 98.7357 51.5371 100.418 50.4957ZM97.6121 43.4595C97.5817 43.4114 97.5514 43.3633 97.5197 43.3152C96.9162 43.6809 96.319 44.0592 95.7066 44.4085C95.0575 44.7804 94.3945 45.1373 93.7289 45.4827C93.4379 45.6332 93.1355 45.6965 92.904 45.2397C92.9432 45.8015 93.0748 45.9382 93.4683 45.837C93.7897 45.7535 94.1174 45.6396 94.4008 45.4675C95.4814 44.8133 96.5442 44.1314 97.6121 43.4595ZM88.9576 149.776C89.6231 149.914 90.3025 149.986 90.9769 150.088C81.5657 147.495 72.7088 143.697 64.5464 138.322C64.6185 138.444 64.6957 138.562 64.7956 138.654C65.1018 138.934 65.4017 139.23 65.7345 139.474C67.9943 141.134 70.4034 142.557 72.8998 143.823C78.0229 146.423 83.3017 148.611 88.9576 149.776ZM88.4097 139.417C88.2717 139.645 88.1844 139.792 88.0971 139.936C87.6505 140.684 87.0444 141.284 86.308 141.734C85.4223 142.271 84.5885 142.143 83.8976 141.38C83.5914 141.041 83.3359 140.66 83.0575 140.297C82.8955 140.084 82.7361 139.868 82.5742 139.649C82.1149 139.859 82.1326 140.211 82.2768 140.48C82.5919 141.069 82.9108 141.68 83.3511 142.169C84.066 142.965 85.0162 143.127 86.0284 142.815C87.3759 142.402 88.2717 141.146 88.4097 139.417ZM86.4105 151.173C86.4169 151.134 86.4232 151.095 86.432 151.056C85.8854 150.9 85.3312 150.765 84.7935 150.587C79.1136 148.708 73.5742 146.492 68.2233 143.812C65.3815 142.387 62.756 140.661 60.4026 138.522C57.9201 136.266 55.4578 133.993 53.1854 131.332C53.2398 131.542 53.2575 131.63 53.2853 131.711C53.5827 132.577 54.1343 133.29 54.7581 133.922C56.1803 135.363 57.624 136.788 59.112 138.162C61.1111 140.007 63.1419 141.82 65.4612 143.275C68.012 144.875 70.7425 146.104 73.521 147.242C77.0854 148.7 80.6573 150.129 84.4658 150.848C85.1111 150.97 85.7627 151.066 86.4105 151.173ZM83.0284 57.6054C82.9993 57.5725 82.9689 57.5371 82.9386 57.5029C82.645 57.6497 82.3654 57.8293 82.0567 57.9344C81.5556 58.1052 81.6632 57.4333 81.2937 57.3397C81.1128 57.6724 81.2127 57.9913 81.4531 58.1748C81.6176 58.2975 81.958 58.319 82.1516 58.2342C82.473 58.0887 82.7399 57.8217 83.0284 57.6054ZM80.6547 51.5978C81.1621 51.0487 81.3696 50.3705 81.4253 49.4936C80.7319 50.454 79.8791 51.0335 78.9757 51.508C78.4139 51.8028 77.7572 51.9673 77.1221 52.0698C76.5603 52.1621 76.2692 51.904 76.1769 51.3321C76.1161 50.9563 76.1642 50.5615 76.1642 50.1111C75.8555 50.516 75.7227 50.9601 75.6505 51.4283C75.5278 52.2229 75.9327 52.9188 76.7007 53.1237C77.055 53.2174 77.451 53.2528 77.8104 53.1959C78.9466 53.02 79.8829 52.4354 80.6547 51.5978ZM75.3949 67.9605C76.1908 67.3987 76.4717 65.7753 75.9112 64.8846C75.7885 65.2022 75.6594 65.5033 75.5518 65.8146C75.4405 66.1321 75.3507 66.456 75.2494 66.7774C74.9154 67.8339 74.8407 67.863 73.95 67.3C74.1145 67.5493 74.2891 67.7985 74.5168 67.987C74.7964 68.2161 75.109 68.1629 75.3949 67.9605ZM74.7648 112.577C74.9356 113.754 75.3317 114.87 75.9327 115.902C73.85 105.589 73.0934 95.2539 75.0774 84.8255C74.9281 84.909 74.8079 84.9912 74.7661 85.1051C74.5105 85.8073 74.1815 86.5007 74.0436 87.227C73.4907 90.1435 73.3958 93.103 73.3439 96.0587C73.2895 99.0979 73.4426 102.132 73.7855 105.151C74.0715 107.632 74.4093 110.107 74.7648 112.577ZM74.1676 124.749C74.551 124.287 74.6446 123.756 74.5333 123.188C74.4333 122.678 74.0082 122.345 73.497 122.318C73.5577 122.555 73.659 122.798 73.6767 123.045C73.7336 123.815 73.0681 124.653 72.1824 124.969C71.4599 125.225 71.2284 125.158 70.7476 124.579C70.7918 125.041 71.0259 125.35 71.4523 125.503C72.2912 125.802 73.5945 125.436 74.1676 124.749ZM73.8032 114.957C73.8386 115.057 73.9057 115.145 73.9614 115.244C72.5847 107.224 71.3562 99.2193 71.384 90.9532C70.8956 91.3607 70.7627 91.806 70.6944 92.2704C70.4249 94.0494 70.4667 95.8436 70.6223 97.6213C70.8235 99.9115 71.1145 102.198 71.408 104.482C71.8661 108.05 72.6391 111.548 73.8032 114.957ZM70.8994 63.3346C71.3131 62.7348 71.5928 61.9428 71.5573 61.4734C70.7298 62.4426 69.381 63.4472 68.4485 63.7838C67.1377 64.2608 66.0204 63.8521 65.3878 62.6108C65.1929 62.23 65.0424 61.7909 65.0133 61.3683C64.8576 59.1035 65.8332 57.3384 67.5312 55.9251C67.745 55.7454 68.0196 55.6366 68.2663 55.4936C68.2512 55.4633 68.2385 55.4341 68.2233 55.4038C67.9917 55.4886 67.7501 55.5569 67.5274 55.6619C65.2474 56.7184 63.8011 59.3768 64.1314 61.8858C64.3212 63.3472 65.5004 64.6859 66.8809 65.0162C68.2246 65.335 70.0491 64.5708 70.8994 63.3346ZM70.0402 134.358C70.5957 134.307 70.869 134.108 71.0664 133.614C70.1933 134.397 69.0774 134.183 68.1436 133.362C68.5675 134.087 69.1925 134.435 70.0402 134.358ZM70.0896 46.7328C70.0719 46.729 70.0289 46.6974 70.0023 46.7087C69.8732 46.7594 69.753 46.8251 69.6265 46.8796C67.5742 47.7551 65.8522 49.1305 64.1352 50.5135C60.7417 53.2528 57.5417 56.1908 54.9049 59.6906C52.5401 62.8323 50.632 66.2359 49.2035 69.9027C49.0504 70.3012 48.9568 70.7213 48.8341 71.13C48.8999 71.1541 48.9656 71.1781 49.0314 71.2021C49.287 70.8808 49.5718 70.5771 49.7944 70.2329C50.1095 69.7534 50.3942 69.2511 50.6713 68.7449C52.1112 66.1132 53.5966 63.5117 55.3528 61.0723C58.5552 56.6197 62.4473 52.8353 66.7024 49.4076C67.826 48.5029 68.966 47.6185 70.0896 46.7328ZM69.3709 50.4274C69.3583 50.3996 69.3418 50.373 69.3266 50.3464C69.2634 50.3882 69.2001 50.4312 69.1368 50.4755C69.0103 50.5299 68.8762 50.5717 68.7611 50.6438C64.5869 53.1617 61.1504 56.4831 58.2124 60.3447C57.7202 60.9951 57.3292 61.7214 56.8889 62.4122C57.042 62.4312 57.1078 62.392 57.1533 62.335C57.7467 61.6151 58.3199 60.8799 58.9273 60.1752C61.435 57.2638 64.1605 54.57 67.1225 52.1204C67.7918 51.5662 68.4903 51.0487 69.1748 50.5147C69.2393 50.4869 69.3051 50.4565 69.3709 50.4274ZM63.3798 92.4412C64.2642 91.5682 64.6096 90.5268 64.3465 89.1945C64.2566 89.4109 64.2174 89.5614 64.1389 89.6867C63.6442 90.4737 63.1571 91.2658 62.632 92.0338C62.4068 92.3615 62.0765 92.4931 61.7172 92.1502C61.7589 92.6209 61.9247 92.8157 62.3144 92.8701C62.7547 92.9309 63.0888 92.7272 63.3798 92.4412ZM62.6535 125.304C63.9024 123.951 64.2794 122.336 63.9099 120.551C63.7568 119.809 63.1685 119.369 62.4371 119.35C62.5637 119.569 62.7433 119.773 62.8129 120.009C63.2419 121.45 63.1217 122.845 62.3334 124.139C61.3515 125.75 59.5194 125.975 58.2048 124.622C57.8568 124.266 57.5772 123.794 57.4064 123.321C56.9268 121.988 57.5329 120.365 58.7868 119.432C59.1854 119.139 59.5915 118.859 60.0407 118.54C59.0829 117.986 58.3364 118.037 57.562 118.676C56.9825 119.155 56.5953 119.774 56.2778 120.446C54.9872 123.18 56.8699 125.751 59.0424 126.283C60.4026 126.615 61.6679 126.372 62.6535 125.304ZM62.2752 112.863C62.2625 112.824 62.2486 112.786 62.236 112.749C61.0871 112.848 60.3127 112.213 59.9521 111.272C59.5536 110.231 60.1837 109.386 60.9517 108.662C60.81 108.669 60.6784 108.686 60.5772 108.755C59.8142 109.276 59.3587 110.019 59.2575 110.918C59.1309 112.04 60.524 113.292 61.6375 113.106C61.8602 113.072 62.0639 112.946 62.2752 112.863ZM61.6678 74.7196C61.64 74.6918 61.6109 74.6602 61.5805 74.6323C61.4958 74.7348 61.4211 74.8538 61.3186 74.9385C60.8543 75.332 60.4152 75.7673 59.9028 76.0874C59.4043 76.3987 58.9159 76.2607 58.5097 75.8331C58.4174 75.7369 58.3389 75.6268 58.2478 75.5142C58.22 75.5737 58.1883 75.6041 58.1883 75.637C58.1858 76.1595 58.3933 76.5707 58.8842 76.7744C59.4574 77.0111 60.0179 76.9453 60.4899 76.5252C61.0415 76.0305 61.3692 75.3814 61.6678 74.7196ZM56.2043 84.7749C56.8218 84.4484 56.9635 83.8449 57.0002 83.2034C56.8383 83.3236 56.7269 83.4817 56.5928 83.6171C56.0222 84.1966 55.282 84.2169 54.7594 83.6538C54.085 82.9301 53.7067 81.4788 54.724 80.4881C54.934 80.2818 55.1491 80.0743 55.3604 79.8693C55.8893 79.6593 56.4194 79.4467 56.918 79.2506C56.3271 79.1823 55.7982 79.4455 55.2946 79.7972C54.953 80.0288 54.581 80.2287 54.2773 80.502C53.0956 81.5673 53.1753 83.5627 54.4279 84.5319C54.9682 84.9482 55.5742 85.1076 56.2043 84.7749ZM54.2571 110.15C54.8277 110.625 55.5173 110.625 56.2069 110.647C55.4832 110.215 54.5683 110.072 54.1774 109.189C53.837 109.574 53.8572 109.816 54.2571 110.15ZM50.0196 94.3202C49.8577 94.4707 49.7337 94.5935 49.6021 94.7099C48.8341 95.3944 48.1584 95.3159 47.5612 94.4695C47.3954 94.2329 47.2373 93.9887 47.0538 93.7128C46.9222 94.5745 47.4473 95.4324 48.1609 95.588C48.9454 95.7601 49.7527 95.2286 50.0196 94.3202ZM48.4861 67.0545C48.5392 66.9546 48.5671 66.8407 48.6063 66.7331C48.2457 67.0545 47.9281 67.3962 47.727 67.7935C47.1272 68.9752 46.5148 70.1557 46.0138 71.3818C44.484 75.1296 43.406 79.0191 42.4317 82.9415C41.8231 85.3923 41.2499 87.8444 41.0867 90.3712C40.9931 91.8364 40.9311 93.3054 40.8526 94.7706C40.6401 98.6651 40.6958 102.551 41.3626 106.407C41.9244 109.66 42.7189 112.85 44.0146 115.898C44.0513 115.986 44.1158 116.06 44.1917 116.178C44.2095 116.073 44.2373 116.013 44.2272 115.962C43.7463 113.654 43.2694 111.346 42.7746 109.039C42.2344 106.512 41.7852 103.962 41.6941 101.384C41.6042 98.8663 41.7004 96.3408 41.7687 93.8216C41.8054 92.5159 41.894 91.2025 42.0724 89.9081C42.4355 87.294 42.8594 84.6875 43.2909 82.0849C44.1702 76.7833 45.9555 71.788 48.4861 67.0545ZM48.5228 123.741C47.8598 121.759 47.1601 119.785 46.5414 117.787C45.9264 115.798 45.347 113.797 44.8371 111.78C44.3233 109.745 43.8501 107.695 43.4743 105.632C43.1023 103.6 42.8733 101.541 42.5836 99.5218C42.2204 106.144 45.6532 119.604 48.5228 123.741ZM47.8193 116.83C45.7582 109.507 44.1766 102.003 43.697 94.186C42.9442 98.9094 45.7316 113.927 47.8193 116.83Z" fill="#D6BA6F"/>
<path d="M168.026 89.3022C168.111 92.1592 168.263 95.0187 168.239 97.8757C168.219 100.096 167.996 102.314 167.824 104.529C167.557 107.956 166.81 111.302 166.072 114.65C165.196 118.62 163.848 122.425 162.134 126.107C161.716 127.008 161.32 127.919 160.924 128.828C159.216 132.75 156.972 136.351 154.326 139.7C153.392 140.882 152.344 141.972 151.32 143.082C149.786 144.747 148.285 146.446 146.673 148.033C143.468 151.183 140.027 154.052 136.291 156.57C133.7 158.313 131.07 159.982 128.309 161.427C126.868 162.18 125.369 162.829 123.862 163.44C121.838 164.259 119.786 165.004 117.738 165.763C113.858 167.198 109.836 167.999 105.734 168.434C104.848 168.528 103.951 168.536 103.057 168.572C100.757 168.672 98.4559 168.77 96.1544 168.867C92.7698 168.849 89.3965 168.646 86.0562 168.174C83.2561 167.775 80.4838 167.168 77.7141 166.587C73.7348 165.756 69.9389 164.366 66.257 162.651C65.3409 162.224 64.4084 161.826 63.4835 161.42C59.346 159.598 55.5641 157.201 52.0681 154.35C51.1166 153.574 50.2347 152.707 49.3338 151.869C47.6623 150.314 45.9428 148.805 44.3435 147.176C41.1929 143.971 38.327 140.527 35.8117 136.788C34.0807 134.216 32.4296 131.599 30.9859 128.86C30.3013 127.563 29.6864 126.219 29.1525 124.854C28.0504 122.025 26.9281 119.197 25.9892 116.313C24.9175 113.021 24.1951 109.624 23.9813 106.167C23.7358 102.164 23.4384 98.1554 23.6219 94.1406C23.7952 90.3334 24.0445 86.5312 24.8847 82.7973C25.4098 80.4629 25.8868 78.1158 26.4486 75.7876C27.2014 72.67 28.4173 69.7168 29.7497 66.8067C30.1698 65.8855 30.5772 64.9581 30.9808 64.0306C32.6851 60.1297 34.9272 56.5502 37.559 53.2162C38.4915 52.0344 39.543 50.9425 40.5654 49.8341C42.1014 48.1715 43.6046 46.471 45.2165 44.8881C48.424 41.7376 51.8643 38.8692 55.6045 36.3563C58.1768 34.6254 60.7783 32.9438 63.5379 31.5318C65.3181 30.622 67.1718 29.8388 69.0381 29.1138C71.6458 28.099 74.2599 27.0818 76.9334 26.2694C79.917 25.3635 82.9891 24.784 86.1068 24.5056C86.995 24.4272 87.8896 24.3956 88.7829 24.3728C91.7993 24.288 94.8195 24.145 97.836 24.1653C99.8756 24.1779 101.914 24.4057 103.952 24.5702C107.715 24.8726 111.395 25.6811 115.058 26.544C118.701 27.3968 122.2 28.6836 125.587 30.2741C126.504 30.7055 127.434 31.1054 128.361 31.5103C132.264 33.2146 135.843 35.4554 139.177 38.0847C140.358 39.0185 141.45 40.0686 142.559 41.091C144.224 42.627 145.922 44.1277 147.507 45.7422C150.658 48.9472 153.526 52.3887 156.042 56.1276C157.774 58.6987 159.435 61.3103 160.87 64.0559C161.633 65.5123 162.29 67.0319 162.91 68.5565C163.728 70.5797 164.476 72.632 165.233 74.6805C166.665 78.5599 167.466 82.5848 167.9 86.6868C167.987 87.551 168.002 88.4291 168.026 89.3022ZM165.211 113.189C166.46 107.72 167.48 102.221 167.215 96.5674C167.215 95.893 167.27 95.2136 167.206 94.5442C167.018 92.5704 166.846 90.5928 166.556 88.6328C166.064 85.295 165.55 81.9585 164.933 78.6434C164.132 74.3617 162.514 70.3469 160.665 66.4271C158.72 62.3035 156.283 58.4659 153.719 54.7004C150.848 50.4819 147.457 46.7266 143.546 43.4748C141.03 41.3807 138.324 39.517 135.714 37.5393C131.279 34.1787 126.417 31.6077 121.198 29.7072C116.86 28.1281 112.388 27.0577 107.857 26.1872C103.784 25.404 99.6833 25.0522 95.5382 25.1307C93.0304 25.1788 90.5479 25.4419 88.0781 25.838C84.7466 26.3694 81.4062 26.8527 78.0912 27.474C73.812 28.2749 69.796 29.8932 65.8774 31.7418C61.7361 33.6979 57.8808 36.1463 54.1027 38.7224C49.9019 41.5883 46.1655 44.9678 42.9277 48.8649C40.8475 51.3676 38.9964 54.0564 37.0301 56.6515C33.6544 61.1015 31.0732 65.9779 29.1677 71.2174C27.5886 75.5561 26.5181 80.0276 25.6476 84.5586C24.867 88.6316 24.5165 92.7323 24.5949 96.8774C24.643 99.3865 24.9075 101.868 25.301 104.34C25.8324 107.67 26.3208 111.011 26.9395 114.324C27.7404 118.606 29.3638 122.618 31.2124 126.538C33.1685 130.68 35.6181 134.532 38.1955 138.313C41.0588 142.511 44.4434 146.246 48.3405 149.485C50.8407 151.564 53.532 153.414 56.1271 155.382C60.5771 158.757 65.456 161.336 70.6956 163.242C75.014 164.813 79.4691 165.88 83.9798 166.746C88.0528 167.53 92.151 167.886 96.2961 167.808C98.8052 167.76 101.286 167.502 103.759 167.106C107.09 166.572 110.432 166.091 113.746 165.474C118.027 164.675 122.043 163.056 125.962 161.21C130.124 159.247 133.993 156.789 137.789 154.197C141.987 151.331 145.735 147.958 148.955 144.046C151.277 141.231 153.374 138.227 155.533 135.28C157.06 133.197 158.48 131.043 159.646 128.728C162.142 123.777 163.979 118.591 165.211 113.189Z" fill="#282130"/>
<path d="M167.214 96.5674C167.478 102.221 166.46 107.721 165.21 113.189C163.979 118.591 162.14 123.779 159.644 128.728C158.477 131.043 157.058 133.199 155.53 135.28C153.371 138.227 151.273 141.231 148.952 144.046C145.732 147.958 141.984 151.331 137.786 154.197C133.99 156.787 130.12 159.247 125.959 161.21C122.041 163.056 118.025 164.675 113.743 165.474C110.428 166.091 107.088 166.572 103.756 167.106C101.284 167.502 98.8026 167.76 96.2935 167.808C92.1472 167.886 88.0502 167.53 83.9772 166.746C79.4665 165.88 75.0114 164.813 70.693 163.242C65.4535 161.336 60.5745 158.756 56.1245 155.382C53.5294 153.415 50.8394 151.564 48.3379 149.485C44.4421 146.245 41.0575 142.511 38.1929 138.313C35.6155 134.532 33.1659 130.679 31.2098 126.538C29.3612 122.617 27.7378 118.605 26.9369 114.324C26.3182 111.011 25.8298 107.669 25.2983 104.34C24.9048 101.868 24.6404 99.3864 24.5923 96.8773C24.5139 92.731 24.8631 88.6315 25.645 84.5585C26.5155 80.0275 27.586 75.556 29.1651 71.2174C31.0706 65.9778 33.6517 61.1014 37.0275 56.6514C38.9938 54.0563 40.8449 51.3676 42.925 48.8648C46.1629 44.969 49.8993 41.5882 54.1 38.7223C57.8782 36.1449 61.7335 33.6966 65.8748 31.7417C69.7934 29.8931 73.8094 28.2736 78.0886 27.4739C81.4036 26.8527 84.744 26.3693 88.0755 25.8379C90.5453 25.4419 93.029 25.1799 95.5356 25.1306C99.6807 25.0522 103.781 25.4039 107.854 26.1871C112.385 27.0576 116.857 28.1281 121.196 29.7071C126.415 31.6089 131.276 34.1787 135.711 37.5393C138.321 39.5169 141.028 41.3807 143.543 43.4747C147.455 46.7252 150.846 50.4819 153.716 54.7003C156.279 58.4658 158.718 62.3022 160.662 66.427C162.511 70.3468 164.13 74.3616 164.93 78.6433C165.548 81.9571 166.061 85.2937 166.554 88.6327C166.842 90.5927 167.015 92.5703 167.204 94.5442C167.27 95.2122 167.214 95.893 167.214 96.5674ZM158.105 97.7415C159.591 98.0781 161.07 98.4653 162.699 98.2793C162.05 97.5884 161.396 97.0671 160.524 96.8811C160.002 96.7723 159.486 96.623 158.956 96.5547C158.59 96.5091 158.203 96.5243 157.842 96.6002C157.678 96.6357 157.464 96.8761 157.443 97.0444C157.423 97.2101 157.599 97.4202 157.732 97.5732C157.814 97.6694 157.974 97.7137 158.105 97.7415ZM156.923 101.316C157.521 102.498 160.431 103.381 162.598 103.015C162.11 102.713 161.714 102.453 161.305 102.217C160.26 101.617 159.117 101.287 157.945 101.055C157.584 100.984 157.197 100.984 156.923 101.316ZM162.476 85.9238C161.894 85.4759 161.308 85.2102 160.629 85.1975C160.017 85.1861 159.4 85.1608 158.79 85.2127C158.322 85.2519 157.856 85.3708 157.406 85.51C157.115 85.5999 156.869 85.8225 156.916 86.1705C156.96 86.5273 157.249 86.6538 157.564 86.6678C158.037 86.6855 158.518 86.7133 158.983 86.65C160.144 86.4944 161.351 86.54 162.476 85.9238ZM161.017 82.7188C161.406 82.5834 161.737 82.2835 162.13 82.0368C161.668 81.5725 161.196 81.3978 160.666 81.4611C159.607 81.5876 158.551 81.7369 157.5 81.9116C157.216 81.9571 156.939 82.1039 156.687 82.2532C156.4 82.424 156.228 82.6948 156.288 83.0516C156.349 83.4172 156.632 83.607 156.951 83.6399C157.336 83.6792 157.75 83.6817 158.122 83.5855C159.098 83.3337 160.068 83.0528 161.017 82.7188ZM160.174 118.402C159.892 118.118 159.67 117.943 159.514 117.724C158.638 116.499 157.37 115.803 156.077 115.144C155.78 114.991 155.449 114.899 155.129 114.799C154.867 114.715 154.604 114.731 154.442 114.994C154.28 115.258 154.406 115.492 154.583 115.696C154.712 115.845 154.853 115.989 155.012 116.107C156.522 117.228 158.169 118.054 160.174 118.402ZM159.496 75.2524C158.551 74.826 156.468 75.613 155.382 76.8403C157.497 76.4506 158.964 75.8774 159.496 75.2524ZM156.491 108.154C157.545 108.972 158.759 109.394 160.097 109.619C158.977 108.361 156.868 107.245 156.093 107.483C156.171 107.895 156.167 107.899 156.491 108.154ZM156.875 66.556C156.458 66.556 156.176 66.5953 155.906 66.5497C154.184 66.2562 152.609 66.7838 151.056 67.4139C150.717 67.5518 150.319 67.7138 150.406 68.2098C150.459 68.5071 150.805 68.6564 151.371 68.5919C153.325 68.3781 155.136 67.7517 156.875 66.556ZM154.659 99.3624C154.731 96.9406 154.724 94.5138 154.626 92.092C154.554 90.2941 154.361 88.491 154.068 86.7146C153.83 85.2747 153.39 83.8614 152.99 82.4531C151.489 77.1629 149.566 72.0486 146.687 67.3317C146.49 67.0103 146.32 66.6737 146.138 66.341C144.496 63.3321 142.581 60.513 140.338 57.9179C137.953 55.1596 135.273 52.7024 132.567 50.2756C131.918 49.6936 131.223 49.1444 130.488 48.6814C129.048 47.7691 127.576 46.9024 126.095 46.0584C122.481 43.9973 118.689 42.3132 114.754 40.9745C113.085 40.4051 111.363 39.9939 109.661 39.522C106.111 38.535 102.504 37.853 98.8165 37.743C96.3947 37.6708 93.9666 37.6797 91.5462 37.7759C89.7672 37.8455 87.9844 38.0365 86.2282 38.3275C84.7668 38.5705 83.3357 39.0082 81.9072 39.4131C76.617 40.9163 71.5028 42.8408 66.7832 45.7181C66.3783 45.9648 65.9342 46.1533 65.5344 46.4114C63.4669 47.7438 61.3387 48.9989 59.3611 50.454C56.1801 52.7973 53.4851 55.6809 50.8508 58.6037C49.6842 59.8994 48.5998 61.2798 47.6003 62.7083C46.8171 63.8243 46.2173 65.0693 45.5416 66.2612C43.4805 69.8977 41.7787 73.7024 40.4337 77.6551C39.8668 79.3266 39.4531 81.0486 38.9811 82.7504C37.9967 86.3008 37.3135 89.9069 37.2047 93.5952C37.1326 96.0144 37.1414 98.4438 37.2376 100.863C37.3097 102.642 37.4982 104.427 37.7905 106.181C38.0335 107.642 38.4712 109.075 38.8774 110.504C40.3413 115.657 42.2076 120.65 44.9697 125.268C45.2848 125.795 45.5454 126.36 45.8757 126.876C47.208 128.946 48.4682 131.07 49.9208 133.049C52.2135 136.167 55.0363 138.809 57.8946 141.398C59.1852 142.568 60.5555 143.669 61.979 144.672C63.1228 145.482 64.4007 146.105 65.6255 146.806C69.2923 148.897 73.1299 150.614 77.1244 151.97C78.868 152.563 80.6622 153.016 82.445 153.493C85.307 154.256 88.2008 154.876 91.1615 155.074C93.2404 155.212 95.3268 155.236 97.4095 155.311C97.412 155.275 97.412 155.239 97.412 155.203C98.1269 155.203 98.8468 155.245 99.5579 155.194C101.437 155.063 103.327 154.993 105.185 154.702C106.802 154.45 108.39 153.97 109.971 153.523C115.127 152.064 120.114 150.189 124.735 147.428C125.365 147.052 126.034 146.741 126.66 146.354C128.076 145.477 129.5 144.604 130.876 143.663C132.242 142.726 133.626 141.809 134.797 140.614C136.871 138.501 139.008 136.452 141.039 134.301C142.125 133.149 143.113 131.89 144.016 130.588C144.86 129.37 145.546 128.04 146.282 126.747C148.363 123.095 150.072 119.274 151.426 115.301C151.999 113.615 152.416 111.871 152.893 110.151C153.874 106.618 154.547 103.029 154.659 99.3624ZM151.832 124.667C153.152 125.397 154.341 126.288 155.952 126.518C155.456 125.418 153.082 124.383 151.832 124.667ZM152.954 132.973C152.934 132.365 152.692 131.881 152.228 131.527C151.441 130.925 150.65 130.33 149.839 129.762C149.587 129.585 149.275 129.427 148.977 129.403C148.695 129.379 148.33 129.462 148.126 129.641C147.837 129.892 147.934 130.291 148.163 130.558C148.43 130.868 148.736 131.168 149.084 131.377C149.918 131.871 150.779 132.319 151.64 132.768C152.047 132.98 152.486 133.082 152.954 132.973ZM150.354 136.108C150.402 136.057 150.45 136.008 150.498 135.957C150.321 135.524 150.243 135.003 149.949 134.673C149.241 133.878 148.449 133.157 147.654 132.446C147.45 132.262 147.123 132.167 146.838 132.136C146.346 132.076 146.076 132.46 146.315 132.899C146.49 133.22 146.756 133.514 147.035 133.757C147.632 134.275 148.247 134.78 148.89 135.242C149.349 135.572 149.863 135.822 150.354 136.108ZM150.621 60.3903C149.208 60.322 147.965 60.6661 146.773 61.2241C146.537 61.3355 146.261 61.4342 146.209 61.8568C146.504 61.877 146.771 61.9403 147.029 61.9074C148.327 61.7442 149.475 61.1887 150.621 60.3903ZM147.624 53.974C147.131 54.0905 146.651 54.1816 146.18 54.3195C145.027 54.6522 143.98 55.2102 142.996 55.8884C142.705 56.0871 142.447 56.3477 142.495 56.7564C143.753 57.1727 146.904 55.462 147.624 53.974ZM144.372 50.5945C144.35 50.5464 144.328 50.4958 144.306 50.4477C143.694 50.5641 143.031 50.5704 142.484 50.826C141.703 51.1892 140.996 51.7206 140.276 52.2115C140.072 52.3494 139.889 52.5721 139.795 52.7973C139.726 52.9656 139.745 53.2617 139.855 53.3907C139.962 53.5198 140.233 53.5476 140.432 53.5476C140.578 53.5502 140.735 53.4553 140.864 53.368C141.657 52.8404 142.464 52.3304 143.218 51.756C143.651 51.427 143.992 50.9854 144.372 50.5945ZM141.811 144.911C141.859 144.89 141.907 144.867 141.955 144.843C141.837 144.233 141.831 143.568 141.577 143.021C141.211 142.238 140.68 141.532 140.19 140.813C140.052 140.609 139.829 140.423 139.604 140.332C139.433 140.263 139.139 140.284 139.01 140.393C138.883 140.502 138.856 140.774 138.856 140.973C138.854 141.117 138.949 141.276 139.036 141.405C139.565 142.195 140.072 143.002 140.648 143.757C140.975 144.19 141.419 144.531 141.811 144.911ZM138.45 148.252C138.312 147.676 138.22 147.195 138.085 146.725C137.752 145.572 137.194 144.523 136.518 143.539C136.32 143.248 136.061 142.989 135.65 143.031C135.212 144.277 136.525 146.76 138.45 148.252ZM135.579 42.0677C135.529 42.0133 135.479 41.9589 135.43 41.9058C134.997 42.0791 134.474 42.1512 134.148 42.4422C133.344 43.166 132.619 43.9846 131.88 44.7792C131.751 44.9171 131.641 45.1297 131.637 45.3106C131.628 45.565 131.649 45.8901 131.801 46.061C132.005 46.2887 132.326 46.1685 132.557 45.9838C132.802 45.7864 133.046 45.5763 133.247 45.3359C133.709 44.7906 134.169 44.2415 134.582 43.662C134.945 43.1559 135.249 42.6017 135.579 42.0677ZM132.206 40.7834C132.392 40.3899 132.438 39.9306 132.569 39.4119C131.581 39.5941 131.39 39.6662 130.933 40.2432C130.345 40.9872 129.781 41.7552 129.24 42.5359C129.054 42.8054 128.938 43.1356 128.844 43.4545C128.751 43.7733 128.823 44.096 129.111 44.3035C129.409 44.5198 129.753 44.4692 129.994 44.2529C130.33 43.9555 130.655 43.619 130.885 43.2394C131.363 42.4448 131.808 41.6236 132.206 40.7834ZM132.032 151.068C132.019 149.49 131.689 148.029 130.738 146.63C130.211 147.563 131.024 150.123 132.032 151.068ZM125.849 156.48C126.152 154.8 125.635 153.26 125.057 151.73C124.974 151.511 124.851 151.295 124.697 151.12C124.388 150.77 123.958 150.884 123.856 151.343C123.802 151.59 123.8 151.859 123.832 152.108C124.073 153.983 124.685 155.725 125.843 157.407C125.842 157.02 125.801 156.743 125.849 156.48ZM124.107 40.6063C124.851 39.2449 125.772 38.058 125.964 36.4688C124.908 36.8965 123.911 39.1348 124.107 40.6063ZM117.137 160.143C117.55 159.012 116.671 156.773 115.518 155.923C115.938 157.386 116.137 158.859 117.137 160.143ZM117.865 32.2491C117.547 32.549 117.331 32.783 117.085 32.9728C115.743 34.0028 114.982 35.4275 114.363 36.9458C114.225 37.2799 114.029 37.7088 114.473 37.9568C114.897 38.1947 115.193 37.8455 115.422 37.557C116.647 36.0196 117.492 34.3014 117.865 32.2491ZM110.366 162.667C110.83 162.205 111.005 161.733 110.942 161.203C110.813 160.144 110.666 159.09 110.491 158.037C110.446 157.755 110.299 157.477 110.15 157.224C109.979 156.937 109.708 156.765 109.351 156.825C108.986 156.886 108.796 157.168 108.763 157.488C108.721 157.873 108.721 158.287 108.817 158.659C109.067 159.634 109.349 160.603 109.682 161.555C109.819 161.943 110.119 162.275 110.366 162.667ZM107.642 35.8729C108.443 34.829 108.857 33.6308 109.079 32.3238C107.961 33.2423 106.819 35.3161 106.894 36.3056C107.303 36.3828 107.467 36.1019 107.642 35.8729ZM107.185 161.335C107.19 160.407 107.152 159.477 107.085 158.552C107.064 158.27 106.926 157.973 106.759 157.739C106.654 157.588 106.375 157.433 106.227 157.472C106.041 157.522 105.825 157.75 105.777 157.94C105.687 158.277 105.674 158.647 105.702 158.999C105.763 159.767 105.844 160.536 105.969 161.298C106.061 161.867 106.234 162.425 106.396 163.087C106.89 162.499 107.181 161.961 107.185 161.335ZM102.547 31.457C102.588 30.9383 102.553 30.4157 102.553 29.7944C101.589 30.9775 100.628 33.1879 100.516 34.4785C100.489 34.7961 100.575 35.1238 100.614 35.5173C101.19 35.3579 101.446 35.0618 101.623 34.6987C102.123 33.6763 102.459 32.5971 102.547 31.457ZM97.5676 32.5781C97.7865 31.6531 97.8409 30.7206 97.741 29.7097C96.2859 30.9876 96.0215 32.6363 95.9999 34.3672C95.9961 34.6557 96.1657 34.9188 96.4808 34.9707C96.8376 35.0302 97.0514 34.7822 97.1324 34.4849C97.3032 33.8573 97.4171 33.2145 97.5676 32.5781ZM95.8836 158.928C95.9278 158.358 95.7153 158.022 95.385 157.962C95.0611 157.901 94.7701 158.156 94.6411 158.733C94.4285 159.679 94.2336 160.633 94.0957 161.59C94.0211 162.104 94.0831 162.635 94.0831 163.22C94.2033 163.148 94.2577 163.126 94.2969 163.091C95.5052 161.962 95.7672 160.468 95.8836 158.928ZM91.3108 158.694C91.4133 158.274 91.4576 157.832 91.116 157.471C89.9253 157.972 89.1206 160.519 89.4357 163.069C89.571 162.838 89.6874 162.59 89.8443 162.374C90.644 161.272 90.9958 159.987 91.3108 158.694ZM86.1016 34.9669C86.1826 34.7986 86.1978 34.5772 86.1801 34.3824C86.0536 32.8944 86.0485 31.3824 85.4424 29.9766C85.3791 29.964 85.3159 29.9501 85.2526 29.9374C85.0603 30.465 84.7427 30.9825 84.706 31.5216C84.6377 32.4819 84.7237 33.4549 84.7807 34.4229C84.7958 34.6658 84.8983 34.9454 85.054 35.1302C85.1982 35.3048 85.4715 35.473 85.6752 35.4579C85.8334 35.4439 86.008 35.1643 86.1016 34.9669ZM85.0502 156.624C84.5213 156.69 84.5074 156.69 84.2277 157.056C83.4256 158.099 83.0131 159.303 82.7663 160.708C83.9203 159.474 84.7781 158.239 85.0502 156.624ZM83.1042 35.4414C83.1459 35.0732 83.1522 34.6797 83.0599 34.3254C82.8018 33.3322 82.5158 32.344 82.178 31.3735C82.0426 30.9863 81.7389 30.6586 81.496 30.2727C81.0278 30.7383 80.857 31.2128 80.9228 31.7455C81.0519 32.802 81.2012 33.8585 81.3758 34.9087C81.4213 35.1934 81.5681 35.4705 81.7187 35.7198C81.892 36.0083 82.1666 36.1765 82.5222 36.1095C82.8866 36.0437 83.07 35.7615 83.1042 35.4414ZM77.4888 156.035C77.7381 155.433 77.6811 155.089 77.38 154.969C76.9005 154.777 76.6297 155.137 76.3931 155.44C75.5593 156.51 74.8748 157.669 74.4395 158.957C74.2598 159.494 74.1422 160.047 73.9954 160.592C74.0283 160.614 74.0612 160.636 74.0915 160.658C74.1915 160.541 74.2889 160.424 74.3952 160.315C74.5066 160.201 74.6179 160.085 74.7432 159.991C76.0996 158.976 76.8613 157.548 77.4888 156.035ZM76.3362 36.9901C75.9249 35.5439 75.7276 34.0698 74.7217 32.7957C74.3193 33.9534 75.2354 36.2537 76.3362 36.9901ZM67.6677 42.0007C67.9739 41.9222 68.1207 41.578 68.0511 40.977C67.8258 39.0424 67.2046 37.2508 66.019 35.5275C66.019 35.9412 66.0583 36.2234 66.0127 36.4903C65.7242 38.1921 66.2265 39.7548 66.8503 41.2883C67.097 41.8969 67.3615 42.0829 67.6677 42.0007ZM65.8988 156.471C66.9604 156.033 67.9663 153.765 67.7525 152.339C67.0135 153.695 66.0886 154.881 65.8988 156.471ZM63.0127 149.464C63.0342 149.202 62.9355 148.864 62.7672 148.665C62.5357 148.395 62.1485 148.455 61.8993 148.668C61.5602 148.956 61.2299 149.289 60.9996 149.668C60.5074 150.479 60.076 151.33 59.6369 152.173C59.4231 152.58 59.3244 153.019 59.4244 153.496C60.0304 153.475 60.5163 153.234 60.8706 152.77C61.483 151.969 62.0916 151.162 62.6685 150.336C62.8444 150.083 62.9861 149.764 63.0127 149.464ZM61.297 46.271C61.3362 45.9294 61.4109 45.6801 61.3818 45.4435C61.2135 44.1111 60.6681 42.9319 59.8723 41.8248C59.7786 43.5253 60.4075 45.613 61.297 46.271ZM60.2607 147.248C60.2822 146.894 60.0115 146.712 59.6584 146.8C59.4927 146.842 59.2978 146.918 59.1953 147.043C58.3337 148.097 57.4796 149.161 56.6445 150.237C56.4952 150.429 56.4471 150.699 56.3535 150.933C56.3839 150.966 56.4143 150.999 56.4472 151.032C56.8647 150.866 57.3746 150.8 57.6871 150.515C58.5032 149.775 59.2573 148.96 59.9887 148.13C60.1747 147.918 60.243 147.549 60.2607 147.248ZM56.2181 49.9049C56.6407 48.6573 54.9453 45.527 53.4358 44.7742C53.5522 45.2689 53.6458 45.7497 53.7812 46.2178C54.1139 47.3705 54.6719 48.4182 55.3501 49.4026C55.5475 49.6948 55.8057 49.953 56.2181 49.9049ZM52.8575 52.5759C53.1156 52.3709 53.1397 52.0293 52.836 51.5523C52.3135 50.7337 51.777 49.9226 51.1911 49.1482C50.8761 48.732 50.4434 48.4043 50.065 48.0373C50.0208 48.055 49.979 48.0728 49.936 48.0905C50.0208 48.6447 49.9777 49.2609 50.2156 49.7379C50.6635 50.6324 51.2392 51.47 51.8301 52.2849C52.1553 52.7315 52.5906 52.7897 52.8575 52.5759ZM51.8946 140.425C52.1376 140.202 52.2704 139.879 52.0477 139.567C51.8174 139.245 51.4771 139.3 51.1924 139.473C49.8537 140.275 48.5062 141.075 47.475 142.407C49.3476 142.511 50.6673 141.562 51.8946 140.425ZM48.8605 137.058C49.149 136.859 49.421 136.605 49.3653 136.187C48.1253 135.749 45.6631 137.048 44.1473 138.987C44.723 138.852 45.2038 138.758 45.672 138.624C46.8284 138.294 47.8761 137.733 48.8605 137.058ZM45.0229 60.8041C45.5176 60.8635 45.7871 60.4801 45.548 60.0424C45.3734 59.721 45.1102 59.4274 44.8306 59.1845C44.2156 58.6531 43.5855 58.1368 42.9276 57.6623C42.486 57.3435 41.9824 57.1094 41.5079 56.8361C41.4624 56.8842 41.4143 56.9323 41.3662 56.9804C41.5433 57.4156 41.6218 57.9369 41.9153 58.2646C42.6239 59.0605 43.416 59.783 44.2105 60.4941C44.413 60.6775 44.7407 60.7712 45.0229 60.8041ZM45.7669 131.284C44.8635 130.744 42.4063 131.515 41.3232 132.566C42.9048 132.562 44.3662 132.224 45.7669 131.284ZM43.75 63.3106C44.0119 62.974 43.912 62.6058 43.6665 62.3262C43.4109 62.0326 43.1085 61.7568 42.7757 61.5607C41.9406 61.0685 41.0802 60.6181 40.2198 60.1689C39.8124 59.9588 39.3759 59.8513 38.909 59.9652C38.9267 60.5776 39.1735 61.0609 39.6378 61.4152C40.4236 62.0149 41.2169 62.6096 42.0241 63.179C42.2607 63.3473 42.5518 63.4485 42.8314 63.5396C43.1743 63.6547 43.5185 63.6092 43.75 63.3106ZM41.2966 125.222C41.6142 124.92 41.5181 124.509 41.0954 124.404C40.8525 124.343 40.5817 124.334 40.3299 124.364C38.4396 124.602 36.6834 125.216 34.9917 126.381C35.3915 126.381 35.6737 126.342 35.9407 126.388C37.6627 126.679 39.238 126.16 40.793 125.535C40.9752 125.46 41.1549 125.355 41.2966 125.222ZM39.9693 68.3148C38.7053 67.5531 37.521 66.6256 35.966 66.5383C36.9592 67.8859 38.4067 68.2338 39.9693 68.3148ZM37.421 77.9272C37.6602 77.502 37.3072 77.2072 37.0212 76.9795C35.4839 75.7547 33.7631 74.9082 31.7133 74.5362C32.0132 74.8551 32.2473 75.0701 32.4371 75.3169C33.467 76.6581 34.8918 77.4198 36.4101 78.0385C36.7441 78.1764 37.173 78.3738 37.421 77.9272ZM35.7812 85.5885C35.7066 85.052 35.7066 85.0419 35.3409 84.761C34.2971 83.96 33.0937 83.5488 31.7045 83.3046C32.9115 84.4598 34.1566 85.3038 35.7812 85.5885ZM35.1208 110.723C35.4307 110.553 35.6395 110.279 35.5737 109.896C35.5016 109.478 35.1739 109.305 34.8032 109.277C34.4527 109.251 34.0832 109.259 33.7492 109.349C32.7749 109.607 31.8045 109.886 30.853 110.219C30.4633 110.354 30.1305 110.651 29.6977 110.923C30.4847 111.475 30.5973 111.547 31.3666 111.469C32.3485 111.367 33.3241 111.214 34.2983 111.051C34.583 111.002 34.8626 110.866 35.1208 110.723ZM34.6754 107.287C34.8234 107.188 34.9601 106.912 34.931 106.747C34.9006 106.581 34.6842 106.386 34.5046 106.323C34.2528 106.229 33.9554 106.194 33.6859 106.221C32.2574 106.375 30.796 106.359 29.3713 106.996C29.9141 107.422 30.4506 107.722 31.0794 107.725C31.9879 107.728 32.9002 107.698 33.8048 107.628C34.106 107.604 34.4211 107.458 34.6754 107.287ZM36.4948 116.059C35.0208 116.466 33.5543 116.683 32.2549 117.67C33.3709 118.092 35.5522 117.246 36.4948 116.059ZM34.4122 95.9043C34.4388 95.731 34.2351 95.5058 34.0908 95.34C34.0098 95.2477 33.8453 95.216 33.7125 95.1844C32.246 94.8567 30.7846 94.4771 29.2587 94.6479C29.2309 94.696 29.2017 94.7441 29.1739 94.7896C29.6863 95.1414 30.1558 95.6007 30.7188 95.8196C31.4868 96.1144 32.3207 96.2447 33.1342 96.4054C33.3974 96.4573 33.7036 96.4497 33.9542 96.3636C34.1452 96.2978 34.3882 96.0815 34.4122 95.9043ZM33.7846 91.8655C34.1806 91.9579 34.6096 91.9857 34.9373 91.6378C34.3768 90.4522 31.6627 89.6121 29.2232 89.9069C29.5902 90.1258 29.8534 90.2586 30.0912 90.4257C31.2047 91.2114 32.489 91.5593 33.7846 91.8655Z" fill="#D6BA6F"/>
<path d="M162.7 98.2793C161.07 98.4653 159.591 98.0781 158.105 97.7416C157.974 97.7137 157.814 97.6695 157.733 97.5758C157.601 97.4227 157.425 97.2127 157.445 97.0469C157.465 96.8787 157.679 96.6383 157.844 96.6028C158.204 96.5256 158.591 96.5105 158.957 96.5573C159.487 96.6256 160.003 96.7736 160.526 96.8837C161.395 97.0685 162.049 97.5885 162.7 98.2793Z" fill="#282130"/>
<path d="M162.598 103.017C160.43 103.382 157.521 102.498 156.924 101.317C157.197 100.984 157.584 100.984 157.945 101.057C159.118 101.288 160.259 101.618 161.305 102.218C161.715 102.453 162.111 102.714 162.598 103.017Z" fill="#282130"/>
<path d="M160.63 85.1977C161.308 85.2104 161.894 85.4761 162.476 85.924C161.351 86.5414 160.144 86.4946 158.982 86.6502C158.517 86.7135 158.034 86.6857 157.562 86.668C157.247 86.6553 156.959 86.5275 156.915 86.1707C156.869 85.8227 157.113 85.6001 157.404 85.5102C157.855 85.3698 158.32 85.2521 158.789 85.2129C159.4 85.1597 160.017 85.1863 160.63 85.1977Z" fill="#282130"/>
<path d="M162.13 82.0357C161.737 82.2824 161.407 82.5823 161.017 82.7176C160.068 83.0529 159.099 83.3326 158.122 83.5844C157.75 83.6805 157.336 83.678 156.952 83.6388C156.633 83.6059 156.351 83.4161 156.289 83.0504C156.228 82.6936 156.4 82.4228 156.687 82.252C156.939 82.1027 157.216 81.9572 157.501 81.9104C158.551 81.7358 159.607 81.5865 160.666 81.46C161.197 81.3967 161.669 81.5726 162.13 82.0357Z" fill="#282130"/>
<path d="M159.513 117.724C159.67 117.943 159.892 118.118 160.174 118.403C158.167 118.055 156.522 117.228 155.01 116.107C154.853 115.99 154.71 115.845 154.581 115.696C154.404 115.492 154.279 115.258 154.441 114.994C154.603 114.731 154.865 114.715 155.128 114.799C155.448 114.899 155.778 114.991 156.076 115.144C157.37 115.804 158.638 116.5 159.513 117.724Z" fill="#282130"/>
<path d="M155.384 76.8404C156.469 75.6131 158.552 74.8261 159.497 75.2525C158.964 75.8775 157.497 76.4507 155.384 76.8404Z" fill="#282130"/>
<path d="M160.096 109.619C158.758 109.394 157.545 108.971 156.49 108.154C156.166 107.899 156.171 107.896 156.091 107.484C156.867 107.245 158.976 108.361 160.096 109.619Z" fill="#282130"/>
<path d="M155.906 66.5487C156.176 66.5943 156.458 66.555 156.875 66.555C155.136 67.752 153.325 68.3771 151.371 68.5922C150.805 68.6554 150.459 68.5074 150.406 68.21C150.319 67.7128 150.717 67.5508 151.056 67.4142C152.609 66.7828 154.184 66.2564 155.906 66.5487Z" fill="#282130"/>
<path d="M154.626 92.0933C154.725 94.515 154.731 96.9419 154.659 99.3636C154.547 103.03 153.873 106.617 152.894 110.151C152.417 111.871 151.999 113.615 151.426 115.301C150.072 119.274 148.363 123.095 146.283 126.747C145.545 128.04 144.86 129.37 144.016 130.588C143.113 131.89 142.124 133.151 141.039 134.301C139.008 136.452 136.871 138.501 134.798 140.614C133.627 141.809 132.242 142.726 130.876 143.663C129.501 144.603 128.076 145.476 126.661 146.354C126.035 146.741 125.365 147.052 124.735 147.428C120.114 150.189 115.129 152.064 109.971 153.523C108.39 153.97 106.802 154.45 105.185 154.702C103.327 154.993 101.437 155.063 99.5581 155.194C98.847 155.245 98.1271 155.203 97.4122 155.203C97.4122 155.239 97.4122 155.275 97.4097 155.311C95.327 155.236 93.2406 155.212 91.1617 155.074C88.2022 154.875 85.3072 154.255 82.4451 153.493C80.6624 153.016 78.8682 152.563 77.1246 151.97C73.1301 150.614 69.2925 148.897 65.6257 146.805C64.4009 146.106 63.1229 145.482 61.9791 144.672C60.5544 143.668 59.1854 142.568 57.8948 141.398C55.0352 138.809 52.2137 136.167 49.921 133.049C48.4684 131.069 47.2082 128.945 45.8759 126.876C45.5456 126.36 45.285 125.795 44.9699 125.268C42.2065 120.65 40.3402 115.657 38.8776 110.504C38.4701 109.076 38.0336 107.642 37.7907 106.181C37.4972 104.426 37.3099 102.641 37.2378 100.863C37.1416 98.4437 37.1327 96.0144 37.2049 93.5952C37.3137 89.9069 37.9969 86.3008 38.9813 82.7504C39.4545 81.0486 39.867 79.3265 40.4339 77.6551C41.7789 73.7024 43.4819 69.8976 45.5418 66.2612C46.2175 65.0693 46.8172 63.8243 47.6004 62.7083C48.6 61.2798 49.6856 59.8994 50.851 58.6037C53.4853 55.6809 56.1803 52.7973 59.3613 50.454C61.3389 48.9989 63.4671 47.7438 65.5346 46.4114C65.9344 46.1533 66.3785 45.9648 66.7834 45.718C71.5029 42.8408 76.6172 40.9163 81.9074 39.4131C83.3359 39.0082 84.7669 38.5704 86.2283 38.3275C87.9845 38.0365 89.7686 37.8467 91.5463 37.7758C93.9656 37.6797 96.3949 37.6708 98.8167 37.7429C102.504 37.8518 106.111 38.535 109.661 39.5219C111.363 39.9952 113.085 40.4064 114.754 40.9745C118.691 42.3132 122.481 43.9973 126.095 46.0584C127.577 46.9023 129.048 47.7691 130.488 48.6813C131.223 49.1457 131.917 49.6948 132.567 50.2756C135.273 52.7024 137.953 55.1583 140.338 57.9179C142.58 60.513 144.495 63.3321 146.138 66.3409C146.319 66.6737 146.49 67.0103 146.687 67.3316C149.566 72.0486 151.489 77.1629 152.99 82.4531C153.39 83.8626 153.83 85.2747 154.068 86.7146C154.361 88.4923 154.554 90.294 154.626 92.0933ZM127.984 144.229C127.899 144.185 127.879 144.169 127.866 144.17C127.696 144.22 127.525 144.277 127.354 144.328C121.01 146.234 114.592 146.501 108.176 144.871C96.9074 142.005 88.3439 135.431 82.3895 125.494C77.8787 117.968 75.791 109.719 75.4848 100.987C75.3342 96.704 75.7214 92.4564 76.5261 88.2506C78.3772 78.5699 82.4704 69.9457 88.7361 62.3439C93.238 56.8854 98.642 52.6151 105.168 49.8252C109.522 47.9652 114.075 46.9542 118.807 46.7556C120.776 46.6721 122.734 46.7492 124.707 46.9479C122.882 45.8889 121.073 44.8121 119.095 44.0846C116.413 43.0976 113.7 42.1993 111.011 41.2275C107.428 39.9306 103.711 39.3347 99.9263 39.193C97.6463 39.1057 95.3612 39.1449 93.0786 39.1993C89.9938 39.2739 86.9508 39.7155 83.9407 40.3962C79.9399 41.2971 76.039 42.5093 72.357 44.3401C69.6898 45.6687 67.0491 47.0466 64.4085 48.4245C63.8834 48.6978 63.3912 49.0457 62.9079 49.3937C57.5393 53.2591 52.9361 57.9002 49.1365 63.308C46.6755 66.8078 44.5384 70.5075 43.0656 74.5488C42.2432 76.8048 41.5119 79.095 40.6983 81.3523C39.3988 84.9571 38.7903 88.6897 38.6524 92.4969C38.5676 94.7769 38.6043 97.0646 38.6612 99.3472C38.7371 102.41 39.1737 105.433 39.8518 108.424C40.7312 112.307 41.8649 116.107 43.6414 119.684C45.037 122.493 46.4832 125.278 47.9269 128.063C48.1913 128.573 48.5304 129.045 48.8682 129.512C52.7248 134.862 57.3495 139.453 62.7383 143.246C66.2368 145.71 69.934 147.856 73.974 149.323C76.5489 150.26 79.1617 151.088 81.7429 152.003C84.7518 153.066 87.8745 153.494 91.0276 153.716C95.3789 154.025 99.7239 153.909 104.045 153.26C108.537 152.584 112.933 151.507 117.092 149.665C120.03 148.361 122.886 146.869 125.769 145.445C126.51 145.076 127.221 144.649 127.984 144.229Z" fill="#282130"/>
<path d="M155.952 126.517C154.341 126.286 153.152 125.397 151.832 124.665C153.082 124.383 155.456 125.418 155.952 126.517Z" fill="#282130"/>
<path d="M152.228 131.527C152.692 131.882 152.935 132.365 152.954 132.974C152.486 133.083 152.046 132.98 151.64 132.767C150.779 132.32 149.918 131.87 149.084 131.376C148.736 131.168 148.43 130.868 148.163 130.557C147.932 130.29 147.836 129.891 148.126 129.64C148.33 129.46 148.694 129.378 148.978 129.402C149.275 129.426 149.587 129.584 149.839 129.761C150.652 130.331 151.441 130.925 152.228 131.527Z" fill="#282130"/>
<path d="M150.499 135.957C150.45 136.008 150.402 136.057 150.354 136.108C149.865 135.82 149.35 135.571 148.89 135.241C148.248 134.779 147.633 134.274 147.035 133.755C146.756 133.512 146.49 133.219 146.316 132.898C146.076 132.457 146.346 132.075 146.838 132.135C147.123 132.167 147.45 132.261 147.654 132.445C148.449 133.156 149.24 133.877 149.949 134.671C150.242 135.003 150.321 135.524 150.499 135.957Z" fill="#282130"/>
<path d="M146.772 61.2242C147.964 60.6662 149.206 60.3234 150.62 60.3904C149.473 61.1888 148.327 61.7443 147.028 61.9062C146.77 61.9391 146.503 61.8759 146.208 61.8556C146.261 61.4343 146.535 61.3356 146.772 61.2242Z" fill="#282130"/>
<path d="M146.18 54.3195C146.651 54.1816 147.132 54.0893 147.624 53.9741C146.904 55.4621 143.753 57.1728 142.496 56.7565C142.447 56.3478 142.706 56.0871 142.997 55.8885C143.978 55.2103 145.026 54.6523 146.18 54.3195Z" fill="#282130"/>
<path d="M144.308 50.4475C144.329 50.4956 144.352 50.5462 144.373 50.5943C143.992 50.9853 143.651 51.4281 143.221 51.7558C142.465 52.3315 141.658 52.8414 140.867 53.3678C140.738 53.4551 140.58 53.55 140.435 53.5475C140.236 53.5475 139.964 53.5196 139.858 53.3906C139.749 53.2615 139.728 52.9667 139.798 52.7971C139.892 52.5719 140.076 52.3492 140.279 52.2113C140.999 51.7217 141.705 51.189 142.487 50.8258C143.031 50.569 143.694 50.5627 144.308 50.4475Z" fill="#282130"/>
<path d="M141.955 144.843C141.907 144.867 141.859 144.889 141.811 144.912C141.42 144.531 140.976 144.189 140.647 143.759C140.071 143.003 139.564 142.196 139.035 141.407C138.948 141.278 138.853 141.118 138.855 140.974C138.855 140.775 138.882 140.503 139.008 140.394C139.137 140.284 139.432 140.263 139.603 140.334C139.828 140.426 140.052 140.612 140.189 140.815C140.679 141.532 141.211 142.239 141.576 143.022C141.83 143.568 141.836 144.233 141.955 144.843Z" fill="#282130"/>
<path d="M138.085 146.726C138.22 147.197 138.313 147.677 138.451 148.253C136.525 146.761 135.213 144.278 135.65 143.034C136.062 142.992 136.32 143.25 136.518 143.541C137.194 144.524 137.752 145.572 138.085 146.726Z" fill="#282130"/>
<path d="M135.431 41.9058C135.479 41.9589 135.53 42.0133 135.581 42.0677C135.25 42.6017 134.947 43.1546 134.582 43.6632C134.169 44.2427 133.709 44.7919 133.247 45.3372C133.046 45.5776 132.801 45.7877 132.557 45.985C132.326 46.1685 132.005 46.2887 131.801 46.0622C131.651 45.8914 131.628 45.565 131.637 45.3119C131.64 45.131 131.751 44.9184 131.88 44.7805C132.619 43.9859 133.344 43.1685 134.148 42.4435C134.475 42.1512 134.997 42.0791 135.431 41.9058Z" fill="#282130"/>
<path d="M132.57 39.4119C132.438 39.9306 132.392 40.3899 132.206 40.7834C131.808 41.6236 131.364 42.4435 130.885 43.2406C130.655 43.6189 130.33 43.9555 129.995 44.2541C129.752 44.4705 129.409 44.5211 129.111 44.3047C128.823 44.0972 128.751 43.7758 128.845 43.4557C128.938 43.1369 129.055 42.8054 129.241 42.5371C129.781 41.7564 130.345 40.9884 130.933 40.2444C131.39 39.6662 131.581 39.5941 132.57 39.4119Z" fill="#282130"/>
<path d="M130.738 146.628C131.687 148.029 132.018 149.49 132.032 151.067C131.024 150.123 130.211 147.563 130.738 146.628Z" fill="#282130"/>
<path d="M125.057 151.73C125.636 153.26 126.152 154.8 125.849 156.48C125.801 156.742 125.843 157.02 125.843 157.407C124.685 155.724 124.073 153.983 123.833 152.108C123.8 151.859 123.802 151.59 123.857 151.343C123.958 150.883 124.388 150.77 124.697 151.12C124.851 151.295 124.974 151.512 125.057 151.73Z" fill="#282130"/>
<path d="M125.965 36.4702C125.772 38.0581 124.851 39.2462 124.107 40.6077C123.911 39.1349 124.908 36.8966 125.965 36.4702Z" fill="#282130"/>
<path d="M115.519 155.922C116.671 156.773 117.551 159.01 117.137 160.142C116.137 158.859 115.939 157.386 115.519 155.922Z" fill="#282130"/>
<path d="M117.085 32.9742C117.332 32.7844 117.547 32.5504 117.865 32.2505C117.491 34.3028 116.647 36.0198 115.422 37.5584C115.192 37.8468 114.897 38.1973 114.473 37.9582C114.029 37.7115 114.227 37.2825 114.363 36.9472C114.982 35.4289 115.744 34.0042 117.085 32.9742Z" fill="#282130"/>
<path d="M110.942 161.203C111.005 161.732 110.83 162.205 110.366 162.667C110.119 162.276 109.819 161.943 109.682 161.556C109.349 160.605 109.067 159.635 108.817 158.66C108.721 158.288 108.721 157.874 108.763 157.49C108.796 157.169 108.986 156.887 109.351 156.827C109.708 156.765 109.979 156.938 110.15 157.225C110.298 157.479 110.444 157.757 110.491 158.039C110.666 159.09 110.813 160.144 110.942 161.203Z" fill="#282130"/>
<path d="M112.959 44.8577C109.898 46.1609 106.8 47.3566 103.506 48.117C104.208 47.4692 111.44 44.9665 112.959 44.8577Z" fill="#282130"/>
<path d="M109.079 32.3237C108.857 33.6295 108.443 34.829 107.642 35.8729C107.467 36.1031 107.303 36.3828 106.894 36.3056C106.819 35.3174 107.962 33.2423 109.079 32.3237Z" fill="#282130"/>
<path d="M107.085 158.553C107.153 159.477 107.19 160.407 107.185 161.335C107.181 161.961 106.89 162.499 106.395 163.087C106.234 162.424 106.06 161.866 105.969 161.298C105.844 160.536 105.763 159.767 105.702 158.999C105.674 158.647 105.687 158.277 105.777 157.94C105.825 157.75 106.041 157.523 106.227 157.472C106.376 157.433 106.654 157.588 106.759 157.739C106.924 157.972 107.062 158.27 107.085 158.553Z" fill="#282130"/>
<path d="M102.554 29.7957C102.554 30.4169 102.59 30.9395 102.548 31.4582C102.46 32.5983 102.124 33.6763 101.624 34.7012C101.447 35.0643 101.191 35.3591 100.616 35.5198C100.576 35.1263 100.49 34.7986 100.517 34.481C100.628 33.1879 101.589 30.9787 102.554 29.7957Z" fill="#282130"/>
<path d="M100.865 48.8459C100.99 48.8181 101.127 48.8409 101.27 48.8763C99.1545 49.4469 97.1946 50.3706 95.2827 51.4031C92.4447 52.9391 89.8268 54.7991 87.2886 56.7805C86.2916 57.5612 85.2806 58.3254 84.276 59.0947C84.2393 59.0618 84.1988 59.0264 84.1621 58.9922C84.8707 58.3406 85.5539 57.6599 86.2903 57.0424C89.0664 54.7168 92.0018 52.6228 95.1941 50.8969C96.9845 49.929 98.8824 49.2787 100.865 48.8459Z" fill="#282130"/>
<path d="M100.226 50.5058C100.277 50.4843 100.342 50.4995 100.418 50.4944C98.7355 51.5358 97.0641 52.5556 95.4066 53.6007C90.2999 56.8234 86.17 61.0419 82.8967 66.0954C81.2227 68.6766 79.65 71.3236 78.033 73.9427C77.9722 74.0414 77.9102 74.1376 77.8495 74.2363C77.8102 74.2236 77.7723 74.2084 77.7356 74.1945C77.9191 73.634 78.0747 73.0659 78.2898 72.5167C79.812 68.6159 81.9756 65.092 84.5972 61.839C87.6795 58.0166 91.4159 54.9558 95.6824 52.5607C97.1261 51.7483 98.7077 51.1828 100.226 50.5058Z" fill="#282130"/>
<path d="M97.7409 29.7097C97.8421 30.7207 97.7865 31.6519 97.5676 32.5781C97.417 33.2146 97.3031 33.8586 97.1323 34.4862C97.0513 34.7835 96.8375 35.0315 96.4807 34.972C96.1656 34.9189 95.9948 34.657 95.9999 34.3685C96.0214 32.6363 96.2858 30.9877 97.7409 29.7097Z" fill="#282130"/>
<path d="M97.5198 43.3152C97.5502 43.3633 97.5806 43.4113 97.6122 43.4594C96.5443 44.1313 95.4815 44.8133 94.4009 45.4674C94.1187 45.6408 93.791 45.7547 93.4684 45.8369C93.0749 45.9381 92.9433 45.8015 92.9041 45.2397C93.1356 45.6965 93.438 45.6332 93.729 45.4826C94.3946 45.1372 95.0563 44.7804 95.7067 44.4084C96.3191 44.0592 96.9163 43.6809 97.5198 43.3152Z" fill="#282130"/>
<path d="M95.3851 157.961C95.7154 158.022 95.928 158.357 95.8837 158.928C95.7673 160.468 95.5054 161.962 94.297 163.091C94.2578 163.126 94.2034 163.148 94.0832 163.22C94.0832 162.635 94.0224 162.104 94.0958 161.59C94.2337 160.632 94.4286 159.678 94.6412 158.733C94.7702 158.156 95.0612 157.899 95.3851 157.961Z" fill="#282130"/>
<path d="M91.116 157.472C91.4577 157.833 91.4134 158.276 91.3109 158.696C90.9958 159.989 90.6441 161.273 89.8457 162.375C89.6875 162.592 89.5724 162.839 89.437 163.071C89.1207 160.519 89.9267 157.972 91.116 157.472Z" fill="#282130"/>
<path d="M90.9767 150.088C90.3023 149.987 89.6228 149.915 88.9573 149.777C83.3015 148.61 78.0227 146.422 72.8995 143.823C70.4031 142.557 67.9953 141.135 65.7342 139.475C65.4015 139.229 65.1016 138.934 64.7954 138.655C64.6954 138.562 64.6183 138.445 64.5461 138.322C72.7085 143.698 81.5642 147.495 90.9767 150.088Z" fill="#282130"/>
<path d="M88.097 139.936C88.1843 139.792 88.2717 139.645 88.4096 139.418C88.2717 141.146 87.3746 142.403 86.027 142.815C85.0148 143.128 84.0646 142.966 83.3497 142.17C82.9094 141.68 82.5905 141.069 82.2755 140.481C82.1312 140.211 82.1135 139.859 82.5728 139.649C82.7348 139.868 82.8942 140.085 83.0562 140.297C83.3345 140.66 83.5901 141.041 83.8963 141.38C84.5872 142.143 85.421 142.271 86.3067 141.734C87.0443 141.284 87.6504 140.686 88.097 139.936Z" fill="#282130"/>
<path d="M86.4319 151.054C86.4231 151.094 86.4168 151.133 86.4104 151.172C85.7626 151.064 85.111 150.968 84.4657 150.846C80.6572 150.128 77.084 148.697 73.521 147.24C70.7424 146.102 68.0119 144.872 65.4611 143.273C63.1418 141.818 61.1123 140.005 59.1119 138.16C57.6239 136.786 56.1802 135.362 54.758 133.92C54.1342 133.287 53.5838 132.575 53.2852 131.708C53.2574 131.627 53.2397 131.54 53.1853 131.33C55.4578 133.991 57.92 136.263 60.4025 138.519C62.7572 140.659 65.3814 142.385 68.2232 143.809C73.5741 146.489 79.1135 148.706 84.7934 150.585C85.3324 150.763 85.8853 150.9 86.4319 151.054Z" fill="#282130"/>
<path d="M86.1814 34.3825C86.1991 34.5773 86.1839 34.7975 86.1029 34.9671C86.0093 35.1644 85.8334 35.4441 85.6765 35.4567C85.4728 35.4719 85.1995 35.3036 85.0552 35.129C84.8996 34.9455 84.7971 34.6646 84.7819 34.4217C84.725 33.455 84.6402 32.4808 84.7073 31.5204C84.744 30.9827 85.0616 30.4639 85.2539 29.9363C85.3172 29.9489 85.3804 29.9628 85.4437 29.9755C86.0498 31.3838 86.0536 32.8958 86.1814 34.3825Z" fill="#282130"/>
<path d="M84.2268 157.055C84.5064 156.69 84.5203 156.69 85.0492 156.624C84.7784 158.239 83.9206 159.472 82.7654 160.708C83.0134 159.303 83.4246 158.099 84.2268 157.055Z" fill="#282130"/>
<path d="M83.0613 34.3256C83.1536 34.6799 83.1473 35.0734 83.1056 35.4416C83.0701 35.7604 82.8866 36.0426 82.5235 36.1109C82.1692 36.1793 81.8934 36.011 81.7201 35.7212C81.5695 35.472 81.4227 35.1936 81.3772 34.9102C81.2026 33.86 81.0533 32.8035 80.9242 31.747C80.8584 31.2155 81.0292 30.7411 81.4974 30.2742C81.7403 30.6588 82.044 30.9878 82.1793 31.375C82.5159 32.3442 82.8032 33.3324 83.0613 34.3256Z" fill="#282130"/>
<path d="M82.9386 57.5029C82.969 57.5383 82.9994 57.5725 83.0285 57.6054C82.74 57.8217 82.473 58.0887 82.1517 58.2329C81.9593 58.3177 81.6177 58.2962 81.4532 58.1735C81.2128 57.99 81.1116 57.6699 81.2938 57.3384C81.6632 57.432 81.557 58.1039 82.0567 57.9331C82.3655 57.828 82.6451 57.6496 82.9386 57.5029Z" fill="#282130"/>
<path d="M81.4254 49.4937C81.371 50.3705 81.1635 51.0487 80.6549 51.5978C79.8831 52.4354 78.9467 53.02 77.808 53.1971C77.4486 53.2541 77.0539 53.2187 76.6984 53.125C75.9303 52.92 75.5254 52.2241 75.6481 51.4295C75.7203 50.9614 75.8544 50.5173 76.1619 50.1124C76.1619 50.5628 76.1138 50.9563 76.1745 51.3334C76.2669 51.904 76.5579 52.1621 77.1197 52.071C77.7536 51.9685 78.4102 51.8041 78.9733 51.5093C79.878 51.0335 80.7308 50.454 81.4254 49.4937Z" fill="#282130"/>
<path d="M77.38 154.969C77.6824 155.089 77.7394 155.433 77.4888 156.034C76.8613 157.549 76.0995 158.977 74.7431 159.99C74.6179 160.083 74.5065 160.2 74.3952 160.314C74.2877 160.422 74.1915 160.541 74.0915 160.656C74.0611 160.635 74.0283 160.612 73.9954 160.591C74.1421 160.047 74.2598 159.492 74.4395 158.956C74.8748 157.668 75.5592 156.508 76.3931 155.438C76.6284 155.137 76.9004 154.775 77.38 154.969Z" fill="#282130"/>
<path d="M75.9111 64.8848C76.4716 65.7755 76.1907 67.3989 75.3949 67.9607C75.1076 68.1644 74.7951 68.2163 74.518 67.9872C74.2903 67.7987 74.1157 67.5495 73.9512 67.3002C74.8419 67.862 74.9166 67.8341 75.2506 66.7776C75.3519 66.4562 75.4417 66.1323 75.553 65.8148C75.6606 65.5035 75.7896 65.2011 75.9111 64.8848Z" fill="#282130"/>
<path d="M74.7218 32.7969C75.7277 34.0698 75.9251 35.5451 76.3363 36.9913C75.2355 36.2536 74.3195 33.9533 74.7218 32.7969Z" fill="#282130"/>
<path d="M75.934 115.902C75.3329 114.87 74.9369 113.754 74.7661 112.577C74.4093 110.107 74.0727 107.632 73.788 105.152C73.4451 102.133 73.292 99.0993 73.3464 96.0601C73.3983 93.1044 73.4932 90.1449 74.0461 87.2284C74.1841 86.5021 74.5118 85.8088 74.7686 85.1065C74.8104 84.9927 74.9306 84.9091 75.0799 84.8269C73.0934 95.2541 73.8513 105.589 75.934 115.902Z" fill="#282130"/>
<path d="M74.5333 123.188C74.6447 123.757 74.5511 124.289 74.1677 124.749C73.5945 125.436 72.2913 125.802 71.4511 125.505C71.0247 125.351 70.7906 125.043 70.7463 124.581C71.2271 125.158 71.46 125.226 72.1812 124.971C73.0669 124.653 73.7324 123.815 73.6755 123.046C73.6578 122.799 73.5578 122.556 73.4958 122.32C74.0082 122.345 74.4334 122.678 74.5333 123.188Z" fill="#282130"/>
<path d="M73.96 115.244C73.9056 115.146 73.8372 115.058 73.8018 114.957C72.6378 111.548 71.8659 108.05 71.4066 104.482C71.1131 102.198 70.8221 99.9116 70.6209 97.6214C70.4653 95.8424 70.4235 94.0483 70.693 92.2705C70.7613 91.8062 70.8942 91.3608 71.3826 90.9534C71.3547 99.2182 72.5833 107.224 73.96 115.244Z" fill="#282130"/>
<path d="M71.5586 61.4736C71.5941 61.9443 71.3132 62.7363 70.9007 63.3348C70.0492 64.571 68.2246 65.334 66.8847 65.0176C65.5043 64.6874 64.325 63.3487 64.1352 61.8873C63.805 59.3783 65.2512 56.7199 67.5312 55.6634C67.7539 55.5584 67.9956 55.49 68.2272 55.4053C68.2423 55.4356 68.255 55.4647 68.2702 55.4951C68.0234 55.6368 67.7501 55.7469 67.535 55.9266C65.837 57.3399 64.8615 59.105 65.0171 61.3698C65.0449 61.7924 65.1968 62.2315 65.3917 62.6123C66.0243 63.8523 67.1415 64.2623 68.4523 63.7853C69.3811 63.4474 70.7311 62.4428 71.5586 61.4736Z" fill="#282130"/>
<path d="M71.0664 133.614C70.869 134.108 70.5957 134.307 70.0402 134.358C69.1937 134.435 68.5674 134.087 68.1436 133.362C69.0773 134.183 70.1933 134.397 71.0664 133.614Z" fill="#282130"/>
<path d="M70.0022 46.709C70.0288 46.6976 70.0718 46.7292 70.0895 46.733C68.9647 47.6187 67.8259 48.5032 66.7023 49.4091C62.4472 52.8368 58.5551 56.6225 55.3527 61.0738C53.5965 63.5133 52.1098 66.1147 50.6712 68.7465C50.3928 69.2513 50.1094 69.7549 49.7943 70.2345C49.5716 70.5773 49.2869 70.8823 49.0313 71.2037C48.9655 71.1796 48.8998 71.1556 48.834 71.1315C48.9567 70.7229 49.0503 70.3028 49.2034 69.9042C50.6319 66.2374 52.54 62.8338 54.9048 59.6921C57.5416 56.1923 60.7416 53.2531 64.1351 50.515C65.8521 49.132 67.5741 47.7567 69.6264 46.8811C69.7529 46.8241 69.8731 46.7583 70.0022 46.709Z" fill="#282130"/>
<path d="M69.3267 50.3467C69.3419 50.3733 69.3571 50.3998 69.371 50.4277C69.3052 50.4555 69.2394 50.4871 69.1736 50.515L69.137 50.4757C69.2002 50.4315 69.2635 50.3884 69.3267 50.3467Z" fill="#282130"/>
<path d="M69.1367 50.4753L69.1734 50.5146C68.4888 51.0485 67.7904 51.5673 67.1211 52.1202C64.1591 54.5698 61.4336 57.2636 58.9258 60.175C58.3172 60.8798 57.744 61.6149 57.1519 62.3349C57.1063 62.3918 57.0406 62.431 56.8875 62.412C57.3278 61.7212 57.7187 60.9949 58.2109 60.3446C61.1489 56.4829 64.5867 53.1628 68.7596 50.6436C68.876 50.5715 69.0089 50.5297 69.1367 50.4753Z" fill="#282130"/>
<path d="M68.0512 40.977C68.1208 41.578 67.974 41.9221 67.6678 42.0006C67.3616 42.0841 67.0971 41.8981 66.8491 41.287C66.2253 39.7534 65.723 38.1908 66.0115 36.489C66.0571 36.222 66.0179 35.9399 66.0179 35.5261C67.2047 37.2507 67.8259 39.0423 68.0512 40.977Z" fill="#282130"/>
<path d="M67.7513 152.339C67.9652 153.765 66.9593 156.033 65.8977 156.471C66.0888 154.881 67.0137 153.695 67.7513 152.339Z" fill="#282130"/>
<path d="M64.3478 89.1946C64.6097 90.5269 64.2643 91.5683 63.3811 92.4413C63.0901 92.7285 62.7561 92.931 62.3157 92.8702C61.926 92.8158 61.7603 92.621 61.7185 92.1503C62.0778 92.4932 62.4081 92.3629 62.6333 92.0339C63.1584 91.2659 63.6468 90.4738 64.1403 89.6868C64.2187 89.5615 64.2579 89.4109 64.3478 89.1946Z" fill="#282130"/>
<path d="M63.9099 120.551C64.2794 122.336 63.9036 123.951 62.6535 125.305C61.6666 126.373 60.4026 126.615 59.0437 126.283C56.8712 125.751 54.9872 123.18 56.279 120.446C56.5966 119.774 56.9838 119.155 57.5633 118.676C58.3376 118.037 59.0842 117.986 60.042 118.54C59.5941 118.859 59.1866 119.14 58.7881 119.432C57.5342 120.365 56.9281 121.988 57.4077 123.321C57.5785 123.793 57.8581 124.266 58.206 124.623C59.5207 125.975 61.3515 125.75 62.3347 124.139C63.1217 122.844 63.2419 121.451 62.8142 120.009C62.7446 119.773 62.5649 119.569 62.4384 119.35C63.1685 119.37 63.7568 119.809 63.9099 120.551Z" fill="#282130"/>
<path d="M62.7673 148.666C62.9355 148.864 63.0342 149.202 63.0127 149.464C62.9862 149.764 62.8444 150.083 62.6686 150.334C62.0916 151.162 61.483 151.969 60.8706 152.769C60.5163 153.233 60.0305 153.474 59.4244 153.495C59.3244 153.018 59.4218 152.579 59.6369 152.172C60.0773 151.329 60.5075 150.479 60.9997 149.666C61.2299 149.288 61.5602 148.955 61.8993 148.667C62.1485 148.455 62.5357 148.395 62.7673 148.666Z" fill="#282130"/>
<path d="M62.2361 112.749C62.2488 112.786 62.2627 112.824 62.2754 112.863C62.0628 112.946 61.8591 113.07 61.6389 113.106C60.5255 113.292 59.1311 112.04 59.2589 110.918C59.3601 110.018 59.8144 109.275 60.5786 108.754C60.6798 108.686 60.8102 108.67 60.9532 108.662C60.1851 109.386 59.555 110.231 59.9536 111.272C60.3129 112.214 61.0873 112.848 62.2361 112.749Z" fill="#282130"/>
<path d="M61.5793 74.6323C61.6097 74.6602 61.6388 74.6918 61.6666 74.7196C61.3693 75.3801 61.0403 76.0305 60.4874 76.5239C60.0141 76.944 59.4549 77.0098 58.8817 76.7732C58.392 76.5695 58.1845 76.1583 58.1858 75.6357C58.1858 75.6028 58.2162 75.5724 58.2453 75.513C58.3376 75.6268 58.4161 75.7357 58.5072 75.8318C58.9146 76.2582 59.4017 76.3961 59.9003 76.0861C60.4127 75.7673 60.8518 75.332 61.3161 74.9373C61.4199 74.8538 61.4945 74.7361 61.5793 74.6323Z" fill="#282130"/>
<path d="M61.3833 45.4434C61.4111 45.68 61.3377 45.9292 61.2985 46.2709C60.4077 45.6129 59.7801 43.5252 59.8737 41.8259C60.6696 42.9318 61.215 44.111 61.3833 45.4434Z" fill="#282130"/>
<path d="M59.6586 146.799C60.0104 146.712 60.2824 146.893 60.2609 147.247C60.2432 147.549 60.1761 147.916 59.9901 148.129C59.2601 148.958 58.5047 149.774 57.6886 150.514C57.376 150.799 56.8661 150.864 56.4486 151.03C56.4157 150.997 56.3853 150.964 56.355 150.932C56.4486 150.697 56.4967 150.428 56.646 150.236C57.4823 149.159 58.3352 148.096 59.1968 147.042C59.298 146.918 59.4929 146.841 59.6586 146.799Z" fill="#282130"/>
<path d="M57.0014 83.2047C56.9647 83.8462 56.8217 84.4498 56.2055 84.7762C55.5754 85.109 54.9693 84.9496 54.4316 84.5333C53.1777 83.5641 53.0993 81.5687 54.281 80.5033C54.5847 80.23 54.9567 80.0301 55.2983 79.7986C55.3198 79.8226 55.3426 79.8467 55.3641 79.8707C55.1515 80.0757 54.9377 80.2845 54.7277 80.4894C53.7104 81.4802 54.0887 82.9314 54.7631 83.6552C55.2856 84.217 56.0258 84.198 56.5965 83.6185C56.7268 83.4818 56.8394 83.3249 57.0014 83.2047Z" fill="#282130"/>
<path d="M55.2971 79.7987C55.8007 79.4469 56.3296 79.1837 56.9205 79.2521C56.4219 79.4494 55.8918 79.6607 55.3629 79.8708C55.3401 79.8467 55.3186 79.8214 55.2971 79.7987Z" fill="#282130"/>
<path d="M53.4346 44.7742C54.9441 45.527 56.6395 48.6573 56.2169 49.9049C55.8057 49.953 55.5476 49.6949 55.3489 49.4038C54.6708 48.4195 54.1128 47.3718 53.78 46.2191C53.6446 45.7497 53.551 45.2689 53.4346 44.7742Z" fill="#282130"/>
<path d="M56.2069 110.647C55.5174 110.626 54.829 110.626 54.2571 110.15C53.8573 109.815 53.837 109.574 54.1761 109.187C54.5684 110.072 55.4832 110.213 56.2069 110.647Z" fill="#282130"/>
<path d="M52.8349 51.5522C53.1386 52.0292 53.1145 52.3708 52.8564 52.5758C52.5894 52.7896 52.1542 52.7314 51.8277 52.2822C51.2368 51.4687 50.6611 50.631 50.2132 49.7352C49.9754 49.2582 50.0184 48.6407 49.9336 48.0878C49.9779 48.0701 50.0184 48.0524 50.0626 48.0347C50.441 48.4029 50.8737 48.7306 51.1888 49.1456C51.7771 49.9225 52.3123 50.7335 52.8349 51.5522Z" fill="#282130"/>
<path d="M52.0478 139.567C52.2705 139.879 52.1377 140.201 51.8947 140.425C50.6674 141.562 49.3477 142.511 47.4751 142.406C48.505 141.074 49.8538 140.275 51.1925 139.472C51.4772 139.3 51.8175 139.245 52.0478 139.567Z" fill="#282130"/>
<path d="M49.6023 94.71C49.7339 94.5936 49.8579 94.4708 50.0198 94.3203C49.7529 95.2288 48.9456 95.7602 48.1599 95.5868C47.4462 95.4312 46.9212 94.5746 47.0527 93.7117C47.2362 93.9875 47.3944 94.2317 47.5601 94.4683C48.1586 95.3161 48.8343 95.3945 49.6023 94.71Z" fill="#282130"/>
<path d="M49.3654 136.187C49.4198 136.605 49.1491 136.859 48.8606 137.058C47.8762 137.733 46.8285 138.294 45.6733 138.624C45.2052 138.757 44.7244 138.852 44.1487 138.987C45.6645 137.046 48.1255 135.749 49.3654 136.187Z" fill="#282130"/>
<path d="M48.6063 66.7332C48.567 66.8407 48.5379 66.9546 48.4861 67.0545C45.9555 71.7892 44.1702 76.7833 43.2908 82.0849C42.8593 84.6875 42.4355 87.294 42.0723 89.9081C41.8927 91.2038 41.8054 92.5159 41.7687 93.8216C41.7003 96.3421 41.6042 98.8663 41.694 101.384C41.7864 103.962 42.2343 106.512 42.7746 109.039C43.2693 111.345 43.7463 113.654 44.2271 115.962C44.2385 116.013 44.2094 116.073 44.1917 116.178C44.1145 116.06 44.0512 115.986 44.0145 115.898C42.7189 112.85 41.9256 109.662 41.3625 106.407C40.6957 102.551 40.6413 98.6652 40.8526 94.7706C40.931 93.3041 40.993 91.8364 41.0867 90.3712C41.2512 87.8444 41.8244 85.3923 42.4317 82.9415C43.406 79.0191 44.484 75.1296 46.0137 71.3818C46.5148 70.157 47.1272 68.9752 47.7269 67.7935C47.9281 67.3962 48.2457 67.0545 48.6063 66.7332Z" fill="#282130"/>
<path d="M46.5412 117.788C47.16 119.786 47.8609 121.758 48.5227 123.741C45.653 119.603 42.2203 106.144 42.5834 99.522C42.8719 101.541 43.1022 103.6 43.4742 105.632C43.85 107.696 44.3232 109.745 44.8369 111.78C45.3468 113.798 45.9263 115.8 46.5412 117.788Z" fill="#282130"/>
<path d="M45.5483 60.0425C45.7874 60.4802 45.5179 60.8624 45.0232 60.8042C44.741 60.7713 44.4133 60.6776 44.2096 60.4929C43.415 59.7818 42.6229 59.0606 41.9144 58.2635C41.6208 57.9358 41.5424 57.4145 41.3652 56.9792C41.4133 56.9311 41.4614 56.883 41.5069 56.835C41.9814 57.1083 42.485 57.3423 42.9266 57.6612C43.5858 58.1357 44.2147 58.6519 44.8296 59.1833C45.1105 59.4275 45.3737 59.7211 45.5483 60.0425Z" fill="#282130"/>
<path d="M43.6973 94.1863C44.1768 102.003 45.7584 109.508 47.8196 116.83C45.7318 113.927 42.9444 98.9096 43.6973 94.1863Z" fill="#282130"/>
<path d="M41.3232 132.566C42.4063 131.513 44.8635 130.744 45.7669 131.284C44.3662 132.224 42.9048 132.562 41.3232 132.566Z" fill="#282130"/>
<path d="M43.6668 62.3261C43.9123 62.6057 44.0122 62.9739 43.7503 63.3105C43.5188 63.6078 43.1746 63.6534 42.8343 63.5408C42.5546 63.4484 42.2636 63.3485 42.027 63.1802C41.2198 62.6108 40.4251 62.0161 39.6407 61.4164C39.1763 61.0621 38.9296 60.5788 38.9119 59.9664C39.3775 59.8525 39.8153 59.96 40.2227 60.1701C41.0831 60.618 41.9422 61.0697 42.7786 61.5619C43.1088 61.758 43.4112 62.0338 43.6668 62.3261Z" fill="#282130"/>
<path d="M41.0954 124.404C41.518 124.509 41.6142 124.92 41.2966 125.222C41.1549 125.355 40.9752 125.46 40.793 125.535C39.238 126.16 37.6627 126.679 35.9407 126.388C35.6737 126.342 35.3915 126.381 34.9917 126.381C36.6834 125.215 38.4396 124.602 40.3299 124.365C40.5817 124.334 40.8525 124.343 41.0954 124.404Z" fill="#282130"/>
<path d="M35.9661 66.5383C37.5211 66.6256 38.7054 67.5531 39.9694 68.3148C38.4068 68.2338 36.9593 67.8859 35.9661 66.5383Z" fill="#282130"/>
<path d="M37.02 76.9794C37.3073 77.2071 37.659 77.502 37.4198 77.9271C37.1731 78.3737 36.7442 78.1764 36.4089 78.0384C34.8906 77.4197 33.4658 76.658 32.4359 75.3168C32.2461 75.0701 32.012 74.855 31.7122 74.5361C33.7632 74.9081 35.4827 75.7546 37.02 76.9794Z" fill="#282130"/>
<path d="M35.3424 84.7623C35.7081 85.0419 35.7081 85.0533 35.7828 85.5897C34.1569 85.3051 32.9131 84.4611 31.7073 83.3059C33.0953 83.5501 34.2986 83.9613 35.3424 84.7623Z" fill="#282130"/>
<path d="M35.5738 109.897C35.6395 110.28 35.432 110.554 35.1208 110.725C34.8627 110.866 34.583 111.003 34.2984 111.051C33.3241 111.215 32.3485 111.369 31.3667 111.469C30.5961 111.547 30.4848 111.475 29.6978 110.923C30.1305 110.652 30.4633 110.354 30.853 110.218C31.8045 109.886 32.7762 109.609 33.7492 109.349C34.0833 109.259 34.454 109.25 34.8032 109.277C35.1739 109.306 35.5016 109.48 35.5738 109.897Z" fill="#282130"/>
<path d="M34.9312 106.747C34.9603 106.912 34.8237 107.188 34.6756 107.287C34.4213 107.458 34.1062 107.605 33.8064 107.629C32.9004 107.698 31.9882 107.728 31.0809 107.725C30.4508 107.722 29.9143 107.422 29.3728 106.996C30.7975 106.359 32.2589 106.375 33.6874 106.222C33.9569 106.194 34.2543 106.228 34.5061 106.323C34.6845 106.386 34.9008 106.581 34.9312 106.747Z" fill="#282130"/>
<path d="M32.2549 117.67C33.5543 116.683 35.0195 116.467 36.4948 116.059C35.5522 117.246 33.3709 118.092 32.2549 117.67Z" fill="#282130"/>
<path d="M34.091 95.3402C34.2352 95.5072 34.439 95.7324 34.4124 95.9045C34.3883 96.0816 34.1454 96.298 33.9531 96.3663C33.7013 96.4511 33.3951 96.46 33.1332 96.4081C32.3196 96.2461 31.4858 96.1171 30.7177 95.8223C30.156 95.6034 29.6853 95.1441 29.1729 94.7923C29.2007 94.7468 29.2298 94.6987 29.2576 94.6506C30.7848 94.4798 32.2462 94.8581 33.7114 95.1871C33.8455 95.2149 34.01 95.2478 34.091 95.3402Z" fill="#282130"/>
<path d="M34.9374 91.6379C34.6097 91.9858 34.1808 91.9567 33.7848 91.8656C32.4891 91.5594 31.2061 91.2115 30.0914 90.4257C29.8522 90.26 29.5903 90.1258 29.2234 89.9069C31.6629 89.6121 34.3782 90.4523 34.9374 91.6379Z" fill="#282130"/>
<path d="M117.674 65.6943L120.757 71.3299L126.393 74.4122L120.757 77.4956L117.674 83.1312L114.592 77.4956L108.955 74.4122L114.592 71.3299L117.674 65.6943Z" fill="#D6BA6F"/>
<path d="M99.3264 112.57L101.758 117.017L106.206 119.449L101.758 121.882L99.3264 126.33L96.8945 121.882L92.447 119.449L96.8945 117.017L99.3264 112.57Z" fill="#D6BA6F"/>
<path d="M133.613 98.6919L135.12 101.448L137.876 102.955L135.12 104.462L133.613 107.217L132.106 104.462L129.35 102.955L132.106 101.448L133.613 98.6919Z" fill="#D6BA6F"/>
<path d="M105.813 91.6491C105.813 94.1063 103.822 96.0979 101.365 96.0979C98.9075 96.0979 96.9172 94.1063 96.9172 91.6491C96.9172 89.1932 98.9088 87.2017 101.365 87.2017C103.821 87.2017 105.813 89.192 105.813 91.6491Z" fill="#D6BA6F"/>
<path d="M121.196 109.997C121.196 111.021 120.366 111.851 119.342 111.851C118.318 111.851 117.488 111.021 117.488 109.997C117.488 108.974 118.318 108.144 119.342 108.144C120.366 108.144 121.196 108.974 121.196 109.997Z" fill="#D6BA6F"/>
<path d="M140.285 87.2004C140.285 88.1215 139.539 88.868 138.618 88.868C137.696 88.868 136.95 88.1215 136.95 87.2004C136.95 86.2792 137.696 85.5327 138.618 85.5327C139.539 85.5327 140.285 86.2792 140.285 87.2004Z" fill="#D6BA6F"/>
<path d="M102.292 66.2588C103.316 66.2588 104.146 65.4289 104.146 64.4052C104.146 63.3814 103.316 62.5515 102.292 62.5515C101.269 62.5515 100.439 63.3814 100.439 64.4052C100.439 65.4289 101.269 66.2588 102.292 66.2588Z" fill="#D6BA6F"/>
<path d="M126.015 130.94C126.015 131.554 125.518 132.052 124.903 132.052C124.29 132.052 123.791 131.555 123.791 130.94C123.791 130.326 124.288 129.828 124.903 129.828C125.517 129.828 126.015 130.325 126.015 130.94Z" fill="#D6BA6F"/>
<path d="M144.548 111.851C144.957 111.851 145.289 111.519 145.289 111.109C145.289 110.7 144.957 110.368 144.548 110.368C144.138 110.368 143.806 110.7 143.806 111.109C143.806 111.519 144.138 111.851 144.548 111.851Z" fill="#D6BA6F"/>
<path d="M86.5381 106.291C87.3571 106.291 88.021 105.627 88.021 104.808C88.021 103.989 87.3571 103.325 86.5381 103.325C85.7191 103.325 85.0552 103.989 85.0552 104.808C85.0552 105.627 85.7191 106.291 86.5381 106.291Z" fill="#D6BA6F"/>
<path d="M93.767 77.9346C93.767 78.6508 93.1862 79.2315 92.47 79.2315C91.7539 79.2315 91.1731 78.6508 91.1731 77.9346C91.1731 77.2185 91.7539 76.6377 92.47 76.6377C93.1862 76.6364 93.767 77.2172 93.767 77.9346Z" fill="#D6BA6F"/>
<path d="M123.605 60.5133C123.605 61.127 123.106 61.6255 122.493 61.6255C121.879 61.6255 121.381 61.127 121.381 60.5133C121.381 59.8996 121.878 59.4011 122.493 59.4011C123.108 59.4011 123.605 59.8984 123.605 60.5133Z" fill="#D6BA6F"/>
<path d="M138.802 72.3738C139.212 72.3738 139.544 72.0418 139.544 71.6323C139.544 71.2228 139.212 70.8909 138.802 70.8909C138.393 70.8909 138.061 71.2228 138.061 71.6323C138.061 72.0418 138.393 72.3738 138.802 72.3738Z" fill="#D6BA6F"/>
<path d="M122.493 94.6138C122.799 94.6138 123.048 94.3652 123.048 94.0584C123.048 93.7516 122.799 93.5029 122.493 93.5029C122.186 93.5029 121.937 93.7516 121.937 94.0584C121.937 94.3652 122.186 94.6138 122.493 94.6138Z" fill="#D6BA6F"/>
<path d="M113.412 130.199C113.412 130.812 112.914 131.311 112.299 131.311C111.686 131.311 111.187 130.814 111.187 130.199C111.187 129.585 111.685 129.086 112.299 129.086C112.914 129.086 113.412 129.585 113.412 130.199Z" fill="#D6BA6F"/>
</svg>
