<svg width="1440" height="211" viewBox="0 0 1440 211" fill="none" xmlns="http://www.w3.org/2000/svg">
<path d="M973.26 90.6456C973.225 90.3977 973.334 90.1385 973.636 90.0897C974.541 89.9444 975.498 90.0584 976.417 89.987C977.309 89.9181 978.192 89.7804 979.063 89.585C980.84 89.1856 982.556 88.547 984.145 87.6742C987.138 86.0275 989.606 83.5657 991.274 80.6381C992.206 79.0027 992.954 77.1895 993.399 75.3676C993.453 75.1484 993.632 75.0833 993.797 75.1196C994.041 74.868 994.489 75.0382 994.511 75.3989C994.562 76.2441 994.286 77.1257 994.16 77.9609C994.033 78.8036 993.956 79.6526 993.917 80.5029C993.837 82.2121 993.914 83.9339 994.164 85.6281C994.67 89.0516 995.815 92.3824 997.551 95.4002C998.034 96.2392 998.563 97.0544 999.134 97.8383C999.715 98.6359 1000.35 99.391 1000.92 100.197C1001.19 100.574 1000.71 100.927 1000.35 100.78C1000.32 100.793 1000.29 100.805 1000.25 100.808C1000.22 100.811 1000.2 100.807 1000.17 100.808C998.877 101.242 997.577 101.63 996.314 102.137C995.02 102.658 993.769 103.283 992.57 103.989C990.146 105.417 987.94 107.158 986.039 109.208C985.518 109.769 985.016 110.349 984.546 110.953C984.309 111.258 984.078 111.569 983.854 111.883C983.617 112.217 983.416 112.594 983.102 112.866C982.787 113.139 982.273 112.967 982.205 112.6C982.154 112.562 982.114 112.507 982.1 112.435C981.945 111.688 982.131 110.876 982.163 110.117C982.195 109.351 982.182 108.585 982.133 107.818C982.035 106.272 981.76 104.74 981.331 103.248C980.48 100.29 979.017 97.4776 977.024 95.0947C976.463 94.4248 975.863 93.7874 975.225 93.1864C974.569 92.569 973.849 92.0369 973.164 91.4546C972.879 91.2117 973.002 90.826 973.26 90.6456ZM996.863 96.432C995.935 94.9106 995.162 93.3028 994.539 91.6411C993.534 88.9539 992.95 86.1077 992.797 83.2464C992.641 83.5983 992.479 83.9476 992.312 84.2932C992.206 84.6952 992.117 85.1022 992.048 85.5117C991.785 87.0594 991.801 88.6734 992.102 90.2149C992.664 93.0987 994.214 95.6757 996.426 97.6529C997.021 98.1851 997.66 98.6647 998.342 99.0867C998.56 99.2219 998.786 99.3472 999.009 99.4749C998.194 98.532 997.496 97.4689 996.863 96.432ZM990.854 86.9479C990.252 87.8971 989.577 88.8049 988.802 89.6539C986.891 91.7463 984.385 93.3617 981.558 93.9577C982.119 94.7466 982.497 95.7283 982.857 96.5886C983.313 97.6717 983.671 98.7962 983.956 99.9332C984.365 101.57 984.613 103.253 984.686 104.941C985.098 104.194 985.577 103.484 986.113 102.816C987.541 101.035 989.373 99.5538 991.454 98.5545C992.536 98.0349 993.634 97.6705 994.816 97.4952C994.187 96.8428 993.62 96.1328 993.123 95.3802C991.477 92.8858 990.694 89.9018 990.854 86.9479ZM984.794 108.845C985.755 107.763 986.809 106.758 987.931 105.836C990.197 103.974 992.724 102.473 995.458 101.359C996.471 100.947 997.515 100.578 998.586 100.316C998.419 100.227 998.261 100.137 998.115 100.053C997.432 99.6652 996.786 99.2207 996.174 98.7336C995.896 98.512 995.626 98.279 995.366 98.0361C995.336 98.0587 995.305 98.0774 995.267 98.0887C993.188 98.7186 991.194 99.5926 989.486 100.927C987.789 102.254 986.384 103.926 985.406 105.822C985.115 106.387 984.889 106.983 984.652 107.575C984.625 107.98 984.591 108.383 984.542 108.785C984.526 108.925 984.504 109.065 984.485 109.204C984.59 109.086 984.69 108.963 984.794 108.845ZM980.274 97.9234C981.856 100.773 982.828 103.94 983.109 107.171C983.187 108.073 983.205 108.978 983.164 109.881C983.15 110.202 983.142 110.551 983.117 110.901C983.22 110.77 983.323 110.641 983.419 110.517L983.423 110.512C983.38 110.02 983.44 109.538 983.504 109.052C983.49 109.024 983.48 108.993 983.477 108.96C983.426 108.412 983.509 107.855 983.665 107.311C983.683 106.949 983.694 106.587 983.695 106.224C983.704 104.804 983.6 103.383 983.362 101.981C983.123 100.581 982.762 99.1994 982.286 97.8596C982.042 97.1759 981.775 96.4984 981.475 95.836C981.214 95.2638 980.885 94.704 980.665 94.1143C979.673 94.2482 978.61 94.2733 977.608 94.1005C978.621 95.285 979.519 96.5648 980.274 97.9234ZM976.317 92.693C976.386 92.6842 976.463 92.688 976.547 92.708C977.214 92.8695 977.86 93.0449 978.55 93.095C979.228 93.1438 979.916 93.1263 980.588 93.0349C981.95 92.8483 983.271 92.3887 984.473 91.7438C987.031 90.3727 988.946 88.1826 990.463 85.7884C990.704 85.4077 990.938 85.0208 991.165 84.6314C991.269 84.148 991.397 83.6696 991.554 83.1976C991.809 82.43 992.097 81.4082 992.765 80.871C992.776 80.5679 992.788 80.2637 992.809 79.9606C992.717 80.1622 992.62 80.3626 992.522 80.5604C991.735 82.1357 990.698 83.6033 989.502 84.9093C987.016 87.6203 983.695 89.5775 980.104 90.5342C979.051 90.8147 977.974 91.005 976.888 91.1165C976.35 91.1716 975.809 91.2054 975.268 91.2167C975.073 91.2204 974.877 91.2242 974.679 91.2242C975.258 91.6699 975.801 92.1721 976.317 92.693Z" fill="#F8B6D4" fill-opacity="0.3"/>
<path d="M523.26 140.646C523.225 140.398 523.334 140.138 523.636 140.09C524.541 139.944 525.498 140.058 526.417 139.987C527.309 139.918 528.192 139.78 529.063 139.585C530.84 139.186 532.556 138.547 534.145 137.674C537.138 136.028 539.606 133.566 541.274 130.638C542.206 129.003 542.954 127.19 543.399 125.368C543.453 125.148 543.632 125.083 543.797 125.12C544.041 124.868 544.489 125.038 544.511 125.399C544.562 126.244 544.286 127.126 544.16 127.961C544.033 128.804 543.956 129.653 543.917 130.503C543.837 132.212 543.914 133.934 544.164 135.628C544.67 139.052 545.815 142.382 547.551 145.4C548.034 146.239 548.563 147.054 549.134 147.838C549.715 148.636 550.354 149.391 550.923 150.197C551.189 150.574 550.711 150.927 550.354 150.78C550.325 150.793 550.291 150.805 550.254 150.808C550.225 150.811 550.195 150.807 550.166 150.808C548.877 151.242 547.577 151.63 546.314 152.137C545.02 152.658 543.769 153.283 542.57 153.989C540.146 155.417 537.94 157.158 536.039 159.208C535.518 159.769 535.016 160.349 534.546 160.953C534.309 161.258 534.078 161.569 533.854 161.883C533.617 162.217 533.416 162.594 533.102 162.866C532.787 163.139 532.273 162.967 532.205 162.6C532.154 162.562 532.114 162.507 532.1 162.435C531.945 161.688 532.131 160.876 532.163 160.117C532.195 159.351 532.182 158.585 532.133 157.818C532.035 156.272 531.76 154.74 531.331 153.248C530.48 150.29 529.017 147.478 527.024 145.095C526.463 144.425 525.863 143.787 525.225 143.186C524.569 142.569 523.849 142.037 523.164 141.455C522.879 141.212 523.002 140.826 523.26 140.646ZM546.863 146.432C545.935 144.911 545.162 143.303 544.539 141.641C543.534 138.954 542.95 136.108 542.797 133.246C542.641 133.598 542.479 133.948 542.312 134.293C542.206 134.695 542.117 135.102 542.048 135.512C541.785 137.059 541.801 138.673 542.102 140.215C542.664 143.099 544.214 145.676 546.426 147.653C547.021 148.185 547.66 148.665 548.342 149.087C548.56 149.222 548.786 149.347 549.009 149.475C548.194 148.532 547.496 147.469 546.863 146.432ZM540.854 136.948C540.252 137.897 539.577 138.805 538.802 139.654C536.891 141.746 534.385 143.362 531.558 143.958C532.119 144.747 532.497 145.728 532.857 146.589C533.313 147.672 533.671 148.796 533.956 149.933C534.365 151.57 534.613 153.253 534.686 154.941C535.098 154.194 535.577 153.484 536.113 152.816C537.541 151.035 539.373 149.554 541.454 148.555C542.536 148.035 543.634 147.67 544.816 147.495C544.187 146.843 543.62 146.133 543.123 145.38C541.477 142.886 540.694 139.902 540.854 136.948ZM534.794 158.845C535.755 157.763 536.809 156.758 537.931 155.836C540.197 153.974 542.724 152.473 545.458 151.359C546.471 150.947 547.515 150.578 548.586 150.316C548.419 150.227 548.261 150.137 548.115 150.053C547.432 149.665 546.786 149.221 546.174 148.734C545.896 148.512 545.626 148.279 545.366 148.036C545.336 148.059 545.305 148.077 545.267 148.089C543.188 148.719 541.194 149.593 539.486 150.927C537.789 152.254 536.384 153.926 535.406 155.822C535.115 156.387 534.889 156.983 534.652 157.575C534.625 157.98 534.591 158.383 534.542 158.785C534.526 158.925 534.504 159.065 534.485 159.204C534.59 159.086 534.69 158.963 534.794 158.845ZM530.274 147.923C531.856 150.773 532.828 153.94 533.109 157.171C533.187 158.073 533.205 158.978 533.164 159.881C533.15 160.202 533.142 160.551 533.117 160.901C533.22 160.77 533.323 160.641 533.419 160.517L533.423 160.512C533.38 160.02 533.44 159.538 533.504 159.052C533.49 159.024 533.48 158.993 533.477 158.96C533.426 158.412 533.509 157.855 533.665 157.311C533.683 156.949 533.694 156.587 533.695 156.224C533.704 154.804 533.6 153.383 533.362 151.981C533.123 150.581 532.762 149.199 532.286 147.86C532.042 147.176 531.775 146.498 531.475 145.836C531.214 145.264 530.885 144.704 530.665 144.114C529.673 144.248 528.61 144.273 527.608 144.1C528.621 145.285 529.519 146.565 530.274 147.923ZM526.317 142.693C526.386 142.684 526.463 142.688 526.547 142.708C527.214 142.87 527.86 143.045 528.55 143.095C529.228 143.144 529.916 143.126 530.588 143.035C531.95 142.848 533.271 142.389 534.473 141.744C537.031 140.373 538.946 138.183 540.463 135.788C540.704 135.408 540.938 135.021 541.165 134.631C541.269 134.148 541.397 133.67 541.554 133.198C541.809 132.43 542.097 131.408 542.765 130.871C542.776 130.568 542.788 130.264 542.809 129.961C542.717 130.162 542.62 130.363 542.522 130.56C541.735 132.136 540.698 133.603 539.502 134.909C537.016 137.62 533.695 139.578 530.104 140.534C529.051 140.815 527.974 141.005 526.888 141.116C526.35 141.172 525.809 141.205 525.268 141.217C525.073 141.22 524.877 141.224 524.679 141.224C525.258 141.67 525.801 142.172 526.317 142.693Z" fill="#F8B6D4" fill-opacity="0.3"/>
<path d="M468.142 46.5092C468.066 46.4361 468.036 46.3213 468.125 46.2255C468.393 45.9386 468.746 45.7239 469.038 45.4578C469.321 45.1997 469.584 44.9211 469.828 44.6264C470.324 44.0253 470.738 43.3608 471.049 42.652C471.633 41.3161 471.829 39.8481 471.634 38.4365C471.525 37.648 471.308 36.8489 470.986 36.1268C470.947 36.0399 470.991 35.9712 471.056 35.9396C471.073 35.7917 471.269 35.7301 471.369 35.844C471.606 36.111 471.741 36.4763 471.915 36.7867C472.09 37.0999 472.284 37.4019 472.491 37.6946C472.907 38.2828 473.38 38.8338 473.903 39.3301C474.961 40.3328 476.211 41.1362 477.58 41.6797C477.96 41.8308 478.35 41.9619 478.746 42.0713C479.149 42.1827 479.561 42.2647 479.962 42.3823C480.149 42.4373 480.079 42.6805 479.921 42.7255C479.914 42.7379 479.906 42.7504 479.894 42.7615C479.885 42.7701 479.874 42.7766 479.864 42.7848C479.541 43.2685 479.203 43.7403 478.908 44.2417C478.606 44.7558 478.345 45.2932 478.123 45.8438C477.674 46.957 477.38 48.117 477.269 49.2986C477.239 49.6222 477.219 49.947 477.217 50.2712C477.216 50.4352 477.218 50.5992 477.224 50.7624C477.231 50.936 477.261 51.1142 477.225 51.287C477.189 51.4609 476.971 51.5393 476.853 51.4355C476.826 51.4362 476.798 51.4284 476.775 51.4084C476.529 51.2013 476.381 50.8829 476.196 50.6227C476.008 50.3599 475.805 50.1089 475.59 49.8675C475.156 49.3804 474.666 48.9446 474.134 48.5623C473.081 47.8052 471.858 47.2578 470.567 46.9928C470.204 46.9184 469.836 46.8653 469.464 46.8341C469.083 46.8022 468.702 46.8155 468.319 46.8031C468.16 46.7976 468.102 46.6371 468.142 46.5092ZM477.615 42.2035C476.907 41.9434 476.229 41.614 475.588 41.2267C474.552 40.6 473.617 39.8095 472.824 38.9002C472.863 39.0583 472.899 39.2169 472.932 39.3756C473 39.5371 473.075 39.6955 473.158 39.8497C473.47 40.4327 473.894 40.9639 474.395 41.3963C475.332 42.205 476.524 42.6513 477.783 42.7241C478.122 42.7437 478.462 42.7342 478.802 42.6945C478.911 42.6818 479.02 42.6638 479.128 42.6473C478.608 42.5494 478.097 42.3807 477.615 42.2035ZM473.127 40.6411C473.17 41.1149 473.177 41.5943 473.135 42.0805C473.032 43.2789 472.604 44.4762 471.804 45.4194C472.198 45.5333 472.579 45.7595 472.924 45.9499C473.359 46.1891 473.771 46.4679 474.162 46.77C474.724 47.2052 475.244 47.6983 475.706 48.2392C475.652 47.8829 475.63 47.521 475.638 47.1576C475.658 46.1902 475.894 45.2152 476.337 44.3348C476.568 43.877 476.845 43.4663 477.199 43.0963C476.817 43.0457 476.442 42.9597 476.079 42.841C474.876 42.4475 473.838 41.6637 473.127 40.6411ZM476.755 49.5065C476.799 48.8939 476.894 48.2822 477.034 47.6805C477.317 46.4647 477.782 45.2999 478.417 44.2094C478.652 43.8056 478.909 43.4075 479.203 43.0383C479.124 43.0528 479.047 43.0645 478.976 43.0752C478.645 43.1265 478.311 43.1493 477.978 43.1491C477.827 43.149 477.675 43.1428 477.524 43.1309C477.52 43.1462 477.515 43.1605 477.505 43.1744C476.966 43.9319 476.519 44.7477 476.288 45.6412C476.058 46.5289 476.017 47.4547 476.178 48.3418C476.226 48.6061 476.304 48.8635 476.377 49.1227C476.473 49.264 476.566 49.4066 476.654 49.5529C476.685 49.6038 476.714 49.6561 476.743 49.7073C476.748 49.6401 476.75 49.5729 476.755 49.5065ZM472.397 47.0743C473.671 47.6027 474.819 48.3974 475.752 49.3954C476.012 49.6739 476.252 49.9696 476.472 50.2801C476.551 50.3906 476.639 50.5081 476.721 50.6313C476.722 50.5602 476.723 50.4903 476.723 50.4238L476.724 50.4211C476.581 50.2693 476.477 50.0934 476.372 49.9153C476.361 49.9098 476.349 49.9022 476.34 49.892C476.18 49.7236 476.064 49.5166 475.976 49.2953C475.888 49.1705 475.798 49.0473 475.704 48.9265C475.339 48.4529 474.936 48.0087 474.492 47.6062C474.048 47.2046 473.569 46.8414 473.061 46.5223C472.801 46.3597 472.535 46.2053 472.262 46.0647C472.026 45.9435 471.77 45.8448 471.543 45.707C471.242 46.0131 470.89 46.3017 470.506 46.5088C471.155 46.6348 471.79 46.8225 472.397 47.0743ZM469.705 46.3823C469.727 46.3611 469.754 46.342 469.787 46.3266C470.054 46.2042 470.318 46.0921 470.564 45.9266C470.806 45.7641 471.033 45.5768 471.237 45.3691C471.648 44.948 471.975 44.4471 472.215 43.9159C472.723 42.7862 472.802 41.5543 472.694 40.3596C472.677 40.1696 472.656 39.9796 472.632 39.7905C472.542 39.6026 472.461 39.41 472.392 39.2121C472.279 38.89 472.111 38.475 472.198 38.1204C472.123 38.0171 472.048 37.9128 471.977 37.8068C471.998 37.8981 472.017 37.9899 472.035 38.0817C472.178 38.8119 472.208 39.5725 472.142 40.3214C472.005 41.8768 471.39 43.4021 470.425 44.6668C470.142 45.0379 469.828 45.385 469.49 45.7084C469.322 45.8686 469.148 46.0226 468.969 46.1689C468.904 46.2216 468.838 46.2746 468.772 46.3268C469.083 46.322 469.396 46.3455 469.705 46.3823Z" fill="#F8B6D4" fill-opacity="0.3"/>
<path d="M178.142 16.5092C178.066 16.4361 178.036 16.3213 178.125 16.2255C178.393 15.9386 178.746 15.7239 179.038 15.4578C179.321 15.1997 179.584 14.9211 179.828 14.6264C180.324 14.0253 180.738 13.3608 181.049 12.652C181.633 11.3161 181.829 9.84813 181.634 8.43648C181.525 7.64799 181.308 6.84891 180.986 6.12681C180.947 6.03987 180.991 5.9712 181.056 5.93959C181.073 5.79174 181.269 5.7301 181.369 5.84403C181.606 6.11098 181.741 6.47632 181.915 6.78667C182.09 7.09985 182.284 7.40191 182.491 7.69457C182.907 8.28278 183.38 8.83385 183.903 9.33008C184.961 10.3328 186.211 11.1362 187.58 11.6797C187.96 11.8308 188.35 11.9619 188.746 12.0713C189.149 12.1827 189.561 12.2647 189.962 12.3823C190.149 12.4373 190.079 12.6805 189.921 12.7255C189.914 12.7379 189.906 12.7504 189.894 12.7615C189.885 12.7701 189.874 12.7766 189.864 12.7848C189.541 13.2685 189.203 13.7403 188.908 14.2417C188.606 14.7558 188.345 15.2932 188.123 15.8438C187.674 16.957 187.38 18.117 187.269 19.2986C187.239 19.6222 187.219 19.947 187.217 20.2712C187.216 20.4352 187.218 20.5992 187.224 20.7624C187.231 20.936 187.261 21.1142 187.225 21.287C187.189 21.4609 186.971 21.5393 186.853 21.4355C186.826 21.4362 186.798 21.4284 186.775 21.4084C186.529 21.2013 186.381 20.8829 186.196 20.6227C186.008 20.3599 185.805 20.1089 185.59 19.8675C185.156 19.3804 184.666 18.9446 184.134 18.5623C183.081 17.8052 181.858 17.2578 180.567 16.9928C180.204 16.9184 179.836 16.8653 179.464 16.8341C179.083 16.8022 178.702 16.8155 178.319 16.8031C178.16 16.7976 178.102 16.6371 178.142 16.5092ZM187.615 12.2035C186.907 11.9434 186.229 11.614 185.588 11.2267C184.552 10.6 183.617 9.80948 182.824 8.90023C182.863 9.0583 182.899 9.2169 182.932 9.3756C183 9.53709 183.075 9.69551 183.158 9.84968C183.47 10.4327 183.894 10.9639 184.395 11.3963C185.332 12.205 186.524 12.6513 187.783 12.7241C188.122 12.7437 188.462 12.7342 188.802 12.6945C188.911 12.6818 189.02 12.6638 189.128 12.6473C188.608 12.5494 188.097 12.3807 187.615 12.2035ZM183.127 10.6411C183.17 11.1149 183.177 11.5943 183.135 12.0805C183.032 13.2789 182.604 14.4762 181.804 15.4194C182.198 15.5333 182.579 15.7595 182.924 15.9499C183.359 16.1891 183.771 16.4679 184.162 16.77C184.724 17.2052 185.244 17.6983 185.706 18.2392C185.652 17.8829 185.63 17.521 185.638 17.1576C185.658 16.1902 185.894 15.2152 186.337 14.3348C186.568 13.877 186.845 13.4663 187.199 13.0963C186.817 13.0457 186.442 12.9597 186.079 12.841C184.876 12.4475 183.838 11.6637 183.127 10.6411ZM186.755 19.5065C186.799 18.8939 186.894 18.2822 187.034 17.6805C187.317 16.4647 187.782 15.2999 188.417 14.2094C188.652 13.8056 188.909 13.4075 189.203 13.0383C189.124 13.0528 189.047 13.0645 188.976 13.0752C188.645 13.1265 188.311 13.1493 187.978 13.1491C187.827 13.149 187.675 13.1428 187.524 13.1309C187.52 13.1462 187.515 13.1605 187.505 13.1744C186.966 13.9319 186.519 14.7477 186.288 15.6412C186.058 16.5289 186.017 17.4547 186.178 18.3418C186.226 18.6061 186.304 18.8635 186.377 19.1227C186.473 19.264 186.566 19.4066 186.654 19.5529C186.685 19.6038 186.714 19.6561 186.743 19.7073C186.748 19.6401 186.75 19.5729 186.755 19.5065ZM182.397 17.0743C183.671 17.6027 184.819 18.3974 185.752 19.3954C186.012 19.6739 186.252 19.9696 186.472 20.2801C186.551 20.3906 186.639 20.5081 186.721 20.6313C186.722 20.5602 186.723 20.4903 186.723 20.4238L186.724 20.4211C186.581 20.2693 186.477 20.0934 186.372 19.9153C186.361 19.9098 186.349 19.9022 186.34 19.892C186.18 19.7236 186.064 19.5166 185.976 19.2953C185.888 19.1705 185.798 19.0473 185.704 18.9265C185.339 18.4529 184.936 18.0087 184.492 17.6062C184.048 17.2046 183.569 16.8414 183.061 16.5223C182.801 16.3597 182.535 16.2053 182.262 16.0647C182.026 15.9435 181.77 15.8448 181.543 15.707C181.242 16.0131 180.89 16.3017 180.506 16.5088C181.155 16.6348 181.79 16.8225 182.397 17.0743ZM179.705 16.3823C179.727 16.3611 179.754 16.342 179.787 16.3266C180.054 16.2042 180.318 16.0921 180.564 15.9266C180.806 15.7641 181.033 15.5768 181.237 15.3691C181.648 14.948 181.975 14.4471 182.215 13.9159C182.723 12.7862 182.802 11.5543 182.694 10.3596C182.677 10.1696 182.656 9.97961 182.632 9.79045C182.542 9.60263 182.461 9.41003 182.392 9.21207C182.279 8.88996 182.111 8.47504 182.198 8.12039C182.123 8.01712 182.048 7.91276 181.977 7.80678C181.998 7.89805 182.017 7.98993 182.035 8.08166C182.178 8.81194 182.208 9.57251 182.142 10.3214C182.005 11.8768 181.39 13.4021 180.425 14.6668C180.142 15.0379 179.828 15.385 179.49 15.7084C179.322 15.8686 179.148 16.0226 178.969 16.1689C178.904 16.2216 178.838 16.2746 178.772 16.3268C179.083 16.322 179.396 16.3455 179.705 16.3823Z" fill="#F8B6D4" fill-opacity="0.3"/>
<path d="M989.26 36.6461C989.428 36.6929 989.596 36.7421 989.762 36.7925C989.786 36.7843 989.812 36.7796 989.839 36.7831C989.979 36.6953 990.151 36.6379 990.298 36.5653C990.63 36.4002 990.956 36.2198 991.258 36.002C991.54 35.7983 991.802 35.557 992.012 35.2772C992.115 35.139 992.205 34.9891 992.28 34.8322C992.355 34.6717 992.408 34.4949 992.493 34.3403C992.511 34.3099 992.532 34.2923 992.558 34.2818C992.594 34.194 992.635 34.1085 992.698 34.0382C992.771 33.9562 992.912 34.016 992.914 34.1249C992.916 34.2677 992.859 34.4024 992.814 34.5359C992.82 34.6671 992.775 34.8146 992.76 34.9364C992.74 35.0945 992.73 35.2549 992.725 35.4142C992.717 35.7444 992.737 36.077 992.79 36.4025C992.843 36.7222 992.922 37.0384 993.026 37.344C993.082 37.5045 993.141 37.6637 993.209 37.8183C993.259 37.9307 993.318 38.0443 993.341 38.1661C993.546 38.2715 993.747 38.3839 993.941 38.5057C994.057 38.5795 993.989 38.7949 993.847 38.7457C993.641 38.6743 993.438 38.5982 993.236 38.5197C993.233 38.5209 993.231 38.5221 993.229 38.5233C992.955 38.6029 992.677 38.6579 992.412 38.7657C992.143 38.8746 991.888 39.0186 991.653 39.1919C991.208 39.521 990.854 39.9671 990.62 40.4742C990.573 40.6007 990.526 40.7271 990.479 40.8536C990.442 40.952 990.356 41.0211 990.248 40.9941C990.157 40.9719 990.074 40.8571 990.11 40.7588C990.147 40.6616 990.184 40.5632 990.221 40.466C990.217 40.4402 990.218 40.4133 990.227 40.3852C990.236 40.3594 990.244 40.3325 990.252 40.3056C990.244 40.2938 990.237 40.2822 990.232 40.2681C990.198 40.2189 990.178 40.1533 990.198 40.0948C990.216 40.0386 990.239 39.9835 990.262 39.9285C990.27 39.7915 990.285 39.6556 990.293 39.5186C990.311 39.1989 990.309 38.8781 990.273 38.5595C990.245 38.2972 990.184 38.0384 990.088 37.7925C990.01 37.5899 989.9 37.419 989.775 37.2504C989.569 37.1883 989.362 37.1274 989.155 37.0688C988.889 36.9951 988.992 36.5723 989.26 36.6461Z" fill="#F8B6D4" fill-opacity="0.3"/>
<path d="M989.26 156.646C989.428 156.693 989.596 156.742 989.762 156.792C989.786 156.784 989.812 156.78 989.839 156.783C989.979 156.695 990.151 156.638 990.298 156.565C990.63 156.4 990.956 156.22 991.258 156.002C991.54 155.798 991.802 155.557 992.012 155.277C992.115 155.139 992.205 154.989 992.28 154.832C992.355 154.672 992.408 154.495 992.493 154.34C992.511 154.31 992.532 154.292 992.558 154.282C992.594 154.194 992.635 154.108 992.698 154.038C992.771 153.956 992.912 154.016 992.914 154.125C992.916 154.268 992.859 154.402 992.814 154.536C992.82 154.667 992.775 154.815 992.76 154.936C992.74 155.094 992.73 155.255 992.725 155.414C992.717 155.744 992.737 156.077 992.79 156.403C992.843 156.722 992.922 157.038 993.026 157.344C993.082 157.504 993.141 157.664 993.209 157.818C993.259 157.931 993.318 158.044 993.341 158.166C993.546 158.271 993.747 158.384 993.941 158.506C994.057 158.579 993.989 158.795 993.847 158.746C993.641 158.674 993.438 158.598 993.236 158.52C993.233 158.521 993.231 158.522 993.229 158.523C992.955 158.603 992.677 158.658 992.412 158.766C992.143 158.875 991.888 159.019 991.653 159.192C991.208 159.521 990.854 159.967 990.62 160.474C990.573 160.601 990.526 160.727 990.479 160.854C990.442 160.952 990.356 161.021 990.248 160.994C990.157 160.972 990.074 160.857 990.11 160.759C990.147 160.662 990.184 160.563 990.221 160.466C990.217 160.44 990.218 160.413 990.227 160.385C990.236 160.359 990.244 160.332 990.252 160.306C990.244 160.294 990.237 160.282 990.232 160.268C990.198 160.219 990.178 160.153 990.198 160.095C990.216 160.039 990.239 159.984 990.262 159.928C990.27 159.791 990.285 159.656 990.293 159.519C990.311 159.199 990.309 158.878 990.273 158.56C990.245 158.297 990.184 158.038 990.088 157.793C990.01 157.59 989.9 157.419 989.775 157.25C989.569 157.188 989.362 157.127 989.155 157.069C988.889 156.995 988.992 156.572 989.26 156.646Z" fill="#F8B6D4" fill-opacity="0.3"/>
<path d="M854.171 95.0659C854.335 95.0094 854.501 94.9548 854.667 94.9019C854.682 94.8814 854.701 94.8633 854.725 94.8505C854.791 94.6987 854.9 94.5544 854.98 94.4112C855.16 94.087 855.326 93.7535 855.452 93.4027C855.568 93.0753 855.647 92.7281 855.662 92.3783C855.669 92.2059 855.657 92.0316 855.63 91.86C855.602 91.6848 855.545 91.5092 855.527 91.3336C855.524 91.2988 855.532 91.2719 855.547 91.2489C855.528 91.1557 855.512 91.0625 855.525 90.9688C855.539 90.8596 855.688 90.8293 855.752 90.9178C855.835 91.0341 855.864 91.1777 855.902 91.3131C855.981 91.4178 856.028 91.5648 856.085 91.6736C856.158 91.8149 856.241 91.9529 856.327 92.0868C856.508 92.3634 856.712 92.6263 856.94 92.8645C857.165 93.0979 857.41 93.3135 857.669 93.506C857.805 93.6069 857.945 93.7042 858.088 93.7932C858.193 93.8578 858.306 93.9175 858.394 94.0048C858.623 93.9757 858.852 93.9543 859.081 93.9446C859.218 93.9396 859.285 94.1555 859.139 94.1958C858.93 94.2535 858.719 94.3061 858.508 94.3561C858.507 94.3583 858.505 94.3606 858.504 94.3629C858.324 94.5835 858.126 94.7864 857.969 95.0256C857.809 95.2678 857.68 95.531 857.585 95.8066C857.405 96.3304 857.366 96.8986 857.461 97.4485C857.494 97.5794 857.527 97.7103 857.56 97.8412C857.585 97.9431 857.554 98.0489 857.449 98.0879C857.362 98.121 857.228 98.074 857.202 97.9721C857.177 97.8712 857.152 97.7693 857.127 97.6684C857.11 97.6492 857.095 97.6263 857.087 97.5979C857.079 97.5722 857.07 97.5454 857.062 97.5186C857.049 97.5136 857.036 97.5078 857.024 97.4989C856.968 97.4779 856.915 97.4349 856.898 97.3756C856.881 97.3189 856.869 97.2605 856.857 97.2021C856.786 97.0847 856.721 96.9643 856.65 96.8469C856.484 96.5731 856.3 96.3101 856.09 96.0679C855.918 95.868 855.721 95.6893 855.503 95.5408C855.324 95.4182 855.136 95.3399 854.937 95.272C854.733 95.3374 854.528 95.4045 854.324 95.4734C854.063 95.5638 853.908 95.1569 854.171 95.0659Z" fill="#F8B6D4" fill-opacity="0.3"/>
<path d="M464.115 104.255C464.29 104.257 464.464 104.261 464.638 104.266C464.66 104.252 464.683 104.241 464.71 104.237C464.823 104.116 464.973 104.016 465.097 103.908C465.375 103.663 465.643 103.404 465.879 103.116C466.098 102.846 466.289 102.545 466.419 102.22C466.483 102.06 466.531 101.892 466.563 101.721C466.594 101.547 466.6 101.362 466.642 101.191C466.651 101.157 466.667 101.134 466.689 101.118C466.702 101.023 466.718 100.93 466.761 100.846C466.811 100.748 466.962 100.769 466.992 100.874C467.031 101.011 467.011 101.156 467.002 101.297C467.042 101.422 467.036 101.576 467.054 101.698C467.076 101.855 467.107 102.013 467.144 102.168C467.222 102.489 467.327 102.805 467.462 103.106C467.596 103.401 467.754 103.686 467.934 103.954C468.029 104.095 468.128 104.233 468.233 104.365C468.31 104.461 468.397 104.555 468.451 104.667C468.676 104.716 468.899 104.772 469.118 104.84C469.249 104.881 469.24 105.106 469.089 105.096C468.872 105.08 468.656 105.059 468.44 105.036C468.439 105.037 468.437 105.039 468.435 105.041C468.191 105.189 467.937 105.314 467.708 105.487C467.477 105.661 467.268 105.866 467.086 106.095C466.741 106.528 466.514 107.05 466.42 107.6C466.408 107.735 466.395 107.869 466.382 108.004C466.372 108.108 466.307 108.197 466.195 108.199C466.102 108.201 465.991 108.112 466.001 108.007C466.012 107.904 466.022 107.799 466.032 107.696C466.022 107.672 466.016 107.646 466.018 107.616C466.019 107.589 466.02 107.561 466.02 107.533C466.01 107.524 466 107.514 465.992 107.502C465.946 107.463 465.91 107.405 465.914 107.343C465.917 107.284 465.925 107.225 465.933 107.166C465.905 107.032 465.884 106.897 465.857 106.762C465.792 106.449 465.706 106.139 465.59 105.841C465.494 105.595 465.368 105.361 465.212 105.148C465.084 104.972 464.934 104.836 464.769 104.705C464.554 104.699 464.339 104.693 464.124 104.69C463.847 104.688 463.838 104.253 464.115 104.255Z" fill="#F8B6D4" fill-opacity="0.3"/>
<path d="M174.115 74.2549C174.29 74.2567 174.464 74.2608 174.638 74.2663C174.66 74.2521 174.683 74.2411 174.71 74.2373C174.823 74.1162 174.973 74.0165 175.097 73.9083C175.375 73.6629 175.643 73.4042 175.879 73.1156C176.098 72.8459 176.289 72.5451 176.419 72.2204C176.483 72.0601 176.531 71.8922 176.563 71.7213C176.594 71.5467 176.6 71.3622 176.642 71.1909C176.651 71.157 176.667 71.1344 176.689 71.1177C176.702 71.0233 176.718 70.9303 176.761 70.8461C176.811 70.7479 176.962 70.7693 176.992 70.8739C177.031 71.0113 177.011 71.1563 177.002 71.2968C177.042 71.422 177.036 71.5761 177.054 71.6976C177.076 71.8554 177.107 72.013 177.144 72.1681C177.222 72.4891 177.327 72.8053 177.462 73.1061C177.596 73.4012 177.754 73.6861 177.934 73.9542C178.029 74.0949 178.128 74.2333 178.233 74.365C178.31 74.4608 178.397 74.5551 178.451 74.6668C178.676 74.7157 178.899 74.7722 179.118 74.8396C179.249 74.8808 179.24 75.1065 179.089 75.0958C178.872 75.0801 178.656 75.0592 178.44 75.0358C178.439 75.0375 178.437 75.0392 178.435 75.041C178.191 75.1886 177.937 75.3138 177.708 75.4865C177.477 75.6613 177.268 75.8664 177.086 76.0945C176.741 76.5278 176.514 77.0503 176.42 77.6005C176.408 77.7348 176.395 77.8692 176.382 78.0035C176.372 78.1081 176.307 78.1971 176.195 78.199C176.102 78.201 175.991 78.1119 176.001 78.0074C176.012 77.904 176.022 77.7994 176.032 77.696C176.022 77.672 176.016 77.6457 176.018 77.6162C176.019 77.5892 176.02 77.5611 176.02 77.533C176.01 77.5238 176 77.5143 175.992 77.5019C175.946 77.4633 175.91 77.405 175.914 77.3434C175.917 77.2843 175.925 77.2252 175.933 77.1661C175.905 77.0317 175.884 76.8966 175.857 76.7622C175.792 76.4486 175.706 76.1393 175.59 75.8409C175.494 75.5949 175.368 75.3607 175.212 75.1478C175.084 74.9724 174.934 74.8358 174.769 74.7053C174.554 74.6986 174.339 74.6933 174.124 74.6903C173.847 74.688 173.838 74.2529 174.115 74.2549Z" fill="#F8B6D4" fill-opacity="0.3"/>
<path d="M543.778 71.9267C543.951 71.912 544.126 71.8995 544.299 71.8885C544.319 71.8724 544.341 71.8592 544.368 71.8529C544.469 71.7216 544.609 71.6081 544.722 71.4887C544.975 71.218 545.218 70.9351 545.425 70.6254C545.618 70.3362 545.779 70.0187 545.878 69.683C545.927 69.5174 545.959 69.3457 545.974 69.1725C545.989 68.9957 545.977 68.8116 546.002 68.637C546.008 68.6025 546.022 68.5784 546.042 68.5597C546.046 68.4646 546.054 68.3704 546.089 68.2825C546.129 68.18 546.281 68.187 546.321 68.2883C546.373 68.4214 546.366 68.5676 546.371 68.7084C546.422 68.8293 546.432 68.9831 546.46 69.1025C546.497 69.2574 546.544 69.4114 546.595 69.5622C546.703 69.8745 546.837 70.1793 547 70.4659C547.161 70.747 547.346 71.0156 547.551 71.2655C547.659 71.3965 547.77 71.5249 547.888 71.6461C547.973 71.7342 548.069 71.8198 548.133 71.9258C548.361 71.9532 548.589 71.9883 548.814 72.0346C548.948 72.0632 548.96 72.2888 548.809 72.2925C548.591 72.2974 548.374 72.2971 548.157 72.2941C548.156 72.296 548.154 72.298 548.152 72.2999C547.924 72.47 547.682 72.6187 547.471 72.8123C547.257 73.0082 547.069 73.2322 546.91 73.4765C546.607 73.9405 546.431 74.4822 546.389 75.0388C546.389 75.1737 546.389 75.3087 546.389 75.4437C546.389 75.5487 546.333 75.6435 546.222 75.656C546.129 75.6668 546.011 75.5886 546.011 75.4836C546.011 75.3797 546.011 75.2746 546.012 75.1707C546 75.1478 545.991 75.1221 545.99 75.0926C545.989 75.0656 545.987 75.0376 545.985 75.0095C545.973 75.0014 545.963 74.9928 545.954 74.9813C545.904 74.9472 545.863 74.8926 545.861 74.8309C545.858 74.7718 545.861 74.7122 545.863 74.6526C545.823 74.5214 545.789 74.3889 545.749 74.2577C545.654 73.9517 545.54 73.6518 545.396 73.3658C545.277 73.13 545.13 72.9088 544.954 72.7117C544.81 72.5491 544.647 72.4275 544.471 72.3132C544.257 72.3268 544.042 72.342 543.828 72.3593C543.552 72.3833 543.501 71.951 543.778 71.9267Z" fill="#F8B6D4" fill-opacity="0.3"/>
<path d="M1081.26 96.6461C1081.43 96.6929 1081.6 96.7421 1081.76 96.7925C1081.79 96.7843 1081.81 96.7796 1081.84 96.7831C1081.98 96.6953 1082.15 96.6379 1082.3 96.5653C1082.63 96.4002 1082.96 96.2198 1083.26 96.002C1083.54 95.7983 1083.8 95.557 1084.01 95.2772C1084.12 95.139 1084.2 94.9891 1084.28 94.8322C1084.36 94.6717 1084.41 94.4949 1084.49 94.3403C1084.51 94.3099 1084.53 94.2923 1084.56 94.2818C1084.59 94.194 1084.63 94.1085 1084.7 94.0382C1084.77 93.9562 1084.91 94.016 1084.91 94.1249C1084.92 94.2677 1084.86 94.4024 1084.81 94.5359C1084.82 94.6671 1084.77 94.8146 1084.76 94.9364C1084.74 95.0945 1084.73 95.2549 1084.73 95.4142C1084.72 95.7444 1084.74 96.077 1084.79 96.4025C1084.84 96.7222 1084.92 97.0384 1085.03 97.344C1085.08 97.5045 1085.14 97.6637 1085.21 97.8183C1085.26 97.9307 1085.32 98.0443 1085.34 98.1661C1085.55 98.2715 1085.75 98.3839 1085.94 98.5057C1086.06 98.5795 1085.99 98.7949 1085.85 98.7457C1085.64 98.6743 1085.44 98.5982 1085.24 98.5197C1085.23 98.5209 1085.23 98.5221 1085.23 98.5233C1084.96 98.6029 1084.68 98.6579 1084.41 98.7657C1084.14 98.8746 1083.89 99.0186 1083.65 99.1919C1083.21 99.521 1082.85 99.9671 1082.62 100.474C1082.57 100.601 1082.53 100.727 1082.48 100.854C1082.44 100.952 1082.36 101.021 1082.25 100.994C1082.16 100.972 1082.07 100.857 1082.11 100.759C1082.15 100.662 1082.18 100.563 1082.22 100.466C1082.22 100.44 1082.22 100.413 1082.23 100.385C1082.24 100.359 1082.24 100.332 1082.25 100.306C1082.24 100.294 1082.24 100.282 1082.23 100.268C1082.2 100.219 1082.18 100.153 1082.2 100.095C1082.22 100.039 1082.24 99.9835 1082.26 99.9285C1082.27 99.7915 1082.28 99.6556 1082.29 99.5186C1082.31 99.1989 1082.31 98.8781 1082.27 98.5595C1082.24 98.2972 1082.18 98.0384 1082.09 97.7925C1082.01 97.5899 1081.9 97.419 1081.77 97.2504C1081.57 97.1883 1081.36 97.1274 1081.16 97.0688C1080.89 96.9951 1080.99 96.5723 1081.26 96.6461Z" fill="#F8B6D4" fill-opacity="0.3"/>
<path d="M971.07 26.5871C971.104 26.4691 971.162 26.367 971.242 26.2797C971.318 26.1863 971.408 26.1211 971.511 26.083C971.61 26.0227 971.718 25.9956 971.833 26.0006C971.984 26.0006 972.125 26.0449 972.255 26.1309C972.297 26.1567 972.34 26.1826 972.382 26.2084C972.476 26.2674 972.557 26.3572 972.639 26.4383C972.674 26.4728 972.708 26.5047 972.739 26.5428C972.753 26.56 972.768 26.5773 972.782 26.5957C972.826 26.6486 972.866 26.7076 972.902 26.7703C972.925 26.8355 972.95 26.9006 972.974 26.9658C972.99 27.0396 972.999 27.1134 973 27.1884C973.003 27.299 972.984 27.4023 972.939 27.4982C972.911 27.5978 972.862 27.6839 972.794 27.7577C972.77 27.7823 972.745 27.8044 972.719 27.8241C972.65 27.8966 972.569 27.9446 972.476 27.9704C972.41 27.9913 972.342 28.0011 972.275 27.9999C972.255 27.9999 972.235 27.9999 972.214 27.9987C972.171 27.9974 972.129 27.9913 972.086 27.9852C971.975 27.9692 971.853 27.9704 971.749 27.9298C971.704 27.9114 971.659 27.8929 971.614 27.8745C971.473 27.829 971.349 27.7478 971.246 27.6286C971.203 27.5646 971.158 27.4995 971.115 27.4355C971.04 27.2868 971.002 27.1257 971.001 26.9535C970.994 26.8232 971.018 26.7015 971.07 26.5871Z" fill="#F8B6D4" fill-opacity="0.3"/>
<path d="M971.07 146.587C971.104 146.469 971.162 146.367 971.242 146.28C971.318 146.186 971.408 146.121 971.511 146.083C971.61 146.023 971.718 145.996 971.833 146.001C971.984 146.001 972.125 146.045 972.255 146.131C972.297 146.157 972.34 146.183 972.382 146.208C972.476 146.267 972.557 146.357 972.639 146.438C972.674 146.473 972.708 146.505 972.739 146.543C972.753 146.56 972.768 146.577 972.782 146.596C972.826 146.649 972.866 146.708 972.902 146.77C972.925 146.835 972.95 146.901 972.974 146.966C972.99 147.04 972.999 147.113 973 147.188C973.003 147.299 972.984 147.402 972.939 147.498C972.911 147.598 972.862 147.684 972.794 147.758C972.77 147.782 972.745 147.804 972.719 147.824C972.65 147.897 972.569 147.945 972.476 147.97C972.41 147.991 972.342 148.001 972.275 148C972.255 148 972.235 148 972.214 147.999C972.171 147.997 972.129 147.991 972.086 147.985C971.975 147.969 971.853 147.97 971.749 147.93C971.704 147.911 971.659 147.893 971.614 147.874C971.473 147.829 971.349 147.748 971.246 147.629C971.203 147.565 971.158 147.499 971.115 147.436C971.04 147.287 971.002 147.126 971.001 146.954C970.994 146.823 971.018 146.701 971.07 146.587Z" fill="#F8B6D4" fill-opacity="0.3"/>
<path d="M871.07 46.5871C871.104 46.4691 871.162 46.367 871.242 46.2797C871.318 46.1863 871.408 46.1211 871.511 46.083C871.61 46.0227 871.718 45.9956 871.833 46.0006C871.984 46.0006 872.125 46.0449 872.255 46.1309C872.297 46.1567 872.34 46.1826 872.382 46.2084C872.476 46.2674 872.557 46.3572 872.639 46.4383C872.674 46.4728 872.708 46.5047 872.739 46.5428C872.753 46.56 872.768 46.5773 872.782 46.5957C872.826 46.6486 872.866 46.7076 872.902 46.7703C872.925 46.8355 872.95 46.9006 872.974 46.9658C872.99 47.0396 872.999 47.1134 873 47.1884C873.003 47.299 872.984 47.4023 872.939 47.4982C872.911 47.5978 872.862 47.6839 872.794 47.7577C872.77 47.7823 872.745 47.8044 872.719 47.8241C872.65 47.8966 872.569 47.9446 872.476 47.9704C872.41 47.9913 872.342 48.0011 872.275 47.9999C872.255 47.9999 872.235 47.9999 872.214 47.9987C872.171 47.9974 872.129 47.9913 872.086 47.9852C871.975 47.9692 871.853 47.9704 871.749 47.9298C871.704 47.9114 871.659 47.8929 871.614 47.8745C871.473 47.829 871.349 47.7478 871.246 47.6286C871.203 47.5646 871.158 47.4995 871.115 47.4355C871.04 47.2868 871.002 47.1257 871.001 46.9535C870.994 46.8232 871.018 46.7015 871.07 46.5871Z" fill="#F8B6D4" fill-opacity="0.3"/>
<path d="M871.07 166.587C871.104 166.469 871.162 166.367 871.242 166.28C871.318 166.186 871.408 166.121 871.511 166.083C871.61 166.023 871.718 165.996 871.833 166.001C871.984 166.001 872.125 166.045 872.255 166.131C872.297 166.157 872.34 166.183 872.382 166.208C872.476 166.267 872.557 166.357 872.639 166.438C872.674 166.473 872.708 166.505 872.739 166.543C872.753 166.56 872.768 166.577 872.782 166.596C872.826 166.649 872.866 166.708 872.902 166.77C872.925 166.835 872.95 166.901 872.974 166.966C872.99 167.04 872.999 167.113 873 167.188C873.003 167.299 872.984 167.402 872.939 167.498C872.911 167.598 872.862 167.684 872.794 167.758C872.77 167.782 872.745 167.804 872.719 167.824C872.65 167.897 872.569 167.945 872.476 167.97C872.41 167.991 872.342 168.001 872.275 168C872.255 168 872.235 168 872.214 167.999C872.171 167.997 872.129 167.991 872.086 167.985C871.975 167.969 871.853 167.97 871.749 167.93C871.704 167.911 871.659 167.893 871.614 167.874C871.473 167.829 871.349 167.748 871.246 167.629C871.203 167.565 871.158 167.499 871.115 167.436C871.04 167.287 871.002 167.126 871.001 166.954C870.994 166.823 871.018 166.701 871.07 166.587Z" fill="#F8B6D4" fill-opacity="0.3"/>
<path d="M751.07 45.5871C751.104 45.4691 751.162 45.367 751.242 45.2797C751.318 45.1863 751.408 45.1211 751.511 45.083C751.61 45.0227 751.718 44.9956 751.833 45.0006C751.984 45.0006 752.125 45.0449 752.255 45.1309C752.297 45.1567 752.34 45.1826 752.382 45.2084C752.476 45.2674 752.557 45.3572 752.639 45.4383C752.674 45.4728 752.708 45.5047 752.739 45.5428C752.753 45.56 752.768 45.5773 752.782 45.5957C752.826 45.6486 752.866 45.7076 752.902 45.7703C752.925 45.8355 752.95 45.9006 752.974 45.9658C752.99 46.0396 752.999 46.1134 753 46.1884C753.003 46.299 752.984 46.4023 752.939 46.4982C752.911 46.5978 752.862 46.6839 752.794 46.7577C752.77 46.7823 752.745 46.8044 752.719 46.8241C752.65 46.8966 752.569 46.9446 752.476 46.9704C752.41 46.9913 752.342 47.0011 752.275 46.9999C752.255 46.9999 752.235 46.9999 752.214 46.9987C752.171 46.9974 752.129 46.9913 752.086 46.9852C751.975 46.9692 751.853 46.9704 751.749 46.9298C751.704 46.9114 751.659 46.8929 751.614 46.8745C751.473 46.829 751.349 46.7478 751.246 46.6286C751.203 46.5646 751.158 46.4995 751.115 46.4355C751.04 46.2868 751.002 46.1257 751.001 45.9535C750.994 45.8232 751.018 45.7015 751.07 45.5871Z" fill="#F8B6D4" fill-opacity="0.3"/>
<path d="M751.07 165.587C751.104 165.469 751.162 165.367 751.242 165.28C751.318 165.186 751.408 165.121 751.511 165.083C751.61 165.023 751.718 164.996 751.833 165.001C751.984 165.001 752.125 165.045 752.255 165.131C752.297 165.157 752.34 165.183 752.382 165.208C752.476 165.267 752.557 165.357 752.639 165.438C752.674 165.473 752.708 165.505 752.739 165.543C752.753 165.56 752.768 165.577 752.782 165.596C752.826 165.649 752.866 165.708 752.902 165.77C752.925 165.835 752.95 165.901 752.974 165.966C752.99 166.04 752.999 166.113 753 166.188C753.003 166.299 752.984 166.402 752.939 166.498C752.911 166.598 752.862 166.684 752.794 166.758C752.77 166.782 752.745 166.804 752.719 166.824C752.65 166.897 752.569 166.945 752.476 166.97C752.41 166.991 752.342 167.001 752.275 167C752.255 167 752.235 167 752.214 166.999C752.171 166.997 752.129 166.991 752.086 166.985C751.975 166.969 751.853 166.97 751.749 166.93C751.704 166.911 751.659 166.893 751.614 166.874C751.473 166.829 751.349 166.748 751.246 166.629C751.203 166.565 751.158 166.499 751.115 166.436C751.04 166.287 751.002 166.126 751.001 165.954C750.994 165.823 751.018 165.701 751.07 165.587Z" fill="#F8B6D4" fill-opacity="0.3"/>
<path d="M721.07 105.587C721.104 105.469 721.162 105.367 721.242 105.28C721.318 105.186 721.408 105.121 721.511 105.083C721.61 105.023 721.718 104.996 721.833 105.001C721.984 105.001 722.125 105.045 722.255 105.131C722.297 105.157 722.34 105.183 722.382 105.208C722.476 105.267 722.557 105.357 722.639 105.438C722.674 105.473 722.708 105.505 722.739 105.543C722.753 105.56 722.768 105.577 722.782 105.596C722.826 105.649 722.866 105.708 722.902 105.77C722.925 105.835 722.95 105.901 722.974 105.966C722.99 106.04 722.999 106.113 723 106.188C723.003 106.299 722.984 106.402 722.939 106.498C722.911 106.598 722.862 106.684 722.794 106.758C722.77 106.782 722.745 106.804 722.719 106.824C722.65 106.897 722.569 106.945 722.476 106.97C722.41 106.991 722.342 107.001 722.275 107C722.255 107 722.235 107 722.214 106.999C722.171 106.997 722.129 106.991 722.086 106.985C721.975 106.969 721.853 106.97 721.749 106.93C721.704 106.911 721.659 106.893 721.614 106.874C721.473 106.829 721.349 106.748 721.246 106.629C721.203 106.565 721.158 106.499 721.115 106.436C721.04 106.287 721.002 106.126 721.001 105.954C720.994 105.823 721.018 105.701 721.07 105.587Z" fill="#F8B6D4" fill-opacity="0.3"/>
<path d="M396.07 105.587C396.104 105.469 396.162 105.367 396.242 105.28C396.318 105.186 396.408 105.121 396.511 105.083C396.61 105.023 396.718 104.996 396.833 105.001C396.984 105.001 397.125 105.045 397.255 105.131C397.297 105.157 397.34 105.183 397.382 105.208C397.476 105.267 397.557 105.357 397.639 105.438C397.674 105.473 397.708 105.505 397.739 105.543C397.753 105.56 397.768 105.577 397.782 105.596C397.826 105.649 397.866 105.708 397.902 105.77C397.925 105.835 397.95 105.901 397.974 105.966C397.99 106.04 397.999 106.113 398 106.188C398.003 106.299 397.984 106.402 397.939 106.498C397.911 106.598 397.862 106.684 397.794 106.758C397.77 106.782 397.745 106.804 397.719 106.824C397.65 106.897 397.569 106.945 397.476 106.97C397.41 106.991 397.342 107.001 397.275 107C397.255 107 397.235 107 397.214 106.999C397.171 106.997 397.129 106.991 397.086 106.985C396.975 106.969 396.853 106.97 396.749 106.93C396.704 106.911 396.659 106.893 396.614 106.874C396.473 106.829 396.349 106.748 396.246 106.629C396.203 106.565 396.158 106.499 396.115 106.436C396.04 106.287 396.002 106.126 396.001 105.954C395.994 105.823 396.018 105.701 396.07 105.587Z" fill="#F8B6D4" fill-opacity="0.3"/>
<path d="M231.07 105.587C231.104 105.469 231.162 105.367 231.242 105.28C231.318 105.186 231.408 105.121 231.511 105.083C231.61 105.023 231.718 104.996 231.833 105.001C231.984 105.001 232.125 105.045 232.255 105.131C232.297 105.157 232.34 105.183 232.382 105.208C232.476 105.267 232.557 105.357 232.639 105.438C232.674 105.473 232.708 105.505 232.739 105.543C232.753 105.56 232.768 105.577 232.782 105.596C232.826 105.649 232.866 105.708 232.902 105.77C232.925 105.835 232.95 105.901 232.974 105.966C232.99 106.04 232.999 106.113 233 106.188C233.003 106.299 232.984 106.402 232.939 106.498C232.911 106.598 232.862 106.684 232.794 106.758C232.77 106.782 232.745 106.804 232.719 106.824C232.65 106.897 232.569 106.945 232.476 106.97C232.41 106.991 232.342 107.001 232.275 107C232.255 107 232.235 107 232.214 106.999C232.171 106.997 232.129 106.991 232.086 106.985C231.975 106.969 231.853 106.97 231.749 106.93C231.704 106.911 231.659 106.893 231.614 106.874C231.473 106.829 231.349 106.748 231.246 106.629C231.203 106.565 231.158 106.499 231.115 106.436C231.04 106.287 231.002 106.126 231.001 105.954C230.994 105.823 231.018 105.701 231.07 105.587Z" fill="#F8B6D4" fill-opacity="0.3"/>
<path d="M236.07 108.587C236.104 108.469 236.162 108.367 236.242 108.28C236.318 108.186 236.408 108.121 236.511 108.083C236.61 108.023 236.718 107.996 236.833 108.001C236.984 108.001 237.125 108.045 237.255 108.131C237.297 108.157 237.34 108.183 237.382 108.208C237.476 108.267 237.557 108.357 237.639 108.438C237.674 108.473 237.708 108.505 237.739 108.543C237.753 108.56 237.768 108.577 237.782 108.596C237.826 108.649 237.866 108.708 237.902 108.77C237.925 108.835 237.95 108.901 237.974 108.966C237.99 109.04 237.999 109.113 238 109.188C238.003 109.299 237.984 109.402 237.939 109.498C237.911 109.598 237.862 109.684 237.794 109.758C237.77 109.782 237.745 109.804 237.719 109.824C237.65 109.897 237.569 109.945 237.476 109.97C237.41 109.991 237.342 110.001 237.275 110C237.255 110 237.235 110 237.214 109.999C237.171 109.997 237.129 109.991 237.086 109.985C236.975 109.969 236.853 109.97 236.749 109.93C236.704 109.911 236.659 109.893 236.614 109.874C236.473 109.829 236.349 109.748 236.246 109.629C236.203 109.565 236.158 109.499 236.115 109.436C236.04 109.287 236.002 109.126 236.001 108.954C235.994 108.823 236.018 108.701 236.07 108.587Z" fill="#F8B6D4" fill-opacity="0.3"/>
<path d="M416.07 45.5871C416.104 45.4691 416.162 45.367 416.242 45.2797C416.318 45.1863 416.408 45.1211 416.511 45.083C416.61 45.0227 416.718 44.9956 416.833 45.0006C416.984 45.0006 417.125 45.0449 417.255 45.1309C417.297 45.1567 417.34 45.1826 417.382 45.2084C417.476 45.2674 417.557 45.3572 417.639 45.4383C417.674 45.4728 417.708 45.5047 417.739 45.5428C417.753 45.56 417.768 45.5773 417.782 45.5957C417.826 45.6486 417.866 45.7076 417.902 45.7703C417.925 45.8355 417.95 45.9006 417.974 45.9658C417.99 46.0396 417.999 46.1134 418 46.1884C418.003 46.299 417.984 46.4023 417.939 46.4982C417.911 46.5978 417.862 46.6839 417.794 46.7577C417.77 46.7823 417.745 46.8044 417.719 46.8241C417.65 46.8966 417.569 46.9446 417.476 46.9704C417.41 46.9913 417.342 47.0011 417.275 46.9999C417.255 46.9999 417.235 46.9999 417.214 46.9987C417.171 46.9974 417.129 46.9913 417.086 46.9852C416.975 46.9692 416.853 46.9704 416.749 46.9298C416.704 46.9114 416.659 46.8929 416.614 46.8745C416.473 46.829 416.349 46.7478 416.246 46.6286C416.203 46.5646 416.158 46.4995 416.115 46.4355C416.04 46.2868 416.002 46.1257 416.001 45.9535C415.994 45.8232 416.018 45.7015 416.07 45.5871Z" fill="#F8B6D4" fill-opacity="0.3"/>
<path d="M791.07 86.5871C791.104 86.4691 791.162 86.367 791.242 86.2797C791.318 86.1863 791.408 86.1211 791.511 86.083C791.61 86.0227 791.718 85.9956 791.833 86.0006C791.984 86.0006 792.125 86.0449 792.255 86.1309C792.297 86.1567 792.34 86.1826 792.382 86.2084C792.476 86.2674 792.557 86.3572 792.639 86.4383C792.674 86.4728 792.708 86.5047 792.739 86.5428C792.753 86.56 792.768 86.5773 792.782 86.5957C792.826 86.6486 792.866 86.7076 792.902 86.7703C792.925 86.8355 792.95 86.9006 792.974 86.9658C792.99 87.0396 792.999 87.1134 793 87.1884C793.003 87.299 792.984 87.4023 792.939 87.4982C792.911 87.5978 792.862 87.6839 792.794 87.7577C792.77 87.7823 792.745 87.8044 792.719 87.8241C792.65 87.8966 792.569 87.9446 792.476 87.9704C792.41 87.9913 792.342 88.0011 792.275 87.9999C792.255 87.9999 792.235 87.9999 792.214 87.9987C792.171 87.9974 792.129 87.9913 792.086 87.9852C791.975 87.9692 791.853 87.9704 791.749 87.9298C791.704 87.9114 791.659 87.8929 791.614 87.8745C791.473 87.829 791.349 87.7478 791.246 87.6286C791.203 87.5646 791.158 87.4995 791.115 87.4355C791.04 87.2868 791.002 87.1257 791.001 86.9535C790.994 86.8232 791.018 86.7015 791.07 86.5871Z" fill="#F8B6D4" fill-opacity="0.3"/>
<path d="M671.07 95.5871C671.104 95.4691 671.162 95.367 671.242 95.2797C671.318 95.1863 671.408 95.1211 671.511 95.083C671.61 95.0227 671.718 94.9956 671.833 95.0006C671.984 95.0006 672.125 95.0449 672.255 95.1309C672.297 95.1567 672.34 95.1826 672.382 95.2084C672.476 95.2674 672.557 95.3572 672.639 95.4383C672.674 95.4728 672.708 95.5047 672.739 95.5428C672.753 95.56 672.768 95.5773 672.782 95.5957C672.826 95.6486 672.866 95.7076 672.902 95.7703C672.925 95.8355 672.95 95.9006 672.974 95.9658C672.99 96.0396 672.999 96.1134 673 96.1884C673.003 96.299 672.984 96.4023 672.939 96.4982C672.911 96.5978 672.862 96.6839 672.794 96.7577C672.77 96.7823 672.745 96.8044 672.719 96.8241C672.65 96.8966 672.569 96.9446 672.476 96.9704C672.41 96.9913 672.342 97.0011 672.275 96.9999C672.255 96.9999 672.235 96.9999 672.214 96.9987C672.171 96.9974 672.129 96.9913 672.086 96.9852C671.975 96.9692 671.853 96.9704 671.749 96.9298C671.704 96.9114 671.659 96.8929 671.614 96.8745C671.473 96.829 671.349 96.7478 671.246 96.6286C671.203 96.5646 671.158 96.4995 671.115 96.4355C671.04 96.2868 671.002 96.1257 671.001 95.9535C670.994 95.8232 671.018 95.7015 671.07 95.5871Z" fill="#F8B6D4" fill-opacity="0.3"/>
<path d="M346.07 95.5871C346.104 95.4691 346.162 95.367 346.242 95.2797C346.318 95.1863 346.408 95.1211 346.511 95.083C346.61 95.0227 346.718 94.9956 346.833 95.0006C346.984 95.0006 347.125 95.0449 347.255 95.1309C347.297 95.1567 347.34 95.1826 347.382 95.2084C347.476 95.2674 347.557 95.3572 347.639 95.4383C347.674 95.4728 347.708 95.5047 347.739 95.5428C347.753 95.56 347.768 95.5773 347.782 95.5957C347.826 95.6486 347.866 95.7076 347.902 95.7703C347.925 95.8355 347.95 95.9006 347.974 95.9658C347.99 96.0396 347.999 96.1134 348 96.1884C348.003 96.299 347.984 96.4023 347.939 96.4982C347.911 96.5978 347.862 96.6839 347.794 96.7577C347.77 96.7823 347.745 96.8044 347.719 96.8241C347.65 96.8966 347.569 96.9446 347.476 96.9704C347.41 96.9913 347.342 97.0011 347.275 96.9999C347.255 96.9999 347.235 96.9999 347.214 96.9987C347.171 96.9974 347.129 96.9913 347.086 96.9852C346.975 96.9692 346.853 96.9704 346.749 96.9298C346.704 96.9114 346.659 96.8929 346.614 96.8745C346.473 96.829 346.349 96.7478 346.246 96.6286C346.203 96.5646 346.158 96.4995 346.115 96.4355C346.04 96.2868 346.002 96.1257 346.001 95.9535C345.994 95.8232 346.018 95.7015 346.07 95.5871Z" fill="#F8B6D4" fill-opacity="0.3"/>
<path d="M181.07 95.5871C181.104 95.4691 181.162 95.367 181.242 95.2797C181.318 95.1863 181.408 95.1211 181.511 95.083C181.61 95.0227 181.718 94.9956 181.833 95.0006C181.984 95.0006 182.125 95.0449 182.255 95.1309C182.297 95.1567 182.34 95.1826 182.382 95.2084C182.476 95.2674 182.557 95.3572 182.639 95.4383C182.674 95.4728 182.708 95.5047 182.739 95.5428C182.753 95.56 182.768 95.5773 182.782 95.5957C182.826 95.6486 182.866 95.7076 182.902 95.7703C182.925 95.8355 182.95 95.9006 182.974 95.9658C182.99 96.0396 182.999 96.1134 183 96.1884C183.003 96.299 182.984 96.4023 182.939 96.4982C182.911 96.5978 182.862 96.6839 182.794 96.7577C182.77 96.7823 182.745 96.8044 182.719 96.8241C182.65 96.8966 182.569 96.9446 182.476 96.9704C182.41 96.9913 182.342 97.0011 182.275 96.9999C182.255 96.9999 182.235 96.9999 182.214 96.9987C182.171 96.9974 182.129 96.9913 182.086 96.9852C181.975 96.9692 181.853 96.9704 181.749 96.9298C181.704 96.9114 181.659 96.8929 181.614 96.8745C181.473 96.829 181.349 96.7478 181.246 96.6286C181.203 96.5646 181.158 96.4995 181.115 96.4355C181.04 96.2868 181.002 96.1257 181.001 95.9535C180.994 95.8232 181.018 95.7015 181.07 95.5871Z" fill="#F8B6D4" fill-opacity="0.3"/>
<path d="M366.07 35.5871C366.104 35.4691 366.162 35.367 366.242 35.2797C366.318 35.1863 366.408 35.1211 366.511 35.083C366.61 35.0227 366.718 34.9956 366.833 35.0006C366.984 35.0006 367.125 35.0449 367.255 35.1309C367.297 35.1567 367.34 35.1826 367.382 35.2084C367.476 35.2674 367.557 35.3572 367.639 35.4383C367.674 35.4728 367.708 35.5047 367.739 35.5428C367.753 35.56 367.768 35.5773 367.782 35.5957C367.826 35.6486 367.866 35.7076 367.902 35.7703C367.925 35.8355 367.95 35.9006 367.974 35.9658C367.99 36.0396 367.999 36.1134 368 36.1884C368.003 36.299 367.984 36.4023 367.939 36.4982C367.911 36.5978 367.862 36.6839 367.794 36.7577C367.77 36.7823 367.745 36.8044 367.719 36.8241C367.65 36.8966 367.569 36.9446 367.476 36.9704C367.41 36.9913 367.342 37.0011 367.275 36.9999C367.255 36.9999 367.235 36.9999 367.214 36.9987C367.171 36.9974 367.129 36.9913 367.086 36.9852C366.975 36.9692 366.853 36.9704 366.749 36.9298C366.704 36.9114 366.659 36.8929 366.614 36.8745C366.473 36.829 366.349 36.7478 366.246 36.6286C366.203 36.5646 366.158 36.4995 366.115 36.4355C366.04 36.2868 366.002 36.1257 366.001 35.9535C365.994 35.8232 366.018 35.7015 366.07 35.5871Z" fill="#F8B6D4" fill-opacity="0.3"/>
<path d="M638.07 46.5871C638.104 46.4691 638.162 46.367 638.242 46.2797C638.318 46.1863 638.408 46.1211 638.511 46.083C638.61 46.0227 638.718 45.9956 638.833 46.0006C638.984 46.0006 639.125 46.0449 639.255 46.1309C639.297 46.1567 639.34 46.1826 639.382 46.2084C639.476 46.2674 639.557 46.3572 639.639 46.4383C639.674 46.4728 639.708 46.5047 639.739 46.5428C639.753 46.56 639.768 46.5773 639.782 46.5957C639.826 46.6486 639.866 46.7076 639.902 46.7703C639.925 46.8355 639.95 46.9006 639.974 46.9658C639.99 47.0396 639.999 47.1134 640 47.1884C640.003 47.299 639.984 47.4023 639.939 47.4982C639.911 47.5978 639.862 47.6839 639.794 47.7577C639.77 47.7823 639.745 47.8044 639.719 47.8241C639.65 47.8966 639.569 47.9446 639.476 47.9704C639.41 47.9913 639.342 48.0011 639.275 47.9999C639.255 47.9999 639.235 47.9999 639.214 47.9987C639.171 47.9974 639.129 47.9913 639.086 47.9852C638.975 47.9692 638.853 47.9704 638.749 47.9298C638.704 47.9114 638.659 47.8929 638.614 47.8745C638.473 47.829 638.349 47.7478 638.246 47.6286C638.203 47.5646 638.158 47.4995 638.115 47.4355C638.04 47.2868 638.002 47.1257 638.001 46.9535C637.994 46.8232 638.018 46.7015 638.07 46.5871Z" fill="#F8B6D4" fill-opacity="0.3"/>
<path d="M595.07 107.587C595.104 107.469 595.162 107.367 595.242 107.28C595.318 107.186 595.408 107.121 595.511 107.083C595.61 107.023 595.718 106.996 595.833 107.001C595.984 107.001 596.125 107.045 596.255 107.131C596.297 107.157 596.34 107.183 596.382 107.208C596.476 107.267 596.557 107.357 596.639 107.438C596.674 107.473 596.708 107.505 596.739 107.543C596.753 107.56 596.768 107.577 596.782 107.596C596.826 107.649 596.866 107.708 596.902 107.77C596.925 107.835 596.95 107.901 596.974 107.966C596.99 108.04 596.999 108.113 597 108.188C597.003 108.299 596.984 108.402 596.939 108.498C596.911 108.598 596.862 108.684 596.794 108.758C596.77 108.782 596.745 108.804 596.719 108.824C596.65 108.897 596.569 108.945 596.476 108.97C596.41 108.991 596.342 109.001 596.275 109C596.255 109 596.235 109 596.214 108.999C596.171 108.997 596.129 108.991 596.086 108.985C595.975 108.969 595.853 108.97 595.749 108.93C595.704 108.911 595.659 108.893 595.614 108.874C595.473 108.829 595.349 108.748 595.246 108.629C595.203 108.565 595.158 108.499 595.115 108.436C595.04 108.287 595.002 108.126 595.001 107.954C594.994 107.823 595.018 107.701 595.07 107.587Z" fill="#F8B6D4" fill-opacity="0.3"/>
<path d="M270.07 97.5871C270.104 97.4691 270.162 97.367 270.242 97.2797C270.318 97.1863 270.408 97.1211 270.511 97.083C270.61 97.0227 270.718 96.9956 270.833 97.0006C270.984 97.0006 271.125 97.0449 271.255 97.1309C271.297 97.1567 271.34 97.1826 271.382 97.2084C271.476 97.2674 271.557 97.3572 271.639 97.4383C271.674 97.4728 271.708 97.5047 271.739 97.5428C271.753 97.56 271.768 97.5773 271.782 97.5957C271.826 97.6486 271.866 97.7076 271.902 97.7703C271.925 97.8355 271.95 97.9006 271.974 97.9658C271.99 98.0396 271.999 98.1134 272 98.1884C272.003 98.299 271.984 98.4023 271.939 98.4982C271.911 98.5978 271.862 98.6839 271.794 98.7577C271.77 98.7823 271.745 98.8044 271.719 98.8241C271.65 98.8966 271.569 98.9446 271.476 98.9704C271.41 98.9913 271.342 99.0011 271.275 98.9999C271.255 98.9999 271.235 98.9999 271.214 98.9987C271.171 98.9974 271.129 98.9913 271.086 98.9852C270.975 98.9692 270.853 98.9704 270.749 98.9298C270.704 98.9114 270.659 98.8929 270.614 98.8745C270.473 98.829 270.349 98.7478 270.246 98.6286C270.203 98.5646 270.158 98.4995 270.115 98.4355C270.04 98.2868 270.002 98.1257 270.001 97.9535C269.994 97.8232 270.018 97.7015 270.07 97.5871Z" fill="#F8B6D4" fill-opacity="0.3"/>
<path d="M105.07 107.587C105.104 107.469 105.162 107.367 105.242 107.28C105.318 107.186 105.408 107.121 105.511 107.083C105.61 107.023 105.718 106.996 105.833 107.001C105.984 107.001 106.125 107.045 106.255 107.131C106.297 107.157 106.34 107.183 106.382 107.208C106.476 107.267 106.557 107.357 106.639 107.438C106.674 107.473 106.708 107.505 106.739 107.543C106.753 107.56 106.768 107.577 106.782 107.596C106.826 107.649 106.866 107.708 106.902 107.77C106.925 107.835 106.95 107.901 106.974 107.966C106.99 108.04 106.999 108.113 107 108.188C107.003 108.299 106.984 108.402 106.939 108.498C106.911 108.598 106.862 108.684 106.794 108.758C106.77 108.782 106.745 108.804 106.719 108.824C106.65 108.897 106.569 108.945 106.476 108.97C106.41 108.991 106.342 109.001 106.275 109C106.255 109 106.235 109 106.214 108.999C106.171 108.997 106.129 108.991 106.086 108.985C105.975 108.969 105.853 108.97 105.749 108.93C105.704 108.911 105.659 108.893 105.614 108.874C105.473 108.829 105.349 108.748 105.246 108.629C105.203 108.565 105.158 108.499 105.115 108.436C105.04 108.287 105.002 108.126 105.001 107.954C104.994 107.823 105.018 107.701 105.07 107.587Z" fill="#F8B6D4" fill-opacity="0.3"/>
<path d="M290.07 47.5871C290.104 47.4691 290.162 47.367 290.242 47.2797C290.318 47.1863 290.408 47.1211 290.511 47.083C290.61 47.0227 290.718 46.9956 290.833 47.0006C290.984 47.0006 291.125 47.0449 291.255 47.1309C291.297 47.1567 291.34 47.1826 291.382 47.2084C291.476 47.2674 291.557 47.3572 291.639 47.4383C291.674 47.4728 291.708 47.5047 291.739 47.5428C291.753 47.56 291.768 47.5773 291.782 47.5957C291.826 47.6486 291.866 47.7076 291.902 47.7703C291.925 47.8355 291.95 47.9006 291.974 47.9658C291.99 48.0396 291.999 48.1134 292 48.1884C292.003 48.299 291.984 48.4023 291.939 48.4982C291.911 48.5978 291.862 48.6839 291.794 48.7577C291.77 48.7823 291.745 48.8044 291.719 48.8241C291.65 48.8966 291.569 48.9446 291.476 48.9704C291.41 48.9913 291.342 49.0011 291.275 48.9999C291.255 48.9999 291.235 48.9999 291.214 48.9987C291.171 48.9974 291.129 48.9913 291.086 48.9852C290.975 48.9692 290.853 48.9704 290.749 48.9298C290.704 48.9114 290.659 48.8929 290.614 48.8745C290.473 48.829 290.349 48.7478 290.246 48.6286C290.203 48.5646 290.158 48.4995 290.115 48.4355C290.04 48.2868 290.002 48.1257 290.001 47.9535C289.994 47.8232 290.018 47.7015 290.07 47.5871Z" fill="#F8B6D4" fill-opacity="0.3"/>
<path d="M551.07 37.5871C551.104 37.4691 551.162 37.367 551.242 37.2797C551.318 37.1863 551.408 37.1211 551.511 37.083C551.61 37.0227 551.718 36.9956 551.833 37.0006C551.984 37.0006 552.125 37.0449 552.255 37.1309C552.297 37.1567 552.34 37.1826 552.382 37.2084C552.476 37.2674 552.557 37.3572 552.639 37.4383C552.674 37.4728 552.708 37.5047 552.739 37.5428C552.753 37.56 552.768 37.5773 552.782 37.5957C552.826 37.6486 552.866 37.7076 552.902 37.7703C552.925 37.8355 552.95 37.9006 552.974 37.9658C552.99 38.0396 552.999 38.1134 553 38.1884C553.003 38.299 552.984 38.4023 552.939 38.4982C552.911 38.5978 552.862 38.6839 552.794 38.7577C552.77 38.7823 552.745 38.8044 552.719 38.8241C552.65 38.8966 552.569 38.9446 552.476 38.9704C552.41 38.9913 552.342 39.0011 552.275 38.9999C552.255 38.9999 552.235 38.9999 552.214 38.9987C552.171 38.9974 552.129 38.9913 552.086 38.9852C551.975 38.9692 551.853 38.9704 551.749 38.9298C551.704 38.9114 551.659 38.8929 551.614 38.8745C551.473 38.829 551.349 38.7478 551.246 38.6286C551.203 38.5646 551.158 38.4995 551.115 38.4355C551.04 38.2868 551.002 38.1257 551.001 37.9535C550.994 37.8232 551.018 37.7015 551.07 37.5871Z" fill="#F8B6D4" fill-opacity="0.3"/>
<path d="M826.316 52.7726C819.594 58.079 810.373 59.9151 801.71 56.8292C792.521 53.5571 786.348 45.5994 784.917 36.6001C785.371 49.9677 793.837 62.3301 807.201 67.0897C824.665 73.3091 843.863 64.1938 850.081 46.7306C856.301 29.2673 847.186 10.0699 829.722 3.85052C816.358 -0.909155 801.984 3.32 793.182 13.3917C799.979 7.32307 809.793 5.05868 818.981 8.33082C828.839 11.8417 835.148 20.5781 835.932 30.3746" stroke="#F8B6D4" stroke-opacity="0.3" stroke-width="0.4" stroke-miterlimit="10" stroke-linecap="round" stroke-linejoin="round"/>
<path d="M835.901 30.0066C835.901 30.0066 836.85 39.2841 828.227 41.4913C828.227 41.4913 829.399 43.8981 832.406 45.8537C835.413 47.8093 835.868 45.4117 835.868 45.4117C835.868 45.4117 836.15 44.3927 835.086 44.014" stroke="#F8B6D4" stroke-opacity="0.3" stroke-width="0.4" stroke-miterlimit="10" stroke-linecap="round" stroke-linejoin="round"/>
<path d="M832.406 45.8537C832.406 45.8537 830.217 48.8426 829.095 48.5653C827.974 48.288 828.173 51.1561 828.173 51.1561C828.173 51.1561 827.425 50.783 826.839 51.3018C826.529 51.5769 826.146 52.0485 826.316 52.7718C826.316 52.7718 828.205 55.6107 835.428 54.7093" stroke="#F8B6D4" stroke-opacity="0.3" stroke-width="0.4" stroke-miterlimit="10" stroke-linecap="round" stroke-linejoin="round"/>
<path d="M837.208 37.5367C837.208 37.5367 839.031 35.5471 842.344 35.7482C845.656 35.9494 848.044 38.3162 848.044 38.3162C848.044 38.3162 843.066 39.2056 837.208 37.5367Z" fill="#F8B6D4" fill-opacity="0.3"/>
<path d="M836.846 37.0971C839.427 34.7947 842.971 33.6077 846.417 33.8929" stroke="#F8B6D4" stroke-opacity="0.3" stroke-width="0.4" stroke-miterlimit="10" stroke-linecap="round" stroke-linejoin="round"/>
<path d="M837.414 37.9485C838.194 38.5791 839.067 39.0955 839.996 39.4766" stroke="#F8B6D4" stroke-opacity="0.3" stroke-width="0.4" stroke-miterlimit="10" stroke-linecap="round" stroke-linejoin="round"/>
<path d="M836.32 44.4438C836.446 44.9944 836.371 45.5885 836.114 46.0912C835.856 46.5941 835.418 47.0017 834.897 47.2219" stroke="#F8B6D4" stroke-opacity="0.3" stroke-width="0.4" stroke-miterlimit="10" stroke-linecap="round" stroke-linejoin="round"/>
<path d="M831.96 47.3238C831.581 47.88 831.172 48.4611 830.561 48.7445" stroke="#F8B6D4" stroke-opacity="0.3" stroke-width="0.4" stroke-miterlimit="10" stroke-linecap="round" stroke-linejoin="round"/>
<path d="M836.39 54.8895C834.359 54.4838 833.393 52.5289 832.754 51.1938C832.728 51.1066 832.686 51.0242 832.634 50.9461C832.507 50.6819 832.389 50.4425 832.277 50.2576C831.767 49.4161 830.909 49.4954 830.282 49.5521C830.03 49.5752 829.793 49.5968 829.653 49.5486C829.651 49.548 829.65 49.5473 829.648 49.5474C829.222 49.3955 829.362 48.6109 829.364 48.603C829.376 48.5414 829.335 48.4797 829.272 48.4695C829.209 48.4577 829.15 48.499 829.138 48.5606C829.137 48.5676 829.13 48.6113 829.124 48.6679C829.113 48.6516 829.098 48.6371 829.075 48.6323C828.598 48.5281 828.407 49 828.274 49.3898C828.206 49.589 828.169 49.7927 828.145 49.9963C828.069 50.3349 828.095 50.7077 828.153 51.0524C828.135 51.0558 828.121 51.0582 828.107 51.069C827.446 50.9463 826.771 51.0759 826.446 51.6969C826.345 51.8904 826.317 52.0757 826.338 52.2535C826.306 52.2693 826.279 52.2979 826.273 52.3422C826.204 52.8225 826.681 53.2261 827.061 53.4239C827.232 53.5135 827.427 53.6178 827.632 53.7155C827.639 53.7498 827.655 53.7821 827.696 53.7998C827.837 53.8618 827.988 53.9479 828.14 54.0216C828.145 54.0252 828.145 54.0314 828.15 54.0341C828.533 54.2395 828.412 54.1886 828.823 54.3337C828.848 54.343 828.869 54.3357 828.888 54.3299C828.918 54.3413 828.943 54.3491 828.981 54.3639C829.031 54.3833 829.067 54.3635 829.093 54.3326C829.105 54.3327 829.118 54.3343 829.128 54.3306C829.245 54.3701 829.363 54.408 829.479 54.4521C829.483 54.4534 829.485 54.451 829.489 54.4515C830.786 54.9432 832.379 54.9667 833.659 54.9083C833.755 54.9042 833.795 54.8024 833.767 54.736C833.781 54.7353 833.794 54.7345 833.807 54.7337C833.994 54.7892 834.181 54.8069 834.377 54.7668C834.406 54.7613 834.422 54.7434 834.437 54.7255C834.583 54.751 834.726 54.782 834.87 54.823C834.931 54.8403 834.974 54.8076 834.999 54.7645C835.246 54.8428 835.498 54.9068 835.763 54.9454C835.777 54.9507 835.791 54.9576 835.806 54.9629C835.978 55.0239 836.158 55.0743 836.347 55.1127C836.41 55.1252 836.47 55.0847 836.482 55.023C836.492 54.963 836.456 54.9049 836.39 54.8895ZM829.687 52.6408C830.601 52.9426 831.88 53.4137 832.767 54.1167C831.594 54.1111 830.257 53.6527 829.324 53.2949C829.076 53.1998 828.796 53.0811 828.581 52.8929C828.555 52.8397 828.542 52.7872 828.542 52.7339C828.569 52.6837 828.604 52.6353 828.653 52.5923C828.956 52.4404 829.343 52.5274 829.687 52.6408ZM828.298 51.6267C828.291 51.6248 828.283 51.6214 828.276 51.6187C828.286 51.6212 828.295 51.623 828.304 51.6255C828.302 51.6257 828.3 51.6266 828.298 51.6267ZM833.894 54.4755C833.902 54.4843 833.911 54.49 833.919 54.498C833.913 54.4983 833.906 54.4987 833.9 54.4999C833.9 54.4914 833.896 54.4839 833.894 54.4755ZM828.912 49.0601C828.92 49.0534 828.929 49.046 828.936 49.0401C828.937 49.047 828.939 49.0539 828.94 49.0608C828.93 49.059 828.921 49.0595 828.912 49.0601ZM828.541 49.6729C828.643 49.6145 828.724 49.6028 828.794 49.6188C828.8 49.6277 828.798 49.6394 828.808 49.6473C829.105 49.9133 829.255 50.4293 829.637 50.6193C830.212 50.9061 830.442 50.4751 831.145 50.9798C831.772 51.431 832.145 52.3586 832.522 53.2056C832.119 52.952 831.702 52.6908 831.229 52.4182C829.901 51.6536 828.886 51.2706 828.444 51.1227C828.373 50.8405 828.337 50.5554 828.346 50.2671C828.369 50.065 828.435 49.8312 828.541 49.6729Z" fill="#F8B6D4" fill-opacity="0.3"/>
<path d="M836.657 54.3018C836.896 54.4508 836.996 54.7872 836.878 55.0429" stroke="#F8B6D4" stroke-opacity="0.3" stroke-width="0.4" stroke-miterlimit="10" stroke-linecap="round" stroke-linejoin="round"/>
<path d="M837.12 38.1445C837.531 38.6948 838.016 39.1898 838.559 39.6112" stroke="#F8B6D4" stroke-opacity="0.3" stroke-width="0.4" stroke-miterlimit="10" stroke-linecap="round" stroke-linejoin="round"/>
<path d="M840.756 38.5969C843.177 39.0778 845.693 39.0784 848.114 38.5976" stroke="#F8B6D4" stroke-opacity="0.3" stroke-width="0.4" stroke-miterlimit="10" stroke-linecap="round" stroke-linejoin="round"/>
<path d="M837.3 31.1374C837.572 31.7205 837.89 32.2808 838.252 32.8131C838.306 32.8941 838.369 32.98 838.462 33.0124C838.567 33.0494 838.683 33.0087 838.787 32.9671C840.572 32.2494 842.213 31.1588 844.079 30.6895C844.339 30.6241 844.607 30.5707 844.874 30.5999C845.105 30.625 845.325 30.7102 845.54 30.7964C846.969 31.366 848.372 32.0012 849.743 32.6992" stroke="#F8B6D4" stroke-opacity="0.3" stroke-width="0.4" stroke-miterlimit="10" stroke-linecap="round" stroke-linejoin="round"/>
<path d="M837.797 30.7812C837.944 31.0505 838.133 31.3497 838.436 31.393C838.626 31.4198 838.812 31.3364 838.985 31.2553C840.373 30.6024 841.77 29.9405 843.261 29.5826C843.634 29.4929 844.016 29.4228 844.397 29.4615C844.779 29.5009 845.142 29.6481 845.494 29.8019C846.989 30.4549 848.421 31.2528 849.763 32.1817" stroke="#F8B6D4" stroke-opacity="0.3" stroke-width="0.4" stroke-miterlimit="10" stroke-linecap="round" stroke-linejoin="round"/>
<path d="M831.838 40.1938C832.198 40.4463 832.493 40.7906 832.688 41.1848" stroke="#F8B6D4" stroke-opacity="0.3" stroke-width="0.4" stroke-miterlimit="10" stroke-linecap="round" stroke-linejoin="round"/>
<path d="M832.379 39.873C832.627 40.0572 832.842 40.2833 833.013 40.539" stroke="#F8B6D4" stroke-opacity="0.3" stroke-width="0.4" stroke-miterlimit="10" stroke-linecap="round" stroke-linejoin="round"/>
<path d="M832.871 39.6335C833.014 39.7187 833.139 39.8358 833.233 39.9724" stroke="#F8B6D4" stroke-opacity="0.3" stroke-width="0.4" stroke-miterlimit="10" stroke-linecap="round" stroke-linejoin="round"/>
<path d="M824.812 53.9045C826.401 53.94 827.976 54.4447 829.29 55.339" stroke="#F8B6D4" stroke-opacity="0.3" stroke-width="0.4" stroke-miterlimit="10" stroke-linecap="round" stroke-linejoin="round"/>
<path d="M837.787 33.1453C837.387 32.8205 837.053 32.4147 836.81 31.9604" stroke="#F8B6D4" stroke-opacity="0.3" stroke-width="0.4" stroke-miterlimit="10" stroke-linecap="round" stroke-linejoin="round"/>
<path d="M837.064 33.3473C836.818 33.0774 836.652 32.7364 836.589 32.3762" stroke="#F8B6D4" stroke-opacity="0.3" stroke-width="0.4" stroke-miterlimit="10" stroke-linecap="round" stroke-linejoin="round"/>
<path d="M841.303 40.4908C841.361 41.9894 841.654 43.4781 842.167 44.8868" stroke="#F8B6D4" stroke-opacity="0.3" stroke-width="0.4" stroke-miterlimit="10" stroke-linecap="round" stroke-linejoin="round"/>
<path d="M842.28 41.4573C842.377 42.9057 842.687 44.3402 843.2 45.6988" stroke="#F8B6D4" stroke-opacity="0.3" stroke-width="0.4" stroke-miterlimit="10" stroke-linecap="round" stroke-linejoin="round"/>
<path d="M843.02 41.2367C843.049 42.5656 843.347 43.8889 843.891 45.1013" stroke="#F8B6D4" stroke-opacity="0.3" stroke-width="0.4" stroke-miterlimit="10" stroke-linecap="round" stroke-linejoin="round"/>
<path d="M843.851 41.6536C843.942 42.6307 844.218 43.591 844.657 44.4684" stroke="#F8B6D4" stroke-opacity="0.3" stroke-width="0.4" stroke-miterlimit="10" stroke-linecap="round" stroke-linejoin="round"/>
<path d="M844.597 41.9265C844.79 43.0074 845.14 44.059 845.632 45.0406" stroke="#F8B6D4" stroke-opacity="0.3" stroke-width="0.4" stroke-miterlimit="10" stroke-linecap="round" stroke-linejoin="round"/>
<path d="M845.114 41.4509C845.284 42.3262 845.59 43.1752 846.016 43.9584" stroke="#F8B6D4" stroke-opacity="0.3" stroke-width="0.4" stroke-miterlimit="10" stroke-linecap="round" stroke-linejoin="round"/>
<path d="M845.798 41.9373C845.886 42.3273 846.009 42.7091 846.165 43.0775" stroke="#F8B6D4" stroke-opacity="0.3" stroke-width="0.4" stroke-miterlimit="10" stroke-linecap="round" stroke-linejoin="round"/>
<path d="M20.0644 110.009C28.0935 110.009 34.6024 103.5 34.6024 95.4711C34.6024 87.442 28.0935 80.9331 20.0644 80.9331C12.0352 80.9331 5.52637 87.442 5.52637 95.4711C5.52637 103.5 12.0352 110.009 20.0644 110.009Z" stroke="#F8B6D4" stroke-opacity="0.3" stroke-width="0.5" stroke-miterlimit="10" stroke-linecap="round" stroke-linejoin="round"/>
<path d="M6.52138 90.1811C0.921381 89.9831 -2.79262 90.4991 -2.99162 91.7261C-3.33162 93.8211 6.71538 97.1961 19.4484 99.2651C32.1824 101.333 42.7804 101.311 43.1214 99.2161C43.3204 97.9891 39.9604 96.3241 34.5854 94.7391" stroke="#F8B6D4" stroke-opacity="0.3" stroke-width="0.5" stroke-miterlimit="10" stroke-linecap="round" stroke-linejoin="round"/>
<path d="M7.83429 87.7412C2.37229 86.4912 -1.37271 86.2972 -1.79971 87.4642C-2.52871 89.4582 6.70129 94.6672 18.8163 99.0992C30.9313 103.531 41.3443 105.508 42.0733 103.514C42.5003 102.347 39.5143 100.078 34.5343 97.5082" stroke="#F8B6D4" stroke-opacity="0.3" stroke-width="0.5" stroke-miterlimit="10" stroke-linecap="round" stroke-linejoin="round"/>
<path d="M42.0025 58.701C43.5305 60.262 45.8805 60.521 47.6885 59.477C47.4885 59.807 47.2505 60.119 46.9625 60.401C45.1135 62.211 42.1475 62.18 40.3375 60.332C38.5275 58.483 38.5585 55.517 40.4065 53.707C40.6945 53.425 41.0125 53.193 41.3455 53C40.2635 54.786 40.4745 57.141 42.0025 58.701Z" stroke="#F8B6D4" stroke-opacity="0.3" stroke-width="0.5" stroke-miterlimit="10" stroke-linecap="round" stroke-linejoin="round"/>
<path d="M95.261 52.149C97.379 52.149 99.096 50.432 99.096 48.314C99.096 46.196 97.379 44.479 95.261 44.479C93.143 44.479 91.426 46.196 91.426 48.314C91.426 50.432 93.143 52.149 95.261 52.149Z" stroke="#F8B6D4" stroke-opacity="0.3" stroke-width="0.5" stroke-miterlimit="10" stroke-linecap="round" stroke-linejoin="round"/>
<path d="M93.944 43.622L93.199 41" stroke="#F8B6D4" stroke-opacity="0.3" stroke-width="0.5" stroke-miterlimit="10" stroke-linecap="round" stroke-linejoin="round"/>
<path d="M97.3241 55.5229L96.5801 52.9009" stroke="#F8B6D4" stroke-opacity="0.3" stroke-width="0.5" stroke-miterlimit="10" stroke-linecap="round" stroke-linejoin="round"/>
<path d="M90.622 49.5801L88 50.3251" stroke="#F8B6D4" stroke-opacity="0.3" stroke-width="0.5" stroke-miterlimit="10" stroke-linecap="round" stroke-linejoin="round"/>
<path d="M102.523 46.199L99.9009 46.944" stroke="#F8B6D4" stroke-opacity="0.3" stroke-width="0.5" stroke-miterlimit="10" stroke-linecap="round" stroke-linejoin="round"/>
<path d="M92.8271 44.0979L91.8201 42.3779" stroke="#F8B6D4" stroke-opacity="0.3" stroke-width="0.5" stroke-miterlimit="10" stroke-linecap="round" stroke-linejoin="round"/>
<path d="M98.553 53.8888L97.697 52.4248" stroke="#F8B6D4" stroke-opacity="0.3" stroke-width="0.5" stroke-miterlimit="10" stroke-linecap="round" stroke-linejoin="round"/>
<path d="M91.0979 50.697L89.8789 51.41" stroke="#F8B6D4" stroke-opacity="0.3" stroke-width="0.5" stroke-miterlimit="10" stroke-linecap="round" stroke-linejoin="round"/>
<path d="M100.847 44.9951L99.4248 45.8271" stroke="#F8B6D4" stroke-opacity="0.3" stroke-width="0.5" stroke-miterlimit="10" stroke-linecap="round" stroke-linejoin="round"/>
<path d="M91.8639 44.8391L89.9429 42.9041" stroke="#F8B6D4" stroke-opacity="0.3" stroke-width="0.5" stroke-miterlimit="10" stroke-linecap="round" stroke-linejoin="round"/>
<path d="M100.58 53.619L98.6589 51.6851" stroke="#F8B6D4" stroke-opacity="0.3" stroke-width="0.5" stroke-miterlimit="10" stroke-linecap="round" stroke-linejoin="round"/>
<path d="M91.8391 51.6592L89.9041 53.5802" stroke="#F8B6D4" stroke-opacity="0.3" stroke-width="0.5" stroke-miterlimit="10" stroke-linecap="round" stroke-linejoin="round"/>
<path d="M100.619 42.9441L98.6851 44.8641" stroke="#F8B6D4" stroke-opacity="0.3" stroke-width="0.5" stroke-miterlimit="10" stroke-linecap="round" stroke-linejoin="round"/>
<path d="M91.117 45.796L89.342 44.74" stroke="#F8B6D4" stroke-opacity="0.3" stroke-width="0.5" stroke-miterlimit="10" stroke-linecap="round" stroke-linejoin="round"/>
<path d="M100.672 51.48L99.406 50.7271" stroke="#F8B6D4" stroke-opacity="0.3" stroke-width="0.5" stroke-miterlimit="10" stroke-linecap="round" stroke-linejoin="round"/>
<path d="M92.796 52.407L91.886 53.935" stroke="#F8B6D4" stroke-opacity="0.3" stroke-width="0.5" stroke-miterlimit="10" stroke-linecap="round" stroke-linejoin="round"/>
<path d="M98.4971 42.822L97.7271 44.117" stroke="#F8B6D4" stroke-opacity="0.3" stroke-width="0.5" stroke-miterlimit="10" stroke-linecap="round" stroke-linejoin="round"/>
<path d="M90.6319 46.909L88.0149 46.145" stroke="#F8B6D4" stroke-opacity="0.3" stroke-width="0.5" stroke-miterlimit="10" stroke-linecap="round" stroke-linejoin="round"/>
<path d="M102.508 50.378L99.8909 49.614" stroke="#F8B6D4" stroke-opacity="0.3" stroke-width="0.5" stroke-miterlimit="10" stroke-linecap="round" stroke-linejoin="round"/>
<path d="M93.909 52.8909L93.145 55.5079" stroke="#F8B6D4" stroke-opacity="0.3" stroke-width="0.5" stroke-miterlimit="10" stroke-linecap="round" stroke-linejoin="round"/>
<path d="M97.378 41.0149L96.614 43.6319" stroke="#F8B6D4" stroke-opacity="0.3" stroke-width="0.5" stroke-miterlimit="10" stroke-linecap="round" stroke-linejoin="round"/>
<path d="M90.441 48.1081L88.885 48.0591" stroke="#F8B6D4" stroke-opacity="0.3" stroke-width="0.5" stroke-miterlimit="10" stroke-linecap="round" stroke-linejoin="round"/>
<path d="M101.563 48.462L100.082 48.415" stroke="#F8B6D4" stroke-opacity="0.3" stroke-width="0.5" stroke-miterlimit="10" stroke-linecap="round" stroke-linejoin="round"/>
<path d="M95.1081 53.082L95.0491 54.624" stroke="#F8B6D4" stroke-opacity="0.3" stroke-width="0.5" stroke-miterlimit="10" stroke-linecap="round" stroke-linejoin="round"/>
<path d="M95.483 41.6951L95.415 43.4411" stroke="#F8B6D4" stroke-opacity="0.3" stroke-width="0.5" stroke-miterlimit="10" stroke-linecap="round" stroke-linejoin="round"/>
<path d="M1359.16 78.4032C1359.19 78.2052 1359.1 77.9982 1358.87 77.9592C1358.16 77.8432 1357.41 77.9342 1356.7 77.8772C1356 77.8222 1355.32 77.7122 1354.64 77.5562C1353.25 77.2372 1351.92 76.7272 1350.68 76.0302C1348.35 74.7152 1346.42 72.7493 1345.12 70.4113C1344.4 69.1053 1343.81 67.6572 1343.47 66.2022C1343.42 66.0272 1343.29 65.9752 1343.16 66.0042C1342.97 65.8032 1342.62 65.9392 1342.6 66.2272C1342.56 66.9022 1342.78 67.6063 1342.87 68.2733C1342.97 68.9463 1343.03 69.6242 1343.06 70.3032C1343.13 71.6682 1343.07 73.0432 1342.87 74.3962C1342.48 77.1302 1341.58 79.7902 1340.23 82.2002C1339.86 82.8702 1339.44 83.5212 1339 84.1472C1338.55 84.7842 1338.05 85.3872 1337.6 86.0312C1337.4 86.3322 1337.77 86.6142 1338.05 86.4962C1338.07 86.5072 1338.1 86.5162 1338.13 86.5192C1338.15 86.5212 1338.17 86.5182 1338.19 86.5192C1339.2 86.8652 1340.21 87.1752 1341.2 87.5802C1342.2 87.9962 1343.18 88.4952 1344.11 89.0592C1346 90.1992 1347.72 91.5902 1349.2 93.2272C1349.61 93.6752 1350 94.1382 1350.36 94.6202C1350.55 94.8642 1350.73 95.1122 1350.9 95.3632C1351.09 95.6302 1351.25 95.9313 1351.49 96.1483C1351.74 96.3663 1352.14 96.2292 1352.19 95.9362C1352.23 95.9052 1352.26 95.8612 1352.27 95.8042C1352.39 95.2072 1352.25 94.5592 1352.22 93.9532C1352.2 93.3412 1352.21 92.7292 1352.24 92.1172C1352.32 90.8822 1352.54 89.6593 1352.87 88.4673C1353.53 86.1053 1354.67 83.8592 1356.23 81.9562C1356.66 81.4212 1357.13 80.9122 1357.63 80.4322C1358.14 79.9392 1358.7 79.5143 1359.23 79.0493C1359.46 78.8553 1359.36 78.5472 1359.16 78.4032ZM1340.77 83.0242C1341.49 81.8092 1342.09 80.5252 1342.58 79.1982C1343.36 77.0522 1343.82 74.7792 1343.94 72.4942C1344.06 72.7752 1344.18 73.0542 1344.31 73.3302C1344.4 73.6512 1344.47 73.9762 1344.52 74.3032C1344.72 75.5392 1344.71 76.8282 1344.48 78.0592C1344.04 80.3622 1342.83 82.4202 1341.11 83.9992C1340.64 84.4242 1340.15 84.8072 1339.62 85.1442C1339.45 85.2522 1339.27 85.3523 1339.1 85.4543C1339.73 84.7013 1340.27 83.8522 1340.77 83.0242ZM1345.45 75.4502C1345.92 76.2082 1346.44 76.9332 1347.05 77.6112C1348.54 79.2822 1350.49 80.5722 1352.69 81.0482C1352.26 81.6782 1351.96 82.4622 1351.68 83.1492C1351.33 84.0142 1351.05 84.9122 1350.82 85.8202C1350.51 87.1272 1350.31 88.4712 1350.26 89.8192C1349.93 89.2232 1349.56 88.6562 1349.14 88.1222C1348.03 86.7002 1346.6 85.5172 1344.98 84.7192C1344.14 84.3042 1343.28 84.0132 1342.36 83.8732C1342.85 83.3522 1343.29 82.7852 1343.68 82.1842C1344.96 80.1922 1345.57 77.8092 1345.45 75.4502ZM1350.17 92.9372C1349.42 92.0732 1348.6 91.2702 1347.73 90.5342C1345.96 89.0472 1343.99 87.8482 1341.86 86.9592C1341.07 86.6302 1340.26 86.3352 1339.43 86.1262C1339.56 86.0552 1339.68 85.9832 1339.79 85.9162C1340.32 85.6062 1340.83 85.2512 1341.3 84.8622C1341.52 84.6852 1341.73 84.4992 1341.93 84.3052C1341.96 84.3232 1341.98 84.3382 1342.01 84.3472C1343.63 84.8502 1345.18 85.5482 1346.52 86.6142C1347.84 87.6732 1348.93 89.0093 1349.69 90.5233C1349.92 90.9743 1350.1 91.4502 1350.28 91.9232C1350.3 92.2462 1350.33 92.5682 1350.37 92.8892C1350.38 93.0012 1350.4 93.1132 1350.41 93.2242C1350.33 93.1292 1350.25 93.0312 1350.17 92.9372ZM1353.69 84.2152C1352.46 86.4912 1351.7 89.0202 1351.48 91.6002C1351.42 92.3202 1351.41 93.0432 1351.44 93.7642C1351.45 94.0212 1351.46 94.2992 1351.48 94.5793C1351.4 94.4743 1351.32 94.3712 1351.24 94.2722L1351.24 94.2682C1351.27 93.8752 1351.23 93.4902 1351.18 93.1022C1351.19 93.0802 1351.2 93.0552 1351.2 93.0292C1351.24 92.5912 1351.17 92.1462 1351.05 91.7122C1351.04 91.4232 1351.03 91.1342 1351.03 90.8442C1351.02 89.7102 1351.1 88.5752 1351.29 87.4552C1351.47 86.3372 1351.75 85.2342 1352.13 84.1642C1352.32 83.6182 1352.52 83.0772 1352.76 82.5482C1352.96 82.0912 1353.22 81.6442 1353.39 81.1732C1354.16 81.2802 1354.99 81.3002 1355.77 81.1622C1354.98 82.1082 1354.28 83.1302 1353.69 84.2152ZM1356.78 80.0382C1356.72 80.0312 1356.66 80.0342 1356.6 80.0502C1356.08 80.1792 1355.57 80.3192 1355.04 80.3592C1354.51 80.3982 1353.97 80.3842 1353.45 80.3112C1352.39 80.1622 1351.36 79.7952 1350.42 79.2802C1348.43 78.1852 1346.94 76.4362 1345.75 74.5242C1345.57 74.2202 1345.38 73.9112 1345.21 73.6002C1345.13 73.2142 1345.03 72.8322 1344.9 72.4552C1344.71 71.8422 1344.48 71.0262 1343.96 70.5972C1343.95 70.3552 1343.94 70.1122 1343.93 69.8702C1344 70.0312 1344.07 70.1912 1344.15 70.3492C1344.76 71.6072 1345.57 72.7792 1346.5 73.8222C1348.44 75.9872 1351.03 77.5502 1353.83 78.3142C1354.65 78.5382 1355.49 78.6902 1356.33 78.7792C1356.75 78.8232 1357.17 78.8502 1357.59 78.8592C1357.75 78.8622 1357.9 78.8652 1358.05 78.8652C1357.6 79.2212 1357.18 79.6222 1356.78 80.0382Z" fill="#F8B6D4" fill-opacity="0.3"/>
<path d="M1346.89 35.6571C1346.75 35.6971 1346.6 35.7391 1346.46 35.7821C1346.43 35.7751 1346.41 35.7711 1346.39 35.7741C1346.27 35.6991 1346.12 35.6501 1345.99 35.5881C1345.7 35.4471 1345.42 35.2931 1345.15 35.1071C1344.91 34.9331 1344.68 34.7271 1344.5 34.4881C1344.41 34.3701 1344.33 34.2421 1344.26 34.1081C1344.2 33.9711 1344.15 33.8201 1344.08 33.6881C1344.06 33.6621 1344.04 33.6471 1344.02 33.6381C1343.99 33.5631 1343.96 33.4901 1343.9 33.4301C1343.84 33.3601 1343.71 33.4111 1343.71 33.5041C1343.71 33.6261 1343.76 33.7411 1343.8 33.8551C1343.79 33.9671 1343.83 34.0931 1343.85 34.1971C1343.86 34.3321 1343.87 34.4691 1343.88 34.6051C1343.88 34.8871 1343.87 35.1711 1343.82 35.4491C1343.77 35.7221 1343.71 35.9921 1343.61 36.2531C1343.57 36.3901 1343.51 36.5261 1343.46 36.6581C1343.41 36.7541 1343.36 36.8511 1343.34 36.9551C1343.16 37.0451 1342.99 37.1411 1342.82 37.2451C1342.72 37.3081 1342.78 37.4921 1342.9 37.4501C1343.08 37.3891 1343.26 37.3241 1343.43 37.2571C1343.43 37.2581 1343.44 37.2591 1343.44 37.2601C1343.68 37.3281 1343.92 37.3751 1344.15 37.4671C1344.38 37.5601 1344.61 37.6831 1344.81 37.8311C1345.2 38.1121 1345.51 38.4931 1345.71 38.9261C1345.75 39.0341 1345.79 39.1421 1345.83 39.2501C1345.86 39.3341 1345.94 39.3931 1346.03 39.3701C1346.11 39.3511 1346.18 39.2531 1346.15 39.1691C1346.12 39.0861 1346.09 39.0021 1346.06 38.9191C1346.06 38.8971 1346.06 38.8741 1346.05 38.8501C1346.04 38.8281 1346.04 38.8051 1346.03 38.7821C1346.04 38.7721 1346.04 38.7621 1346.05 38.7501C1346.08 38.7081 1346.09 38.6521 1346.08 38.6021C1346.06 38.5541 1346.04 38.5071 1346.02 38.4601C1346.01 38.3431 1346 38.2271 1345.99 38.1101C1345.98 37.8371 1345.98 37.5631 1346.01 37.2911C1346.04 37.0671 1346.09 36.8461 1346.17 36.6361C1346.24 36.4631 1346.34 36.3171 1346.44 36.1731C1346.62 36.1201 1346.8 36.0681 1346.98 36.0181C1347.22 35.9551 1347.13 35.5941 1346.89 35.6571Z" fill="#F8B6D4" fill-opacity="0.3"/>
<path d="M1346.89 155.657C1346.75 155.697 1346.6 155.739 1346.46 155.782C1346.43 155.775 1346.41 155.771 1346.39 155.774C1346.27 155.699 1346.12 155.65 1345.99 155.588C1345.7 155.447 1345.42 155.293 1345.15 155.107C1344.91 154.933 1344.68 154.727 1344.5 154.488C1344.41 154.37 1344.33 154.242 1344.26 154.108C1344.2 153.971 1344.15 153.82 1344.08 153.688C1344.06 153.662 1344.04 153.647 1344.02 153.638C1343.99 153.563 1343.96 153.49 1343.9 153.43C1343.84 153.36 1343.71 153.411 1343.71 153.504C1343.71 153.626 1343.76 153.741 1343.8 153.855C1343.79 153.967 1343.83 154.093 1343.85 154.197C1343.86 154.332 1343.87 154.469 1343.88 154.605C1343.88 154.887 1343.87 155.171 1343.82 155.449C1343.77 155.722 1343.71 155.992 1343.61 156.253C1343.57 156.39 1343.51 156.526 1343.46 156.658C1343.41 156.754 1343.36 156.851 1343.34 156.955C1343.16 157.045 1342.99 157.141 1342.82 157.245C1342.72 157.308 1342.78 157.492 1342.9 157.45C1343.08 157.389 1343.26 157.324 1343.43 157.257C1343.43 157.258 1343.44 157.259 1343.44 157.26C1343.68 157.328 1343.92 157.375 1344.15 157.467C1344.38 157.56 1344.61 157.683 1344.81 157.831C1345.2 158.112 1345.51 158.493 1345.71 158.926C1345.75 159.034 1345.79 159.142 1345.83 159.25C1345.86 159.334 1345.94 159.393 1346.03 159.37C1346.11 159.351 1346.18 159.253 1346.15 159.169C1346.12 159.086 1346.09 159.002 1346.06 158.919C1346.06 158.897 1346.06 158.874 1346.05 158.85C1346.04 158.828 1346.04 158.805 1346.03 158.782C1346.04 158.772 1346.04 158.762 1346.05 158.75C1346.08 158.708 1346.09 158.652 1346.08 158.602C1346.06 158.554 1346.04 158.507 1346.02 158.46C1346.01 158.343 1346 158.227 1345.99 158.11C1345.98 157.837 1345.98 157.563 1346.01 157.291C1346.04 157.067 1346.09 156.846 1346.17 156.636C1346.24 156.463 1346.34 156.317 1346.44 156.173C1346.62 156.12 1346.8 156.068 1346.98 156.018C1347.22 155.955 1347.13 155.594 1346.89 155.657Z" fill="#F8B6D4" fill-opacity="0.3"/>
<path d="M1289.16 112.322C1289.33 112.094 1289.49 111.863 1289.65 111.632C1289.68 111.618 1289.72 111.598 1289.75 111.566C1290.01 111.53 1290.28 111.427 1290.54 111.367C1291.12 111.231 1291.71 111.121 1292.3 111.08C1292.86 111.042 1293.42 111.072 1293.96 111.201C1294.23 111.265 1294.49 111.357 1294.74 111.473C1295 111.592 1295.24 111.755 1295.5 111.857C1295.55 111.877 1295.6 111.876 1295.64 111.864C1295.77 111.934 1295.91 111.998 1296.06 112.02C1296.23 112.045 1296.35 111.829 1296.24 111.694C1296.1 111.517 1295.9 111.411 1295.71 111.293C1295.58 111.126 1295.38 110.991 1295.24 110.857C1295.06 110.683 1294.88 110.498 1294.72 110.307C1294.38 109.912 1294.07 109.485 1293.81 109.032C1293.56 108.588 1293.34 108.119 1293.17 107.638C1293.08 107.386 1292.99 107.131 1292.92 106.872C1292.87 106.684 1292.83 106.485 1292.74 106.312C1292.89 105.975 1293.03 105.634 1293.15 105.286C1293.22 105.077 1292.92 104.882 1292.8 105.088C1292.61 105.384 1292.43 105.684 1292.26 105.987C1292.25 105.989 1292.25 105.988 1292.25 105.99C1291.83 106.171 1291.42 106.386 1290.98 106.524C1290.54 106.664 1290.08 106.747 1289.61 106.773C1288.73 106.823 1287.84 106.637 1287.04 106.253C1286.86 106.146 1286.67 106.039 1286.49 105.932C1286.34 105.848 1286.17 105.851 1286.06 105.994C1285.97 106.114 1285.98 106.341 1286.12 106.423C1286.26 106.505 1286.41 106.587 1286.55 106.669C1286.57 106.704 1286.6 106.735 1286.64 106.76C1286.67 106.783 1286.71 106.808 1286.75 106.832C1286.75 106.854 1286.75 106.876 1286.76 106.897C1286.77 106.993 1286.81 107.093 1286.89 107.144C1286.97 107.193 1287.05 107.238 1287.14 107.281C1287.28 107.44 1287.44 107.593 1287.58 107.752C1287.93 108.125 1288.24 108.519 1288.52 108.946C1288.74 109.297 1288.93 109.676 1289.05 110.073C1289.16 110.4 1289.19 110.723 1289.2 111.056C1289.01 111.342 1288.81 111.626 1288.61 111.908C1288.35 112.27 1288.9 112.684 1289.16 112.322Z" fill="#F8B6D4" fill-opacity="0.3"/>
<path d="M1361.28 27.2421C1361.24 27.1461 1361.19 27.0631 1361.12 26.9921C1361.05 26.9161 1360.96 26.8631 1360.87 26.8321C1360.77 26.7831 1360.67 26.7611 1360.57 26.7651C1360.43 26.7651 1360.3 26.8011 1360.17 26.8711C1360.14 26.8921 1360.1 26.9131 1360.06 26.9341C1359.97 26.9821 1359.89 27.0551 1359.82 27.1211C1359.79 27.1491 1359.75 27.1751 1359.72 27.2061C1359.71 27.2201 1359.7 27.2341 1359.68 27.2491C1359.64 27.2921 1359.61 27.3401 1359.57 27.3911C1359.55 27.4441 1359.53 27.4971 1359.51 27.5501C1359.49 27.6101 1359.48 27.6701 1359.48 27.7311C1359.48 27.8211 1359.5 27.9051 1359.54 27.9831C1359.56 28.0641 1359.61 28.1341 1359.67 28.1941C1359.7 28.2141 1359.72 28.2321 1359.74 28.2481C1359.81 28.3071 1359.88 28.3461 1359.97 28.3671C1360.03 28.3841 1360.09 28.3921 1360.16 28.3911C1360.17 28.3911 1360.19 28.3911 1360.21 28.3901C1360.25 28.3891 1360.29 28.3841 1360.33 28.3791C1360.43 28.3661 1360.55 28.3671 1360.64 28.3341C1360.69 28.3191 1360.73 28.3041 1360.77 28.2891C1360.9 28.2521 1361.02 28.1861 1361.11 28.0891C1361.15 28.0371 1361.19 27.9841 1361.23 27.9321C1361.3 27.8111 1361.34 27.6801 1361.34 27.5401C1361.35 27.4341 1361.32 27.3351 1361.28 27.2421Z" fill="#F8B6D4" fill-opacity="0.3"/>
<path d="M1361.28 147.242C1361.24 147.146 1361.19 147.063 1361.12 146.992C1361.05 146.916 1360.96 146.863 1360.87 146.832C1360.77 146.783 1360.67 146.761 1360.57 146.765C1360.43 146.765 1360.3 146.801 1360.17 146.871C1360.14 146.892 1360.1 146.913 1360.06 146.934C1359.97 146.982 1359.89 147.055 1359.82 147.121C1359.79 147.149 1359.75 147.175 1359.72 147.206C1359.71 147.22 1359.7 147.234 1359.68 147.249C1359.64 147.292 1359.61 147.34 1359.57 147.391C1359.55 147.444 1359.53 147.497 1359.51 147.55C1359.49 147.61 1359.48 147.67 1359.48 147.731C1359.48 147.821 1359.5 147.905 1359.54 147.983C1359.56 148.064 1359.61 148.134 1359.67 148.194C1359.7 148.214 1359.72 148.232 1359.74 148.248C1359.81 148.307 1359.88 148.346 1359.97 148.367C1360.03 148.384 1360.09 148.392 1360.16 148.391C1360.17 148.391 1360.19 148.391 1360.21 148.39C1360.25 148.389 1360.29 148.384 1360.33 148.379C1360.43 148.366 1360.55 148.367 1360.64 148.334C1360.69 148.319 1360.73 148.304 1360.77 148.289C1360.9 148.252 1361.02 148.186 1361.11 148.089C1361.15 148.037 1361.19 147.984 1361.23 147.932C1361.3 147.811 1361.34 147.68 1361.34 147.54C1361.35 147.434 1361.32 147.335 1361.28 147.242Z" fill="#F8B6D4" fill-opacity="0.3"/>
<path d="M1271.28 47.2421C1271.24 47.1461 1271.19 47.0631 1271.12 46.9921C1271.05 46.9161 1270.96 46.8631 1270.87 46.8321C1270.77 46.7831 1270.67 46.7611 1270.57 46.7651C1270.43 46.7651 1270.3 46.8011 1270.17 46.8711C1270.14 46.8921 1270.1 46.9131 1270.06 46.9341C1269.97 46.9821 1269.89 47.0551 1269.82 47.1211C1269.79 47.1491 1269.75 47.1751 1269.72 47.2061C1269.71 47.2201 1269.7 47.2341 1269.68 47.2491C1269.64 47.2921 1269.61 47.3401 1269.57 47.3911C1269.55 47.4441 1269.53 47.4971 1269.51 47.5501C1269.49 47.6101 1269.48 47.6701 1269.48 47.7311C1269.48 47.8211 1269.5 47.9051 1269.54 47.9831C1269.56 48.0641 1269.61 48.1341 1269.67 48.1941C1269.7 48.2141 1269.72 48.2321 1269.74 48.2481C1269.81 48.3071 1269.88 48.3461 1269.97 48.3671C1270.03 48.3841 1270.09 48.3921 1270.16 48.3911C1270.17 48.3911 1270.19 48.3911 1270.21 48.3901C1270.25 48.3891 1270.29 48.3841 1270.33 48.3791C1270.43 48.3661 1270.55 48.3671 1270.64 48.3341C1270.69 48.3191 1270.73 48.3041 1270.77 48.2891C1270.9 48.2521 1271.02 48.1861 1271.11 48.0891C1271.15 48.0371 1271.19 47.9841 1271.23 47.9321C1271.3 47.8111 1271.34 47.6801 1271.34 47.5401C1271.35 47.4341 1271.32 47.3351 1271.28 47.2421Z" fill="#F8B6D4" fill-opacity="0.3"/>
<path d="M1391.28 67.2421C1391.24 67.1461 1391.19 67.0631 1391.12 66.9921C1391.05 66.9161 1390.96 66.8631 1390.87 66.8321C1390.77 66.7831 1390.67 66.7611 1390.57 66.7651C1390.43 66.7651 1390.3 66.8011 1390.17 66.8711C1390.14 66.8921 1390.1 66.9131 1390.06 66.9341C1389.97 66.9821 1389.89 67.0551 1389.82 67.1211C1389.79 67.1491 1389.75 67.1751 1389.72 67.2061C1389.71 67.2201 1389.7 67.2341 1389.68 67.2491C1389.64 67.2921 1389.61 67.3401 1389.57 67.3911C1389.55 67.4441 1389.53 67.4971 1389.51 67.5501C1389.49 67.6101 1389.48 67.6701 1389.48 67.7311C1389.48 67.8211 1389.5 67.9051 1389.54 67.9831C1389.56 68.0641 1389.61 68.1341 1389.67 68.1941C1389.7 68.2141 1389.72 68.2321 1389.74 68.2481C1389.81 68.3071 1389.88 68.3461 1389.97 68.3671C1390.03 68.3841 1390.09 68.3921 1390.16 68.3911C1390.17 68.3911 1390.19 68.3911 1390.21 68.3901C1390.25 68.3891 1390.29 68.3841 1390.33 68.3791C1390.43 68.3661 1390.55 68.3671 1390.64 68.3341C1390.69 68.3191 1390.73 68.3041 1390.77 68.2891C1390.9 68.2521 1391.02 68.1861 1391.11 68.0891C1391.15 68.0371 1391.19 67.9841 1391.23 67.9321C1391.3 67.8111 1391.34 67.6801 1391.34 67.5401C1391.35 67.4341 1391.32 67.3351 1391.28 67.2421Z" fill="#F8B6D4" fill-opacity="0.3"/>
<path d="M1421.28 107.242C1421.24 107.146 1421.19 107.063 1421.12 106.992C1421.05 106.916 1420.96 106.863 1420.87 106.832C1420.77 106.783 1420.67 106.761 1420.57 106.765C1420.43 106.765 1420.3 106.801 1420.17 106.871C1420.14 106.892 1420.1 106.913 1420.06 106.934C1419.97 106.982 1419.89 107.055 1419.82 107.121C1419.79 107.149 1419.75 107.175 1419.72 107.206C1419.71 107.22 1419.7 107.234 1419.68 107.249C1419.64 107.292 1419.61 107.34 1419.57 107.391C1419.55 107.444 1419.53 107.497 1419.51 107.55C1419.49 107.61 1419.48 107.67 1419.48 107.731C1419.48 107.821 1419.5 107.905 1419.54 107.983C1419.56 108.064 1419.61 108.134 1419.67 108.194C1419.7 108.214 1419.72 108.232 1419.74 108.248C1419.81 108.307 1419.88 108.346 1419.97 108.367C1420.03 108.384 1420.09 108.392 1420.16 108.391C1420.17 108.391 1420.19 108.391 1420.21 108.39C1420.25 108.389 1420.29 108.384 1420.33 108.379C1420.43 108.366 1420.55 108.367 1420.64 108.334C1420.69 108.319 1420.73 108.304 1420.77 108.289C1420.9 108.252 1421.02 108.186 1421.11 108.089C1421.15 108.037 1421.19 107.984 1421.23 107.932C1421.3 107.811 1421.34 107.68 1421.34 107.54C1421.35 107.434 1421.32 107.335 1421.28 107.242Z" fill="#F8B6D4" fill-opacity="0.3"/>
<path d="M1356.78 3.39932C1356.75 3.31832 1356.7 3.24932 1356.64 3.19032C1356.58 3.12732 1356.51 3.08232 1356.43 3.05632C1356.35 3.01532 1356.27 2.99732 1356.18 3.00032C1356.12 3.00832 1356.07 3.01632 1356.01 3.02332C1355.9 3.05432 1355.8 3.11032 1355.72 3.19032L1355.62 3.32231C1355.56 3.42431 1355.53 3.53331 1355.53 3.65031C1355.53 3.68731 1355.54 3.72432 1355.54 3.76132C1355.54 3.77932 1355.54 3.79831 1355.54 3.81631C1355.55 3.82432 1355.55 3.83332 1355.55 3.84132C1355.55 3.84632 1355.55 3.85132 1355.55 3.85632C1355.56 3.91232 1355.56 3.96832 1355.57 4.02432C1355.59 4.07832 1355.61 4.12932 1355.64 4.17932C1355.69 4.27332 1355.77 4.34932 1355.86 4.40532C1355.96 4.46232 1356.07 4.49032 1356.18 4.49132C1356.29 4.49132 1356.4 4.46232 1356.5 4.40532C1356.59 4.34932 1356.67 4.27432 1356.72 4.17932C1356.74 4.15432 1356.75 4.12731 1356.76 4.10031C1356.8 4.02531 1356.81 3.94432 1356.81 3.85732C1356.81 3.85332 1356.81 3.84932 1356.81 3.84532C1356.81 3.83632 1356.81 3.82732 1356.81 3.81732L1356.82 3.76231C1356.82 3.72531 1356.83 3.68832 1356.83 3.65132C1356.83 3.56032 1356.82 3.47732 1356.78 3.39932Z" fill="#F8B6D4" fill-opacity="0.3"/>
<path d="M1175 49.8126C1174.79 49.507 1174.59 49.1974 1174.39 48.8878C1174.34 48.8691 1174.3 48.8423 1174.26 48.7994C1173.93 48.7512 1173.58 48.6131 1173.26 48.5327C1172.53 48.3504 1171.78 48.203 1171.03 48.1481C1170.33 48.0971 1169.62 48.1373 1168.93 48.3102C1168.59 48.396 1168.26 48.5193 1167.95 48.6747C1167.62 48.8342 1167.32 49.0527 1166.99 49.1894C1166.92 49.2162 1166.87 49.2149 1166.81 49.1988C1166.64 49.2926 1166.47 49.3784 1166.28 49.4079C1166.06 49.4414 1165.92 49.1519 1166.05 48.971C1166.23 48.7337 1166.49 48.5917 1166.73 48.4335C1166.88 48.2097 1167.14 48.0288 1167.32 47.8492C1167.55 47.616 1167.77 47.368 1167.98 47.1121C1168.41 46.5827 1168.79 46.0104 1169.12 45.4033C1169.44 44.8082 1169.72 44.1796 1169.94 43.535C1170.05 43.1972 1170.16 42.8555 1170.25 42.5084C1170.31 42.2564 1170.36 41.9897 1170.47 41.7578C1170.28 41.3062 1170.11 40.8491 1169.96 40.3827C1169.87 40.1026 1170.25 39.8413 1170.41 40.1174C1170.64 40.5141 1170.87 40.9161 1171.09 41.3222C1171.09 41.3249 1171.1 41.3236 1171.1 41.3262C1171.63 41.5688 1172.15 41.857 1172.7 42.042C1173.26 42.2296 1173.85 42.3408 1174.43 42.3757C1175.55 42.4427 1176.68 42.1934 1177.68 41.6787C1177.92 41.5353 1178.15 41.3919 1178.38 41.2485C1178.57 41.1359 1178.79 41.1399 1178.93 41.3316C1179.04 41.4924 1179.03 41.7967 1178.85 41.9066C1178.67 42.0165 1178.49 42.1264 1178.3 42.2363C1178.28 42.2832 1178.24 42.3247 1178.19 42.3582C1178.15 42.3891 1178.1 42.4226 1178.05 42.4547C1178.05 42.4842 1178.05 42.5137 1178.04 42.5418C1178.03 42.6705 1177.98 42.8045 1177.87 42.8729C1177.77 42.9386 1177.67 42.9989 1177.56 43.0565C1177.38 43.2696 1177.18 43.4747 1177 43.6878C1176.56 44.1877 1176.16 44.7157 1175.82 45.288C1175.53 45.7584 1175.3 46.2664 1175.14 46.7984C1175.01 47.2367 1174.97 47.6696 1174.95 48.1159C1175.2 48.4992 1175.45 48.8798 1175.7 49.2577C1176.02 49.7429 1175.33 50.2978 1175 49.8126Z" fill="#F8B6D4" fill-opacity="0.3"/>
<path d="M1175 169.813C1174.79 169.507 1174.59 169.197 1174.39 168.888C1174.34 168.869 1174.3 168.842 1174.26 168.799C1173.93 168.751 1173.58 168.613 1173.26 168.533C1172.53 168.35 1171.78 168.203 1171.03 168.148C1170.33 168.097 1169.62 168.137 1168.93 168.31C1168.59 168.396 1168.26 168.519 1167.95 168.675C1167.62 168.834 1167.32 169.053 1166.99 169.189C1166.92 169.216 1166.87 169.215 1166.81 169.199C1166.64 169.293 1166.47 169.378 1166.28 169.408C1166.06 169.441 1165.92 169.152 1166.05 168.971C1166.23 168.734 1166.49 168.592 1166.73 168.434C1166.88 168.21 1167.14 168.029 1167.32 167.849C1167.55 167.616 1167.77 167.368 1167.98 167.112C1168.41 166.583 1168.79 166.01 1169.12 165.403C1169.44 164.808 1169.72 164.18 1169.94 163.535C1170.05 163.197 1170.16 162.855 1170.25 162.508C1170.31 162.256 1170.36 161.99 1170.47 161.758C1170.28 161.306 1170.11 160.849 1169.96 160.383C1169.87 160.103 1170.25 159.841 1170.41 160.117C1170.64 160.514 1170.87 160.916 1171.09 161.322C1171.09 161.325 1171.1 161.324 1171.1 161.326C1171.63 161.569 1172.15 161.857 1172.7 162.042C1173.26 162.23 1173.85 162.341 1174.43 162.376C1175.55 162.443 1176.68 162.193 1177.68 161.679C1177.92 161.535 1178.15 161.392 1178.38 161.249C1178.57 161.136 1178.79 161.14 1178.93 161.332C1179.04 161.492 1179.03 161.797 1178.85 161.907C1178.67 162.016 1178.49 162.126 1178.3 162.236C1178.28 162.283 1178.24 162.325 1178.19 162.358C1178.15 162.389 1178.1 162.423 1178.05 162.455C1178.05 162.484 1178.05 162.514 1178.04 162.542C1178.03 162.671 1177.98 162.805 1177.87 162.873C1177.77 162.939 1177.67 162.999 1177.56 163.057C1177.38 163.27 1177.18 163.475 1177 163.688C1176.56 164.188 1176.16 164.716 1175.82 165.288C1175.53 165.758 1175.3 166.266 1175.14 166.798C1175.01 167.237 1174.97 167.67 1174.95 168.116C1175.2 168.499 1175.45 168.88 1175.7 169.258C1176.02 169.743 1175.33 170.298 1175 169.813Z" fill="#F8B6D4" fill-opacity="0.3"/>
<path d="M416.094 193.694L416.866 185.554L427.019 167L432.695 193.373" stroke="#F8B6D4" stroke-opacity="0.4" stroke-width="0.5" stroke-miterlimit="10" stroke-linecap="round" stroke-linejoin="round"/>
<path d="M412.997 196.753L406.277 197.982L397 211.285L427.894 203.977L429.907 200.958L412.997 196.753Z" stroke="#F8B6D4" stroke-opacity="0.4" stroke-width="0.5" stroke-miterlimit="10" stroke-linecap="round" stroke-linejoin="round"/>
<path d="M412.997 196.753L420.26 189.577L429.907 200.958L412.997 196.753Z" stroke="#F8B6D4" stroke-opacity="0.4" stroke-width="0.5" stroke-miterlimit="10" stroke-linecap="round" stroke-linejoin="round"/>
<path d="M420.26 189.577L431.309 195.043" stroke="#F8B6D4" stroke-opacity="0.4" stroke-width="0.5" stroke-miterlimit="10" stroke-linecap="round" stroke-linejoin="round"/>
<path d="M428.198 198.942L437.178 187.821L440.151 186.554L449.213 191.816L438.706 190.208L431.575 207.116L420.26 205.783" stroke="#F8B6D4" stroke-opacity="0.4" stroke-width="0.5" stroke-miterlimit="10" stroke-linecap="round" stroke-linejoin="round"/>
<path d="M438.706 190.208L440.151 186.554" stroke="#F8B6D4" stroke-opacity="0.4" stroke-width="0.5" stroke-miterlimit="10" stroke-linecap="round" stroke-linejoin="round"/>
<path d="M429.907 200.958L431.575 207.116" stroke="#F8B6D4" stroke-opacity="0.4" stroke-width="0.5" stroke-miterlimit="10" stroke-linecap="round" stroke-linejoin="round"/>
<path d="M415.621 194.16L400.491 182.015L398.538 181.689L408.905 197.501" stroke="#F8B6D4" stroke-opacity="0.4" stroke-width="0.5" stroke-miterlimit="10" stroke-linecap="round" stroke-linejoin="round"/>
<path d="M429.9 196.835L420.26 189.577" stroke="#F8B6D4" stroke-opacity="0.4" stroke-width="0.5" stroke-miterlimit="10" stroke-linecap="round" stroke-linejoin="round"/>
<path d="M427.019 167L423.982 191.418" stroke="#F8B6D4" stroke-opacity="0.4" stroke-width="0.5" stroke-miterlimit="10" stroke-linecap="round" stroke-linejoin="round"/>
<path d="M397 211.285L420.599 198.643" stroke="#F8B6D4" stroke-opacity="0.4" stroke-width="0.5" stroke-miterlimit="10" stroke-linecap="round" stroke-linejoin="round"/>
<path d="M412.997 196.753L398.851 181.741" stroke="#F8B6D4" stroke-opacity="0.4" stroke-width="0.5" stroke-miterlimit="10" stroke-linecap="round" stroke-linejoin="round"/>
<path d="M439.695 187.705L449.213 191.816" stroke="#F8B6D4" stroke-opacity="0.4" stroke-width="0.5" stroke-miterlimit="10" stroke-linecap="round" stroke-linejoin="round"/>
<circle cx="1429" cy="32" r="22.85" stroke="#F8B6D4" stroke-opacity="0.3" stroke-width="0.3"/>
<circle cx="1429" cy="32" r="19.85" stroke="#F8B6D4" stroke-opacity="0.3" stroke-width="0.3" stroke-dasharray="2 2"/>
<circle cx="1424.5" cy="54.5" r="1.5" fill="#51475E"/>
<circle cx="1410" cy="37" r="1" fill="#51475E"/>
<path d="M1426.77 29L1428.07 32.644L1431.56 30.984L1429.9 34.477L1433.54 35.773L1429.9 37.069L1431.56 40.562L1428.07 38.902L1426.77 42.546L1425.48 38.902L1421.98 40.562L1423.64 37.069L1420 35.773L1423.64 34.477L1421.98 30.984L1425.48 32.644L1426.77 29Z" stroke="#F8B6D4" stroke-opacity="0.3" stroke-width="0.3" stroke-miterlimit="10"/>
<path d="M482.5 68L483.17 69.8831L484.975 69.0252L484.117 70.8303L486 71.5L484.117 72.1697L484.975 73.9748L483.17 73.1169L482.5 75L481.83 73.1169L480.025 73.9748L480.883 72.1697L479 71.5L480.883 70.8303L480.025 69.0252L481.83 69.8831L482.5 68Z" stroke="#F8B6D4" stroke-opacity="0.3" stroke-width="0.3" stroke-miterlimit="10"/>
<path d="M192.5 38L193.17 39.8831L194.975 39.0252L194.117 40.8303L196 41.5L194.117 42.1697L194.975 43.9748L193.17 43.1169L192.5 45L191.83 43.1169L190.025 43.9748L190.883 42.1697L189 41.5L190.883 40.8303L190.025 39.0252L191.83 39.8831L192.5 38Z" stroke="#F8B6D4" stroke-opacity="0.3" stroke-width="0.3" stroke-miterlimit="10"/>
</svg>
