<svg width="195" height="213" viewBox="0 0 195 213" fill="none" xmlns="http://www.w3.org/2000/svg">
<path d="M15.2471 111.197C13.3371 107.073 14.6451 101.886 15.3601 97.639C16.2061 92.615 16.1941 87.492 15.9531 82.418C15.7611 78.364 15.5981 74.302 15.4351 70.249C15.3941 69.236 15.3531 68.223 15.3121 67.212C15.3111 65.952 15.2811 64.698 15.2311 63.451C15.1811 62.203 14.8391 60.417 14.7621 59.179C13.8781 48.882 13.7661 38.643 16.8631 28.105C17.2651 26.946 17.7421 25.826 18.3111 24.754L18.3281 24.722C19.1121 23.249 21.2601 23.356 21.8941 24.899C21.9411 25.012 21.9861 25.126 22.0311 25.239C26.0881 37.101 23.0081 50.196 24.8951 62.373C24.9541 63.598 25.0371 64.822 25.1501 66.044C25.2631 67.266 25.4071 68.487 25.5881 69.706C25.6871 70.785 25.8021 71.858 25.9361 72.925C26.6051 78.257 27.7391 83.418 29.3291 88.718C31.5301 96.057 33.7651 103.432 37.0971 110.353C38.5921 113.458 42.9751 120.367 46.1841 114.802C49.4091 109.21 51.0261 102.416 53.2741 96.387C54.0081 94.417 54.7511 92.45 55.5021 90.486C56.1251 88.856 56.5721 87.238 58.1521 86.269C59.1601 85.651 60.8061 85.09 61.9731 85.543C63.3101 86.062 63.3961 87.277 63.5921 88.544C64.3631 93.534 63.1861 98.453 62.3291 103.346C61.4221 108.524 61.3651 113.796 61.2691 119.037C61.1911 123.299 62.4921 141.675 62.4921 141.675C64.8321 161.994 38.2501 204.346 35.5641 210.133C35.2741 210.758 34.8341 211.289 34.1721 211.097C24.6161 208.321 15.8381 204.001 6.57812 200.931L1.95513 199.127C1.29513 198.869 1.04614 198.065 1.44714 197.481C5.55914 191.501 24.0661 166.211 19.4231 152.971C18.5421 151.109 17.6721 149.283 16.8051 147.462C14.2001 141.994 11.6351 136.567 8.63909 130.706C5.46309 124.036 3.15813 117.078 4.61913 109.837C5.85013 96.559 13.1431 82.002 15.3631 68.469" stroke="#CC9A63" stroke-opacity="0.09" stroke-width="2" stroke-miterlimit="10" stroke-linecap="round" stroke-linejoin="round"/>
<path d="M24.248 47.0261C25.696 44.6631 25.706 37.8721 29.558 38.2571C30.713 38.6421 31.8691 39.7981 32.2541 40.9531C33.7941 47.8851 28.7611 67.39 28.7571 68.581C28.4731 70.065 28.2441 71.5711 28.0001 73.0751C27.7561 74.5781 27.2021 77.206 26.8521 78.688" stroke="#CC9A63" stroke-opacity="0.09" stroke-width="2" stroke-miterlimit="10" stroke-linecap="round" stroke-linejoin="round"/>
<path d="M32.8531 46.625C36.2281 44.529 38.8011 47.885 38.8011 51.351C38.8011 54.432 38.0311 57.513 37.4381 60.684C37.1941 61.744 36.9681 62.807 36.8071 63.877C36.6461 64.947 36.5491 66.022 36.5601 67.108C36.5211 67.957 36.4781 68.805 36.4211 69.645C36.3641 70.485 36.2931 71.316 36.1951 72.134C35.5701 77.335 34.8321 82.426 33.7741 87.551C33.0971 90.833 33.0602 94.226 32.2542 97.471" stroke="#CC9A63" stroke-opacity="0.09" stroke-width="2" stroke-miterlimit="10" stroke-linecap="round" stroke-linejoin="round"/>
<path d="M36.7032 65.702C37.4262 65.445 38.2502 66.048 38.9782 66.828C40.5072 68.467 39.6042 74.218 38.8012 76.88C37.5092 81.159 34.7252 102.277 34.1272 103.385" stroke="#CC9A63" stroke-opacity="0.09" stroke-width="2" stroke-miterlimit="10" stroke-linecap="round" stroke-linejoin="round"/>
<path d="M108.169 78.913L115.151 96.372" stroke="#CC9A63" stroke-opacity="0.09" stroke-miterlimit="10" stroke-linecap="round"/>
<path d="M88.0872 77.934L81.3242 96.433" stroke="#CC9A63" stroke-opacity="0.09" stroke-miterlimit="10" stroke-linecap="round"/>
<path d="M97.2372 20.822L96.6353 1.40796" stroke="#CC9A63" stroke-opacity="0.09" stroke-miterlimit="10" stroke-linecap="round"/>
<path d="M116.443 27.485L128.731 12.09" stroke="#CC9A63" stroke-opacity="0.09" stroke-miterlimit="10" stroke-linecap="round"/>
<path d="M127.832 44.6129L146.263 41.0189" stroke="#CC9A63" stroke-opacity="0.09" stroke-miterlimit="10" stroke-linecap="round"/>
<path d="M124.835 65.395L140.882 74.415" stroke="#CC9A63" stroke-opacity="0.09" stroke-miterlimit="10" stroke-linecap="round"/>
<path d="M73.9602 64.1129L55.5132 74.5689" stroke="#CC9A63" stroke-opacity="0.09" stroke-miterlimit="10" stroke-linecap="round"/>
<path d="M70.9472 45.1959L50.0122 41.1919" stroke="#CC9A63" stroke-opacity="0.09" stroke-miterlimit="10" stroke-linecap="round"/>
<path d="M80.7812 28.7919L67.4402 12.2009" stroke="#CC9A63" stroke-opacity="0.09" stroke-miterlimit="10" stroke-linecap="round"/>
<path d="M104.453 27.8911C104.407 27.8911 104.36 27.8851 104.314 27.8711C104.048 27.7941 103.896 27.517 103.972 27.252L104.25 26.289C104.327 26.023 104.605 25.8711 104.869 25.9471C105.135 26.0241 105.287 26.301 105.211 26.566L104.933 27.5291C104.87 27.7491 104.67 27.8911 104.453 27.8911Z" fill="#222221" stroke="#CC9A63" stroke-opacity="0.09" stroke-miterlimit="10"/>
<path d="M105.267 25.08C105.221 25.08 105.174 25.074 105.128 25.06C104.862 24.983 104.71 24.705 104.786 24.44L105.321 22.592C105.398 22.327 105.676 22.173 105.94 22.251C106.206 22.328 106.358 22.605 106.282 22.871L105.747 24.719C105.684 24.938 105.483 25.08 105.267 25.08ZM106.337 21.383C106.291 21.383 106.244 21.377 106.198 21.363C105.932 21.286 105.78 21.008 105.856 20.743L106.391 18.895C106.468 18.63 106.746 18.479 107.01 18.554C107.276 18.631 107.428 18.908 107.352 19.174L106.817 21.022C106.754 21.241 106.554 21.383 106.337 21.383ZM107.407 17.687C107.361 17.687 107.314 17.681 107.268 17.667C107.002 17.59 106.85 17.313 106.926 17.047L107.461 15.199C107.538 14.933 107.817 14.78 108.08 14.858C108.346 14.935 108.498 15.212 108.422 15.478L107.887 17.326C107.824 17.545 107.624 17.687 107.407 17.687Z" fill="#222221" stroke="#CC9A63" stroke-opacity="0.09" stroke-miterlimit="10"/>
<path d="M108.477 13.991C108.431 13.991 108.384 13.985 108.338 13.971C108.072 13.894 107.92 13.617 107.996 13.352L108.274 12.39C108.351 12.124 108.629 11.971 108.893 12.048C109.159 12.125 109.311 12.402 109.235 12.667L108.957 13.629C108.894 13.849 108.694 13.991 108.477 13.991Z" fill="#222221" stroke="#CC9A63" stroke-opacity="0.09" stroke-miterlimit="10"/>
<path d="M117.377 37.649C117.215 37.649 117.056 37.57 116.96 37.425C116.808 37.195 116.871 36.884 117.102 36.732L117.938 36.179C118.169 36.026 118.478 36.089 118.63 36.32C118.782 36.55 118.719 36.86 118.488 37.013L117.652 37.566C117.567 37.622 117.472 37.649 117.377 37.649Z" fill="#222221" stroke="#CC9A63" stroke-opacity="0.09" stroke-miterlimit="10"/>
<path d="M119.844 36.018C119.682 36.018 119.523 35.939 119.427 35.794C119.275 35.564 119.338 35.253 119.569 35.101L121.2 34.022C121.427 33.869 121.74 33.932 121.892 34.163C122.044 34.393 121.981 34.703 121.75 34.856L120.119 35.935C120.035 35.991 119.938 36.018 119.844 36.018ZM123.106 33.86C122.944 33.86 122.785 33.781 122.689 33.636C122.537 33.406 122.6 33.096 122.831 32.943L124.462 31.864C124.69 31.712 125.002 31.775 125.154 32.005C125.306 32.235 125.243 32.545 125.012 32.698L123.381 33.777C123.297 33.833 123.2 33.86 123.106 33.86ZM126.366 31.703C126.204 31.703 126.045 31.624 125.949 31.479C125.797 31.249 125.86 30.939 126.091 30.786L127.722 29.707C127.95 29.555 128.263 29.617 128.414 29.848C128.566 30.078 128.503 30.389 128.272 30.541L126.641 31.62C126.558 31.676 126.461 31.703 126.366 31.703Z" fill="#222221" stroke="#CC9A63" stroke-opacity="0.09" stroke-miterlimit="10"/>
<path d="M129.628 29.546C129.466 29.546 129.308 29.467 129.211 29.322C129.059 29.092 129.122 28.782 129.352 28.629L130.188 28.076C130.419 27.924 130.728 27.987 130.881 28.217C131.033 28.447 130.97 28.757 130.74 28.91L129.904 29.463C129.819 29.519 129.723 29.546 129.628 29.546Z" fill="#222221" stroke="#CC9A63" stroke-opacity="0.09" stroke-miterlimit="10"/>
<path d="M122.806 53.5429C122.785 53.5429 122.765 53.5419 122.744 53.5399L121.749 53.4189C121.476 53.3859 121.28 53.1359 121.313 52.8619C121.346 52.5879 121.601 52.3979 121.87 52.4249L122.865 52.5459C123.138 52.5789 123.334 52.8289 123.301 53.1029C123.271 53.3569 123.055 53.5429 122.806 53.5429Z" fill="#222221" stroke="#CC9A63" stroke-opacity="0.09" stroke-miterlimit="10"/>
<path d="M133.83 54.875C133.809 54.875 133.789 54.874 133.769 54.872L131.931 54.65C131.657 54.617 131.461 54.368 131.495 54.093C131.529 53.818 131.799 53.63 132.051 53.656L133.889 53.878C134.163 53.911 134.359 54.16 134.326 54.435C134.295 54.689 134.079 54.875 133.83 54.875ZM130.155 54.431C130.135 54.431 130.114 54.43 130.094 54.428L128.257 54.206C127.983 54.173 127.787 53.923 127.82 53.649C127.853 53.375 128.121 53.181 128.376 53.212L130.213 53.434C130.487 53.467 130.683 53.717 130.649 53.991C130.62 54.245 130.404 54.431 130.155 54.431ZM126.481 53.987C126.46 53.987 126.44 53.986 126.42 53.984L124.583 53.762C124.309 53.729 124.113 53.479 124.146 53.205C124.179 52.93 124.451 52.738 124.702 52.768L126.539 52.99C126.813 53.023 127.009 53.272 126.975 53.547C126.945 53.801 126.729 53.987 126.481 53.987Z" fill="#222221" stroke="#CC9A63" stroke-opacity="0.09" stroke-miterlimit="10"/>
<path d="M136.662 55.217C136.641 55.217 136.621 55.216 136.602 55.214L135.607 55.094C135.333 55.061 135.137 54.812 135.171 54.537C135.205 54.262 135.471 54.073 135.727 54.1L136.722 54.22C136.996 54.253 137.192 54.502 137.159 54.777C137.127 55.031 136.911 55.217 136.662 55.217Z" fill="#222221" stroke="#CC9A63" stroke-opacity="0.09" stroke-miterlimit="10"/>
<path d="M115.124 69.176C114.989 69.176 114.855 69.122 114.757 69.015L114.077 68.279C113.889 68.076 113.902 67.759 114.105 67.573C114.307 67.386 114.625 67.399 114.811 67.601L115.491 68.337C115.679 68.54 115.666 68.857 115.463 69.044C115.367 69.132 115.245 69.176 115.124 69.176Z" fill="#222221" stroke="#CC9A63" stroke-opacity="0.09" stroke-miterlimit="10"/>
<path d="M122.488 77.1459C122.353 77.1459 122.219 77.0919 122.121 76.9849L120.894 75.6559C120.706 75.4529 120.719 75.1369 120.922 74.9499C121.124 74.7619 121.442 74.7759 121.628 74.9779L122.856 76.3069C123.044 76.5099 123.031 76.8259 122.828 77.0139C122.731 77.1019 122.609 77.1459 122.488 77.1459ZM120.033 74.4889C119.898 74.4889 119.764 74.4349 119.666 74.3279L118.438 72.9999C118.25 72.7969 118.263 72.4809 118.465 72.2929C118.67 72.1059 118.986 72.1199 119.172 72.3209L120.399 73.6489C120.587 73.8519 120.574 74.1679 120.372 74.3549C120.276 74.4449 120.154 74.4889 120.033 74.4889ZM117.579 71.8329C117.444 71.8329 117.31 71.7789 117.212 71.6719L115.984 70.3439C115.796 70.1409 115.809 69.8249 116.011 69.6369C116.216 69.4499 116.532 69.4629 116.718 69.6649L117.945 70.9929C118.133 71.1959 118.12 71.5119 117.918 71.6999C117.822 71.7889 117.7 71.8329 117.579 71.8329Z" fill="#222221" stroke="#CC9A63" stroke-opacity="0.09" stroke-miterlimit="10"/>
<path d="M124.396 79.2099C124.261 79.2099 124.128 79.1559 124.029 79.0489L123.349 78.3129C123.161 78.1099 123.174 77.7939 123.377 77.6059C123.58 77.4189 123.896 77.4319 124.083 77.6339L124.763 78.3699C124.951 78.5729 124.938 78.8889 124.735 79.0759C124.639 79.1659 124.517 79.2099 124.396 79.2099Z" fill="#222221" stroke="#CC9A63" stroke-opacity="0.09" stroke-miterlimit="10"/>
<path d="M98.5643 75.6009C98.3033 75.6009 98.0842 75.3989 98.0662 75.1349L97.9993 74.1349C97.9803 73.8599 98.1883 73.6209 98.4653 73.6019C98.7103 73.5959 98.9792 73.7909 98.9972 74.0669L99.0643 75.0669C99.0833 75.3419 98.8753 75.5809 98.5983 75.5999C98.5883 75.5999 98.5763 75.6009 98.5643 75.6009Z" fill="#222221" stroke="#CC9A63" stroke-opacity="0.09" stroke-miterlimit="10"/>
<path d="M99.3161 86.696C99.0551 86.696 98.8361 86.4939 98.8181 86.2299L98.6931 84.3809C98.6741 84.1059 98.8821 83.8669 99.1581 83.8479C99.4361 83.8349 99.6741 84.0369 99.6911 84.3129L99.8161 86.1619C99.8351 86.4369 99.6271 86.6759 99.3511 86.6949C99.3401 86.6949 99.3281 86.696 99.3161 86.696ZM99.0661 82.9979C98.8061 82.9979 98.5871 82.7959 98.5681 82.5319L98.4421 80.6819C98.4231 80.4059 98.6311 80.1679 98.9071 80.1489C99.1781 80.1339 99.4211 80.3389 99.4401 80.6139L99.5661 82.4639C99.5851 82.7399 99.3771 82.9779 99.1011 82.9969C99.0901 82.9969 99.0781 82.9979 99.0661 82.9979ZM98.8151 79.2989C98.5541 79.2989 98.3351 79.0969 98.3171 78.8329L98.1921 76.9839C98.1731 76.7089 98.3811 76.4699 98.6571 76.4509C98.9371 76.4449 99.1731 76.6409 99.1901 76.9159L99.3151 78.765C99.3341 79.04 99.1261 79.2789 98.8501 79.2979C98.8391 79.2979 98.8271 79.2989 98.8151 79.2989Z" fill="#222221" stroke="#CC9A63" stroke-opacity="0.09" stroke-miterlimit="10"/>
<path d="M99.5091 89.5449C99.2481 89.5449 99.0281 89.3429 99.0111 89.0789L98.9441 88.0789C98.9251 87.8039 99.1331 87.5649 99.4101 87.5459C99.6651 87.5359 99.9251 87.7359 99.9421 88.0109L100.009 89.0109C100.027 89.2859 99.8191 89.5249 99.5431 89.5439C99.5321 89.5439 99.5201 89.5449 99.5091 89.5449Z" fill="#222221" stroke="#CC9A63" stroke-opacity="0.09" stroke-miterlimit="10"/>
<path d="M82.9001 69.725C82.7921 69.725 82.683 69.69 82.592 69.619C82.374 69.449 82.335 69.135 82.506 68.917L83.123 68.127C83.293 67.909 83.608 67.871 83.824 68.041C84.042 68.211 84.081 68.525 83.91 68.743L83.2931 69.533C83.1951 69.659 83.0491 69.725 82.9001 69.725Z" fill="#222221" stroke="#CC9A63" stroke-opacity="0.09" stroke-miterlimit="10"/>
<path d="M75.6771 78.9681C75.5691 78.9681 75.4601 78.9331 75.3691 78.8621C75.1511 78.6921 75.1121 78.3781 75.2831 78.1601L76.4871 76.6191C76.6571 76.4011 76.9721 76.3641 77.1881 76.5331C77.4061 76.7031 77.4451 77.0171 77.2741 77.2351L76.0701 78.7761C75.9721 78.9021 75.8251 78.9681 75.6771 78.9681ZM78.0851 75.8871C77.9771 75.8871 77.8681 75.8521 77.7771 75.7811C77.5591 75.6111 77.5201 75.2971 77.6911 75.0791L78.8951 73.5391C79.0661 73.3201 79.3801 73.2831 79.5961 73.4531C79.8141 73.6231 79.8531 73.9371 79.6821 74.1551L78.4781 75.6951C78.3801 75.8211 78.2331 75.8871 78.0851 75.8871ZM80.4921 72.8061C80.3841 72.8061 80.2751 72.7711 80.1841 72.7001C79.9661 72.5301 79.9271 72.2161 80.0981 71.9981L81.3021 70.4581C81.4721 70.2401 81.7881 70.2021 82.0031 70.3721C82.2211 70.5421 82.2601 70.8561 82.0891 71.0741L80.8851 72.6151C80.7871 72.7401 80.6411 72.8061 80.4921 72.8061Z" fill="#222221" stroke="#CC9A63" stroke-opacity="0.09" stroke-miterlimit="10"/>
<path d="M73.8561 81.299C73.7481 81.299 73.6391 81.264 73.5481 81.193C73.3301 81.023 73.2911 80.709 73.4621 80.491L74.0791 79.702C74.2491 79.484 74.5651 79.446 74.7801 79.616C74.9981 79.786 75.0371 80.1 74.8661 80.318L74.2491 81.107C74.1511 81.233 74.0051 81.299 73.8561 81.299Z" fill="#222221" stroke="#CC9A63" stroke-opacity="0.09" stroke-miterlimit="10"/>
<path d="M75.2162 55.1979C74.9842 55.1979 74.7762 55.0349 74.7272 54.7989C74.6722 54.5289 74.8462 54.2639 75.1172 54.2089L76.0992 54.0069C76.3652 53.9549 76.6342 54.1239 76.6902 54.3959C76.7452 54.6669 76.5712 54.9309 76.3002 54.9859L75.3192 55.1879C75.2832 55.1949 75.2502 55.1979 75.2162 55.1979Z" fill="#222221" stroke="#CC9A63" stroke-opacity="0.09" stroke-miterlimit="10"/>
<path d="M62.7182 57.769C62.4862 57.769 62.2781 57.606 62.2291 57.37C62.1741 57.1 62.3482 56.835 62.6192 56.78L64.7022 56.352C64.9662 56.298 65.2372 56.469 65.2932 56.741C65.3482 57.011 65.1742 57.276 64.9032 57.331L62.8201 57.759C62.7851 57.766 62.7522 57.769 62.7182 57.769ZM66.8841 56.912C66.6521 56.912 66.4442 56.749 66.3952 56.513C66.3402 56.243 66.5141 55.978 66.7851 55.923L68.8681 55.495C69.1331 55.44 69.4031 55.612 69.4591 55.884C69.5141 56.154 69.3401 56.419 69.0691 56.474L66.9862 56.902C66.9512 56.909 66.9181 56.912 66.8841 56.912ZM71.0501 56.055C70.8191 56.055 70.6101 55.892 70.5611 55.656C70.5061 55.385 70.6801 55.121 70.9511 55.066L73.0341 54.638C73.2991 54.587 73.5691 54.756 73.6251 55.027C73.6801 55.298 73.5061 55.562 73.2351 55.617L71.1521 56.045C71.1171 56.052 71.0841 56.055 71.0501 56.055Z" fill="#222221" stroke="#CC9A63" stroke-opacity="0.09" stroke-miterlimit="10"/>
<path d="M59.6522 58.3989C59.4202 58.3989 59.2122 58.2359 59.1632 57.9999C59.1082 57.7299 59.2822 57.4649 59.5532 57.4099L60.5352 57.2079C60.8032 57.1539 61.0702 57.3259 61.1262 57.5969C61.1812 57.8679 61.0072 58.1319 60.7362 58.1869L59.7552 58.3889C59.7202 58.3959 59.6862 58.3989 59.6522 58.3989Z" fill="#222221" stroke="#CC9A63" stroke-opacity="0.09" stroke-miterlimit="10"/>
<path d="M78.5514 39.92C78.4694 39.92 78.3874 39.9 78.3104 39.858L77.4324 39.376C77.1914 39.243 77.1024 38.939 77.2354 38.697C77.3684 38.454 77.6734 38.368 77.9154 38.5L78.7934 38.982C79.0344 39.115 79.1234 39.419 78.9904 39.661C78.8984 39.826 78.7274 39.92 78.5514 39.92Z" fill="#222221" stroke="#CC9A63" stroke-opacity="0.09" stroke-miterlimit="10"/>
<path d="M75.7972 38.409C75.7152 38.409 75.6332 38.389 75.5572 38.347L73.6812 37.318C73.4392 37.185 73.3501 36.881 73.4831 36.639C73.6161 36.396 73.9232 36.308 74.1622 36.441L76.0382 37.47C76.2802 37.603 76.3692 37.907 76.2362 38.149C76.1442 38.315 75.9732 38.409 75.7972 38.409ZM72.0462 36.351C71.9642 36.351 71.8822 36.331 71.8062 36.289L69.9302 35.26C69.6882 35.127 69.5992 34.823 69.7322 34.581C69.8652 34.337 70.1722 34.251 70.4112 34.383L72.2872 35.412C72.5292 35.545 72.6182 35.849 72.4852 36.091C72.3942 36.257 72.2222 36.351 72.0462 36.351ZM68.2952 34.294C68.2132 34.294 68.1312 34.274 68.0552 34.232L66.1792 33.203C65.9372 33.07 65.8482 32.766 65.9812 32.524C66.1142 32.28 66.4201 32.194 66.6601 32.326L68.5362 33.355C68.7782 33.488 68.8672 33.792 68.7342 34.034C68.6432 34.2 68.4712 34.294 68.2952 34.294Z" fill="#222221" stroke="#CC9A63" stroke-opacity="0.09" stroke-miterlimit="10"/>
<path d="M64.5443 32.235C64.4623 32.235 64.3803 32.215 64.3043 32.173L63.4253 31.691C63.1833 31.558 63.0943 31.255 63.2273 31.012C63.3603 30.769 63.6663 30.682 63.9063 30.814L64.7853 31.296C65.0273 31.429 65.1163 31.732 64.9833 31.975C64.8923 32.142 64.7203 32.235 64.5443 32.235Z" fill="#222221" stroke="#CC9A63" stroke-opacity="0.09" stroke-miterlimit="10"/>
<path d="M90.0263 29.8979C89.8253 29.8979 89.6353 29.7749 89.5593 29.5759L89.2023 28.6399C89.1033 28.3819 89.2322 28.0929 89.4902 27.9939C89.7502 27.8949 90.0372 28.0249 90.1362 28.2829L90.4932 29.2189C90.5922 29.4769 90.4633 29.7659 90.2053 29.8649C90.1453 29.8869 90.0863 29.8979 90.0263 29.8979Z" fill="#222221" stroke="#CC9A63" stroke-opacity="0.09" stroke-miterlimit="10"/>
<path d="M88.9072 26.9649C88.7062 26.9649 88.5162 26.8429 88.4402 26.6429L87.6782 24.6469C87.5792 24.3889 87.7082 24.0999 87.9662 24.0009C88.2282 23.9039 88.5132 24.0319 88.6122 24.2899L89.3742 26.2859C89.4732 26.5439 89.3442 26.8329 89.0862 26.9309C89.0262 26.9549 88.9672 26.9649 88.9072 26.9649ZM87.3852 22.9729C87.1842 22.9729 86.9942 22.8499 86.9182 22.6509L86.1562 20.6549C86.0572 20.3969 86.1861 20.1079 86.4441 20.0089C86.7051 19.9109 86.9912 20.0399 87.0902 20.2979L87.8522 22.2939C87.9512 22.5519 87.8222 22.8409 87.5642 22.9389C87.5042 22.9619 87.4442 22.9729 87.3852 22.9729ZM85.8612 18.9799C85.6602 18.9799 85.4692 18.8569 85.3942 18.6579L84.6332 16.6619C84.5342 16.4039 84.6632 16.1149 84.9222 16.0169C85.1782 15.9189 85.4692 16.0479 85.5672 16.3059L86.3282 18.3019C86.4272 18.5599 86.2982 18.8489 86.0392 18.9479C85.9802 18.9699 85.9212 18.9799 85.8612 18.9799Z" fill="#222221" stroke="#CC9A63" stroke-opacity="0.09" stroke-miterlimit="10"/>
<path d="M84.3392 14.9879C84.1382 14.9879 83.9483 14.8649 83.8723 14.6659L83.5153 13.7289C83.4163 13.4709 83.5452 13.1819 83.8032 13.0839C84.0642 12.9869 84.3502 13.1149 84.4492 13.3729L84.8063 14.3099C84.9053 14.5679 84.7763 14.8569 84.5183 14.9549C84.4583 14.9779 84.3982 14.9879 84.3392 14.9879Z" fill="#222221" stroke="#CC9A63" stroke-opacity="0.09" stroke-miterlimit="10"/>
<path d="M95.7222 60.02C89.0912 59.161 85.4273 53.899 85.6063 47.784C85.6313 46.917 85.5922 46.052 85.4702 45.193C85.2662 43.761 85.4502 41.431 88.8342 41.499C93.7102 41.597 93.2313 41.861 95.0343 41.206C96.8373 40.551 98.0093 40.88 99.0423 41.37C100.075 41.859 101.801 41.694 101.801 41.694" stroke="#CC9A63" stroke-opacity="0.09" stroke-miterlimit="10" stroke-linecap="round" stroke-linejoin="round"/>
<path d="M95.7221 60.02C103.757 61.683 109.41 56.242 110.282 49.508C110.282 49.508 112.969 43.175 106.882 41.676C100.796 40.176 100.955 43.515 96.5981 43.306C92.2641 43.098 87.5861 47.28 91.5751 55.78C91.5971 55.827 92.1761 57.116 92.1961 57.164C92.1961 57.164 92.4631 59.345 95.7221 60.02Z" stroke="#CC9A63" stroke-opacity="0.09" stroke-miterlimit="10" stroke-linecap="round" stroke-linejoin="round"/>
<path d="M107.087 38.7309C107.087 38.7309 108.282 36.1389 109.807 37.4029C111.332 38.6669 110.176 43.8149 110.176 43.8149" stroke="#CC9A63" stroke-opacity="0.09" stroke-miterlimit="10" stroke-linecap="round" stroke-linejoin="round"/>
<path d="M94.0092 40.119C94.0092 40.119 91.9332 38.496 89.3222 38.069C86.7112 37.642 84.8192 39.971 85.6752 42.21" stroke="#CC9A63" stroke-opacity="0.09" stroke-miterlimit="10" stroke-linecap="round" stroke-linejoin="round"/>
<path d="M89.7473 37.877C89.7473 37.877 90.8063 35.386 94.0723 35.809C97.3373 36.232 97.6883 36.761 97.6883 36.761" stroke="#CC9A63" stroke-opacity="0.09" stroke-miterlimit="10" stroke-linecap="round" stroke-linejoin="round"/>
<path d="M95.0513 43.42C95.0513 43.42 98.1712 43.628 100.858 45.131C103.545 46.634 109.64 45.309 109.628 43.121" stroke="#CC9A63" stroke-opacity="0.09" stroke-miterlimit="10" stroke-linecap="round" stroke-linejoin="round"/>
<path d="M110.867 46.755C110.867 46.755 113.595 45.893 114.011 48.169C114.427 50.445 111.553 59.734 103.235 59.38" stroke="#CC9A63" stroke-opacity="0.09" stroke-miterlimit="10" stroke-linecap="round" stroke-linejoin="round"/>
<path d="M85.1413 43.422C85.1413 43.422 82.2843 43.347 82.7313 46.072C83.1783 48.796 80.9513 54.998 90.5043 58.101" stroke="#CC9A63" stroke-opacity="0.09" stroke-miterlimit="10" stroke-linecap="round" stroke-linejoin="round"/>
<path d="M97.2543 40.854C97.2543 40.854 96.6233 39.457 99.7213 39.325C102.819 39.193 105.974 39.701 105.45 41.392" stroke="#CC9A63" stroke-opacity="0.09" stroke-miterlimit="10" stroke-linecap="round" stroke-linejoin="round"/>
<path d="M94.7434 41.3109C94.7434 41.3109 93.3574 38.0529 95.2664 37.2769C97.1754 36.5009 100.492 36.5809 101.357 37.2259C102.221 37.8709 101.616 39.2849 101.616 39.2849" stroke="#CC9A63" stroke-opacity="0.09" stroke-miterlimit="10" stroke-linecap="round" stroke-linejoin="round"/>
<path d="M100.716 36.947C100.716 36.947 103.821 36.086 105.959 37.626C108.097 39.166 108.486 42.001 108.486 42.001" stroke="#CC9A63" stroke-opacity="0.09" stroke-miterlimit="10" stroke-linecap="round" stroke-linejoin="round"/>
<path d="M93.9982 59.486C93.9982 59.486 92.3762 60.29 90.1002 60.545C86.4132 60.958 81.0113 59.928 78.0203 51.696C78.0203 51.696 78.1342 51.622 78.3452 51.507C79.6052 50.819 81.0133 50.455 82.4473 50.396C82.5903 50.39 82.7362 50.387 82.8832 50.386" stroke="#CC9A63" stroke-opacity="0.09" stroke-miterlimit="10" stroke-linecap="round" stroke-linejoin="round"/>
<path d="M101.284 60.039C101.284 60.039 102.766 61.079 104.977 61.674C108.559 62.639 114.054 62.436 118.255 54.75C118.255 54.75 118.153 54.66 117.962 54.515C116.82 53.645 115.483 53.073 114.074 52.798C113.934 52.771 113.182 52.699 113.036 52.676" stroke="#CC9A63" stroke-opacity="0.09" stroke-miterlimit="10" stroke-linecap="round" stroke-linejoin="round"/>
<path d="M181.028 111.197C182.938 107.073 181.63 101.886 180.915 97.639C180.069 92.615 180.081 87.492 180.322 82.418C180.514 78.364 180.677 74.302 180.84 70.249C180.881 69.236 180.922 68.223 180.963 67.212C180.964 65.952 180.994 64.698 181.044 63.451C181.094 62.203 181.435 60.417 181.513 59.179C182.397 48.882 182.509 38.643 179.412 28.105C179.01 26.946 178.533 25.826 177.964 24.754L177.947 24.722C177.163 23.249 175.015 23.356 174.381 24.899C174.334 25.012 174.289 25.126 174.244 25.239C170.186 37.101 173.267 50.196 171.38 62.373C171.321 63.598 171.238 64.822 171.125 66.044C171.012 67.266 170.868 68.487 170.687 69.706C170.588 70.785 170.473 71.858 170.339 72.925C169.67 78.257 168.536 83.418 166.946 88.718C164.745 96.057 162.51 103.432 159.178 110.353C157.683 113.458 153.3 120.367 150.09 114.802C146.865 109.21 145.248 102.416 143 96.387C142.266 94.417 141.523 92.45 140.772 90.486C140.149 88.856 139.702 87.238 138.122 86.269C137.114 85.651 135.468 85.09 134.301 85.543C132.963 86.062 132.878 87.277 132.682 88.544C131.911 93.534 133.088 98.453 133.945 103.346C134.852 108.524 134.909 113.796 135.005 119.037C135.083 123.299 133.782 141.675 133.782 141.675C131.662 160.089 155.544 197.185 160.041 208.752C160.629 210.265 162.303 211.046 163.85 210.557C172.369 207.867 185.615 202.627 192.013 200.07C193.861 199.332 194.541 197.069 193.405 195.435C187.59 187.073 172.624 165.027 176.851 152.971C177.732 151.109 178.602 149.283 179.469 147.462C182.074 141.994 184.639 136.567 187.635 130.706C190.81 124.036 193.116 117.078 191.655 109.837C190.424 96.559 183.131 82.002 180.911 68.469" stroke="#CC9A63" stroke-opacity="0.09" stroke-width="2" stroke-miterlimit="10" stroke-linecap="round" stroke-linejoin="round"/>
<path d="M172.027 47.0261C170.579 44.6631 170.569 37.8721 166.718 38.2571C165.563 38.6421 164.407 39.7981 164.022 40.9531C162.481 47.8851 167.515 67.39 167.519 68.581C167.803 70.065 168.032 71.5711 168.276 73.0751C168.52 74.5781 169.074 77.206 169.424 78.688" stroke="#CC9A63" stroke-opacity="0.09" stroke-width="2" stroke-miterlimit="10" stroke-linecap="round" stroke-linejoin="round"/>
<path d="M163.422 46.625C160.047 44.529 157.474 47.885 157.474 51.351C157.474 54.432 158.244 57.513 158.837 60.684C159.081 61.744 159.307 62.807 159.468 63.877C159.629 64.947 159.726 66.022 159.715 67.108C159.754 67.957 159.797 68.805 159.854 69.645C159.911 70.485 159.982 71.316 160.08 72.134C160.705 77.335 161.443 82.426 162.501 87.551C163.178 90.833 163.215 94.226 164.021 97.471" stroke="#CC9A63" stroke-opacity="0.09" stroke-width="2" stroke-miterlimit="10" stroke-linecap="round" stroke-linejoin="round"/>
<path d="M159.572 65.702C158.849 65.445 158.025 66.048 157.297 66.828C155.768 68.467 156.671 74.218 157.474 76.88C158.766 81.159 161.55 102.277 162.148 103.385" stroke="#CC9A63" stroke-opacity="0.09" stroke-width="2" stroke-miterlimit="10" stroke-linecap="round" stroke-linejoin="round"/>
</svg>
