<svg width="172" height="231" viewBox="0 0 172 231" fill="none" xmlns="http://www.w3.org/2000/svg">
<path d="M90.0651 73.4407C84.9757 69.4353 81.1727 81.8989 80.9648 83.0186C79.491 90.9364 80.2956 99.0794 81.1056 107.093C81.2463 108.488 81.3969 109.917 82.0054 111.181C85.7543 118.963 90.0911 107.77 90.8079 104.815C91.998 99.9143 92.0554 92.9158 93.0624 87.9953" stroke="#CC9A63" stroke-opacity="0.09" stroke-width="2" stroke-miterlimit="10" stroke-linecap="round" stroke-linejoin="round"/>
<path d="M80.9941 82.4902C80.3942 78.4056 76.994 76.3818 73.5386 76.7781C70.3756 77.1409 68.0247 82.4306 68.0247 85.2785C68.0247 100.232 66.0052 115.054 70.9896 129.294C71.701 131.431 73.8375 133.566 76.6854 134.279C78.1094 134.279 79.5333 133.566 80.2458 132.142C82.3823 125.734 82.7299 116.957 81.6254 110.199" stroke="#CC9A63" stroke-opacity="0.09" stroke-width="2" stroke-miterlimit="10" stroke-linecap="round" stroke-linejoin="round"/>
<path d="M67.9087 92.3852C67.2016 92.1805 64.9081 91.7138 64.1382 91.612C62.9687 91.4572 62.28 91.6456 61.2914 92.318C58.7835 94.0235 57.7115 97.2483 57.3801 100.142C57.1451 102.19 56.8853 104.172 56.9524 106.245C57.0228 108.401 57.5393 110.494 57.8425 112.627C58.1803 115.008 58.7055 117.292 59.2578 119.63C59.7797 121.839 60.0515 124.099 60.8355 126.239C62.3807 130.457 63.4896 134.804 64.8789 139.077C65.6087 141.323 66.9233 145.606 70.0073 145.396C70.8584 145.339 71.6196 144.817 72.1762 144.172C72.7339 143.526 72.173 132.476 71.5742 130.55" stroke="#CC9A63" stroke-opacity="0.09" stroke-width="2" stroke-miterlimit="10" stroke-linecap="round" stroke-linejoin="round"/>
<path d="M56.9415 107.48C56.0362 107.537 55.2176 107.99 54.7151 108.237C53.4276 108.87 52.4293 109.515 51.7124 110.817C51.0746 111.974 50.7877 113.293 50.6415 114.605C50.0795 119.672 50.8938 124.666 52.0178 129.546C52.5624 131.909 52.7714 134.425 53.1201 136.832C53.5966 140.126 54.4087 142.937 55.6572 145.802C55.9258 146.418 56.4012 147.585 56.9415 147.983C58.4629 149.105 60.6145 146.819 60.9946 145.402C61.732 142.655 62.0222 133.686 62.2919 130.586" stroke="#CC9A63" stroke-opacity="0.09" stroke-width="2" stroke-miterlimit="10" stroke-linecap="round" stroke-linejoin="round"/>
<path d="M61.9727 135.651C63.911 141.436 70.812 159.031 73.4476 164.679C74.5771 166.561 75.7065 168.443 76.8359 170.326C82.1061 178.607 88.8826 185.384 93.0234 194.418C97.5411 205.335 98.2937 217.005 99.4231 228.675C99.4231 229.052 99.7999 229.805 100.176 229.805C112.975 230.181 138.121 229.393 138.178 229.392C138.198 228.298 135.186 219.64 135.186 219.264C132.175 206.842 129.916 195.172 128.034 182.748C127.282 175.972 126.528 169.572 125.775 162.797C124.269 147.363 125.399 132.68 123.893 117.246C122.764 109.34 120.505 102.188 116.364 95.4117C112.976 90.1415 109.588 85.6238 107.329 79.9767C105.07 73.9539 102.059 68.3068 99.7999 62.284C99.043 60.7702 98.1172 59.2563 97.0224 57.8562C96.1042 56.6813 94.3196 56.6943 93.3808 57.8519C86.8923 65.852 90.5968 77.7677 93.0245 87.129C93.4014 89.3878 96.0359 90.894 96.7885 92.776C97.9179 94.658 99.0474 96.5411 99.0474 98.4231C99.0474 100.305 99.4242 102.564 99.0474 104.446C97.5411 111.975 96.7885 118.752 94.9065 126.28C93.0245 136.82 91.8951 146.985 94.1204 157.117" stroke="#CC9A63" stroke-opacity="0.09" stroke-width="2" stroke-miterlimit="10" stroke-linecap="round" stroke-linejoin="round"/>
<path d="M52.9588 135.651C50.295 162.444 52.8191 178.213 83.5981 198.538" stroke="#CC9A63" stroke-opacity="0.09" stroke-width="2" stroke-miterlimit="10" stroke-linecap="round" stroke-linejoin="round"/>
<path d="M54.8972 28.5088C54.8972 28.5088 89.1435 6.95684 104.077 37.5463C108.703 47.0213 106.092 55.5715 100.16 63.8867" stroke="#CC9A63" stroke-opacity="0.09" stroke-width="2" stroke-miterlimit="10" stroke-linecap="round" stroke-linejoin="round"/>
<path d="M134.843 34.3335C134.843 34.3335 109.45 35.2388 105.13 54.2028C105.13 54.2028 135.233 53.8692 134.843 34.3335Z" stroke="#CC9A63" stroke-opacity="0.09" stroke-width="2" stroke-miterlimit="10" stroke-linecap="round" stroke-linejoin="round"/>
<path d="M49.144 1.16789C49.144 1.16789 55.5459 22.3615 74.9528 21.0556C74.9528 21.0556 73.0242 -0.34486 49.144 1.16789Z" stroke="#CC9A63" stroke-opacity="0.09" stroke-width="2" stroke-miterlimit="10" stroke-linecap="round" stroke-linejoin="round"/>
<path d="M163.443 176.065C163.443 176.065 162.485 188.716 156.352 188.716C156.352 188.716 163.443 193.507 163.443 201.75C163.443 193.507 170.535 188.716 170.535 188.716C164.402 188.716 163.443 176.065 163.443 176.065Z" stroke="#CC9A63" stroke-opacity="0.09" stroke-width="2" stroke-miterlimit="10" stroke-linecap="round" stroke-linejoin="round"/>
<path d="M14.6866 100.306C14.6866 100.306 13.7282 112.957 7.59497 112.957C7.59497 112.957 14.6866 117.749 14.6866 125.992C14.6866 117.749 21.7782 112.957 21.7782 112.957C15.6449 112.957 14.6866 100.306 14.6866 100.306Z" stroke="#CC9A63" stroke-opacity="0.09" stroke-width="2" stroke-miterlimit="10" stroke-linecap="round" stroke-linejoin="round"/>
<path d="M123.497 1.84692C123.497 1.84692 122.539 14.4979 116.406 14.4979C116.406 14.4979 123.497 19.2895 123.497 27.5322C123.497 19.2906 130.589 14.4979 130.589 14.4979C124.455 14.4979 123.497 1.84692 123.497 1.84692Z" stroke="#CC9A63" stroke-opacity="0.09" stroke-width="2" stroke-miterlimit="10" stroke-linecap="round" stroke-linejoin="round"/>
<path d="M41.8596 82.0883C41.8596 82.0883 35.0138 78.3752 34.5417 76.4748C34.0685 74.5744 34.0371 73.5165 35.3723 71.9409C36.7074 70.3654 34.3934 69.3735 34.8882 66.6198C35.3831 63.8661 41.2608 58.6457 42.2181 55.1708C43.1753 51.6948 49.9886 33.5397 49.9886 33.5397C49.9886 33.5397 51.1429 33.2257 52.7098 40.0206C54.2756 46.8166 51.0043 57.1784 43.1894 68.0156C43.1894 68.0156 39.4579 73.4775 41.3951 79.2751L41.8596 82.0883Z" stroke="#CC9A63" stroke-opacity="0.09" stroke-width="2" stroke-miterlimit="10" stroke-linecap="round" stroke-linejoin="round"/>
<path d="M35.7448 70.5343C35.7448 70.5343 31.1546 76.2182 26.8199 73.85C22.4852 71.4829 25.9926 68.073 27.435 66.7194C28.8773 65.3659 29.9494 63.0886 30.3522 61.0593C30.755 59.0301 34.7139 51.1989 35.8801 48.9855C37.0453 46.7722 45.4601 33.1088 49.8933 33.6502" stroke="#CC9A63" stroke-opacity="0.09" stroke-width="2" stroke-miterlimit="10" stroke-linecap="round" stroke-linejoin="round"/>
<path d="M26.6751 67.4613C26.6751 67.4613 26.0059 65.6746 20.7085 63.4114C15.4101 61.1482 20.1769 56.4313 21.3572 55.7405C22.5364 55.0496 32.5485 44.3164 32.5485 44.3164C32.5485 44.3164 45.0532 25.87 50.2628 33.7835" stroke="#CC9A63" stroke-opacity="0.09" stroke-width="2" stroke-miterlimit="10" stroke-linecap="round" stroke-linejoin="round"/>
<path d="M17.9968 61.0539C17.9968 61.0539 12.6984 62.9835 10.0704 59.2412C7.44119 55.4988 11.9967 53.3201 15.3568 52.3369C18.7169 51.3537 25.5302 41.9686 28.8069 39.9762C32.0837 37.9837 42.5657 24.3603 48.6535 32.1125" stroke="#CC9A63" stroke-opacity="0.09" stroke-width="2" stroke-miterlimit="10" stroke-linecap="round" stroke-linejoin="round"/>
<path d="M9.79209 54.8893C9.79209 54.8893 -2.45497 48.9866 1.95982 45.502C6.37461 42.0174 8.79153 46.2113 12.1906 45.0981C15.5897 43.9849 37.3778 28.2002 40.727 28.5131C44.0763 28.825 43.2912 28.4276 46.3838 30.1396" stroke="#CC9A63" stroke-opacity="0.09" stroke-width="2" stroke-miterlimit="10" stroke-linecap="round" stroke-linejoin="round"/>
<path d="M4.2478 44.2676C4.2478 44.2676 -0.188641 42.1225 3.08915 40.6715C6.36695 39.2205 14.7688 37.7359 18.0877 35.6319C21.4067 33.5279 34.7128 24.5955 40.728 28.5132" stroke="#CC9A63" stroke-opacity="0.09" stroke-width="2" stroke-miterlimit="10" stroke-linecap="round" stroke-linejoin="round"/>
<path d="M44.5171 29.1336C44.5171 29.1336 53.0803 24.4286 54.7728 28.2089C56.292 31.6014 53.2232 33.5051 51.534 35.9004" stroke="#CC9A63" stroke-opacity="0.09" stroke-width="2" stroke-miterlimit="10" stroke-linecap="round" stroke-linejoin="round"/>
</svg>
