<svg width="80" height="74" viewBox="0 0 80 74" fill="none" xmlns="http://www.w3.org/2000/svg">
<g opacity="0.5">
<path d="M58.3056 55.2195C58.3015 55.2938 58.3146 55.3739 58.2902 55.441C58.1689 55.767 58.0454 56.093 57.9078 56.4125C57.6284 57.0606 57.3394 57.7043 57.0555 58.3504C57.0357 58.3953 57.0244 58.4436 56.9997 58.5195C57.0984 58.5652 57.1884 58.6069 57.2789 58.6489C57.9424 58.957 58.6061 59.2635 59.2686 59.5739C59.4955 59.6801 59.5723 59.8135 59.5026 59.9557C59.4379 60.0881 59.2947 60.1228 59.0735 60.0247C58.4051 59.7282 57.7412 59.421 57.0757 59.1181C56.9841 59.0762 56.893 59.0334 56.7802 58.9811C56.4774 59.6344 56.184 60.2722 55.8865 60.9081C55.5886 61.5449 55.3101 62.1912 54.9966 62.802C54.7022 62.8019 54.6225 62.7059 54.7152 62.4832C54.8525 62.1536 55.0009 61.8286 55.1502 61.504C55.5194 60.7004 55.8925 59.8979 56.2639 59.0953C56.3063 59.0039 56.3484 58.913 56.4009 58.7998C56.2541 58.7185 56.1322 58.6454 56.0057 58.5812C55.4596 58.3044 54.9126 58.0309 54.3661 57.755C54.2601 57.7014 54.1433 57.6518 54.1761 57.4952C54.238 57.3902 54.3282 57.3994 54.4212 57.4359C54.7291 57.5582 55.0367 57.6798 55.3426 57.8061C55.704 57.9559 56.0628 58.1112 56.424 58.2615C56.4768 58.2832 56.5354 58.2916 56.6287 58.3155C56.881 57.7829 57.1299 57.2543 57.3811 56.7267C57.6307 56.2024 57.8907 55.6833 58.1973 55.1908C58.2317 55.2001 58.2687 55.2096 58.3056 55.2195Z" fill="white" fill-opacity="0.5"/>
<path d="M10.9802 39.2717C11.0952 39.325 11.1866 39.3674 11.278 39.4097C11.9108 39.7031 12.5432 39.9962 13.1758 40.29C13.2067 40.3043 13.2374 40.3191 13.2679 40.3343C13.4757 40.4389 13.5509 40.5638 13.4896 40.7021C13.4293 40.8382 13.2827 40.878 13.0646 40.7813C12.4115 40.4924 11.763 40.1924 11.113 39.8966C11.0053 39.8478 10.8984 39.7972 10.7589 39.7325C10.1628 41.0186 9.57211 42.293 8.98926 43.5505C8.68315 43.5627 8.603 43.4604 8.70505 43.2199C8.84463 42.8914 8.99169 42.5657 9.14102 42.2412C9.50708 41.4454 9.87609 40.6505 10.244 39.8556C10.2863 39.7642 10.3287 39.6728 10.3824 39.5569C10.249 39.4801 10.1375 39.4086 10.0193 39.3489C9.46577 39.068 8.91098 38.791 8.357 38.511C8.25139 38.4576 8.13234 38.4118 8.15765 38.2523C8.21329 38.1478 8.30187 38.1485 8.39648 38.1863C8.71181 38.3115 9.02761 38.4369 9.3415 38.5663C9.70307 38.7157 10.0619 38.871 10.423 39.0212C10.4684 39.0401 10.5195 39.0466 10.5954 39.0663C10.6896 38.8858 10.7878 38.7098 10.8747 38.5281C11.0362 38.1904 11.1859 37.8472 11.3504 37.5114C11.5635 37.0766 11.7827 36.6442 12.0076 36.2149C12.0587 36.1165 12.1415 36.0345 12.2065 35.9503C12.3489 36.0268 12.3112 36.1093 12.2806 36.1884C12.1711 36.4735 12.0691 36.7626 11.9481 37.0428C11.6548 37.7221 11.3515 38.3967 11.0532 39.0736C11.0286 39.1268 11.0123 39.1833 10.9802 39.2717Z" fill="white" fill-opacity="0.5"/>
<path d="M48.9624 15.6646C48.5374 15.3864 48.0621 15.2666 47.7163 14.9655C47.7044 14.823 47.7585 14.7647 47.8628 14.7804C47.9619 14.7954 48.0608 14.8263 48.1547 14.8632C48.4777 14.9898 48.7979 15.1222 49.1469 15.2629C49.2131 15.1202 49.2689 14.9986 49.3256 14.8774C49.56 14.3763 49.7943 13.8757 50.0301 13.3753C50.0854 13.2584 50.0886 13.2599 50.2293 13.2136C50.3375 13.3245 50.2619 13.4341 50.2188 13.5378C49.9851 14.0945 49.7471 14.6497 49.5115 15.2055C49.4887 15.2595 49.4704 15.3157 49.4415 15.3934C49.794 15.6661 50.2386 15.7662 50.6287 16.0221C50.5985 16.1003 50.5717 16.1713 50.5317 16.2754C50.1111 16.1069 49.7199 15.9499 49.3004 15.7814C49.2593 15.8618 49.2149 15.9396 49.1779 16.0207C48.9458 16.5322 48.7168 17.0452 48.4835 17.5557C48.4313 17.6696 48.3657 17.7778 48.3113 17.8785C48.0935 17.8681 48.0548 17.8408 48.0742 17.6918C48.0858 17.6011 48.1204 17.5111 48.158 17.4263C48.3811 16.9294 48.6084 16.4344 48.8347 15.9389C48.8741 15.855 48.9131 15.7709 48.9624 15.6646Z" fill="white" fill-opacity="0.5"/>
<path d="M9.09365 32.6294C8.85805 32.6074 8.8225 32.5804 8.84448 32.4294C8.85771 32.3388 8.89271 32.249 8.93079 32.1645C9.15438 31.6678 9.38162 31.1728 9.60749 30.6771C9.6458 30.5932 9.68524 30.5093 9.73371 30.4048C9.64294 30.3528 9.57301 30.3082 9.49972 30.2709C9.24161 30.1402 8.98013 30.0168 8.72459 29.8818C8.63098 29.8324 8.55029 29.7574 8.48153 29.7068C8.47831 29.56 8.53575 29.5088 8.63914 29.5252C8.72994 29.5402 8.82127 29.566 8.90703 29.6002C9.23097 29.7283 9.5526 29.8613 9.90409 30.0038C9.9655 29.882 10.0242 29.7734 10.0764 29.6617C10.3154 29.1534 10.5519 28.6444 10.7912 28.1362C10.8568 27.9971 10.8596 27.9983 11.002 27.9616C11.1114 28.0758 11.0279 28.1857 10.985 28.289C10.7522 28.8461 10.5137 29.401 10.2782 29.9568C10.2554 30.0109 10.2391 30.0674 10.2123 30.1444C10.5716 30.4071 11.01 30.5181 11.4002 30.763C11.3604 30.8489 11.3286 30.9175 11.2841 31.0135C10.8757 30.8496 10.4845 30.6926 10.0691 30.526C9.74246 31.2295 9.41879 31.9279 9.09365 32.6294Z" fill="white" fill-opacity="0.5"/>
<path d="M41.2067 50.1773C41.1414 50.4171 41.0674 50.6435 41.0186 50.875C40.8637 51.6095 40.8883 52.3251 41.242 53.011C41.3869 53.2919 41.6017 53.4218 41.9092 53.4434C42.242 53.4667 42.5205 53.3257 42.8049 53.1875C42.9868 53.0989 43.0629 52.9718 43.047 52.7618C42.979 51.8802 42.9234 50.9979 42.8637 50.1163C42.8577 50.0291 42.8529 49.9418 42.8458 49.8225C43.014 49.9077 43.0272 50.0353 43.045 50.1435C43.1196 50.6045 43.216 51.0661 43.2419 51.531C43.2957 52.5064 43.3011 53.4849 43.3446 54.4611C43.3659 54.9442 43.4103 55.4276 43.4749 55.9066C43.53 56.3132 43.6733 56.6988 43.8787 57.0564C44.3803 57.9307 45.3036 58.204 46.1742 57.6995C46.9657 57.2407 47.5379 56.5946 47.7785 55.6789C48.1043 54.4397 48.1971 53.1826 48.1152 51.9103C48.0563 50.9971 47.8978 50.1035 47.5239 49.2586C47.5015 49.2079 47.4955 49.1493 47.482 49.095C47.4972 49.0849 47.5126 49.0755 47.5276 49.0659C47.5867 49.1397 47.6653 49.2048 47.7021 49.2887C47.8447 49.615 48.015 49.9375 48.1018 50.2792C48.5858 52.1831 48.5697 54.0827 47.999 55.9705C47.9782 56.0393 47.9671 56.1109 47.9484 56.1928C48.6549 56.2403 49.2241 56.0346 49.623 55.4695C49.7687 55.2636 49.8835 55.0302 49.9785 54.7953C50.1784 54.3009 50.247 53.7765 50.2588 53.2468C50.2873 51.9665 50.0699 50.7209 49.6885 49.5036C49.0431 47.4454 47.9738 45.6187 46.6148 43.956C45.7815 42.9369 44.8487 42.0218 43.7335 41.3083C43.5349 41.1815 43.326 41.0708 43.167 40.9789C42.7501 41.1778 42.3862 41.3516 42.0155 41.5282C42.0152 41.5253 42.0115 41.5441 42.0184 41.5577C42.4207 42.3771 42.5963 43.2649 42.7778 44.1471C42.865 44.5691 42.9179 45.0079 42.9095 45.4381C42.896 46.1167 42.8354 46.7956 42.7615 47.471C42.6877 48.1426 42.518 48.7947 42.1896 49.3925C41.9791 49.7726 41.7175 50.1059 41.2067 50.1773Z" fill="white" fill-opacity="0.5"/>
<path d="M25.2107 38.828C25.216 38.8537 25.2212 38.8793 25.226 38.9047C25.1495 38.9339 25.0733 38.9648 24.9959 38.9925C24.836 39.0503 24.671 39.0965 24.5163 39.1656C22.6172 40.0135 21.1169 41.3368 19.9432 43.0384C19.4134 43.8063 19.3395 44.6734 19.5328 45.5589C19.7219 46.4258 20.4565 46.9154 21.3383 46.8099C21.6968 46.7668 22.0346 46.6516 22.358 46.4939C22.8806 46.2385 23.3489 45.9027 23.7994 45.536C24.564 44.9134 25.3305 44.2928 26.1169 43.6984C26.4949 43.413 26.9182 43.1862 27.3264 42.9418C27.4112 42.8911 27.5115 42.82 27.6725 42.9111C27.5101 43.022 27.3709 43.1115 27.2388 43.2094C26.5826 43.6945 25.9281 44.182 25.2735 44.6695C25.1841 44.7363 25.0911 44.807 25.1088 44.9367C25.1652 45.3466 25.2602 45.7398 25.5923 46.0301C25.7716 46.1867 25.9689 46.2483 26.205 46.1965C27.2205 45.974 27.9027 45.3447 28.3524 44.4364C28.3926 44.3556 28.3984 44.2323 28.3685 44.1467C28.2952 43.9365 28.2958 43.7291 28.3351 43.5181C28.3995 43.1719 28.5253 42.8491 28.6985 42.5422C28.9679 42.0645 29.3195 41.6504 29.6754 41.2376C30.9732 39.7293 32.6098 38.7543 34.4908 38.1587C34.527 38.1473 34.5585 38.121 34.5563 38.1222C34.4494 37.7214 34.3489 37.3473 34.2472 36.966C34.1918 36.9403 34.1321 36.9082 34.0688 36.8839C33.5105 36.6715 32.9358 36.5161 32.3455 36.4242C29.6357 36.0028 26.984 36.2688 24.3901 37.131C22.9981 37.5937 21.7176 38.276 20.5706 39.1969C20.0428 39.6206 19.5805 40.1033 19.2435 40.6982C18.7718 41.5312 18.8189 42.3196 19.3923 42.9985C19.4277 43.0403 19.4754 43.0718 19.5143 43.1058C19.5428 43.0837 19.5601 43.0762 19.5684 43.063C19.6379 42.956 19.7028 42.8458 19.7748 42.7405C20.7995 41.2543 22.1251 40.1102 23.7222 39.2764C24.0931 39.0827 24.4818 38.9326 24.8957 38.856C24.9992 38.8377 25.1059 38.8374 25.2107 38.828Z" fill="white" fill-opacity="0.5"/>
<path d="M27.4343 46.1847C27.3041 46.2453 27.2309 46.2865 27.1534 46.3141C26.8582 46.4197 26.5655 46.5387 26.2633 46.6201C25.9092 46.7155 25.5922 46.6106 25.3186 46.3667C25.0849 46.1584 24.9029 45.9172 24.8152 45.6131C24.7967 45.5482 24.7971 45.4782 24.7821 45.3592C24.6408 45.4615 24.5681 45.5135 24.4961 45.5663C24.0439 45.8985 23.6015 46.2452 23.1369 46.56C22.6541 46.8869 22.1228 47.1178 21.5439 47.2195C21.1433 47.2901 20.7463 47.2828 20.3645 47.1247C19.6745 46.8391 19.2611 46.32 19.1018 45.5972C18.9615 44.96 19.0105 44.3288 19.1836 43.7037C19.2018 43.6382 19.2212 43.5726 19.2383 43.5071C19.2448 43.4824 19.2456 43.4569 19.251 43.419C19.226 43.3859 19.2007 43.3416 19.1656 43.3066C18.4781 42.6295 18.3096 41.824 18.6664 40.9267C18.8967 40.3476 19.2534 39.8545 19.6919 39.4171C20.5212 38.5909 21.4949 37.9724 22.5331 37.4484C22.8136 37.3067 23.105 37.1855 23.391 37.0535C23.4417 37.03 23.489 37.0006 23.5916 36.9449C23.4836 36.9384 23.4362 36.9309 23.3892 36.9334C22.0044 37.0089 20.793 36.5518 19.7184 35.7102C17.8343 34.2355 16.3713 32.4241 15.4415 30.2098C14.932 28.9972 14.6791 27.7245 14.6839 26.4035C14.688 25.3234 15.0062 24.3425 15.6005 23.4488C15.9254 22.9598 16.2563 22.4747 16.6011 22C17.1035 21.3083 17.3302 20.538 17.2464 19.6928C17.1707 18.9231 17.0652 18.1557 16.9461 17.3914C16.7944 16.4164 16.6065 15.4467 16.4518 14.472C16.3419 13.7821 16.2959 13.0853 16.338 12.3857C16.3813 11.6607 16.5392 10.9696 16.9773 10.3701C17.5767 9.54994 18.3929 9.14619 19.4037 9.12812C20.1326 9.11526 20.8198 9.30564 21.481 9.59004C22.4957 10.0272 23.4168 10.6209 24.2807 11.3058C25.7356 12.4589 26.9947 13.8058 28.1567 15.2452C31.0729 18.8568 33.5095 22.7725 35.5187 26.954C36.0713 28.1044 36.5702 29.28 37.0937 30.4444C37.1319 30.529 37.1685 30.6144 37.2026 30.6921C37.236 30.6927 37.256 30.6997 37.2674 30.6929C37.7441 30.4128 38.2176 30.1275 38.6962 29.8517C38.9629 29.6981 39.0945 29.4404 39.242 29.1923C39.4156 28.9 39.5723 28.5954 39.7672 28.3179C40.2372 27.6482 40.8511 27.1971 41.6964 27.1238C41.831 27.1122 41.9639 27.0816 42.1319 27.054C42.2133 26.7725 42.3034 26.4911 42.3761 26.2056C42.9154 24.0945 43.1065 21.9545 42.8845 19.7833C42.7088 18.0665 42.2755 16.4203 41.5098 14.8681C41.4657 14.7786 41.4174 14.691 41.3604 14.5828C41.2906 14.6416 41.2405 14.6841 41.1902 14.726C40.7471 15.0922 40.2392 15.3169 39.6747 15.417C39.6248 15.4259 39.5727 15.4299 39.5223 15.4265C39.3464 15.414 39.2773 15.3118 39.3409 15.1507C39.3686 15.0813 39.4082 15.0102 39.4595 14.9566C39.8846 14.5174 40.2922 14.0574 40.8643 13.7239C40.7457 13.5496 40.6299 13.3788 40.5059 13.196C40.3643 13.3264 40.2522 13.455 40.1164 13.5501C39.7213 13.827 39.2776 13.9991 38.8086 14.1054C38.6598 14.1392 38.5085 14.1463 38.3491 14.0244C38.3956 13.9443 38.4213 13.8602 38.4772 13.8099C38.8683 13.457 39.2637 13.1079 39.6632 12.7645C39.7515 12.6883 39.8616 12.6367 39.9941 12.5534C39.8205 12.3608 39.6545 12.1767 39.473 11.9749C38.9895 12.539 38.3903 12.8677 37.6902 13.0115C37.608 13.0281 37.5142 12.9896 37.3856 12.9703C37.4461 12.8398 37.4717 12.7286 37.5376 12.6519C37.917 12.2064 38.2774 11.7411 38.7747 11.352C38.6264 11.2335 38.4882 11.123 38.3394 11.0044C37.9454 11.6314 37.3311 11.8868 36.7145 12.1351C36.5597 12.1976 36.3995 12.2238 36.2741 12.0547C36.2447 11.8964 36.3305 11.7793 36.4303 11.6737C36.7965 11.2839 37.1659 10.8979 37.5584 10.485C37.4054 10.4003 37.2409 10.3096 37.0487 10.2035C37.0159 10.6676 36.7392 10.9332 36.4084 11.1394C36.1143 11.3223 35.795 11.4654 35.4844 11.6219C35.4325 11.6481 35.3709 11.6582 35.3125 11.6687C35.1912 11.6909 35.0716 11.694 34.9903 11.5773C34.9161 11.4706 34.9516 11.3655 35.0078 11.2656C35.0412 11.2066 35.0749 11.1459 35.1191 11.0958C35.4787 10.6869 35.8415 10.2818 36.2869 9.96082C36.306 9.94703 36.3192 9.92444 36.3596 9.87796C36.1179 9.78692 35.8921 9.70215 35.6654 9.61695C35.3255 10.4182 34.6015 10.6885 33.8916 10.9736C33.7711 11.0216 33.6403 11.0273 33.5274 10.9147C33.5033 10.7749 33.5981 10.6857 33.6837 10.5928C34.046 10.1996 34.4088 9.80664 34.7867 9.39637C34.5224 9.29928 34.2548 9.25476 33.9619 9.23721C33.9678 9.62488 33.7321 9.83543 33.4442 10.0063C33.0848 10.2192 32.7202 10.4219 32.3103 10.5235C32.1031 10.5749 32.0298 10.5625 31.8527 10.4489C31.9121 10.3626 31.9612 10.2672 32.0312 10.1925C32.3283 9.87681 32.6317 9.56785 32.9327 9.2556C32.956 9.23159 32.9774 9.20562 33.0362 9.13954C32.8293 9.12594 32.6615 9.11499 32.4857 9.10362C32.2364 9.38631 31.9053 9.46204 31.5584 9.45864C31.1343 9.45484 30.7099 9.42931 30.2865 9.39657C30.167 9.38756 30.052 9.32102 29.9589 9.28947C29.8876 9.07524 30.0137 9.01165 30.1331 8.97201C30.4388 8.87014 30.7463 8.76193 31.0612 8.69857C31.3256 8.64545 31.6018 8.63928 31.873 8.63684C32.0046 8.63541 32.1585 8.65596 32.2644 8.72546C32.5298 8.89874 32.7987 8.81791 33.1259 8.80777C32.7969 8.46419 32.5036 8.15812 32.2109 7.8518C32.1406 7.77833 32.0648 7.70839 32.0021 7.62909C31.9259 7.53248 31.9116 7.42865 32.0164 7.32533C32.1834 7.25693 32.3465 7.31981 32.5013 7.38382C32.9282 7.56017 33.3209 7.79738 33.6762 8.09355C33.9029 8.28255 34.0639 8.50242 33.9911 8.84647C34.2565 8.88277 34.5111 8.91737 34.7979 8.9564C34.7684 8.86155 34.7555 8.79758 34.7289 8.74053C34.6003 8.46276 34.4628 8.18861 34.3384 7.90892C34.2728 7.762 34.2179 7.60893 34.1756 7.45348C34.1358 7.30691 34.1736 7.18249 34.3373 7.1319C34.9313 7.24702 35.6598 8.35625 35.6564 9.15605C35.8486 9.21806 36.0462 9.28148 36.2601 9.35024C36.2124 8.82996 36.1672 8.34839 36.1251 7.86606C36.1151 7.7565 36.1017 7.64368 36.1162 7.53609C36.126 7.46495 36.1819 7.4003 36.2394 7.29053C36.3632 7.38932 36.4713 7.44552 36.5376 7.53368C36.8891 8.00035 37.1607 8.51287 37.2895 9.08344C37.3357 9.28765 37.2808 9.51459 37.27 9.7808C37.3823 9.83285 37.5455 9.9085 37.7356 9.99658C37.7861 9.65991 37.8323 9.31845 37.8895 8.97934C37.9463 8.64339 37.8855 8.28491 38.0269 7.99533C38.2064 7.90952 38.2929 7.98498 38.3479 8.08446C38.4173 8.20997 38.4881 8.34328 38.5162 8.48167C38.5984 8.88099 38.6702 9.28263 38.7261 9.68631C38.7663 9.97612 38.7034 10.2463 38.4334 10.4714C38.6774 10.6612 38.9048 10.8378 39.1354 11.0171C39.3274 10.4135 39.5099 9.83369 39.6975 9.2551C39.726 9.16727 39.766 9.07977 39.819 9.00489C39.9167 8.86792 40.0528 8.86142 40.1559 8.99647C40.221 9.0813 40.2732 9.18782 40.2958 9.29162C40.4176 9.8523 40.3773 10.4075 40.2061 10.9533C40.1258 11.2099 39.9471 11.3834 39.6764 11.5003C39.8737 11.7072 40.0521 11.8943 40.2562 12.1082C40.507 11.6898 40.7465 11.2922 40.9845 10.8932C41.0631 10.7618 41.128 10.6218 41.2148 10.4963C41.34 10.3157 41.5465 10.3408 41.6243 10.5458C41.6567 10.631 41.6708 10.7292 41.6677 10.8205C41.6497 11.3562 41.5261 11.8683 41.2508 12.3289C41.1517 12.4951 40.9779 12.6173 40.8139 12.7842C40.9327 12.9508 41.0723 13.1465 41.2251 13.3603C41.4713 13.0768 41.7008 12.8176 41.9253 12.5538C42.1432 12.298 42.2876 11.9783 42.5719 11.7903C42.795 11.8617 42.84 11.8946 42.8356 12.0865C42.8308 12.2886 42.8139 12.4967 42.7595 12.6902C42.6885 12.9423 42.5894 13.1896 42.4762 13.4266C42.3196 13.7549 42.1067 14.039 41.7062 14.1323C41.8034 14.3182 41.8916 14.4817 41.9761 14.6473C42.9736 16.6146 43.4628 18.7132 43.5888 20.9056C43.6955 22.7594 43.5141 24.5891 43.121 26.4001C43.1014 26.4899 43.0862 26.58 43.065 26.6889C44.1007 26.573 44.9007 26.8726 45.3368 27.9037C45.407 27.8214 45.4677 27.7573 45.5208 27.688C47.1359 25.5785 49.0474 23.8018 51.3706 22.4905C52.6985 21.7407 54.1021 21.185 55.6007 20.8805C55.6587 20.8687 55.7151 20.8518 55.7785 20.8354C55.5368 20.1247 55.8991 19.5801 56.2616 19.0423C56.3643 18.8899 56.5076 18.7619 56.6453 18.6375C56.7584 18.5352 56.8899 18.5233 57.0258 18.6614C57.072 19.0015 56.9119 19.3255 56.859 19.6649C56.807 19.9987 56.7559 20.3329 56.6991 20.6998C56.9576 20.6794 57.1965 20.6608 57.4553 20.6411C57.2995 20.074 57.5975 19.6659 57.8772 19.2614C58.016 19.0607 58.1947 18.8861 58.3666 18.7107C58.4293 18.6469 58.52 18.599 58.6064 18.5722C58.8026 18.5123 58.9455 18.652 58.8925 18.8522C58.8534 18.9998 58.7889 19.14 58.739 19.2848C58.5875 19.7249 58.4378 20.1658 58.2794 20.6303C58.5704 20.6481 58.8292 20.6642 59.1182 20.6817C58.9597 20.1979 59.1816 19.8478 59.4804 19.5428C59.7226 19.2955 59.9934 19.0736 60.2657 18.8591C60.3682 18.7785 60.5077 18.7288 60.6375 18.7028C60.8824 18.6534 61.0023 18.7962 60.912 19.0267C60.8566 19.1678 60.7719 19.2981 60.693 19.4289C60.5214 19.7122 60.3475 19.9944 60.1695 20.2737C60.066 20.4361 59.9527 20.5924 59.8401 20.7567C59.8598 20.7702 59.8779 20.7919 59.8998 20.7971C60.1559 20.8523 60.4126 20.905 60.6959 20.9634C60.7066 20.484 61.0376 20.2513 61.3867 20.0497C61.724 19.8548 62.075 19.68 62.4313 19.5215C62.6309 19.4329 62.7021 19.4675 62.8422 19.5965C62.8674 19.7496 62.7665 19.842 62.6724 19.9426C62.3069 20.3332 61.9444 20.7268 61.5819 21.1205C61.5606 21.1438 61.5476 21.1742 61.5281 21.2055C61.6968 21.2837 61.8559 21.3574 62.0391 21.4423C62.2642 20.9342 62.7291 20.8033 63.1926 20.684C63.4798 20.61 63.7744 20.5571 64.0687 20.5179C64.2047 20.4998 64.3482 20.537 64.457 20.5466C64.5501 20.6792 64.5405 20.7631 64.4552 20.834C64.3705 20.9047 64.2854 20.9751 64.1953 21.0383C63.8001 21.318 63.4032 21.5952 62.9729 21.8967C63.1605 22.0151 63.3341 22.1254 63.5196 22.2423C63.793 21.91 64.1718 21.8399 64.5518 21.7885C64.8287 21.7511 65.1106 21.7376 65.3902 21.7324C65.5796 21.7291 65.7603 21.7825 65.9009 21.92C65.9747 22.0812 65.909 22.1933 65.7713 22.2592C65.6265 22.3285 65.4735 22.3857 65.3194 22.4309C65.0421 22.5122 64.761 22.5824 64.4808 22.653C64.4003 22.6731 64.3164 22.6801 64.2341 22.6933C64.2356 22.7211 64.2377 22.7486 64.2392 22.7763C64.4242 22.9455 64.6093 23.1146 64.8091 23.2973C65.1039 22.9496 65.4759 23.0038 65.8427 23.1119C66.1842 23.2128 66.5193 23.3383 66.8499 23.4711C67.0217 23.5402 67.1829 23.6415 67.2595 23.8194C67.2488 23.9818 67.1508 24.0336 67.0173 24.0358C66.924 24.0368 66.8309 24.0267 66.7375 24.021C66.3146 23.9945 65.8916 23.968 65.4105 23.9383C65.6136 24.1949 65.7199 24.454 66.025 24.5407C66.1391 24.5732 66.2456 24.67 66.331 24.761C66.7503 25.2099 67.0361 25.7384 67.2191 26.3231C67.2432 26.401 67.2433 26.4867 67.2596 26.6075C67.1611 26.6176 67.0841 26.6382 67.0114 26.6283C66.9567 26.6212 66.9002 26.5823 66.8567 26.5439C66.4355 26.1703 66.0452 25.7685 65.7429 25.2898C65.6164 25.0898 65.5643 24.8684 65.6021 24.6319C65.4809 24.499 65.3681 24.3743 65.2195 24.211C65.173 24.6164 65.1316 24.975 65.0914 25.3335C65.0746 25.4854 65.0663 25.639 65.0408 25.7895C65.0295 25.8555 64.9853 25.9162 64.9552 25.9812C64.7739 25.9397 64.704 25.819 64.6458 25.6992C64.412 25.218 64.2986 24.7049 64.2669 24.1738C64.2528 23.9397 64.3507 23.7453 64.56 23.5701C64.3378 23.3881 64.1317 23.2191 63.8937 23.0238C63.8775 23.1063 63.8662 23.1497 63.861 23.1942C63.8009 23.7004 63.7451 24.207 63.6803 24.7126C63.6679 24.8085 63.6215 24.9002 63.5921 24.9899C63.4102 25.0011 63.3275 24.9054 63.2769 24.7847C63.0395 24.2196 62.9165 23.6307 62.9711 23.017C62.9848 22.8637 63.0764 22.7173 63.1466 22.5289C62.9527 22.4181 62.737 22.2949 62.5297 22.1762C62.4879 22.7047 62.4536 23.2113 62.4056 23.7164C62.3919 23.8581 62.3545 24.0031 62.2976 24.1331C62.1978 24.3613 61.9886 24.3743 61.8462 24.1691C61.798 24.1003 61.7631 24.0207 61.7314 23.9425C61.5903 23.5915 61.5198 23.2253 61.4977 22.8488C61.4773 22.4925 61.4996 22.1477 61.8139 21.8544C61.6071 21.7739 61.4327 21.7058 61.2675 21.6414C61.2067 22.197 61.1486 22.7191 61.0921 23.2413C61.076 23.3879 61.0436 23.5259 60.9211 23.6293C60.7165 23.6714 60.632 23.5406 60.5619 23.3844C60.2959 22.7905 60.2136 22.041 60.3562 21.383C60.1867 21.347 60.0177 21.3112 59.8463 21.2748C59.812 21.6395 59.7947 21.9844 59.7431 22.3244C59.6917 22.6629 59.6867 23.0168 59.5199 23.3327C59.3419 23.3402 59.2655 23.2286 59.2135 23.1178C58.9408 22.5397 58.765 21.9418 58.8857 21.2919C58.8919 21.2594 58.8913 21.226 58.8961 21.1669C58.6427 21.119 58.3923 21.1218 58.1494 21.1263C58.1555 21.4969 58.1756 21.8586 58.1621 22.2191C58.1485 22.5784 58.1958 22.946 58.069 23.3423C57.9835 23.3027 57.9136 23.2902 57.8754 23.2487C57.7904 23.1558 57.6929 23.0587 57.6518 22.9446C57.517 22.5695 57.3853 22.191 57.2927 21.8045C57.2449 21.605 57.2816 21.3851 57.2803 21.1498C57.0755 21.1709 56.869 21.1922 56.6562 21.214C56.7709 21.852 56.6884 22.4517 56.6264 23.0515C56.6111 23.2012 56.5907 23.3823 56.4067 23.4147C56.231 23.4459 56.1648 23.2788 56.0979 23.1561C55.8239 22.6547 55.666 22.122 55.6859 21.5441C55.6871 21.5032 55.6821 21.4628 55.6783 21.3887C55.523 21.4261 55.3853 21.4573 55.2483 21.4932C53.3766 21.9793 51.6915 22.848 50.151 24.0029C48.4903 25.248 47.0871 26.7394 45.9291 28.4621C45.8722 28.5468 45.8139 28.6308 45.7598 28.7167C45.7418 28.7448 45.7334 28.7785 45.7141 28.8248C45.7473 28.8843 45.7785 28.954 45.8213 29.0153C46.284 29.6793 46.3267 30.4105 46.1427 31.1663C46.0625 31.4953 45.9418 31.8166 45.8168 32.1326C45.6665 32.5141 45.5982 32.8879 45.7013 33.3007C45.8097 33.7364 45.8636 34.1861 45.9473 34.6657C46.0387 34.6412 46.1336 34.62 46.226 34.5911C48.1753 33.9768 50.143 33.4314 52.1399 32.9944C56.2009 32.1069 60.3052 31.5846 64.4664 31.5709C66.1977 31.5654 67.9174 31.6991 69.6098 32.0909C70.5161 32.3005 71.3968 32.5894 72.2325 33.0027C72.8159 33.2908 73.3566 33.6435 73.8011 34.1263C74.5377 34.9261 74.8308 35.8523 74.584 36.927C74.451 37.506 74.1507 37.9953 73.7578 38.4318C73.276 38.9674 72.719 39.4172 72.1105 39.7946C71.1637 40.3825 70.2011 40.9448 69.2413 41.5118C68.5598 41.9145 67.8806 42.3182 67.2492 42.7998C66.5952 43.2981 66.1509 43.9289 65.9552 44.7313C65.8847 45.0206 65.81 45.3091 65.7282 45.5953C65.6116 46.0041 65.4971 46.4144 65.3633 46.8174C65.0406 47.7913 64.446 48.5749 63.6529 49.2147C62.5921 50.0712 61.405 50.6935 60.0942 51.0564C57.8632 51.6742 55.6104 51.717 53.3502 51.2145C52.0598 50.9279 50.977 50.3006 50.1664 49.2373C50.1372 49.199 50.1008 49.1655 50.0256 49.1467C50.0503 49.2316 50.0735 49.3163 50.0995 49.4007C50.4822 50.6628 50.7144 51.948 50.6808 53.2717C50.6621 54.002 50.5355 54.7099 50.1945 55.367C50.0195 55.704 49.7926 55.9993 49.4834 56.2232C49.0813 56.514 48.6341 56.6459 48.1365 56.5898C48.061 56.5813 47.9855 56.575 47.8951 56.5662C47.8348 56.6499 47.7748 56.7303 47.7181 56.8134C47.3634 57.3344 46.927 57.7695 46.3728 58.0776C45.3055 58.6703 44.1274 58.3486 43.5086 57.2946C43.2687 56.8863 43.1226 56.4436 43.0318 55.9806C42.9064 55.3431 42.8799 54.6974 42.8621 54.0506C42.8591 53.9344 42.8498 53.8185 42.7915 53.6369C42.7277 53.6791 42.6692 53.7376 42.599 53.7603C42.4547 53.8083 42.3059 53.8564 42.1557 53.8707C41.4741 53.9375 41.0731 53.7053 40.7989 53.0789C40.704 52.862 40.6419 52.63 40.5666 52.4041C40.543 52.3335 40.5245 52.2614 40.4869 52.1329C40.4106 52.2605 40.3631 52.3451 40.3108 52.4269C40.147 52.6851 39.9994 52.9558 39.8122 53.1965C39.45 53.6621 39.2343 53.7759 38.6408 53.8769C38.5554 54.0135 38.4614 54.1638 38.3679 54.3143C37.7763 55.264 37.0477 56.0889 36.1222 56.7237C35.8726 56.8952 35.5898 57.0253 35.3082 57.1406C35.0176 57.2599 34.7085 57.2476 34.3981 57.144C34.2897 57.2385 34.1858 57.3245 34.0867 57.4155C33.7157 57.7561 33.3222 58.0653 32.8823 58.3137C32.3649 58.6052 31.825 58.7847 31.2171 58.6592C31.157 58.7341 31.1045 58.7998 31.0515 58.8652C30.6339 59.3814 30.1402 59.8042 29.5394 60.0947C29.4632 60.1317 29.3839 60.1645 29.3036 60.1925C28.9068 60.3322 28.6827 60.251 28.5392 59.8503C28.4346 59.5577 28.3704 59.2435 28.3379 58.9335C28.2914 58.4928 28.3233 58.0498 28.4295 57.6157C28.4413 57.5665 28.4454 57.5159 28.4516 57.4752C28.4396 57.4497 28.4366 57.4301 28.4253 57.4199C28.0021 57.052 27.7769 56.5787 27.6662 56.0369C27.565 55.5415 27.5338 55.0427 27.5512 54.5394C27.5568 54.3785 27.5592 54.2172 27.5626 54.0752C27.5416 54.0417 27.5361 54.0215 27.5235 54.014C27.1078 53.7683 26.9331 53.3742 26.8433 52.9244C26.7378 52.3955 26.7024 51.8617 26.7414 51.3247C26.8028 50.4893 26.9584 49.6722 27.2486 48.8839C27.2719 48.8207 27.2885 48.7549 27.3088 48.6886C27.293 48.6548 27.2832 48.621 27.2638 48.5949C27.0344 48.2798 26.9657 47.9226 27.0401 47.5512C27.11 47.2025 27.2221 46.8618 27.3184 46.5182C27.349 46.4224 27.3851 46.3303 27.4343 46.1847ZM43.4779 40.6761C43.5556 40.7265 43.6054 40.7573 43.6542 40.7904C44.0761 41.0765 44.5191 41.336 44.9149 41.6548C46.2238 42.7105 47.2944 43.9826 48.207 45.3893C48.8874 46.4381 49.5517 47.4977 50.2303 48.5478C50.9982 49.7366 52.0833 50.4721 53.4632 50.7742C55.6566 51.254 57.8414 51.2184 60.0041 50.6097C61.3221 50.2387 62.5112 49.6046 63.5547 48.7081C64.2366 48.1222 64.7238 47.4047 64.9903 46.5474C65.1696 45.971 65.3353 45.3895 65.4773 44.8031C65.7284 43.7657 66.265 42.9297 67.1488 42.3242C67.4856 42.0931 67.8163 41.8515 68.1654 41.6416C68.9166 41.1901 69.6842 40.766 70.4336 40.312C71.0734 39.9242 71.7068 39.5241 72.3259 39.1036C72.8265 38.7634 73.278 38.3602 73.6469 37.874C74.5018 36.7469 74.4213 35.3869 73.4331 34.3733C73.2676 34.2037 73.0855 34.0459 72.8936 33.9072C72.0817 33.321 71.1589 32.9729 70.2079 32.695C68.8779 32.3067 67.5123 32.131 66.1335 32.0531C63.8337 31.9233 61.5419 32.0573 59.2538 32.2848C54.7907 32.728 50.4362 33.6937 46.1563 35.0144C46.0854 35.0362 46.0171 35.0681 45.9366 35.0998C45.8341 37.2692 44.9659 39.0959 43.4779 40.6761ZM36.9041 30.9978C36.8641 30.8969 36.8306 30.8013 36.7893 30.7093C36.3662 29.7703 35.9555 28.8261 35.5154 27.8953C33.4937 23.6169 31.0553 19.5943 28.1128 15.8832C26.9959 14.4741 25.7973 13.1409 24.4179 11.9797C23.4101 11.1309 22.3269 10.4008 21.0972 9.90811C20.5475 9.68811 19.9786 9.54758 19.3819 9.56706C18.2878 9.60285 17.5166 10.1324 17.061 11.1213C16.8621 11.5527 16.7985 12.0176 16.7764 12.4873C16.7396 13.2732 16.82 14.0517 16.9499 14.8249C17.1215 15.8489 17.3107 16.8694 17.4872 17.8923C17.6057 18.5802 17.6922 19.272 17.7008 19.9719C17.7103 20.7556 17.487 21.465 17.0503 22.1104C16.7118 22.6108 16.3646 23.1049 16.0263 23.6048C15.4067 24.5199 15.0995 25.5258 15.134 26.6369C15.1669 27.685 15.3531 28.7036 15.7235 29.681C16.6005 31.9941 18.0867 33.8554 20.0237 35.3685C20.7028 35.8992 21.4587 36.281 22.3206 36.4209C22.9658 36.5256 23.6098 36.4872 24.2527 36.398C25.1629 36.2714 26.0717 36.1398 26.9826 36.0191C28.1043 35.8702 29.2279 35.7625 30.3633 35.8093C31.6618 35.8627 32.9415 36.0068 34.1616 36.4928C34.19 36.5043 34.2252 36.4986 34.2776 36.5024C34.341 35.4421 34.6479 34.4593 35.0755 33.506C35.5065 32.5426 36.1512 31.7391 36.9041 30.9978ZM41.4475 41.2318C41.5393 41.06 41.6612 41.0889 41.7799 41.0782C41.963 41.0609 42.1607 41.0515 42.3212 40.9734C42.5711 40.8523 42.8072 40.6922 43.0274 40.5209C43.4606 40.1832 43.8048 39.76 44.106 39.3032C44.6953 38.4082 45.1638 37.4606 45.3709 36.3967C45.55 35.4751 45.5919 34.5567 45.3546 33.6387C45.3313 33.5484 45.3291 33.4518 45.3011 33.3632C45.1517 32.8897 45.2447 32.4435 45.4189 31.9951C45.5536 31.6472 45.6811 31.291 45.7596 30.9275C45.8875 30.3345 45.8154 29.7681 45.4688 29.2407C45.2791 28.9518 45.111 28.6353 45.0074 28.3072C44.8906 27.9372 44.6733 27.6564 44.3939 27.4203C43.9517 27.0469 43.45 26.9712 42.9188 27.2199C42.5522 27.3913 42.1708 27.51 41.7701 27.5451C41.0212 27.6106 40.4892 28.0124 40.0836 28.6087C39.9118 28.8615 39.7582 29.1284 39.6149 29.3983C39.3973 29.8083 39.1119 30.1344 38.6805 30.3371C37.6669 30.8128 36.8351 31.5159 36.1738 32.4184C35.4625 33.3882 35.0206 34.4774 34.7738 35.6488C34.6517 36.2279 34.6197 36.8106 34.7435 37.3966C34.7959 37.6445 34.8804 37.8698 35.0727 38.0435C35.1603 38.1227 35.2181 38.2113 35.1515 38.3633C35.0904 38.3808 35.0107 38.4024 34.9325 38.427C34.5518 38.5454 34.1557 38.6302 33.7937 38.7916C33.2505 39.033 32.723 39.3143 32.2038 39.605C31.894 39.779 31.5982 39.9859 31.3216 40.2096C30.6037 40.7887 29.9687 41.452 29.4144 42.1892C29.1635 42.5231 28.9322 42.8732 28.8224 43.2829C28.7856 43.4194 28.7654 43.5691 28.7785 43.7088C28.8065 44.0095 28.9772 44.1488 29.2772 44.1272C29.4201 44.1167 29.57 44.0961 29.7006 44.0418C30.0769 43.8853 30.4542 43.7266 30.8131 43.5351C31.0969 43.3839 31.3532 43.1812 31.6242 43.0053C31.7489 42.9244 31.872 42.8186 32.0656 42.9287C32.042 43.0321 32.029 43.1399 31.9921 43.2387C31.8708 43.5658 31.7378 43.8886 31.6161 44.2155C31.4554 44.6469 31.3107 45.0829 31.2985 45.5501C31.2907 45.8518 31.3283 46.1449 31.4806 46.4132C31.7195 46.8332 32.0732 46.9519 32.4894 46.7129C32.7453 46.5658 32.9932 46.3897 33.2066 46.1865C33.5383 45.8713 33.8401 45.5252 34.1487 45.186C34.2755 45.0471 34.2922 45.0361 34.4798 45.1401C34.4644 45.2209 34.4555 45.3128 34.4278 45.3977C34.3937 45.5023 34.3412 45.6011 34.3008 45.7039C34.2005 45.9595 34.1332 46.2227 34.1542 46.5003C34.1906 46.9878 34.4862 47.2783 34.9719 47.3123C35.228 47.3305 35.4669 47.2728 35.6728 47.1241C35.8653 46.9852 36.0477 46.8312 36.2239 46.6715C36.3747 46.5343 36.5052 46.3755 36.653 46.2353C36.81 46.086 36.9112 46.0893 37.1235 46.2473C37.1023 46.3717 37.0843 46.513 37.0525 46.6507C36.9566 47.0674 36.898 47.4882 36.9317 47.9158C36.9634 48.3193 37.0559 48.7074 37.2901 49.0468C37.526 49.3887 37.9035 49.4797 38.2492 49.2511C38.4286 49.1321 38.5926 48.9678 38.7169 48.7913C38.8821 48.5564 39.0063 48.292 39.1386 48.0352C39.2595 47.8007 39.3601 47.5562 39.4832 47.3228C39.5435 47.2082 39.6087 47.0722 39.7846 47.1085C39.8928 47.1945 39.8686 47.3098 39.8678 47.4177C39.8649 47.8731 39.9266 48.3192 40.1078 48.7396C40.2672 49.1083 40.5102 49.4121 40.8833 49.5867C41.1857 49.7279 41.4584 49.677 41.6533 49.41C41.8115 49.1928 41.9663 48.9553 42.0474 48.7029C42.1894 48.2595 42.3052 47.8023 42.377 47.3424C42.5498 46.2367 42.6184 45.1258 42.3675 44.0192C42.2772 43.6206 42.1816 43.2239 42.09 42.8258C41.9786 42.3417 41.8009 41.8827 41.5569 41.4498C41.514 41.378 41.4816 41.3012 41.4475 41.2318ZM41.2066 50.1772C41.1413 50.417 41.0673 50.6434 41.0186 50.8749C40.8637 51.6095 40.8882 52.325 41.2419 53.0109C41.3868 53.2918 41.6016 53.4217 41.9092 53.4433C42.2419 53.4666 42.5204 53.3256 42.8049 53.1874C42.9868 53.0988 43.0628 52.9717 43.0469 52.7617C42.9789 51.8801 42.9234 50.9978 42.8636 50.1163C42.8577 50.029 42.8528 49.9417 42.8457 49.8224C43.0139 49.9076 43.0271 50.0352 43.0449 50.1434C43.1195 50.6044 43.2159 51.066 43.2418 51.5309C43.2956 52.5063 43.3011 53.4848 43.3446 54.461C43.3658 54.9441 43.4102 55.4275 43.4748 55.9065C43.5299 56.3131 43.6732 56.6988 43.8786 57.0563C44.3803 57.9306 45.3035 58.2039 46.1741 57.6994C46.9656 57.2406 47.5379 56.5945 47.7784 55.6788C48.1042 54.4396 48.197 53.1825 48.1151 51.9102C48.0562 50.997 47.8977 50.1034 47.5238 49.2585C47.5015 49.2078 47.4955 49.1492 47.482 49.0949C47.4971 49.0849 47.5126 49.0754 47.5275 49.0658C47.5866 49.1396 47.6653 49.2047 47.702 49.2886C47.8447 49.6149 48.015 49.9374 48.1018 50.2791C48.5857 52.183 48.5696 54.0826 47.9989 55.9704C47.9781 56.0392 47.967 56.1108 47.9483 56.1927C48.6548 56.2402 49.224 56.0345 49.6229 55.4694C49.7686 55.2635 49.8834 55.0301 49.9785 54.7953C50.1784 54.3008 50.2469 53.7764 50.2588 53.2467C50.2872 51.9664 50.0698 50.7208 49.6885 49.5035C49.043 47.4453 47.9737 45.6186 46.6147 43.9559C45.7815 42.9368 44.8486 42.0217 43.7334 41.3082C43.5348 41.1814 43.326 41.0707 43.167 40.9788C42.75 41.1777 42.3862 41.3515 42.0154 41.5281C42.0151 41.5252 42.0114 41.544 42.0183 41.5577C42.4206 42.377 42.5962 43.2648 42.7777 44.147C42.8649 44.569 42.9178 45.0078 42.9095 45.438C42.896 46.1166 42.8354 46.7955 42.7615 47.4709C42.6876 48.1425 42.518 48.7946 42.1895 49.3924C41.9791 49.7725 41.7175 50.1058 41.2066 50.1772ZM25.2107 38.8281C25.2159 38.8537 25.2212 38.8793 25.226 38.9047C25.1495 38.9339 25.0733 38.9649 24.9958 38.9925C24.8359 39.0504 24.6709 39.0965 24.5163 39.1657C22.6172 40.0136 21.1168 41.3368 19.9432 43.0385C19.4133 43.8063 19.3395 44.6735 19.5327 45.5589C19.7219 46.4258 20.4565 46.9155 21.3382 46.81C21.6968 46.7668 22.0346 46.6517 22.3579 46.4939C22.8806 46.2385 23.3488 45.9027 23.7993 45.536C24.564 44.9134 25.3305 44.2928 26.1168 43.6985C26.4949 43.4131 26.9182 43.1862 27.3263 42.9418C27.4111 42.8911 27.5115 42.82 27.6725 42.9112C27.5101 43.022 27.3708 43.1116 27.2388 43.2094C26.5826 43.6945 25.928 44.182 25.2735 44.6696C25.184 44.7363 25.091 44.807 25.1088 44.9367C25.1651 45.3467 25.2601 45.7398 25.5923 46.0301C25.7715 46.1867 25.9689 46.2483 26.205 46.1965C27.2205 45.974 27.9027 45.3447 28.3524 44.4364C28.3926 44.3556 28.3983 44.2324 28.3684 44.1467C28.2952 43.9366 28.2958 43.7292 28.335 43.5182C28.3994 43.1719 28.5253 42.8491 28.6984 42.5423C28.9679 42.0646 29.3195 41.6504 29.6754 41.2376C30.9731 39.7294 32.6098 38.7543 34.4908 38.1587C34.527 38.1473 34.5585 38.121 34.5563 38.1222C34.4494 37.7214 34.3488 37.3473 34.2472 36.966C34.1917 36.9403 34.132 36.9082 34.0687 36.8839C33.5105 36.6715 32.9358 36.5162 32.3454 36.4242C29.6357 36.0028 26.984 36.2688 24.3901 37.131C22.9981 37.5938 21.7175 38.2761 20.5705 39.1969C20.0428 39.6206 19.5804 40.1033 19.2434 40.6982C18.7717 41.5312 18.8189 42.3196 19.3923 42.9985C19.4276 43.0403 19.4754 43.0718 19.5143 43.1059C19.5428 43.0837 19.56 43.0763 19.5684 43.063C19.6379 42.956 19.7027 42.8458 19.7747 42.7406C20.7994 41.2543 22.125 40.1102 23.7221 39.2764C24.093 39.0827 24.4818 38.9326 24.8956 38.856C24.9991 38.8377 25.1058 38.8375 25.2107 38.8281ZM37.0541 50.8489C37.2577 50.8494 37.3058 50.96 37.3128 51.0997C37.3232 51.3122 37.3245 51.5249 37.3344 51.7371C37.3517 52.124 37.4229 52.4983 37.6184 52.8391C37.9026 53.3354 38.378 53.4977 38.9054 53.2738C39.2924 53.1097 39.601 52.8479 39.8162 52.4848C40.1427 51.9342 40.4104 51.3552 40.6176 50.7498C40.6969 50.5192 40.748 50.2789 40.8161 50.0272C40.4557 49.8634 40.1808 49.6294 39.9619 49.3286C39.7396 49.0229 39.6236 48.6714 39.514 48.3025C39.4154 48.433 39.3476 48.5661 39.2759 48.6969C39.073 49.0668 38.8317 49.404 38.4591 49.6229C37.9186 49.9406 37.3072 49.813 36.9519 49.2987C36.8469 49.1462 36.7623 48.975 36.695 48.8019C36.4969 48.2903 36.4677 47.7587 36.5342 47.2185C36.5451 47.1307 36.5523 47.0424 36.5673 46.898C36.4475 47.0016 36.3781 47.0738 36.2973 47.1302C36.0544 47.2993 35.8258 47.5065 35.5574 47.6185C34.8607 47.9097 33.8151 47.6609 33.7414 46.5045C33.7382 46.4505 33.7203 46.3975 33.7038 46.3175C33.6046 46.4052 33.5332 46.4781 33.4518 46.5371C33.1775 46.7369 32.9167 46.9634 32.6194 47.1211C32.0599 47.4179 31.5002 47.243 31.1602 46.7088C31.0114 46.4746 30.9083 46.2192 30.8992 45.9433C30.8898 45.6561 30.8797 45.3587 30.9421 45.0822C31.0317 44.6863 31.1863 44.3051 31.3143 43.9182C31.3398 43.8416 31.371 43.7672 31.4211 43.6352C31.1947 43.7699 31.026 43.8812 30.8478 43.9737C30.2349 44.2927 29.621 44.614 28.8604 44.4675C28.6287 44.8506 28.3789 45.2252 28.1682 45.6213C27.8809 46.1625 27.6312 46.7228 27.5082 47.3302C27.4382 47.6755 27.478 48.0066 27.6267 48.3257C27.7579 48.6074 27.9776 48.7374 28.2844 48.694C28.4601 48.6689 28.6417 48.6393 28.8036 48.5724C29.204 48.4067 29.5955 48.2187 29.9899 48.0386C30.106 47.9858 30.2163 47.9171 30.3359 47.8759C30.5541 47.8008 30.7075 47.9321 30.6803 48.1636C30.6718 48.2392 30.6471 48.3128 30.6296 48.3876C30.4651 49.0867 30.4515 49.7869 30.6347 50.4843C30.7566 50.9483 30.9919 51.3462 31.357 51.663C31.7114 51.9697 32.1144 52.0559 32.5447 51.8782C32.7928 51.7756 33.0421 51.6415 33.2434 51.4669C33.5627 51.1891 33.8461 50.8698 34.1366 50.5598C34.3048 50.3804 34.4543 50.183 34.6177 49.9986C34.7095 49.8947 34.8183 49.8148 34.9753 49.8418C35.1092 49.9618 35.0492 50.1091 35.0331 50.2474C34.9986 50.5507 34.9403 50.8528 34.9298 51.1567C34.9204 51.439 34.9972 51.7143 35.1438 51.9617C35.2868 52.2025 35.4652 52.2786 35.7259 52.1762C35.8887 52.112 36.0601 52.0258 36.1796 51.9027C36.4326 51.6417 36.6542 51.3506 36.8869 51.0702C36.9505 50.9937 37.0064 50.9124 37.0541 50.8489ZM30.2116 48.4159C30.1061 48.4647 30.0325 48.5008 29.9575 48.5328C29.5737 48.6946 29.1949 48.8708 28.8036 49.012C28.4529 49.1383 28.0882 49.1615 27.7294 49.0167C27.7086 49.0081 27.6799 49.0175 27.6221 49.0195C27.5457 49.2701 27.4544 49.5255 27.3895 49.787C27.1735 50.6595 27.0524 51.5428 27.1738 52.4414C27.21 52.7089 27.2727 52.9787 27.3689 53.2299C27.5013 53.5746 27.7233 53.6891 28.0934 53.664C28.3706 53.645 28.6286 53.5519 28.8622 53.4089C29.1011 53.2628 29.3243 53.0912 29.5556 52.9328C29.6886 52.8414 29.8232 52.726 29.997 52.8182C30.1567 52.9027 30.108 53.0684 30.1178 53.2083C30.1469 53.6316 30.1535 54.0583 30.2128 54.4773C30.2437 54.6977 30.3394 54.9215 30.4543 55.1145C30.661 55.4621 31.0409 55.5742 31.4085 55.4043C31.5983 55.3166 31.783 55.1957 31.935 55.0524C32.1815 54.8198 32.398 54.5551 32.6285 54.3057C32.703 54.2248 32.7786 54.1428 32.8619 54.0715C32.9559 53.9913 33.059 53.9728 33.1844 54.105C33.1881 54.2078 33.2004 54.3421 33.197 54.4759C33.1871 54.8783 33.2141 55.2753 33.359 55.6561C33.6994 56.5495 34.5572 56.9449 35.451 56.6014C35.6862 56.5111 35.9142 56.3826 36.1185 56.2337C36.8561 55.6969 37.4396 55.0124 37.9395 54.2544C38.0306 54.116 38.1111 53.9699 38.2096 53.8063C37.2181 53.4633 37.0074 52.6631 36.9204 51.7474C36.8293 51.8416 36.7657 51.9049 36.7049 51.9706C36.4704 52.2214 36.2133 52.4425 35.8855 52.5634C35.408 52.7392 35.0312 52.6037 34.777 52.1656C34.5839 51.8325 34.5157 51.4673 34.513 51.0872C34.5126 51.0058 34.5115 50.9247 34.5105 50.7911C34.4183 50.8898 34.3648 50.9517 34.3071 51.0094C34.0367 51.2795 33.7764 51.561 33.4911 51.8143C33.2089 52.0645 32.8793 52.2454 32.5076 52.336C32.0444 52.4488 31.6136 52.3833 31.2231 52.0974C30.7451 51.7477 30.4339 51.2809 30.2626 50.7199C30.057 50.047 30.0493 49.3629 30.1713 48.6744C30.1843 48.5998 30.1942 48.526 30.2116 48.4159ZM29.6908 53.3622C29.1508 53.7885 28.6142 54.0655 27.9735 54.0812C27.9268 54.6858 27.9262 55.2616 28.0342 55.8341C28.119 56.2849 28.2604 56.7056 28.6058 57.0341C28.7269 57.1493 28.7805 57.2946 28.7479 57.4744C28.715 57.6575 28.7072 57.846 28.699 58.0328C28.6784 58.5098 28.6712 58.9864 28.8065 59.4512C28.8412 59.5706 28.8937 59.6849 28.9506 59.8339C29.0956 59.8034 29.2281 59.8024 29.3339 59.7481C29.5901 59.6172 29.8527 59.4854 30.0778 59.3097C30.385 59.0699 30.6732 58.802 30.944 58.5216C31.1137 58.3462 31.2895 58.2647 31.5285 58.2888C31.8235 58.3184 32.1022 58.2487 32.3705 58.1262C32.9345 57.8685 33.4223 57.5025 33.8691 57.0783C33.892 57.0563 33.9074 57.0254 33.9417 56.9777C33.1274 56.5004 32.8104 55.7459 32.7667 54.794C32.6611 54.9134 32.6008 54.9816 32.5405 55.0497C32.2673 55.3567 31.9723 55.638 31.5895 55.8063C31.0939 56.0235 30.5606 55.9171 30.2084 55.5318C30.0265 55.3332 29.8938 55.0988 29.8457 54.8379C29.7763 54.4633 29.741 54.0819 29.6962 53.7032C29.6854 53.6121 29.6927 53.5188 29.6908 53.3622Z" fill="#CCB47F" fill-opacity="0.5"/>
<path d="M50.5905 36.7046C52.0067 36.4459 53.6834 37.4207 54.0564 39.1528C54.4323 40.8977 53.3013 42.6026 51.553 42.9261C50.6959 43.0845 49.8913 42.933 49.1723 42.4275C48.784 42.1547 48.4372 41.8354 48.2272 41.3482C48.3374 41.3142 48.4118 41.2752 48.4883 41.2698C50.3743 41.1366 51.5819 39.053 50.7036 37.2994C50.6538 37.2007 50.6034 37.1022 50.5565 37.002C50.5105 36.9034 50.4993 36.806 50.5905 36.7046ZM48.9596 41.6424C49.6803 42.5685 51.1879 42.8154 52.2915 42.2229C53.4179 41.6183 54.0254 40.1933 53.5859 38.9203C53.2099 37.8309 51.987 36.9316 51.0456 37.0895C51.4824 38 51.531 38.9294 51.1186 39.849C50.701 40.781 49.9594 41.3574 48.9596 41.6424Z" fill="#CCB47F" fill-opacity="0.5"/>
<path d="M58.3848 41.6073C58.4359 41.4553 58.5162 41.4252 58.6204 41.4398C58.7127 41.4527 58.8047 41.4689 58.8967 41.4823C59.9495 41.6383 61.3152 41.1534 61.8779 39.6762C62.2943 38.5834 61.8966 37.2586 60.8986 36.521C60.7996 36.4475 60.646 36.3939 60.7223 36.2316C60.7879 36.0925 60.9311 36.1411 61.0431 36.1616C62.9073 36.5054 64.0973 38.3029 63.5961 40.1456C63.121 41.8916 61.2851 42.8687 59.5597 42.3159C59.1985 42.2004 58.8697 42.0314 58.5726 41.8004C58.501 41.7462 58.4457 41.6714 58.3848 41.6073ZM59.8263 41.9159C61.1597 42.3958 62.7249 41.5296 63.1928 40.0851C63.5869 38.8677 62.886 37.1936 61.8644 36.9123C63.1699 38.8225 62.167 41.4069 59.8263 41.9159Z" fill="#CCB47F" fill-opacity="0.5"/>
<path d="M32.9429 28.5504C32.8465 28.6201 32.7812 28.6859 32.7024 28.719C32.6014 28.7605 32.4896 28.7766 32.382 28.8024C30.6777 29.2087 29.7886 31.1102 30.539 32.662C30.6054 32.7989 30.6992 32.9218 30.7748 33.0541C30.8138 33.1225 30.8412 33.1981 30.8899 33.3063C30.759 33.3384 30.6659 33.3737 30.5698 33.3833C28.3869 33.5959 26.646 31.5226 27.228 29.4054C27.7115 27.6461 29.5402 26.6689 31.285 27.2324C31.8873 27.4271 32.3695 27.7881 32.7645 28.2739C32.8222 28.3448 32.8648 28.4281 32.9429 28.5504ZM32.3157 28.4033C31.7658 27.5188 30.2224 27.2061 29.1092 27.7251C27.8878 28.294 27.2254 29.7792 27.6815 31.0973C28.0522 32.1694 29.3175 33.1038 30.1791 32.9178C29.7619 32.0008 29.7229 31.0709 30.1522 30.1554C30.5847 29.233 31.335 28.67 32.3157 28.4033Z" fill="#CCB47F" fill-opacity="0.5"/>
<path d="M24.1506 25.7382C23.9961 25.7224 23.8673 25.7273 23.7489 25.6945C22.2442 25.2815 21.2898 23.9815 21.3208 22.5228C21.3653 20.4072 23.4415 18.9317 25.4537 19.5782C25.8408 19.7024 26.185 19.8951 26.5067 20.1353C26.5473 20.1657 26.5833 20.2023 26.622 20.2357C26.6967 20.2996 26.764 20.375 26.715 20.476C26.6581 20.5927 26.5532 20.5711 26.4486 20.543C25.7153 20.3473 25.013 20.4327 24.3546 20.8069C22.783 21.7 22.4044 23.9778 23.9505 25.3108C24.0321 25.3812 24.1066 25.4637 24.1686 25.5516C24.1887 25.5808 24.1612 25.6448 24.1506 25.7382ZM22.9411 24.8026C22.4363 23.7827 22.3781 22.75 22.914 21.7403C23.4504 20.7296 24.3353 20.186 25.514 20.0452C24.3308 19.4808 22.7302 20.0374 22.1171 21.1814C21.4056 22.5102 21.7585 24.107 22.9411 24.8026Z" fill="#CCB47F" fill-opacity="0.5"/>
<path d="M37.3702 34.5426C38.0966 32.9623 39.9855 32.2615 41.5724 32.9832C43.1409 33.697 43.8495 35.6166 43.1252 37.1902C42.4012 38.7628 40.4848 39.4872 38.9203 38.7433C37.2435 37.9462 36.6722 36.0748 37.3702 34.5426ZM42.7408 37.0043C43.36 35.81 42.9277 34.0533 41.4083 33.3457C40.0363 32.707 38.4074 33.3046 37.7653 34.6816C37.1232 36.0596 37.7082 37.6883 39.0821 38.3323C40.6203 39.053 42.2326 38.2317 42.7408 37.0043Z" fill="#CCB47F" fill-opacity="0.5"/>
<path d="M45.7543 46.5787C46.61 47.236 47.9953 51.3884 47.5867 52.1186C47.5679 52.0651 47.5473 52.0308 47.5436 51.9948C47.3753 50.3881 46.8248 48.9068 46.0724 47.4916C45.9525 47.2664 45.8375 47.0392 45.7231 46.8116C45.6862 46.7376 45.6347 46.6569 45.7543 46.5787Z" fill="#CCB47F" fill-opacity="0.5"/>
<path d="M28.2574 38.5441C28.2862 38.7226 28.1932 38.7386 28.1124 38.758C27.8481 38.8216 27.5832 38.8844 27.3179 38.9421C26.1914 39.186 25.1025 39.5406 24.0764 40.0708C23.7372 40.246 23.4154 40.4542 23.0859 40.6478C23.0176 40.6879 22.9491 40.7285 22.859 40.7812C22.846 40.6161 22.9548 40.5732 23.0251 40.5146C23.4585 40.1527 23.9436 39.8734 24.4526 39.6332C25.5287 39.1262 26.6626 38.8045 27.8279 38.5842C27.9657 38.5586 28.1085 38.5579 28.2574 38.5441Z" fill="#CCB47F" fill-opacity="0.5"/>
</g>
</svg>
