<svg width="61" height="83" viewBox="0 0 61 83" fill="none" xmlns="http://www.w3.org/2000/svg">
<path d="M33.647 70.4694C35.099 70.7021 36.5997 69.8393 37.8598 69.2435C39.3498 68.5389 40.9465 68.0927 42.548 67.7216C43.8274 67.4256 45.1067 67.1194 46.3833 66.8143C46.7023 66.7382 47.0213 66.662 47.3398 66.5858C47.7323 66.4754 48.1253 66.3751 48.5183 66.2807C48.9114 66.1869 49.4974 66.1365 49.8899 66.0518C53.1745 65.4227 56.3733 64.5583 59.3828 62.668C59.7083 62.4412 60.0155 62.194 60.2991 61.9226L60.3077 61.9146C60.697 61.5414 60.4766 60.8818 59.941 60.8196C59.9008 60.8148 59.8611 60.8105 59.8209 60.8067C55.7701 60.5847 51.9627 62.6943 48.0041 63.1764C47.6176 63.2654 47.2294 63.3475 46.8385 63.4193C46.4476 63.4912 46.0552 63.5539 45.6595 63.6049C45.3147 63.6687 44.9705 63.7271 44.6263 63.7791C42.9068 64.0392 41.2001 64.139 39.4098 64.1095C36.9311 64.0682 34.4379 64.0199 31.9897 63.5898C30.8916 63.3968 28.3545 62.6385 29.8059 61.1499C31.2643 59.6543 33.2379 58.5539 34.9183 57.3243C35.4673 56.9227 36.0148 56.5183 36.5606 56.1124C37.0137 55.7751 37.478 55.4936 37.641 54.9166C37.745 54.5482 37.775 53.9862 37.5316 53.6628C37.2523 53.2917 36.8668 53.3722 36.455 53.4221C34.8331 53.6199 33.4047 54.4189 31.9559 55.1155C30.423 55.8528 28.7861 56.3333 27.1626 56.824C25.842 57.223 20.0046 58.4311 20.0046 58.4311C14.081 59.3884 4.62022 70.094 1.41605 72.505C1.00105 72.8171 0.895431 73.3978 1.17853 73.8327C2.82458 76.3633 4.79609 78.5924 6.46037 81.0522C6.61104 81.2517 6.76224 81.4522 6.91398 81.6533C7.33166 82.2078 8.14718 82.2684 8.63563 81.7745C8.86833 81.5391 9.09674 81.3005 9.32139 81.0592C12.5111 77.9355 15.2992 72.528 20.269 72.8385C20.9263 72.9495 21.5713 73.06 22.2147 73.1699C24.1466 73.5008 26.0618 73.8231 28.1502 74.2419C30.5061 74.6451 32.876 74.7524 35.003 73.6611C39.0302 72.1114 42.9234 68.5614 46.9431 66.6813" stroke="#CC9A63" stroke-miterlimit="10" stroke-linecap="round" stroke-linejoin="round"/>
<path d="M52.842 62.0289C53.4506 61.3705 55.5647 60.7711 55.1068 59.6054C54.8854 59.2794 54.4243 59.021 54.0302 59.0027C51.7359 59.132 46.1034 62.4123 45.7329 62.5179C45.2959 62.7367 44.8466 62.9404 44.4 63.1484C43.9533 63.3565 43.1834 63.7597 42.7523 63.9988" stroke="#CC9A63" stroke-miterlimit="10" stroke-linecap="round" stroke-linejoin="round"/>
<path d="M52.2109 59.3135C52.5675 58.0787 51.2962 57.572 50.2164 57.876C49.2566 58.1468 48.365 58.6572 47.4294 59.12C47.1205 59.2894 46.8095 59.4529 46.4905 59.5966C46.1715 59.7409 45.845 59.8653 45.5061 59.9569C45.245 60.0438 44.9849 60.1317 44.7281 60.2229C44.4718 60.3146 44.2188 60.4095 43.9727 60.5119C42.4076 61.1633 40.887 61.84 39.3835 62.6196C38.4206 63.1188 37.3675 63.4281 36.4276 63.9643" stroke="#CC9A63" stroke-miterlimit="10" stroke-linecap="round" stroke-linejoin="round"/>
<path d="M45.9318 59.7899C45.9484 59.5422 45.6884 59.3384 45.3817 59.1802C44.7372 58.8478 43.0252 59.6344 42.2665 60.118C41.0473 60.896 34.7145 63.6176 34.4223 63.9012" stroke="#CC9A63" stroke-miterlimit="10" stroke-linecap="round" stroke-linejoin="round"/>
<path d="M28.4794 14.8176C28.4794 14.8176 16.5211 24.9173 20.9569 32.3239C23.2721 36.1903 27.2977 38.6795 31.1329 40.8277C35.4518 43.2467 40.5824 45.3107 42.2215 50.4367C43.8547 55.5429 41.1025 60.0125 38.1884 64.0001" stroke="#CC9A63" stroke-miterlimit="10" stroke-linecap="round" stroke-linejoin="round"/>
<path d="M21.0051 19.6794C21.0051 20.7899 20.1049 21.6901 18.9945 21.6901C17.8841 21.6901 16.9838 20.7899 16.9838 19.6794C16.9838 18.569 17.8841 17.6688 18.9945 17.6688C20.1049 17.6688 21.0051 18.569 21.0051 19.6794Z" stroke="#CC9A63" stroke-miterlimit="10" stroke-linecap="round" stroke-linejoin="round"/>
<path d="M24.2334 29.1761C25.3439 29.1761 26.2441 28.2759 26.2441 27.1655C26.2441 26.055 25.3439 25.1548 24.2334 25.1548C23.123 25.1548 22.2228 26.055 22.2228 27.1655C22.2228 28.2759 23.123 29.1761 24.2334 29.1761Z" stroke="#CC9A63" stroke-miterlimit="10" stroke-linecap="round" stroke-linejoin="round"/>
<path d="M17.9597 37.9068C19.0701 37.9068 19.9703 37.0066 19.9703 35.8961C19.9703 34.7857 19.0701 33.8855 17.9597 33.8855C16.8492 33.8855 15.949 34.7857 15.949 35.8961C15.949 37.0066 16.8492 37.9068 17.9597 37.9068Z" stroke="#CC9A63" stroke-miterlimit="10" stroke-linecap="round" stroke-linejoin="round"/>
<path d="M32.4063 39.2329C33.5168 39.2329 34.417 38.3327 34.417 37.2223C34.417 36.1118 33.5168 35.2116 32.4063 35.2116C31.2959 35.2116 30.3957 36.1118 30.3957 37.2223C30.3957 38.3327 31.2959 39.2329 32.4063 39.2329Z" stroke="#CC9A63" stroke-miterlimit="10" stroke-linecap="round" stroke-linejoin="round"/>
<path d="M36.4282 48.233C36.4282 49.3434 35.5279 50.2437 34.4175 50.2437C33.3071 50.2437 32.4069 49.3434 32.4069 48.233C32.4069 47.1226 33.3071 46.2224 34.4175 46.2224C35.5279 46.2224 36.4282 47.1226 36.4282 48.233Z" stroke="#CC9A63" stroke-miterlimit="10" stroke-linecap="round" stroke-linejoin="round"/>
<path d="M48.9617 52.2554C48.9617 53.3658 48.0615 54.2661 46.9511 54.2661C45.8407 54.2661 44.9404 53.3658 44.9404 52.2554C44.9404 51.145 45.8407 50.2448 46.9511 50.2448C48.0615 50.2442 48.9617 51.145 48.9617 52.2554Z" stroke="#CC9A63" stroke-miterlimit="10" stroke-linecap="round" stroke-linejoin="round"/>
<path d="M42.866 17.6688C42.866 17.6688 42.11 23.5284 39.2693 23.5284C39.2693 23.5284 42.866 25.7479 42.866 29.5654C42.866 25.7479 46.1506 23.5284 46.1506 23.5284C43.3099 23.5284 42.866 17.6688 42.866 17.6688Z" fill="#222221" stroke="#CC9A63" stroke-miterlimit="10"/>
<path d="M33.9537 0C33.9537 0 33.3838 4.41438 31.2444 4.41438C31.2444 4.41438 33.9537 6.08641 33.9537 8.96231C33.9537 6.08641 36.4282 4.41438 36.4282 4.41438C34.2883 4.41385 33.9537 0 33.9537 0Z" fill="#CC9A63"/>
<path d="M3.59665 11.7202C3.59665 11.7202 2.84065 17.5798 0 17.5798C0 17.5798 3.59665 19.7993 3.59665 23.6169C3.59665 19.7993 6.88125 17.5798 6.88125 17.5798C4.0406 17.5798 3.59665 11.7202 3.59665 11.7202Z" fill="#CC9A63"/>
<path d="M13.4188 42.8177C13.4188 42.8177 12.6628 48.6773 9.82214 48.6773C9.82214 48.6773 13.4188 50.8968 13.4188 54.7144C13.4188 50.8968 16.7034 48.6773 16.7034 48.6773C13.8627 48.6773 13.4188 42.8177 13.4188 42.8177Z" fill="#CC9A63"/>
<path d="M42.6419 17.4447C42.6419 17.4447 41.8859 23.3042 39.0452 23.3042C39.0452 23.3042 42.6419 25.5238 42.6419 29.3413C42.6419 25.5238 45.9265 23.3042 45.9265 23.3042C43.0858 23.3042 42.6419 17.4447 42.6419 17.4447Z" fill="#CC9A63"/>
</svg>
