<svg width="81" height="75" viewBox="0 0 81 75" fill="none" xmlns="http://www.w3.org/2000/svg">
<g opacity="0.5">
<path d="M13.9465 19.3579C14.3356 18.8213 14.6846 18.2337 15.1338 17.7359C21.1657 11.0617 28.5768 7.22303 37.6696 7.13027C45.6913 7.04763 52.4954 10.0872 58.1202 15.751C62.0335 19.6921 64.6446 24.4056 66.0657 29.7733C66.2307 30.3941 66.3042 31.0391 66.4336 31.6691C66.5131 32.06 66.3511 32.294 66.034 32.5113C63.499 34.2484 60.7378 35.4777 57.7731 36.2683C53.4615 37.4185 49.0786 37.7184 44.6426 37.3777C38.9924 36.9435 33.6014 35.5228 28.4991 33.052C24.2845 31.0117 20.511 28.3649 17.4297 24.7999C16.1572 23.3284 15.0716 21.731 14.2164 19.981C14.1287 19.8022 14.0562 19.613 13.9465 19.3579ZM15.5225 18.6342C15.539 18.6614 15.5558 18.6876 15.5733 18.7151C15.7048 18.6882 15.8378 18.6669 15.9669 18.6332C17.9083 18.1222 19.8805 17.7862 21.8768 17.5881C28.2289 16.9556 34.4854 17.5843 40.6726 19.0548C44.0986 19.8693 47.4326 20.9686 50.6835 22.3242C55.769 24.4447 60.5377 27.1139 64.9174 30.4656C65.0472 30.5646 65.1849 30.6533 65.3806 30.7885C65.372 30.6351 65.3814 30.5537 65.3618 30.4802C65.0899 29.4818 64.8835 28.4595 64.5267 27.4922C62.8981 23.0803 60.483 19.1462 57.0581 15.9054C50.1262 9.34366 41.9264 6.7718 32.5166 8.53442C25.7837 9.7958 20.267 13.2797 15.7239 18.3579C15.6495 18.4425 15.5898 18.5414 15.5225 18.6342ZM65.6488 32.0748C61.4664 28.7635 57.0149 26.0695 52.1576 23.886C51.48 27.1177 49.8524 29.6684 47.1118 31.4156C44.345 33.1796 41.3182 33.6109 38.1651 32.7557C35.6065 32.0618 33.533 30.5817 32.0274 28.3842C29.9108 25.2951 29.5374 21.9287 30.6069 18.3196C25.2938 17.9415 20.1055 18.2989 14.9593 19.6542C15.0286 19.8166 15.058 19.9156 15.1088 20.0006C15.4895 20.6431 15.8461 21.3018 16.2631 21.9208C18.4687 25.1994 21.3458 27.7841 24.6363 29.9268C28.9258 32.7191 33.6061 34.5705 38.5946 35.6774C43.1416 36.6856 47.7288 36.9912 52.361 36.4952C56.8909 36.0101 61.1777 34.7518 65.1149 32.41C65.272 32.3144 65.4272 32.2142 65.6488 32.0748ZM31.7576 18.3836C30.5518 20.9479 30.6207 25.358 33.4778 28.6589C36.2422 31.8532 40.9421 33.0556 44.9436 31.4361C49.1286 29.7426 51.001 25.8878 51.1286 23.4839C50.5048 23.088 47.7599 22.0347 47.2639 22.0001C47.0986 26.5349 42.9041 28.6079 39.8468 27.8166C38.3568 27.4309 37.1508 26.6077 36.3156 25.3124C35.0061 23.2833 35.0121 21.1709 36.1179 18.9525C34.6173 18.7574 33.1941 18.5707 31.7576 18.3836ZM37.232 19.1837C36.0526 20.6411 35.8741 23.2084 37.314 25.0674C38.7385 26.9068 41.3249 27.5315 43.4114 26.5293C45.2998 25.6212 46.5821 23.3238 46.1577 21.5464C43.2667 20.5088 40.2829 19.7403 37.232 19.1837Z" fill="#CCB47F"/>
<path d="M70.6443 55.3135C70.4225 55.4187 70.3098 55.4724 70.1814 55.5342C70.0698 55.4101 69.9711 55.3185 69.8931 55.2116C66.5043 50.5611 63.1145 45.9103 59.7308 41.2559C59.2922 40.6518 58.8809 40.0271 58.4676 39.4059C58.3517 39.232 58.1935 39.0457 58.3752 38.8004C58.6669 38.7895 58.7907 39.0194 58.9269 39.1946C59.5727 40.0261 60.2213 40.8552 60.8388 41.707C63.887 45.9133 66.9264 50.1255 69.967 54.3369C70.1818 54.6326 70.3848 54.9375 70.6443 55.3135Z" fill="#CCB47F"/>
<path d="M32.2376 36.7755C32.1974 36.9563 32.1754 37.1544 32.11 37.3367C31.5045 39.0286 30.9045 40.723 30.2772 42.4071C29.2315 45.2203 28.1677 48.0276 27.1087 50.8362C26.8091 51.6297 26.5076 52.4227 26.1875 53.2076C26.0334 53.5856 25.9585 53.5986 25.523 53.4157C25.5649 53.2209 25.5848 53.0036 25.6582 52.8069C26.6109 50.2483 27.5628 47.6885 28.5314 45.1362C29.4094 42.8216 30.3045 40.5126 31.1967 38.2028C31.3618 37.776 31.5428 37.3555 31.7265 36.9367C31.8125 36.7393 31.9312 36.5744 32.2376 36.7755Z" fill="#CCB47F"/>
<path d="M29.7556 64.7782C29.7727 64.583 29.7585 64.3617 29.8135 64.1601C30.9828 59.8851 32.1591 55.6109 33.341 51.3392C33.419 51.0558 33.4522 50.7271 33.7648 50.5728C34.0262 50.5631 34.1088 50.7147 34.0963 50.9277C34.0864 51.0958 34.0566 51.2649 34.0129 51.4281C32.8595 55.725 31.7039 60.0224 30.5466 64.3182C30.516 64.4322 30.4763 64.5458 30.426 64.6524C30.3042 64.9138 30.1209 65.0065 29.7556 64.7782Z" fill="#CCB47F"/>
<path d="M50.2836 55.5063C49.9025 55.5802 49.8121 55.3459 49.7674 55.0761C49.6653 54.4565 49.5685 53.8364 49.4771 53.2155C48.9161 49.4055 48.355 45.5955 47.7984 41.7846C47.7449 41.4162 47.7061 41.0434 47.6866 40.6717C47.6721 40.409 47.692 40.4081 48.0078 40.2381C48.3138 40.3635 48.3197 40.6581 48.3622 40.9169C48.5649 42.1732 48.7655 43.4299 48.9491 44.6883C49.4353 48.0124 49.9142 51.3367 50.3907 54.6623C50.4307 54.9381 50.5383 55.2319 50.2836 55.5063Z" fill="#CCB47F"/>
<path d="M19.85 30.1206C19.7404 30.2475 19.6532 30.4105 19.516 30.4938C19.1691 30.7063 18.8088 30.8996 18.439 31.0707C14.6 32.8446 10.7585 34.6126 6.91732 36.3796C6.7792 36.443 6.62792 36.5247 6.48737 36.516C6.35797 36.5082 6.17172 36.419 6.12714 36.3149C6.08231 36.2118 6.14695 36.0169 6.22895 35.9156C6.31836 35.806 6.47922 35.7466 6.61805 35.6845C10.4082 33.969 14.1993 32.2537 17.9923 30.5431C18.3785 30.3692 18.7748 30.2114 19.174 30.0699C19.3558 30.0057 19.5575 29.9987 19.7497 29.9653C19.7842 30.018 19.8171 30.0693 19.85 30.1206Z" fill="#CCB47F"/>
<path d="M57.1267 51.7557C57.3758 51.6682 57.4595 51.8273 57.5294 51.9837C57.6327 52.2163 57.7311 52.4518 57.8112 52.6938C58.9209 56.0287 60.0271 59.3646 61.1322 62.7013C61.1846 62.8613 61.2155 63.0281 61.2683 63.2368C61.1574 63.322 61.0475 63.4075 60.9512 63.4811C60.8569 63.4351 60.7926 63.4241 60.7711 63.3883C60.684 63.2459 60.5857 63.1026 60.5355 62.9463C59.4369 59.5544 58.3418 56.1613 57.2525 52.7657C57.1652 52.4928 57.1198 52.2063 57.0673 51.923C57.0571 51.8685 57.1086 51.8037 57.1267 51.7557Z" fill="#CCB47F"/>
<path d="M57.0167 50.0604C56.8838 50.147 56.7785 50.215 56.6145 50.3212C56.5006 50.1395 56.3714 50.0035 56.3193 49.8425C55.3035 46.7098 54.2948 43.5739 53.2923 40.4376C53.2292 40.2405 53.2263 40.0234 53.1989 39.8359C53.5223 39.672 53.6479 39.8216 53.7312 40.0283C53.8386 40.2962 53.9378 40.5671 54.0278 40.8417C54.9782 43.728 55.9261 46.6158 56.873 49.5032C56.9297 49.6779 56.9653 49.8582 57.0167 50.0604Z" fill="#CCB47F"/>
<path d="M36.9653 38.2151C37.3718 38.2588 37.3758 38.468 37.3451 38.6751C37.2971 38.9935 37.2408 39.3118 37.1633 39.6244C36.573 41.9933 35.9796 44.3625 35.3778 46.7283C35.3092 46.9998 35.1788 47.2547 35.088 47.4892C34.5608 47.525 34.4482 47.4234 34.491 47.0125C34.5015 46.9117 34.5262 46.8118 34.5533 46.7145C35.2412 44.1781 35.9262 41.6409 36.623 39.1059C36.7053 38.8028 36.8472 38.5168 36.9653 38.2151Z" fill="#CCB47F"/>
<path d="M27.3544 35.0209C27.4841 35.4294 27.3034 35.6284 27.1667 35.8371C25.9411 37.7066 24.7152 39.5771 23.4843 41.4431C23.0183 42.1506 22.5401 42.8496 22.0645 43.5504C21.933 43.7439 21.8154 43.9702 21.5134 43.911C21.3161 43.7898 21.2971 43.6212 21.3917 43.4302C21.444 43.3241 21.5109 43.225 21.5766 43.1267C23.265 40.6078 24.9542 38.0902 26.6443 35.5729C26.7289 35.4465 26.8048 35.3022 26.9194 35.2108C27.0303 35.1214 27.1868 35.0898 27.3544 35.0209Z" fill="#CCB47F"/>
<path d="M12.0387 42.4738C11.9763 42.2045 12.11 42.057 12.2719 41.9203C14.0592 40.4156 15.8452 38.9085 17.6382 37.4095C17.8114 37.2654 18.0293 37.1747 18.227 37.0589C18.264 37.0833 18.3021 37.107 18.3391 37.1314C18.3231 37.2452 18.34 37.3791 18.2835 37.4664C18.1844 37.62 18.0527 37.7597 17.9139 37.8799C16.1685 39.3824 14.4208 40.8821 12.6707 42.3792C12.4935 42.5305 12.3071 42.7124 12.0387 42.4738Z" fill="#CCB47F"/>
<path d="M42.4233 39.4313C42.4775 39.6 42.5694 39.7634 42.5765 39.9299C42.6352 41.1983 42.6847 42.4663 42.7194 43.7356C42.7251 43.9421 42.6435 44.15 42.6064 44.3389C42.2581 44.4215 42.1198 44.2924 42.0715 44.0361C42.0526 43.9368 42.0395 43.835 42.0398 43.7336C42.0312 42.4983 42.0188 41.2619 42.0228 40.0258C42.0226 39.7908 41.9946 39.4976 42.4233 39.4313Z" fill="#CCB47F"/>
<path d="M23.2747 32.9327C23.5219 33.1232 23.5262 33.2693 23.3846 33.4229C23.2705 33.5476 23.1534 33.6715 23.0285 33.7861C22.2065 34.5473 21.3831 35.306 20.5587 36.0645C20.4584 36.1567 20.3571 36.2486 20.2471 36.3268C20.0861 36.441 19.9036 36.5194 19.7483 36.3339C19.5992 36.1563 19.6941 35.9798 19.8129 35.8263C19.8746 35.7466 19.9569 35.6827 20.0347 35.6166C20.9484 34.8303 21.861 34.0437 22.7794 33.2628C22.9281 33.137 23.1062 33.0439 23.2747 32.9327Z" fill="#CCB47F"/>
<path d="M42.7382 47.8962C42.4603 47.9481 42.3024 47.8343 42.2877 47.5954C42.2644 47.2112 42.2605 46.824 42.2844 46.4412C42.298 46.2202 42.4227 46.06 42.689 46.1479C42.9366 46.5994 42.966 47.452 42.7382 47.8962Z" fill="#CCB47F"/>
<path d="M37.2321 19.1836C36.0527 20.641 35.8742 23.2083 37.3141 25.0673C38.7386 26.9067 41.325 27.5314 43.4114 26.5292C45.2999 25.621 46.5822 23.3237 46.1577 21.5462C43.2668 20.5087 40.283 19.7402 37.2321 19.1836Z" fill="white"/>
</g>
</svg>
