<svg width="67" height="58" viewBox="0 0 67 58" fill="none" xmlns="http://www.w3.org/2000/svg">
<path d="M47.1013 47.8956C51.3523 46.0497 55.5879 43.3421 57.6373 39.0541C57.7224 38.8764 57.7493 38.6747 57.7095 38.482C57.7084 38.4769 57.7073 38.4719 57.7062 38.4669C57.6007 37.9698 57.0957 37.6604 56.6004 37.7745C54.2656 38.3115 52.2241 39.6542 50.4331 41.2657" stroke="#C49362" stroke-miterlimit="10" stroke-linecap="round" stroke-linejoin="round"/>
<path d="M50.7445 40.9945C51.3855 39.4224 54.1492 36.9229 52.8894 34.7989C52.2749 33.7627 51.1892 34.6865 50.5848 35.2155C48.7532 37.0866 47.9432 39.6406 45.1824 40.5989" stroke="#C49362" stroke-miterlimit="10" stroke-linecap="round" stroke-linejoin="round"/>
<path d="M44.6706 40.4916C45.6059 39.2447 46.9902 37.8744 47.2479 36.2793C47.6668 33.6905 43.7108 36.7481 43.0716 37.2556C41.7368 38.3155 40.435 39.7023 38.8213 40.3362" stroke="#C49362" stroke-miterlimit="10" stroke-linecap="round" stroke-linejoin="round"/>
<path d="M41.1132 46.6287C43.5069 47.5551 46.3405 47.7424 49.1555 48.2133C50.8557 48.3257 54.9728 46.3215 55.275 46.0566C58.5236 44.2792 61.2237 42.181 64.6805 41.5558C64.8387 41.5662 65.0203 41.5561 65.2056 41.5486C65.9456 41.5192 66.4065 42.3543 65.9815 42.9613C65.8315 43.1755 65.6373 43.387 65.3993 43.5955C60.6444 47.7604 55.4315 50.5179 49.9595 52.965C49.7797 53.0454 49.5851 53.0885 49.3881 53.0906C38.9486 53.2141 28.6172 51.7005 18.176 51.8556C12.7732 51.7827 7.78711 54.0141 2.9184 56.8291L1 42.6526C4.21446 42.4035 7.44685 42.5572 10.5734 41.6968C10.7137 41.6581 10.8505 41.6042 10.9808 41.5396C17.5123 38.3015 23.1315 36.2994 28.7471 37.4038C31.5054 37.9461 33.9083 39.572 36.6774 40.0806C39.4148 40.5834 42.2446 40.297 45.0046 40.5802C46.6761 40.7518 48.3429 40.9707 49.9957 41.2744C50.6084 41.3871 54.1609 41.7632 54.3853 42.2976C54.5496 42.6892 54.4621 43.1454 54.1545 43.4383C53.165 44.3804 51.6884 44.7663 50.2118 45.1521C44.7527 45.9295 39.5581 47.0088 34.1553 46.9359C32.4364 47.1068 30.7172 47.2776 29.2898 47.9136" stroke="#C49362" stroke-miterlimit="10" stroke-linecap="round" stroke-linejoin="round"/>
<path d="M37.3223 29.1351L39.8569 35.4729" stroke="#C49362" stroke-miterlimit="10" stroke-linecap="round"/>
<path d="M30.0327 28.7798L27.5774 35.4951" stroke="#C49362" stroke-miterlimit="10" stroke-linecap="round"/>
<path d="M33.3541 8.04731L33.1355 1" stroke="#C49362" stroke-miterlimit="10" stroke-linecap="round"/>
<path d="M40.3262 10.4664L44.7868 4.87805" stroke="#C49362" stroke-miterlimit="10" stroke-linecap="round"/>
<path d="M44.4602 16.6836L51.1511 15.3793" stroke="#C49362" stroke-miterlimit="10" stroke-linecap="round"/>
<path d="M43.3726 24.228L49.1977 27.5021" stroke="#C49362" stroke-miterlimit="10" stroke-linecap="round"/>
<path d="M24.9046 23.7625L18.2083 27.558" stroke="#C49362" stroke-miterlimit="10" stroke-linecap="round"/>
<path d="M23.8105 16.8954L16.2112 15.4421" stroke="#C49362" stroke-miterlimit="10" stroke-linecap="round"/>
<path d="M27.3803 10.941L22.5378 4.91797" stroke="#C49362" stroke-miterlimit="10" stroke-linecap="round"/>
<path d="M35.9736 10.7908C35.9405 10.7908 35.9068 10.7861 35.8738 10.7768C35.6836 10.7215 35.5737 10.5223 35.6286 10.3321L35.7299 9.98253C35.7848 9.7923 35.9843 9.68356 36.1746 9.7374C36.3648 9.79267 36.4746 9.99185 36.4197 10.1821L36.3185 10.5317C36.2729 10.6889 36.1293 10.7908 35.9736 10.7908Z" fill="#C49362"/>
<path d="M36.269 9.77052C36.236 9.77052 36.2022 9.76585 36.1692 9.75652C35.979 9.70125 35.8691 9.5024 35.9241 9.31182L36.1182 8.64102C36.1653 8.47843 36.3042 8.36824 36.4804 8.38224C36.3386 8.3022 36.2654 8.13314 36.3128 7.97019L36.5073 7.29937C36.5543 7.13678 36.6979 7.03018 36.8691 7.04059C36.7273 6.96055 36.6541 6.79152 36.7011 6.62857L36.8953 5.95775C36.9502 5.76752 37.149 5.65878 37.34 5.71262C37.5302 5.76789 37.6401 5.96671 37.5851 6.1573L37.391 6.82812C37.3436 6.99071 37.2029 7.09587 37.0288 7.0869C37.1702 7.16694 37.2438 7.33598 37.1964 7.49929L37.0019 8.17011C36.9549 8.3327 36.8092 8.4393 36.6401 8.4289C36.7819 8.50893 36.8551 8.67797 36.8081 8.84091L36.6139 9.51174C36.5683 9.66822 36.4251 9.77052 36.269 9.77052Z" fill="#C49362"/>
<path d="M37.4343 5.74526C37.4012 5.74526 37.3675 5.74061 37.3345 5.73128C37.1443 5.67601 37.0344 5.4768 37.0893 5.28658L37.1906 4.93699C37.2455 4.74713 37.4439 4.638 37.6353 4.69184C37.8255 4.74711 37.9353 4.94631 37.8804 5.13654L37.7792 5.48612C37.7336 5.64297 37.5904 5.74526 37.4343 5.74526Z" fill="#C49362"/>
<path d="M40.6652 14.3333C40.5486 14.3333 40.4344 14.2769 40.3655 14.1721C40.2561 14.0067 40.3016 13.7842 40.4671 13.6751L40.7707 13.4744C40.9355 13.3646 41.1591 13.4102 41.2679 13.576C41.3773 13.7415 41.3317 13.964 41.1663 14.0731L40.8626 14.2734C40.802 14.3139 40.7334 14.3333 40.6652 14.3333Z" fill="#C49362"/>
<path d="M41.5608 13.7411C41.4445 13.7411 41.3304 13.6847 41.2611 13.5803C41.1517 13.4148 41.1969 13.1923 41.3624 13.0828L41.9542 12.6912C42.1046 12.5922 42.3013 12.6198 42.4183 12.7497C42.3451 12.5915 42.3964 12.3987 42.546 12.2996L43.1379 11.9081C43.2883 11.8086 43.485 11.837 43.602 11.9666C43.5288 11.8083 43.5797 11.6155 43.7301 11.5165L44.322 11.1249C44.4874 11.0154 44.7096 11.0607 44.8194 11.2261C44.9289 11.3916 44.8837 11.6141 44.7182 11.7236L44.1264 12.1152C43.976 12.2142 43.7789 12.1866 43.6623 12.0567C43.7355 12.2149 43.6845 12.4073 43.5345 12.5067L42.9423 12.8983C42.7919 12.9977 42.5952 12.9694 42.4782 12.8398C42.5514 12.9981 42.5005 13.1905 42.3504 13.2899L41.7586 13.6815C41.6976 13.7217 41.629 13.7411 41.5608 13.7411Z" fill="#C49362"/>
<path d="M45.1128 11.3917C44.9965 11.3917 44.8824 11.3353 44.8131 11.2309C44.7037 11.0654 44.7489 10.8429 44.9144 10.7334L45.218 10.5324C45.3827 10.4226 45.6056 10.4682 45.7155 10.6336C45.8249 10.7991 45.7797 11.0216 45.6142 11.1311L45.3106 11.3317C45.2496 11.3723 45.1807 11.3917 45.1128 11.3917Z" fill="#C49362"/>
<path d="M42.6358 20.103C42.6215 20.103 42.6071 20.1022 42.5924 20.1004L42.231 20.0567C42.0339 20.0326 41.894 19.8539 41.9177 19.6572C41.9413 19.4601 42.1197 19.3212 42.3171 19.3438L42.6786 19.3876C42.8756 19.4117 43.0156 19.5904 42.9919 19.7871C42.97 19.9694 42.8149 20.103 42.6358 20.103Z" fill="#C49362"/>
<path d="M46.6377 20.586C46.6233 20.586 46.609 20.5853 46.5942 20.5835L45.9274 20.5027C45.7748 20.4841 45.6564 20.3728 45.6216 20.2321C45.5541 20.3603 45.4102 20.4407 45.2609 20.422L44.594 20.3416C44.4411 20.3229 44.3227 20.2117 44.2879 20.0706C44.2204 20.1987 44.08 20.2795 43.9264 20.2608L43.2596 20.1801C43.0629 20.1564 42.9225 19.9777 42.9462 19.7806C42.9699 19.5836 43.1483 19.4432 43.3457 19.4673L44.0126 19.548C44.1651 19.5667 44.2835 19.678 44.3183 19.819C44.3851 19.6909 44.5283 19.6101 44.6794 19.6288L45.3463 19.7092C45.4988 19.7278 45.6176 19.8388 45.6521 19.9798C45.7192 19.8513 45.8588 19.7709 46.0132 19.7899L46.68 19.8707C46.8767 19.8944 47.0167 20.0731 46.9934 20.2702C46.9715 20.4525 46.8168 20.586 46.6377 20.586Z" fill="#C49362"/>
<path d="M47.6658 20.7107C47.6514 20.7107 47.637 20.71 47.6223 20.7082L47.2613 20.6644C47.0642 20.6403 46.9242 20.4616 46.9479 20.2649C46.972 20.0679 47.15 19.9279 47.3474 19.9516L47.7085 19.9954C47.9055 20.0194 48.0455 20.1982 48.0218 20.3948C47.9996 20.5772 47.8449 20.7107 47.6658 20.7107Z" fill="#C49362"/>
<path d="M39.8474 25.7778C39.7512 25.7778 39.6547 25.7391 39.584 25.6626L39.3371 25.3956C39.2025 25.2499 39.2114 25.023 39.3571 24.8885C39.5021 24.7539 39.729 24.7625 39.8643 24.9085L40.1112 25.1756C40.2458 25.3213 40.2369 25.5481 40.0911 25.6827C40.0219 25.7462 39.9347 25.7778 39.8474 25.7778Z" fill="#C49362"/>
<path d="M42.5205 28.671C42.424 28.671 42.3278 28.6326 42.2571 28.5558L41.8113 28.0738C41.7119 27.9661 41.6907 27.8139 41.7453 27.6876C41.6161 27.7328 41.4657 27.6994 41.3655 27.5914L40.9201 27.109C40.8207 27.0013 40.7995 26.8495 40.8537 26.7232C40.7245 26.7688 40.5745 26.7347 40.4744 26.627L40.0289 26.1446C39.8943 25.9989 39.9033 25.7721 40.049 25.6375C40.1941 25.5029 40.4212 25.5118 40.5562 25.6576L41.0016 26.14C41.101 26.2476 41.1222 26.3994 41.068 26.5258C41.1979 26.4816 41.3476 26.5143 41.4474 26.6216L41.8928 27.104C41.9922 27.2117 42.0134 27.3639 41.9588 27.4902C42.0884 27.446 42.2391 27.4787 42.3386 27.586L42.7843 28.068C42.9189 28.2134 42.9103 28.4406 42.7643 28.5752C42.695 28.6394 42.6078 28.671 42.5205 28.671Z" fill="#C49362"/>
<path d="M43.2129 29.4204C43.1164 29.4204 43.0202 29.3817 42.9495 29.3052L42.7025 29.0382C42.5679 28.8924 42.5769 28.6656 42.7226 28.531C42.8676 28.3964 43.0948 28.405 43.2298 28.5511L43.4767 28.8182C43.6113 28.9639 43.6023 29.1907 43.4566 29.3253C43.3873 29.3888 43.3001 29.4204 43.2129 29.4204Z" fill="#C49362"/>
<path d="M33.8362 28.1097C33.6492 28.1097 33.4913 27.9647 33.4783 27.7748L33.4539 27.412C33.4407 27.2142 33.5903 27.043 33.7881 27.0297C33.9866 27.024 34.1567 27.1661 34.1703 27.3639L34.1947 27.7267C34.208 27.9245 34.0584 28.0957 33.8606 28.109C33.8527 28.1093 33.8441 28.1097 33.8362 28.1097Z" fill="#C49362"/>
<path d="M34.1086 32.1378C33.9216 32.1378 33.7636 31.9928 33.7507 31.8029L33.7055 31.1317C33.6955 30.9777 33.7834 30.8403 33.9158 30.7807C33.7762 30.7391 33.6703 30.6145 33.6599 30.4605L33.6143 29.789C33.6043 29.6354 33.6922 29.4976 33.8247 29.4376C33.6854 29.396 33.5795 29.2715 33.5691 29.1175L33.5235 28.4463C33.5102 28.2485 33.6596 28.0777 33.8577 28.0641C34.054 28.0598 34.2267 28.2005 34.2399 28.3982L34.2855 29.0694C34.2956 29.223 34.2076 29.3608 34.0752 29.4208C34.2144 29.4624 34.3203 29.5869 34.3307 29.7409L34.3763 30.4125C34.3864 30.5661 34.2984 30.7039 34.166 30.7638C34.3056 30.8055 34.4115 30.93 34.4219 31.084L34.4671 31.7552C34.4804 31.9529 34.3307 32.1241 34.133 32.1374C34.1247 32.1374 34.1168 32.1378 34.1086 32.1378Z" fill="#C49362"/>
<path d="M34.179 33.1719C33.992 33.1719 33.8341 33.0269 33.8211 32.837L33.7967 32.4741C33.7834 32.2764 33.9331 32.1052 34.1309 32.0919C34.3261 32.0876 34.4998 32.2283 34.5131 32.4261L34.5375 32.7889C34.5508 32.9867 34.4012 33.1579 34.2034 33.1712C34.1955 33.1715 34.1869 33.1719 34.179 33.1719Z" fill="#C49362"/>
<path d="M28.1496 25.9773C28.0724 25.9773 27.9945 25.9525 27.9292 25.9012C27.7727 25.7792 27.7451 25.5534 27.8671 25.3976L28.0911 25.1109C28.2128 24.9544 28.4382 24.9264 28.5946 25.0488C28.7511 25.1708 28.7788 25.3966 28.6567 25.5523L28.4328 25.8391C28.3621 25.9299 28.2566 25.9773 28.1496 25.9773Z" fill="#C49362"/>
<path d="M25.5273 29.3324C25.4501 29.3324 25.3722 29.3077 25.3066 29.2564C25.1504 29.134 25.1228 28.9086 25.2448 28.7524L25.682 28.1932C25.7925 28.0515 25.9881 28.0156 26.141 28.1017C26.0208 27.9747 26.0082 27.7758 26.1191 27.6341L26.556 27.0749C26.6665 26.9331 26.8621 26.8965 27.015 26.983C26.8948 26.8563 26.8822 26.6571 26.9927 26.515L27.4299 25.9558C27.5519 25.7996 27.7763 25.7716 27.9338 25.894C28.09 26.0164 28.1176 26.2418 27.9956 26.398L27.5584 26.9571C27.4479 27.0982 27.2522 27.1352 27.0993 27.0487C27.2196 27.1757 27.2321 27.3746 27.1216 27.5163L26.6848 28.0755C26.5743 28.2173 26.3779 28.2536 26.2257 28.1674C26.346 28.2945 26.3585 28.4933 26.248 28.6354L25.8108 29.1946C25.7398 29.2851 25.6342 29.3324 25.5273 29.3324Z" fill="#C49362"/>
<path d="M24.8666 30.1785C24.7895 30.1785 24.7116 30.1537 24.6462 30.1024C24.4898 29.9804 24.4621 29.7546 24.5842 29.5988L24.8081 29.3121C24.9298 29.1552 25.1555 29.1272 25.3117 29.25C25.4678 29.372 25.4958 29.5978 25.3738 29.7535L25.1498 30.0403C25.0787 30.1311 24.9732 30.1785 24.8666 30.1785Z" fill="#C49362"/>
<path d="M25.3601 20.7042C25.1932 20.7042 25.0439 20.5875 25.0091 20.4177C24.9693 20.2236 25.0938 20.0341 25.288 19.9935L25.6444 19.9199C25.8386 19.8808 26.0284 20.0046 26.0686 20.1988C26.1085 20.393 25.9839 20.5825 25.7898 20.623L25.4334 20.6966C25.4086 20.7017 25.3845 20.7042 25.3601 20.7042Z" fill="#C49362"/>
<path d="M20.8233 21.6369C20.6564 21.6369 20.5071 21.5202 20.4722 21.3501C20.4324 21.1559 20.5573 20.9664 20.7515 20.9262L21.5077 20.7705C21.7005 20.7321 21.8914 20.8555 21.9316 21.0497C21.9714 21.2439 21.8465 21.4334 21.6524 21.4736L20.8961 21.6294C20.8717 21.6344 20.8469 21.6369 20.8233 21.6369ZM22.3357 21.3257C22.1689 21.3257 22.0192 21.2087 21.9844 21.0389C21.9445 20.8448 22.0694 20.6553 22.2636 20.6151L23.0195 20.4596C23.2129 20.4209 23.4035 20.5447 23.4434 20.7389C23.4832 20.9331 23.3583 21.1226 23.1641 21.1628L22.4079 21.3182C22.3838 21.3232 22.3594 21.3257 22.3357 21.3257ZM23.8482 21.0149C23.6813 21.0149 23.532 20.8982 23.4968 20.7281C23.457 20.5343 23.5819 20.3444 23.7761 20.3042L24.5319 20.1485C24.7258 20.1097 24.9156 20.2335 24.9558 20.4277C24.9957 20.6215 24.8708 20.8114 24.6766 20.8516L23.9207 21.0073C23.8963 21.0124 23.8719 21.0149 23.8482 21.0149Z" fill="#C49362"/>
<path d="M19.7106 21.8659C19.5437 21.8659 19.3944 21.7493 19.3592 21.5792C19.3194 21.385 19.4443 21.1955 19.6385 21.1553L19.9945 21.0821C20.1887 21.0437 20.3782 21.1671 20.4184 21.3613C20.4582 21.5555 20.3333 21.745 20.1391 21.7852L19.7831 21.8584C19.7591 21.8634 19.7346 21.8659 19.7106 21.8659Z" fill="#C49362"/>
<path d="M26.571 15.1574C26.5129 15.1574 26.4537 15.1434 26.3991 15.1132L26.08 14.9384C25.9063 14.843 25.8424 14.6251 25.9379 14.4514C26.033 14.2777 26.2512 14.2134 26.4249 14.3089L26.744 14.4837C26.9177 14.5792 26.9816 14.797 26.8862 14.9707C26.8208 15.0903 26.6977 15.1574 26.571 15.1574Z" fill="#C49362"/>
<path d="M25.5708 14.609C25.5127 14.609 25.4535 14.595 25.3989 14.5648L24.718 14.1916C24.5443 14.0961 24.4804 13.8779 24.5759 13.7045C24.671 13.5308 24.8892 13.4666 25.063 13.5624L25.7438 13.9356C25.9176 14.0311 25.9814 14.2493 25.886 14.4227C25.821 14.5419 25.6979 14.609 25.5708 14.609ZM24.2091 13.8621C24.151 13.8621 24.0917 13.8481 24.0372 13.8179L23.3563 13.4447C23.1826 13.3492 23.1187 13.131 23.2142 12.9576C23.3093 12.7839 23.5275 12.7193 23.7012 12.8155L24.3821 13.1887C24.5558 13.2842 24.6197 13.5024 24.5242 13.6758C24.4593 13.795 24.3362 13.8621 24.2091 13.8621ZM22.8477 13.1152C22.7896 13.1152 22.7304 13.1012 22.6758 13.071L21.9953 12.6978C21.8216 12.6023 21.7577 12.3841 21.8532 12.2107C21.9483 12.037 22.1661 11.9724 22.3402 12.0686L23.0211 12.4418C23.1948 12.5373 23.2587 12.7555 23.1632 12.9289C23.0975 13.0477 22.9744 13.1152 22.8477 13.1152Z" fill="#C49362"/>
<path d="M21.4863 12.3682C21.4282 12.3682 21.3689 12.3542 21.3144 12.3241L20.9953 12.1493C20.8216 12.0538 20.7577 11.836 20.8532 11.6622C20.9483 11.4885 21.1665 11.4239 21.3402 11.5201L21.6593 11.6949C21.833 11.7904 21.8969 12.0082 21.8014 12.182C21.7361 12.3008 21.613 12.3682 21.4863 12.3682Z" fill="#C49362"/>
<path d="M30.7367 11.5195C30.5924 11.5195 30.4561 11.4315 30.4011 11.2887L30.2716 10.9491C30.2012 10.7639 30.2938 10.5565 30.479 10.4858C30.6632 10.4154 30.8717 10.5084 30.9424 10.6932L31.072 11.0328C31.1423 11.218 31.0497 11.4254 30.8645 11.4961C30.8225 11.5119 30.7794 11.5195 30.7367 11.5195Z" fill="#C49362"/>
<path d="M30.3308 10.4549C30.1865 10.4549 30.0501 10.3669 29.9952 10.2237L29.7185 9.49942C29.6481 9.31422 29.7404 9.10676 29.9259 9.03606C30.1097 8.96571 30.3186 9.05831 30.3893 9.24351L30.666 9.96818C30.7364 10.1534 30.6438 10.3608 30.4586 10.4315C30.4166 10.4473 30.3735 10.4549 30.3308 10.4549ZM29.7781 9.00556C29.6338 9.00556 29.4974 8.91763 29.4425 8.77478L29.1657 8.05013C29.0954 7.86493 29.188 7.65747 29.3732 7.58676C29.5577 7.51606 29.7658 7.60902 29.8365 7.79422L30.1133 8.51887C30.1836 8.70407 30.091 8.91153 29.9058 8.98223C29.8638 8.99802 29.8208 9.00556 29.7781 9.00556ZM29.225 7.55662C29.0807 7.55662 28.9443 7.46867 28.8894 7.32546L28.6127 6.60117C28.5423 6.41597 28.6349 6.20853 28.8201 6.13782C29.0046 6.06712 29.2128 6.16008 29.2835 6.34528L29.5602 7.06992C29.6305 7.25512 29.5379 7.46258 29.3527 7.53329C29.3107 7.54908 29.2677 7.55662 29.225 7.55662Z" fill="#C49362"/>
<path d="M28.6723 6.10738C28.528 6.10738 28.3916 6.01945 28.3367 5.8766L28.2071 5.53669C28.1367 5.35149 28.2297 5.14406 28.4145 5.07335C28.5997 5.00228 28.8072 5.09596 28.8779 5.2808L29.0075 5.62068C29.0778 5.80589 28.9849 6.01335 28.8 6.08405C28.758 6.09984 28.7146 6.10738 28.6723 6.10738Z" fill="#C49362"/>
<path d="M40.6067 18.6462C33.6811 12.5698 27.6021 17.8437 26.7292 18.5672C26.6782 18.6092 26.6754 18.6857 26.7224 18.7324C26.7665 18.7761 26.81 18.8192 26.81 18.8192C32.7737 24.7474 39.3961 19.9362 40.5906 18.9771C40.6939 18.8939 40.7011 18.7395 40.6067 18.6462Z" stroke="#C49362" stroke-miterlimit="10"/>
<path d="M33.6813 21.702C35.1083 21.702 36.2651 20.3705 36.2651 18.728C36.2651 17.0855 35.1083 15.754 33.6813 15.754C32.2543 15.754 31.0974 17.0855 31.0974 18.728C31.0974 20.3705 32.2543 21.702 33.6813 21.702Z" fill="#C49362"/>
</svg>
