<svg width="24" height="15" viewBox="0 0 24 15" fill="none" xmlns="http://www.w3.org/2000/svg">
<path d="M15.5846 7.20457C15.657 7.15346 15.7278 7.09997 15.8013 7.05124C16.6003 6.52309 17.3985 5.99335 18.2001 5.46916C18.3517 5.37011 18.5138 5.28453 18.6781 5.20846C20.3357 4.44219 21.8212 3.41758 23.0931 2.07799C23.3606 1.79629 23.5988 1.48288 23.8347 1.17106C23.9602 1.00505 24.0476 0.810108 23.9718 0.587834C23.9094 0.47214 23.8124 0.427769 23.6912 0.419449C23.5169 0.407563 23.3487 0.441633 23.197 0.519687C22.9146 0.6647 22.6313 0.81288 22.3654 0.987213C21.8116 1.35054 21.2901 1.763 20.8048 2.21785C20.2198 2.76621 19.646 3.32843 19.0818 3.89937C18.6785 4.30786 18.3109 4.75083 18.0023 5.24253C17.9488 5.32772 17.8738 5.40933 17.7906 5.46243C17.0713 5.92401 16.3478 6.37926 15.6243 6.83451C15.5908 6.85551 15.545 6.8567 15.4657 6.8769C15.5092 6.75725 15.535 6.67246 15.5704 6.59203C16.1292 5.32653 16.541 4.0115 16.8304 2.65447C16.942 2.13029 17.0148 1.59976 17.0398 1.06528C17.0509 0.823586 17.0094 0.578729 16.9855 0.336248C16.9801 0.279986 16.9551 0.223714 16.9297 0.172603C16.9047 0.122284 16.867 0.0783079 16.8443 0.0450262C16.6684 -0.0449138 16.5318 0.00699337 16.4367 0.137743C16.322 0.294643 16.2162 0.462633 16.1338 0.639343C15.8494 1.24911 15.6389 1.88899 15.4588 2.53838C15.0886 3.87203 14.8215 5.22787 14.6702 6.60668C14.6425 6.85947 14.6483 7.11621 14.6387 7.36503C14.3354 7.61108 12.4173 8.62617 12.0552 8.7272C12.0659 8.64123 12.0679 8.56436 12.0859 8.49186C12.2056 8.00729 12.3438 7.52709 12.4477 7.03935C12.6297 6.18354 12.6802 5.31108 12.714 4.43822C12.7433 3.68106 12.7132 2.9247 12.6471 2.17031C12.6155 1.81174 12.5739 1.45079 12.4508 1.11005C12.3961 0.959489 12.3272 0.806942 12.233 0.680551C12.0894 0.488388 11.8604 0.497896 11.7126 0.68887C11.643 0.77881 11.5872 0.882617 11.5368 0.986028C11.3428 1.3862 11.2262 1.81293 11.1873 2.25549C11.1311 2.8926 11.0792 3.5313 11.0622 4.17039C11.0334 5.2877 11.053 6.4058 11.1242 7.52193C11.1473 7.88169 11.19 8.24026 11.2223 8.59963C11.2381 8.77238 11.2508 8.94512 11.2654 9.12341C10.9845 9.33024 10.6708 9.43365 10.3772 9.57629C10.0809 9.72011 9.77952 9.85443 9.47664 9.98201C9.17568 10.1088 8.88512 10.2661 8.53913 10.3513C8.5299 10.2586 8.51219 10.1825 8.51681 10.108C8.53913 9.77123 8.57338 9.43564 8.59301 9.09886C8.64612 8.17885 8.60764 7.26044 8.54221 6.34241C8.4841 5.52939 8.40481 4.71874 8.24433 3.91997C8.17352 3.56774 8.08309 3.21789 7.97379 2.87635C7.90374 2.65764 7.79405 2.44963 7.68091 2.24954C7.58277 2.076 7.45038 1.92029 7.22332 1.9504C6.99587 1.98052 6.91466 2.17149 6.85116 2.3593C6.79228 2.53442 6.74726 2.71628 6.71608 2.89894C6.63603 3.37122 6.61525 3.84865 6.65373 4.32609C6.77881 5.87131 7.0028 7.3999 7.41767 8.89402C7.55737 9.39721 7.7067 9.89762 7.85102 10.3996C7.86988 10.4646 7.8845 10.5308 7.90528 10.6132C7.81368 10.6599 7.73787 10.7071 7.65628 10.7392C5.78358 11.4718 3.88125 12.1025 1.90926 12.488C1.4101 12.5855 0.903252 12.6402 0.399864 12.7139C0.332899 12.7238 0.263247 12.7218 0.198206 12.7396C0.0950661 12.7678 0.0115471 12.8244 0 12.9698C0.0207825 13.0039 0.0500393 13.0515 0.0758247 13.0942C0.27441 13.1743 0.46645 13.1303 0.654644 13.1038C1.40511 12.9972 2.14787 12.8486 2.8841 12.6628C4.47816 12.2598 6.03258 11.7301 7.56699 11.1334C7.68168 11.0886 7.7979 11.049 7.91105 11.0078C7.97147 11.0569 8.01726 11.0902 8.05844 11.1286C9.70446 12.6624 11.5895 13.7963 13.6419 14.6434C13.986 14.7853 14.3531 14.8721 14.7141 14.9648C14.865 15.0036 15.0278 15.0008 15.1852 14.9992C15.2729 14.9984 15.3653 14.9735 15.4469 14.9378C15.6247 14.8606 15.6955 14.6914 15.6193 14.5071C15.5762 14.4021 15.5127 14.2979 15.4345 14.2183C15.2748 14.0547 15.1063 13.8974 14.9281 13.7559C14.4874 13.4065 14.0033 13.1287 13.5072 12.8728C12.435 12.3201 11.3278 11.8486 10.2148 11.3909C9.76374 11.2055 9.30768 11.0324 8.85471 10.8513C8.78543 10.8236 8.7204 10.7839 8.61033 10.7277C9.52282 10.3184 10.3899 9.92971 11.2593 9.54023C11.3055 9.56083 11.3505 9.57233 11.3859 9.59769C11.9201 9.97924 12.5093 10.2459 13.1189 10.4662C14.5305 10.9765 15.9757 11.3509 17.4581 11.5585C17.8603 11.6148 18.269 11.6299 18.6754 11.6409C18.8767 11.6465 19.0818 11.6144 19.2808 11.5748C19.472 11.5363 19.6633 11.4646 19.7033 11.2305C19.7403 11.0145 19.6033 10.8774 19.4474 10.7756C19.2669 10.6576 19.0768 10.551 18.8817 10.461C18.1974 10.1464 17.477 9.94794 16.7457 9.79025C15.3164 9.48199 13.8717 9.28784 12.4161 9.17492C12.3392 9.16898 12.263 9.15631 12.1818 9.1464C12.1968 9.10995 12.1991 9.07865 12.2137 9.07072C13.0527 8.61468 13.8924 8.16023 14.7437 7.69943C15.3376 8.09683 16.0303 8.17093 16.7073 8.28702C17.8591 8.48433 19.0202 8.56159 20.1879 8.51088C20.7871 8.48473 21.384 8.43322 21.9717 8.30365C22.126 8.26958 22.278 8.22283 22.4285 8.17409C22.5032 8.14993 22.5782 8.11665 22.6432 8.07227C22.8568 7.92726 22.863 7.67923 22.6498 7.52708C22.5493 7.45537 22.432 7.3999 22.3142 7.36543C22.0975 7.30164 21.877 7.23983 21.6542 7.2113C21.2058 7.15425 20.7551 7.09561 20.3045 7.08214C19.6945 7.06352 19.083 7.06866 18.4734 7.096C17.6944 7.13126 16.9166 7.19903 16.1381 7.25133C15.9595 7.26321 15.7805 7.26955 15.602 7.27827C15.595 7.2541 15.59 7.22953 15.5846 7.20457Z" fill="white"/>
</svg>
