<svg width="53" height="93" viewBox="0 0 53 93" fill="none" xmlns="http://www.w3.org/2000/svg">
<path d="M15.5849 43.375C15.7265 43.542 15.8364 43.678 15.9525 43.8088C16.4016 44.3174 16.6938 44.9075 16.832 45.5678C16.8892 45.8408 16.9249 46.1262 16.9158 46.4037C16.8648 47.9713 15.8341 49.0377 14.2676 49.1419C13.212 49.2122 12.23 48.9573 11.3527 48.3638C10.062 47.4905 9.65712 46.0237 10.2863 44.5971C10.6799 43.7057 11.2678 42.991 12.1427 42.5334C12.213 42.4966 12.2747 42.4451 12.3387 42.3981C12.354 42.3873 12.3614 42.3658 12.3857 42.3295C12.3398 42.2332 12.2945 42.1228 12.2368 42.0197C11.3725 40.4838 12.6983 38.9009 13.9771 38.7594C14.9036 38.6569 16.2271 39.055 16.879 40.2239C17.4283 41.2087 17.1876 42.2842 16.2685 42.9412C16.0606 43.0895 15.8375 43.2158 15.5849 43.375Z" fill="#CCB47F"/>
<path d="M3.31859 18.3545C1.72946 17.9258 0.783114 17.185 0.233204 15.9691C0.0565081 15.5789 -0.0437317 15.17 0.018565 14.7402C0.141459 13.8941 0.647192 13.3753 1.44855 13.1329C1.94636 12.9823 2.44756 12.8401 2.9516 12.7121C4.90601 12.2149 6.46061 13.1799 7.16456 14.6563C7.4398 15.2334 7.53947 15.8411 7.36674 16.4714C7.16626 17.2037 6.71772 17.7009 5.97526 17.9133C5.82178 17.9575 5.66263 17.9954 5.52218 18.0679C4.70836 18.4859 3.86793 18.5102 3.31859 18.3545Z" fill="#CCB47F"/>
<path d="M8.18178 11.1308C6.15883 10.6285 4.85401 8.82527 4.98709 6.85046C5.02277 6.32094 5.13321 5.82087 5.39486 5.35592C6.15941 3.99615 7.96034 3.85513 8.92424 5.08238C8.98597 5.1611 9.04996 5.24095 9.0964 5.32873C9.35635 5.8237 9.74541 6.18672 10.2211 6.47102C10.4097 6.58372 10.5881 6.71624 10.7614 6.8516C11.7372 7.61331 11.8669 8.66783 11.2496 9.74839C10.9676 10.2417 10.5394 10.6183 10.062 10.9224C9.64122 11.1903 9.16494 11.2594 8.67336 11.2095C8.47401 11.1903 8.27692 11.1467 8.18178 11.1308Z" fill="#CCB47F"/>
<path d="M26.9404 12.5257C26.7898 13.1221 26.5259 13.6153 26.1572 14.0503C25.3824 14.9643 24.4791 15.1512 23.3436 14.6308C22.8572 14.4076 22.4647 14.0554 22.1923 13.5984C21.9878 13.2557 21.8066 12.891 21.6746 12.515C21.3241 11.5148 21.2437 10.4733 21.3077 9.42334C21.3349 8.98217 21.4453 8.55119 21.6826 8.16382C22.1232 7.44571 22.826 7.14668 23.6404 7.33357C24.3432 7.49441 24.8999 7.88179 25.2669 8.49003C25.7035 9.21323 26.16 9.92002 26.6471 10.6104C27.069 11.2056 27.1409 11.8705 26.9404 12.5257Z" fill="#CCB47F"/>
<path d="M19.9043 35.2074C19.7644 35.7907 19.5214 36.2483 19.1289 36.6119C18.4125 37.2756 17.584 37.4155 16.675 37.0814C16.2356 36.92 15.8459 36.6662 15.5384 36.3145C14.6391 35.2866 14.195 34.0894 14.3077 32.7195C14.37 31.9617 14.7546 31.3982 15.4903 31.1241C15.8278 30.9984 16.1704 30.8794 16.5198 30.7934C17.1808 30.6314 17.7947 30.7741 18.3497 31.1581C19.5271 31.973 20.239 33.8833 19.9043 35.2074Z" fill="#CCB47F"/>
<path d="M37.572 15.5924C37.4055 16.2675 37.2356 16.6957 36.9615 17.0728C36.432 17.8 35.7161 18.116 34.819 18.0005C34.6803 17.9824 34.5427 17.954 34.4056 17.924C32.851 17.5831 32.2887 16.4414 32.283 15.2504C32.2807 14.7684 32.3668 14.3001 32.5537 13.8442C33.0753 12.5727 34.3858 11.9923 35.5768 12.1639C36.5605 12.3054 37.3743 13.1119 37.589 14.1477C37.6881 14.6308 37.662 15.2328 37.572 15.5924Z" fill="#CCB47F"/>
<path d="M42.5314 34.0774C42.4465 34.3414 42.4091 34.4773 42.3593 34.6081C42.0325 35.4723 41.2674 35.9367 40.3595 35.7912C39.7592 35.6949 39.1929 35.4803 38.6889 35.1342C37.6326 34.4099 37.1314 33.0988 37.444 31.9146C37.7261 30.8459 38.6764 30.1607 39.787 30.2388C40.7203 30.3045 41.4769 30.7146 42.0568 31.448C42.404 31.8874 42.6016 32.3909 42.6033 32.9499C42.605 33.3695 42.5518 33.7892 42.5314 34.0774Z" fill="#CCB47F"/>
<path d="M49.375 41.1425C49.0635 41.0083 48.739 40.8978 48.4433 40.7353C47.92 40.4476 47.6187 39.9849 47.5219 39.3982C47.4896 39.2022 47.4851 38.9989 47.4885 38.7996C47.5162 37.0575 49.2113 35.9968 50.7925 36.7291C51.0105 36.8299 51.2291 36.9307 51.4438 37.0388C52.4569 37.5491 52.859 38.6144 52.4445 39.6819C52.0231 40.767 50.9618 41.3781 49.7991 41.2008C49.6615 41.1799 49.5273 41.1334 49.3914 41.0989C49.3857 41.1136 49.38 41.1278 49.375 41.1425Z" fill="#CCB47F"/>
<path d="M14.6174 3.27016C14.5075 3.72889 14.3065 4.13892 13.9712 4.47362C13.4961 4.94764 12.9263 5.1249 12.266 4.97482C10.8258 4.64748 10.0058 3.45705 10.1706 1.98572C10.328 0.580076 11.8605 -0.681717 13.6031 0.418102C14.4594 0.958384 14.7822 1.79882 14.6995 2.79727C14.6871 2.95641 14.6457 3.11272 14.6174 3.27016Z" fill="#CCB47F"/>
<path d="M31.1861 8.50411C31.0672 9.00135 30.8423 9.44592 30.4946 9.82084C29.9611 10.3968 29.3127 10.6471 28.5402 10.4178C27.7779 10.1912 27.3118 9.65661 27.1929 8.8796C27.121 8.40897 27.1402 7.92079 27.1583 7.44224C27.1663 7.2293 27.2461 7.00786 27.3367 6.81021C27.8793 5.62544 29.2351 5.26809 30.323 6.01225C31.1346 6.56669 31.4495 7.47565 31.1861 8.50411Z" fill="#CCB47F"/>
<path d="M50.1866 30.2627C50.0479 30.8007 49.7924 31.277 49.3892 31.6576C48.8467 32.1695 48.2186 32.3406 47.5028 32.0506C47.4286 32.0206 47.3487 31.9928 47.2876 31.9441C45.9051 30.8455 45.9799 28.9346 47.4138 28.1656C48.1297 27.7816 48.8501 27.8331 49.524 28.2919C50.1725 28.7342 50.4007 29.4358 50.1866 30.2627Z" fill="#CCB47F"/>
<path d="M8.72422 7.95713C10.1553 9.31746 11.4817 10.7797 12.7792 12.2664C14.0761 13.7524 15.339 15.2674 16.6359 16.7613C15.4443 14.4031 14.6758 11.888 13.8858 9.38315C13.0589 6.76102 12.1409 2.40196 12.2791 1.71387C12.3159 1.85092 12.3555 1.9874 12.3889 2.12559C12.8245 3.93106 13.2045 5.75182 13.7063 7.5386C14.5456 10.5305 15.574 13.4602 16.9174 16.2681C17.3636 17.2008 17.8563 18.1143 18.3779 19.0068C18.6956 19.5505 19.104 20.0421 19.48 20.5512C24.581 27.4582 29.0227 34.7639 32.7702 42.491C32.8211 42.5963 32.8744 42.7005 32.9774 42.7872C32.9616 42.7141 32.9497 42.6399 32.9299 42.568C31.7853 38.4094 30.8996 34.1942 30.2239 29.9359C29.7171 26.739 28.8455 23.6462 27.7615 20.6033C26.5541 17.2138 25.2481 13.864 23.8334 10.5555C23.7309 10.3165 23.6358 10.0741 23.514 9.77618C23.6833 9.85604 23.7122 9.9761 23.757 10.0707C24.3499 11.324 24.9633 12.5682 25.5234 13.8362C26.8882 16.9261 28.0838 20.0817 29.132 23.2934C29.1643 23.3931 29.2045 23.4905 29.2697 23.5828C28.9763 20.929 28.7299 18.2746 28.6053 15.6105C28.4807 12.9494 28.3975 10.2876 28.6489 7.62582C28.6235 15.0391 29.5845 22.3561 30.7568 29.6573C30.9375 26.9604 31.3436 24.306 32.0067 21.689C32.6705 19.0686 33.5149 16.5195 34.775 14.1234C34.8039 14.1335 34.8333 14.1443 34.8622 14.1545C34.7682 14.4116 34.6776 14.6693 34.5802 14.9253C34.2976 15.6655 34.0053 16.4017 33.7324 17.1453C33.5902 17.531 33.4673 17.9252 33.3575 18.321C33.0414 19.4633 32.7277 20.6062 32.4304 21.7536C32.1058 23.0086 31.8929 24.2868 31.6964 25.5678C31.4648 27.0777 31.3322 28.596 31.2614 30.1217C31.1918 31.6236 31.3204 33.0989 31.6313 34.5754C32.3681 38.0759 33.187 41.5537 34.1968 44.9863C34.6436 46.5052 35.283 47.9459 35.8958 49.3991C37.968 54.3109 39.7344 59.3304 41.1813 64.4613C41.208 64.5565 41.2414 64.6493 41.311 64.7411C41.3116 64.6686 41.3178 64.5961 41.3122 64.5242C41.0788 61.436 41.0749 58.3466 41.3008 55.259C41.413 53.7282 41.5744 52.1996 41.7613 50.6762C41.9221 49.3618 42.1073 48.0467 42.3599 46.7476C42.6357 45.3278 42.5824 43.9102 42.4777 42.4893C42.2404 39.2652 41.4651 36.1713 40.1568 33.2133C40.0107 32.8832 39.8346 32.566 39.6726 32.2426C39.6336 32.165 39.5973 32.0863 39.5599 32.0076C39.5764 31.9963 39.5933 31.9849 39.6098 31.9736C39.6856 32.0727 39.7678 32.1673 39.8357 32.2715C40.3001 32.9817 40.6377 33.7553 40.9565 34.538C42.0914 37.3243 42.7473 40.2189 42.9177 43.2227C42.9239 43.3309 42.9392 43.439 43.0021 43.558C43.027 43.4594 43.0519 43.3614 43.0769 43.2629C43.3804 42.0855 43.6494 40.8973 43.9977 39.7335C44.397 38.3975 44.8319 37.0701 45.3144 35.7618C46.0886 33.6624 46.9789 31.6117 48.1099 29.6743C48.1993 29.5214 48.2996 29.3747 48.4327 29.2473C47.8443 30.5855 47.2422 31.9176 46.6719 33.2626C46.0914 34.6309 45.6112 36.0376 45.1859 37.4603C44.7634 38.875 44.3885 40.3044 44.0175 41.7338C43.6483 43.157 43.3561 44.5972 43.1324 46.0566C44.2667 43.6044 45.9029 41.5656 48.0227 39.9125C48.8246 39.2867 49.6786 38.7453 50.6261 38.3653C50.6385 38.3828 50.6516 38.4009 50.664 38.4185C50.5791 38.4751 50.4964 38.5352 50.4097 38.5884C48.3098 39.8762 46.5581 41.5396 45.1038 43.5212C44.3217 44.5864 43.7117 45.748 43.1879 46.9571C43.1001 47.1598 43.0157 47.3632 42.9262 47.5653C42.7733 47.9091 42.7104 48.2744 42.6544 48.6419C42.011 52.8589 41.7205 57.1007 41.7703 61.3652C41.7986 63.8061 41.9408 66.2402 42.3316 68.6516C42.4969 69.6705 42.7688 70.6717 42.9834 71.6832C44.1563 77.2129 44.8954 82.7981 45.11 88.4489C45.1496 89.4916 45.1717 90.5353 45.1967 91.5791C45.1995 91.6974 45.1842 91.8209 45.153 91.9347C45.1123 92.0825 45.0075 92.1749 44.8444 92.172C44.6768 92.1692 44.5522 92.0927 44.5023 91.9296C44.4763 91.8452 44.4683 91.7524 44.4689 91.6634C44.4814 86.8519 43.9813 82.0862 43.2094 77.3437C43.0519 76.3741 42.7235 75.4578 42.4035 74.5387C40.9848 70.4696 39.0978 66.6241 36.8268 62.9656C33.934 58.3053 30.4924 54.0889 26.5411 50.2883C25.798 49.5736 24.9219 49.0316 23.9886 48.6051C22.9675 48.139 21.9203 47.7296 20.8823 47.3009C19.9971 46.9356 19.0728 46.687 18.1389 46.4984C16.6523 46.1988 15.1493 46.021 13.6275 46.0498C13.5301 46.0515 13.4321 46.047 13.3347 46.0453C13.3308 46.0249 13.3268 46.0045 13.3223 45.9847C13.4202 45.9621 13.5171 45.9218 13.6156 45.9196C14.2256 45.9031 14.8372 45.8663 15.4466 45.8907C16.6823 45.9388 17.9073 46.1093 19.1057 46.4089C19.8827 46.6031 20.6489 46.8535 21.401 47.1315C22.2273 47.4368 23.0326 47.8009 23.8453 48.143C24.0345 48.2223 24.218 48.3157 24.4179 48.3775C21.2453 45.5333 17.7731 43.1134 14.0693 41.0163C14.0829 40.9913 14.0964 40.9659 14.1106 40.9409C14.2862 41.0197 14.4634 41.0938 14.6362 41.1782C16.3782 42.0311 18.0296 43.0403 19.642 44.1141C21.6921 45.4795 23.6301 46.9905 25.4826 48.6125C25.5726 48.6918 25.6661 48.7677 25.7969 48.8226C25.755 48.7563 25.717 48.6872 25.67 48.625C23.3481 45.5571 21.3291 42.295 19.4744 38.9282C18.4742 37.1137 17.559 35.2584 16.8001 33.3283C16.6914 33.0519 16.603 32.7671 16.5056 32.4862C16.5243 32.4794 16.5424 32.472 16.5606 32.4652C16.7435 32.8747 16.9225 33.2852 17.1094 33.6924C18.1497 35.9617 19.3724 38.1331 20.671 40.2619C22.8395 43.8173 25.1915 47.2488 27.783 50.5091C28.5187 51.4351 29.3501 52.2863 30.1492 53.1607C35.2297 58.721 39.2519 64.9512 42.0575 71.9522C42.0801 72.0083 42.1022 72.0644 42.1271 72.1187C42.135 72.1363 42.152 72.1499 42.2104 72.219C42.1883 72.0621 42.1798 71.9613 42.1588 71.8633C41.3648 68.1487 40.3947 64.48 39.2524 60.8572C36.7917 53.0554 33.6463 45.539 29.853 38.2916C28.5521 35.8066 27.1771 33.364 25.751 30.9491C25.0805 29.8136 24.2225 28.8322 23.335 27.8745C19.6148 23.8598 15.2982 20.6203 10.4719 18.0537C9.12405 17.3367 7.73993 16.6934 6.30767 16.161C5.4712 15.8501 4.62622 15.5607 3.78465 15.2628C3.53886 15.1756 3.29025 15.0946 3.04559 15.0051C2.98669 14.9836 2.93572 14.9383 2.88135 14.9043C2.88701 14.8845 2.89267 14.8653 2.89834 14.8454C3.15092 14.8822 3.4069 14.9026 3.65496 14.9581C4.65623 15.1813 5.62806 15.4984 6.58687 15.8631C11.3899 17.689 15.706 20.336 19.6516 23.6072C20.82 24.5756 21.9254 25.6137 22.9647 26.7209C23.0196 26.7792 23.0762 26.8358 23.1351 26.8902C23.1459 26.8998 23.1702 26.8947 23.2342 26.901C21.0697 23.5302 18.7613 20.2975 16.3295 17.151C13.8971 14.0033 11.305 10.9898 8.63077 8.04547C8.66135 8.01602 8.6925 7.98658 8.72422 7.95713Z" fill="white"/>
</svg>
