<svg width="203" height="121" viewBox="0 0 203 121" fill="none" xmlns="http://www.w3.org/2000/svg">
<path d="M180.077 50.4125C179.748 50.4702 179.419 50.533 179.091 50.5977C179.046 50.5772 178.999 50.5643 178.947 50.5663C178.693 50.3777 178.376 50.2383 178.108 50.0752C177.502 49.7071 176.91 49.3106 176.37 48.8483C175.867 48.4169 175.409 47.9177 175.055 47.354C174.881 47.0763 174.736 46.7789 174.62 46.473C174.502 46.1593 174.433 45.8177 174.296 45.513C174.27 45.4534 174.23 45.415 174.184 45.3908C174.13 45.22 174.067 45.0517 173.958 44.9086C173.831 44.7419 173.552 44.8294 173.53 45.0331C173.5 45.2998 173.587 45.5636 173.649 45.8212C173.614 46.0664 173.675 46.3514 173.682 46.583C173.692 46.884 173.684 47.1857 173.664 47.4852C173.623 48.1057 173.527 48.7255 173.369 49.3266C173.213 49.9162 173.006 50.4975 172.752 51.0515C172.619 51.3422 172.478 51.63 172.321 51.9082C172.207 52.1098 172.073 52.3125 172.007 52.5363C171.597 52.6974 171.194 52.8718 170.801 53.0669C170.565 53.1841 170.658 53.6009 170.939 53.5334C171.344 53.4366 171.746 53.3301 172.147 53.2179C172.152 53.2201 172.155 53.2237 172.159 53.2261C172.668 53.4229 173.191 53.5772 173.679 53.8268C174.175 54.0794 174.638 54.3945 175.056 54.7622C175.85 55.4595 176.45 56.3597 176.806 57.352C176.874 57.5975 176.942 57.8432 177.01 58.0886C177.063 58.2808 177.215 58.4243 177.427 58.3947C177.604 58.3694 177.786 58.1675 177.733 57.9773C177.681 57.788 177.627 57.599 177.574 57.4089C177.585 57.3627 177.587 57.3117 177.575 57.257C177.563 57.2072 177.553 57.1551 177.541 57.1043C177.558 57.0845 177.573 57.063 177.584 57.0379C177.659 56.9506 177.708 56.8318 177.68 56.7197C177.653 56.6115 177.621 56.5042 177.586 56.3972C177.595 56.1389 177.59 55.8806 177.599 55.6222C177.619 55.0182 177.68 54.4179 177.803 53.8262C177.904 53.3392 178.066 52.865 178.291 52.4206C178.476 52.0553 178.716 51.7521 178.985 51.4589C179.389 51.3784 179.795 51.3017 180.201 51.2291C180.724 51.1345 180.602 50.3216 180.077 50.4125Z" fill="#CCB47F" fill-opacity="0.5"/>
<path d="M194.684 21.9695C194.482 22.0047 194.281 22.0438 194.079 22.0829C194.052 22.0709 194.022 22.0623 193.99 22.0632C193.835 21.9475 193.64 21.8621 193.476 21.7629C193.105 21.5368 192.742 21.2943 192.412 21.0102C192.103 20.7461 191.822 20.4393 191.606 20.0941C191.499 19.9244 191.41 19.7418 191.339 19.5534C191.267 19.3611 191.225 19.1521 191.14 18.9648C191.124 18.9289 191.1 18.9052 191.071 18.8904C191.038 18.7853 191 18.6829 190.933 18.5941C190.855 18.4917 190.683 18.5455 190.67 18.6699C190.652 18.8336 190.705 18.9954 190.744 19.1534C190.722 19.3034 190.759 19.4787 190.764 19.6207C190.77 19.8049 190.765 19.9898 190.753 20.1738C190.728 20.5541 190.669 20.9345 190.572 21.3026C190.477 21.6642 190.349 22.0198 190.193 22.3605C190.111 22.538 190.025 22.7151 189.928 22.8859C189.858 23.01 189.776 23.134 189.735 23.2707C189.485 23.3701 189.237 23.477 188.996 23.596C188.851 23.6678 188.908 23.9232 189.081 23.8825C189.329 23.8231 189.576 23.7577 189.822 23.6894C189.825 23.6909 189.827 23.6927 189.83 23.6943C190.142 23.8152 190.462 23.9096 190.762 24.0628C191.066 24.2173 191.35 24.4114 191.606 24.636C192.093 25.0629 192.461 25.6153 192.679 26.2232C192.72 26.3737 192.762 26.5241 192.804 26.6744C192.836 26.7919 192.93 26.8807 193.059 26.8617C193.168 26.846 193.28 26.7226 193.247 26.6062C193.215 26.4898 193.182 26.3744 193.15 26.258C193.156 26.2296 193.158 26.1981 193.15 26.1648C193.144 26.1344 193.137 26.1021 193.13 26.0708C193.14 26.0591 193.149 26.0455 193.157 26.0302C193.202 25.9767 193.233 25.9042 193.216 25.8349C193.2 25.7686 193.18 25.703 193.158 25.6374C193.163 25.4788 193.161 25.3203 193.166 25.1627C193.178 24.7926 193.215 24.4246 193.291 24.0619C193.354 23.7639 193.452 23.4725 193.591 23.2003C193.704 22.9764 193.851 22.7908 194.016 22.6107C194.264 22.5613 194.512 22.5141 194.761 22.4697C195.081 22.4113 195.005 21.913 194.684 21.9695Z" fill="#CCB47F" fill-opacity="0.5"/>
<path d="M175.145 11.8103C174.267 11.9455 174.476 13.3086 175.355 13.1733C176.233 13.0391 176.024 11.6751 175.145 11.8103Z" fill="#CCB47F" fill-opacity="0.5"/>
<path d="M181.971 1.9989C181.883 1.8334 181.794 1.66805 181.706 1.50353C181.663 1.40797 181.599 1.32875 181.514 1.26687L181.381 1.19338C181.281 1.15416 181.178 1.1427 181.071 1.15914C180.989 1.16865 180.916 1.19716 180.852 1.24438C180.783 1.27936 180.726 1.32961 180.681 1.39515C180.632 1.45735 180.601 1.52686 180.589 1.60365C180.563 1.67945 180.558 1.75814 180.573 1.83774C180.59 1.94449 180.632 2.03921 180.699 2.12291C180.83 2.26264 180.961 2.40137 181.09 2.54124C181.132 2.59651 181.183 2.63725 181.245 2.66515C181.301 2.70301 181.365 2.72468 181.434 2.73015C181.481 2.72908 181.527 2.72799 181.573 2.72791C181.645 2.71992 181.709 2.69492 181.765 2.65287C181.807 2.63431 181.842 2.60563 181.869 2.56914C181.919 2.52389 181.955 2.46877 181.979 2.40445L182.011 2.27299C182.023 2.17811 182.009 2.08618 181.971 1.9989Z" fill="#CCB47F" fill-opacity="0.5"/>
<path d="M202.693 22.6184C202.65 22.5228 202.586 22.4436 202.502 22.3817C202.458 22.3572 202.414 22.3327 202.368 22.3083C202.268 22.269 202.165 22.2576 202.059 22.274L201.896 22.3111C201.817 22.3203 201.745 22.3485 201.682 22.3948C201.614 22.4284 201.558 22.4786 201.514 22.543C201.466 22.604 201.436 22.6724 201.423 22.7472C201.397 22.821 201.393 22.8986 201.408 22.9772C201.423 23.0275 201.438 23.0779 201.452 23.1272C201.495 23.2208 201.558 23.2982 201.64 23.3594C201.683 23.3831 201.727 23.4076 201.77 23.4314C201.868 23.4699 201.969 23.4807 202.074 23.4655C202.129 23.4611 202.185 23.4565 202.24 23.4521C202.321 23.4426 202.394 23.4142 202.458 23.3669C202.528 23.3319 202.585 23.2816 202.63 23.2161C202.679 23.1539 202.709 23.0844 202.722 23.0076C202.748 22.9318 202.753 22.8541 202.737 22.7735L202.693 22.6184Z" fill="#CCB47F" fill-opacity="0.5"/>
<path d="M157.803 0.155564C157.16 0.254471 157.312 1.25399 157.956 1.15478C158.6 1.05572 158.447 0.0563518 157.803 0.155564Z" fill="#CCB47F" fill-opacity="0.5"/>
<path d="M153.682 45.6563C153.667 45.5604 153.629 45.4753 153.569 45.3995L153.469 45.3046C153.393 45.2486 153.308 45.2151 153.214 45.2043C153.074 45.2045 153.035 45.1994 152.903 45.2532C152.852 45.2741 152.802 45.3031 152.763 45.3404C152.78 45.3237 152.685 45.4121 152.661 45.4493C152.648 45.4695 152.632 45.5002 152.624 45.5146C152.616 45.5301 152.598 45.5582 152.588 45.5809C152.586 45.5853 152.584 45.5896 152.583 45.5938C152.568 45.6426 152.554 45.6924 152.546 45.7431C152.546 45.7482 152.545 45.7535 152.545 45.7586C152.543 45.8115 152.545 45.8638 152.548 45.9169C152.548 45.928 152.55 45.9389 152.553 45.9496C152.567 46.0001 152.579 46.0518 152.598 46.1004C152.634 46.1921 152.704 46.2581 152.778 46.3196C152.781 46.3231 152.785 46.3257 152.789 46.328C152.791 46.3287 152.792 46.3305 152.795 46.3312C152.815 46.3423 152.841 46.3564 152.855 46.3643C152.863 46.3692 152.896 46.3884 152.916 46.3985C152.921 46.4008 152.925 46.4022 152.93 46.4044C152.975 46.4188 153.022 46.4338 153.069 46.4387C153.183 46.4504 153.247 46.4335 153.354 46.3958C153.431 46.3606 153.496 46.3082 153.547 46.2396C153.597 46.1702 153.628 46.0936 153.638 46.0081C153.64 45.9907 153.637 45.9749 153.638 45.9576C153.663 45.9091 153.681 45.8578 153.685 45.8005C153.685 45.752 153.683 45.7036 153.682 45.6563Z" fill="#CCB47F" fill-opacity="0.5"/>
<path d="M183.185 55.616C182.578 55.7096 182.722 56.6546 183.331 56.5609C183.939 56.4673 183.794 55.5223 183.185 55.616Z" fill="#CCB47F" fill-opacity="0.5"/>
<path d="M195.408 71.0488C194.74 71.1516 194.899 72.1895 195.568 72.0865C196.236 71.9837 196.077 70.9458 195.408 71.0488Z" fill="#CCB47F" fill-opacity="0.5"/>
<path d="M165.42 81.613C164.737 81.7181 164.9 82.7798 165.583 82.6745C166.266 82.5693 166.104 81.5077 165.42 81.613Z" fill="#CCB47F" fill-opacity="0.5"/>
<path d="M143.234 26.7127C142.536 26.8201 142.702 27.9045 143.401 27.7969C144.099 27.6905 143.933 26.6051 143.234 26.7127Z" fill="#CCB47F" fill-opacity="0.5"/>
<path d="M174.193 32.5558C173.475 32.6662 173.646 33.7812 174.364 33.6706C175.082 33.5601 174.912 32.445 174.193 32.5558Z" fill="#CCB47F" fill-opacity="0.5"/>
<path d="M155.603 84.342L155.194 87.839L151.894 86.978L155.079 88.385L153.255 91.32L155.558 88.665L157.805 91.368L156.067 88.451L159.256 87.055L155.909 87.847L155.603 84.342Z" fill="#C49362"/>
<path d="M4.60304 113.342L4.19405 116.839L0.894043 115.978L4.07904 117.385L2.25505 120.32L4.55804 117.665L6.80504 120.368L5.06705 117.451L8.25604 116.055L4.90904 116.847L4.60304 113.342Z" fill="#C49362"/>
</svg>
