<svg width="202" height="213" viewBox="0 0 202 213" fill="none" xmlns="http://www.w3.org/2000/svg">
<path d="M-36.4686 178.65C-36.4292 178.391 -36.1838 178.276 -35.9625 178.302C-35.3564 176.944 -34.2623 175.8 -33.0986 174.874C-32.1894 174.151 -31.209 173.524 -30.218 172.922C-28.9709 172.165 -27.7284 171.402 -26.501 170.615C-21.4642 167.382 -16.6274 163.849 -11.936 160.136C-7.25073 156.428 -2.71091 152.54 1.76073 148.579C6.31268 144.547 10.7995 140.443 15.2984 136.354C17.6865 134.184 20.0807 132.023 22.4763 129.861C23.6734 128.78 24.8781 127.709 26.0812 126.636C26.2267 126.507 26.3706 126.375 26.5146 126.245C26.5979 126.141 26.707 126.05 26.8237 125.968C27.7723 125.112 28.7224 124.251 29.7058 123.439C30.3256 122.927 30.9529 122.425 31.5635 121.902C31.606 121.866 31.6545 121.855 31.7014 121.858C31.8909 121.657 32.0803 121.455 32.2667 121.252C33.1031 120.336 33.9259 119.404 34.7396 118.466C36.3701 116.59 37.9702 114.691 39.6189 112.832C42.7707 109.277 46.121 105.913 49.9501 103.082C53.5641 100.411 57.513 98.1819 61.6573 96.4423C65.7895 94.7088 70.1248 93.4617 74.5464 92.7374C78.9529 92.0161 83.5245 91.7419 87.9689 92.2662C88.5174 92.3313 89.0629 92.4056 89.6084 92.4904C89.963 92.545 89.8676 93.0541 89.5221 93.0314C85.0899 92.745 80.6349 92.7935 76.2314 93.4072C71.8401 94.0194 67.523 95.1528 63.3938 96.7666C59.2813 98.3743 55.3597 100.458 51.7412 102.988C47.9151 105.666 44.5481 108.86 41.4236 112.32C38.1354 115.961 35.0699 119.801 31.6893 123.359C31.265 123.804 30.8392 124.227 30.368 124.624C30.2452 124.727 30.1104 124.737 29.9907 124.695C29.6134 124.978 29.2315 125.254 28.8421 125.524C28.483 125.772 28.1223 126.022 27.7632 126.271C27.6874 126.322 27.6101 126.371 27.5344 126.422C26.6631 127.235 25.7903 128.045 24.916 128.854C22.5824 131.015 20.2428 133.169 17.8941 135.311C13.3694 139.439 8.85382 143.577 4.28824 147.659C-0.133392 151.613 -4.61105 155.506 -9.22058 159.239C-13.818 162.962 -18.5472 166.528 -23.4643 169.819C-25.804 171.384 -28.2254 172.812 -30.5938 174.33C-32.4152 175.498 -34.4109 176.927 -35.217 179.024C-35.3791 179.449 -35.47 179.894 -35.5185 180.346C-35.467 181.329 -35.3928 182.308 -35.2064 183.288C-34.917 184.808 -34.4442 186.29 -33.8411 187.715C-32.6228 190.594 -30.8484 193.2 -28.7543 195.512C-24.5342 200.175 -19.1003 203.668 -13.6877 206.785C-12.0496 207.729 -10.3919 208.641 -8.71144 209.508C-7.15675 210.311 -5.54601 211.032 -4.01707 211.887C-3.63824 211.373 -3.26698 210.855 -2.85938 210.365C-3.37457 210.183 -3.88069 209.871 -4.32921 209.641C-5.02928 209.283 -5.71419 208.904 -6.39151 208.506C-7.69316 207.739 -9.12666 206.972 -10.1389 205.833C-10.2889 205.665 -10.0646 205.43 -9.87825 205.509C-9.17516 205.806 -8.57207 206.215 -7.93109 206.625C-7.26285 207.053 -6.59305 207.476 -5.90814 207.877C-5.24898 208.265 -4.58226 208.641 -3.90947 209.005C-3.43214 209.264 -2.86395 209.492 -2.40027 209.817C-2.08206 209.436 -1.76231 209.058 -1.44411 208.679C-0.531891 207.592 0.374268 206.501 1.28194 205.412C3.09726 203.231 4.88832 201.029 6.65668 198.811C10.207 194.358 13.6694 189.833 17.0258 185.231C20.2943 180.75 23.4401 176.188 26.5464 171.593C29.3012 167.519 32.0788 163.444 35.2639 159.688C38.3672 156.03 41.9145 152.545 46.0831 150.116C46.2892 149.996 46.4983 149.885 46.7074 149.778C46.7089 149.59 46.8195 149.406 47.0726 149.372C48.9819 149.102 50.9124 148.959 52.8307 148.781C54.7521 148.602 56.6735 148.417 58.5934 148.225C62.3892 147.846 66.1835 147.443 69.9733 147.017C77.5998 146.159 85.2156 145.203 92.8163 144.147C94.9499 143.85 97.0834 143.551 99.2154 143.245C100.281 143.092 101.347 142.936 102.414 142.789C102.943 142.716 103.472 142.636 104.001 142.568C104.055 142.483 104.143 142.416 104.267 142.392C109.003 141.444 113.546 139.825 117.904 137.757C122.293 135.673 126.492 133.217 130.718 130.824C132.846 129.62 134.982 128.429 137.154 127.303C139.295 126.194 141.532 125.245 143.609 124.016C144.629 123.413 145.609 122.731 146.479 121.924C147.358 121.107 148.109 120.16 148.793 119.178C150.285 117.032 151.575 114.733 152.933 112.501C154.366 110.145 155.8 107.789 157.235 105.434C158.66 103.094 160.056 100.732 161.518 98.4137C161.709 98.1107 161.906 97.8106 162.1 97.5091C161.909 97.4545 161.727 97.3636 161.558 97.2227C160.361 96.2332 161.494 94.5876 162.111 93.6269C162.893 92.4086 163.799 91.2782 164.758 90.1948C165.737 89.0901 166.748 87.9824 167.822 86.9626C167.63 86.8278 167.428 86.7096 167.223 86.602C166.972 87.0354 166.531 87.3794 166.181 87.7294C165.773 88.1385 165.37 88.5522 164.973 88.9704C164.587 89.3765 164.203 89.7887 163.812 90.1917C163.629 90.3811 163.447 90.5721 163.256 90.7524C163.053 90.9433 162.859 91.16 162.611 91.2903C162.488 91.354 162.385 91.204 162.424 91.0964C162.517 90.8448 162.708 90.6312 162.868 90.4205C163.034 90.2039 163.212 89.9978 163.39 89.7917C163.767 89.3568 164.167 88.9371 164.567 88.5234C164.958 88.1203 165.352 87.7203 165.752 87.3263C166.063 87.0202 166.381 86.6444 166.755 86.3944C166.298 86.205 165.814 86.0747 165.307 86.0065C164.903 86.455 164.503 86.9066 164.094 87.3475C163.685 87.7885 163.287 88.3037 162.764 88.6143C162.668 88.6719 162.518 88.5855 162.579 88.4673C162.855 87.9279 163.334 87.5036 163.746 87.0702C164.1 86.6975 164.463 86.3323 164.823 85.9656C164.237 85.9368 163.655 86.0004 163.085 86.1247C163.125 86.202 163.126 86.3035 163.044 86.3777C162.64 86.749 162.237 87.1202 161.832 87.4915C161.637 87.6703 161.438 87.8476 161.239 88.0233C161.029 88.2097 160.829 88.4173 160.585 88.5582C160.411 88.6598 160.201 88.4734 160.332 88.2961C160.498 88.0688 160.727 87.8915 160.936 87.7036C161.139 87.5203 161.343 87.3354 161.549 87.1566C161.897 86.852 162.247 86.5474 162.596 86.2429C161.902 86.4353 161.227 86.7096 160.585 87.0172C159.151 87.7067 157.785 88.5507 156.442 89.4007C155.121 90.2372 153.83 91.1206 152.564 92.0404C149.999 93.9042 147.555 95.9317 145.229 98.0864C142.936 100.211 140.707 102.449 138.684 104.834C137.724 105.967 136.825 107.19 136.264 108.572C136.296 108.601 136.323 108.636 136.336 108.684C136.375 108.834 136.419 108.977 136.449 109.13C136.478 109.272 136.499 109.416 136.528 109.559C136.578 109.812 136.645 110.062 136.727 110.306C136.811 110.563 136.901 110.819 137.007 111.069C137.116 111.327 137.311 111.623 137.246 111.91C137.211 112.067 137.072 112.13 136.927 112.085C136.637 111.994 136.492 111.642 136.367 111.388C136.236 111.116 136.12 110.839 136.034 110.551C135.966 110.324 135.914 110.091 135.866 109.859C135.742 110.424 135.679 111.006 135.702 111.579C135.737 112.445 135.99 113.238 136.29 114.046C136.452 114.483 135.863 114.821 135.575 114.444C134.86 113.509 134.648 112.256 134.705 111.059C134.475 111.063 134.243 111.05 134.025 111.051C134.017 111.051 134.008 111.053 133.999 111.053C133.985 111.485 133.97 111.915 133.957 112.345C133.949 112.559 133.943 112.773 133.925 112.986C133.916 113.092 133.911 113.2 133.898 113.305C133.879 113.436 133.826 113.533 133.746 113.638C133.667 113.741 133.47 113.753 133.399 113.632C133.325 113.508 133.276 113.402 133.279 113.255C133.282 113.139 133.285 113.024 133.288 112.909C133.294 112.695 133.31 112.483 133.326 112.27C133.358 111.871 133.39 111.471 133.42 111.073C133.157 111.08 132.891 111.083 132.628 111.1C132.458 111.11 132.291 111.132 132.123 111.148C132.166 111.36 132.182 111.582 132.217 111.789C132.279 112.156 132.358 112.521 132.434 112.885C132.51 113.253 132.62 113.609 132.743 113.964C132.803 114.139 132.869 114.315 132.937 114.488C133.002 114.655 133.126 114.846 133.072 115.027C133.044 115.118 132.969 115.168 132.875 115.133C132.7 115.07 132.632 114.882 132.55 114.727C132.464 114.562 132.384 114.393 132.308 114.221C132.141 113.845 132.006 113.453 131.879 113.062C131.756 112.682 131.675 112.289 131.618 111.894C131.588 111.676 131.55 111.435 131.553 111.2C131.124 111.25 130.699 111.307 130.271 111.368C130.346 112.136 130.405 112.904 130.424 113.673C130.47 115.402 130.302 117.156 129.602 118.757C128.933 120.284 127.862 121.592 126.73 122.799C125.262 124.365 123.734 125.877 122.234 127.41C120.675 129.003 119.149 130.656 117.494 132.149C117.144 132.465 116.616 131.908 116.923 131.556C118.219 130.074 119.655 128.711 121.037 127.307C122.386 125.939 123.742 124.578 125.094 123.215C126.248 122.049 127.429 120.858 128.282 119.446C129.152 118.005 129.524 116.388 129.585 114.717C129.65 112.933 129.418 111.135 129.206 109.368C128.986 107.54 128.711 105.719 128.383 103.907C127.72 100.232 126.829 96.606 125.747 93.0329C125.139 91.0252 124.463 89.0356 123.724 87.0717C123.362 86.1095 122.989 85.1519 122.599 84.2018C122.23 83.3002 121.815 82.4152 121.507 81.4924C119.589 81.1576 118.222 79.4422 117.246 77.8587C116.085 75.9767 115.179 73.9448 114.558 71.8233C114.52 71.8491 114.479 71.8688 114.429 71.8749C114.174 71.9097 113.933 71.9749 113.7 72.0582C114.174 73.2659 114.641 74.4675 115.179 75.6495C115.458 76.2616 115.75 76.8678 116.058 77.4663C116.35 78.036 116.691 78.58 116.843 79.2058C116.864 79.2937 116.732 79.3634 116.669 79.3013C116.222 78.8649 115.955 78.3058 115.669 77.7557C115.347 77.1405 115.044 76.5162 114.756 75.8858C114.212 74.6994 113.708 73.4674 113.318 72.2188C112.95 72.3991 112.617 72.6416 112.315 72.9234C112.394 72.9295 112.468 72.9689 112.499 73.0553C112.78 73.825 113.065 74.5948 113.362 75.3585C113.511 75.7404 113.655 76.1252 113.814 76.5041C113.894 76.6935 113.971 76.8829 114.044 77.0753C114.106 77.2405 114.2 77.4042 114.156 77.583C114.135 77.6724 114.044 77.7345 113.953 77.6921C113.774 77.6102 113.705 77.4314 113.612 77.2647C113.508 77.0784 113.414 76.892 113.324 76.698C113.153 76.3253 112.98 75.951 112.829 75.5707C112.518 74.7857 112.268 73.9872 112.073 73.1674C111.92 73.3326 111.776 73.5068 111.645 73.6947C111.348 74.1251 111.138 74.5963 110.982 75.0903C111.106 75.0524 111.267 75.1085 111.3 75.2767C111.436 75.9768 111.603 76.6738 111.803 77.3587C111.898 77.6875 112.008 78.0118 112.109 78.3391C112.214 78.674 112.362 79.0058 112.352 79.3604C112.347 79.4877 112.158 79.5559 112.07 79.4695C111.818 79.221 111.711 78.8725 111.588 78.5482C111.459 78.2027 111.356 77.8466 111.26 77.4905C111.085 76.8405 110.956 76.1843 110.86 75.5176C110.709 76.1359 110.636 76.7784 110.601 77.4072C110.521 78.8558 110.592 80.3181 110.612 81.7682C110.633 83.2941 110.657 84.8215 110.691 86.3474C110.797 91.213 111.006 96.0847 111.486 100.929C111.695 100.987 111.692 101.232 111.526 101.326C111.635 102.394 111.753 103.461 111.892 104.526C112.112 106.208 112.379 107.883 112.677 109.551C112.824 110.375 112.985 111.197 113.156 112.015C113.336 112.873 113.58 113.732 113.596 114.611C113.602 114.943 113.189 115.047 113.036 114.75C112.979 114.636 112.932 114.518 112.883 114.402C112.691 114.574 112.452 114.712 112.25 114.849C111.926 115.068 111.611 115.299 111.303 115.541C111.004 115.776 110.713 116.021 110.426 116.268C110.274 116.399 110.118 116.525 109.96 116.649C109.81 116.765 109.676 116.894 109.48 116.92C109.371 116.934 109.291 116.835 109.301 116.734C109.324 116.54 109.46 116.402 109.582 116.258C109.706 116.111 109.836 115.974 109.974 115.841C110.266 115.561 110.58 115.303 110.9 115.056C111.211 114.817 111.529 114.59 111.854 114.374C112.017 114.267 112.182 114.168 112.352 114.076C112.465 114.012 112.58 113.95 112.702 113.911C112.642 113.724 112.592 113.536 112.544 113.347C112.547 113.391 112.536 113.436 112.489 113.471C111.9 113.905 111.27 114.274 110.659 114.676C110.045 115.079 109.447 115.505 108.842 115.921C108.627 116.07 108.422 115.773 108.606 115.603C109.154 115.094 109.75 114.644 110.377 114.236C111 113.83 111.639 113.452 112.341 113.205C112.418 113.177 112.485 113.215 112.523 113.27C112.459 113.015 112.398 112.759 112.341 112.503C112.303 112.336 112.271 112.17 112.235 112.003C111.436 112.474 110.536 112.801 109.719 113.236C108.809 113.721 107.93 114.274 107.09 114.874C105.407 116.076 103.884 117.499 102.572 119.098C102.21 119.538 101.864 119.995 101.528 120.457C101.441 120.575 101.36 120.696 101.276 120.816C101.226 121.293 101.166 121.77 101.097 122.245C101.138 122.204 101.178 122.164 101.214 122.127C101.552 121.777 101.91 121.446 102.284 121.136C103.04 120.508 103.837 119.984 104.737 119.587C104.924 119.505 105.084 119.785 104.913 119.901C104.139 120.417 103.361 120.96 102.649 121.56C102.295 121.858 101.951 122.175 101.623 122.504C101.41 122.718 101.197 123.013 100.941 123.216C100.667 124.762 100.269 126.28 99.6715 127.741C99.4745 128.223 98.7836 127.895 98.9442 127.416C99.5533 125.603 99.9458 123.757 100.203 121.892C100.053 121.867 99.9185 121.728 99.9503 121.561C100 121.301 100.053 121.119 100.188 120.887C100.244 120.79 100.305 120.696 100.361 120.601C100.681 117.555 100.681 114.468 100.681 111.394C100.681 109.775 100.684 108.157 100.685 106.539C100.623 106.398 100.616 106.233 100.685 106.105C100.687 101.914 100.688 97.7212 100.696 93.5299C100.699 92.1722 100.71 90.816 100.723 89.4598C98.9275 89.3932 97.6183 87.7642 97.1667 86.1141C96.8743 85.0443 96.8091 83.9381 96.7228 82.8365C96.6288 81.6197 96.5334 80.4044 96.4394 79.1877C96.3758 78.3618 96.2621 77.4178 96.2955 76.501C96.1242 76.6541 95.9469 76.8011 95.7712 76.9496C95.7742 76.9632 95.7787 76.9738 95.7787 76.9905C95.7681 78.0088 95.756 79.0285 95.7984 80.0468C95.8181 80.5393 95.8712 81.0287 95.8999 81.5212C95.9151 81.7864 95.9182 82.0516 95.9303 82.3183C95.9394 82.5319 95.9788 82.7395 95.9166 82.9456C95.8909 83.0274 95.7742 83.0259 95.7287 82.9668C95.5878 82.7835 95.5575 82.5334 95.4969 82.3122C95.4317 82.0713 95.3696 81.8319 95.3257 81.5864C95.2378 81.0848 95.206 80.5681 95.1787 80.0605C95.1302 79.1649 95.156 78.2739 95.2772 77.389C94.7953 77.8421 94.3544 78.3436 93.9574 78.8725C93.9165 78.927 93.8816 78.9846 93.8422 79.0392C93.9179 79.0589 93.9816 79.1164 93.9922 79.224C94.1271 80.6014 94.2452 81.9819 94.4028 83.3578C94.4786 84.023 94.5574 84.6897 94.6453 85.3534C94.6923 85.708 94.7256 86.0641 94.7514 86.4202C94.7741 86.7414 94.8256 87.0763 94.7711 87.396C94.7483 87.5309 94.5771 87.5339 94.521 87.4233C94.3725 87.1339 94.324 86.7899 94.2543 86.4747C94.1771 86.1247 94.1134 85.7731 94.0665 85.417C93.9786 84.7533 93.8967 84.0881 93.8301 83.4199C93.6952 82.1001 93.5937 80.7787 93.5573 79.4528C93.1952 79.9968 92.877 80.5681 92.5921 81.1545C92.6012 81.1757 92.6118 81.1954 92.6163 81.2212C92.6966 81.7243 92.7754 82.2273 92.8148 82.735C92.8345 82.985 92.8497 83.2335 92.8603 83.4835C92.8709 83.7502 92.8936 83.9942 92.8057 84.2503C92.7481 84.42 92.5314 84.3669 92.4648 84.2442C92.3405 84.0184 92.3284 83.7684 92.2966 83.5169C92.2648 83.2699 92.2375 83.0214 92.2147 82.7729C92.195 82.5471 92.1844 82.3213 92.1753 82.097C92.1223 82.2289 92.0647 82.3592 92.0147 82.4925C90.9162 85.4246 90.7525 88.5961 90.9207 91.6949C90.9738 92.6708 91.0601 93.6451 91.1616 94.6179C91.2101 95.0831 91.2571 95.5483 91.301 96.015C91.348 96.5045 91.4465 97.0257 91.3647 97.5136C91.3056 97.8667 90.8207 97.9091 90.6813 97.5894C90.5479 97.2818 90.504 96.9469 90.4585 96.6135C90.3812 96.8802 90.2903 97.1424 90.1964 97.3939C89.9585 98.0273 89.6888 98.6516 89.3887 99.2578C88.7826 100.481 88.0871 101.655 87.3901 102.828C85.9975 105.17 84.5686 107.554 83.8609 110.209C83.6654 110.944 83.526 111.695 83.4639 112.454C83.4351 112.811 83.426 113.168 83.4382 113.526C83.4518 113.933 83.5245 114.303 83.4033 114.699C83.323 114.959 82.9017 114.994 82.7638 114.77C82.4184 114.212 82.5093 113.4 82.5366 112.765C82.5426 112.611 82.5639 112.457 82.5775 112.303C81.3501 114.521 79.0468 116.064 76.6724 116.858C73.319 117.979 69.7535 117.634 66.3911 116.732C65.3637 116.456 64.347 116.137 63.3453 115.774C62.8453 115.594 62.3468 115.406 61.8559 115.205C61.3664 115.003 60.7542 114.832 60.3799 114.45C60.2359 114.302 60.2693 114.014 60.5117 113.994C60.9406 113.958 61.3345 114.129 61.7407 114.255C61.974 114.327 62.2058 114.405 62.4377 114.48C62.4619 114.479 62.4862 114.477 62.5119 114.476C62.8847 114.45 63.2559 114.42 63.6272 114.383C64.4121 114.306 65.197 114.206 65.9774 114.083C66.7366 113.964 67.4897 113.821 68.2398 113.655C68.6034 113.574 68.9671 113.5 69.3308 113.423C69.7247 113.338 70.146 113.218 70.5506 113.214C70.693 113.212 70.8127 113.409 70.6642 113.502C70.0399 113.889 69.2111 114.064 68.5019 114.23C67.7124 114.417 66.9139 114.568 66.1123 114.696C65.3895 114.811 64.6637 114.902 63.9363 114.968C64.5303 115.162 65.1243 115.352 65.7228 115.529C65.8956 115.58 66.0714 115.623 66.2441 115.671C66.226 115.553 66.2911 115.424 66.4563 115.387C67.7124 115.105 69.002 114.977 70.2612 114.693C71.531 114.406 72.8038 114.062 74.0464 113.674C74.2873 113.598 74.4298 113.941 74.1934 114.042C72.9736 114.567 71.7477 114.98 70.4566 115.291C69.3278 115.562 68.1398 115.823 66.9684 115.87C67.7443 116.067 68.5292 116.229 69.3186 116.353C69.3353 116.297 69.3687 116.244 69.4414 116.215C69.8096 116.07 70.2384 116.062 70.6278 116.008C71.0052 115.955 71.3795 115.887 71.7507 115.8C72.525 115.621 73.3099 115.447 74.0585 115.18C74.2388 115.115 74.3282 115.364 74.1661 115.45C73.4372 115.837 72.7068 116.181 71.9022 116.378C71.6189 116.447 71.334 116.505 71.0461 116.556C71.0597 116.558 71.0734 116.559 71.0885 116.561C74.0433 116.762 77.1103 116.123 79.5484 114.385C80.847 113.459 81.8895 112.223 82.582 110.788C82.6411 110.665 82.7396 110.616 82.8366 110.615C83.1321 109.318 83.6049 108.065 84.1776 106.866C85.3687 104.364 86.9824 102.096 88.3038 99.6654C88.6735 98.985 89.0281 98.2925 89.3418 97.5849C89.66 96.8696 89.8857 96.0847 90.2752 95.4059C90.2797 95.3983 90.2903 95.3953 90.2964 95.3877C90.2797 95.2513 90.2585 95.1165 90.2418 94.9801C90.1373 94.0936 90.0585 93.2026 89.9994 92.3116C89.8797 90.5403 89.8646 88.7552 90.0449 86.9869C90.3464 84.0366 91.2601 81.1197 93.0042 78.6952C93.4573 78.0648 93.9695 77.4769 94.5331 76.9435C95.0574 76.448 95.6772 75.9086 96.3788 75.6737C96.5091 74.8842 96.8061 74.1554 97.4183 73.5917C98.1138 72.9522 99.1654 72.8189 99.8412 73.5583C100.452 74.2266 100.525 75.2509 100.659 76.0995C100.876 77.4663 101.067 78.8361 101.223 80.2105C101.355 81.3712 101.476 82.5289 101.51 83.6942C101.528 83.6699 101.546 83.6457 101.566 83.6229C101.581 83.6047 101.61 83.6002 101.628 83.6154C101.646 83.6305 101.65 83.6578 101.635 83.6775C101.614 83.7033 101.594 83.7305 101.572 83.7548L101.538 83.7911C101.532 83.7972 101.528 83.8032 101.522 83.8093C101.519 83.8123 101.516 83.8154 101.513 83.8184C101.517 83.9957 101.525 84.173 101.525 84.3518C101.525 84.4609 101.475 84.5382 101.41 84.5897C101.452 86.0519 101.484 87.5127 101.504 88.9765C101.504 88.9795 101.504 88.9825 101.504 88.9871C101.52 90.172 101.522 91.3585 101.528 92.5435C102.976 92.3025 104.46 92.1859 105.916 92.0101C106.69 91.9161 107.466 91.8313 108.242 91.7449C108.619 91.7025 108.995 91.6601 109.371 91.6191C109.553 91.5994 109.744 91.5707 109.932 91.5661C109.868 89.9069 109.819 88.2461 109.785 86.5869C109.751 85.017 109.727 83.4456 109.707 81.8743C109.688 80.3635 109.618 78.8407 109.709 77.3314C109.798 75.8328 110.127 74.313 111.029 73.081C111.82 71.9991 113.02 71.2096 114.387 71.2293C114.362 71.1399 114.337 71.0505 114.314 70.9611C114.162 70.3641 114.03 69.7625 113.923 69.1564C113.832 68.6427 113.708 68.1018 113.765 67.5775C113.811 67.1547 114.017 66.7153 114.438 66.5592C114.946 66.3713 115.403 66.688 115.714 67.0668C116.485 68.0078 117.147 69.0685 117.796 70.0959C118.455 71.1399 119.072 72.2097 119.652 73.3007C120.299 74.5206 120.895 75.7661 121.434 77.0359C121.704 77.6708 121.96 78.3118 122.202 78.9573C122.449 79.6165 122.716 80.2787 122.857 80.9681C122.933 81.3394 122.495 81.4773 122.242 81.3C122.227 81.3727 122.187 81.4379 122.125 81.4833C122.499 82.1607 122.803 82.8729 123.11 83.5866C123.484 84.4518 123.847 85.3216 124.192 86.1974C124.606 87.2445 124.992 88.3007 125.365 89.3629C127.376 88.4052 129.555 87.7733 131.712 87.2596C132.881 86.9808 134.061 86.749 135.249 86.5672C136.201 86.4217 137.249 86.2338 138.174 86.6111C139.084 86.9854 139.556 87.9158 139.54 88.8689C139.525 89.9387 138.959 90.8933 138.412 91.7767C137.368 93.4633 136.036 94.9664 134.513 96.2347C132.788 97.6682 130.79 98.8077 128.661 99.5154C128.523 99.5608 128.4 99.5411 128.301 99.4835C128.536 100.505 128.758 101.528 128.959 102.555C129.33 104.446 129.641 106.348 129.899 108.259C130 109.012 130.097 109.769 130.184 110.529C130.978 110.398 131.787 110.332 132.587 110.292C133.035 110.271 133.485 110.26 133.934 110.263C134.198 110.265 134.493 110.257 134.778 110.283C134.798 110.141 134.819 109.998 134.845 109.862C135.152 108.269 135.925 106.824 136.869 105.522C137.827 104.204 138.959 103.011 140.077 101.829C141.222 100.617 142.401 99.4365 143.609 98.2864C146.02 95.9908 148.561 93.83 151.236 91.8464C153.907 89.8644 156.731 87.9809 159.704 86.4777C161.317 85.664 163.076 85.0428 164.905 85.1473C166.119 85.2155 167.42 85.6459 168.314 86.502C169.275 85.6656 170.575 84.9003 171.865 85.0594C171.93 85.0549 171.997 85.0519 172.062 85.0549C172.695 85.0897 173.045 85.6474 172.924 86.2474C172.798 86.8702 172.354 87.4687 172.048 88.0188C170.787 90.2857 169.433 92.5526 167.631 94.4376C166.754 95.3559 165.773 96.1756 164.678 96.8212C164.135 97.1409 163.415 97.5167 162.724 97.5682C161.49 99.8032 160.145 101.982 158.842 104.178C157.425 106.566 156.007 108.953 154.587 111.341C153.207 113.662 151.851 116.002 150.437 118.303C149.141 120.416 147.67 122.366 145.641 123.827C143.665 125.248 141.422 126.232 139.251 127.307C137.222 128.314 135.228 129.391 133.25 130.494C133.557 130.527 133.863 130.559 134.167 130.59C134.538 130.626 134.911 130.647 135.282 130.683C135.679 130.721 136.073 130.785 136.473 130.799C136.648 130.805 136.636 131.088 136.466 131.103C136.066 131.138 135.67 131.208 135.269 131.23C134.882 131.253 134.495 131.243 134.108 131.232C133.719 131.221 133.331 131.193 132.941 131.155C132.703 131.132 132.446 131.12 132.197 131.083C131.591 131.426 130.985 131.77 130.381 132.114C130.679 132.168 130.976 132.223 131.273 132.262C132.059 132.367 132.85 132.446 133.643 132.5C135.22 132.608 136.804 132.641 138.386 132.584C138.707 132.572 138.769 133.053 138.442 133.087C136.83 133.25 135.211 133.303 133.593 133.22C132.799 133.179 132.006 133.112 131.217 133.022C130.579 132.947 129.906 132.887 129.268 132.746C128.77 133.029 128.271 133.311 127.773 133.594C131.117 133.888 134.454 134.164 137.813 134.26C141.297 134.358 144.785 134.314 148.264 134.144C155.277 133.8 162.256 132.902 169.134 131.488C171.077 131.088 173.012 130.653 174.935 130.167C176.847 129.685 178.741 129.127 180.66 128.67C180.667 128.668 180.672 128.671 180.679 128.67C180.629 127.373 182.243 126.716 183.254 126.33C184.887 125.706 186.574 125.219 188.286 124.865C190.201 124.468 192.156 124.26 194.111 124.225C194.834 124.213 195.558 124.233 196.281 124.269C196.038 124.004 195.796 123.739 195.537 123.487C195.526 123.477 195.515 123.468 195.505 123.457C195.455 123.445 195.406 123.431 195.355 123.424C195.2 123.401 195.043 123.401 194.888 123.38C194.541 123.331 194.203 123.268 193.852 123.254C193.52 123.24 193.193 123.257 192.862 123.292C192.696 123.309 192.529 123.333 192.362 123.352C192.194 123.371 192.015 123.415 191.862 123.324C191.78 123.275 191.718 123.177 191.768 123.078C191.927 122.769 192.414 122.711 192.726 122.658C193.105 122.593 193.505 122.586 193.888 122.608C194.152 122.625 194.423 122.663 194.687 122.721C194.447 122.521 194.203 122.324 193.953 122.137C193.609 122.134 193.265 122.137 192.92 122.122C192.52 122.105 192.117 122.113 191.717 122.142C191.323 122.171 190.927 122.214 190.536 122.28C190.144 122.345 189.727 122.433 189.33 122.355C189.238 122.337 189.219 122.23 189.285 122.171C189.606 121.88 190.059 121.775 190.473 121.702C190.894 121.63 191.317 121.581 191.744 121.561C192.165 121.542 192.586 121.546 193.008 121.57C193.067 121.573 193.118 121.589 193.174 121.595C192.298 121.019 191.371 120.525 190.41 120.107C187.804 118.973 184.984 118.397 182.154 118.24C175.136 117.85 168.272 119.822 161.365 120.705C161.17 120.731 160.973 120.751 160.776 120.773C160.794 120.84 160.811 120.907 160.823 120.975C160.85 121.143 160.859 121.319 160.871 121.487C160.894 121.817 160.896 122.151 160.889 122.481C160.882 122.812 160.874 123.146 160.824 123.474C160.777 123.789 160.705 124.156 160.542 124.433C160.474 124.55 160.308 124.533 160.282 124.392C160.226 124.093 160.256 123.762 160.268 123.459C160.282 123.128 160.315 122.798 160.323 122.468C160.33 122.149 160.32 121.831 160.306 121.513C160.297 121.286 160.295 121.057 160.289 120.829C159.824 120.879 159.359 120.923 158.894 120.961C158.892 121.004 158.891 121.046 158.889 121.086C158.885 121.199 158.879 121.314 158.867 121.428C158.841 121.67 158.815 121.914 158.789 122.157C158.765 122.393 158.727 122.628 158.659 122.854C158.616 122.995 158.53 123.368 158.318 123.336C158.109 123.305 158.109 122.916 158.098 122.766C158.082 122.53 158.104 122.286 158.133 122.051C158.162 121.808 158.191 121.566 158.22 121.323C158.232 121.217 158.248 121.111 158.27 121.007C155.465 121.195 152.658 121.114 149.882 120.54C149.488 120.458 149.579 119.861 149.982 119.92C156.977 120.94 163.969 119.311 170.833 118.158C177.2 117.09 183.893 116.496 190.045 118.887C191.523 119.461 192.936 120.204 194.232 121.117C194.871 121.569 195.479 122.064 196.044 122.604C196.597 123.131 197.147 123.683 197.535 124.343C197.678 124.356 197.819 124.371 197.96 124.386C198.016 124.366 198.07 124.345 198.126 124.328C198.576 124.198 199.034 124.131 199.502 124.148C200.211 124.172 200.91 124.45 201.41 124.962C202.578 126.157 201.869 127.859 200.525 128.544C199.755 128.936 198.864 129.021 198.019 129.13C197.108 129.248 196.197 129.359 195.284 129.459C193.436 129.661 191.585 129.83 189.732 129.968C187.856 130.108 185.978 130.217 184.098 130.293C183.04 130.335 181.37 130.417 180.84 129.308C180.834 129.311 180.829 129.317 180.822 129.32C179.17 129.938 177.467 130.405 175.764 130.861C174.06 131.317 172.348 131.74 170.628 132.129C167.163 132.914 163.661 133.546 160.142 134.043C153.149 135.032 146.076 135.458 139.015 135.322C135.039 135.244 131.029 135.061 127.082 134.557C127.018 134.549 126.964 134.531 126.915 134.507C126.877 134.513 126.841 134.52 126.804 134.526L126.063 134.64C125.994 134.65 125.927 134.657 125.859 134.666C123.86 135.782 121.849 136.875 119.799 137.896C115.462 140.057 110.926 141.938 106.155 142.88C106.081 142.895 106.007 142.906 105.934 142.919C105.902 142.969 105.854 143.012 105.775 143.032C103.929 143.523 102.002 143.745 100.114 144.033C98.2062 144.323 96.297 144.609 94.3862 144.88C90.5873 145.421 86.7839 145.936 82.979 146.427C75.345 147.412 67.6988 148.299 60.0405 149.079C57.8979 149.297 55.7537 149.508 53.6081 149.711C51.5564 149.905 49.4971 150.128 47.4363 150.21C46.6119 150.757 45.7755 151.288 44.9633 151.855C43.9799 152.54 43.0298 153.275 42.1146 154.051C40.278 155.606 38.5779 157.315 36.9868 159.118C33.7441 162.794 30.9438 166.832 28.2087 170.893C25.1705 175.406 22.1187 179.908 18.9396 184.325C15.6363 188.913 12.2345 193.43 8.73714 197.872C5.22621 202.328 1.62891 206.725 -2.13206 210.974C-2.55482 211.453 -3.02002 211.893 -3.47765 212.338C-3.44128 212.57 -3.64432 212.814 -3.94586 212.712C-5.57329 212.171 -7.13101 211.374 -8.66298 210.609C-10.2025 209.839 -11.7269 209.038 -13.23 208.195C-16.1046 206.585 -18.9276 204.854 -21.6278 202.966C-26.8283 199.331 -31.6212 194.862 -34.3715 189.05C-35.1397 187.425 -35.7307 185.719 -36.1125 183.963C-36.4838 182.258 -36.7338 180.394 -36.4686 178.65ZM100.843 83.5199C100.585 81.697 100.414 79.8605 100.146 78.036C100 77.042 99.8867 76.0177 99.6488 75.0403C99.4927 74.4008 99.0912 73.5765 98.2971 73.9902C97.5698 74.3705 97.288 75.2812 97.1955 76.0374C97.0955 76.8541 97.1819 77.6815 97.2471 78.4967C97.3319 79.5574 97.4168 80.6196 97.5001 81.6803C97.5804 82.6941 97.632 83.7139 97.7714 84.7215C97.9093 85.7262 98.1759 86.7459 98.8411 87.5384C99.3185 88.1052 99.9898 88.5234 100.731 88.5673C100.753 86.8854 100.788 85.2034 100.843 83.5199ZM109.541 92.5086L108.41 92.6329C107.613 92.7208 106.815 92.8087 106.016 92.889C104.53 93.039 103.029 93.2557 101.535 93.3345C101.547 96.0544 101.551 98.7744 101.554 101.494C101.555 102.92 101.557 104.346 101.558 105.77C103.039 105.401 104.522 105.043 106.005 104.689C106.836 104.49 107.668 104.302 108.5 104.11C108.938 104.008 109.374 103.904 109.813 103.81C110.154 103.737 110.5 103.637 110.842 103.676C110.809 103.398 110.785 103.119 110.753 102.84C109.735 103.041 108.718 103.238 107.694 103.411C107.127 103.507 106.56 103.601 105.993 103.696C105.421 103.792 104.867 103.914 104.286 103.858C104.054 103.835 104.049 103.514 104.239 103.429C104.754 103.198 105.302 103.138 105.855 103.049C106.445 102.954 107.033 102.858 107.622 102.763C108.647 102.596 109.671 102.457 110.698 102.322C110.668 102.046 110.644 101.769 110.615 101.493C110.235 101.54 109.853 101.578 109.474 101.643C109.135 101.7 108.797 101.77 108.457 101.829C108.277 101.861 107.763 102.008 107.748 101.699C107.74 101.541 107.891 101.479 108.006 101.417C108.148 101.341 108.295 101.279 108.448 101.228C108.766 101.12 109.104 101.037 109.436 100.979C109.801 100.915 110.177 100.865 110.551 100.853C110.392 99.2805 110.251 97.7061 110.157 96.1302C110.083 94.9058 110.026 93.6799 109.974 92.4541C109.829 92.4768 109.683 92.4919 109.541 92.5086ZM111.85 110.172C111.544 108.616 111.294 107.049 111.074 105.48C111.023 105.113 110.98 104.746 110.933 104.379C110.66 104.536 110.338 104.593 110.03 104.673C109.621 104.781 109.21 104.878 108.8 104.978C107.948 105.187 107.096 105.399 106.243 105.602C104.684 105.974 103.123 106.34 101.561 106.692C101.563 107.98 101.564 109.268 101.566 110.556C101.569 113.324 101.604 116.097 101.437 118.861C101.434 118.923 101.428 118.985 101.423 119.048C101.475 118.981 101.523 118.913 101.576 118.846C102.243 118.002 102.969 117.205 103.745 116.461C105.293 114.973 107.034 113.695 108.927 112.677C109.895 112.156 110.995 111.542 112.103 111.357C112.017 110.963 111.929 110.568 111.85 110.172ZM120.942 78.077C120.522 77.0435 120.064 76.0237 119.573 75.0206C118.598 73.031 117.482 71.1111 116.238 69.2776C115.931 68.8246 115.615 68.376 115.291 67.9336C115.182 67.7836 114.794 67.1062 114.653 67.5032C114.52 67.8805 114.668 68.3745 114.729 68.7488C114.818 69.2973 114.926 69.8444 115.053 70.3853C115.565 72.5734 116.402 74.7039 117.513 76.6586C118.529 78.4482 119.875 80.3938 121.996 80.9242C122.005 80.9257 122.01 80.9318 122.019 80.9348C121.613 80.0074 121.324 79.0164 120.942 78.077ZM128.332 98.6895C131.788 97.4879 134.828 95.2877 136.987 92.3268C137.531 91.5813 138.065 90.7842 138.421 89.9311C138.54 89.6447 138.631 89.3083 138.659 88.9719C138.592 89.0492 138.522 89.1219 138.466 89.1826C138.245 89.425 138.016 89.6583 137.777 89.8841C137.552 90.0963 137.322 90.3008 137.086 90.5009C136.851 90.6978 136.548 90.9903 136.22 90.9676C136.098 90.96 136.001 90.813 136.025 90.6978C136.061 90.5236 136.193 90.4039 136.317 90.2857C136.43 90.1796 136.551 90.0841 136.67 89.9857C136.914 89.7841 137.152 89.575 137.386 89.3598C137.604 89.1568 137.819 88.9522 138.03 88.7416C138.143 88.628 138.26 88.5067 138.386 88.4052C138.436 88.3658 138.519 88.3158 138.602 88.2916C138.521 87.9885 138.354 87.7173 138.06 87.5263C137.358 87.0702 136.37 87.2778 135.599 87.39C134.496 87.5506 133.397 87.7506 132.308 87.9915C130.014 88.4992 127.806 89.2553 125.574 89.9705C125.75 90.4842 125.932 90.9948 126.1 91.51C126.683 93.3011 127.206 95.1149 127.674 96.9409C128.044 96.7484 128.482 96.6363 128.856 96.4863C129.344 96.2908 129.83 96.0862 130.308 95.8665C130.785 95.6453 131.255 95.4074 131.717 95.1558C131.94 95.0346 132.161 94.9104 132.384 94.7876C132.616 94.6604 132.878 94.4861 133.149 94.4861C133.337 94.4861 133.519 94.6603 133.42 94.8573C133.193 95.318 132.532 95.5877 132.1 95.8226C131.623 96.0817 131.132 96.3181 130.637 96.5408C130.14 96.7636 129.637 96.9712 129.123 97.15C128.714 97.2924 128.267 97.4788 127.823 97.5318C127.93 97.9637 128.039 98.394 128.142 98.8274C128.186 98.7713 128.244 98.7198 128.332 98.6895ZM162.473 96.6696C162.534 96.6757 162.596 96.6681 162.658 96.6666C162.724 96.6181 162.808 96.6166 162.884 96.6454C163.17 96.5954 163.452 96.4802 163.703 96.3529C164.672 95.8635 165.552 95.1877 166.351 94.4588C167.978 92.9753 169.263 91.1388 170.401 89.2659C170.725 88.731 171.039 88.1915 171.348 87.6476C171.506 87.3703 171.662 87.0914 171.818 86.8126C171.942 86.5899 172.218 86.2368 172.178 85.9671C172.177 85.952 172.163 85.9474 172.159 85.9338C171.845 85.9262 171.543 85.9504 171.256 86.0035C170.998 86.1141 170.768 86.2383 170.687 86.2777C170.072 86.5808 169.498 86.9535 168.936 87.343C168.931 87.54 168.72 87.7248 168.542 87.5521L168.54 87.5506C167.763 88.2734 167.043 89.0719 166.316 89.8402C165.47 90.7342 164.646 91.651 163.888 92.6223C163.511 93.1057 163.152 93.6027 162.815 94.1148C162.5 94.5952 162.138 95.1225 161.976 95.6801C161.844 96.1317 161.943 96.6166 162.473 96.6696ZM181.701 128.879C181.907 129.286 182.579 129.336 182.969 129.355C183.705 129.388 184.458 129.308 185.195 129.271C185.999 129.23 186.804 129.185 187.609 129.13C190.894 128.911 194.17 128.588 197.435 128.177C198.261 128.074 199.151 128.032 199.925 127.7C200.469 127.468 201.08 126.93 200.989 126.272C200.914 125.736 200.399 125.366 199.896 125.234C199.864 125.259 199.828 125.277 199.781 125.28C199.364 125.31 198.951 125.295 198.537 125.268C198.108 125.353 197.678 125.444 197.261 125.575C196.932 125.68 196.7 125.403 196.722 125.145C196.216 125.121 195.709 125.106 195.202 125.104C193.683 125.103 192.165 125.209 190.662 125.421C189.159 125.633 187.669 125.939 186.21 126.357C185.471 126.569 184.739 126.809 184.016 127.076C183.41 127.298 182.752 127.501 182.219 127.876C181.919 128.089 181.491 128.465 181.701 128.879Z" fill="#C49362" fill-opacity="0.39"/>
<path d="M43.6088 149.655C44.0376 149.229 44.5195 148.879 45.0559 148.6C45.3347 148.456 45.6226 148.34 45.9257 148.256C46.2666 148.162 46.5894 148.143 46.9409 148.132C47.2713 148.121 47.3122 148.564 46.997 148.635C46.7303 148.696 46.4712 148.806 46.2136 148.897C45.9469 148.99 45.6847 149.1 45.4317 149.226C44.9377 149.473 44.4953 149.813 44.1089 150.205C43.9467 150.37 43.5573 150.717 43.3436 150.44C43.1527 150.193 43.4376 149.825 43.6088 149.655Z" fill="#C49362" fill-opacity="0.39"/>
<path d="M43.6071 147.565C43.7116 147.473 43.8132 147.396 43.9435 147.344C44.0526 147.3 44.1617 147.256 44.2708 147.212C44.4966 147.121 44.7239 147.03 44.9497 146.94C45.0512 146.899 45.186 146.95 45.2239 147.058C45.2633 147.17 45.2133 147.283 45.1057 147.332C44.883 147.432 44.6602 147.532 44.4375 147.632C44.3299 147.68 44.2223 147.729 44.1147 147.776C43.989 147.832 43.8586 147.85 43.7223 147.862C43.5526 147.874 43.4859 147.671 43.6071 147.565Z" fill="#C49362" fill-opacity="0.39"/>
<path d="M28.4389 126.829C29.6587 126.204 30.783 125.381 31.6983 124.36C31.8756 124.163 32.1937 124.413 32.021 124.618C31.083 125.733 29.9375 126.654 28.6162 127.274C28.3328 127.409 28.1676 126.968 28.4389 126.829Z" fill="#C49362" fill-opacity="0.39"/>
<path d="M30.2377 128.017C30.415 127.853 30.6211 127.72 30.812 127.574C31.0105 127.423 31.2121 127.274 31.406 127.116C31.7864 126.807 32.1273 126.457 32.4318 126.074C32.6 125.863 32.9198 126.121 32.7577 126.335C32.4395 126.754 32.0758 127.138 31.6757 127.48C31.2893 127.81 30.8287 128.129 30.3271 128.245C30.1908 128.274 30.1589 128.089 30.2377 128.017Z" fill="#C49362" fill-opacity="0.39"/>
<path d="M43.4009 43.3373C43.5994 42.613 43.8813 41.9175 44.1737 41.225C44.5116 40.4249 44.8677 39.6294 45.2587 38.852C46.0481 37.2776 46.9285 35.7502 47.8877 34.2743C49.7818 31.3604 52.0063 28.6495 54.5065 26.2342C55.2096 25.5553 55.9339 24.881 56.6976 24.2703C57.0643 23.9764 57.4341 23.6854 57.8053 23.3975C58.0053 23.243 58.2023 23.0793 58.4099 22.9369C58.6099 22.799 58.8387 22.7096 59.0569 22.602C59.3085 22.4777 59.5328 22.8429 59.36 23.0369C59.066 23.3642 58.7751 23.64 58.4372 23.9218C58.1023 24.1991 57.7674 24.4779 57.4477 24.7719C56.8219 25.3477 56.1854 25.9099 55.5733 26.5009C54.3353 27.6979 53.1488 28.942 52.0381 30.2603C49.847 32.8621 47.9316 35.7002 46.3512 38.7126C45.9133 39.546 45.4935 40.39 45.0996 41.2462C44.9511 41.5689 44.8117 41.8947 44.6707 42.2205C44.8814 42.0372 45.095 41.8538 45.3056 41.6705C45.4799 41.1341 45.7966 40.6446 46.08 40.1597C46.3663 39.6673 46.6634 39.1808 46.9694 38.7005C47.5816 37.7428 48.2271 36.8079 48.9181 35.9048C50.3016 34.0955 51.8214 32.3817 53.4883 30.83C54.4217 29.9603 55.4066 29.1435 56.4112 28.3586C56.634 28.1843 56.8704 28.5374 56.6597 28.7147C53.2579 31.5801 50.291 35.0214 47.915 38.7778C47.6392 39.2142 47.3755 39.6582 47.1149 40.1052C52.5972 35.382 58.1962 30.777 64.2862 26.8585C71.8324 22.0035 80.0544 18.4622 88.9461 17.0287C89.7053 16.906 90.466 16.8014 91.2282 16.706C91.3282 16.6257 91.4676 16.5984 91.5812 16.6651C95.9619 16.1393 100.382 16.0377 104.795 16.2453C104.966 16.0999 105.236 16.0908 105.425 16.2772C109.492 16.4969 113.55 16.9681 117.559 17.603C119.344 17.8849 121.125 18.2061 122.899 18.5622C123.016 18.4713 123.198 18.4577 123.325 18.6107C123.336 18.6228 123.345 18.6365 123.354 18.6486C129.314 19.8639 135.188 21.5231 140.815 23.837C146.888 26.3357 152.719 29.6512 157.66 34.0046C157.434 33.7667 157.213 33.5258 156.984 33.2909C155.171 31.4195 153.252 29.6481 151.243 27.9858C147.252 24.6855 142.916 21.8095 138.307 19.4456C137.019 18.785 135.708 18.1652 134.384 17.5788C133.028 16.9787 131.641 16.4469 130.32 15.7771C130.061 15.6453 130.183 15.2119 130.482 15.2801C131.764 15.5771 132.993 16.0559 134.205 16.5666C135.423 17.0803 136.625 17.6318 137.808 18.2183C140.145 19.3759 142.416 20.6624 144.612 22.0686C149.037 24.9052 153.143 28.2147 156.837 31.9559C157.88 33.0121 158.886 34.1001 159.854 35.2244C160.751 36.2654 161.68 37.3246 162.43 38.4823C162.439 38.4717 162.449 38.4626 162.459 38.452C162.624 38.2823 162.959 38.4596 162.827 38.6914C162.052 40.0597 160.889 41.1932 159.7 42.2069C159.098 42.7206 158.466 43.1964 157.804 43.6297C157.471 43.8479 157.133 44.048 156.781 44.2328C156.45 44.4071 156.106 44.6253 155.725 44.6647C155.551 44.6829 155.44 44.4632 155.554 44.3328C155.787 44.0646 156.124 43.9055 156.418 43.7161C156.734 43.5131 157.05 43.307 157.362 43.0979C158.003 42.6675 158.622 42.2054 159.215 41.7114C160.141 40.9386 160.948 40.0567 161.768 39.1808C161.753 39.1642 161.736 39.1475 161.72 39.1308C160.995 39.7839 160.101 40.2961 159.268 40.7734C158.31 41.322 157.316 41.8099 156.304 42.2493C155.286 42.6903 154.245 43.0767 153.184 43.404C152.643 43.5707 152.101 43.7237 151.549 43.851C151.023 43.9722 150.487 44.0889 149.949 44.0101C149.761 43.9828 149.694 43.7025 149.861 43.5994C150.325 43.3146 150.86 43.1888 151.382 43.0448C151.887 42.9054 152.393 42.7645 152.893 42.6084C153.933 42.2842 154.957 41.9099 155.96 41.4856C156.121 41.4174 156.275 41.3401 156.434 41.2704C156.407 41.228 156.384 41.181 156.375 41.1265C156.315 40.8098 156.283 40.4901 156.256 40.1688C156.242 40.0112 156.225 39.8552 156.215 39.6976C156.209 39.6051 156.204 39.5066 156.216 39.4157C156.228 39.3233 156.268 39.2263 156.298 39.1384C156.36 38.9566 156.669 38.9323 156.759 39.1005C156.801 39.1793 156.845 39.2596 156.877 39.3445C156.91 39.4339 156.922 39.543 156.931 39.64C156.947 39.7961 156.956 39.9536 156.968 40.1112C156.99 40.4113 157.009 40.7113 157.004 41.0128C157.65 40.7113 158.288 40.3976 158.913 40.0582C159.709 39.6263 160.477 39.1051 161.288 38.6899C158.759 36.1078 156.086 33.7 153.129 31.6059C149.943 29.3496 146.512 27.4403 142.96 25.8235C136.979 23.1005 130.656 21.2079 124.233 19.8426C124.393 20.0821 124.543 20.3291 124.692 20.5776C124.739 20.4109 124.884 20.2791 125.119 20.3185C126.486 20.5503 127.847 20.9791 129.176 21.3686C130.511 21.7595 131.835 22.1898 133.146 22.6566C135.742 23.5809 138.274 24.6643 140.742 25.8887C142.162 26.5933 143.532 27.3721 144.886 28.195C145.141 28.3495 144.956 28.7647 144.682 28.6207C139.827 26.0538 134.755 23.8748 129.491 22.3005C128.753 22.0792 128.013 21.8701 127.269 21.6731C126.512 21.4731 125.739 21.3155 124.987 21.0943C126.204 23.2915 126.965 25.7735 127.216 28.2328C127.539 31.3847 127.029 34.5819 125.9 37.5322C123.527 43.7328 118.414 48.406 112.339 50.9047C106.505 53.3049 99.8078 53.8656 93.6951 52.2336C90.7994 51.4608 88.0294 50.1925 85.6413 48.3681C83.1017 46.4285 81.1757 43.8843 79.8362 40.9931C78.3709 37.8307 77.5678 34.3501 77.042 30.9179C76.648 28.3495 76.4889 25.5947 77.2314 23.0717C76.5389 23.5794 75.8343 24.0627 75.0842 24.4885C74.2387 24.9674 73.3492 25.4932 72.3733 25.628C72.2006 25.6523 72.1491 25.425 72.2658 25.3295C73.0128 24.7204 73.9447 24.3567 74.7842 23.8915C75.6358 23.4187 76.4813 22.9278 77.292 22.3868C77.3526 22.3459 77.4132 22.3368 77.4693 22.3459C77.5375 22.1641 77.6102 21.9853 77.689 21.8065C77.8254 21.4958 77.983 21.1958 78.1557 20.9034C74.3175 22.3399 70.6414 24.1779 67.1304 26.2917C59.6934 30.7679 53.0079 36.3609 46.4678 42.0341C45.7541 42.6524 45.0435 43.2737 44.3313 43.8949C44.3434 43.8964 44.3525 43.8934 44.3646 43.8949C44.6601 43.9389 44.9238 44.1025 45.1905 44.2298C45.4435 44.3495 45.6996 44.4662 45.9557 44.5783C46.4876 44.8132 47.0255 45.0314 47.568 45.236C48.4787 45.5784 49.4075 45.8678 50.344 46.127C50.3713 45.7542 50.4152 45.3845 50.4698 45.0132C50.5016 44.8011 50.5304 44.5859 50.5773 44.3753C50.6289 44.1434 50.6577 43.8904 50.8956 43.7767C50.9607 43.7449 51.0562 43.7676 51.1092 43.8146C51.3032 43.9904 51.2456 44.2647 51.2259 44.498C51.2077 44.7132 51.1744 44.9268 51.1426 45.1405C51.085 45.5269 51.0168 45.9088 50.9289 46.2876C53.0836 46.8452 55.2975 47.1801 57.5114 47.3801C57.8129 47.4074 57.7856 47.9074 57.4825 47.9135C55.1429 47.9711 52.823 47.6726 50.5501 47.118C49.4227 46.8422 48.312 46.4937 47.224 46.0921C46.68 45.8906 46.1406 45.6754 45.6072 45.4436C45.4299 45.3663 45.2541 45.286 45.0783 45.2057C45.145 45.2784 45.2117 45.3526 45.2814 45.4208C45.6905 45.8239 46.1239 46.2012 46.5755 46.5543C47.0134 46.8982 47.474 47.2028 47.9423 47.5013C48.4256 47.8089 49.006 48.0438 49.4197 48.4438C49.5985 48.6181 49.4576 48.8787 49.2212 48.859C48.6408 48.8136 48.0695 48.4605 47.574 48.1756C47.0619 47.8801 46.5724 47.5332 46.1072 47.171C45.6436 46.8088 45.2056 46.4164 44.7935 45.9966C44.3919 45.5875 43.8783 45.1329 43.704 44.5738C43.6616 44.4374 43.7479 44.2813 43.8722 44.2328C43.4509 44.3616 43.066 43.7328 43.4009 43.3373ZM118.24 19.188C118.846 20.1593 119.281 21.2549 119.591 22.3414C119.976 23.6854 120.307 25.2477 119.966 26.6327C119.94 26.7357 119.804 26.7236 119.787 26.6236C119.666 25.9478 119.631 25.2598 119.551 24.5795C119.464 23.8597 119.322 23.1475 119.123 22.452C118.729 21.0761 118.085 19.8366 117.387 18.5956C117.384 18.5895 117.384 18.5834 117.381 18.5774C117.152 18.541 116.925 18.5062 116.696 18.4713C117.673 19.5911 118.267 21.0443 118.57 22.4823C118.946 24.2628 118.841 26.169 118.296 27.9025C117.581 30.1709 116.159 32.1044 114.362 33.6106C114.173 34.0258 113.827 34.3395 113.326 34.4046C113.315 34.4122 113.306 34.4168 113.295 34.4243C113.076 34.7577 112.72 35.0123 112.37 35.2002C111.694 35.5623 111 35.9048 110.248 36.0715C106.449 37.6019 102.15 37.5913 98.1819 36.7791C94.4618 36.0184 90.6266 34.4652 88.287 31.3316C85.861 28.0813 85.5473 23.8385 85.5307 19.923C85.5292 19.5229 85.5322 19.1229 85.5352 18.7213C85.0639 18.8274 84.5972 18.9516 84.129 19.0683C84.1699 19.1032 84.1972 19.1547 84.1987 19.2214C84.2093 20.3457 84.2245 21.4761 84.329 22.5959C84.3806 23.1475 84.4745 23.693 84.5412 24.2431C84.6033 24.7598 84.7503 25.3417 84.6958 25.8584C84.6821 25.9841 84.4988 26.0144 84.4336 25.9144C84.1442 25.472 84.032 24.8265 83.9229 24.3128C83.8063 23.7673 83.7532 23.2005 83.7032 22.6459C83.5987 21.4928 83.5881 20.3442 83.7351 19.1956C83.7366 19.182 83.7426 19.1729 83.7472 19.1623C83.535 19.2168 83.3214 19.2623 83.1107 19.3199C83.1107 19.3562 83.1183 19.3911 83.1092 19.432C82.0409 24.3764 84.0532 29.5117 86.4732 33.7561C87.6187 35.7638 88.9992 37.6716 90.8054 39.1354C92.6419 40.6249 94.8664 41.5144 97.1681 41.9887C99.579 42.4842 102.085 42.5872 104.535 42.3948C107.042 42.1978 109.521 41.6462 111.83 40.6416C115.8 38.9172 119.219 35.7214 120.734 31.6135C122.193 27.66 121.502 23.0005 118.76 19.7654C118.591 19.5699 118.417 19.3775 118.24 19.188ZM77.7602 28.9041C77.8981 30.4815 78.1769 32.0468 78.4997 33.597C78.8452 35.2547 79.277 36.8973 79.8453 38.4929C80.9105 41.4826 82.5122 44.2525 84.8518 46.4224C86.9293 48.3499 89.431 49.7576 92.0964 50.6971C97.7272 52.6836 104.022 52.5806 109.689 50.7986C115.717 48.9045 121.11 44.9829 124.069 39.3172C125.483 36.6109 126.354 33.5909 126.436 30.53C126.524 27.2479 125.692 23.9794 124.112 21.1034C123.839 20.6079 123.551 20.1184 123.255 19.6335C122.581 19.4956 121.905 19.3714 121.229 19.2456C121.642 19.7396 122.013 20.2715 122.342 20.8018C122.927 21.7459 123.405 22.7596 123.755 23.8142C124.106 24.8674 124.33 25.9705 124.419 27.0767C124.465 27.6343 124.459 28.1934 124.425 28.7526C124.393 29.286 124.378 29.8724 124.153 30.3649C124.074 30.5376 123.827 30.474 123.804 30.3012C123.736 29.783 123.837 29.2451 123.837 28.7223C123.839 28.1919 123.805 27.6601 123.755 27.1312C123.655 26.0645 123.428 25.0174 123.087 24.0006C122.748 22.9839 122.296 22.008 121.73 21.0988C121.264 20.3533 120.711 19.7002 120.148 19.0411C119.732 18.9668 119.316 18.8956 118.901 18.8244C120.248 20.0745 121.189 21.8095 121.731 23.5278C122.399 25.6493 122.521 27.9525 122.066 30.13C121.145 34.5486 118.011 38.3217 114.15 40.5476C109.591 43.1767 104.072 43.8858 98.8971 43.2737C96.4165 42.9797 93.9224 42.313 91.7676 41.0189C89.6568 39.7506 87.9657 37.9292 86.6126 35.8881C85.2049 33.7637 84.0502 31.4165 83.1744 29.0238C82.2546 26.5115 81.6909 23.843 81.8773 21.1594C81.9137 20.6367 81.9894 20.1184 82.0879 19.6047C81.7591 19.7002 81.4333 19.8002 81.106 19.9002C80.9575 24.6567 81.9924 29.4178 84.379 33.5591C84.7079 34.1304 85.0609 34.691 85.4322 35.235C85.8171 35.7972 86.2292 36.3366 86.5308 36.9503C86.6353 37.1625 86.3383 37.3185 86.1807 37.1958C85.2246 36.4548 84.5563 35.2971 83.9517 34.2698C83.3244 33.203 82.7728 32.0878 82.3076 30.9407C81.3757 28.6405 80.7908 26.1933 80.5772 23.7218C80.4711 22.4914 80.4908 21.2776 80.606 20.0563C80.4075 20.1199 80.209 20.1851 80.0104 20.2503C79.8862 22.1292 79.8877 24.0324 80.1029 25.9038C80.215 26.8827 80.3832 27.8586 80.609 28.8193C80.8272 29.7466 81.1954 30.6603 81.3227 31.6059C81.356 31.8544 80.9878 31.9908 80.856 31.7741C80.3438 30.9316 80.1301 29.8921 79.9104 28.9405C79.6831 27.9586 79.5119 26.9645 79.4028 25.9629C79.2089 24.187 79.2164 22.4096 79.4543 20.6442C77.7466 23.0293 77.5102 26.0569 77.7602 28.9041Z" fill="#C49362" fill-opacity="0.39"/>
<path d="M122.469 33.4667C122.606 33.1939 122.748 32.9227 122.873 32.6438C123.12 32.0923 123.303 31.5119 123.462 30.9301C123.547 30.6179 124.017 30.6755 123.97 31.0119C123.88 31.6619 123.68 32.2878 123.423 32.8893C123.295 33.1863 123.154 33.4742 122.98 33.747C122.809 34.0152 122.635 34.3319 122.344 34.4849C122.213 34.5531 122.077 34.4122 122.095 34.2849C122.133 33.9925 122.341 33.7258 122.469 33.4667Z" fill="#C49362" fill-opacity="0.39"/>
<path d="M87.6141 39.5233C87.7065 39.4172 87.8308 39.399 87.9611 39.4384C88.049 39.4657 88.1429 39.5369 88.2202 39.59C88.2899 39.6369 88.3566 39.6885 88.4233 39.7385C88.5581 39.8385 88.6945 39.937 88.8294 40.037C88.9597 40.134 89.0779 40.2506 89.2021 40.3552C89.334 40.4673 89.4673 40.5779 89.5991 40.6901C89.7052 40.7795 89.7355 40.9537 89.6401 41.0628C89.5385 41.1795 89.3916 41.1871 89.2673 41.1037C89.1264 41.0098 88.987 40.9174 88.846 40.8234C88.7066 40.731 88.5566 40.6476 88.4217 40.5461C88.2914 40.4476 88.1626 40.3491 88.0323 40.2491C87.9657 40.1976 87.8959 40.1491 87.8323 40.0961C87.755 40.0339 87.6626 39.9597 87.6081 39.8779C87.5383 39.7748 87.5277 39.6233 87.6141 39.5233Z" fill="#C49362" fill-opacity="0.39"/>
<path d="M80.9243 33.8C81.047 33.8273 81.1258 33.9122 81.2137 33.9955C81.3122 34.0894 81.4137 34.1728 81.5046 34.2758C81.6683 34.4607 81.8153 34.6577 81.9622 34.8562C82.2653 35.2653 82.535 35.6987 82.8214 36.1199C82.976 36.3472 82.6547 36.5836 82.4805 36.3745C82.1547 35.9836 81.8122 35.6032 81.5046 35.1986C81.3546 35.0017 81.2061 34.8077 81.0743 34.5986C81.0015 34.4834 80.9485 34.3622 80.8864 34.241C80.8288 34.1304 80.7727 34.0349 80.7803 33.9061C80.7833 33.8394 80.8621 33.7864 80.9243 33.8Z" fill="#C49362" fill-opacity="0.39"/>
<path d="M118.88 28.7889C119.008 28.4116 119.102 28.0222 119.164 27.6282C119.19 27.4661 119.428 27.507 119.414 27.6676C119.378 28.0782 119.308 28.4859 119.202 28.8844C119.096 29.2829 118.958 29.6784 118.696 30.0042C118.63 30.0875 118.472 30.0284 118.499 29.9163C118.59 29.5299 118.751 29.1647 118.88 28.7889Z" fill="#C49362" fill-opacity="0.39"/>
<path d="M85.1671 28.7889C85.2943 28.745 85.4247 28.7996 85.4792 28.9238C85.5914 29.1769 85.708 29.4269 85.8111 29.683C85.8611 29.8057 85.9111 29.93 85.9596 30.0527C86.0156 30.1936 86.0399 30.3421 86.055 30.4937C86.0717 30.6694 85.852 30.7452 85.7444 30.6164C85.6459 30.4997 85.5595 30.3785 85.4989 30.2376C85.4459 30.1148 85.3928 29.9936 85.3398 29.8709C85.2307 29.6178 85.1337 29.3587 85.0322 29.1011C84.9867 28.9844 85.0443 28.8314 85.1671 28.7889Z" fill="#C49362" fill-opacity="0.39"/>
<path d="M93.1116 39.0414C93.8253 39.0793 94.4936 39.4081 95.1679 39.6278C95.8679 39.8566 96.5816 40.0491 97.3029 40.1945C98.7318 40.484 100.238 40.6885 101.697 40.6597C102.02 40.6537 102.085 41.1386 101.753 41.1658C100.187 41.2946 98.6667 41.2795 97.1196 40.9658C96.3695 40.8143 95.627 40.6158 94.9027 40.3658C94.1981 40.1218 93.4601 39.8672 92.9464 39.3096C92.8343 39.1899 92.9813 39.0338 93.1116 39.0414Z" fill="#C49362" fill-opacity="0.39"/>
<path d="M89.9691 37.0003C90.0646 36.9609 90.1782 36.9594 90.2752 36.9912C90.3389 37.0125 90.401 37.0412 90.4646 37.067C90.604 37.1246 90.7404 37.1852 90.8768 37.2488C91.145 37.3731 91.4132 37.4973 91.6814 37.6216C91.7936 37.6731 91.8496 37.811 91.7981 37.9247C91.7451 38.0428 91.6102 38.0868 91.4951 38.0413C91.2193 37.9338 90.9435 37.8262 90.6677 37.7186C90.5313 37.6655 90.398 37.6125 90.2646 37.5534C90.198 37.5246 90.1298 37.4989 90.0661 37.464C89.9797 37.417 89.904 37.3307 89.8676 37.2382C89.8298 37.1473 89.8767 37.0382 89.9691 37.0003Z" fill="#C49362" fill-opacity="0.39"/>
<path d="M85.3761 44.2374C86.211 44.8935 86.9248 45.689 87.7461 46.3679C88.584 47.0604 89.481 47.6862 90.4251 48.2256C92.3101 49.303 94.3573 50.0046 96.4469 50.5622C96.7332 50.6395 96.6772 51.0547 96.3726 51.0244C94.1542 50.8001 92.0116 49.9682 90.0781 48.8711C89.1235 48.3287 88.2097 47.7135 87.3551 47.024C86.4853 46.3224 85.5837 45.5572 85.0109 44.5889C84.8715 44.351 85.1352 44.0479 85.3761 44.2374Z" fill="#C49362" fill-opacity="0.39"/>
<path d="M80.6984 38.1989C80.7453 38.0898 80.8666 38.058 80.9711 38.0943C81.1514 38.158 81.2469 38.3247 81.3469 38.4777C81.456 38.6474 81.5454 38.8293 81.6378 39.0081C81.8212 39.3596 82.0182 39.7051 82.2273 40.043C82.644 40.7143 83.1092 41.3719 83.6138 41.9796C83.8108 42.216 83.4411 42.5857 83.2198 42.3599C82.6304 41.7614 82.1 41.1371 81.6378 40.434C81.4121 40.0915 81.2045 39.7384 81.0105 39.3748C80.8423 39.0581 80.5423 38.5641 80.6984 38.1989Z" fill="#C49362" fill-opacity="0.39"/>
<path d="M68.6507 28.5222C68.8129 28.2859 69.0144 28.0752 69.2236 27.8782C69.6327 27.4918 70.1312 27.1964 70.6585 26.9994C70.9085 26.9054 71.054 27.2767 70.8115 27.3827C70.3479 27.5858 69.9281 27.8782 69.5645 28.2313C69.3811 28.4086 69.222 28.6056 69.072 28.8086C68.9932 28.9162 68.9144 29.0223 68.8447 29.1359C68.772 29.2541 68.7023 29.3587 68.5856 29.439C68.4825 29.5087 68.3235 29.4557 68.3144 29.3208C68.2916 29.0268 68.4916 28.7541 68.6507 28.5222Z" fill="#C49362" fill-opacity="0.39"/>
<path d="M77.3725 51.4426C80.6274 51.9624 83.8368 52.7215 87.1068 53.1655C90.3949 53.6125 93.7135 53.8701 97.032 53.9262C103.655 54.0398 110.274 53.3716 116.747 51.973C118.542 51.585 120.322 51.1441 122.089 50.6456C122.991 50.391 123.889 50.1213 124.782 49.8364C125.209 49.7 125.638 49.5697 126.067 49.4333C126.538 49.2833 127.017 49.1924 127.489 49.0454C127.795 48.9515 127.976 49.3848 127.676 49.5121C127.3 49.6712 126.945 49.8788 126.564 50.0213C126.144 50.1773 125.726 50.3364 125.303 50.4819C124.533 50.7486 123.757 50.9941 122.978 51.232C121.384 51.7214 119.775 52.1548 118.154 52.5457C114.888 53.3322 111.567 53.9004 108.228 54.2808C101.593 55.0354 94.8651 55.0172 88.2357 54.2141C86.3764 53.9883 84.5232 53.7019 82.6836 53.3519C81.7623 53.1776 80.8471 52.9806 79.9349 52.767C79.0075 52.5503 78.1196 52.2533 77.2271 51.929C76.9498 51.832 77.0907 51.3987 77.3725 51.4426Z" fill="#C49362" fill-opacity="0.39"/>
<path d="M83.5125 55.8263C83.7232 55.7566 83.9141 55.8657 84.1126 55.9263C84.2959 55.9809 84.4793 56.037 84.6657 56.0824C85.043 56.1748 85.4309 56.2233 85.8188 56.2203C85.931 56.2203 86.0355 56.2839 86.0491 56.4052C86.0612 56.5143 85.9779 56.6264 85.8643 56.6355C85.4385 56.6673 85.0066 56.6491 84.5854 56.5779C84.3732 56.5415 84.1596 56.49 83.9581 56.4143C83.755 56.3385 83.5065 56.2673 83.4156 56.0506C83.3822 55.9688 83.4262 55.8551 83.5125 55.8263Z" fill="#C49362" fill-opacity="0.39"/>
<path d="M140.201 132.614C140.273 132.573 140.369 132.568 140.451 132.562C140.548 132.555 140.648 132.549 140.745 132.552C140.916 132.558 141.086 132.584 141.257 132.594C141.595 132.617 141.928 132.638 142.266 132.621C142.568 132.606 142.615 133.034 142.318 133.087C141.943 133.153 141.563 133.193 141.184 133.172C141.008 133.162 140.828 133.153 140.657 133.106C140.489 133.061 140.245 132.976 140.14 132.829C140.081 132.747 140.12 132.658 140.201 132.614Z" fill="#C49362" fill-opacity="0.39"/>
<path d="M117.781 80.8787C117.784 80.7833 117.89 80.7166 117.975 80.7196C118.07 80.7211 118.149 80.7923 118.161 80.8878C118.167 80.9393 118.177 80.9924 118.187 81.0439C118.189 81.053 118.192 81.0636 118.193 81.0727C118.193 81.0757 118.195 81.0787 118.196 81.0848C118.204 81.109 118.211 81.1348 118.219 81.159C118.236 81.2091 118.254 81.2575 118.275 81.306C118.286 81.3303 118.296 81.3545 118.308 81.3772C118.314 81.3894 118.32 81.4015 118.327 81.4121C118.328 81.4151 118.334 81.4257 118.339 81.4333C118.342 81.4394 118.348 81.4485 118.349 81.4515C118.355 81.4621 118.363 81.4742 118.369 81.4848C118.387 81.5136 118.405 81.5424 118.422 81.5712C118.427 81.5788 118.427 81.5788 118.43 81.5833C118.43 81.5833 118.428 81.5818 118.431 81.5848C118.439 81.5954 118.445 81.6076 118.451 81.6182C118.464 81.6409 118.478 81.6621 118.493 81.6849C118.527 81.7349 118.567 81.7788 118.596 81.8318C118.631 81.894 118.643 81.9637 118.648 82.0349C118.655 82.1546 118.563 82.2364 118.446 82.2273C118.372 82.2213 118.283 82.197 118.225 82.147C118.173 82.1015 118.13 82.0409 118.089 81.9864C118.01 81.8788 117.945 81.7621 117.899 81.6364C117.81 81.3909 117.773 81.1394 117.781 80.8787Z" fill="#C49362" fill-opacity="0.39"/>
<path d="M114.546 78.7861C114.652 78.7497 114.759 78.7952 114.806 78.8982C114.98 79.2892 115.167 79.6801 115.243 80.1044C115.265 80.2317 115.088 80.2892 115.015 80.1938C114.95 80.1074 114.899 80.015 114.844 79.921C114.79 79.8256 114.732 79.7301 114.683 79.6316C114.591 79.4422 114.515 79.2422 114.433 79.0467C114.393 78.9497 114.444 78.8209 114.546 78.7861Z" fill="#C49362" fill-opacity="0.39"/>
<path d="M71.7625 112.776C72.0276 112.667 72.2807 112.536 72.5459 112.426C72.7913 112.324 73.0429 112.241 73.2944 112.154C73.5459 112.068 73.796 111.98 74.052 111.904C74.3112 111.827 74.6081 111.735 74.8794 111.777C74.9885 111.794 75.0627 111.944 74.9779 112.032C74.7885 112.229 74.5142 112.338 74.2642 112.433C74.0157 112.529 73.7641 112.611 73.5111 112.694C73.258 112.777 73.0065 112.865 72.7504 112.933C72.4701 113.008 72.1882 113.059 71.9079 113.133C71.6715 113.198 71.5261 112.874 71.7625 112.776Z" fill="#C49362" fill-opacity="0.39"/>
<path d="M75.4073 113.511C75.4967 113.295 75.6694 113.182 75.8618 113.067C76.0558 112.95 76.2528 112.856 76.4695 112.786C76.871 112.659 77.3468 112.57 77.7635 112.68C77.856 112.704 77.9317 112.768 77.9424 112.868C77.9514 112.954 77.8984 113.068 77.809 113.091C77.4347 113.191 77.068 113.238 76.7013 113.365C76.5225 113.427 76.3437 113.5 76.171 113.579C76.0846 113.618 75.9997 113.659 75.9164 113.705C75.8209 113.758 75.7194 113.777 75.6118 113.786C75.4587 113.8 75.3482 113.652 75.4073 113.511Z" fill="#C49362" fill-opacity="0.39"/>
<path d="M92.6527 86.2065C92.633 85.917 93.0558 85.8701 93.1013 86.1565C93.1694 86.5974 93.2376 87.0368 93.2922 87.4793C93.3194 87.696 93.3437 87.9127 93.3588 88.1309C93.3755 88.3673 93.3997 88.5794 93.3194 88.8067C93.277 88.9264 93.0861 88.9476 93.0194 88.8401C92.9543 88.7355 92.9043 88.6355 92.883 88.5128C92.8649 88.4127 92.8527 88.3127 92.8376 88.2142C92.8027 87.99 92.777 87.7657 92.7558 87.5384C92.7134 87.0959 92.683 86.6504 92.6527 86.2065Z" fill="#C49362" fill-opacity="0.39"/>
</svg>
