<svg width="18" height="33" viewBox="0 0 18 33" fill="none" xmlns="http://www.w3.org/2000/svg">
<path d="M17 1C13.644 2.47474 10.7983 5.09197 9.04124 8.32035C7.28419 11.5483 6.62736 15.3672 7.20381 19" stroke="#F4F0F0" stroke-miterlimit="10" stroke-linecap="round" stroke-linejoin="round"/>
<path d="M13.4101 29.0551C13.5347 27.9856 13.2262 26.8724 12.5688 26.0196C11.6717 24.8556 10.1528 24.1384 9.67966 22.7477C9.38354 21.8771 9.5583 20.8701 9.1221 20.0607C8.69002 19.2586 7.74645 18.8511 6.83847 18.774C6.48943 18.7444 6.12715 18.7567 5.80457 18.8936C5.24929 19.129 4.90298 19.692 4.69766 20.2587C4.49234 20.8259 4.39013 21.4304 4.1328 21.9757C3.52459 23.2637 2.16993 24.0097 1.25602 25.102C0.378159 26.1514 -0.077654 27.5444 0.0108622 28.9096C0.665608 28.8863 1.5494 28.6454 2.09966 28.2904C2.08871 29.4649 2.39898 30.6097 3.05828 31.5815C3.9325 30.966 4.60367 30.0676 4.94678 29.0551C5.41628 30.4002 6.14951 31.6741 7.05931 32.7705C7.79527 31.8242 8.30538 30.1046 8.30127 28.9059C9.05959 30.4025 10.3709 31.6253 11.9409 32.2175C12.1969 30.6457 12.0669 28.9096 11.2223 27.5586C11.8675 28.0883 12.6431 28.7243 13.4101 29.0551Z" fill="#F4F0F0"/>
<path d="M11.2851 27.6635C10.6066 26.3285 9.49785 25.3352 8.73725 24.0284C7.99855 22.76 7.82197 21.21 8.08341 19.7655" stroke="#A68E6F" stroke-width="0.75" stroke-miterlimit="10" stroke-linecap="round" stroke-linejoin="round"/>
<path d="M2.09912 28.2904C2.10368 27.1032 2.5271 26.0661 3.32831 25.1901C3.79051 24.6845 4.36085 24.2766 4.7578 23.7182C5.51293 22.6551 5.51886 21.2379 6.04174 20.0434" stroke="#A68E6F" stroke-width="0.75" stroke-miterlimit="10" stroke-linecap="round" stroke-linejoin="round"/>
<path d="M4.94632 29.0551C4.6721 28.0112 4.95818 26.401 5.56228 25.0833C6.16638 23.7656 6.69109 22.1422 6.60531 20.6949" stroke="#A68E6F" stroke-width="0.75" stroke-miterlimit="10" stroke-linecap="round" stroke-linejoin="round"/>
<path d="M8.30075 28.9059C8.32585 28.0856 8.29528 27.4363 8.15019 26.6287C7.92114 25.3543 7.22533 24.3072 7.28236 23.0137" stroke="#A68E6F" stroke-width="0.75" stroke-miterlimit="10" stroke-linecap="round" stroke-linejoin="round"/>
</svg>
