<svg width="25" height="38" viewBox="0 0 25 38" fill="none" xmlns="http://www.w3.org/2000/svg">
<path d="M22.1258 37.1651C22.0566 33.288 20.5628 28.8108 16.8623 27.6507C14.724 26.9804 12.3743 27.6156 10.1836 27.1445C7.52877 26.5733 5.39601 24.347 4.57712 21.7581C3.75823 19.1692 4.1443 16.2965 5.26513 13.823" stroke="#F4F0F0" stroke-miterlimit="10" stroke-linecap="round" stroke-linejoin="round"/>
<path d="M23.0847 21.4352C24.5855 26.6528 24.3635 32.3509 22.4607 37.4358" stroke="#F4F0F0" stroke-miterlimit="10" stroke-linecap="round" stroke-linejoin="round"/>
<path d="M19.9853 20.5962C19.4468 18.8771 19.3108 17.0336 19.5842 15.2533C19.6478 14.8406 20.1063 14.5989 20.4639 14.8144C21.8483 15.6483 22.7906 17.1785 23.7007 18.4952C23.9563 18.8654 24.1671 19.2702 24.2606 19.71C24.9846 23.1108 20.8247 23.2772 19.9853 20.5962Z" fill="#F4F0F0"/>
<path d="M0.466701 3.02597C0.0801582 4.13745 0.145597 5.39851 0.644316 6.46372C1.32532 7.91781 2.77567 9.04332 2.95048 10.6395C3.06032 11.6388 2.63498 12.6713 2.90841 13.6384C3.17904 14.5961 4.08954 15.2546 5.0393 15.5524C5.40481 15.6669 5.79417 15.7393 6.17089 15.6697C6.81918 15.55 7.32164 15.0317 7.67546 14.4755C8.02929 13.9193 8.28122 13.2986 8.68505 12.7779C9.63949 11.5481 11.2614 11.0733 12.4953 10.1244C13.6807 9.21299 14.4972 7.83509 14.7267 6.35763C14.0228 6.22722 13.023 6.27443 12.3514 6.52262C12.6416 5.27232 12.5818 3.9776 12.1092 2.78432C11.0309 3.23396 10.1013 4.03276 9.49552 5.0316C9.3137 3.48543 8.83369 1.95282 8.12324 0.567437C7.11365 1.40222 6.16154 3.11572 5.88203 4.39547C5.42818 2.61934 4.31858 1.00351 2.78456 0C2.13908 1.61628 1.86611 3.49898 2.44616 5.14004C1.88341 4.42304 1.2066 3.56068 0.466701 3.02597Z" fill="#F4F0F0"/>
<path d="M2.40356 5.01431C2.81114 6.59928 3.75762 7.92157 4.25961 9.49625C4.74665 11.0247 4.56764 12.7199 3.94599 14.1988" stroke="#A68E6F" stroke-width="0.75" stroke-miterlimit="10" stroke-linecap="round" stroke-linejoin="round"/>
<path d="M12.3515 6.52356C12.065 7.78882 11.3676 8.79514 10.3052 9.53971C9.69244 9.96926 8.98713 10.2693 8.43139 10.7709C7.37366 11.7258 7.03151 13.2364 6.19019 14.3867" stroke="#A68E6F" stroke-width="0.75" stroke-miterlimit="10" stroke-linecap="round" stroke-linejoin="round"/>
<path d="M9.49549 5.033C9.54036 6.2118 8.85375 7.86172 7.89698 9.12418C6.9402 10.3866 5.99558 11.9945 5.74365 13.5584" stroke="#A68E6F" stroke-width="0.75" stroke-miterlimit="10" stroke-linecap="round" stroke-linejoin="round"/>
<path d="M5.88213 4.39688C5.66058 5.26625 5.53952 5.96595 5.5026 6.86196C5.44464 8.27585 5.93868 9.55748 5.5713 10.9242" stroke="#A68E6F" stroke-width="0.75" stroke-miterlimit="10" stroke-linecap="round" stroke-linejoin="round"/>
</svg>
