<svg width="191" height="203" viewBox="0 0 191 203" fill="none" xmlns="http://www.w3.org/2000/svg">
<path d="M28.5695 114.811C37.8407 114.811 45.3565 107.296 45.3565 98.0244C45.3565 88.7532 37.8407 81.2374 28.5695 81.2374C19.2983 81.2374 11.7825 88.7532 11.7825 98.0244C11.7825 107.296 19.2983 114.811 28.5695 114.811Z" stroke="#F8B6D4" stroke-opacity="0.3" stroke-width="0.5" stroke-miterlimit="10" stroke-linecap="round" stroke-linejoin="round"/>
<path d="M12.9315 91.916C6.46515 91.6874 2.1766 92.2832 1.94681 93.7C1.55421 96.1191 13.1555 100.016 27.8583 102.405C42.5622 104.793 54.7997 104.768 55.1934 102.349C55.4232 100.932 51.5434 99.0093 45.3369 97.1791" stroke="#F8B6D4" stroke-opacity="0.3" stroke-width="0.5" stroke-miterlimit="10" stroke-linecap="round" stroke-linejoin="round"/>
<path d="M14.4476 89.0986C8.14064 87.6552 3.81629 87.4312 3.32323 88.7787C2.48146 91.0812 13.1393 97.096 27.1285 102.214C41.1177 107.331 53.1416 109.614 53.9833 107.312C54.4764 105.964 51.0285 103.344 45.2781 100.376" stroke="#F8B6D4" stroke-opacity="0.3" stroke-width="0.5" stroke-miterlimit="10" stroke-linecap="round" stroke-linejoin="round"/>
<path d="M5.42135 77.5054C7.18573 79.3079 9.89926 79.607 11.987 78.4015C11.756 78.7825 11.4812 79.1428 11.1486 79.4684C9.01361 81.5584 5.58877 81.5226 3.49876 79.3887C1.40876 77.2537 1.44455 73.8288 3.57844 71.7388C3.91099 71.4132 4.2782 71.1453 4.66271 70.9225C3.41333 72.9847 3.65697 75.7041 5.42135 77.5054Z" stroke="#F8B6D4" stroke-opacity="0.3" stroke-width="0.5" stroke-miterlimit="10" stroke-linecap="round" stroke-linejoin="round"/>
<path d="M68.3605 105.246C70.8062 105.246 72.7888 103.263 72.7888 100.818C72.7888 98.372 70.8062 96.3893 68.3605 96.3893C65.9148 96.3893 63.9323 98.372 63.9323 100.818C63.9323 103.263 65.9148 105.246 68.3605 105.246Z" stroke="#F8B6D4" stroke-opacity="0.3" stroke-width="0.5" stroke-miterlimit="10" stroke-linecap="round" stroke-linejoin="round"/>
<path d="M66.8398 95.3998L65.9795 92.3722" stroke="#F8B6D4" stroke-opacity="0.3" stroke-width="0.5" stroke-miterlimit="10" stroke-linecap="round" stroke-linejoin="round"/>
<path d="M70.7426 109.142L69.8835 106.114" stroke="#F8B6D4" stroke-opacity="0.3" stroke-width="0.5" stroke-miterlimit="10" stroke-linecap="round" stroke-linejoin="round"/>
<path d="M63.0039 102.279L59.9763 103.14" stroke="#F8B6D4" stroke-opacity="0.3" stroke-width="0.5" stroke-miterlimit="10" stroke-linecap="round" stroke-linejoin="round"/>
<path d="M76.746 98.3754L73.7184 99.2357" stroke="#F8B6D4" stroke-opacity="0.3" stroke-width="0.5" stroke-miterlimit="10" stroke-linecap="round" stroke-linejoin="round"/>
<path d="M65.55 95.9494L64.3872 93.9633" stroke="#F8B6D4" stroke-opacity="0.3" stroke-width="0.5" stroke-miterlimit="10" stroke-linecap="round" stroke-linejoin="round"/>
<path d="M72.1616 107.255L71.1732 105.565" stroke="#F8B6D4" stroke-opacity="0.3" stroke-width="0.5" stroke-miterlimit="10" stroke-linecap="round" stroke-linejoin="round"/>
<path d="M63.5536 103.569L62.146 104.393" stroke="#F8B6D4" stroke-opacity="0.3" stroke-width="0.5" stroke-miterlimit="10" stroke-linecap="round" stroke-linejoin="round"/>
<path d="M74.8107 96.9852L73.1687 97.9459" stroke="#F8B6D4" stroke-opacity="0.3" stroke-width="0.5" stroke-miterlimit="10" stroke-linecap="round" stroke-linejoin="round"/>
<path d="M64.438 96.805L62.2198 94.5707" stroke="#F8B6D4" stroke-opacity="0.3" stroke-width="0.5" stroke-miterlimit="10" stroke-linecap="round" stroke-linejoin="round"/>
<path d="M74.5025 106.943L72.2843 104.71" stroke="#F8B6D4" stroke-opacity="0.3" stroke-width="0.5" stroke-miterlimit="10" stroke-linecap="round" stroke-linejoin="round"/>
<path d="M64.409 104.68L62.1747 106.898" stroke="#F8B6D4" stroke-opacity="0.3" stroke-width="0.5" stroke-miterlimit="10" stroke-linecap="round" stroke-linejoin="round"/>
<path d="M74.5474 94.6169L72.3142 96.8339" stroke="#F8B6D4" stroke-opacity="0.3" stroke-width="0.5" stroke-miterlimit="10" stroke-linecap="round" stroke-linejoin="round"/>
<path d="M63.5755 97.9101L61.5259 96.6907" stroke="#F8B6D4" stroke-opacity="0.3" stroke-width="0.5" stroke-miterlimit="10" stroke-linecap="round" stroke-linejoin="round"/>
<path d="M74.6086 104.473L73.1467 103.604" stroke="#F8B6D4" stroke-opacity="0.3" stroke-width="0.5" stroke-miterlimit="10" stroke-linecap="round" stroke-linejoin="round"/>
<path d="M65.5142 105.544L64.4634 107.308" stroke="#F8B6D4" stroke-opacity="0.3" stroke-width="0.5" stroke-miterlimit="10" stroke-linecap="round" stroke-linejoin="round"/>
<path d="M72.097 94.476L71.2079 95.9713" stroke="#F8B6D4" stroke-opacity="0.3" stroke-width="0.5" stroke-miterlimit="10" stroke-linecap="round" stroke-linejoin="round"/>
<path d="M63.0155 99.1953L59.9937 98.3131" stroke="#F8B6D4" stroke-opacity="0.3" stroke-width="0.5" stroke-miterlimit="10" stroke-linecap="round" stroke-linejoin="round"/>
<path d="M76.7286 103.201L73.7068 102.319" stroke="#F8B6D4" stroke-opacity="0.3" stroke-width="0.5" stroke-miterlimit="10" stroke-linecap="round" stroke-linejoin="round"/>
<path d="M66.7994 106.103L65.9172 109.125" stroke="#F8B6D4" stroke-opacity="0.3" stroke-width="0.5" stroke-miterlimit="10" stroke-linecap="round" stroke-linejoin="round"/>
<path d="M70.805 92.3895L69.9229 95.4113" stroke="#F8B6D4" stroke-opacity="0.3" stroke-width="0.5" stroke-miterlimit="10" stroke-linecap="round" stroke-linejoin="round"/>
<path d="M62.7949 100.58L60.9982 100.523" stroke="#F8B6D4" stroke-opacity="0.3" stroke-width="0.5" stroke-miterlimit="10" stroke-linecap="round" stroke-linejoin="round"/>
<path d="M75.6375 100.988L73.9274 100.934" stroke="#F8B6D4" stroke-opacity="0.3" stroke-width="0.5" stroke-miterlimit="10" stroke-linecap="round" stroke-linejoin="round"/>
<path d="M68.1838 106.323L68.1157 108.104" stroke="#F8B6D4" stroke-opacity="0.3" stroke-width="0.5" stroke-miterlimit="10" stroke-linecap="round" stroke-linejoin="round"/>
<path d="M68.6167 93.1747L68.5382 95.1908" stroke="#F8B6D4" stroke-opacity="0.3" stroke-width="0.5" stroke-miterlimit="10" stroke-linecap="round" stroke-linejoin="round"/>
<path d="M5.45474 60.9747L77.7147 70.9906C77.7147 70.9906 4.31622 38.6706 10.9858 23.9932L73.8083 51.0582C73.8083 51.0582 28.9067 15.7856 38.2678 6.10112L88.6439 42.6393C88.6439 42.6393 64.64 9.46361 72.2425 4.05615C72.2425 4.05615 97.6551 32.1015 98.8456 33.8289C100.036 35.5563 111.08 65.5092 111.08 65.5092L145.027 107.705L197.03 125.788L189.546 201.596L122.89 145.886L78.0922 133.414L16.048 130.364C16.048 130.364 17.534 119.405 35.7309 117.538C53.9278 115.67 73.1386 115.186 73.1386 115.186C73.1386 115.186 92.1923 96.999 89.8205 94.1631C87.4488 91.3271 3.89705 78.7929 5.45474 60.9747Z" stroke="#F8B6D4" stroke-opacity="0.3" stroke-width="0.5" stroke-miterlimit="10" stroke-linecap="round" stroke-linejoin="round"/>
<path d="M13.249 130.549L33.4851 131.221C33.4851 131.221 35.1213 124.106 27.6377 124.017C15.9914 123.878 13.249 130.549 13.249 130.549Z" fill="#212121"/>
<path d="M20.7799 63.0994L1.27124 60.0613C1.27124 60.0613 5.34734 64.7309 11.8818 65.8903C18.4162 67.0496 20.7799 63.0994 20.7799 63.0994Z" fill="#212121"/>
<path d="M25.1573 30.0981L7.17175 21.4297C7.17175 21.4297 10.9823 28.9111 16.7904 30.7447C22.5974 32.5784 25.1573 30.0981 25.1573 30.0981Z" fill="#212121"/>
<path d="M49.5712 14.3007L34.9562 2.7652C34.9562 2.7652 35.0716 8.91859 40.2181 12.5201C45.3646 16.1193 49.5712 14.3007 49.5712 14.3007Z" fill="#212121"/>
<path d="M78.3891 10.8608C78.3891 10.8608 74.7899 11.37 72.4216 7.70039C70.0533 4.03076 70.5395 0.498535 70.5395 0.498535L78.3891 10.8608Z" fill="#212121"/>
<path d="M75.8521 70.7319L98.0788 73.509" stroke="#F8B6D4" stroke-opacity="0.3" stroke-width="0.5" stroke-miterlimit="10" stroke-linecap="round" stroke-linejoin="round"/>
<path d="M73.8082 51.0582L99.0061 61.4932" stroke="#F8B6D4" stroke-opacity="0.3" stroke-width="0.5" stroke-miterlimit="10" stroke-linecap="round" stroke-linejoin="round"/>
<path d="M88.6439 42.6393L96.7083 51.2464" stroke="#F8B6D4" stroke-opacity="0.3" stroke-width="0.5" stroke-miterlimit="10" stroke-linecap="round" stroke-linejoin="round"/>
<path d="M198.076 163.935C199.985 142.883 199.376 125.622 196.715 125.38C194.055 125.139 190.351 142.01 188.442 163.061C186.533 184.113 187.142 201.375 189.803 201.616C192.463 201.857 196.168 184.987 198.076 163.935Z" fill="#212121"/>
<path d="M29.0869 48.5444L28.6146 52.5824L24.8041 51.5882L28.4818 53.2129L26.3756 56.6019L29.0349 53.5362L31.6295 56.6573L29.6226 53.2891L33.305 51.6771L29.4402 52.5916L29.0869 48.5444Z" fill="#212121"/>
<path d="M81.1408 138.016L80.6696 142.054L76.8591 141.06L80.5357 142.685L78.4295 146.074L81.0888 143.008L83.6834 146.128L81.6777 142.76L85.3589 141.149L81.4941 142.062L81.1408 138.016Z" fill="#212121"/>
<path d="M99.5176 28.2009L99.0454 32.2389L95.2349 31.2447L98.9126 32.8694L96.8064 36.2584L99.4657 33.1927L102.06 36.3138L100.053 32.9444L103.736 31.3336L99.871 32.2482L99.5176 28.2009Z" fill="#212121"/>
<path d="M4.28278 126.888L3.81051 130.926L0 129.932L3.67771 131.557L1.57155 134.946L4.23082 131.88L6.82542 135.001L4.81856 131.633L8.50089 130.021L4.63612 130.936L4.28278 126.888Z" fill="#212121"/>
<path d="M166.595 184.245C166.816 183.835 167.038 183.411 167.262 182.973" stroke="#F8B6D4" stroke-opacity="0.3" stroke-width="0.5" stroke-miterlimit="10" stroke-linecap="round" stroke-linejoin="round"/>
<path d="M160.44 163.159C156.937 179.048 156.39 191.045 159.519 191.937C160.283 192.155 161.209 191.697 162.25 190.657" stroke="#F8B6D4" stroke-opacity="0.3" stroke-width="0.5" stroke-miterlimit="10" stroke-linecap="round" stroke-linejoin="round"/>
<path d="M184.136 121.304C184.292 116.341 183.643 113.209 182.102 112.769C178.171 111.648 169.93 128.461 163.694 150.323C162.922 153.026 162.218 155.681 161.583 158.258" stroke="#F8B6D4" stroke-opacity="0.3" stroke-width="0.5" stroke-miterlimit="10" stroke-linecap="round" stroke-linejoin="round"/>
<path d="M154.58 137.38C139.138 151.004 128.949 163.756 131.412 166.662C132.654 168.127 136.891 166.829 142.833 163.517" stroke="#F8B6D4" stroke-opacity="0.3" stroke-width="0.5" stroke-miterlimit="10" stroke-linecap="round" stroke-linejoin="round"/>
<path d="M189.898 123.308C189.065 124.701 194.623 115.562 194.212 113.427C193.492 109.682 177.709 118.386 161.512 131.511" stroke="#F8B6D4" stroke-opacity="0.3" stroke-width="0.5" stroke-miterlimit="10" stroke-linecap="round" stroke-linejoin="round"/>
<path d="M194.817 108.758L194.345 112.796L190.535 111.802L194.212 113.427L192.106 116.816L194.765 113.75L197.36 116.871L195.353 113.502L199.036 111.891L195.171 112.805L194.817 108.758Z" fill="#212121"/>
<path d="M157.987 138.928C160.498 138.928 162.533 136.893 162.533 134.382C162.533 131.872 160.498 129.836 157.987 129.836C155.476 129.836 153.441 131.872 153.441 134.382C153.441 136.893 155.476 138.928 157.987 138.928Z" stroke="#F8B6D4" stroke-opacity="0.3" stroke-width="0.5" stroke-miterlimit="10" stroke-linecap="round" stroke-linejoin="round"/>
<path d="M164.599 191.453C166.742 191.453 168.479 189.716 168.479 187.574C168.479 185.431 166.742 183.694 164.599 183.694C162.456 183.694 160.719 185.431 160.719 187.574C160.719 189.716 162.456 191.453 164.599 191.453Z" stroke="#F8B6D4" stroke-opacity="0.3" stroke-width="0.5" stroke-miterlimit="10" stroke-linecap="round" stroke-linejoin="round"/>
<path d="M161.002 162.969C162.324 162.969 163.396 161.898 163.396 160.576C163.396 159.254 162.324 158.182 161.002 158.182C159.68 158.182 158.608 159.254 158.608 160.576C158.608 161.898 159.68 162.969 161.002 162.969Z" stroke="#F8B6D4" stroke-opacity="0.3" stroke-width="0.5" stroke-miterlimit="10" stroke-linecap="round" stroke-linejoin="round"/>
<path d="M94.2627 136.172C93.6796 143.02 94.2419 147.462 96.0998 147.992C97.8042 148.478 100.319 145.592 103.13 140.385" stroke="#F8B6D4" stroke-opacity="0.3" stroke-width="0.5" stroke-miterlimit="10" stroke-linecap="round" stroke-linejoin="round"/>
<path d="M100.505 105.578C100.429 105.844 100.351 106.11 100.275 106.378C98.1436 113.851 96.5224 120.945 95.4681 127.093" stroke="#F8B6D4" stroke-opacity="0.3" stroke-width="0.5" stroke-miterlimit="10" stroke-linecap="round" stroke-linejoin="round"/>
<path d="M111.314 77.0689C108.579 82.2755 105.586 89.6078 102.801 98.1191" stroke="#F8B6D4" stroke-opacity="0.3" stroke-width="0.5" stroke-miterlimit="10" stroke-linecap="round" stroke-linejoin="round"/>
<path d="M120.718 77.3576C120.874 72.3947 120.225 69.262 118.683 68.8221C117.409 68.4583 115.68 69.9814 113.714 72.9513" stroke="#F8B6D4" stroke-opacity="0.3" stroke-width="0.5" stroke-miterlimit="10" stroke-linecap="round" stroke-linejoin="round"/>
<path d="M94.7569 136.178C97.2676 136.178 99.3029 134.143 99.3029 131.632C99.3029 129.121 97.2676 127.086 94.7569 127.086C92.2461 127.086 90.2108 129.121 90.2108 131.632C90.2108 134.143 92.2461 136.178 94.7569 136.178Z" stroke="#F8B6D4" stroke-opacity="0.3" stroke-width="0.5" stroke-miterlimit="10" stroke-linecap="round" stroke-linejoin="round"/>
<path d="M101.147 105.509C103.29 105.509 105.027 103.772 105.027 101.629C105.027 99.4866 103.29 97.7496 101.147 97.7496C99.0043 97.7496 97.2672 99.4866 97.2672 101.629C97.2672 103.772 99.0043 105.509 101.147 105.509Z" stroke="#F8B6D4" stroke-opacity="0.3" stroke-width="0.5" stroke-miterlimit="10" stroke-linecap="round" stroke-linejoin="round"/>
<path d="M112.562 77.4304C113.884 77.4304 114.956 76.3587 114.956 75.0367C114.956 73.7147 113.884 72.643 112.562 72.643C111.24 72.643 110.169 73.7147 110.169 75.0367C110.169 76.3587 111.24 77.4304 112.562 77.4304Z" stroke="#F8B6D4" stroke-opacity="0.3" stroke-width="0.5" stroke-miterlimit="10" stroke-linecap="round" stroke-linejoin="round"/>
</svg>
