<svg width="52" height="52" viewBox="0 0 52 52" fill="none" xmlns="http://www.w3.org/2000/svg">
<path d="M15.1667 19.5217L15.1883 19.4978M23.8333 19.5217L23.855 19.4978M15.1667 28.1883L15.1883 28.1645M23.8333 28.1883L23.855 28.1645M15.1667 36.855L15.1883 36.8312M23.8333 36.855L23.855 36.8312M32.5 45.5H7.8C7.45522 45.5 7.12456 45.363 6.88076 45.1192C6.63696 44.8754 6.5 44.5448 6.5 44.2V12.1333C6.5 11.7886 6.63696 11.4579 6.88076 11.2141C7.12456 10.9703 7.45522 10.8333 7.8 10.8333H19.5V7.8C19.5 7.45522 19.637 7.12456 19.8808 6.88076C20.1246 6.63696 20.4552 6.5 20.8 6.5H31.2C31.5448 6.5 31.8754 6.63696 32.1192 6.88076C32.363 7.12456 32.5 7.45522 32.5 7.8V19.5M32.5 45.5H44.2C44.5448 45.5 44.8754 45.363 45.1192 45.1192C45.363 44.8754 45.5 44.5448 45.5 44.2V20.8C45.5 20.4552 45.363 20.1246 45.1192 19.8808C44.8754 19.637 44.5448 19.5 44.2 19.5H32.5M32.5 45.5V36.8333M32.5 19.5V28.1667M32.5 36.8333V28.1667M32.5 36.8333H36.8333M32.5 28.1667H36.8333" stroke="#C49362" stroke-width="1.5" stroke-linecap="round" stroke-linejoin="round"/>
</svg>
