<svg width="42" height="37" viewBox="0 0 42 37" fill="none" xmlns="http://www.w3.org/2000/svg">
<path d="M40.2068 18.0581C20.9108 1.12812 3.9738 15.8221 1.5418 17.8381C1.3998 17.9551 1.39182 18.1681 1.52282 18.2981C1.64582 18.4201 1.76684 18.5401 1.76684 18.5401C18.3828 35.0571 36.8338 21.6521 40.1618 18.9801C40.4498 18.7481 40.4698 18.3181 40.2068 18.0581Z" stroke="#CC9A63" stroke-width="2" stroke-miterlimit="10"/>
<path d="M20.9109 26.572C24.8868 26.572 28.1099 22.8622 28.1099 18.286C28.1099 13.7098 24.8868 10 20.9109 10C16.9351 10 13.7119 13.7098 13.7119 18.286C13.7119 22.8622 16.9351 26.572 20.9109 26.572Z" fill="#CC9A63"/>
<path d="M34.9429 2.54489C34.8133 2.54489 34.7103 2.54489 34.6073 2.54489C33.8941 2.54489 33.181 2.54488 32.4683 2.54524C32.4335 2.54524 32.3986 2.54561 32.3638 2.54633C32.1261 2.55175 32.0026 2.61062 32 2.71972C31.9975 2.827 32.1163 2.89744 32.3602 2.90033C33.0903 2.90936 33.8209 2.90973 34.551 2.91334C34.6719 2.91406 34.7928 2.91334 34.9501 2.91334C34.9501 3.93527 34.9501 4.9478 34.9501 5.94697C35.2288 6.04776 35.3471 6.00513 35.3558 5.81692C35.3676 5.55973 35.3712 5.30217 35.3727 5.04461C35.3753 4.41318 35.3748 3.78138 35.3753 3.14995C35.3753 3.07734 35.3753 3.00473 35.3753 2.91261C35.5321 2.90286 35.6663 2.88986 35.8016 2.88661C36.4358 2.87071 37.0696 2.85771 37.7039 2.84253C37.8248 2.83964 37.9549 2.84579 38 2.7338C37.9933 2.64855 37.9109 2.62219 37.8068 2.61785C37.4605 2.60413 37.1137 2.59004 36.7668 2.57992C36.3672 2.568 35.9676 2.56042 35.5679 2.54958C35.5177 2.54814 35.468 2.53693 35.3886 2.52646C35.3789 2.37979 35.3635 2.23495 35.361 2.08973C35.3563 1.81989 35.3651 1.55005 35.3569 1.28057C35.3461 0.931262 35.3287 0.582305 35.3046 0.233355C35.2995 0.153522 35.258 0.0747751 35.2339 0C35.0689 0.00650218 35.0684 0.0718809 35.0628 0.13329C35.0418 0.35292 35.0121 0.572917 35.0039 0.792908C34.9839 1.32609 34.9752 1.85927 34.9608 2.39245C34.9603 2.43544 34.9516 2.47734 34.9429 2.54489Z" fill="white"/>
<path d="M4.9429 33.5449C4.81328 33.5449 4.7103 33.5449 4.60732 33.5449C3.89415 33.5449 3.18097 33.5449 2.46832 33.5452C2.43348 33.5452 2.39864 33.5456 2.3638 33.5463C2.12607 33.5517 2.0026 33.6106 2.00004 33.7197C1.99748 33.827 2.11634 33.8974 2.36021 33.9003C3.09029 33.9094 3.82088 33.9097 4.55096 33.9133C4.67187 33.9141 4.79278 33.9133 4.95007 33.9133C4.95007 34.9353 4.95007 35.9478 4.95007 36.947C5.22878 37.0478 5.34713 37.0051 5.35584 36.8169C5.36762 36.5597 5.37121 36.3022 5.37274 36.0446C5.37531 35.4132 5.37479 34.7814 5.3753 34.1499C5.3753 34.0773 5.3753 34.0047 5.3753 33.9126C5.53208 33.9029 5.66631 33.8899 5.80157 33.8866C6.43584 33.8707 7.0696 33.8577 7.70387 33.8425C7.82478 33.8396 7.95491 33.8458 8 33.7338C7.99334 33.6486 7.91085 33.6222 7.80685 33.6179C7.46051 33.6041 7.11366 33.59 6.76681 33.5799C6.36719 33.568 5.96757 33.5604 5.56795 33.5496C5.51774 33.5481 5.46804 33.5369 5.38863 33.5265C5.37889 33.3798 5.36352 33.2349 5.36096 33.0897C5.35635 32.8199 5.36506 32.5501 5.35686 32.2806C5.3461 31.9313 5.32869 31.5823 5.30461 31.2334C5.29948 31.1535 5.25798 31.0748 5.2339 31C5.06893 31.0065 5.06842 31.0719 5.06278 31.1333C5.04178 31.3529 5.01206 31.5729 5.00386 31.7929C4.98388 32.3261 4.97517 32.8593 4.96083 33.3924C4.96031 33.4354 4.95161 33.4773 4.9429 33.5449Z" fill="white"/>
</svg>
