<svg width="122" height="117" viewBox="0 0 122 117" fill="none" xmlns="http://www.w3.org/2000/svg">
<path d="M85.9221 99.8777C93.7528 96.4774 101.555 91.4897 105.33 83.5909C105.487 83.2636 105.536 82.8921 105.463 82.537C105.461 82.5278 105.459 82.5185 105.457 82.5093C105.263 81.5936 104.332 81.0237 103.42 81.2339C99.1193 82.223 95.3587 84.6963 92.0596 87.6649" stroke="#CC9A63" stroke-miterlimit="10" stroke-linecap="round" stroke-linejoin="round"/>
<path d="M92.6328 87.1651C93.8136 84.2693 98.9045 79.665 96.5838 75.7523C95.4519 73.8436 93.4519 75.5454 92.3386 76.5199C88.9647 79.9665 87.4725 84.6712 82.387 86.4365" stroke="#CC9A63" stroke-miterlimit="10" stroke-linecap="round" stroke-linejoin="round"/>
<path d="M81.4441 86.2388C83.167 83.942 85.7171 81.4177 86.1918 78.4796C86.9634 73.7107 79.6762 79.343 78.4986 80.2779C76.0398 82.2303 73.6418 84.785 70.6693 85.9526" stroke="#CC9A63" stroke-miterlimit="10" stroke-linecap="round" stroke-linejoin="round"/>
<path d="M74.8915 97.5438C79.3007 99.2502 84.5205 99.5954 89.7059 100.463C92.8378 100.67 100.422 96.9779 100.978 96.4899C106.963 93.2159 111.936 89.3508 118.304 88.1991C118.596 88.2183 118.93 88.1998 119.271 88.1859C120.635 88.1317 121.483 89.6701 120.701 90.7881C120.424 91.1829 120.067 91.5723 119.628 91.9564C110.869 99.6284 101.267 104.708 91.1869 109.216C90.8556 109.364 90.4973 109.443 90.1343 109.447C70.9041 109.675 51.8729 106.887 32.6393 107.172C22.687 107.038 13.5023 111.148 4.53383 116.334L1 90.2196C6.92126 89.7607 12.8756 90.0437 18.6348 88.459C18.8934 88.3875 19.1453 88.2883 19.3853 88.1693C31.4169 82.2044 41.7678 78.5166 52.1122 80.5509C57.1931 81.5499 61.6195 84.5449 66.7203 85.4818C71.7629 86.408 76.9754 85.8804 82.0597 86.4021C85.1387 86.7181 88.209 87.1214 91.2536 87.6808C92.3822 87.8884 98.9262 88.5812 99.3395 89.5657C99.6423 90.287 99.481 91.1273 98.9144 91.6668C97.0916 93.4024 94.3716 94.1131 91.6517 94.8238C81.5956 96.2559 72.0267 98.244 62.0744 98.1098C58.9082 98.4245 55.7413 98.7392 53.1119 99.9107" stroke="#CC9A63" stroke-miterlimit="10" stroke-linecap="round" stroke-linejoin="round"/>
<path d="M67.9083 65.3194L72.5773 76.994" stroke="#CC9A63" stroke-miterlimit="10" stroke-linecap="round"/>
<path d="M54.4805 64.6648L49.9576 77.0349" stroke="#CC9A63" stroke-miterlimit="10" stroke-linecap="round"/>
<path d="M60.5986 26.4741L60.1959 13.4925" stroke="#CC9A63" stroke-miterlimit="10" stroke-linecap="round"/>
<path d="M73.4414 30.9303L81.6582 20.6362" stroke="#CC9A63" stroke-miterlimit="10" stroke-linecap="round"/>
<path d="M81.0566 42.3827L93.3818 39.9801" stroke="#CC9A63" stroke-miterlimit="10" stroke-linecap="round"/>
<path d="M79.0535 56.2801L89.7839 62.3111" stroke="#CC9A63" stroke-miterlimit="10" stroke-linecap="round"/>
<path d="M45.0339 55.4226L32.6989 62.4142" stroke="#CC9A63" stroke-miterlimit="10" stroke-linecap="round"/>
<path d="M43.0187 42.7728L29.0201 40.0958" stroke="#CC9A63" stroke-miterlimit="10" stroke-linecap="round"/>
<path d="M49.5946 31.8043L40.6743 20.7095" stroke="#CC9A63" stroke-miterlimit="10" stroke-linecap="round"/>
<path d="M65.4237 31.528C65.3629 31.528 65.3008 31.5194 65.24 31.5022C64.8896 31.4004 64.6872 31.0334 64.7884 30.683L64.9749 30.039C65.076 29.6886 65.4436 29.4883 65.794 29.5875C66.1444 29.6893 66.3467 30.0562 66.2456 30.4066L66.0591 31.0506C65.9751 31.3402 65.7107 31.528 65.4237 31.528Z" fill="#CC9A63"/>
<path d="M65.9678 29.6483C65.907 29.6483 65.8449 29.6397 65.784 29.6225C65.4336 29.5207 65.2313 29.1544 65.3325 28.8033L65.6901 27.5677C65.7768 27.2682 66.0326 27.0652 66.3573 27.091C66.0961 26.9436 65.9612 26.6321 66.0485 26.332L66.4068 25.0963C66.4934 24.7968 66.7579 24.6004 67.0733 24.6196C66.8121 24.4722 66.6773 24.1608 66.7639 23.8606L67.1216 22.6249C67.2227 22.2745 67.589 22.0742 67.9407 22.1734C68.2911 22.2752 68.4934 22.6414 68.3923 22.9925L68.0346 24.2282C67.9473 24.5277 67.6881 24.7214 67.3675 24.7049C67.628 24.8523 67.7635 25.1637 67.6763 25.4645L67.3179 26.7003C67.2313 26.9998 66.9629 27.1961 66.6515 27.1769C66.9126 27.3244 67.0475 27.6358 66.9609 27.9359L66.6032 29.1716C66.5192 29.4599 66.2554 29.6483 65.9678 29.6483Z" fill="#CC9A63"/>
<path d="M68.1145 22.2335C68.0537 22.2335 67.9916 22.2249 67.9308 22.2077C67.5804 22.1059 67.378 21.739 67.4792 21.3886L67.6657 20.7446C67.7668 20.3948 68.1324 20.1938 68.4848 20.293C68.8352 20.3948 69.0375 20.7618 68.9364 21.1122L68.7499 21.7561C68.6659 22.0451 68.4021 22.2335 68.1145 22.2335Z" fill="#CC9A63"/>
<path d="M74.0664 38.0535C73.8516 38.0535 73.6413 37.9497 73.5144 37.7566C73.3127 37.4519 73.3967 37.042 73.7015 36.841L74.2608 36.4714C74.5643 36.2691 74.9762 36.3531 75.1765 36.6585C75.3782 36.9633 75.2942 37.3732 74.9894 37.5742L74.4301 37.9431C74.3183 38.0178 74.192 38.0535 74.0664 38.0535Z" fill="#CC9A63"/>
<path d="M75.716 36.9626C75.5018 36.9626 75.2916 36.8588 75.164 36.6664C74.9623 36.3616 75.0456 35.9517 75.3504 35.7501L76.4406 35.0288C76.7177 34.8463 77.08 34.8972 77.2955 35.1365C77.1606 34.845 77.2552 34.4899 77.5309 34.3074L78.6211 33.5861C78.8981 33.403 79.2604 33.4552 79.476 33.6939C79.3411 33.4023 79.435 33.0473 79.712 32.8648L80.8022 32.1435C81.107 31.9418 81.5163 32.0252 81.7186 32.33C81.9202 32.6347 81.8369 33.0447 81.5321 33.2463L80.4419 33.9676C80.1649 34.1501 79.8019 34.0992 79.587 33.8598C79.7219 34.1514 79.6281 34.5058 79.3517 34.6889L78.2608 35.4103C77.9838 35.5934 77.6215 35.5411 77.4059 35.3025C77.5408 35.594 77.4469 35.9484 77.1705 36.1316L76.0803 36.8529C75.9679 36.9269 75.8416 36.9626 75.716 36.9626Z" fill="#CC9A63"/>
<path d="M82.2587 32.6348C82.0445 32.6348 81.8343 32.531 81.7067 32.3386C81.505 32.0338 81.5883 31.6238 81.8931 31.4222L82.4525 31.0519C82.7559 30.8496 83.1665 30.9336 83.3688 31.2384C83.5705 31.5432 83.4872 31.9531 83.1824 32.1548L82.623 32.5243C82.5106 32.599 82.3837 32.6348 82.2587 32.6348Z" fill="#CC9A63"/>
<path d="M77.696 48.6815C77.6696 48.6815 77.6432 48.6802 77.6161 48.6769L76.9503 48.5962C76.5873 48.5519 76.3295 48.2227 76.3731 47.8604C76.4167 47.4974 76.7453 47.2415 77.1089 47.2832L77.7747 47.3638C78.1377 47.4081 78.3955 47.7374 78.3519 48.0997C78.3116 48.4356 78.026 48.6815 77.696 48.6815Z" fill="#CC9A63"/>
<path d="M85.0679 49.5714C85.0415 49.5714 85.015 49.5701 84.9879 49.5668L83.7595 49.418C83.4785 49.3837 83.2604 49.1787 83.1962 48.9195C83.0719 49.1556 82.8068 49.3037 82.5318 49.2693L81.3033 49.1212C81.0217 49.0868 80.8035 48.8819 80.7394 48.622C80.6151 48.8581 80.3566 49.0068 80.0736 48.9725L78.8452 48.8237C78.4829 48.78 78.2244 48.4508 78.268 48.0878C78.3116 47.7249 78.6402 47.4664 79.0039 47.5106L80.2323 47.6594C80.5133 47.6938 80.7314 47.8987 80.7956 48.1586C80.9185 47.9225 81.1824 47.7738 81.4607 47.8081L82.6891 47.9562C82.9701 47.9906 83.1889 48.1949 83.2524 48.4548C83.376 48.2181 83.6333 48.07 83.9175 48.105L85.1459 48.2538C85.5083 48.2974 85.7661 48.6267 85.7231 48.9896C85.6828 49.3255 85.3979 49.5714 85.0679 49.5714Z" fill="#CC9A63"/>
<path d="M86.9615 49.8008C86.9351 49.8008 86.9086 49.7995 86.8815 49.7962L86.2164 49.7155C85.8534 49.6712 85.5956 49.342 85.6392 48.9797C85.6835 48.6167 86.0114 48.3589 86.3751 48.4025L87.0402 48.4831C87.4031 48.5274 87.661 48.8567 87.6174 49.219C87.5764 49.5549 87.2914 49.8008 86.9615 49.8008Z" fill="#CC9A63"/>
<path d="M72.5597 59.1349C72.3825 59.1349 72.2046 59.0635 72.0744 58.9227L71.6195 58.4308C71.3716 58.1624 71.3881 57.7446 71.6565 57.4966C71.9236 57.2487 72.3415 57.2645 72.5907 57.5336L73.0456 58.0255C73.2935 58.294 73.277 58.7118 73.0086 58.9597C72.881 59.0767 72.7203 59.1349 72.5597 59.1349Z" fill="#CC9A63"/>
<path d="M77.484 64.4644C77.3061 64.4644 77.1289 64.3937 76.9987 64.2522L76.1775 63.3643C75.9944 63.166 75.9554 62.8856 76.0559 62.6529C75.8179 62.7362 75.5408 62.6747 75.3564 62.4757L74.5359 61.5871C74.3528 61.3888 74.3138 61.1091 74.4136 60.8764C74.1756 60.9604 73.8992 60.8976 73.7148 60.6992L72.8943 59.8106C72.6463 59.5422 72.6629 59.1244 72.9313 58.8764C73.1984 58.6285 73.6169 58.645 73.8655 58.9134L74.686 59.8021C74.8691 60.0004 74.9081 60.28 74.8083 60.5128C75.0476 60.4314 75.3233 60.4916 75.5071 60.6893L76.3276 61.5779C76.5108 61.7762 76.5498 62.0566 76.4493 62.2893C76.688 62.208 76.9656 62.2681 77.1488 62.4658L77.9699 63.3537C78.2178 63.6215 78.202 64.04 77.9329 64.2879C77.8053 64.4063 77.6446 64.4644 77.484 64.4644Z" fill="#CC9A63"/>
<path d="M78.7592 65.8449C78.5814 65.8449 78.4042 65.7735 78.2739 65.6327L77.8191 65.1408C77.5712 64.8724 77.5877 64.4545 77.8561 64.2066C78.1232 63.9587 78.5417 63.9745 78.7903 64.2436L79.2452 64.7355C79.4931 65.004 79.4766 65.4218 79.2081 65.6698C79.0805 65.7868 78.9199 65.8449 78.7592 65.8449Z" fill="#CC9A63"/>
<path d="M61.4866 63.4304C61.1422 63.4304 60.8513 63.1633 60.8275 62.8136L60.7825 62.1451C60.7581 61.7808 61.0337 61.4655 61.398 61.441C61.7636 61.4304 62.077 61.6923 62.1022 62.0566L62.1471 62.725C62.1716 63.0893 61.8959 63.4046 61.5316 63.4291C61.5171 63.4298 61.5012 63.4304 61.4866 63.4304Z" fill="#CC9A63"/>
<path d="M61.9885 70.8506C61.644 70.8506 61.3531 70.5835 61.3293 70.2337L61.246 68.9974C61.2275 68.7137 61.3895 68.4605 61.6335 68.3508C61.3763 68.2741 61.1812 68.0447 61.1621 67.761L61.0781 66.524C61.0596 66.2411 61.2215 65.9872 61.4655 65.8768C61.209 65.8001 61.014 65.5706 60.9948 65.287L60.9108 64.0506C60.8864 63.6864 61.1614 63.3716 61.5264 63.3465C61.888 63.3386 62.206 63.5978 62.2305 63.9621L62.3144 65.1984C62.3329 65.4814 62.171 65.7353 61.927 65.8457C62.1835 65.9224 62.3786 66.1518 62.3978 66.4354L62.4817 67.6724C62.5002 67.9554 62.3383 68.2093 62.0943 68.3197C62.3515 68.3964 62.5465 68.6258 62.5657 68.9094L62.649 70.1458C62.6735 70.5101 62.3977 70.8255 62.0334 70.8499C62.0182 70.8499 62.0037 70.8506 61.9885 70.8506Z" fill="#CC9A63"/>
<path d="M62.1181 72.7553C61.7737 72.7553 61.4828 72.4883 61.459 72.1385L61.414 71.4701C61.3895 71.1058 61.6652 70.7904 62.0295 70.7659C62.3892 70.758 62.7092 71.0172 62.7337 71.3815L62.7786 72.0499C62.8031 72.4142 62.5274 72.7296 62.1631 72.754C62.1486 72.7547 62.1327 72.7553 62.1181 72.7553Z" fill="#CC9A63"/>
<path d="M51.0114 59.5026C50.8692 59.5026 50.7257 59.457 50.6054 59.3624C50.3171 59.1376 50.2662 58.7218 50.491 58.4348L50.9036 57.9066C51.1277 57.6183 51.5429 57.5667 51.8312 57.7922C52.1194 58.017 52.1703 58.4328 51.9455 58.7198L51.533 59.2481C51.4028 59.4153 51.2084 59.5026 51.0114 59.5026Z" fill="#CC9A63"/>
<path d="M46.1811 65.6829C46.0389 65.6829 45.8954 65.6373 45.7745 65.5428C45.4869 65.3173 45.4359 64.9021 45.6607 64.6145L46.466 63.5844C46.6697 63.3233 47.03 63.2572 47.3116 63.4158C47.0901 63.1818 47.067 62.8155 47.2713 62.5544L48.0759 61.5243C48.2796 61.2632 48.6399 61.1957 48.9215 61.3551C48.7 61.1217 48.6769 60.7547 48.8805 60.4929L49.6858 59.4629C49.9106 59.1753 50.3238 59.1237 50.6141 59.3491C50.9017 59.5746 50.9526 59.9898 50.7278 60.2774L49.9225 61.3075C49.7189 61.5673 49.3585 61.6354 49.0769 61.4761C49.2984 61.7101 49.3215 62.0764 49.1179 62.3375L48.3133 63.3676C48.1097 63.6287 47.748 63.6955 47.4676 63.5369C47.6891 63.7709 47.7123 64.1372 47.5086 64.399L46.7033 65.4291C46.5724 65.5957 46.3781 65.6829 46.1811 65.6829Z" fill="#CC9A63"/>
<path d="M44.9638 67.2413C44.8217 67.2413 44.6782 67.1957 44.5579 67.1012C44.2696 66.8764 44.2187 66.4605 44.4435 66.1736L44.8561 65.6453C45.0802 65.3564 45.4961 65.3048 45.7837 65.5309C46.0713 65.7557 46.1229 66.1716 45.8981 66.4585L45.4855 66.9868C45.3546 67.154 45.1602 67.2413 44.9638 67.2413Z" fill="#CC9A63"/>
<path d="M45.8729 49.789C45.5655 49.789 45.2904 49.5741 45.2263 49.2613C45.1529 48.9037 45.3823 48.5546 45.74 48.4799L46.3965 48.3443C46.7542 48.2723 47.104 48.5004 47.178 48.858C47.2514 49.2157 47.022 49.5648 46.6643 49.6395L46.0078 49.7751C45.9622 49.7843 45.9179 49.789 45.8729 49.789Z" fill="#CC9A63"/>
<path d="M37.5161 51.5073C37.2086 51.5073 36.9336 51.2924 36.8695 50.979C36.7961 50.6213 37.0262 50.2722 37.3839 50.1982L38.7769 49.9112C39.1319 49.8405 39.4836 50.0679 39.5577 50.4256C39.6311 50.7833 39.401 51.1324 39.0433 51.2064L37.6503 51.4934C37.6053 51.5026 37.5597 51.5073 37.5161 51.5073ZM40.3022 50.934C39.9947 50.934 39.719 50.7185 39.6549 50.4058C39.5815 50.0481 39.8116 49.699 40.1693 49.625L41.5616 49.3387C41.918 49.2673 42.2691 49.4954 42.3425 49.8531C42.4159 50.2107 42.1858 50.5598 41.8281 50.6339L40.4351 50.9202C40.3908 50.9294 40.3458 50.934 40.3022 50.934ZM43.0883 50.3615C42.7808 50.3615 42.5058 50.1466 42.441 49.8332C42.3676 49.4762 42.5977 49.1265 42.9554 49.0524L44.3477 48.7655C44.7048 48.694 45.0545 48.9222 45.1286 49.2798C45.202 49.6369 44.9719 49.9866 44.6142 50.0607L43.2218 50.3476C43.1768 50.3568 43.1319 50.3615 43.0883 50.3615Z" fill="#CC9A63"/>
<path d="M35.4664 51.9291C35.159 51.9291 34.884 51.7142 34.8192 51.4008C34.7458 51.0432 34.9759 50.6941 35.3336 50.62L35.9894 50.4851C36.3471 50.4144 36.6962 50.6418 36.7702 50.9995C36.8436 51.3572 36.6136 51.7063 36.2559 51.7803L35.6 51.9152C35.5557 51.9245 35.5107 51.9291 35.4664 51.9291Z" fill="#CC9A63"/>
<path d="M48.1037 39.5715C47.9966 39.5715 47.8875 39.5457 47.787 39.4902L47.1992 39.1682C46.8792 38.9923 46.7615 38.591 46.9374 38.271C47.1126 37.951 47.5146 37.8327 47.8346 38.0086L48.4223 38.3306C48.7423 38.5064 48.86 38.9077 48.6842 39.2277C48.5638 39.4479 48.3371 39.5715 48.1037 39.5715Z" fill="#CC9A63"/>
<path d="M46.2609 38.5613C46.1538 38.5613 46.0447 38.5355 45.9442 38.48L44.69 37.7924C44.37 37.6165 44.2523 37.2145 44.4282 36.8952C44.6034 36.5752 45.0054 36.4569 45.3254 36.6334L46.5796 37.321C46.8996 37.4968 47.0173 37.8988 46.8414 38.2181C46.7217 38.4376 46.495 38.5613 46.2609 38.5613ZM43.7525 37.1855C43.6454 37.1855 43.5363 37.1596 43.4358 37.1041L42.1816 36.4165C41.8616 36.2407 41.7439 35.8387 41.9198 35.5194C42.095 35.1994 42.497 35.0803 42.817 35.2575L44.0712 35.9451C44.3912 36.121 44.5089 36.523 44.333 36.8423C44.2133 37.0618 43.9866 37.1855 43.7525 37.1855ZM41.2448 35.8096C41.1377 35.8096 41.0286 35.7838 40.9281 35.7283L39.6745 35.0407C39.3545 34.8648 39.2369 34.4628 39.4127 34.1435C39.5879 33.8235 39.9892 33.7045 40.3099 33.8817L41.5641 34.5693C41.8841 34.7451 42.0018 35.1471 41.8259 35.4664C41.7049 35.6853 41.4781 35.8096 41.2448 35.8096Z" fill="#CC9A63"/>
<path d="M38.7371 34.4337C38.63 34.4337 38.5209 34.4079 38.4204 34.3524L37.8326 34.0304C37.5126 33.8545 37.3949 33.4532 37.5708 33.1332C37.746 32.8132 38.148 32.6942 38.468 32.8714L39.0558 33.1934C39.3758 33.3692 39.4934 33.7706 39.3176 34.0906C39.1972 34.3094 38.9705 34.4337 38.7371 34.4337Z" fill="#CC9A63"/>
<path d="M55.777 32.8701C55.5112 32.8701 55.26 32.7081 55.1588 32.4449L54.9202 31.8195C54.7906 31.4784 54.9612 31.0962 55.3023 30.966C55.6415 30.8364 56.0256 31.0076 56.1559 31.3481L56.3945 31.9736C56.5241 32.3147 56.3536 32.6968 56.0124 32.8271C55.935 32.8562 55.8557 32.8701 55.777 32.8701Z" fill="#CC9A63"/>
<path d="M55.0293 30.9091C54.7635 30.9091 54.5123 30.7472 54.4112 30.4834L53.9014 29.1492C53.7718 28.808 53.9417 28.4258 54.2836 28.2956C54.6221 28.166 55.0069 28.3366 55.1371 28.6777L55.6469 30.0126C55.7764 30.3538 55.6059 30.7359 55.2647 30.8661C55.1874 30.8952 55.108 30.9091 55.0293 30.9091ZM54.0112 28.2394C53.7454 28.2394 53.4942 28.0774 53.393 27.8143L52.8832 26.4795C52.7537 26.1383 52.9242 25.7561 53.2654 25.6259C53.6052 25.4956 53.9887 25.6669 54.1189 26.008L54.6287 27.3429C54.7582 27.684 54.5877 28.0662 54.2466 28.1964C54.1692 28.2255 54.0898 28.2394 54.0112 28.2394ZM52.9923 25.5704C52.7265 25.5704 52.4753 25.4084 52.3742 25.1446L51.8644 23.8104C51.7348 23.4692 51.9054 23.0871 52.2466 22.9568C52.5864 22.8266 52.9699 22.9978 53.1001 23.339L53.6099 24.6738C53.7394 25.015 53.5689 25.3971 53.2277 25.5274C53.1504 25.5565 53.071 25.5704 52.9923 25.5704Z" fill="#CC9A63"/>
<path d="M51.9741 22.9006C51.7083 22.9006 51.4571 22.7386 51.3559 22.4755L51.1173 21.8494C50.9877 21.5082 51.1589 21.1261 51.4994 20.9958C51.8406 20.8649 52.2227 21.0375 52.353 21.378L52.5916 22.0041C52.7212 22.3452 52.55 22.7274 52.2095 22.8576C52.1321 22.8867 52.0521 22.9006 51.9741 22.9006Z" fill="#CC9A63"/>
<path d="M73.9585 45.9979C61.201 34.8046 50.0031 44.5196 48.3952 45.8524C48.3013 45.9298 48.296 46.0706 48.3826 46.1566C48.4639 46.2372 48.544 46.3166 48.544 46.3166C59.5296 57.2368 71.7285 48.3741 73.9288 46.6075C74.1192 46.4541 74.1324 46.1698 73.9585 45.9979Z" stroke="#CC9A63" stroke-miterlimit="10"/>
<path d="M61.2011 51.6269C63.8297 51.6269 65.9607 49.1743 65.9607 46.1487C65.9607 43.1231 63.8297 40.6704 61.2011 40.6704C58.5724 40.6704 56.4414 43.1231 56.4414 46.1487C56.4414 49.1743 58.5724 51.6269 61.2011 51.6269Z" fill="#CC9A63"/>
<path d="M106.205 56.573C106.205 56.573 105.355 63.1554 102.164 63.1554C102.164 63.1554 106.205 65.6486 106.205 69.9375C106.205 65.6486 109.895 63.1554 109.895 63.1554C106.703 63.1554 106.205 56.573 106.205 56.573Z" stroke="#CC9A63" stroke-miterlimit="10" stroke-linecap="round" stroke-linejoin="round"/>
<path d="M89.9604 1C89.9604 1 89.1108 7.58241 85.9194 7.58241C85.9194 7.58241 89.9604 10.0756 89.9604 14.3645C89.9604 10.0756 93.6509 7.58241 93.6509 7.58241C90.4595 7.58241 89.9604 1 89.9604 1Z" stroke="#CC9A63" stroke-miterlimit="10" stroke-linecap="round" stroke-linejoin="round"/>
<path d="M20.7837 62.5848C20.7837 62.5848 19.9342 69.1672 16.7428 69.1672C16.7428 69.1672 20.7837 71.6604 20.7837 75.9493C20.7837 71.6604 24.4743 69.1672 24.4743 69.1672C21.2829 69.1672 20.7837 62.5848 20.7837 62.5848Z" stroke="#CC9A63" stroke-miterlimit="10" stroke-linecap="round" stroke-linejoin="round"/>
<path d="M9.47992 26.9111C9.47992 26.9111 8.63034 33.4935 5.43896 33.4935C5.43896 33.4935 9.47992 35.9867 9.47992 40.2756C9.47992 35.9867 13.1704 33.4935 13.1704 33.4935C9.9784 33.4935 9.47992 26.9111 9.47992 26.9111Z" stroke="#CC9A63" stroke-miterlimit="10" stroke-linecap="round" stroke-linejoin="round"/>
</svg>
