<svg width="110" height="156" viewBox="0 0 110 156" fill="none" xmlns="http://www.w3.org/2000/svg">
<path d="M72.0037 98.7485C75.3444 97.9932 77.6986 96.21 80.7195 94.7067C83.7611 93.1931 86.2333 92.0272 88.5979 89.5255C93.1165 84.7453 96.7299 79.1868 101.18 74.3771L107.533 65.5872C107.801 65.2434 108.028 64.8973 108.215 64.5552C109.614 61.9841 106.37 59.3979 104.154 61.3102L103.146 62.1803" stroke="#CC9A63" stroke-miterlimit="10" stroke-linecap="round" stroke-linejoin="round"/>
<path d="M74.196 88.7758C75.1753 88.066 76.4027 87.3411 77.4322 86.7223C88.3499 80.1709 92.7999 73.2566 102.253 64.4204C104.464 62.3533 102.213 58.7327 99.3903 59.8237C89.8531 63.5073 85.6018 73.1274 75.3125 75.6898C73.9592 76.3876 64.7546 79.3128 61.4521 79.9683C60.1052 80.2355 58.0365 80.1725 57.3586 78.8008C56.7254 77.52 57.4822 76.2743 58.2215 75.2559C59.0166 74.1602 63.4171 70.5172 64.5599 69.77C65.749 68.9924 70.384 66.5681 71.0994 65.6533C71.8163 64.7362 73.3738 63.5153 72.369 62.2576C71.5053 61.1762 69.9765 61.8772 68.8768 62.1404C67.7611 62.4067 66.5943 62.591 65.4962 62.9219C60.681 64.3734 55.9973 66.986 51.584 70.2118C50.1126 71.2868 48.6716 72.4304 47.2656 73.621C41.5771 78.2935 37.3631 84.1623 33.4905 90.3851C32.5224 91.941 31.5749 93.5185 30.6307 95.1071C25.1615 106.443 17.3501 116.388 8.59682 125.202C8.59682 125.202 -3.02101 133.335 2.47769 139.484C9.84172 146.614 16.9426 152.621 26.9614 154.547C28.0803 154.763 29.1545 154.003 29.3005 152.873C30.5685 143.034 34.6612 132.384 43.7717 126.868C45.3906 126.245 47.0136 125.642 48.6365 125.044C56.7493 122.053 64.8391 119.182 72.2294 114.482C76.6651 111.661 94.2282 95.9675 92.0885 94.4635C92.0885 94.4635 90.9513 93.3151 88.8364 95.0186" stroke="#CC9A63" stroke-miterlimit="10"/>
<path d="M93.9658 83.1734C94.6125 83.0219 97.9485 80.0751 98.8975 80.6988C99.8912 81.3519 99.128 83.3417 98.793 83.9494C97.5992 86.117 96.273 87.8371 94.5815 89.6618C93.8964 90.4011 91.4059 92.9259 90.6626 93.5097C88.869 94.9188 87.3554 96.4126 85.4087 97.6128C84.5953 98.1144 79.0112 102.591 77.8349 103.407C77.1874 103.857 76.4776 104.487 75.7974 104.855" stroke="#CC9A63" stroke-miterlimit="10"/>
<path d="M81.3186 39.4268C86.5507 37.2793 89.0513 31.297 86.9038 26.0649C84.7564 20.8328 78.774 18.3322 73.5419 20.4797C68.3098 22.6272 65.8092 28.6095 67.9567 33.8416C70.1042 39.0737 76.0865 41.5743 81.3186 39.4268Z" stroke="#CC9A63" stroke-miterlimit="10"/>
<path d="M75.574 29.9808C75.574 25.8067 78.0734 22.218 81.6549 20.623C80.3677 20.0401 78.941 19.7131 77.4361 19.7131C71.7803 19.7131 67.1956 24.2979 67.1956 29.9537C67.1956 35.6095 71.7803 40.1943 77.4361 40.1943C78.9171 40.1943 80.3239 39.8769 81.5951 39.3114C78.0454 37.7037 75.574 34.1325 75.574 29.9808Z" fill="#CC9A63"/>
<path d="M83.5496 48.2322L87.8042 58.8723" stroke="#CC9A63" stroke-miterlimit="10"/>
<path d="M71.3113 47.6356L67.1899 58.9089" stroke="#CC9A63" stroke-miterlimit="10"/>
<path d="M76.8874 12.8307L76.5205 1" stroke="#CC9A63" stroke-miterlimit="10"/>
<path d="M88.5923 16.8916L96.0799 7.50989" stroke="#CC9A63" stroke-miterlimit="10"/>
<path d="M95.532 27.3291L106.765 25.1392" stroke="#CC9A63" stroke-miterlimit="10"/>
<path d="M93.7058 39.9941L103.485 45.4904" stroke="#CC9A63" stroke-miterlimit="10"/>
<path d="M62.7026 39.2125L51.4612 45.5845" stroke="#CC9A63" stroke-miterlimit="10"/>
<path d="M60.8659 27.6848L48.1084 25.2445" stroke="#CC9A63" stroke-miterlimit="10"/>
<path d="M66.8588 17.6883L58.7292 7.57687" stroke="#CC9A63" stroke-miterlimit="10"/>
<path d="M81.2849 16.8342L83.9071 7.77707" stroke="#CC9A63" stroke-miterlimit="10"/>
<path d="M89.1609 22.781L97.1358 17.5056" stroke="#CC9A63" stroke-miterlimit="10"/>
<path d="M91.8628 32.3932L100.913 33.4865" stroke="#CC9A63" stroke-miterlimit="10"/>
<path d="M87.3735 41.5452L93.4385 48.1086" stroke="#CC9A63" stroke-miterlimit="10"/>
<path d="M77.6562 45.299L78.2727 54.4063" stroke="#CC9A63" stroke-miterlimit="10"/>
<path d="M68.5264 41.8475L62.6394 49.3814" stroke="#CC9A63" stroke-miterlimit="10"/>
<path d="M64.066 33.3526L53.9834 35.4261" stroke="#CC9A63" stroke-miterlimit="10"/>
<path d="M65.5002 24.1647L56.4287 19.1884" stroke="#CC9A63" stroke-miterlimit="10"/>
<path d="M72.4931 18.0567L68.8096 8.4007" stroke="#CC9A63" stroke-miterlimit="10"/>
</svg>
