<svg width="119" height="115" viewBox="0 0 119 115" fill="none" xmlns="http://www.w3.org/2000/svg">
<path d="M66.4009 35.1744C67.7643 36.8636 71.3796 37.8401 73.0119 38.4816C80.9778 41.6103 88.9773 44.678 96.7473 48.2749C100.662 50.0872 104.516 52.0326 108.261 54.1748C111.518 56.039 115.103 57.4736 117.673 60.3135C117.909 60.5748 118.026 60.9416 117.933 61.2816C117.027 64.5988 101.387 59.9224 100.375 59.5137C94.5405 57.1562 87.6716 53.3717 81.6871 51.4078" stroke="#CC9A63" stroke-miterlimit="10" stroke-linecap="round" stroke-linejoin="round"/>
<path d="M77.8552 59.5957C76.1693 56.142 73.4702 54.9185 71.3029 51.0075C70.4235 49.4289 68.7879 47.913 71.0072 46.4332C73.4149 44.8278 76.8594 48.1115 78.7295 49.3032C83.8514 52.5668 88.1309 57.0917 90.7772 62.5829C91.268 63.6013 91.881 64.7494 91.5486 65.8298C90.9757 67.6898 90.0152 67.3825 88.4098 68.0248C88.4098 68.0248 85.0163 68.987 84.6311 67.9578" stroke="#CC9A63" stroke-miterlimit="10" stroke-linecap="round" stroke-linejoin="round"/>
<path d="M74.414 68.3573C70.2015 63.2907 66.3241 58.5146 60.5481 54.9168C58.4293 53.298 55.4312 50.1006 57.3699 47.682C57.7099 46.7625 59.0867 47.2499 60.0062 47.5899C68.88 51.2873 76.4214 57.1395 82.3774 64.7738C84.456 67.6321 87.0296 70.3455 84.4518 73.3637C82.1932 76.0821 78.196 75.0227 75.4734 73.9416L70.4218 71.6896" stroke="#CC9A63" stroke-miterlimit="10" stroke-linecap="round" stroke-linejoin="round"/>
<path d="M41.52 39.7562C47.1193 41.2343 53.2746 42.6731 58.6109 40.6741C62.0688 39.2353 64.3468 35.8972 67.8046 34.4584C75.3393 31.6002 82.714 33.6988 90.489 33.0188C90.5108 33.0163 90.5326 33.0138 90.5544 33.0113C93.7325 32.6252 94.4025 28.2746 91.5158 26.8919C87.7765 25.1014 83.3606 25.3459 78.9572 25.2036C76.799 24.8242 74.64 24.444 71.8621 24.0445C61.3695 22.4659 50.7966 23.3653 40.9832 19.9476C32.0893 16.87 27.7119 8.35629 22.5656 1L3.0033 14.6398C6.60691 18.529 10.5237 22.0664 13.4816 26.5041C27.0728 47.4089 43.5818 64.3777 64.8668 77.4681C66.386 78.4471 69.204 77.6079 70.183 76.0888C70.8622 74.2497 70.6227 72.0715 70.0633 70.193C67.7452 65.1565 63.5076 61.9189 59.2901 58.0615C58.6914 57.4225 57.7735 57.0834 56.5365 57.0423C53.6398 56.9469 56.4394 61.0848 57.0055 62.1107C58.801 65.3625 61.0865 68.2962 63.4205 71.1729" stroke="#CC9A63" stroke-miterlimit="10" stroke-linecap="round" stroke-linejoin="round"/>
<path d="M56.1445 61.9984C50.8191 64.6724 45.7114 68.1747 41.9914 72.682C41.4596 73.326 40.9571 73.9901 40.4856 74.676C39.9873 75.4213 39.5209 76.1926 39.0896 76.9866C34.5865 85.0061 34.5865 94.5632 37.9163 102.966C38.2203 103.713 38.5553 104.447 38.9212 105.164C40.7528 108.747 43.3665 111.916 46.7784 114.331" stroke="#CC9A63" stroke-miterlimit="10" stroke-linecap="round" stroke-linejoin="round"/>
<path d="M64.9831 58.4619C63.8668 59.0037 62.974 59.3897 61.8225 59.852" stroke="#CC9A63" stroke-miterlimit="10" stroke-linecap="round" stroke-linejoin="round"/>
<path d="M81.2384 8.4082C90.422 10.7054 100.894 18.4209 100.343 28.8926C100.343 39.3642 89.4966 46.6468 80.7677 50.7035" stroke="#CC9A63" stroke-miterlimit="10" stroke-linecap="round" stroke-linejoin="round"/>
<path d="M39.139 77.0359C38.2739 77.3684 37.4138 77.7118 36.5596 78.0643C28.8524 80.91 22.2984 85.2791 15.1155 89.0694C14.3559 89.5058 13.5996 89.9413 12.8451 90.3684" stroke="#CC9A63" stroke-miterlimit="10" stroke-linecap="round" stroke-linejoin="round"/>
<path d="M41.962 73.4315C42.4587 73.7757 42.6262 74.779 42.7652 75.2421C42.9327 75.7999 43.1035 76.3559 43.2719 76.9112C43.4829 77.855 43.7065 78.7997 43.9401 79.746C44.1746 80.6923 44.4225 81.6386 44.6922 82.5858C46.3269 88.2839 48.5119 93.745 49.877 99.4792" stroke="#CC9A63" stroke-miterlimit="10" stroke-linecap="round" stroke-linejoin="round"/>
<path d="M98.4659 36.9607C100.942 36.9934 103.249 35.5396 105.213 34.1519C106.118 33.5129 107.012 32.8178 107.834 32.0264C109.633 30.2074 110.892 28.0543 111.721 25.7203C111.928 25.1366 112.109 24.542 112.264 23.9382C113.776 19.1973 112.684 14.2822 112.283 9.51868" stroke="#CC9A63" stroke-miterlimit="10" stroke-linecap="round" stroke-linejoin="round"/>
<path d="M95.384 16.9278C90.5669 16.9278 85.7648 16.7168 81.0064 15.8902C78.3382 15.4262 72.2289 13.4875 71.4987 13.0754" stroke="#CC9A63" stroke-miterlimit="10" stroke-linecap="round" stroke-linejoin="round"/>
<path d="M109.291 30.0215C108.433 28.4755 107.754 26.8048 107.26 25.0662C107.095 24.4867 106.951 23.8996 106.828 23.3042C105.311 15.6472 106.676 7.18212 111.865 1.448C116.78 7.18212 123.914 28.6037 109.291 30.0215Z" stroke="#CC9A63" stroke-miterlimit="10" stroke-linecap="round" stroke-linejoin="round"/>
<path d="M28.9948 81.3807C27.2144 79.5441 24.4834 78.179 21.6226 78.1162C20.7315 78.0551 19.8304 78.0819 18.9327 78.1866C15.3416 78.6036 11.7966 80.2568 9.21302 82.6075C8.53719 83.239 7.91161 83.9224 7.32622 84.651C4.41352 88.283 2.50157 93.0616 1 97.2942C4.82303 98.1132 8.64606 98.9323 12.7287 98.7078C13.7278 98.6568 14.7185 98.5538 15.69 98.3913C16.4998 98.2556 17.2979 98.0789 18.0801 97.8645C25.8484 96.476 31.3095 88.5569 30.0366 80.8573" stroke="#CC9A63" stroke-miterlimit="10" stroke-linecap="round" stroke-linejoin="round"/>
<path d="M45.4844 85.0848C41.6865 88.5552 39.6791 94.7759 41.9629 99.4783C41.9629 99.4783 45.2717 108.965 56.7458 111.733L57.3924 105.525C57.5741 104.761 57.8085 103.08 57.9082 102.303C58.7105 96.1125 56.4318 90.4672 50.6976 86.9171C48.7857 85.8251 46.8746 85.2791 45.0573 85.4683" stroke="#CC9A63" stroke-miterlimit="10" stroke-linecap="round" stroke-linejoin="round"/>
<path d="M80.6379 15.7344C80.6379 15.7344 78.1984 3.55096 61.0673 8.13189C61.0673 8.13189 64.0369 22.6209 80.6379 15.7344Z" stroke="#CC9A63" stroke-miterlimit="10" stroke-linecap="round" stroke-linejoin="round"/>
<path d="M73.7691 54.4052C72.6527 54.947 73.8042 54.4847 72.6527 54.947" stroke="#CC9A63" stroke-miterlimit="10" stroke-linecap="round" stroke-linejoin="round"/>
</svg>
