<svg width="167" height="38" viewBox="0 0 167 38" fill="none" xmlns="http://www.w3.org/2000/svg">
<path d="M82.7486 10.88C90.8347 13.1584 98.896 17.0648 103.624 24.2669C103.819 24.565 103.917 24.9205 103.893 25.2766C103.892 25.2859 103.891 25.2947 103.89 25.3041C103.822 26.2228 102.986 26.9409 102.073 26.8175C98.8321 26.3805 95.3755 24.3176 90.0984 21.9246" stroke="#CC9A63" stroke-miterlimit="10" stroke-linecap="round" stroke-linejoin="round"/>
<path d="M89.6465 22.0536C91.1814 24.721 97.8776 28.9454 96.1333 33.0684C95.2823 35.08 93.1065 33.6851 91.8924 32.8821C88.1464 29.9677 86.9521 27.928 82.1942 24.2024" stroke="#CC9A63" stroke-miterlimit="10" stroke-linecap="round" stroke-linejoin="round"/>
<path d="M79.8833 24.8164C81.8679 26.8274 84.7861 28.9829 85.6387 31.7848C87.0226 36.3333 79.1707 31.8057 77.8987 31.0502C75.2428 29.4723 72.711 27.5378 69.6572 26.7933" stroke="#CC9A63" stroke-miterlimit="10" stroke-linecap="round" stroke-linejoin="round"/>
<path d="M71.3492 14.9374C75.4226 12.6894 81.2127 11.4163 86.1541 9.88358C89.1809 9.26687 92.1052 10.7709 95.44 11.6676C96.0474 12.0693 109.321 17.4958 115.664 18.0546C116.269 18.1081 116.948 18.1036 117.504 17.935C118.284 17.6986 118.661 16.8025 118.281 16.081C117.928 15.407 117.32 14.7853 116.458 14.2155C106.742 7.78933 96.5313 4.09127 85.9194 0.999999C66.9468 3.29048 48.5916 8.60772 29.6196 10.8982C19.9324 12.3471 10.4321 9.55511 1.00013 5.68676L1.01223 31.6189C5.11482 31.3819 9.16561 31.4889 13.234 31.8675C16.1302 32.137 18.9652 32.9168 21.5571 34.2379C30.5317 38.8117 43.1806 37.3368 52.1325 34.2792C56.9544 32.6319 60.874 29.1256 65.7244 27.5362C70.5187 25.9655 75.6712 25.7891 80.5602 24.6075C83.5203 23.8921 86.4616 23.0919 89.3562 22.1434C90.4292 21.7918 96.7187 20.2492 96.9915 19.2346C97.191 18.4911 96.9226 17.6931 96.2987 17.2423C94.2915 15.7917 91.5452 15.4583 88.799 15.1254C78.8037 15.0609 69.2097 14.389 59.5226 15.838C56.3933 15.9504 53.264 16.0628 50.5447 15.2692" stroke="#CC9A63" stroke-miterlimit="10" stroke-linecap="round" stroke-linejoin="round"/>
<path d="M147.665 25.7402C152.276 25.7402 156.014 22.0022 156.014 17.3912C156.014 12.7802 152.276 9.04218 147.665 9.04218C143.054 9.04218 139.316 12.7801 139.316 17.3912C139.316 22.0022 143.054 25.7402 147.665 25.7402Z" stroke="#CC9A63" stroke-miterlimit="10" stroke-linecap="round" stroke-linejoin="round"/>
<path d="M154.484 12.5744C160.533 11.1023 165.647 10.4377 165.979 11.4638C166.453 12.926 158.637 16.7651 148.523 20.0388C138.408 23.3125 129.825 24.7807 129.352 23.318C129.016 22.2803 133.445 19.7704 139.317 17.3907" stroke="#CC9A63" stroke-miterlimit="10" stroke-linecap="round" stroke-linejoin="round"/>
</svg>
