<svg width="52" height="52" viewBox="0 0 52 52" fill="none" xmlns="http://www.w3.org/2000/svg">
<path d="M26 1.37283C39.5793 1.37283 50.6272 12.4207 50.6272 26C50.6272 39.5793 39.5793 50.6272 26 50.6272C12.4207 50.6272 1.37283 39.5793 1.37283 26C1.37283 12.4207 12.4207 1.37283 26 1.37283ZM26 0C11.6406 0 0 11.6406 0 26C0 40.3594 11.6406 52 26 52C40.3594 52 52 40.3594 52 26C52 11.6406 40.3594 0 26 0Z" fill="#C49362"/>
<path d="M17.5173 28.4526L20.3859 36.1974" stroke="#C49362" stroke-miterlimit="10" stroke-linecap="round" stroke-linejoin="round"/>
<path d="M20.7134 29.8868L20.4265 36.2791L24.5405 32.791L20.7134 29.8868Z" stroke="#C49362" stroke-miterlimit="10" stroke-linecap="round" stroke-linejoin="round"/>
<path d="M36.9071 14.643L10.7396 24.586C10.0004 24.8668 10.0199 25.9194 10.7691 26.1727L17.5173 28.4529L32.8837 19.2227L20.7136 29.8868L30.1878 37.0767C31.1735 37.8245 32.6026 37.3217 32.9026 36.1215L38.0242 15.6355C38.1893 14.9745 37.5438 14.401 36.9071 14.643Z" stroke="#C49362" stroke-miterlimit="10" stroke-linecap="round" stroke-linejoin="round"/>
</svg>
